<?xml version="1.0" encoding="UTF-8" standalone="no"?>
<svg
   xmlns:dc="http://purl.org/dc/elements/1.1/"
   xmlns:cc="http://creativecommons.org/ns#"
   xmlns:rdf="http://www.w3.org/1999/02/22-rdf-syntax-ns#"
   xmlns:svg="http://www.w3.org/2000/svg"
   xmlns="http://www.w3.org/2000/svg"
   xmlns:sodipodi="http://sodipodi.sourceforge.net/DTD/sodipodi-0.dtd"
   xmlns:inkscape="http://www.inkscape.org/namespaces/inkscape"
   id="Layer_1"
   data-name="Layer 1"
   viewBox="0 0 2560 1440"
   version="1.1"
   sodipodi:docname="anatomy_of_a_schematic.svg"
   inkscape:version="0.92.1 r15371">
  <metadata
     id="metadata963">
    <rdf:RDF>
      <cc:Work
         rdf:about="">
        <dc:format>image/svg+xml</dc:format>
        <dc:type
           rdf:resource="http://purl.org/dc/dcmitype/StillImage" />
      </cc:Work>
    </rdf:RDF>
  </metadata>
  <sodipodi:namedview
     pagecolor="#ffffff"
     bordercolor="#666666"
     borderopacity="1"
     objecttolerance="10"
     gridtolerance="10"
     guidetolerance="10"
     inkscape:pageopacity="0"
     inkscape:pageshadow="2"
     inkscape:window-width="1617"
     inkscape:window-height="1027"
     id="namedview961"
     showgrid="false"
     inkscape:zoom="0.4234375"
     inkscape:cx="1089.5879"
     inkscape:cy="661.28253"
     inkscape:window-x="55"
     inkscape:window-y="-8"
     inkscape:window-maximized="1"
     inkscape:current-layer="Layer_1" />
  <defs
     id="defs4">
    <style
       id="style2">.cls-1,.cls-19{fill:#c0e6ff;}.cls-12,.cls-15,.cls-2,.cls-22{fill:#274858;}.cls-2{opacity:0.64;}.cls-21,.cls-3{fill:#3b5d6d;}.cls-10,.cls-18,.cls-4,.cls-5{fill:#fff;}.cls-11,.cls-14,.cls-16,.cls-17,.cls-19,.cls-23,.cls-25,.cls-4{stroke:#274858;}.cls-16,.cls-17,.cls-18,.cls-19,.cls-25,.cls-4{stroke-miterlimit:10;}.cls-18,.cls-25,.cls-4{stroke-width:3px;}.cls-5{font-size:72px;}.cls-13,.cls-5{font-family:HelvNeue Roman for IBM;}.cls-6{letter-spacing:1px;}.cls-36,.cls-7{letter-spacing:-2px;}.cls-8{letter-spacing:-1px;}.cls-12,.cls-21,.cls-22,.cls-9{font-family:HelvNeue Bold for IBM;}.cls-11,.cls-14,.cls-16,.cls-17,.cls-23,.cls-25{fill:none;}.cls-11,.cls-16,.cls-23{stroke-linecap:round;}.cls-11,.cls-14,.cls-23{stroke-linejoin:round;}.cls-11,.cls-14,.cls-16,.cls-17{stroke-width:1.9998px;}.cls-12,.cls-21,.cls-22{font-size:48px;}.cls-13,.cls-27{font-size:36px;}.cls-18{stroke:#3b5d6d;}.cls-19{stroke-width:3.72009px;}.cls-20{fill:#c5bbbb;opacity:0.34;}.cls-22{opacity:0.2;}.cls-23{stroke-width:1.99978px;}.cls-24{letter-spacing:-4px;}.cls-26{opacity:0.19;}.cls-27{font-family:Myriad Pro;}.cls-28,.cls-43{fill:#b13d6c;}.cls-29,.cls-36{fill:#3d559f;}.cls-30,.cls-39,.cls-43{white-space:pre;}.cls-31{letter-spacing:4px;}.cls-32,.cls-39{letter-spacing:106px;}.cls-33{letter-spacing:77px;}.cls-34{letter-spacing:97px;}.cls-35{letter-spacing:20px;}.cls-37{letter-spacing:28px;}.cls-38{letter-spacing:-3px;}.cls-40{fill:#0186b3;}.cls-41{letter-spacing:63px;}.cls-42{letter-spacing:42px;}</style>
  </defs>
  <title
     id="title6">anatomy_of_a_Schematic</title>
  <rect
     class="cls-1"
     x="-1.9825"
     width="2562"
     height="1440"
     id="rect8" />
  <path
     class="cls-2"
     d="m59.319 59.21v1316.1h664.21v-1316.1h-664.21zm8 1308.1v-1104.1h648.21v1104.1h-648.21z"
     id="path10" />
  <path
     class="cls-3"
     d="m59.319 59.21v1316.1h664.21v-1316.1h-664.21zm8 1308.1v-1104.1h648.21v1104.1h-648.21z"
     id="path12" />
  <rect
     class="cls-4"
     x="785.91"
     y="299.9"
     width="583.25"
     height="756.78"
     id="rect14" />
  <text
     class="cls-5"
     transform="translate(100.31 144.14)"
     id="text48"
     style="-inkscape-font-specification:'HelvNeue Roman for IBM, Normal';font-family:'HelvNeue Roman for IBM';font-weight:normal;font-style:normal;font-stretch:normal;font-variant:normal;font-size:72px;text-anchor:start;text-align:start;writing-mode:lr;font-variant-ligatures:normal;font-variant-caps:normal;font-variant-numeric:normal;font-feature-settings:normal;">
    <tspan
       sodipodi:role="line"
       id="tspan5442">Anatomía de </tspan>
    <tspan
       sodipodi:role="line"
       id="tspan5444">un Schematic</tspan>
  </text>
  <rect
     class="cls-10"
     x="206.49"
     y="298.69"
     width="469.05"
     height="171.14"
     id="rect50" />
  <path
     class="cls-10"
     d="m667.55 306.83v155.14h-559.24v-155.14h559.24m8-8h-575.24v171.14h575.24v-171.14z"
     id="path52" />
  <path
     class="cls-11"
     d="m179.98 372.39l-20.5-11.8a1.8167 1.8167 0 0 0 -2 0l-20.4 11.8a2.058 2.058 0 0 0 0 3.5l20.5 11.8a1.8167 1.8167 0 0 0 2 0l20.4-11.8a2.058 2.058 0 0 0 0 -3.5z"
     id="path54" />
  <path
     class="cls-11"
     d="m138.48 381.89l-1.3 0.7a1.9833 1.9833 0 0 0 0 3.5l20.4 11.8a1.8167 1.8167 0 0 0 2 0l20.3-11.8a2.058 2.058 0 0 0 0 -3.5l-1.4-0.8"
     id="path56" />
  <path
     class="cls-11"
     d="m138.48 392.09l-1.5 0.8a2.058 2.058 0 0 0 0 3.5l20.5 11.8a1.8167 1.8167 0 0 0 2 0l20.5-11.8a2.058 2.058 0 0 0 0 -3.5l-1.5-0.8"
     id="path58" />
  <text
     class="cls-12"
     transform="translate(232.49 358.23)"
     id="text108"
     style="-inkscape-font-specification:'HelvNeue Roman for IBM, Normal';font-family:'HelvNeue Roman for IBM';font-weight:normal;font-style:normal;font-stretch:normal;font-variant:normal;font-size:36px;text-anchor:start;text-align:start;writing-mode:lr;font-variant-ligatures:normal;font-variant-caps:normal;font-variant-numeric:normal;font-feature-settings:normal;">
    <tspan
       sodipodi:role="line"
       id="tspan5448"
       style="font-size:48px">Configuración</tspan>
    <tspan
       sodipodi:role="line"
       id="tspan5450">Infraestructura</tspan>
    <tspan
       sodipodi:role="line"
       id="tspan5452">definida como código</tspan>
  </text>
  <rect
     class="cls-10"
     x="206.49"
     y="730.64"
     width="469.05"
     height="171.14"
     id="rect110" />
  <path
     class="cls-10"
     d="m667.55 738.64v155.14h-559.24v-155.14h559.24m8-8h-575.24v171.14h575.24v-171.14z"
     id="path112" />
  <polyline
     class="cls-14"
     points="155.83 832.16 168.53 832.16 168.53 813.86 168.53 800.26 144.13 800.26 144.13 807.76"
     id="polyline114" />
  <rect
     class="cls-14"
     x="131.93"
     y="808.76"
     width="24.4"
     height="31.9"
     id="rect116" />
  <polyline
     class="cls-14"
     points="169.33 823.76 180.73 823.76 180.73 805.46 180.73 791.76 156.33 791.76 156.33 800.26"
     id="polyline118" />
  <rect
     class="cls-10"
     x="206.49"
     y="514.7"
     width="469.05"
     height="171.14"
     id="rect150" />
  <path
     class="cls-10"
     d="m667.55 522.7v155.14h-559.24v-155.14h559.24m8-8h-575.24v171.14h575.24v-171.14z"
     id="path152" />
  <path
     class="cls-15"
     d="m151.09 590.15l-9.6436 4.3789 9.6436 4.3794v1.543l-11.526-5.2188v-1.4067l11.526-5.2188v1.543z"
     id="path154" />
  <path
     class="cls-15"
     d="m158.4 585.68h1.6562l-6.7168 16.972h-1.6562z"
     id="path156" />
  <path
     class="cls-15"
     d="m161.67 598.91l9.6426-4.3794-9.6426-4.3789v-1.543l11.526 5.2188v1.4067l-11.526 5.2188v-1.543z"
     id="path158" />
  <line
     class="cls-16"
     x1="180.83"
     x2="132.03"
     y1="624.72"
     y2="624.72"
     id="line160" />
  <rect
     class="cls-17"
     x="131.93"
     y="575.82"
     width="48.9"
     height="36.7"
     rx="2"
     ry="2"
     id="rect162" />
  <text
     class="cls-12"
     transform="translate(232.31 572.26)"
     id="text194"
     style="-inkscape-font-specification:'HelvNeue Roman for IBM, Normal';font-family:'HelvNeue Roman for IBM';font-weight:normal;font-style:normal;font-stretch:normal;font-variant:normal;font-size:36px;text-anchor:start;text-align:start;writing-mode:lr;font-variant-ligatures:normal;font-variant-caps:normal;font-variant-numeric:normal;font-feature-settings:normal;">
    <tspan
       sodipodi:role="line"
       id="tspan5456"
       style="font-size:48px">Lógica</tspan>
    <tspan
       sodipodi:role="line"
       id="tspan5458">Orquestración</tspan>
    <tspan
       sodipodi:role="line"
       id="tspan5460">de código</tspan>
  </text>
  <rect
     class="cls-10"
     x="206.49"
     y="946.59"
     width="469.05"
     height="171.14"
     id="rect196" />
  <path
     class="cls-10"
     d="m667.55 954.59v155.14h-559.24v-155.14h559.24m8-8h-575.24v171.14h575.24v-171.14z"
     id="path198" />
  <path
     class="cls-15"
     d="m173.27 1031.1v3.107a1.5959 1.5959 0 0 0 -0.08708 0.298 20.45 20.45 0 0 1 -7.8033 14.357 20.167 20.167 0 0 1 -6.4208 3.422h-0.37661a1.2038 1.2038 0 0 1 -0.85256 -1.339c0.015-1.8043 0.00534-3.6088 0.00514-5.4133a4.9989 4.9989 0 0 0 -1.3561 -3.7995c0.20784-0.03519 0.3577-0.05263 0.50374-0.08656a28.672 28.672 0 0 0 3.2774 -0.79093 7.5225 7.5225 0 0 0 4.4633 -3.7399 11.525 11.525 0 0 0 1.0862 -3.9195 8.6857 8.6857 0 0 0 -1.8821 -7.0453 0.48785 0.48785 0 0 1 -0.07255 -0.40622 6.9736 6.9736 0 0 0 0.01732 -4.2991c-0.31233-1.0798-0.48182-1.194-1.5753-0.9475-0.03048 0.00687-0.05942 0.02029-0.0897 0.02834a14.593 14.593 0 0 0 -3.9919 1.851 1.0475 1.0475 0 0 1 -0.72718 0.13015 19.678 19.678 0 0 0 -9.589 0.00486 1.1331 1.1331 0 0 1 -0.68366 -0.125c-1.1876-0.55835-2.3484-1.1771-3.5529-1.6948a5.0179 5.0179 0 0 0 -1.5147 -0.24364 0.48127 0.48127 0 0 0 -0.38112 0.24513 7.0757 7.0757 0 0 0 -0.25445 4.8714 0.66 0.66 0 0 1 -0.14743 0.74617 7.2264 7.2264 0 0 0 -1.5095 2.7888 11.109 11.109 0 0 0 -0.14253 4.8951 8.8758 8.8758 0 0 0 1.9093 4.5344 9.1919 9.1919 0 0 0 5.1372 2.8328c0.68142 0.15574 1.3768 0.25065 1.9564 0.35389a9.2417 9.2417 0 0 0 -0.90982 2.0207 1.25 1.25 0 0 1 -1.1635 1.0993c-0.09207 0.019-0.18265 0.04549-0.275 0.06284a3.8536 3.8536 0 0 1 -3.6232 -0.75174 10.689 10.689 0 0 1 -1.2227 -1.537 4.2216 4.2216 0 0 0 -3.0192 -1.9495 3.0216 3.0216 0 0 0 -0.96241 0.22828c0.16052 0.2671 0.30757 0.5438 0.48787 0.7968a2.1535 2.1535 0 0 0 0.33688 0.25063 7.4471 7.4471 0 0 1 1.1818 1.122 11.828 11.828 0 0 1 1.0986 2.0121 3.4532 3.4532 0 0 0 2.0541 2.0128 9.9204 9.9204 0 0 0 2.431 0.45757 21.289 21.289 0 0 0 2.4579 -0.09254c0 1.1644-0.01816 2.3395 0.00707 3.5136a1.1824 1.1824 0 0 1 -0.87015 1.3225h-0.37664a33.042 33.042 0 0 1 -3.4364 -1.4893c-6.511-3.71-10.209-9.2797-10.816-16.79a19.422 19.422 0 0 1 1.7128 -9.8028 20.56 20.56 0 0 1 21.605 -12.098 20.678 20.678 0 0 1 17.636 16.826c0.12831 0.71958 0.21525 1.4466 0.3213 2.1702z"
     id="path200" />
  <rect
     class="cls-2"
     x="991.33"
     y="695.91"
     width="341.59"
     height="478.73"
     id="rect248" />
  <rect
     class="cls-18"
     x="973.47"
     y="679.26"
     width="341.59"
     height="478.73"
     id="rect250" />
  <rect
     class="cls-19"
     x="998.23"
     y="706.43"
     width="292.56"
     height="125.77"
     id="rect252" />
  <rect
     class="cls-20"
     x="997.99"
     y="855.55"
     width="292.56"
     height="125.77"
     id="rect254" />
  <rect
     class="cls-20"
     x="997.99"
     y="1005.1"
     width="292.56"
     height="125.77"
     id="rect256" />
  <text
     class="cls-21"
     id="text270"
     style="font-style:normal;font-variant:normal;font-weight:normal;font-stretch:normal;font-size:48px;font-family:'HelvNeue Bold for IBM';-inkscape-font-specification:'HelvNeue Bold for IBM, Normal';font-variant-ligatures:normal;font-variant-caps:normal;font-variant-numeric:normal;font-feature-settings:normal;text-align:start;writing-mode:lr-tb;text-anchor:start;fill:#3b5d6d"
     x="1015.3535"
     y="782.58002">
    <tspan
       sodipodi:role="line"
       id="tspan5541"
       x="1015.3535"
       y="782.58002">Var =Valor</tspan>
  </text>
  <text
     class="cls-22"
     id="text284"
     style="font-style:normal;font-variant:normal;font-weight:normal;font-stretch:normal;font-size:48px;font-family:'HelvNeue Bold for IBM';-inkscape-font-specification:'HelvNeue Bold for IBM, Normal';font-variant-ligatures:normal;font-variant-caps:normal;font-variant-numeric:normal;font-feature-settings:normal;text-align:start;writing-mode:lr-tb;text-anchor:start;opacity:0.2;fill:#274858"
     x="1017.7151"
     y="935.27002">
    <tspan
       sodipodi:role="line"
       id="tspan5571"
       x="1017.7151"
       y="935.27002">Var =Valor</tspan>
  </text>
  <text
     class="cls-22"
     id="text298"
     style="font-style:normal;font-variant:normal;font-weight:normal;font-stretch:normal;font-size:48px;font-family:'HelvNeue Bold for IBM';-inkscape-font-specification:'HelvNeue Bold for IBM, Normal';font-variant-ligatures:normal;font-variant-caps:normal;font-variant-numeric:normal;font-feature-settings:normal;text-align:start;writing-mode:lr-tb;text-anchor:start;opacity:0.2;fill:#274858"
     x="1017.7151"
     y="1081.3">
    <tspan
       sodipodi:role="line"
       id="tspan5573"
       x="1017.7151"
       y="1081.3">Var =Valor</tspan>
  </text>
  <rect
     class="cls-10"
     x="206.49"
     y="1162.5"
     width="469.05"
     height="171.14"
     id="rect300" />
  <path
     class="cls-10"
     d="m667.55 1170.5v155.14h-559.24v-155.14h559.24m8-8h-575.24v171.14h575.24v-171.14z"
     id="path302" />
  <polygon
     class="cls-11"
     points="171.43 1250 153.53 1267.9 131.93 1246.2 131.93 1234.3 137.93 1228.3 149.83 1228.3"
     id="polygon304" />
  <polyline
     class="cls-11"
     points="149.83 1228.3 159.03 1228.3 180.63 1250 162.73 1267.9 158.13 1263.2"
     id="polyline306" />
  <circle
     class="cls-23"
     transform="translate(-834.08 462.99) rotate(-45)"
     cx="141.84"
     cy="1238.3"
     r="2.8"
     id="circle308" />
  <text
     class="cls-12"
     transform="translate(232.31 1214)"
     id="text328"
     style="-inkscape-font-specification:'HelvNeue Bold for IBM, Normal';font-family:'HelvNeue Bold for IBM';font-weight:normal;font-style:normal;font-stretch:normal;font-variant:normal;font-size:48px;text-anchor:start;text-align:start;writing-mode:lr;font-variant-ligatures:normal;font-variant-caps:normal;font-variant-numeric:normal;font-feature-settings:normal;">
    <tspan
       sodipodi:role="line"
       id="tspan5529">Metadatos</tspan>
    <tspan
       sodipodi:role="line"
       id="tspan5531"
       style="font-size:36px">Etiquetas</tspan>
  </text>
  <rect
     class="cls-4"
     x="1491.1"
     y="299.9"
     width="1007.9"
     height="672.9"
     id="rect330" />
  <polyline
     class="cls-25"
     points="1287.5 769.32 1447.1 769.32 1447.1 407.26 1540.3 407.26"
     id="polyline470" />
  <circle
     class="cls-15"
     cx="1288.1"
     cy="769.32"
     r="11.279"
     id="circle472" />
  <polygon
     class="cls-15"
     points="1530.3 419.53 1528.3 417.33 1539.1 407.26 1528.3 397.19 1530.3 394.99 1543.5 407.26"
     id="polygon474" />
  <rect
     class="cls-2"
     x="837.1"
     y="255.46"
     width="341.59"
     height="478.73"
     id="rect476" />
  <rect
     class="cls-18"
     x="819.24"
     y="238.82"
     width="341.59"
     height="478.73"
     id="rect478" />
  <rect
     class="cls-19"
     x="844"
     y="265.99"
     width="292.56"
     height="125.77"
     id="rect480" />
  <rect
     class="cls-20"
     x="843.75"
     y="415.11"
     width="292.56"
     height="125.77"
     id="rect482" />
  <rect
     class="cls-20"
     x="843.75"
     y="564.69"
     width="292.56"
     height="125.77"
     id="rect484" />
  <g
     class="cls-26"
     id="g492">
    <rect
       class="cls-15"
       x="903.17"
       y="279.4"
       width="138.41"
       height="22.922"
       id="rect486" />
    <rect
       class="cls-15"
       x="948.69"
       y="311.02"
       width="138.41"
       height="22.922"
       id="rect488" />
    <rect
       class="cls-15"
       x="948.69"
       y="343.82"
       width="138.41"
       height="22.922"
       id="rect490" />
  </g>
  <g
     class="cls-26"
     id="g500">
    <rect
       class="cls-15"
       x="903.17"
       y="428.52"
       width="138.41"
       height="22.922"
       id="rect494" />
    <rect
       class="cls-15"
       x="948.69"
       y="460.14"
       width="138.41"
       height="22.922"
       id="rect496" />
    <rect
       class="cls-15"
       x="948.69"
       y="492.94"
       width="138.41"
       height="22.922"
       id="rect498" />
  </g>
  <g
     class="cls-26"
     id="g508">
    <rect
       class="cls-15"
       x="903.17"
       y="578.11"
       width="138.41"
       height="22.922"
       id="rect502" />
    <rect
       class="cls-15"
       x="948.69"
       y="609.72"
       width="138.41"
       height="22.922"
       id="rect504" />
    <rect
       class="cls-15"
       x="948.69"
       y="642.52"
       width="138.41"
       height="22.922"
       id="rect506" />
  </g>
  <rect
     class="cls-11"
     x="882.33"
     y="468.49"
     width="24.3"
     height="48.9"
     id="rect510" />
  <line
     class="cls-11"
     x1="888.13"
     x2="900.83"
     y1="485.79"
     y2="485.79"
     id="line512" />
  <line
     class="cls-11"
     x1="888.13"
     x2="900.83"
     y1="479.99"
     y2="479.99"
     id="line514" />
  <line
     class="cls-11"
     x1="888.13"
     x2="900.83"
     y1="474.29"
     y2="474.29"
     id="line516" />
  <polyline
     class="cls-11"
     points="906.63 474.29 918.83 474.29 918.83 511.59 906.63 511.59"
     id="polyline518" />
  <line
     class="cls-11"
     x1="906.63"
     x2="913.03"
     y1="491.59"
     y2="491.59"
     id="line520" />
  <line
     class="cls-11"
     x1="906.63"
     x2="913.03"
     y1="485.79"
     y2="485.79"
     id="line522" />
  <line
     class="cls-11"
     x1="906.63"
     x2="913.03"
     y1="479.99"
     y2="479.99"
     id="line524" />
  <polyline
     class="cls-11"
     points="882.23 474.29 870.03 474.29 870.03 511.59 882.23 511.59"
     id="polyline526" />
  <line
     class="cls-11"
     x1="882.23"
     x2="875.83"
     y1="491.59"
     y2="491.59"
     id="line528" />
  <line
     class="cls-11"
     x1="882.23"
     x2="875.83"
     y1="485.79"
     y2="485.79"
     id="line530" />
  <line
     class="cls-11"
     x1="882.23"
     x2="875.83"
     y1="479.99"
     y2="479.99"
     id="line532" />
  <ellipse
     class="cls-11"
     cx="894.43"
     cy="324.13"
     rx="24.4"
     ry="5.8"
     id="ellipse534" />
  <path
     class="cls-11"
     d="m870.03 330.83v4.8c0 3.2 10.9 5.8 24.4 5.8s24.4-2.6 24.4-5.8v-4.8"
     id="path536" />
  <path
     class="cls-11"
     d="m870.03 343.63v4.8c0 3.2 10.9 5.8 24.4 5.8s24.4-2.6 24.4-5.8v-4.8"
     id="path538" />
  <path
     class="cls-11"
     d="m870.03 356.53v4.8c0 3.2 10.9 5.8 24.4 5.8s24.4-2.6 24.4-5.8v-4.8"
     id="path540" />
  <path
     class="cls-11"
     d="m905.03 668.06h-11.2c-2.6 0-3.6-1.5-3.6-3.5v-32.3c0-2 1-3.5 3.6-3.5h11.2"
     id="path542" />
  <line
     class="cls-11"
     x1="875.23"
     x2="905.03"
     y1="648.46"
     y2="648.46"
     id="line544" />
  <circle
     class="cls-11"
     cx="909.73"
     cy="628.76"
     r="4.8"
     id="circle546" />
  <circle
     class="cls-11"
     cx="909.73"
     cy="648.46"
     r="4.8"
     id="circle548" />
  <circle
     class="cls-11"
     cx="870.53"
     cy="648.46"
     r="4.8"
     id="circle550" />
  <circle
     class="cls-11"
     cx="909.73"
     cy="668.06"
     r="4.8"
     id="circle552" />
  <line
     class="cls-25"
     x1="1139.3"
     x2="1491.1"
     y1="329.93"
     y2="329.93"
     id="line554" />
  <circle
     class="cls-15"
     cx="1139.8"
     cy="329.93"
     r="11.279"
     id="circle556" />
  <line
     class="cls-25"
     x1="647.81"
     x2="785.91"
     y1="339.7"
     y2="339.7"
     id="line558" />
  <circle
     class="cls-15"
     cx="648.37"
     cy="339.7"
     r="11.279"
     id="circle560" />
  <text
     class="cls-27"
     transform="translate(1526.5 374.23)"
     id="text958">
    <tspan
       class="cls-28"
       id="tspan622">r</tspan>
    <tspan
       class="cls-28"
       x="11.41211"
       y="0"
       id="tspan624">esou</tspan>
    <tspan
       class="cls-28"
       x="83.30322"
       y="0"
       id="tspan626">r</tspan>
    <tspan
       class="cls-28"
       x="94.71533"
       y="0"
       id="tspan628">c</tspan>
    <tspan
       class="cls-28"
       x="110.62744"
       y="0"
       id="tspan630">e</tspan>
    <tspan
       class="cls-29"
       x="136.29492"
       y="0"
       id="tspan632">&quot;so</tspan>
    <tspan
       class="cls-29"
       x="182.44629"
       y="0"
       id="tspan634">f</tspan>
    <tspan
       class="cls-29"
       x="193.35352"
       y="0"
       id="tspan636">tl</tspan>
    <tspan
       class="cls-29"
       x="213.76465"
       y="0"
       id="tspan638">a</tspan>
    <tspan
       class="cls-29"
       x="230.82861"
       y="0"
       id="tspan640">y</tspan>
    <tspan
       class="cls-29"
       x="247.4248"
       y="0"
       id="tspan642">er_vi</tspan>
    <tspan
       class="cls-29"
       x="320.97168"
       y="0"
       id="tspan644">r</tspan>
    <tspan
       class="cls-29"
       x="333.60693"
       y="0"
       id="tspan646">tual_guest&quot;</tspan>
    <tspan
       class="cls-29"
       x="513.13672"
       y="0"
       id="tspan648">&quot;</tspan>
    <tspan
       class="cls-29"
       x="526.02344"
       y="0"
       id="tspan650">w</tspan>
    <tspan
       class="cls-29"
       x="552.16016"
       y="0"
       id="tspan652">o</tspan>
    <tspan
       class="cls-29"
       x="571.92383"
       y="0"
       id="tspan654">r</tspan>
    <tspan
       class="cls-29"
       x="583.83887"
       y="0"
       id="tspan656">ker&quot;</tspan>
    <tspan
       class="cls-30"
       x="642.66211"
       y="0"
       id="tspan658">{</tspan>
    <tspan
       class="cls-30"
       x="0"
       y="43.2002"
       id="tspan660" />
    <tspan
       x="30.52734"
       y="43.2002"
       id="tspan662">c</tspan>
    <tspan
       x="46.43945"
       y="43.2002"
       id="tspan664">ou</tspan>
    <tspan
       x="86.03906"
       y="43.2002"
       id="tspan666">n</tspan>
    <tspan
       class="cls-30"
       x="105.87451"
       y="43.2002"
       id="tspan668">t</tspan>
    <tspan
       class="cls-31"
       x="217.00439"
       y="43.2002"
       id="tspan670" />
    <tspan
       class="cls-32"
       x="228.92871"
       y="43.2002"
       id="tspan672" />
    <tspan
       class="cls-28"
       x="343.3916"
       y="43.2002"
       id="tspan674">=</tspan>
    <tspan
       class="cls-30"
       x="364.84717"
       y="43.2002"
       id="tspan676">&quot;${</tspan>
    <tspan
       x="413.30176"
       y="43.2002"
       id="tspan678">v</tspan>
    <tspan
       x="430.47314"
       y="43.2002"
       id="tspan680">a</tspan>
    <tspan
       class="cls-8"
       x="447.82471"
       y="43.2002"
       id="tspan682">r</tspan>
    <tspan
       x="457.68896"
       y="43.2002"
       id="tspan684">.</tspan>
    <tspan
       x="465.14063"
       y="43.2002"
       id="tspan686">w</tspan>
    <tspan
       x="491.27637"
       y="43.2002"
       id="tspan688">o</tspan>
    <tspan
       x="511.04004"
       y="43.2002"
       id="tspan690">r</tspan>
    <tspan
       x="522.95605"
       y="43.2002"
       id="tspan692">ker_</tspan>
    <tspan
       x="587.64746"
       y="43.2002"
       id="tspan694">c</tspan>
    <tspan
       x="603.55859"
       y="43.2002"
       id="tspan696">ou</tspan>
    <tspan
       x="643.1582"
       y="43.2002"
       id="tspan698">n</tspan>
    <tspan
       x="662.99414"
       y="43.2002"
       id="tspan700">t}&quot;</tspan>
    <tspan
       class="cls-30"
       x="0"
       y="86.40039"
       id="tspan702">hostname</tspan>
    <tspan
       class="cls-33"
       x="258.15137"
       y="86.40039"
       id="tspan704" />
    <tspan
       class="cls-28"
       x="343.39014"
       y="86.40039"
       id="tspan706">=</tspan>
    <tspan
       x="364.8457"
       y="86.40039"
       id="tspan708" />
    <tspan
       class="cls-29"
       x="372.47754"
       y="86.40039"
       id="tspan710">&quot;</tspan>
    <tspan
       class="cls-29"
       x="384.32178"
       y="86.40039"
       id="tspan712">docke</tspan>
    <tspan
       class="cls-29"
       x="475.43652"
       y="86.40039"
       id="tspan714">r</tspan>
    <tspan
       class="cls-29"
       x="487.0293"
       y="86.40039"
       id="tspan716">-s</tspan>
    <tspan
       class="cls-29"
       x="512.33691"
       y="86.40039"
       id="tspan718">w</tspan>
    <tspan
       class="cls-29"
       x="538.68848"
       y="86.40039"
       id="tspan720">a</tspan>
    <tspan
       class="cls-29"
       x="556.04004"
       y="86.40039"
       id="tspan722">r</tspan>
    <tspan
       class="cls-29"
       x="567.95508"
       y="86.40039"
       id="tspan724">m</tspan>
    <tspan
       class="cls-29"
       x="597.97949"
       y="86.40039"
       id="tspan726">-</tspan>
    <tspan
       class="cls-29"
       x="608.85156"
       y="86.40039"
       id="tspan728">w</tspan>
    <tspan
       class="cls-29"
       x="634.98828"
       y="86.40039"
       id="tspan730">o</tspan>
    <tspan
       class="cls-29"
       x="654.75195"
       y="86.40039"
       id="tspan732">r</tspan>
    <tspan
       class="cls-29"
       x="666.66699"
       y="86.40039"
       id="tspan734">ker</tspan>
    <tspan
       x="713.3584"
       y="86.40039"
       id="tspan736">${</tspan>
    <tspan
       x="742.0498"
       y="86.40039"
       id="tspan738">c</tspan>
    <tspan
       x="757.96191"
       y="86.40039"
       id="tspan740">ou</tspan>
    <tspan
       x="797.56152"
       y="86.40039"
       id="tspan742">n</tspan>
    <tspan
       x="817.39746"
       y="86.40039"
       id="tspan744">t</tspan>
    <tspan
       x="829.20605"
       y="86.40039"
       id="tspan746">.ind</tspan>
    <tspan
       x="885.36426"
       y="86.40039"
       id="tspan748">e</tspan>
    <tspan
       x="903.29199"
       y="86.40039"
       id="tspan750">x}</tspan>
    <tspan
       class="cls-29"
       x="930.18359"
       y="86.40039"
       id="tspan752">&quot;</tspan>
    <tspan
       class="cls-30"
       x="0"
       y="129.59961"
       id="tspan754">domain</tspan>
    <tspan
       class="cls-34"
       x="237.95605"
       y="129.59961"
       id="tspan756" />
    <tspan
       class="cls-28"
       x="343.39111"
       y="129.59961"
       id="tspan758">=</tspan>
    <tspan
       x="364.84668"
       y="129.59961"
       id="tspan760" />
    <tspan
       class="cls-29"
       x="372.47852"
       y="129.59961"
       id="tspan762">&quot;</tspan>
    <tspan
       class="cls-29"
       x="384.32275"
       y="129.59961"
       id="tspan764">dem</tspan>
    <tspan
       class="cls-29"
       x="452.68604"
       y="129.59961"
       id="tspan766">o</tspan>
    <tspan
       class="cls-29"
       x="471.58594"
       y="129.59961"
       id="tspan768">.</tspan>
    <tspan
       class="cls-29"
       x="479.03711"
       y="129.59961"
       id="tspan770">c</tspan>
    <tspan
       class="cls-29"
       x="494.94922"
       y="129.59961"
       id="tspan772">o</tspan>
    <tspan
       class="cls-29"
       x="514.71289"
       y="129.59961"
       id="tspan774">m</tspan>
    <tspan
       class="cls-29"
       x="544.48535"
       y="129.59961"
       id="tspan776">&quot;</tspan>
    <tspan
       class="cls-30"
       x="0"
       y="172.7998"
       id="tspan778">os_</tspan>
    <tspan
       x="82.54688"
       y="172.7998"
       id="tspan780">r</tspan>
    <tspan
       x="93.95898"
       y="172.7998"
       id="tspan782">e</tspan>
    <tspan
       x="111.99463"
       y="172.7998"
       id="tspan784">f</tspan>
    <tspan
       x="122.03906"
       y="172.7998"
       id="tspan786">e</tspan>
    <tspan
       x="140.07471"
       y="172.7998"
       id="tspan788">r</tspan>
    <tspan
       x="151.48682"
       y="172.7998"
       id="tspan790">en</tspan>
    <tspan
       x="189.50244"
       y="172.7998"
       id="tspan792">c</tspan>
    <tspan
       x="205.41455"
       y="172.7998"
       id="tspan794">e_</tspan>
    <tspan
       x="241.4502"
       y="172.7998"
       id="tspan796">c</tspan>
    <tspan
       x="257.3623"
       y="172.7998"
       id="tspan798">ode</tspan>
    <tspan
       class="cls-35"
       x="315.46533"
       y="172.7998"
       id="tspan800" />
    <tspan
       class="cls-28"
       x="343.38916"
       y="172.7998"
       id="tspan802">=</tspan>
    <tspan
       x="364.84473"
       y="172.7998"
       id="tspan804" />
    <tspan
       class="cls-29"
       x="372.47656"
       y="172.7998"
       id="tspan806">&quot;UBUNTU_L</tspan>
    <tspan
       class="cls-36"
       x="550.56543"
       y="172.7998"
       id="tspan808">A</tspan>
    <tspan
       class="cls-29"
       x="569.82617"
       y="172.7998"
       id="tspan810">TES</tspan>
    <tspan
       class="cls-29"
       x="623.17773"
       y="172.7998"
       id="tspan812">T</tspan>
    <tspan
       class="cls-29"
       x="641.68164"
       y="172.7998"
       id="tspan814">&quot;</tspan>
    <tspan
       class="cls-30"
       x="0"
       y="216"
       id="tspan816">d</tspan>
    <tspan
       x="50.83105"
       y="216"
       id="tspan818">a</tspan>
    <tspan
       x="68.03857"
       y="216"
       id="tspan820">ta</tspan>
    <tspan
       x="97.30615"
       y="216"
       id="tspan822">c</tspan>
    <tspan
       x="113.21826"
       y="216"
       id="tspan824">e</tspan>
    <tspan
       x="131.25391"
       y="216"
       id="tspan826">n</tspan>
    <tspan
       x="151.08984"
       y="216"
       id="tspan828">t</tspan>
    <tspan
       x="162.79004"
       y="216"
       id="tspan830">er</tspan>
    <tspan
       class="cls-37"
       x="192.59766"
       y="216"
       id="tspan832" />
    <tspan
       class="cls-32"
       x="228.92627"
       y="216"
       id="tspan834" />
    <tspan
       class="cls-28"
       x="343.38916"
       y="216"
       id="tspan836">=</tspan>
    <tspan
       x="364.84473"
       y="216"
       id="tspan838" />
    <tspan
       class="cls-29"
       x="372.47656"
       y="216"
       id="tspan840">&quot;</tspan>
    <tspan
       x="384.6084"
       y="216"
       id="tspan842">${</tspan>
    <tspan
       x="413.29932"
       y="216"
       id="tspan844">v</tspan>
    <tspan
       x="430.47119"
       y="216"
       id="tspan846">a</tspan>
    <tspan
       class="cls-8"
       x="447.82275"
       y="216"
       id="tspan848">r</tspan>
    <tspan
       x="457.68652"
       y="216"
       id="tspan850">.d</tspan>
    <tspan
       x="485.44141"
       y="216"
       id="tspan852">a</tspan>
    <tspan
       x="502.64941"
       y="216"
       id="tspan854">ta</tspan>
    <tspan
       x="531.91699"
       y="216"
       id="tspan856">c</tspan>
    <tspan
       x="547.8291"
       y="216"
       id="tspan858">e</tspan>
    <tspan
       x="565.86426"
       y="216"
       id="tspan860">n</tspan>
    <tspan
       x="585.70117"
       y="216"
       id="tspan862">t</tspan>
    <tspan
       x="597.40137"
       y="216"
       id="tspan864">er}</tspan>
    <tspan
       class="cls-29"
       x="637.43164"
       y="216"
       id="tspan866">&quot;</tspan>
    <tspan
       class="cls-30"
       x="0"
       y="259.2002"
       id="tspan868" />
    <tspan
       x="30.52734"
       y="259.2002"
       id="tspan870">c</tspan>
    <tspan
       x="46.43945"
       y="259.2002"
       id="tspan872">o</tspan>
    <tspan
       x="66.20313"
       y="259.2002"
       id="tspan874">r</tspan>
    <tspan
       x="77.61523"
       y="259.2002"
       id="tspan876">es</tspan>
    <tspan
       class="cls-38"
       x="109.90674"
       y="259.2002"
       id="tspan878" />
    <tspan
       class="cls-39"
       x="114.46338"
       y="259.2002"
       id="tspan880" />
    <tspan
       class="cls-28"
       x="343.38916"
       y="259.2002"
       id="tspan882">=</tspan>
    <tspan
       x="364.84473"
       y="259.2002"
       id="tspan884" />
    <tspan
       class="cls-40"
       x="372.47656"
       y="259.2002"
       id="tspan886">1</tspan>
    <tspan
       class="cls-30"
       x="0"
       y="302.40039"
       id="tspan888">memo</tspan>
    <tspan
       x="128.37451"
       y="302.40039"
       id="tspan890">r</tspan>
    <tspan
       x="141.04639"
       y="302.40039"
       id="tspan892">y</tspan>
    <tspan
       class="cls-41"
       x="158.00195"
       y="302.40039"
       id="tspan894" />
    <tspan
       class="cls-32"
       x="228.92578"
       y="302.40039"
       id="tspan896" />
    <tspan
       class="cls-28"
       x="343.38867"
       y="302.40039"
       id="tspan898">=</tspan>
    <tspan
       x="364.84424"
       y="302.40039"
       id="tspan900" />
    <tspan
       class="cls-40"
       x="372.47607"
       y="302.40039"
       id="tspan902">1024</tspan>
    <tspan
       class="cls-30"
       x="0"
       y="345.59961"
       id="tspan904">local_disk</tspan>
    <tspan
       class="cls-42"
       x="178.62939"
       y="345.59961"
       id="tspan906" />
    <tspan
       class="cls-32"
       x="228.92627"
       y="345.59961"
       id="tspan908" />
    <tspan
       class="cls-28"
       x="343.38867"
       y="345.59961"
       id="tspan910">=</tspan>
    <tspan
       x="364.84424"
       y="345.59961"
       id="tspan912" />
    <tspan
       class="cls-40"
       x="372.47607"
       y="345.59961"
       id="tspan914">true</tspan>
    <tspan
       class="cls-43"
       x="0"
       y="432"
       id="tspan916" />
    <tspan
       x="30.52637"
       y="432"
       id="tspan918">ssh_key_ids</tspan>
    <tspan
       class="cls-28"
       x="217.5083"
       y="432"
       id="tspan920">=</tspan>
    <tspan
       class="cls-30"
       x="238.96436"
       y="432"
       id="tspan922">[</tspan>
    <tspan
       class="cls-30"
       x="0"
       y="475.2002"
       id="tspan924">&quot;${d</tspan>
    <tspan
       x="122.18018"
       y="475.2002"
       id="tspan926">a</tspan>
    <tspan
       x="139.3877"
       y="475.2002"
       id="tspan928">ta.so</tspan>
    <tspan
       x="210.12695"
       y="475.2002"
       id="tspan930">f</tspan>
    <tspan
       x="221.03418"
       y="475.2002"
       id="tspan932">tl</tspan>
    <tspan
       x="241.44531"
       y="475.2002"
       id="tspan934">a</tspan>
    <tspan
       x="258.50928"
       y="475.2002"
       id="tspan936">y</tspan>
    <tspan
       x="275.10547"
       y="475.2002"
       id="tspan938">er_ssh_ke</tspan>
    <tspan
       class="cls-8"
       x="424.32373"
       y="475.2002"
       id="tspan940">y</tspan>
    <tspan
       x="439.87598"
       y="475.2002"
       id="tspan942">.</tspan>
    <tspan
       x="447.32764"
       y="475.2002"
       id="tspan944">m</tspan>
    <tspan
       x="476.88379"
       y="475.2002"
       id="tspan946">y_ke</tspan>
    <tspan
       class="cls-8"
       x="546.75977"
       y="475.2002"
       id="tspan948">y</tspan>
    <tspan
       x="562.31152"
       y="475.2002"
       id="tspan950">.id}&quot;</tspan>
    <tspan
       class="cls-30"
       id="tspan956">
      <tspan
         x="0"
         y="518.40039"
         id="tspan952">]</tspan>
      <tspan
         x="0"
         y="561.59961"
         id="tspan954">}</tspan>
    </tspan>
  </text>
  <text
     y="787.17493"
     x="239.16397"
     class="cls-12"
     id="text194-3"
     style="font-style:normal;font-variant:normal;font-weight:normal;font-stretch:normal;font-size:36px;font-family:'HelvNeue Roman for IBM';-inkscape-font-specification:'HelvNeue Roman for IBM, Normal';font-variant-ligatures:normal;font-variant-caps:normal;font-variant-numeric:normal;font-feature-settings:normal;text-align:start;writing-mode:lr-tb;text-anchor:start;fill:#274858">
    <tspan
       sodipodi:role="line"
       id="tspan5513"
       style="font-size:48px">Documentación</tspan>
    <tspan
       sodipodi:role="line"
       id="tspan5515">Diagramas</tspan>
    <tspan
       sodipodi:role="line"
       id="tspan5517">LÉAME</tspan>
  </text>
  <text
     class="cls-12"
     transform="translate(232.31 1001.3)"
     id="text246"
     style="-inkscape-font-specification:'HelvNeue Roman for IBM, Normal';font-family:'HelvNeue Roman for IBM';font-weight:normal;font-style:normal;font-stretch:normal;font-variant:normal;font-size:36px;text-anchor:start;text-align:start;writing-mode:lr;font-variant-ligatures:normal;font-variant-caps:normal;font-variant-numeric:normal;font-feature-settings:normal;">
    <tspan
       sodipodi:role="line"
       id="tspan5521"
       style="font-size:48px">Operaciones</tspan>
    <tspan
       sodipodi:role="line"
       id="tspan5523">Gestión de estado</tspan>
    <tspan
       sodipodi:role="line"
       id="tspan5525">de supervisión</tspan>
  </text>
  <text
     class="cls-21"
     transform="translate(974.24,1236)"
     id="text468"
     style="font-style:normal;font-variant:normal;font-weight:normal;font-stretch:normal;font-size:36px;font-family:'HelvNeue Roman for IBM';-inkscape-font-specification:'HelvNeue Roman for IBM, Normal';font-variant-ligatures:normal;font-variant-caps:normal;font-variant-numeric:normal;font-feature-settings:normal;text-align:start;writing-mode:lr-tb;text-anchor:start;fill:#3b5d6d">
    <tspan
       sodipodi:role="line"
       id="tspan5535"
       style="font-size:48px"
       x="0"
       y="0">Variables</tspan>
    <tspan
       sodipodi:role="line"
       id="tspan5537"
       x="0"
       y="49.382812">Definen los parámetros</tspan>
    <tspan
       sodipodi:role="line"
       id="tspan5539"
       x="0"
       y="94.382812">del recurso.</tspan>
  </text>
  <text
     y="126.06485"
     x="818.94281"
     class="cls-21"
     id="text468-7"
     style="font-style:normal;font-variant:normal;font-weight:normal;font-stretch:normal;font-size:36px;font-family:'HelvNeue Roman for IBM';-inkscape-font-specification:'HelvNeue Roman for IBM, Normal';font-variant-ligatures:normal;font-variant-caps:normal;font-variant-numeric:normal;font-feature-settings:normal;text-align:start;writing-mode:lr;text-anchor:start;fill:#3b5d6d;">
    <tspan
       sodipodi:role="line"
       id="tspan5575"
       style="font-size:48px">Recursos</tspan>
    <tspan
       sodipodi:role="line"
       id="tspan5577">Componentes de la</tspan>
    <tspan
       sodipodi:role="line"
       id="tspan5579">infraestructura.</tspan>
  </text>
  <text
     y="118.24168"
     x="1495.2928"
     class="cls-21"
     id="text468-7-2"
     style="font-style:normal;font-variant:normal;font-weight:normal;font-stretch:normal;font-size:36px;font-family:'HelvNeue Roman for IBM';-inkscape-font-specification:'HelvNeue Roman for IBM, Normal';font-variant-ligatures:normal;font-variant-caps:normal;font-variant-numeric:normal;font-feature-settings:normal;text-align:start;writing-mode:lr-tb;text-anchor:start;fill:#3b5d6d">
    <tspan
       y="118.24168"
       x="1495.2928"
       sodipodi:role="line"
       id="tspan5575-7"
       style="font-size:48px">Configuración</tspan>
    <tspan
       y="178.24168"
       x="1495.2928"
       sodipodi:role="line"
       style="font-size:48px"
       id="tspan5605">de recurso</tspan>
    <tspan
       y="227.6245"
       x="1495.2928"
       sodipodi:role="line"
       id="tspan5577-2">para un componente</tspan>
    <tspan
       y="272.62448"
       x="1495.2928"
       sodipodi:role="line"
       id="tspan5579-0">de la infraestructura.</tspan>
  </text>
</svg>
