<?xml version="1.0" encoding="UTF-8" standalone="no"?>
<!-- Created with Inkscape (http://www.inkscape.org/) -->

<svg
   xmlns:dc="http://purl.org/dc/elements/1.1/"
   xmlns:cc="http://creativecommons.org/ns#"
   xmlns:rdf="http://www.w3.org/1999/02/22-rdf-syntax-ns#"
   xmlns:svg="http://www.w3.org/2000/svg"
   xmlns="http://www.w3.org/2000/svg"
   xmlns:sodipodi="http://sodipodi.sourceforge.net/DTD/sodipodi-0.dtd"
   xmlns:inkscape="http://www.inkscape.org/namespaces/inkscape"
   id="svg2"
   version="1.1"
   inkscape:version="0.48.0 r9654"
   width="696.25"
   height="628.36625"
   xml:space="preserve"
   sodipodi:docname="incidentresponseprocess.ai"><metadata
     id="metadata8"><rdf:RDF><cc:Work
         rdf:about=""><dc:format>image/svg+xml</dc:format><dc:type
           rdf:resource="http://purl.org/dc/dcmitype/StillImage" /><dc:title></dc:title></cc:Work></rdf:RDF></metadata><defs
     id="defs6"><clipPath
       clipPathUnits="userSpaceOnUse"
       id="clipPath16"><path
         d="m 260,475.693 0,-16.586 0,-2.073 0,-14.514 0,-2.073 0,-16.587 51.802,0 0,16.587 0,2.073 0,14.514 0,2.073 0,16.586 -51.802,0 z m 39.37,-9.33 c 0,1.718 1.392,3.11 3.108,3.11 l 0,0 c 1.717,0 3.108,-1.392 3.108,-3.11 l 0,0 c 0,-1.717 -1.391,-3.11 -3.108,-3.11 l 0,0 c -1.716,0 -3.108,1.393 -3.108,3.11 m -37.298,-9.329 47.659,0 0,-14.513 -47.659,0 0,14.513 z m 0,-16.587 47.659,0 0,-14.513 -47.659,0 0,14.513 z"
         id="path18" /></clipPath><clipPath
       clipPathUnits="userSpaceOnUse"
       id="clipPath26"><path
         d="m 299.37,449.777 c 0,-1.718 1.392,-3.11 3.108,-3.11 l 0,0 c 1.717,0 3.108,1.392 3.108,3.11 l 0,0 c 0,1.717 -1.391,3.109 -3.108,3.109 l 0,0 c -1.716,0 -3.108,-1.392 -3.108,-3.109"
         id="path28" /></clipPath><clipPath
       clipPathUnits="userSpaceOnUse"
       id="clipPath36"><path
         d="m 299.37,433.19 c 0,-1.717 1.392,-3.11 3.108,-3.11 l 0,0 c 1.717,0 3.108,1.393 3.108,3.11 l 0,0 c 0,1.718 -1.391,3.11 -3.108,3.11 l 0,0 c -1.716,0 -3.108,-1.392 -3.108,-3.11"
         id="path38" /></clipPath><clipPath
       clipPathUnits="userSpaceOnUse"
       id="clipPath58"><path
         d="m 284.956,420.077 c 0,-0.523 0.423,-0.946 0.945,-0.946 l 0,0 c 0.523,0 0.946,0.423 0.946,0.946 l 0,0 c 0,0.522 -0.423,0.946 -0.946,0.946 l 0,0 c -0.522,0 -0.945,-0.424 -0.945,-0.946"
         id="path60" /></clipPath><clipPath
       clipPathUnits="userSpaceOnUse"
       id="clipPath76"><path
         d="m 284.956,420.077 c 0,-0.523 0.423,-0.946 0.945,-0.946 l 0,0 c 0.523,0 0.946,0.423 0.946,0.946 l 0,0 c 0,0.522 -0.423,0.946 -0.946,0.946 l 0,0 c -0.522,0 -0.945,-0.424 -0.945,-0.946"
         id="path78" /></clipPath><clipPath
       clipPathUnits="userSpaceOnUse"
       id="clipPath106"><path
         d="m 69.315,292.163 0,0.79 -1.105,0 0,1.106 -2.21,0 0,-8.846 2.21,0 0,1.106 1.105,0 0,0.789 2.211,-0.632 0,-3.475 c 0,-1.221 0.989,-2.212 2.21,-2.212 l 0,0 4.42,0 c 1.221,0 2.21,0.991 2.21,2.212 l 0,0 0,0.948 18.788,-5.371 0,22.116 -29.839,-8.531 z m 0,-3.905 0,2.755 28.734,8.214 0,-19.183 -28.734,8.214 z m 3.316,-5.257 0,3.159 6.631,-1.895 0,-1.264 c 0,-0.61 -0.497,-1.106 -1.106,-1.106 l 0,0 -4.42,0 c -0.609,0 -1.105,0.496 -1.105,1.106"
         id="path108" /></clipPath><clipPath
       clipPathUnits="userSpaceOnUse"
       id="clipPath116"><path
         d="m 472,289.107 c 0,-9.156 7.426,-16.587 16.577,-16.587 l 0,0 c 9.151,0 16.578,7.431 16.578,16.587 l 0,0 c 0,9.156 -7.427,16.586 -16.578,16.586 l 0,0 c -9.151,0 -16.577,-7.43 -16.577,-16.586 m 1.657,-0.104 c 0,8.27 6.759,15.031 15.024,15.031 l 0,0 c 8.264,0 15.022,-6.727 15.022,-15.031 l 0,0 c 0,-8.269 -6.758,-15.031 -15.022,-15.031 l 0,0 c -8.265,0 -15.024,6.762 -15.024,15.031 m 13.262,8.363 0,-3.316 0.829,-8.26 1.658,0 0.828,8.26 0,3.316 -3.315,0 z m 0,-14.861 c 0,-0.895 0.73,-1.658 1.658,-1.658 l 0,0 c 0.928,0 1.657,0.73 1.657,1.658 l 0,0 c 0,0.896 -0.763,1.659 -1.657,1.659 l 0,0 c -0.896,0 -1.658,-0.73 -1.658,-1.659"
         id="path118" /></clipPath><clipPath
       clipPathUnits="userSpaceOnUse"
       id="clipPath126"><path
         d="m 0,502.693 557,0 L 557,0 0,0 0,502.693 z"
         id="path128" /></clipPath><clipPath
       clipPathUnits="userSpaceOnUse"
       id="clipPath138"><path
         d="M 226.426,111.694 207,78.026 226.426,44.36 l 38.853,0 19.425,33.666 -19.425,33.668 -38.853,0 z"
         id="path140" /></clipPath><clipPath
       clipPathUnits="userSpaceOnUse"
       id="clipPath148"><path
         d="m 0,502.693 557,0 L 557,0 0,0 0,502.693 z"
         id="path150" /></clipPath><clipPath
       clipPathUnits="userSpaceOnUse"
       id="clipPath160"><path
         d="M 305.427,111.694 286,78.026 305.427,44.36 l 38.851,0 19.426,33.666 -19.426,33.668 -38.851,0 z"
         id="path162" /></clipPath><clipPath
       clipPathUnits="userSpaceOnUse"
       id="clipPath170"><path
         d="m 0,502.693 557,0 L 557,0 0,0 0,502.693 z"
         id="path172" /></clipPath><clipPath
       clipPathUnits="userSpaceOnUse"
       id="clipPath182"><path
         d="m 229,89.625 c 0,-8.874 7.191,-16.068 16.059,-16.068 l 0,0 c 8.869,0 16.059,7.194 16.059,16.068 l 0,0 c 0,8.874 -7.19,16.068 -16.059,16.068 l 0,0 C 236.191,105.693 229,98.499 229,89.625 m 8.074,12.58 c 2.313,1.475 5.047,2.341 7.985,2.341 l 0,0 c 2.938,0 5.672,-0.866 7.985,-2.341 l 0,0 -4.216,-4.217 c -1.152,0.522 -2.425,0.819 -3.769,0.819 l 0,0 c -1.344,0 -2.618,-0.297 -3.77,-0.819 l 0,0 -4.215,4.217 z m 5.084,-20.064 c -2.097,0.816 -3.764,2.483 -4.58,4.583 l 0,0 c -0.349,0.9 -0.549,1.877 -0.549,2.901 l 0,0 c 0,1.025 0.2,2 0.549,2.9 l 0,0 c 0.816,2.1 2.483,3.769 4.58,4.584 l 0,0 c 0.901,0.351 1.877,0.55 2.901,0.55 l 0,0 c 1.024,0 2,-0.199 2.901,-0.55 l 0,0 c 2.096,-0.815 3.764,-2.484 4.579,-4.584 l 0,0 c 0.35,-0.9 0.549,-1.875 0.549,-2.9 l 0,0 c 0,-1.024 -0.199,-2.001 -0.549,-2.901 l 0,0 c -0.815,-2.099 -2.482,-3.767 -4.579,-4.583 l 0,0 c -0.9,-0.351 -1.877,-0.551 -2.901,-0.551 l 0,0 c -1.024,0 -2,0.2 -2.901,0.551 m 11.259,3.713 c 0.521,1.152 0.819,2.426 0.819,3.771 l 0,0 c 0,1.346 -0.298,2.619 -0.819,3.772 l 0,0 4.215,4.217 c 1.473,-2.312 2.338,-5.049 2.338,-7.989 l 0,0 c 0,-2.94 -0.865,-5.677 -2.338,-7.99 l 0,0 -4.215,4.219 z m -23.27,3.771 c 0,2.94 0.866,5.677 2.339,7.989 l 0,0 4.215,-4.217 c -0.521,-1.153 -0.819,-2.426 -0.819,-3.772 l 0,0 c 0,-1.345 0.298,-2.619 0.819,-3.771 l 0,0 -4.215,-4.219 c -1.473,2.313 -2.339,5.05 -2.339,7.99 m 18.681,-8.362 4.216,-4.219 c -2.313,-1.473 -5.047,-2.34 -7.985,-2.34 l 0,0 c -2.938,0 -5.672,0.867 -7.985,2.34 l 0,0 4.215,4.219 c 1.152,-0.522 2.426,-0.819 3.77,-0.819 l 0,0 c 1.344,0 2.617,0.297 3.769,0.819"
         id="path184" /></clipPath><clipPath
       clipPathUnits="userSpaceOnUse"
       id="clipPath192"><path
         d="m 326.6,104.58 c -0.149,-0.009 -0.284,-0.093 -0.361,-0.223 l 0,0 -4.164,-7.125 -8.33,0 c -0.16,0 -0.308,-0.085 -0.389,-0.225 l 0,0 -4.294,-7.348 c -0.082,-0.14 -0.082,-0.315 0,-0.455 l 0,0 4.294,-7.35 c 0.081,-0.139 0.229,-0.223 0.389,-0.223 l 0,0 8.33,0 4.164,-7.126 c 0.081,-0.139 0.229,-0.223 0.389,-0.223 l 0,0 8.589,0 c 0.16,0 0.308,0.084 0.388,0.223 l 0,0 4.295,7.349 c 0.042,0.071 0.061,0.149 0.061,0.228 l 0,0 c 0,0.078 -0.019,0.157 -0.061,0.228 l 0,0 -4.16,7.12 4.16,7.123 c 0.042,0.07 0.061,0.148 0.061,0.228 l 0,0 c 0,0.079 -0.019,0.156 -0.061,0.226 l 0,0 -4.295,7.35 c -0.075,0.13 -0.211,0.214 -0.36,0.223 l 0,0 -8.645,0 z m 0.286,-0.903 8.072,0 4.032,-6.896 -3.773,-6.457 -3.905,6.683 c -0.081,0.14 -0.23,0.225 -0.39,0.225 l 0,0 -7.803,0 3.767,6.445 z m -0.134,-13.565 -3.633,6.216 7.545,0 3.767,-6.446 -7.545,0 -0.134,0.23 z m -16.779,-0.682 4.031,6.898 7.543,0 -3.897,-6.669 c -0.082,-0.14 -0.082,-0.315 0,-0.455 l 0,0 3.897,-6.67 -7.543,0 -4.031,6.896 z m 8.588,0 3.773,6.457 3.771,-6.457 -3.771,-6.454 -3.773,6.454 z m 8.191,-0.68 0.134,0.229 7.545,0 -3.767,-6.445 -7.545,0 3.633,6.216 z m -3.633,-7.119 7.803,0 c 0.16,0 0.309,0.084 0.39,0.223 l 0,0 3.905,6.684 3.773,-6.456 -4.032,-6.899 -8.072,0 -3.767,6.448 z"
         id="path194" /></clipPath><clipPath
       clipPathUnits="userSpaceOnUse"
       id="clipPath202"><path
         d="m 0,502.693 557,0 L 557,0 0,0 0,502.693 z"
         id="path204" /></clipPath><clipPath
       clipPathUnits="userSpaceOnUse"
       id="clipPath214"><path
         d="m 374.438,77.713 4.924,-5.089 0.8,0.827 -3.559,3.677 -0.001,1.169 3.559,3.677 -0.798,0.827 -4.925,-5.088 z"
         id="path216" /></clipPath><clipPath
       clipPathUnits="userSpaceOnUse"
       id="clipPath224"><path
         d="m 0,502.693 557,0 L 557,0 0,0 0,502.693 z"
         id="path226" /></clipPath><clipPath
       clipPathUnits="userSpaceOnUse"
       id="clipPath240"><path
         d="m 196.838,453.993 3.559,-3.556 0.001,-1.131 -3.56,-3.556 0.8,-0.8 4.924,4.921 -4.924,4.922 -0.8,-0.8 z"
         id="path242" /></clipPath><clipPath
       clipPathUnits="userSpaceOnUse"
       id="clipPath250"><path
         d="m 0,502.693 557,0 L 557,0 0,0 0,502.693 z"
         id="path252" /></clipPath><clipPath
       clipPathUnits="userSpaceOnUse"
       id="clipPath266"><path
         d="m 489.743,336.211 -1.129,-0.001 -3.557,3.443 -0.8,-0.773 4.921,-4.763 4.922,4.763 -0.799,0.773 -3.558,-3.442 z"
         id="path268" /></clipPath><clipPath
       clipPathUnits="userSpaceOnUse"
       id="clipPath276"><path
         d="m 0,502.693 557,0 L 557,0 0,0 0,502.693 z"
         id="path278" /></clipPath><clipPath
       clipPathUnits="userSpaceOnUse"
       id="clipPath292"><path
         d="m 81.9,193.332 0.8,-0.8 3.557,3.558 1.129,0.001 3.557,-3.559 0.8,0.8 -4.921,4.924 -4.922,-4.924 z"
         id="path294" /></clipPath><clipPath
       clipPathUnits="userSpaceOnUse"
       id="clipPath302"><path
         d="m 0,502.693 557,0 L 557,0 0,0 0,502.693 z"
         id="path304" /></clipPath></defs><sodipodi:namedview
     pagecolor="#ffffff"
     bordercolor="#666666"
     borderopacity="1"
     objecttolerance="10"
     gridtolerance="10"
     guidetolerance="10"
     inkscape:pageopacity="0"
     inkscape:pageshadow="2"
     inkscape:window-width="909"
     inkscape:window-height="655"
     id="namedview4"
     showgrid="false"
     inkscape:zoom="0.67404077"
     inkscape:cx="348.125"
     inkscape:cy="314.18314"
     inkscape:window-x="0"
     inkscape:window-y="0"
     inkscape:window-maximized="0"
     inkscape:current-layer="g10" /><g
     id="g10"
     inkscape:groupmode="layer"
     inkscape:label="incidentresponseprocess"
     transform="matrix(1.25,0,0,-1.25,0,628.36625)"><g
       id="g12"><g
         id="g14"
         clip-path="url(#clipPath16)"><path
           d="m 255,480.693 61.803,0 0,-61.833 -61.803,0 0,61.833 z"
           style="fill:#555555;fill-opacity:1;fill-rule:nonzero;stroke:none"
           id="path20" /></g></g><g
       id="g22"><g
         id="g24"
         clip-path="url(#clipPath26)"><path
           d="m 294.37,457.887 16.217,0 0,-16.22 -16.217,0 0,16.22 z"
           style="fill:#555555;fill-opacity:1;fill-rule:nonzero;stroke:none"
           id="path30" /></g></g><g
       id="g32"><g
         id="g34"
         clip-path="url(#clipPath36)"><path
           d="m 294.37,441.3 16.217,0 0,-16.22 -16.217,0 0,16.22 z"
           style="fill:#555555;fill-opacity:1;fill-rule:nonzero;stroke:none"
           id="path40" /></g></g><g
       id="g42"
       transform="translate(271.7217,414.4014)"><path
         d="M 0,0 28.357,0 14.179,24.592 0,0 z M 14.18,22.7 26.723,0.946 1.637,0.946 14.18,22.7 z"
         style="fill:#555555;fill-opacity:1;fill-rule:nonzero;stroke:none"
         id="path44" /></g><g
       id="g46"
       transform="translate(271.7217,414.4014)"><path
         d="M 0,0 28.359,0 14.18,24.592 0,0 z M 14.18,22.7 26.723,0.946 1.637,0.946 14.18,22.7 z"
         style="fill:#555555;fill-opacity:1;fill-rule:nonzero;stroke:none"
         id="path48" /></g><g
       id="g50"
       transform="translate(284.9562,428.589)"><path
         d="m 0,0 0,-1.891 0.473,-4.729 0.945,0 0.473,4.729 L 1.891,0 0,0 z"
         style="fill:#555555;fill-opacity:1;fill-rule:nonzero;stroke:none"
         id="path52" /></g><g
       id="g54"><g
         id="g56"
         clip-path="url(#clipPath58)"><path
           d="m 279.956,426.022 11.891,0 0,-11.892 -11.891,0 0,11.892 z"
           style="fill:#555555;fill-opacity:1;fill-rule:nonzero;stroke:none"
           id="path62" /></g></g><g
       id="g64"
       transform="translate(273.3588,415.3473)"><path
         d="M 0,0 25.086,0 12.542,21.754 0,0 z"
         style="fill:#ffffff;fill-opacity:1;fill-rule:nonzero;stroke:none"
         id="path66" /></g><g
       id="g68"
       transform="translate(284.9562,428.589)"><path
         d="m 0,0 0,-1.891 0.473,-4.729 0.945,0 0.473,4.729 L 1.891,0 0,0 z"
         style="fill:#555555;fill-opacity:1;fill-rule:nonzero;stroke:none"
         id="path70" /></g><g
       id="g72"><g
         id="g74"
         clip-path="url(#clipPath76)"><path
           d="m 279.956,426.022 11.891,0 0,-11.892 -11.891,0 0,11.892 z"
           style="fill:#555555;fill-opacity:1;fill-rule:nonzero;stroke:none"
           id="path80" /></g></g><g
       id="g82"
       transform="translate(63.4266,322.6932)"><path
         d="M 0,0 -19.426,-33.666 0,-67.333 l 38.852,0 19.426,33.667 L 38.852,0 0,0 z"
         style="fill:#ffffff;fill-opacity:1;fill-rule:nonzero;stroke:none"
         id="path84" /></g><g
       id="g86"
       transform="translate(121.7046,289.0269)"><path
         d="m 0,0 -19.426,-33.667 -38.852,0 L -77.705,0 l 19.427,33.667 38.852,0 L 0,0 z"
         style="fill:none;stroke:#555555;stroke-opacity:1;stroke-width:2;stroke-linecap:butt;stroke-linejoin:miter;stroke-miterlimit:10;stroke-dasharray:none"
         id="path88" /></g><g
       id="g90"
       transform="translate(469.4256,322.6932)"><path
         d="M 0,0 -19.426,-33.666 0,-67.333 l 38.853,0 19.426,33.667 L 38.853,0 0,0 z"
         style="fill:#ffffff;fill-opacity:1;fill-rule:nonzero;stroke:none"
         id="path92" /></g><g
       id="g94"
       transform="translate(508.2783,255.3604)"><path
         d="M 0,0 -38.853,0 -58.278,33.667 -38.853,67.333 0,67.333 19.426,33.667 0,0 z"
         style="fill:none;stroke:#555555;stroke-opacity:1;stroke-width:2;stroke-linecap:butt;stroke-linejoin:miter;stroke-miterlimit:10;stroke-dasharray:none"
         id="path96" /></g><g
       id="g98"
       transform="translate(337.6064,446.8047)"><path
         d="m 0,0 -25.902,-44.889 -51.803,0 -25.901,44.889 25.901,44.889 51.803,0 L 0,0 z"
         style="fill:none;stroke:#555555;stroke-opacity:1;stroke-width:3;stroke-linecap:butt;stroke-linejoin:miter;stroke-miterlimit:10;stroke-dasharray:none"
         id="path100" /></g><g
       id="g102"><g
         id="g104"
         clip-path="url(#clipPath106)"><path
           d="m 61,305.693 43.154,0 0,-32.116 -43.154,0 0,32.116 z"
           style="fill:#555555;fill-opacity:1;fill-rule:nonzero;stroke:none"
           id="path110" /></g></g><g
       id="g112"><g
         id="g114"
         clip-path="url(#clipPath116)"><path
           d="m 467,310.693 43.154,0 0,-43.173 -43.154,0 0,43.173 z"
           style="fill:#555555;fill-opacity:1;fill-rule:nonzero;stroke:none"
           id="path120" /></g></g><g
       id="g122"><g
         id="g124"
         clip-path="url(#clipPath126)"><g
           id="g130"
           transform="translate(284.3931,24.8438)"><path
             d="M 0,0 C 30.041,0 54.393,24.367 54.393,54.425 54.393,84.483 30.041,108.85 0,108.85 -30.041,108.85 -54.393,84.483 -54.393,54.425 -54.393,24.367 -30.041,0 0,0 z"
             style="fill:none;stroke:#446584;stroke-opacity:1;stroke-width:2;stroke-linecap:butt;stroke-linejoin:miter;stroke-miterlimit:10;stroke-dasharray:none"
             id="path132" /></g></g></g><g
       id="g134"><g
         id="g136"
         clip-path="url(#clipPath138)"><path
           d="m 202,116.693 87.705,0 0,-77.333 -87.705,0 0,77.333 z"
           style="fill:#ffffff;fill-opacity:1;fill-rule:nonzero;stroke:none"
           id="path142" /></g></g><g
       id="g144"><g
         id="g146"
         clip-path="url(#clipPath148)"><g
           id="g152"
           transform="translate(284.7046,78.0264)"><path
             d="m 0,0 -19.426,-33.666 -38.852,0 L -77.705,0 l 19.427,33.667 38.852,0 L 0,0 z"
             style="fill:none;stroke:#555555;stroke-opacity:1;stroke-width:2;stroke-linecap:butt;stroke-linejoin:miter;stroke-miterlimit:10;stroke-dasharray:none"
             id="path154" /></g></g></g><g
       id="g156"><g
         id="g158"
         clip-path="url(#clipPath160)"><path
           d="m 281,116.693 87.704,0 0,-77.333 -87.704,0 0,77.333 z"
           style="fill:#ffffff;fill-opacity:1;fill-rule:nonzero;stroke:none"
           id="path164" /></g></g><g
       id="g166"><g
         id="g168"
         clip-path="url(#clipPath170)"><g
           id="g174"
           transform="translate(363.7041,78.0264)"><path
             d="m 0,0 -19.426,-33.666 -38.852,0 L -77.704,0 l 19.426,33.667 38.852,0 L 0,0 z"
             style="fill:none;stroke:#555555;stroke-opacity:1;stroke-width:2;stroke-linecap:butt;stroke-linejoin:miter;stroke-miterlimit:10;stroke-dasharray:none"
             id="path176" /></g></g></g><g
       id="g178"><g
         id="g180"
         clip-path="url(#clipPath182)"><path
           d="m 224,110.693 42.118,0 0,-42.137 -42.118,0 0,42.137 z"
           style="fill:#555555;fill-opacity:1;fill-rule:nonzero;stroke:none"
           id="path186" /></g></g><g
       id="g188"><g
         id="g190"
         clip-path="url(#clipPath192)"><path
           d="m 304,109.581 40.962,0 0,-40.299 -40.962,0 0,40.299 z"
           style="fill:#555555;fill-opacity:1;fill-rule:nonzero;stroke:none"
           id="path196" /></g></g><g
       id="g198"><g
         id="g200"
         clip-path="url(#clipPath202)"><g
           id="g206"
           transform="translate(491.5068,195.668)"><path
             d="M 0,0 C 0,-64.188 -48.357,-118.224 -110.478,-118.224"
             style="fill:none;stroke:#446584;stroke-opacity:1;stroke-width:5;stroke-linecap:butt;stroke-linejoin:miter;stroke-miterlimit:10;stroke-dasharray:5,5,5,5;stroke-dashoffset:0"
             id="path208" /></g></g></g><g
       id="g210"><g
         id="g212"
         clip-path="url(#clipPath214)"><path
           d="m 369.438,67.624 15.725,0 0,20.177 -15.725,0 0,-20.177 z"
           style="fill:#446584;fill-opacity:1;fill-rule:nonzero;stroke:none"
           id="path218" /></g></g><g
       id="g220"><g
         id="g222"
         clip-path="url(#clipPath224)"><g
           id="g228"
           transform="translate(379.3623,82.8008)"><path
             d="M 0,0 0.799,-0.827 -2.76,-4.504 -2.759,-5.673 0.8,-9.35 -0.001,-10.177 -4.925,-5.088 0,0 z"
             style="fill:none;stroke:#446584;stroke-opacity:1;stroke-width:3;stroke-linecap:butt;stroke-linejoin:miter;stroke-miterlimit:10;stroke-dasharray:none"
             id="path230" /></g><g
           id="g232"
           transform="translate(81.4927,337.7183)"><path
             d="M 0,0 C 0,62.083 50.358,112.412 112.478,112.412"
             style="fill:none;stroke:#446584;stroke-opacity:1;stroke-width:5;stroke-linecap:butt;stroke-linejoin:miter;stroke-miterlimit:10;stroke-dasharray:5,5,5,5;stroke-dashoffset:0"
             id="path234" /></g></g></g><g
       id="g236"><g
         id="g238"
         clip-path="url(#clipPath240)"><path
           d="m 207.563,459.793 -15.724,0 0,-19.843 15.724,0 0,19.843 z"
           style="fill:#446584;fill-opacity:1;fill-rule:nonzero;stroke:none"
           id="path244" /></g></g><g
       id="g246"><g
         id="g248"
         clip-path="url(#clipPath250)"><g
           id="g254"
           transform="translate(197.6382,444.9502)"><path
             d="M 0,0 -0.8,0.8 2.759,4.356 2.758,5.486 -0.8,9.043 0,9.843 4.924,4.921 0,0 z"
             style="fill:none;stroke:#446584;stroke-opacity:1;stroke-width:3;stroke-linecap:butt;stroke-linejoin:miter;stroke-miterlimit:10;stroke-dasharray:none"
             id="path256" /></g><g
           id="g258"
           transform="translate(372.0244,454.2168)"><path
             d="M 0,0 C 62.084,0 117.413,-47.707 117.413,-107.79"
             style="fill:none;stroke:#446584;stroke-opacity:1;stroke-width:5;stroke-linecap:butt;stroke-linejoin:miter;stroke-miterlimit:10;stroke-dasharray:5,5,5,5;stroke-dashoffset:0"
             id="path260" /></g></g></g><g
       id="g262"><g
         id="g264"
         clip-path="url(#clipPath266)"><path
           d="m 479.257,329.117 19.843,0 0,15.536 -19.843,0 0,-15.536 z"
           style="fill:#446584;fill-opacity:1;fill-rule:nonzero;stroke:none"
           id="path270" /></g></g><g
       id="g272"><g
         id="g274"
         clip-path="url(#clipPath276)"><g
           id="g280"
           transform="translate(484.2568,338.8794)"><path
             d="M 0,0 0.8,0.773 4.356,-2.669 5.486,-2.668 9.044,0.773 9.843,0 4.921,-4.763 0,0 z"
             style="fill:none;stroke:#446584;stroke-opacity:1;stroke-width:3;stroke-linecap:butt;stroke-linejoin:miter;stroke-miterlimit:10;stroke-dasharray:none"
             id="path282" /></g><g
           id="g284"
           transform="translate(198.9751,77.1865)"><path
             d="M 0,0 C -62.083,0 -112.412,50.358 -112.412,112.478"
             style="fill:none;stroke:#446584;stroke-opacity:1;stroke-width:5;stroke-linecap:butt;stroke-linejoin:miter;stroke-miterlimit:10;stroke-dasharray:5,5,5,5;stroke-dashoffset:0"
             id="path286" /></g></g></g><g
       id="g288"><g
         id="g290"
         clip-path="url(#clipPath292)"><path
           d="m 76.9,187.532 19.843,0 0,15.724 -19.843,0 0,-15.724 z"
           style="fill:#446584;fill-opacity:1;fill-rule:nonzero;stroke:none"
           id="path296" /></g></g><g
       id="g298"><g
         id="g300"
         clip-path="url(#clipPath302)"><g
           id="g306"
           transform="translate(91.7432,193.3315)"><path
             d="M 0,0 -0.8,-0.8 -4.356,2.759 -5.487,2.758 -9.043,-0.8 -9.843,0 -4.921,4.924 0,0 z"
             style="fill:none;stroke:#446584;stroke-opacity:1;stroke-width:3;stroke-linecap:butt;stroke-linejoin:miter;stroke-miterlimit:10;stroke-dasharray:none"
             id="path308" /></g></g></g><text
       transform="matrix(1,0,0,-1,230.0806,378.4492)"
       id="text310"><tspan
         style="fill:#373535;fill-opacity:1;fill-rule:nonzero;stroke:none;font-family:HelvNeue Roman for IBM;font-variant:normal;font-weight:normal;font-stretch:normal;font-size:12;writing-mode:lr;-inkscape-font-specification:HelvNeueRomanforIBM"
         x="0 2.856 9.204 15.588 17.94 24.84 31.296 37.524 41.22 44.076 50.976 57.3 60.624 67.14 73.524 76.848 83.292 86.148 93.048 99.528 105.936"
         y="0"
         sodipodi:role="line"
         id="tspan312">Incident détecté dans</tspan><tspan
         style="fill:#373535;fill-opacity:1;fill-rule:nonzero;stroke:none;font-family:HelvNeue Roman for IBM;font-variant:normal;font-weight:normal;font-stretch:normal;font-size:12;writing-mode:lr;-inkscape-font-specification:HelvNeueRomanforIBM"
         x="-8.46 -6.096 -2.988 3.468 9.672 15.432 17.784 21.492 28.26 34.668 41.016 47.472 57.432 63.888 70.116 73.812 76.668 83.568 89.976 92.832 99.216 101.58 103.932 110.388 116.616"
         y="14.4"
         sodipodi:role="line"
         id="tspan314">l'environnement du client</tspan><tspan
         style="fill:#373535;fill-opacity:1;fill-rule:nonzero;stroke:none;font-family:HelvNeue Roman for IBM;font-variant:normal;font-weight:normal;font-stretch:normal;font-size:12;writing-mode:lr;-inkscape-font-specification:HelvNeueRomanforIBM"
         x="-197.16 -189.18 -186.816 -180.408 -173.952 -163.932 -161.58 -155.664 -152.808 -146.352 -140.148 -134.748 -127.98 -125.628 -119.172 -116.316 -109.908 -103.56"
         y="149.76"
         sodipodi:role="line"
         id="tspan316">Bluemix envoie une</tspan><tspan
         style="fill:#373535;fill-opacity:1;fill-rule:nonzero;stroke:none;font-family:HelvNeue Roman for IBM;font-variant:normal;font-weight:normal;font-stretch:normal;font-size:12;writing-mode:lr;-inkscape-font-specification:HelvNeueRomanforIBM"
         x="-217.728 -211.38 -204.732 -201.036 -198.504 -192.576 -186.192 -179.892 -176.196 -173.844 -167.076 -160.668 -157.812 -151.452 -148.596 -146.232 -139.872 -137.016 -130.116 -123.756 -117.06 -110.604 -107.748 -100.188 -96.636 -90.336 -86.64 -80.232"
         y="164.16"
         sodipodi:role="line"
         id="tspan318">notiﬁcation à la page Statut</tspan><tspan
         style="fill:#373535;fill-opacity:1;fill-rule:nonzero;stroke:none;font-family:HelvNeue Roman for IBM;font-variant:normal;font-weight:normal;font-stretch:normal;font-size:12;writing-mode:lr;-inkscape-font-specification:HelvNeueRomanforIBM"
         x="193.668 201.732 204.096 210.552 215.172 218.496 224.952 227.808 234.264 240.468 245.868 252.408 257.952 264.456 270.912 273.768 280.128 282.984 290.964 293.328 299.736 306.192 316.212 318.564"
         y="157.908"
         sodipodi:role="line"
         id="tspan320">Alerte envoyée à Bluemix</tspan><tspan
         style="fill:#373535;fill-opacity:1;fill-rule:nonzero;stroke:none;font-family:HelvNeue Roman for IBM;font-variant:normal;font-weight:normal;font-stretch:normal;font-size:12;writing-mode:lr;-inkscape-font-specification:HelvNeueRomanforIBM"
         x="-78.216 -71.868 -65.1 -62.736 -60.372 -53.916 -46.932 -40.164 -36.36 -30.06 -26.364 -24.012 -17.244 -10.836 -7.98 0 2.364 8.772 15.228 25.248 27.6 33.516 36.372 42.444 48.9 51.756 58.104 64.56 70.968 74.676 81.12 87.024 89.88 95.784 102.192 106.068 108.924 114.996 121.452 123.984 126.84 132.372 135.228 137.604 144.372 150.78 154.656 160.56 163.416 169.32 175.728 179.604 182.46"
         y="367.968"
         sodipodi:role="line"
         id="tspan322">collaboration Bluemix 24 heures sur 24, 7 jours sur 7</tspan></text>
<text
       transform="matrix(1,0,0,-1,230.603,62.5811)"
       id="text324"><tspan
         style="fill:#373535;fill-opacity:1;fill-rule:nonzero;stroke:none;font-family:HelvNeue Roman for IBM;font-variant:normal;font-weight:normal;font-stretch:normal;font-size:9;writing-mode:lr;-inkscape-font-specification:HelvNeueRomanforIBM"
         x="0 5.679 10.485 15.66 20.88 25.956 29.421"
         y="0"
         sodipodi:role="line"
         id="tspan326">Support</tspan></text>
<text
       transform="matrix(1,0,0,-1,229.946,51.7811)"
       id="text328"><tspan
         style="fill:#373535;fill-opacity:1;fill-rule:nonzero;stroke:none;font-family:HelvNeue Bold for IBM;font-variant:normal;font-weight:bold;font-stretch:normal;font-size:9;writing-mode:lr;-inkscape-font-specification:HelvNeueBoldforIBM"
         x="0 6.156 8.334 13.527 18.63 26.64 28.818"
         y="0"
         sodipodi:role="line"
         id="tspan330">Bluemix</tspan></text>
<text
       transform="matrix(1,0,0,-1,303.089,62.5811)"
       id="text332"><tspan
         style="fill:#373535;fill-opacity:1;fill-rule:nonzero;stroke:none;font-family:HelvNeue Roman for IBM;font-variant:normal;font-weight:normal;font-stretch:normal;font-size:9;writing-mode:lr;-inkscape-font-specification:HelvNeueRomanforIBM"
         x="0 6.75 11.97 16.803 19.656 24.381 27.153 28.917 33.993 38.799"
         y="0"
         sodipodi:role="line"
         id="tspan334">Opérations</tspan></text>
<text
       transform="matrix(1,0,0,-1,307.949,51.7811)"
       id="text336"><tspan
         style="fill:#373535;fill-opacity:1;fill-rule:nonzero;stroke:none;font-family:HelvNeue Bold for IBM;font-variant:normal;font-weight:bold;font-stretch:normal;font-size:9;writing-mode:lr;-inkscape-font-specification:HelvNeueBoldforIBM"
         x="0 6.156 8.334 13.527 18.63 26.64 28.818"
         y="0"
         sodipodi:role="line"
         id="tspan338">Bluemix</tspan></text>
</g></svg>