<?xml version="1.0" encoding="UTF-8" standalone="no"?>
<svg
   xmlns:dc="http://purl.org/dc/elements/1.1/"
   xmlns:cc="http://creativecommons.org/ns#"
   xmlns:rdf="http://www.w3.org/1999/02/22-rdf-syntax-ns#"
   xmlns:svg="http://www.w3.org/2000/svg"
   xmlns="http://www.w3.org/2000/svg"
   xmlns:xlink="http://www.w3.org/1999/xlink"
   xmlns:sodipodi="http://sodipodi.sourceforge.net/DTD/sodipodi-0.dtd"
   xmlns:inkscape="http://www.inkscape.org/namespaces/inkscape"
   width="1523px"
   height="741px"
   viewBox="0 0 1523 741"
   version="1.1"
   id="svg2"
   inkscape:version="0.48.5 r"
   sodipodi:docname="bluemixsoftlayerbill.svg">
  <metadata
     id="metadata153">
    <rdf:RDF>
      <cc:Work
         rdf:about="">
        <dc:format>image/svg+xml</dc:format>
        <dc:type
           rdf:resource="http://purl.org/dc/dcmitype/StillImage" />
      </cc:Work>
    </rdf:RDF>
  </metadata>
  <sodipodi:namedview
     pagecolor="#ffffff"
     bordercolor="#666666"
     borderopacity="1"
     objecttolerance="10"
     gridtolerance="10"
     guidetolerance="10"
     inkscape:pageopacity="0"
     inkscape:pageshadow="2"
     inkscape:window-width="1680"
     inkscape:window-height="987"
     id="namedview151"
     showgrid="false"
     inkscape:zoom="0.63697706"
     inkscape:cx="769.11248"
     inkscape:cy="414.51834"
     inkscape:window-x="-4"
     inkscape:window-y="-4"
     inkscape:window-maximized="1"
     inkscape:current-layer="svg2"
     showguides="false">
    <sodipodi:guide
       position="0,0"
       orientation="0,1523"
       id="guide5812" />
    <sodipodi:guide
       position="1523,0"
       orientation="-741,0"
       id="guide5814" />
    <sodipodi:guide
       position="1523,741"
       orientation="0,-1523"
       id="guide5816" />
    <sodipodi:guide
       position="0,741"
       orientation="741,0"
       id="guide5818" />
  </sodipodi:namedview>
  <!-- Generator: Sketch 40.3 (33839) - http://www.bohemiancoding.com/sketch -->
  <title
     id="title4">BluemixSoftLayerBill_v2</title>
  <desc
     id="desc6">Created with Sketch.</desc>
  <defs
     id="defs8">
    <polygon
       id="path-1"
       points="89.9997 0 0 0 0 89.9997 89.9997 89.9997" />
  </defs>
  <polyline
     id="Stroke-36"
     points="147 545 399.6837 544 411.5038 504"
     style="fill:none;stroke:#ff2f2f;stroke-width:6" />
  <polyline
     id="Stroke-38"
     points="147 253 399.6837 254 411.5038 294"
     style="fill:none;stroke:#5596e6;stroke-width:6" />
  <text
     id="Bluemix-bill"
     font-size="32"
     font-weight="bold"
     style="font-size:32px;font-weight:bold;fill:#3c3232;stroke:none;font-family:'HelvNeueBoldforIBM, HelvNeue Bold for IBM'">
    <tspan
       x="14.424"
       y="307"
       id="tspan19">Bluemix 請求</tspan>
  </text>
  <text
     id="SoftLayer-bill"
     font-size="32"
     font-weight="bold"
     style="font-size:32px;font-weight:bold;fill:#3c3232;stroke:none;font-family:'HelvNeueBoldforIBM, HelvNeue Bold for IBM'"
     y="2">
    <tspan
       x="0.95200002"
       y="599"
       id="tspan22">SoftLayer 請求</tspan>
  </text>
  <g
     id="g24"
     transform="translate(59,444)"
     style="fill:#ff2f2f;stroke:none">
    <path
       d="m 0,0.9994 0,120 80,0 0,-88 -32,-32 -48,0 0,0 z m 4,4.002 40,0 0,31.998 32,0 0,80.002 -72,0 0,-112 0,0 z"
       id="Fill-1"
       inkscape:connector-curvature="0" />
    <polygon
       id="Fill-2"
       points="64,53 64,49 16,49 16,53 " />
    <polygon
       id="Fill-3"
       points="64,61 64,57 16,57 16,61 " />
    <polygon
       id="Fill-4"
       points="40,69 40,65 16,65 16,69 " />
  </g>
  <text
     id="text30"
     font-size="32"
     font-weight="bold"
     style="font-size:32px;font-weight:bold;fill:#3c3232;stroke:none;font-family:'HelvNeueBoldforIBM, HelvNeue Bold for IBM'">
    <tspan
       x="848.95203"
       y="594"
       id="tspan32">SoftLayer 請求</tspan>
  </text>
  <g
     id="g34"
     transform="translate(907,433)"
     style="fill:#ff2f2f;stroke:none">
    <path
       d="m 0,0.9994 0,120 80,0 0,-88 -32,-32 -48,0 0,0 z m 4,4.002 40,0 0,31.998 32,0 0,80.002 -72,0 0,-112 0,0 z"
       id="path36"
       inkscape:connector-curvature="0" />
    <polygon
       id="polygon38"
       points="64,53 64,49 16,49 16,53 " />
    <polygon
       id="polygon40"
       points="64,61 64,57 16,57 16,61 " />
    <polygon
       id="polygon42"
       points="40,69 40,65 16,65 16,69 " />
  </g>
  <g
     id="g44"
     transform="translate(59,156)"
     style="fill:#5596e6;stroke:none">
    <path
       d="M 0,0.14226286 0,118.99941 l 80,0 0,-87.161909 -32,-31.69523814 -48,0 0,0 z m 4,3.96388574 40,0 0,31.6932574 32,0 0,79.240074 -72,0 0,-110.9333314 0,0 z"
       id="path46"
       inkscape:connector-curvature="0" />
    <polygon
       id="polygon48"
       points="64,51.647619 64,47.685714 16,47.685714 16,51.647619 " />
    <polygon
       id="polygon50"
       points="64,59.571429 64,55.609524 16,55.609524 16,59.571429 " />
    <polygon
       id="polygon52"
       points="40,67.495238 40,63.533333 16,63.533333 16,67.495238 " />
  </g>
  <text
     id="text54"
     font-size="32"
     font-weight="bold"
     style="font-size:32px;font-weight:bold;fill:#3c3232;stroke:none;font-family:'HelvNeueBoldforIBM, HelvNeue Bold for IBM'">
    <tspan
       x="609.92401"
       y="161"
       id="tspan56">Bluemix 請求</tspan>
  </text>
  <g
     id="g58"
     transform="translate(654,0)"
     style="fill:#5596e6;stroke:none">
    <path
       d="m 0,0.9994 0,120 80,0 0,-88 -32,-32 -48,0 0,0 z m 4,4.002 40,0 0,31.998 32,0 0,80.002 -72,0 0,-112 0,0 z"
       id="path60"
       inkscape:connector-curvature="0" />
    <polygon
       id="polygon62"
       points="64,53 64,49 16,49 16,53 " />
    <polygon
       id="polygon64"
       points="64,61 64,57 16,57 16,61 " />
    <polygon
       id="polygon66"
       points="40,69 40,65 16,65 16,69 " />
  </g>
  <g
     id="g68"
     transform="translate(1274,212)"
     style="fill:#5596e6;stroke:none">
    <path
       d="m 0,0.9994 0,120 80,0 0,-88 -32,-32 -48,0 0,0 z m 4,4.002 40,0 0,31.998 32,0 0,80.002 -72,0 0,-112 0,0 z"
       id="path70"
       inkscape:connector-curvature="0" />
    <polygon
       id="polygon72"
       points="64,53 64,49 16,49 16,53 " />
    <polygon
       id="polygon74"
       points="64,61 64,57 16,57 16,61 " />
    <polygon
       id="polygon76"
       points="40,69 40,65 16,65 16,69 " />
  </g>
  <g
     style="fill:none;stroke:none"
     id="g78"
     transform="translate(367,317)">
    <g
       id="Fill-1-Clipped">
      <mask
         id="mask-2"
         fill="white">
        <use
           xlink:href="#path-1"
           id="use82"
           x="0"
           y="0"
           width="1523"
           height="741" />
      </mask>
      <g
         id="g84" />
      <path
         d="m 79.6062,31.6062 -9,9 c -2.8335,2.8335 -6.6,4.3935 -10.6065,4.3935 -1.9275,0 -3.8025,-0.348 -5.535,-0.9795 l 12.7785,-12.777 -8.4855,-8.4855 -12.7785,12.777 c -0.6315,-1.731 -0.9795,-3.606 -0.9795,-5.535 0,-4.0065 1.56,-7.773 4.3935,-10.6065 l 9,-9 c 2.8335,-2.8335 6.6,-4.3935 10.6065,-4.3935 4.0065,0 7.773,1.56 10.6065,4.3935 2.8335,2.8335 4.3935,6.6 4.3935,10.6065 0,4.0065 -1.56,7.773 -4.3935,10.6065 M 44.9997,59.9997 c 0,4.0065 -1.56,7.773 -4.3935,10.6065 l -9,9 c -2.8335,2.8335 -6.6,4.3935 -10.6065,4.3935 -4.0065,0 -7.773,-1.56 -10.6065,-4.3935 -2.8335,-2.8335 -4.3935,-6.6 -4.3935,-10.6065 0,-4.0065 1.56,-7.773 4.3935,-10.6065 l 9,-9 c 2.8335,-2.8335 6.6,-4.3935 10.6065,-4.3935 1.929,0 3.804,0.348 5.535,0.9795 l -12.777,12.7785 8.4855,8.4855 12.777,-12.7785 c 0.6315,1.7325 0.9795,3.6075 0.9795,5.535 m 38.85,-53.8485 c -3.801,-3.7995 -9.051,-6.1515 -14.85,-6.1515 -5.799,0 -11.049,2.352 -14.8485,6.1515 l -9,9 c -3.7995,3.7995 -6.1515,9.0495 -6.1515,14.8485 0,3.6165 0.858,7.077 2.4225,10.092 l -1.3305,1.3305 c -3.0135,-1.5645 -6.4755,-2.4225 -10.092,-2.4225 -5.799,0 -11.049,2.352 -14.8485,6.1515 l -9,9 C 2.3517,57.9507 -3e-4,63.2007 -3e-4,68.9997 c 0,5.799 2.352,11.049 6.1515,14.85 3.7995,3.7995 9.0495,6.15 14.8485,6.15 5.799,0 11.049,-2.3505 14.85,-6.15 l 9,-9 c 3.7995,-3.801 6.15,-9.051 6.15,-14.85 0,-3.6165 -0.8565,-7.077 -2.4225,-10.092 l 1.3305,-1.3305 c 3.015,1.566 6.4755,2.4225 10.092,2.4225 5.799,0 11.049,-2.3505 14.85,-6.15 l 9,-9 c 3.7995,-3.801 6.15,-9.051 6.15,-14.85 0,-5.799 -2.3505,-11.049 -6.15,-14.8485"
         id="path86"
         mask="url(#mask-2)"
         inkscape:connector-curvature="0"
         style="fill:#000000" />
    </g>
  </g>
  <text
     id="Link-Bluemix-and"
     font-size="32"
     font-weight="bold"
     style="font-size:32px;font-weight:bold;fill:#3c3232;stroke:none;font-family:'HelvNeueBoldforIBM, HelvNeue Bold for IBM'">
    <tspan
       x="284.95599"
       y="441"
       id="tspan89">Bluemix アカウントと</tspan>
  </text>
  <text
     id="SoftLayer-accounts"
     font-size="32"
     font-weight="bold"
     style="font-size:32px;font-weight:bold;fill:#3c3232;stroke:none;font-family:'HelvNeueBoldforIBM, HelvNeue Bold for IBM'">
    <tspan
       x="265.91599"
       y="480"
       id="tspan92">SoftLayer アカウントのリンク</tspan>
  </text>
  <text
     id="For-the-next-billing-cycle,-you"
     font-size="30"
     font-weight="normal"
     style="font-size:30px;font-weight:normal;fill:#3c3232;stroke:none;font-family:'HelveticaNeue, Helvetica Neue'"
     x="30">
    <tspan
       x="1145.285"
       y="433"
       id="tspan95">次の請求処理サイクルで、</tspan>
  </text>
  <text
     id="will-receive-a-singl"
     font-size="30"
     font-weight="normal"
     style="font-size:30px;font-weight:normal;fill:#3c3232;stroke:none;font-family:'HelveticaNeue, Helvetica Neue'"
     x="44">
    <tspan
       x="1165.395"
       y="465"
       id="tspan98">単一の Bluemix 請求書</tspan>
  </text>
  <text
     id="bill-that-includes-your-SoftLayer"
     font-size="30"
     font-weight="normal"
     style="font-size:30px;font-weight:normal;fill:#3c3232;stroke:none;font-family:'HelveticaNeue, Helvetica Neue'"
     x="-68">
    <tspan
       x="1032"
       y="497"
       id="tspan101">(SoftLayer と Bluemix の料金を含む)</tspan>
  </text>
  <text
     id="and-Bluemix-charges"
     font-size="30"
     font-weight="normal"
     style="font-size:30px;font-weight:normal;fill:#3c3232;stroke:none;font-family:'HelveticaNeue, Helvetica Neue'"
     x="76">
    <tspan
       x="1246.005"
       y="529"
       id="tspan104">を受け取る</tspan>
  </text>
  <text
     id="text106"
     font-size="32"
     font-weight="bold"
     style="font-size:32px;font-weight:bold;fill:#3c3232;stroke:none;font-family:'HelvNeueBoldforIBM, HelvNeue Bold for IBM'">
    <tspan
       x="1227.864"
       y="377"
       id="tspan108">Bluemix 請求</tspan>
  </text>
  <g
     id="Group"
     transform="matrix(1,0,0,-1,458,372)"
     style="fill:none;stroke:#af6ee8;stroke-width:6">
    <path
       d="M 0.26034483,3.5 730,3.5"
       id="Line"
       inkscape:connector-curvature="0" />
    <path
       d="m 730,0.5 0,6"
       id="Line-decoration-1"
       inkscape:connector-curvature="0" />
  </g>
  <text
     id="After-you-link-accounts,-you"
     font-size="30"
     font-weight="normal"
     style="font-size:30px;font-weight:normal;fill:#1a1314;stroke:none;font-family:'HelveticaNeue, Helvetica Neue'"
     x="62">
    <tspan
       x="542.04004"
       y="203"
       id="tspan114">アカウントのリンク後、</tspan>
  </text>
  <text
     id="will-receive-a-separate-bill-for-your"
     font-size="30"
     font-weight="normal"
     style="font-size:30px;font-weight:normal;fill:#1a1314;stroke:none;font-family:'HelveticaNeue, Helvetica Neue'"
     x="60">
    <tspan
       x="499"
       y="235"
       id="tspan117">現行月の請求処理サイクルの</tspan>
  </text>
  <text
     id="Bluemix-usage-for-the-current"
     font-size="30"
     font-weight="normal"
     style="font-size:30px;font-weight:normal;fill:#1a1314;stroke:none;font-family:'HelveticaNeue, Helvetica Neue'"
     x="96">
    <tspan
       x="564.38501"
       y="267"
       id="tspan120">Bluemix 使用量に対して</tspan>
  </text>
  <text
     id="month’s-billing-cycle."
     font-size="30"
     font-weight="normal"
     style="font-size:30px;font-weight:normal;fill:#1a1314;stroke:none;font-family:'HelveticaNeue, Helvetica Neue'"
     x="36">
    <tspan
       x="561.03998"
       y="299"
       id="tspan123">別個の請求書を受け取る</tspan>
  </text>
  <text
     id="You-might-receive-a-separate-bill"
     font-size="30"
     font-weight="normal"
     style="font-size:30px;font-weight:normal;fill:#3c3232;stroke:none;font-family:'HelveticaNeue, Helvetica Neue'"
     x="-32">
    <tspan
       x="691.77002"
       y="639"
       id="tspan126">アカウントをリンクしたタイミングによっては、</tspan>
  </text>
  <text
     id="for-SoftLayer-usage-for-the-current"
     font-size="30"
     font-weight="normal"
     style="font-size:30px;font-weight:normal;fill:#3c3232;stroke:none;font-family:'HelveticaNeue, Helvetica Neue'"
     x="78">
    <tspan
       x="787.92999"
       y="671"
       id="tspan129">現行請求処理サイクルの</tspan>
  </text>
  <text
     id="billing-cycle,-depending-on-when-you"
     font-size="30"
     font-weight="normal"
     style="font-size:30px;font-weight:normal;fill:#3c3232;stroke:none;font-family:'HelveticaNeue, Helvetica Neue'"
     x="90">
    <tspan
       x="782"
       y="703"
       id="tspan132">SoftLayer 使用量に対して</tspan>
  </text>
  <text
     id="linked-your-accounts."
     font-size="30"
     font-weight="normal"
     style="font-size:30px;font-weight:normal;fill:#3c3232;stroke:none;font-family:'HelveticaNeue, Helvetica Neue'"
     x="-74">
    <tspan
       x="724.72998"
       y="735"
       id="tspan135">別個の請求書を受け取ることがある</tspan>
  </text>
  <g
     style="fill:none;stroke:none"
     id="Group-2"
     transform="translate(581,325)">
    <path
       d="M 2.6203008,0 220.51504,0"
       id="path138"
       transform="matrix(1,0,0,-1,0,1)"
       inkscape:connector-curvature="0"
       style="stroke:#5596e6;stroke-dasharray:15, 5" />
    <path
       d="M 0,0 0,41"
       id="path140"
       transform="matrix(1,0,0,-1,0,41)"
       inkscape:connector-curvature="0"
       style="stroke:#af6ee8" />
    <path
       d="m 226,0 0,41"
       id="Line-Copy"
       transform="matrix(1,0,0,-1,0,41)"
       inkscape:connector-curvature="0"
       style="stroke:#af6ee8" />
  </g>
  <g
     style="fill:none;stroke:none"
     id="g143"
     transform="matrix(-1,0,0,-1,1049,409)">
    <path
       d="M 2.0582707,0 198.16353,0"
       id="path145"
       transform="matrix(1,0,0,-1,0,1)"
       inkscape:connector-curvature="0"
       style="stroke:#ff2f2f;stroke-dasharray:15, 5" />
    <path
       d="M 0,0.774194 0,41"
       id="path147"
       transform="matrix(1,0,0,-1,0,41.774194)"
       inkscape:connector-curvature="0"
       style="stroke:#af6ee8" />
    <path
       d="M 204,0.774194 204,41"
       id="path149"
       transform="matrix(1,0,0,-1,0,41.774194)"
       inkscape:connector-curvature="0"
       style="stroke:#af6ee8" />
  </g>
</svg>
