<?xml version="1.0" encoding="utf-8"?>
<!-- Generator: Adobe Illustrator 19.1.0, SVG Export Plug-In . SVG Version: 6.00 Build 0)  -->
<!DOCTYPE svg PUBLIC "-//W3C//DTD SVG 1.1//EN" "http://www.w3.org/Graphics/SVG/1.1/DTD/svg11.dtd">
<svg version="1.1" id="Layer_1" xmlns="http://www.w3.org/2000/svg" xmlns:xlink="http://www.w3.org/1999/xlink" x="0px" y="0px"
	 width="24px" height="24px" viewBox="0 0 24 24" style="enable-background:new 0 0 24 24;" xml:space="preserve">
<g>
	<path d="M12,7.2c-2.7,0-4.8,2.1-4.8,4.8s2.1,4.8,4.8,4.8c2.7,0,4.8-2.1,4.8-4.8S14.7,7.2,12,7.2z M12,13.6c-0.9,0-1.6-0.7-1.6-1.6
		s0.7-1.6,1.6-1.6s1.6,0.7,1.6,1.6S12.9,13.6,12,13.6z"/>
	<path d="M12,4.8C6.6,4.8,2.5,7.7,0,12c2.5,4.3,6.6,7.2,12,7.2s9.5-2.9,12-7.2C21.5,7.7,17.4,4.8,12,4.8z M12,17.6
		c-4.1,0-7.7-2-10.1-5.6c2.4-3.6,6-5.6,10.1-5.6s7.7,2,10.1,5.6C19.7,15.6,16.1,17.6,12,17.6z"/>
</g>
</svg>
