<?xml version="1.0" encoding="utf-8"?>
<!-- Generator: Adobe Illustrator 19.2.1, SVG Export Plug-In . SVG Version: 6.00 Build 0)  -->
<svg version="1.1" id="Layer_1" xmlns="http://www.w3.org/2000/svg" xmlns:xlink="http://www.w3.org/1999/xlink" x="0px" y="0px"
	 viewBox="0 0 557 502.7" enable-background="new 0 0 557 502.7" xml:space="preserve">
<g>
	<defs>
		<path id="SVGID_1_" d="M302.5,33.2c1.7,0,3.1,1.4,3.1,3.1c0,1.7-1.4,3.1-3.1,3.1c-1.7,0-3.1-1.4-3.1-3.1
			C299.4,34.6,300.8,33.2,302.5,33.2z M309.7,60.2h-47.7V45.7h47.7V60.2z M309.7,76.8h-47.7V62.2h47.7V76.8z M260,27v16.6v2.1v14.5
			v2.1v16.6h51.8V62.2v-2.1V45.7v-2.1V27H260z"/>
	</defs>
	<clipPath id="SVGID_2_">
		<use xlink:href="#SVGID_1_"  overflow="visible"/>
	</clipPath>
	<g clip-path="url(#SVGID_2_)">
		<defs>
			<rect id="SVGID_3_" x="1" width="556" height="504"/>
		</defs>
		<clipPath id="SVGID_4_">
			<use xlink:href="#SVGID_3_"  overflow="visible"/>
		</clipPath>
		<rect x="255" y="22" clip-path="url(#SVGID_4_)" fill="#4B4A4B" width="61.8" height="61.8"/>
	</g>
</g>
<g>
	<defs>
		<circle id="SVGID_5_" cx="302.5" cy="52.9" r="3.1"/>
	</defs>
	<clipPath id="SVGID_6_">
		<use xlink:href="#SVGID_5_"  overflow="visible"/>
	</clipPath>
	<g clip-path="url(#SVGID_6_)">
		<defs>
			<rect id="SVGID_7_" x="1" width="556" height="504"/>
		</defs>
		<clipPath id="SVGID_8_">
			<use xlink:href="#SVGID_7_"  overflow="visible"/>
		</clipPath>
		<rect x="294.4" y="44.8" clip-path="url(#SVGID_8_)" fill="#4B4A4B" width="16.2" height="16.2"/>
	</g>
</g>
<g>
	<defs>
		<circle id="SVGID_9_" cx="302.5" cy="69.5" r="3.1"/>
	</defs>
	<clipPath id="SVGID_10_">
		<use xlink:href="#SVGID_9_"  overflow="visible"/>
	</clipPath>
	<g clip-path="url(#SVGID_10_)">
		<defs>
			<rect id="SVGID_11_" x="1" width="556" height="504"/>
		</defs>
		<clipPath id="SVGID_12_">
			<use xlink:href="#SVGID_11_"  overflow="visible"/>
		</clipPath>
		<rect x="294.4" y="61.4" clip-path="url(#SVGID_12_)" fill="#4B4A4B" width="16.2" height="16.2"/>
	</g>
</g>
<g>
	<defs>
		<path id="SVGID_13_" d="M285.9,65.6l12.5,21.8h-25.1L285.9,65.6z M285.9,63.7l-14.2,24.6h28.4L285.9,63.7z"/>
	</defs>
	<clipPath id="SVGID_14_">
		<use xlink:href="#SVGID_13_"  overflow="visible"/>
	</clipPath>
	<g clip-path="url(#SVGID_14_)">
		<defs>
			<rect id="SVGID_15_" x="1" width="556" height="504"/>
		</defs>
		<clipPath id="SVGID_16_">
			<use xlink:href="#SVGID_15_"  overflow="visible"/>
		</clipPath>
		<rect x="266.7" y="58.7" clip-path="url(#SVGID_16_)" fill="#4B4A4B" width="38.4" height="34.6"/>
	</g>
</g>
<g>
	<defs>
		<path id="SVGID_17_" d="M285.9,65.6l12.5,21.8h-25.1L285.9,65.6z M285.9,63.7l-14.2,24.6h28.4L285.9,63.7z"/>
	</defs>
	<clipPath id="SVGID_18_">
		<use xlink:href="#SVGID_17_"  overflow="visible"/>
	</clipPath>
	<g clip-path="url(#SVGID_18_)">
		<defs>
			<rect id="SVGID_19_" x="1" width="556" height="504"/>
		</defs>
		<clipPath id="SVGID_20_">
			<use xlink:href="#SVGID_19_"  overflow="visible"/>
		</clipPath>
		<rect x="266.7" y="58.7" clip-path="url(#SVGID_20_)" fill="#4B4A4B" width="38.4" height="34.6"/>
	</g>
</g>
<g>
	<defs>
		<polygon id="SVGID_21_" points="285,74.1 285,76 285.4,80.7 286.4,80.7 286.8,76 286.8,74.1 		"/>
	</defs>
	<clipPath id="SVGID_22_">
		<use xlink:href="#SVGID_21_"  overflow="visible"/>
	</clipPath>
	<g clip-path="url(#SVGID_22_)">
		<defs>
			<rect id="SVGID_23_" x="1" width="556" height="504"/>
		</defs>
		<clipPath id="SVGID_24_">
			<use xlink:href="#SVGID_23_"  overflow="visible"/>
		</clipPath>
		<rect x="280" y="69.1" clip-path="url(#SVGID_24_)" fill="#4B4A4B" width="11.9" height="16.6"/>
	</g>
</g>
<g>
	<defs>
		<circle id="SVGID_25_" cx="285.9" cy="82.6" r="0.9"/>
	</defs>
	<clipPath id="SVGID_26_">
		<use xlink:href="#SVGID_25_"  overflow="visible"/>
	</clipPath>
	<g clip-path="url(#SVGID_26_)">
		<defs>
			<rect id="SVGID_27_" x="1" width="556" height="504"/>
		</defs>
		<clipPath id="SVGID_28_">
			<use xlink:href="#SVGID_27_"  overflow="visible"/>
		</clipPath>
		<rect x="280" y="76.7" clip-path="url(#SVGID_28_)" fill="#4B4A4B" width="11.9" height="11.9"/>
	</g>
</g>
<g>
	<defs>
		<polygon id="SVGID_29_" points="285.9,65.6 298.4,87.3 273.4,87.3 		"/>
	</defs>
	<clipPath id="SVGID_30_">
		<use xlink:href="#SVGID_29_"  overflow="visible"/>
	</clipPath>
	<g clip-path="url(#SVGID_30_)">
		<defs>
			<rect id="SVGID_31_" x="1" width="556" height="504"/>
		</defs>
		<clipPath id="SVGID_32_">
			<use xlink:href="#SVGID_31_"  overflow="visible"/>
		</clipPath>
		<rect x="268.4" y="60.6" clip-path="url(#SVGID_32_)" fill="#FFFFFF" width="35.1" height="31.8"/>
	</g>
</g>
<g>
	<defs>
		<polygon id="SVGID_33_" points="285,74.1 285,76 285.4,80.7 286.4,80.7 286.8,76 286.8,74.1 		"/>
	</defs>
	<clipPath id="SVGID_34_">
		<use xlink:href="#SVGID_33_"  overflow="visible"/>
	</clipPath>
	<g clip-path="url(#SVGID_34_)">
		<defs>
			<rect id="SVGID_35_" x="1" width="556" height="504"/>
		</defs>
		<clipPath id="SVGID_36_">
			<use xlink:href="#SVGID_35_"  overflow="visible"/>
		</clipPath>
		<rect x="280" y="69.1" clip-path="url(#SVGID_36_)" fill="#4B4A4B" width="11.9" height="16.6"/>
	</g>
</g>
<g>
	<defs>
		<circle id="SVGID_37_" cx="285.9" cy="82.6" r="0.9"/>
	</defs>
	<clipPath id="SVGID_38_">
		<use xlink:href="#SVGID_37_"  overflow="visible"/>
	</clipPath>
	<g clip-path="url(#SVGID_38_)">
		<defs>
			<rect id="SVGID_39_" x="1" width="556" height="504"/>
		</defs>
		<clipPath id="SVGID_40_">
			<use xlink:href="#SVGID_39_"  overflow="visible"/>
		</clipPath>
		<rect x="280" y="76.7" clip-path="url(#SVGID_40_)" fill="#4B4A4B" width="11.9" height="11.9"/>
	</g>
</g>
<g>
	<defs>
		<polygon id="SVGID_41_" points="121.7,213.7 102.3,247.3 63.4,247.3 44,213.7 63.4,180 102.3,180 		"/>
	</defs>
	<clipPath id="SVGID_42_">
		<use xlink:href="#SVGID_41_"  overflow="visible"/>
	</clipPath>
	<g clip-path="url(#SVGID_42_)">
		<defs>
			<rect id="SVGID_43_" x="1" width="556" height="504"/>
		</defs>
		<clipPath id="SVGID_44_">
			<use xlink:href="#SVGID_43_"  overflow="visible"/>
		</clipPath>
		<rect x="39" y="175" clip-path="url(#SVGID_44_)" fill="#FFFFFF" width="87.7" height="77.3"/>
	</g>
</g>
<g>
	<polygon fill="none" stroke="#4B4A4B" stroke-width="2" stroke-miterlimit="10" points="121.7,213.7 102.3,247.3 63.4,247.3 
		44,213.7 63.4,180 102.3,180 	"/>
</g>
<g>
	<defs>
		<polygon id="SVGID_45_" points="508.3,247.3 469.4,247.3 450,213.7 469.4,180 508.3,180 527.7,213.7 		"/>
	</defs>
	<clipPath id="SVGID_46_">
		<use xlink:href="#SVGID_45_"  overflow="visible"/>
	</clipPath>
	<g clip-path="url(#SVGID_46_)">
		<defs>
			<rect id="SVGID_47_" x="1" width="556" height="504"/>
		</defs>
		<clipPath id="SVGID_48_">
			<use xlink:href="#SVGID_47_"  overflow="visible"/>
		</clipPath>
		<rect x="445" y="175" clip-path="url(#SVGID_48_)" fill="#FFFFFF" width="87.7" height="77.3"/>
	</g>
</g>
<polygon fill="none" stroke="#4B4A4B" stroke-width="2" stroke-miterlimit="10" points="508.3,247.3 469.4,247.3 450,213.7 
	469.4,180 508.3,180 527.7,213.7 "/>
<polygon fill="none" stroke="#4B4A4B" stroke-width="3" stroke-miterlimit="10" points="337.6,55.9 311.7,100.8 259.9,100.8 
	234,55.9 259.9,11 311.7,11 "/>
<g>
	<defs>
		<path id="SVGID_49_" d="M98,222.6l-28.7-8.2v-2.8l28.7-8.2V222.6z M79.3,219.7c0,0.6-0.5,1.1-1.1,1.1h-4.4c-0.6,0-1.1-0.5-1.1-1.1
			v-3.2l6.6,1.9V219.7z M69.3,210.5v-0.8h-1.1v-1.1H66v8.8h2.2v-1.1h1.1v-0.8l2.2,0.6v3.5c0,1.2,1,2.2,2.2,2.2h4.4
			c1.2,0,2.2-1,2.2-2.2v-0.9l18.8,5.4V202L69.3,210.5z"/>
	</defs>
	<clipPath id="SVGID_50_">
		<use xlink:href="#SVGID_49_"  overflow="visible"/>
	</clipPath>
	<g clip-path="url(#SVGID_50_)">
		<defs>
			<rect id="SVGID_51_" x="1" width="556" height="504"/>
		</defs>
		<clipPath id="SVGID_52_">
			<use xlink:href="#SVGID_51_"  overflow="visible"/>
		</clipPath>
		<rect x="61" y="197" clip-path="url(#SVGID_52_)" fill="#4B4A4B" width="43.2" height="32.1"/>
	</g>
</g>
<g>
	<defs>
		<path id="SVGID_53_" d="M488.7,228.7c-8.3,0-15-6.8-15-15c0-8.3,6.8-15,15-15c8.3,0,15,6.7,15,15
			C503.7,222,496.9,228.7,488.7,228.7z M488.6,197c-9.2,0-16.6,7.4-16.6,16.6c0,9.2,7.4,16.6,16.6,16.6c9.2,0,16.6-7.4,16.6-16.6
			C505.2,204.4,497.7,197,488.6,197z M486.9,208.6l0.8,8.3h1.7l0.8-8.3v-3.3h-3.3V208.6z M488.6,218.5c-0.9,0-1.7,0.7-1.7,1.7
			c0,0.9,0.7,1.7,1.7,1.7c0.9,0,1.7-0.7,1.7-1.7C490.2,219.3,489.5,218.5,488.6,218.5z"/>
	</defs>
	<clipPath id="SVGID_54_">
		<use xlink:href="#SVGID_53_"  overflow="visible"/>
	</clipPath>
	<g clip-path="url(#SVGID_54_)">
		<defs>
			<rect id="SVGID_55_" x="1" width="556" height="504"/>
		</defs>
		<clipPath id="SVGID_56_">
			<use xlink:href="#SVGID_55_"  overflow="visible"/>
		</clipPath>
		<rect x="467" y="192" clip-path="url(#SVGID_56_)" fill="#4B4A4B" width="43.2" height="43.2"/>
	</g>
</g>
<ellipse fill="none" stroke="#355D7F" stroke-width="2" stroke-miterlimit="10" cx="284.4" cy="423.4" rx="54.4" ry="54.4"/>
<g>
	<defs>
		<polygon id="SVGID_57_" points="284.7,424.7 265.3,458.3 226.4,458.3 207,424.7 226.4,391 265.3,391 		"/>
	</defs>
	<clipPath id="SVGID_58_">
		<use xlink:href="#SVGID_57_"  overflow="visible"/>
	</clipPath>
	<g clip-path="url(#SVGID_58_)">
		<defs>
			<rect id="SVGID_59_" x="1" width="556" height="504"/>
		</defs>
		<clipPath id="SVGID_60_">
			<use xlink:href="#SVGID_59_"  overflow="visible"/>
		</clipPath>
		<rect x="202" y="386" clip-path="url(#SVGID_60_)" fill="#FFFFFF" width="87.7" height="77.3"/>
	</g>
</g>
<g>
	<polygon fill="none" stroke="#4B4A4B" stroke-width="2" stroke-miterlimit="10" points="284.7,424.7 265.3,458.3 226.4,458.3 
		207,424.7 226.4,391 265.3,391 	"/>
</g>
<g>
	<defs>
		<polygon id="SVGID_61_" points="363.7,424.7 344.3,458.3 305.4,458.3 286,424.7 305.4,391 344.3,391 		"/>
	</defs>
	<clipPath id="SVGID_62_">
		<use xlink:href="#SVGID_61_"  overflow="visible"/>
	</clipPath>
	<g clip-path="url(#SVGID_62_)">
		<defs>
			<rect id="SVGID_63_" x="1" width="556" height="504"/>
		</defs>
		<clipPath id="SVGID_64_">
			<use xlink:href="#SVGID_63_"  overflow="visible"/>
		</clipPath>
		<rect x="281" y="386" clip-path="url(#SVGID_64_)" fill="#FFFFFF" width="87.7" height="77.3"/>
	</g>
</g>
<polygon fill="none" stroke="#4B4A4B" stroke-width="2" stroke-miterlimit="10" points="363.7,424.7 344.3,458.3 305.4,458.3 
	286,424.7 305.4,391 344.3,391 "/>
<g>
	<defs>
		<path id="SVGID_65_" d="M253.4,416.8c0.5-1.2,0.8-2.4,0.8-3.8c0-1.3-0.3-2.6-0.8-3.8l4.2-4.2c1.5,2.3,2.3,5,2.3,8
			c0,2.9-0.9,5.7-2.3,8L253.4,416.8z M252.5,416c-0.8,2.1-2.5,3.8-4.6,4.6c-0.9,0.4-1.9,0.6-2.9,0.6c-1,0-2-0.2-2.9-0.6
			c-2.1-0.8-3.8-2.5-4.6-4.6c-0.3-0.9-0.5-1.9-0.5-2.9c0-1,0.2-2,0.5-2.9c0.8-2.1,2.5-3.8,4.6-4.6c0.9-0.4,1.9-0.5,2.9-0.5
			c1,0,2,0.2,2.9,0.5c2.1,0.8,3.8,2.5,4.6,4.6c0.3,0.9,0.5,1.9,0.5,2.9C253.1,414.1,252.9,415.1,252.5,416z M245.1,428
			c-2.9,0-5.7-0.9-8-2.3l4.2-4.2c1.2,0.5,2.4,0.8,3.8,0.8c1.3,0,2.6-0.3,3.8-0.8l4.2,4.2C250.7,427.1,248,428,245.1,428z
			 M236.7,416.8l-4.2,4.2c-1.5-2.3-2.3-5-2.3-8c0-2.9,0.9-5.7,2.3-8l4.2,4.2c-0.5,1.2-0.8,2.4-0.8,3.8
			C235.9,414.4,236.2,415.7,236.7,416.8z M245.1,398.1c2.9,0,5.7,0.9,8,2.3l-4.2,4.2c-1.2-0.5-2.4-0.8-3.8-0.8
			c-1.3,0-2.6,0.3-3.8,0.8l-4.2-4.2C239.4,399,242.1,398.1,245.1,398.1z M245.1,397c-8.9,0-16.1,7.2-16.1,16.1s7.2,16.1,16.1,16.1
			c8.9,0,16.1-7.2,16.1-16.1S253.9,397,245.1,397z"/>
	</defs>
	<clipPath id="SVGID_66_">
		<use xlink:href="#SVGID_65_"  overflow="visible"/>
	</clipPath>
	<g clip-path="url(#SVGID_66_)">
		<defs>
			<rect id="SVGID_67_" x="1" width="556" height="504"/>
		</defs>
		<clipPath id="SVGID_68_">
			<use xlink:href="#SVGID_67_"  overflow="visible"/>
		</clipPath>
		<rect x="224" y="392" clip-path="url(#SVGID_68_)" fill="#4B4A4B" width="42.1" height="42.1"/>
	</g>
</g>
<g>
	<defs>
		<rect id="SVGID_69_" x="309" y="398.1" width="31" height="30.3"/>
	</defs>
	<clipPath id="SVGID_70_">
		<use xlink:href="#SVGID_69_"  overflow="visible"/>
	</clipPath>
	<g clip-path="url(#SVGID_70_)">
		<defs>
			<rect id="SVGID_71_" x="1" width="556" height="504"/>
		</defs>
		<clipPath id="SVGID_72_">
			<use xlink:href="#SVGID_71_"  overflow="visible"/>
		</clipPath>
		<g clip-path="url(#SVGID_72_)" enable-background="new    ">
			<g>
				<defs>
					<rect id="SVGID_73_" x="309" y="397.5" width="31" height="31"/>
				</defs>
				<clipPath id="SVGID_74_">
					<use xlink:href="#SVGID_73_"  overflow="visible"/>
				</clipPath>
				<g clip-path="url(#SVGID_74_)">
					<defs>
						<path id="SVGID_75_" d="M326.6,428.4h8.6c0.2,0,0.3-0.1,0.4-0.2l4.3-7.3c0-0.1,0.1-0.1,0.1-0.2s0-0.2-0.1-0.2l-4.2-7.1
							l4.2-7.1c0-0.1,0.1-0.1,0.1-0.2c0-0.1,0-0.2-0.1-0.2l-4.3-7.3c-0.1-0.1-0.2-0.2-0.4-0.2h-8.6c-0.2,0-0.3,0.1-0.4,0.2l-4.2,7.1
							h-8.3c-0.2,0-0.3,0.1-0.4,0.2l-4.3,7.3c-0.1,0.1-0.1,0.3,0,0.5l4.3,7.3c0.1,0.1,0.2,0.2,0.4,0.2h8.3l4.2,7.1
							C326.3,428.3,326.5,428.4,326.6,428.4z M334.4,412.8h-7.5l-0.1-0.2l-3.6-6.2h7.5L334.4,412.8z M322.3,419.7l-3.8-6.5l3.8-6.5
							l3.8,6.5L322.3,419.7z M334.4,413.7l-3.8,6.4h-7.5l3.6-6.2l0.1-0.2H334.4z M314,406.4h7.5l-3.9,6.7c-0.1,0.1-0.1,0.3,0,0.5
							l3.9,6.7H314l-4-6.9L314,406.4z M335.2,412.4l-3.9-6.7c-0.1-0.1-0.2-0.2-0.4-0.2h-7.8l3.8-6.4h8.1l4,6.9L335.2,412.4z
							 M326.9,427.5l-3.8-6.4h7.8c0.2,0,0.3-0.1,0.4-0.2l3.9-6.7l3.8,6.5l-4,6.9H326.9z"/>
					</defs>
					<clipPath id="SVGID_76_">
						<use xlink:href="#SVGID_75_"  overflow="visible"/>
					</clipPath>
					<g clip-path="url(#SVGID_76_)">
						<defs>
							<rect id="SVGID_77_" x="309" y="397.5" width="31" height="31"/>
						</defs>
						<clipPath id="SVGID_78_">
							<use xlink:href="#SVGID_77_"  overflow="visible"/>
						</clipPath>
						<rect x="304" y="393.1" clip-path="url(#SVGID_78_)" fill="#4B4A4B" width="41" height="40.3"/>
					</g>
				</g>
			</g>
		</g>
	</g>
</g>
<g>
	<path fill="none" stroke="#355D7F" stroke-width="5" stroke-miterlimit="10" stroke-dasharray="5,5,5,5" d="M491.5,307
		c0,64.2-48.4,118.2-110.5,118.2"/>
</g>
<g>
	<defs>
		<polygon id="SVGID_79_" points="379.4,419.9 380.2,420.7 376.6,424.4 376.6,425.6 380.2,429.2 379.4,430.1 374.4,425 		"/>
	</defs>
	<clipPath id="SVGID_80_">
		<use xlink:href="#SVGID_79_"  overflow="visible"/>
	</clipPath>
	<g clip-path="url(#SVGID_80_)">
		<defs>
			<rect id="SVGID_81_" x="1" width="556" height="504"/>
		</defs>
		<clipPath id="SVGID_82_">
			<use xlink:href="#SVGID_81_"  overflow="visible"/>
		</clipPath>
		<rect x="369.4" y="414.9" clip-path="url(#SVGID_82_)" fill="#355D7F" width="15.7" height="20.2"/>
	</g>
</g>
<g>
	<polygon fill="none" stroke="#355D7F" stroke-width="3" stroke-miterlimit="10" points="379.4,419.9 380.2,420.7 376.6,424.4 
		376.6,425.6 380.2,429.2 379.4,430.1 374.4,425 	"/>
	<path fill="none" stroke="#355D7F" stroke-width="5" stroke-miterlimit="10" stroke-dasharray="5,5,5,5" d="M81.5,165
		c0-62.1,50.4-112.4,112.5-112.4"/>
</g>
<g>
	<defs>
		<polygon id="SVGID_83_" points="197.6,57.7 196.8,56.9 200.4,53.4 200.4,52.3 196.8,48.7 197.6,47.9 202.6,52.8 		"/>
	</defs>
	<clipPath id="SVGID_84_">
		<use xlink:href="#SVGID_83_"  overflow="visible"/>
	</clipPath>
	<g clip-path="url(#SVGID_84_)">
		<defs>
			<rect id="SVGID_85_" x="1" width="556" height="504"/>
		</defs>
		<clipPath id="SVGID_86_">
			<use xlink:href="#SVGID_85_"  overflow="visible"/>
		</clipPath>
		<rect x="191.8" y="42.9" clip-path="url(#SVGID_86_)" fill="#355D7F" width="15.7" height="19.8"/>
	</g>
</g>
<g>
	<polygon fill="none" stroke="#355D7F" stroke-width="3" stroke-miterlimit="10" points="197.6,57.7 196.8,56.9 200.4,53.4 
		200.4,52.3 196.8,48.7 197.6,47.9 202.6,52.8 	"/>
	<path fill="none" stroke="#355D7F" stroke-width="5" stroke-miterlimit="10" stroke-dasharray="5,5,5,5" d="M372,48.5
		c62.1,0,117.4,47.7,117.4,107.8"/>
</g>
<g>
	<defs>
		<polygon id="SVGID_87_" points="484.3,163.8 485.1,163 488.6,166.5 489.7,166.5 493.3,163 494.1,163.8 489.2,168.6 		"/>
	</defs>
	<clipPath id="SVGID_88_">
		<use xlink:href="#SVGID_87_"  overflow="visible"/>
	</clipPath>
	<g clip-path="url(#SVGID_88_)">
		<defs>
			<rect id="SVGID_89_" x="1" width="556" height="504"/>
		</defs>
		<clipPath id="SVGID_90_">
			<use xlink:href="#SVGID_89_"  overflow="visible"/>
		</clipPath>
		<rect x="479.3" y="158" clip-path="url(#SVGID_90_)" fill="#355D7F" width="19.8" height="15.5"/>
	</g>
</g>
<g>
	<polygon fill="none" stroke="#355D7F" stroke-width="3" stroke-miterlimit="10" points="484.3,163.8 485.1,163 488.6,166.5 
		489.7,166.5 493.3,163 494.1,163.8 489.2,168.6 	"/>
	<path fill="none" stroke="#355D7F" stroke-width="5" stroke-miterlimit="10" stroke-dasharray="5,5,5,5" d="M199,425.5
		c-62.1,0-112.4-50.4-112.4-112.5"/>
</g>
<g>
	<defs>
		<polygon id="SVGID_91_" points="91.7,309.4 90.9,310.2 87.4,306.6 86.3,306.6 82.7,310.2 81.9,309.4 86.8,304.4 		"/>
	</defs>
	<clipPath id="SVGID_92_">
		<use xlink:href="#SVGID_91_"  overflow="visible"/>
	</clipPath>
	<g clip-path="url(#SVGID_92_)">
		<defs>
			<rect id="SVGID_93_" x="1" width="556" height="504"/>
		</defs>
		<clipPath id="SVGID_94_">
			<use xlink:href="#SVGID_93_"  overflow="visible"/>
		</clipPath>
		<rect x="76.9" y="299.4" clip-path="url(#SVGID_94_)" fill="#355D7F" width="19.8" height="15.7"/>
	</g>
</g>
<g>
	<polygon fill="none" stroke="#355D7F" stroke-width="3" stroke-miterlimit="10" points="91.7,309.4 90.9,310.2 87.4,306.6 
		86.3,306.6 82.7,310.2 81.9,309.4 86.8,304.4 	"/>
</g>
<g>
	<path d="M201.1,119.6c0.1-0.1,0.1-0.1,0.2-0.1s0.2,0,0.2,0.1c0.1,0.1,0.1,0.1,0.1,0.3v3.6h4.9c0.1,0,0.2,0,0.3,0.1
		c0.1,0.1,0.1,0.1,0.1,0.2s0,0.1-0.1,0.2s-0.1,0.1-0.2,0.1h-9.2c-0.1,0-0.2,0-0.2-0.1s-0.1-0.1-0.1-0.2s0-0.1,0.1-0.2
		c0.1-0.1,0.1-0.1,0.3-0.1h3.5v-3.6C201,119.7,201,119.6,201.1,119.6z M205.6,115.6c0.2,0.2,0.4,0.5,0.4,0.9v2.6
		c0,0.6-0.1,1.2-0.3,1.7c-0.2,0.6-0.4,1-0.6,1.3c-0.2,0.2-0.3,0.2-0.5,0c-0.2-0.1-0.2-0.3-0.1-0.5c0.2-0.3,0.4-0.6,0.5-1
		c0.2-0.5,0.2-1,0.2-1.6v-2.6c0-0.2-0.1-0.3-0.2-0.4c-0.1-0.1-0.3-0.2-0.5-0.2h-6.3c-0.2,0-0.3-0.1-0.3-0.3c0-0.2,0.1-0.3,0.3-0.3
		h6.4C205,115.4,205.4,115.4,205.6,115.6z"/>
	<path d="M213.2,115.6c0.2,0.2,0.3,0.4,0.3,0.8v0.6c0,1.1-0.4,1.9-1.1,2.6c-0.7,0.6-1.6,0.9-2.9,1c-0.1,0-0.2,0-0.3-0.1
		c-0.1-0.1-0.1-0.1-0.1-0.2c0-0.1,0-0.2,0.1-0.2c0.1-0.1,0.2-0.1,0.3-0.1c1.1,0,1.9-0.3,2.4-0.8c0.6-0.5,0.9-1.2,0.9-2.2v-0.6
		c0-0.1,0-0.3-0.1-0.3c-0.1-0.1-0.2-0.1-0.3-0.1h-2.6c-0.2,0-0.3-0.1-0.3-0.3c0-0.2,0.1-0.3,0.3-0.3h2.6
		C212.7,115.3,213,115.4,213.2,115.6z M217.8,121.9c0.2,0.2,0.3,0.4,0.3,0.7v1.9c0,0.1,0,0.2-0.1,0.3c-0.1,0.1-0.1,0.1-0.2,0.1
		c-0.1,0-0.2,0-0.2-0.1c-0.1-0.1-0.1-0.2-0.1-0.3v-1.9c0-0.1,0-0.2-0.1-0.3c-0.1-0.1-0.2-0.1-0.4-0.1h-6.7c-0.2,0-0.4-0.1-0.4-0.3
		s0.1-0.3,0.4-0.3h6.7C217.3,121.6,217.6,121.7,217.8,121.9z M217.7,115c0.2,0,0.3,0.1,0.3,0.3v4.6c0,0.1,0,0.2-0.1,0.3
		c-0.1,0.1-0.1,0.1-0.2,0.1c-0.1,0-0.2,0-0.2-0.1c-0.1-0.1-0.1-0.2-0.1-0.3v-1.4h-1.7v1.4c0,0.1,0,0.2-0.1,0.3
		c-0.1,0.1-0.1,0.1-0.2,0.1s-0.2,0-0.2-0.1c-0.1-0.1-0.1-0.2-0.1-0.3v-4.7c0-0.2,0.1-0.3,0.3-0.3c0.2,0,0.4,0.1,0.4,0.3v2.6h1.7
		v-2.6C217.4,115.2,217.5,115,217.7,115z"/>
	<path d="M230.6,120.8c0.5-0.1,0.9-0.2,1.3-0.2c0.1,0,0.2,0,0.3,0c0.1,0,0.1,0.1,0.1,0.2s0,0.2,0,0.2c0,0.1-0.1,0.1-0.2,0.1
		c-0.8,0.2-1.8,0.3-3,0.4c-1.1,0.1-2.4,0.1-3.7,0.1c-0.1,0-0.2,0-0.3-0.1c-0.1-0.1-0.1-0.1-0.1-0.2c0-0.1,0-0.1,0.1-0.2
		c0.1-0.1,0.1-0.1,0.3-0.1c0.6,0,1,0,1.5,0c0.8,0,1.3,0,1.7-0.1v-1.1h0.7v1C229.6,120.9,230.1,120.8,230.6,120.8z M231.6,116.6
		c0.1,0.1,0.1,0.1,0.1,0.2c0,0.1,0,0.1-0.1,0.2c-0.1,0.1-0.1,0.1-0.2,0.1h-5.4c-0.2,0-0.3-0.1-0.3-0.3s0.1-0.3,0.3-0.3h5.4
		C231.4,116.5,231.5,116.6,231.6,116.6z M230.7,118c0.4,0.2,0.6,0.5,0.6,0.8c0,0.3-0.2,0.6-0.6,0.8c-0.5,0.2-1.1,0.3-2,0.3
		c-0.9,0-1.6-0.1-2.1-0.3c-0.4-0.2-0.6-0.5-0.6-0.8c0-0.4,0.2-0.6,0.6-0.8c0.5-0.2,1.2-0.3,2.1-0.3
		C229.5,117.6,230.2,117.7,230.7,118z M226.9,123.4c0,0.2,0,0.4,0.1,0.4c0.1,0.1,0.2,0.1,0.4,0.1h6.1c0.2,0,0.3,0.1,0.3,0.3
		c0,0.2-0.1,0.3-0.3,0.3h-6.3c-0.3,0-0.6-0.1-0.8-0.3c-0.2-0.2-0.3-0.4-0.3-0.7v-1.3c0-0.1,0-0.2,0.1-0.3c0.1-0.1,0.1-0.1,0.2-0.1
		s0.2,0,0.2,0.1c0.1,0.1,0.1,0.1,0.1,0.3V123.4z M227.1,118.4c-0.3,0.1-0.5,0.2-0.5,0.4c0,0.2,0.2,0.3,0.5,0.4
		c0.3,0.1,0.8,0.2,1.6,0.2c0.7,0,1.2-0.1,1.5-0.2c0.3-0.1,0.5-0.2,0.5-0.4c0-0.2-0.2-0.3-0.5-0.4s-0.8-0.1-1.5-0.1
		C227.9,118.2,227.4,118.3,227.1,118.4z M230.4,115.7c0,0.2-0.1,0.3-0.3,0.3h-3c-0.2,0-0.3-0.1-0.3-0.3s0.1-0.3,0.3-0.3h3
		C230.3,115.4,230.4,115.5,230.4,115.7z M234.7,119c0.2,0,0.3,0.1,0.3,0.3s-0.1,0.3-0.3,0.3h-1.3v2.4c0,0.1,0,0.2-0.1,0.3
		c-0.1,0.1-0.1,0.1-0.2,0.1s-0.2,0-0.2-0.1c-0.1-0.1-0.1-0.2-0.1-0.3v-6.6c0-0.2,0.1-0.3,0.3-0.3c0.2,0,0.4,0.1,0.4,0.3v3.6H234.7z"
		/>
	<path d="M242.1,115.6c0.2,0.2,0.3,0.4,0.3,0.7v0.6c0,1-0.4,1.8-1.3,2.4c-0.9,0.6-2,1-3.6,1c-0.1,0-0.2,0-0.3-0.1s-0.1-0.1-0.1-0.2
		c0-0.1,0-0.2,0.1-0.2c0.1-0.1,0.2-0.1,0.3-0.1c1.4-0.1,2.4-0.3,3.1-0.8c0.7-0.5,1.1-1.2,1.1-2.1v-0.5c0-0.2-0.1-0.3-0.2-0.4
		c-0.1-0.1-0.2-0.1-0.4-0.1h-3.5c-0.2,0-0.3-0.1-0.3-0.3c0-0.2,0.1-0.3,0.3-0.3h3.6C241.7,115.3,241.9,115.4,242.1,115.6z
		 M244.9,121.6c0.6,0.3,0.9,0.8,0.9,1.3c0,0.5-0.3,1-0.9,1.3c-0.7,0.4-1.7,0.6-2.9,0.6c-1.3,0-2.3-0.2-2.9-0.6
		c-0.6-0.3-0.9-0.8-0.9-1.3c0-0.6,0.3-1,0.9-1.3c0.7-0.4,1.7-0.6,2.9-0.6S244.3,121.3,244.9,121.6z M239.6,122
		c-0.5,0.2-0.8,0.5-0.8,0.9c0,0.4,0.3,0.7,0.8,0.9c0.6,0.3,1.4,0.4,2.4,0.4c1,0,1.9-0.1,2.4-0.4c0.5-0.2,0.8-0.5,0.8-0.9
		c0-0.4-0.3-0.7-0.8-0.9c-0.6-0.3-1.4-0.4-2.4-0.4C240.9,121.7,240.1,121.8,239.6,122z M245.7,121c-0.1,0.1-0.1,0.1-0.2,0.1
		c-0.1,0-0.2,0-0.2-0.1c-0.1-0.1-0.1-0.1-0.1-0.2v-1.3h-2c-0.1,0-0.2,0-0.3-0.1c-0.1-0.1-0.1-0.1-0.1-0.2c0-0.1,0-0.2,0.1-0.2
		c0.1-0.1,0.2-0.1,0.3-0.1h2v-1.7h-2c-0.1,0-0.2,0-0.3-0.1c-0.1-0.1-0.1-0.1-0.1-0.2s0-0.1,0.1-0.2c0.1-0.1,0.2-0.1,0.3-0.1h2v-1.1
		c0-0.1,0-0.2,0.1-0.3c0.1-0.1,0.1-0.1,0.2-0.1c0.1,0,0.2,0,0.2,0.1c0.1,0.1,0.1,0.2,0.1,0.3v5.4C245.8,120.9,245.7,120.9,245.7,121
		z"/>
	<path d="M253.3,116.6c0.3,0.8,0.5,1.8,0.5,3c0,1.2-0.2,2.2-0.5,3c-0.4,0.9-0.9,1.3-1.7,1.3s-1.3-0.4-1.7-1.3
		c-0.3-0.8-0.5-1.8-0.5-3c0-1.2,0.2-2.2,0.5-3c0.4-0.9,0.9-1.3,1.7-1.3S252.9,115.8,253.3,116.6z M250.5,117
		c-0.2,0.7-0.3,1.5-0.3,2.6c0,1.1,0.1,1.9,0.3,2.6c0.3,0.8,0.6,1.1,1.1,1.1c0.5,0,0.9-0.4,1.1-1.1c0.2-0.7,0.3-1.5,0.3-2.6
		c0-1.1-0.1-1.9-0.3-2.6c-0.3-0.7-0.6-1.1-1.1-1.1C251.1,115.9,250.8,116.3,250.5,117z M255.3,115.1c0.1-0.1,0.1-0.1,0.2-0.1
		c0.1,0,0.2,0,0.2,0.1c0.1,0.1,0.1,0.1,0.1,0.2v9.1c0,0.1,0,0.2-0.1,0.3c-0.1,0.1-0.1,0.1-0.2,0.1c-0.1,0-0.2,0-0.2-0.1
		c-0.1-0.1-0.1-0.2-0.1-0.3v-4.8h-1.6c-0.1,0-0.2,0-0.3-0.1c-0.1-0.1-0.1-0.1-0.1-0.2c0-0.1,0-0.2,0.1-0.2c0.1-0.1,0.1-0.1,0.3-0.1
		h1.6v-3.7C255.2,115.3,255.2,115.2,255.3,115.1z M258,124.7c-0.1,0.1-0.1,0.1-0.2,0.1c-0.1,0-0.2,0-0.2-0.1
		c-0.1-0.1-0.1-0.2-0.1-0.3v-9.1c0-0.1,0-0.2,0.1-0.2c0.1-0.1,0.1-0.1,0.2-0.1c0.1,0,0.2,0,0.2,0.1c0.1,0.1,0.1,0.1,0.1,0.2v9.1
		C258.1,124.6,258,124.7,258,124.7z"/>
	<path d="M264.2,115.4c0.1-0.1,0.1-0.1,0.2-0.1s0.2,0,0.2,0.1c0.1,0.1,0.1,0.1,0.1,0.3c0,0.4,0,1-0.1,1.5c-0.1,0.6-0.2,1.1-0.4,1.7
		c0.6,0.8,1.2,1.5,1.7,2.2c0.5,0.8,1,1.5,1.4,2.2c0.1,0.1,0.1,0.2,0,0.3c0,0.1-0.1,0.2-0.2,0.2c-0.1,0-0.2,0-0.3,0
		c-0.1,0-0.2-0.1-0.2-0.2c-0.3-0.6-0.7-1.3-1.2-2c-0.5-0.8-1-1.5-1.5-2c-0.2,0.6-0.5,1.3-0.8,1.9c-0.4,0.8-0.9,1.5-1.4,2.3
		c-0.1,0.1-0.2,0.1-0.2,0.1c-0.1,0-0.2,0-0.2-0.1s-0.1-0.1-0.1-0.2c0-0.1,0-0.2,0.1-0.3c0.8-1,1.5-2.3,2-3.7c0.5-1.4,0.7-2.7,0.7-4
		C264.1,115.5,264.1,115.4,264.2,115.4z M269.7,124.7c-0.1,0.1-0.1,0.1-0.2,0.1c-0.1,0-0.2,0-0.2-0.1c-0.1-0.1-0.1-0.2-0.1-0.3v-4.7
		H266c-0.1,0-0.2,0-0.3-0.1c-0.1-0.1-0.1-0.1-0.1-0.2c0-0.1,0-0.2,0.1-0.2c0.1-0.1,0.2-0.1,0.3-0.1h3.1v-3.8c0-0.1,0-0.2,0.1-0.3
		c0.1-0.1,0.1-0.1,0.2-0.1c0.1,0,0.2,0,0.2,0.1c0.1,0.1,0.1,0.2,0.1,0.3v9.1C269.8,124.6,269.7,124.7,269.7,124.7z"/>
	<path d="M282.2,116.2c0.4,0.5,0.7,1.2,0.7,1.9s-0.2,1.4-0.7,1.9c-0.5,0.6-1.2,0.9-2,0.9c-0.9,0-1.5-0.3-2-0.9
		c-0.4-0.5-0.7-1.2-0.7-1.9c0-0.8,0.2-1.4,0.7-1.9c0.5-0.6,1.2-0.9,2-0.9C281,115.3,281.7,115.6,282.2,116.2z M278.7,116.6
		c-0.3,0.4-0.5,0.9-0.5,1.5s0.2,1.1,0.5,1.5c0.4,0.5,0.9,0.7,1.5,0.7c0.6,0,1.1-0.2,1.5-0.7c0.3-0.4,0.5-0.9,0.5-1.5
		s-0.2-1.1-0.5-1.5c-0.4-0.5-0.9-0.7-1.5-0.7C279.5,115.9,279,116.2,278.7,116.6z M278.9,123.4c0,0.2,0,0.4,0.1,0.4
		c0.1,0.1,0.2,0.1,0.5,0.1h6.3c0.2,0,0.3,0.1,0.3,0.3c0,0.2-0.1,0.3-0.3,0.3h-6.4c-0.4,0-0.6-0.1-0.8-0.3c-0.2-0.2-0.3-0.4-0.3-0.8
		V122c0-0.1,0-0.2,0.1-0.3c0.1-0.1,0.1-0.1,0.2-0.1c0.1,0,0.2,0,0.2,0.1c0.1,0.1,0.1,0.2,0.1,0.3V123.4z M285.7,122.1
		c-0.1,0.1-0.1,0.1-0.2,0.1c-0.1,0-0.2,0-0.2-0.1c-0.1-0.1-0.1-0.2-0.1-0.3v-6.4c0-0.1,0-0.2,0.1-0.2c0.1-0.1,0.1-0.1,0.2-0.1
		c0.1,0,0.2,0,0.2,0.1c0.1,0.1,0.1,0.1,0.1,0.2v6.5C285.8,121.9,285.7,122,285.7,122.1z"/>
	<path d="M292.1,115.4c0.1-0.1,0.1-0.1,0.2-0.1s0.2,0,0.2,0.1c0.1,0.1,0.1,0.1,0.1,0.3c0,0.4,0,0.8-0.1,1.3
		c-0.1,0.5-0.1,0.9-0.2,1.3c0.6,0.8,1.2,1.6,1.7,2.6c0.5,0.9,0.9,1.7,1.2,2.5c0,0.1,0.1,0.2,0,0.3c0,0.1-0.1,0.1-0.2,0.2
		c-0.1,0-0.2,0-0.2,0s-0.2-0.1-0.2-0.2c-0.3-0.8-0.7-1.6-1.1-2.4c-0.5-1-1-1.8-1.4-2.3c-0.3,1-0.6,1.8-1,2.6
		c-0.4,0.8-0.9,1.6-1.5,2.3c-0.1,0.1-0.2,0.1-0.2,0.1c-0.1,0-0.2,0-0.2-0.1c-0.1-0.1-0.1-0.1-0.1-0.2c0-0.1,0-0.2,0.1-0.3
		c0.9-1,1.6-2.3,2.1-3.8c0.4-1.3,0.6-2.6,0.6-3.9C292,115.5,292.1,115.4,292.1,115.4z M297.7,124.7c-0.1,0.1-0.1,0.1-0.2,0.1
		c-0.1,0-0.2,0-0.2-0.1c-0.1-0.1-0.1-0.2-0.1-0.3v-9.1c0-0.1,0-0.2,0.1-0.2c0.1,0,0.1-0.1,0.2-0.1c0.1,0,0.2,0,0.2,0.1
		c0.1,0.1,0.1,0.1,0.1,0.2v9.1C297.8,124.6,297.7,124.7,297.7,124.7z"/>
	<path d="M306.3,115.7c0,0.2-0.1,0.3-0.3,0.3h-3.2c-0.2,0-0.3,0-0.4,0.1s-0.1,0.2-0.1,0.4v3.2c0,0.2,0,0.4,0.1,0.5
		c0.1,0.1,0.3,0.2,0.5,0.2c0.6,0,1.2-0.1,1.9-0.2c0.8-0.1,1.4-0.3,1.9-0.5c0.1,0,0.2-0.1,0.3,0c0.1,0,0.1,0.1,0.2,0.2
		c0,0.1,0,0.2,0,0.2c0,0.1-0.1,0.1-0.2,0.2c-0.7,0.3-1.4,0.4-2.1,0.5c-0.6,0.1-1.2,0.1-1.8,0.1c-0.4,0-0.8-0.1-1-0.4
		c-0.2-0.2-0.3-0.5-0.3-0.9v-3.3c0-0.3,0.1-0.6,0.3-0.8c0.2-0.2,0.5-0.3,0.9-0.3h3.2C306.2,115.4,306.3,115.5,306.3,115.7z
		 M302.9,123.4c0,0.2,0,0.4,0.1,0.4c0.1,0.1,0.2,0.1,0.5,0.1h6.3c0.2,0,0.3,0.1,0.3,0.3c0,0.2-0.1,0.3-0.3,0.3h-6.4
		c-0.4,0-0.6-0.1-0.8-0.3c-0.2-0.2-0.3-0.4-0.3-0.8V122c0-0.1,0-0.2,0.1-0.3c0.1-0.1,0.1-0.1,0.2-0.1c0.1,0,0.2,0,0.2,0.1
		c0.1,0.1,0.1,0.2,0.1,0.3V123.4z M309.7,122.1c-0.1,0.1-0.1,0.1-0.2,0.1c-0.1,0-0.2,0-0.2-0.1c-0.1-0.1-0.1-0.2-0.1-0.3v-3.7h-3
		c-0.1,0-0.2,0-0.3-0.1c-0.1-0.1-0.1-0.1-0.1-0.2c0-0.1,0-0.2,0.1-0.2c0.1-0.1,0.2-0.1,0.3-0.1h3v-2.1c0-0.1,0-0.2,0.1-0.2
		c0.1-0.1,0.1-0.1,0.2-0.1c0.1,0,0.2,0,0.2,0.1c0.1,0.1,0.1,0.1,0.1,0.2v6.5C309.8,121.9,309.7,122,309.7,122.1z"/>
	<path d="M322.8,123.5c0.1,0.1,0.1,0.1,0.1,0.2c0,0.1,0,0.1-0.1,0.2s-0.1,0.1-0.2,0.1h-9.3c-0.1,0-0.2,0-0.2-0.1s-0.1-0.1-0.1-0.2
		s0-0.1,0.1-0.2c0.1-0.1,0.1-0.1,0.3-0.1h9.1C322.6,123.4,322.7,123.5,322.8,123.5z M322,115.4c0.1,0.1,0.1,0.1,0.1,0.2
		c0,0.1,0,0.1-0.1,0.2c-0.1,0.1-0.1,0.1-0.2,0.1h-6.5c-0.2,0-0.4,0-0.4,0.1c-0.1,0.1-0.1,0.2-0.1,0.4v1.3h6.9c0.2,0,0.3,0.1,0.3,0.3
		c0,0.2-0.1,0.3-0.3,0.3h-6.9v1.5c0,0.2,0,0.3,0.1,0.4c0.1,0.1,0.2,0.1,0.4,0.1h6.5c0.1,0,0.2,0,0.2,0.1c0.1,0.1,0.1,0.1,0.1,0.2
		c0,0.1,0,0.1-0.1,0.2s-0.1,0.1-0.2,0.1h-6.6c-0.4,0-0.6-0.1-0.8-0.3s-0.3-0.4-0.3-0.7v-3.6c0-0.3,0.1-0.6,0.3-0.8
		c0.2-0.2,0.5-0.3,0.9-0.3h6.6C321.8,115.4,321.9,115.4,322,115.4z"/>
	<path d="M330.1,115.7c0.2,0.2,0.3,0.5,0.3,0.8v1.4c0,1.8-0.5,3.2-1.4,4.3c-0.9,1-2,1.5-3.5,1.6c-0.2,0-0.3-0.1-0.4-0.3
		c0-0.2,0.1-0.3,0.3-0.3c1.3-0.1,2.4-0.6,3.1-1.5c0.8-0.9,1.2-2.2,1.2-3.8v-1.4c0-0.2,0-0.3-0.1-0.4c-0.1-0.1-0.2-0.1-0.4-0.1h-3.5
		c-0.2,0-0.3-0.1-0.3-0.3c0-0.2,0.1-0.3,0.3-0.3h3.5C329.6,115.4,329.9,115.5,330.1,115.7z M334.7,119.7c0.2,0,0.3,0.1,0.3,0.3
		c0,0.2-0.1,0.3-0.3,0.3h-1.3v4.3c0,0.1,0,0.2-0.1,0.2c-0.1,0.1-0.1,0.1-0.2,0.1s-0.2,0-0.2-0.1c-0.1-0.1-0.1-0.1-0.1-0.2v-9.1
		c0-0.1,0-0.2,0.1-0.2c0.1,0,0.1-0.1,0.2-0.1s0.2,0,0.2,0.1c0.1,0.1,0.1,0.1,0.1,0.2v4.3H334.7z"/>
	<path d="M346,115.3c0.1-0.1,0.1-0.1,0.2-0.1s0.2,0,0.2,0.1c0.1,0.1,0.1,0.1,0.1,0.2v3.2c0,0.3-0.1,0.5-0.3,0.7
		c-0.2,0.2-0.4,0.3-0.7,0.3h-2.9c-0.3,0-0.5-0.1-0.7-0.2c-0.2-0.2-0.3-0.4-0.3-0.7v-3.2c0-0.1,0-0.2,0.1-0.3
		c0.1-0.1,0.1-0.1,0.2-0.1s0.2,0,0.2,0.1c0.1,0.1,0.1,0.2,0.1,0.3v1h3.6v-1C345.9,115.5,345.9,115.4,346,115.3z M349.1,121
		c0.2,0.2,0.3,0.4,0.3,0.7v0.5c0,0.3-0.1,0.4-0.2,0.6c-0.2,0.2-0.4,0.2-0.7,0.2h-5.2c-0.1,0-0.3,0-0.3,0.1c-0.1,0.1-0.1,0.2-0.1,0.3
		v0.4c0,0.1,0,0.2,0.1,0.2s0.2,0.1,0.3,0.1h6.1c0.1,0,0.2,0,0.3,0.1c0.1,0.1,0.1,0.1,0.1,0.2s0,0.1-0.1,0.2
		c-0.1,0.1-0.1,0.1-0.2,0.1h-6.3c-0.3,0-0.5-0.1-0.6-0.2c-0.2-0.1-0.2-0.3-0.2-0.6v-0.6c0-0.3,0.1-0.5,0.2-0.7
		c0.2-0.2,0.4-0.3,0.8-0.3h5.1c0.1,0,0.3,0,0.3-0.1c0.1,0,0.1-0.1,0.1-0.2v-0.3c0-0.1,0-0.2-0.1-0.3s-0.2-0.1-0.4-0.1h-5.8
		c-0.2,0-0.4-0.1-0.4-0.3c0-0.2,0.1-0.3,0.4-0.3h5.9C348.7,120.8,348.9,120.9,349.1,121z M342.3,117.2v1.5c0,0.2,0,0.3,0.1,0.4
		c0.1,0.1,0.2,0.1,0.4,0.1h2.6c0.2,0,0.3,0,0.4-0.1c0.1-0.1,0.1-0.2,0.1-0.4v-1.5H342.3z M350.7,117.6c0.2,0,0.3,0.1,0.3,0.3
		c0,0.2-0.1,0.3-0.3,0.3h-1.3v1.6c0,0.1,0,0.2-0.1,0.2c-0.1,0.1-0.1,0.1-0.2,0.1s-0.2,0-0.2-0.1c-0.1-0.1-0.1-0.1-0.1-0.2v-4.4
		c0-0.2,0.1-0.3,0.3-0.3c0.2,0,0.4,0.1,0.4,0.3v2.2H350.7z"/>
	<path d="M358.1,115.7c0.2,0.2,0.3,0.4,0.3,0.8v0.6c0,1-0.4,1.9-1.3,2.7c-0.9,0.8-2.1,1.2-3.5,1.3c-0.1,0-0.2,0-0.3-0.1
		c-0.1-0.1-0.1-0.1-0.1-0.2c0-0.1,0-0.1,0.1-0.2c0.1-0.1,0.2-0.1,0.3-0.1c1.3-0.1,2.4-0.5,3.1-1.1c0.7-0.6,1.1-1.4,1.1-2.3v-0.6
		c0-0.2,0-0.3-0.1-0.4c-0.1-0.1-0.2-0.1-0.4-0.1h-3.5c-0.2,0-0.3-0.1-0.3-0.3c0-0.2,0.1-0.3,0.3-0.3h3.5
		C357.6,115.4,357.9,115.5,358.1,115.7z M354.9,123.4c0,0.2,0,0.4,0.1,0.4c0.1,0.1,0.2,0.1,0.5,0.1h6.3c0.2,0,0.3,0.1,0.3,0.3
		c0,0.2-0.1,0.3-0.3,0.3h-6.4c-0.4,0-0.6-0.1-0.8-0.3c-0.2-0.2-0.3-0.4-0.3-0.8V122c0-0.1,0-0.2,0.1-0.3c0.1-0.1,0.1-0.1,0.2-0.1
		c0.1,0,0.2,0,0.2,0.1c0.1,0.1,0.1,0.2,0.1,0.3V123.4z M361.7,122.1c-0.1,0.1-0.1,0.1-0.2,0.1c-0.1,0-0.2,0-0.2-0.1
		c-0.1-0.1-0.1-0.2-0.1-0.3v-1.9H359c-0.1,0-0.2,0-0.3-0.1c-0.1-0.1-0.1-0.1-0.1-0.2s0-0.1,0.1-0.2c0.1-0.1,0.2-0.1,0.3-0.1h2.1
		v-2.1h-1.9c-0.1,0-0.2,0-0.3-0.1c-0.1-0.1-0.1-0.1-0.1-0.2c0-0.1,0-0.2,0.1-0.2c0.1-0.1,0.1-0.1,0.3-0.1h2v-1.2
		c0-0.1,0-0.2,0.1-0.3c0.1-0.1,0.1-0.1,0.2-0.1c0.1,0,0.2,0,0.2,0.1c0.1,0.1,0.1,0.2,0.1,0.3v6.4C361.8,121.9,361.7,122,361.7,122.1
		z"/>
	<path d="M369,119.8c0.5,0,1.1-0.1,1.7-0.1c0.6-0.1,1.1-0.1,1.6-0.2c0.1,0,0.2,0,0.3,0s0.1,0.1,0.2,0.2s0,0.1,0,0.2
		c0,0.1-0.1,0.1-0.2,0.1c-0.8,0.1-1.8,0.3-3,0.3c-1.1,0.1-2.4,0.1-4.1,0.1c-0.3,0-0.4-0.1-0.4-0.3c0-0.2,0.1-0.3,0.4-0.3h0.4
		c0.5,0,0.9,0,1.3,0c0.5,0,1,0,1.3,0v-1.1c0-0.2,0.1-0.3,0.4-0.3s0.4,0.1,0.4,0.3V119.8z M371.7,117.9c0.1,0.1,0.1,0.1,0.1,0.2
		c0,0.1,0,0.1-0.1,0.2c-0.1,0.1-0.1,0.1-0.2,0.1h-4.8c-0.3,0-0.5-0.1-0.7-0.3c-0.2-0.2-0.3-0.4-0.3-0.6v-1.1c0-0.3,0.1-0.5,0.3-0.7
		c0.2-0.2,0.5-0.3,0.8-0.3h4.6c0.1,0,0.2,0,0.3,0.1c0.1,0.1,0.1,0.1,0.1,0.2s0,0.1-0.1,0.2c-0.1,0.1-0.1,0.1-0.2,0.1h-4.5
		c-0.2,0-0.3,0-0.4,0.1s-0.1,0.2-0.1,0.4v0.9c0,0.2,0,0.3,0.1,0.4c0.1,0.1,0.2,0.1,0.4,0.1h4.5C371.5,117.8,371.6,117.8,371.7,117.9
		z M373.5,121.6c0.2,0.1,0.3,0.4,0.3,0.6v1.5c0,0.3-0.1,0.5-0.3,0.7c-0.2,0.1-0.4,0.2-0.7,0.2h-5.6c-0.4,0-0.7-0.1-0.8-0.3
		c-0.2-0.2-0.2-0.4-0.2-0.7v-1.4c0-0.3,0.1-0.5,0.2-0.6c0.2-0.2,0.4-0.2,0.7-0.2h5.7C373,121.4,373.3,121.4,373.5,121.6z
		 M372.9,122.1c-0.1-0.1-0.2-0.1-0.4-0.1h-5.4c-0.2,0-0.3,0-0.4,0.1c-0.1,0.1-0.1,0.2-0.1,0.3v1.1c0,0.2,0,0.3,0.1,0.3
		s0.2,0.1,0.4,0.1h5.3c0.2,0,0.3,0,0.4-0.1c0.1-0.1,0.1-0.2,0.1-0.3v-1.2C373.1,122.2,373,122.1,372.9,122.1z M373.7,120.5
		c-0.1,0.1-0.1,0.1-0.2,0.1c-0.1,0-0.2,0-0.2-0.1c-0.1-0.1-0.1-0.2-0.1-0.3v-4.9c0-0.1,0-0.2,0.1-0.2c0.1-0.1,0.1-0.1,0.2-0.1
		c0.1,0,0.2,0,0.2,0.1c0.1,0.1,0.1,0.1,0.1,0.2v4.9C373.8,120.4,373.7,120.4,373.7,120.5z"/>
</g>
<g>
	<path d="M17.9,266c0.5-0.1,1.2-0.2,1.9-0.2c1,0,1.7,0.2,2.2,0.6c0.4,0.3,0.7,0.8,0.7,1.4c0,0.8-0.5,1.5-1.4,1.8v0
		c0.8,0.2,1.7,0.8,1.7,2c0,0.7-0.3,1.2-0.7,1.6c-0.6,0.5-1.5,0.8-2.8,0.8c-0.7,0-1.3,0-1.6-0.1V266z M18.9,269.3h0.9
		c1.1,0,1.8-0.6,1.8-1.4c0-0.9-0.7-1.3-1.8-1.3c-0.5,0-0.8,0-0.9,0.1V269.3z M18.9,273.2c0.2,0,0.5,0,0.9,0c1.1,0,2.1-0.4,2.1-1.6
		c0-1.1-0.9-1.6-2.1-1.6h-0.9V273.2z"/>
	<path d="M24.3,265.5h1.1v8.5h-1.1V265.5z"/>
	<path d="M32,272.4c0,0.6,0,1.1,0,1.6h-0.9l-0.1-0.9h0c-0.3,0.5-0.9,1.1-1.9,1.1c-0.9,0-2-0.5-2-2.5v-3.4h1.1v3.2
		c0,1.1,0.3,1.8,1.3,1.8c0.7,0,1.2-0.5,1.4-1c0.1-0.2,0.1-0.3,0.1-0.5v-3.6H32V272.4z"/>
	<path d="M34.4,271.3c0,1.4,0.9,2,2,2c0.8,0,1.2-0.1,1.6-0.3l0.2,0.8c-0.4,0.2-1,0.4-1.9,0.4c-1.8,0-2.9-1.2-2.9-2.9s1-3.1,2.7-3.1
		c1.9,0,2.4,1.7,2.4,2.7c0,0.2,0,0.4,0,0.5H34.4z M37.5,270.5c0-0.7-0.3-1.7-1.5-1.7c-1.1,0-1.5,1-1.6,1.7H37.5z"/>
	<path d="M39.8,269.8c0-0.6,0-1.1,0-1.6h0.9l0,0.9h0c0.3-0.6,0.9-1.1,1.8-1.1c0.8,0,1.4,0.5,1.6,1.2h0c0.2-0.3,0.4-0.6,0.6-0.8
		c0.3-0.3,0.7-0.4,1.3-0.4c0.8,0,1.9,0.5,1.9,2.5v3.4h-1v-3.3c0-1.1-0.4-1.8-1.3-1.8c-0.6,0-1.1,0.4-1.2,1c0,0.1-0.1,0.3-0.1,0.5
		v3.6h-1v-3.5c0-0.9-0.4-1.6-1.2-1.6c-0.7,0-1.1,0.5-1.3,1.1c-0.1,0.2-0.1,0.3-0.1,0.5v3.5h-1V269.8z"/>
	<path d="M51,266.6c0,0.4-0.3,0.6-0.7,0.6c-0.4,0-0.6-0.3-0.6-0.6c0-0.4,0.3-0.7,0.7-0.7C50.7,265.9,51,266.2,51,266.6z M49.8,274
		v-5.8h1.1v5.8H49.8z"/>
	<path d="M53.1,268.2l0.8,1.2c0.2,0.3,0.4,0.6,0.6,0.9h0c0.2-0.3,0.4-0.6,0.6-1l0.8-1.2h1.1l-2,2.8l2,3h-1.2l-0.9-1.3
		c-0.2-0.3-0.4-0.7-0.6-1h0c-0.2,0.3-0.4,0.7-0.6,1L53,274h-1.2l2.1-3l-2-2.8H53.1z"/>
	<path d="M63.4,265.5c0.2,0.2,0.3,0.5,0.3,0.8v1.4c0,1.8-0.5,3.2-1.4,4.3c-0.9,1-2,1.5-3.5,1.6c-0.2,0-0.3-0.1-0.4-0.3
		c0-0.2,0.1-0.3,0.3-0.3c1.3-0.1,2.4-0.6,3.1-1.5c0.8-0.9,1.2-2.2,1.2-3.8v-1.4c0-0.2,0-0.3-0.1-0.4c-0.1-0.1-0.2-0.1-0.4-0.1H59
		c-0.2,0-0.3-0.1-0.3-0.3c0-0.2,0.1-0.3,0.3-0.3h3.5C62.9,265.2,63.2,265.3,63.4,265.5z M68,269.4c0.2,0,0.3,0.1,0.3,0.3
		c0,0.2-0.1,0.3-0.3,0.3h-1.3v4.3c0,0.1,0,0.2-0.1,0.2c-0.1,0.1-0.1,0.1-0.2,0.1s-0.2,0-0.2-0.1c-0.1-0.1-0.1-0.1-0.1-0.2v-9.1
		c0-0.1,0-0.2,0.1-0.2c0.1,0,0.1-0.1,0.2-0.1s0.2,0,0.2,0.1c0.1,0.1,0.1,0.1,0.1,0.2v4.3H68z"/>
	<path d="M75.8,265.1c0.1-0.1,0.1-0.1,0.2-0.1s0.2,0,0.2,0.1c0.1,0.1,0.1,0.2,0.1,0.3c0,0.3,0,0.5-0.1,0.8c0,0.2-0.1,0.4-0.2,0.7
		c0.7,0.5,1.3,0.9,1.7,1.4c0.4,0.4,0.8,0.9,1.3,1.4c0.1,0.1,0.1,0.2,0.1,0.3c0,0.1-0.1,0.2-0.1,0.2c-0.1,0.1-0.2,0.1-0.2,0.1
		c-0.1,0-0.2-0.1-0.3-0.2c-0.4-0.5-0.8-1-1.2-1.4c-0.4-0.4-0.9-0.8-1.4-1.2c-0.3,0.6-0.6,1.2-0.9,1.6c-0.4,0.5-0.9,0.9-1.5,1.4
		c-0.1,0.1-0.2,0.1-0.3,0.1c-0.1,0-0.2-0.1-0.2-0.1c-0.1-0.1-0.1-0.2-0.1-0.2s0.1-0.2,0.2-0.2c0.8-0.6,1.5-1.3,2-2.3
		c0.4-0.8,0.6-1.5,0.6-2.2C75.7,265.2,75.8,265.1,75.8,265.1z M80.5,271.6c0.6,0.3,0.9,0.7,0.9,1.3c0,0.5-0.3,0.9-0.9,1.2
		c-0.7,0.4-1.6,0.5-2.9,0.5c-1.3,0-2.2-0.2-2.9-0.5c-0.6-0.3-0.9-0.7-0.9-1.2c0-0.5,0.3-1,0.9-1.3c0.7-0.4,1.6-0.5,2.9-0.5
		C78.9,271,79.9,271.2,80.5,271.6z M75.3,272c-0.5,0.2-0.7,0.5-0.7,0.9c0,0.4,0.2,0.6,0.7,0.8c0.5,0.2,1.3,0.3,2.4,0.3
		c1,0,1.8-0.1,2.4-0.3c0.5-0.2,0.8-0.5,0.8-0.8c0-0.4-0.3-0.7-0.8-0.9c-0.5-0.2-1.3-0.3-2.4-0.3C76.6,271.7,75.8,271.8,75.3,272z
		 M82.5,267.6c0.1,0,0.2,0,0.2,0.1c0.1,0.1,0.1,0.1,0.1,0.2c0,0.1,0,0.1-0.1,0.2c-0.1,0.1-0.1,0.1-0.2,0.1h-1.3v2.3
		c0,0.1,0,0.2-0.1,0.3c-0.1,0.1-0.1,0.1-0.2,0.1s-0.2,0-0.2-0.1c-0.1-0.1-0.1-0.2-0.1-0.3v-5.4c0-0.2,0.1-0.3,0.3-0.3
		c0.2,0,0.4,0.1,0.4,0.3v2.5H82.5z"/>
	<path d="M89.7,265.2c0.1,0.1,0.1,0.1,0.1,0.2s0,0.1-0.1,0.2c-0.1,0.1-0.2,0.1-0.3,0.1h-2.8c-0.2,0-0.3,0-0.4,0.1
		c-0.1,0.1-0.1,0.2-0.1,0.4v2.4h3c0.1,0,0.2,0,0.3,0.1c0.1,0.1,0.1,0.1,0.1,0.2s0,0.1-0.1,0.2c-0.1,0.1-0.2,0.1-0.3,0.1h-3v3.2
		c0,0.2,0,0.4,0.1,0.5c0.1,0.1,0.2,0.2,0.4,0.2c0.6,0,1.3,0,1.8-0.1c0.6-0.1,1.1-0.2,1.6-0.4c0.1,0,0.2-0.1,0.3,0
		c0.1,0,0.1,0.1,0.2,0.2c0,0.1,0,0.1,0,0.2c0,0.1-0.1,0.2-0.2,0.2c-0.5,0.2-1,0.4-1.6,0.5c-0.6,0.1-1.3,0.1-2.1,0.1
		c-0.4,0-0.6-0.1-0.8-0.3c-0.2-0.2-0.3-0.5-0.3-0.8v-6.3c0-0.4,0.1-0.6,0.3-0.8c0.2-0.2,0.5-0.3,0.9-0.3h2.8
		C89.6,265.2,89.7,265.2,89.7,265.2z M93.6,264.8c0.2,0,0.3,0.1,0.3,0.3v9.2c0,0.1,0,0.2-0.1,0.2c-0.1,0.1-0.1,0.1-0.2,0.1
		c-0.1,0-0.2,0-0.2-0.1c-0.1-0.1-0.1-0.1-0.1-0.2V270h-1.7v4.2c0,0.1,0,0.2-0.1,0.3c-0.1,0.1-0.1,0.1-0.2,0.1s-0.2,0-0.2-0.1
		c-0.1-0.1-0.1-0.2-0.1-0.3v-9.1c0-0.2,0.1-0.3,0.3-0.3c0.2,0,0.4,0.1,0.4,0.3v4.3h1.7v-4.3C93.2,264.9,93.3,264.8,93.6,264.8z"/>
	<path d="M100.5,266.5c0.1-0.1,0.1-0.1,0.2-0.1c0.1,0,0.2,0,0.2,0.1c0.1,0.1,0.1,0.1,0.1,0.2c0,0.9,0,2,0.1,3.1
		c0.1,1.3,0.1,2.4,0.2,3.2c0.1,0,0.3,0,0.5,0c0.1,0,0.3,0,0.6-0.1c0.1-0.8,0.2-1.8,0.2-3c0.1-1.1,0.1-2.1,0.1-3.2
		c0-0.2,0.1-0.3,0.4-0.3s0.4,0.1,0.4,0.3c0,1,0,2-0.1,3.2c-0.1,1.2-0.1,2.1-0.2,2.9c0.3-0.1,0.5-0.1,0.7-0.2c0.2,0,0.4-0.1,0.6-0.2
		c0.1,0,0.2,0,0.3,0c0.1,0,0.1,0.1,0.1,0.2s0,0.2,0,0.2c0,0.1-0.1,0.1-0.2,0.2c-0.6,0.2-1.3,0.4-2.2,0.5c-0.8,0.1-1.7,0.2-2.6,0.2
		c-0.2,0-0.3-0.1-0.4-0.3c0-0.2,0.1-0.3,0.4-0.3c0.2,0,0.3,0,0.4,0c0.2,0,0.4,0,0.6,0c-0.1-0.8-0.2-1.9-0.2-3.1
		c-0.1-1.2-0.1-2.3-0.1-3.2C100.4,266.6,100.5,266.5,100.5,266.5z M104.5,265.4c0,0.2-0.1,0.3-0.3,0.3h-4.1c-0.2,0-0.3-0.1-0.3-0.3
		c0-0.2,0.1-0.3,0.3-0.3h4.1C104.4,265.2,104.5,265.3,104.5,265.4z M105.7,264.9c0.1-0.1,0.1-0.1,0.2-0.1c0.1,0,0.2,0,0.2,0.1
		c0.1,0.1,0.1,0.1,0.1,0.2v9.1c0,0.1,0,0.2-0.1,0.3c-0.1,0.1-0.1,0.1-0.2,0.1c-0.1,0-0.2,0-0.2-0.1c-0.1-0.1-0.1-0.2-0.1-0.3v-4.8
		H104c-0.1,0-0.2,0-0.3-0.1c-0.1-0.1-0.1-0.1-0.1-0.2c0-0.1,0-0.2,0.1-0.2c0.1-0.1,0.1-0.1,0.3-0.1h1.6v-3.7
		C105.5,265,105.6,264.9,105.7,264.9z M108.3,274.5c-0.1,0.1-0.1,0.1-0.2,0.1c-0.1,0-0.2,0-0.2-0.1c-0.1-0.1-0.1-0.2-0.1-0.3v-9.1
		c0-0.1,0-0.2,0.1-0.2c0.1-0.1,0.1-0.1,0.2-0.1c0.1,0,0.2,0,0.2,0.1c0.1,0.1,0.1,0.1,0.1,0.2v9.1
		C108.5,274.3,108.4,274.4,108.3,274.5z"/>
	<path d="M116.6,266.4c0.4,0.8,0.7,1.8,0.7,3c0,1.2-0.2,2.2-0.7,3c-0.5,0.9-1.1,1.3-2,1.3c-0.9,0-1.5-0.4-2-1.3
		c-0.4-0.8-0.7-1.8-0.7-3c0-1.2,0.2-2.2,0.7-3c0.5-0.9,1.2-1.3,2-1.3C115.4,265.1,116.1,265.5,116.6,266.4z M113.1,266.8
		c-0.3,0.7-0.5,1.5-0.5,2.6c0,1,0.2,1.9,0.5,2.6c0.4,0.8,0.9,1.1,1.5,1.1c0.6,0,1.1-0.4,1.5-1.1c0.3-0.7,0.5-1.5,0.5-2.6
		c0-1-0.2-1.9-0.5-2.6c-0.4-0.7-0.9-1.1-1.5-1.1C113.9,265.7,113.4,266.1,113.1,266.8z M120,274.5c-0.1,0.1-0.1,0.1-0.2,0.1
		c-0.1,0-0.2,0-0.2-0.1c-0.1-0.1-0.1-0.2-0.1-0.3v-9.1c0-0.1,0-0.2,0.1-0.2c0.1,0,0.1-0.1,0.2-0.1c0.1,0,0.2,0,0.2,0.1
		c0.1,0.1,0.1,0.1,0.1,0.2v9.1C120.2,274.3,120.1,274.4,120,274.5z"/>
	<path d="M129.9,265.4c0,0.2-0.1,0.3-0.3,0.3h-2.3v1.9c0,1.2,0.3,2.3,0.8,3.3c0.5,1,1.2,1.7,2,2.1c0.1,0.1,0.2,0.1,0.2,0.2
		s0,0.2,0,0.3c0,0.1-0.1,0.1-0.2,0.2c-0.1,0-0.2,0-0.3,0c-0.6-0.3-1.2-0.9-1.7-1.7c-0.5-0.8-0.9-1.6-1-2.4c-0.2,0.8-0.5,1.6-1,2.4
		c-0.5,0.8-1.1,1.3-1.8,1.7c-0.1,0-0.2,0.1-0.3,0c-0.1,0-0.1-0.1-0.2-0.2c0-0.1-0.1-0.2,0-0.3c0-0.1,0.1-0.2,0.2-0.2
		c0.8-0.4,1.4-1.1,1.9-2.1c0.5-1,0.8-2.1,0.8-3.3v-1.9h-2.3c-0.2,0-0.3-0.1-0.3-0.3c0-0.2,0.1-0.3,0.3-0.3h5.3
		C129.9,265.2,129.9,265.3,129.9,265.4z M132,274.5c-0.1,0.1-0.1,0.1-0.2,0.1c-0.1,0-0.2,0-0.2-0.1c-0.1-0.1-0.1-0.2-0.1-0.3v-9.1
		c0-0.1,0-0.2,0.1-0.2c0.1,0,0.1-0.1,0.2-0.1c0.1,0,0.2,0,0.2,0.1c0.1,0.1,0.1,0.1,0.1,0.2v9.1C132.2,274.3,132.1,274.4,132,274.5z"
		/>
	<path d="M140.2,270.7c0.1-0.1,0.1-0.1,0.2-0.1c0.1,0,0.2,0,0.2,0.1c0.1,0.1,0.1,0.1,0.1,0.3v2.2h4.2c0.1,0,0.2,0,0.3,0.1
		c0.1,0.1,0.1,0.1,0.1,0.2s0,0.1-0.1,0.2s-0.1,0.1-0.2,0.1h-9.2c-0.1,0-0.2,0-0.2-0.1s-0.1-0.1-0.1-0.2s0-0.1,0.1-0.2
		c0.1-0.1,0.1-0.1,0.3-0.1h4.2v-2.3C140,270.8,140.1,270.7,140.2,270.7z M143.8,265.3c0.2,0.2,0.3,0.4,0.3,0.7v1.1
		c0,0.3-0.1,0.6-0.3,0.7c-0.2,0.1-0.5,0.2-0.8,0.2h-5.3c-0.2,0-0.3,0-0.4,0.1s-0.1,0.2-0.1,0.4v1.2c0,0.2,0,0.3,0.1,0.3
		c0.1,0.1,0.2,0.1,0.4,0.1h6.3c0.1,0,0.2,0,0.2,0.1c0.1,0.1,0.1,0.1,0.1,0.2s0,0.1-0.1,0.2s-0.1,0.1-0.2,0.1h-6.6
		c-0.3,0-0.5-0.1-0.7-0.3c-0.2-0.2-0.3-0.4-0.3-0.8v-1.3c0-0.3,0.1-0.5,0.3-0.7c0.2-0.2,0.5-0.3,0.8-0.3h5.3c0.2,0,0.3,0,0.4-0.1
		c0.1-0.1,0.2-0.2,0.2-0.3v-1c0-0.2,0-0.3-0.1-0.3c-0.1-0.1-0.2-0.1-0.4-0.1h-6c-0.2,0-0.3-0.1-0.3-0.3s0.1-0.3,0.4-0.3h6.1
		C143.3,265.1,143.6,265.2,143.8,265.3z"/>
	<path d="M51.8,280.1c0.4,0.4,0.7,0.9,0.7,1.6s-0.2,1.1-0.7,1.6c-0.5,0.5-1.2,0.7-2,0.7c-0.9,0-1.5-0.2-2-0.7
		c-0.4-0.4-0.7-0.9-0.7-1.6s0.2-1.1,0.7-1.6c0.5-0.5,1.2-0.7,2-0.7C50.7,279.4,51.4,279.6,51.8,280.1z M54.8,285.2
		c0.2,0.2,0.3,0.4,0.3,0.7v0.5c0,0.3-0.1,0.4-0.2,0.6c-0.2,0.2-0.4,0.2-0.7,0.2H49c-0.1,0-0.3,0-0.3,0.1c-0.1,0.1-0.1,0.2-0.1,0.3
		v0.4c0,0.1,0,0.2,0.1,0.2s0.2,0.1,0.3,0.1h6.1c0.1,0,0.2,0,0.3,0.1c0.1,0.1,0.1,0.1,0.1,0.2s0,0.1-0.1,0.2
		c-0.1,0.1-0.1,0.1-0.2,0.1h-6.3c-0.3,0-0.5-0.1-0.6-0.2c-0.2-0.1-0.2-0.3-0.2-0.6v-0.6c0-0.3,0.1-0.5,0.2-0.7
		c0.2-0.2,0.4-0.3,0.8-0.3h5.1c0.1,0,0.3,0,0.3-0.1c0.1,0,0.1-0.1,0.1-0.2v-0.3c0-0.1,0-0.2-0.1-0.3s-0.2-0.1-0.4-0.1h-5.8
		c-0.2,0-0.4-0.1-0.4-0.3c0-0.2,0.1-0.3,0.4-0.3H54C54.4,284.9,54.6,285,54.8,285.2z M48.3,280.5c-0.3,0.3-0.5,0.7-0.5,1.1
		s0.2,0.8,0.5,1.1c0.4,0.4,0.9,0.5,1.5,0.5c0.6,0,1.1-0.2,1.5-0.5c0.3-0.3,0.5-0.7,0.5-1.1c0-0.4-0.2-0.8-0.5-1.1
		c-0.4-0.4-0.9-0.5-1.5-0.5C49.2,280,48.7,280.2,48.3,280.5z M56.4,281.8c0.2,0,0.3,0.1,0.3,0.3c0,0.2-0.1,0.3-0.3,0.3h-1.3v1.6
		c0,0.1,0,0.2-0.1,0.2c-0.1,0.1-0.1,0.1-0.2,0.1s-0.2,0-0.2-0.1c-0.1-0.1-0.1-0.1-0.1-0.2v-4.4c0-0.2,0.1-0.3,0.3-0.3
		c0.2,0,0.4,0.1,0.4,0.3v2.2H56.4z"/>
	<path d="M63.8,279.7c0.2,0.2,0.3,0.4,0.3,0.7v0.8c0,0.3-0.1,0.5-0.3,0.7c-0.2,0.2-0.5,0.2-0.8,0.2h-2.5c-0.2,0-0.3,0-0.4,0.1
		c-0.1,0.1-0.1,0.2-0.1,0.4v0.8c0,0.2,0,0.3,0.1,0.4s0.2,0.1,0.4,0.1c1,0,1.9-0.1,2.7-0.2c0.9-0.1,1.6-0.3,2.1-0.5
		c0.1,0,0.2,0,0.3,0s0.1,0.1,0.2,0.2c0,0.1,0,0.2,0,0.2c0,0.1-0.1,0.1-0.2,0.2c-0.7,0.2-1.5,0.4-2.5,0.5c-0.8,0.1-1.6,0.1-2.6,0.1
		c-0.4,0-0.7-0.1-0.9-0.3c-0.2-0.2-0.3-0.4-0.3-0.8v-0.9c0-0.3,0.1-0.6,0.3-0.8c0.2-0.2,0.5-0.3,0.8-0.3h2.6c0.2,0,0.3,0,0.4-0.1
		c0.1-0.1,0.1-0.2,0.1-0.3v-0.5c0-0.2,0-0.3-0.1-0.4c-0.1-0.1-0.2-0.1-0.4-0.1h-3.3c-0.2,0-0.4-0.1-0.4-0.3c0-0.2,0.1-0.3,0.4-0.3
		H63C63.3,279.4,63.6,279.5,63.8,279.7z M67.2,285.6c0.2,0.1,0.3,0.3,0.3,0.6v1.6c0,0.3-0.1,0.5-0.3,0.7c-0.2,0.1-0.4,0.2-0.7,0.2
		H61c-0.4,0-0.7-0.1-0.9-0.3c-0.2-0.2-0.2-0.4-0.2-0.7v-1.5c0-0.3,0.1-0.5,0.3-0.6s0.4-0.2,0.7-0.2h5.5
		C66.7,285.4,67,285.4,67.2,285.6z M66.6,286c-0.1-0.1-0.2-0.1-0.4-0.1h-5.1c-0.2,0-0.3,0-0.4,0.1c-0.1,0.1-0.1,0.2-0.1,0.3v1.3
		c0,0.2,0,0.3,0.1,0.3c0.1,0.1,0.2,0.1,0.4,0.1h5.1c0.2,0,0.3,0,0.4-0.1c0.1-0.1,0.1-0.2,0.1-0.3v-1.4
		C66.7,286.2,66.7,286.1,66.6,286z M67.3,284.5c-0.1,0.1-0.1,0.1-0.2,0.1c-0.1,0-0.2,0-0.2-0.1c-0.1-0.1-0.1-0.2-0.1-0.3v-4.7
		c0-0.1,0-0.2,0.1-0.2c0.1-0.1,0.1-0.1,0.2-0.1c0.1,0,0.2,0,0.2,0.1c0.1,0.1,0.1,0.1,0.1,0.2v4.7C67.4,284.3,67.4,284.4,67.3,284.5z
		"/>
	<path d="M80.6,283.9c0,0.2-0.1,0.3-0.3,0.3h-9.2c-0.2,0-0.3-0.1-0.3-0.3c0-0.2,0.1-0.3,0.4-0.3h9.1
		C80.4,283.6,80.6,283.7,80.6,283.9z M78.8,279.7c0.6,0.3,1,0.7,1,1.2c0,0.5-0.3,0.9-1,1.1c-0.7,0.3-1.7,0.5-3.1,0.5
		c-1.4,0-2.4-0.2-3.1-0.5c-0.6-0.3-0.9-0.7-0.9-1.1c0-0.5,0.3-0.9,0.9-1.2c0.7-0.3,1.7-0.4,3.1-0.4
		C77.1,279.3,78.1,279.4,78.8,279.7z M79.3,285.4c0.2,0.1,0.3,0.3,0.3,0.6v0.6c0,0.2-0.1,0.4-0.2,0.6c-0.2,0.2-0.4,0.2-0.6,0.2h-5.9
		c-0.2,0-0.3,0-0.3,0.1c-0.1,0.1-0.1,0.2-0.1,0.3v0.3c0,0.1,0,0.2,0.1,0.2s0.2,0.1,0.3,0.1h6.6c0.1,0,0.2,0,0.3,0.1
		c0.1,0.1,0.1,0.1,0.1,0.2c0,0.1,0,0.1-0.1,0.2s-0.1,0.1-0.2,0.1h-6.9c-0.3,0-0.5-0.1-0.6-0.2c-0.1-0.1-0.2-0.3-0.2-0.6v-0.5
		c0-0.3,0.1-0.5,0.2-0.6c0.2-0.1,0.4-0.2,0.7-0.2h5.9c0.1,0,0.2,0,0.3-0.1c0.1,0,0.1-0.1,0.1-0.2v-0.3c0-0.1,0-0.2-0.1-0.3
		c-0.1-0.1-0.2-0.1-0.4-0.1H72c-0.2,0-0.4-0.1-0.4-0.3c0-0.2,0.1-0.3,0.4-0.3h6.5C78.8,285.2,79.1,285.2,79.3,285.4z M73,280.1
		c-0.5,0.2-0.8,0.4-0.8,0.8c0,0.3,0.3,0.6,0.8,0.7c0.6,0.2,1.4,0.3,2.6,0.3c1.2,0,2.1-0.1,2.6-0.3c0.5-0.2,0.8-0.4,0.8-0.7
		c0-0.3-0.3-0.6-0.8-0.8c-0.6-0.2-1.4-0.3-2.6-0.3C74.5,279.9,73.6,279.9,73,280.1z"/>
	<path d="M91.8,279.8c0,0.2-0.1,0.3-0.3,0.3h-2.3v0.6c0,0.9,0.3,1.7,0.9,2.4c0.4,0.5,1.1,1,1.9,1.5c0.1,0.1,0.2,0.1,0.2,0.2
		s0,0.2,0,0.3c-0.1,0.1-0.1,0.1-0.2,0.2c-0.1,0-0.2,0-0.3,0c-0.6-0.4-1.2-0.8-1.7-1.3c-0.5-0.5-0.9-1.1-1-1.6
		c-0.2,0.6-0.5,1.1-1,1.7c-0.5,0.6-1.1,1-1.8,1.3c-0.1,0-0.2,0.1-0.3,0c-0.1,0-0.1-0.1-0.2-0.2s-0.1-0.2,0-0.2
		c0-0.1,0.1-0.2,0.2-0.2c0.8-0.4,1.4-0.9,1.9-1.5c0.6-0.7,0.9-1.5,0.9-2.5v-0.6h-2.3c-0.2,0-0.3-0.1-0.3-0.3c0-0.2,0.1-0.3,0.3-0.3
		h5.3C91.7,279.6,91.8,279.6,91.8,279.8z M87.2,287.6c0,0.2,0,0.4,0.1,0.4c0.1,0.1,0.2,0.1,0.5,0.1H94c0.2,0,0.3,0.1,0.3,0.3
		c0,0.2-0.1,0.3-0.3,0.3h-6.4c-0.4,0-0.6-0.1-0.8-0.3c-0.2-0.2-0.3-0.4-0.3-0.8v-1.6c0-0.1,0-0.2,0.1-0.3c0.1-0.1,0.1-0.1,0.2-0.1
		c0.1,0,0.2,0,0.2,0.1c0.1,0.1,0.1,0.2,0.1,0.3V287.6z M93.9,286.3c-0.1,0.1-0.1,0.1-0.2,0.1c-0.1,0-0.2,0-0.2-0.1
		c-0.1-0.1-0.1-0.2-0.1-0.3v-3.4h-1.9c-0.1,0-0.2,0-0.3-0.1c-0.1-0.1-0.1-0.1-0.1-0.2c0-0.1,0-0.2,0.1-0.2s0.1-0.1,0.2-0.1h2v-2.5
		c0-0.1,0-0.2,0.1-0.2c0.1-0.1,0.1-0.1,0.2-0.1c0.1,0,0.2,0,0.2,0.1c0.1,0.1,0.1,0.1,0.1,0.2v6.5C94,286.1,93.9,286.2,93.9,286.3z"
		/>
	<path d="M107,284.3c0.1,0.1,0.1,0.1,0.1,0.2s0,0.1-0.1,0.2s-0.1,0.1-0.2,0.1h-9.2c-0.1,0-0.2,0-0.2-0.1s-0.1-0.1-0.1-0.2
		s0-0.1,0.1-0.2c0.1-0.1,0.1-0.1,0.3-0.1h4.2v-1.3c0-0.2,0.1-0.3,0.3-0.3c0.2,0,0.3,0.1,0.3,0.3v1.3h4.2
		C106.9,284.2,107,284.2,107,284.3z M102,279.3c0.1-0.1,0.1-0.1,0.2-0.1c0.1,0,0.2,0,0.2,0.1c0.1,0.1,0.1,0.2,0.1,0.3
		c0,0.6,0.4,1.2,1.2,1.6c0.8,0.4,1.6,0.7,2.6,0.7c0.1,0,0.2,0,0.3,0.1c0.1,0.1,0.1,0.1,0.1,0.2c0,0.1,0,0.2-0.1,0.2
		c-0.1,0.1-0.2,0.1-0.3,0.1c-1-0.1-1.9-0.3-2.6-0.7c-0.7-0.3-1.2-0.8-1.5-1.2c-0.2,0.5-0.7,0.9-1.5,1.2c-0.8,0.4-1.6,0.6-2.6,0.7
		c-0.1,0-0.2,0-0.3-0.1c-0.1-0.1-0.1-0.1-0.1-0.2c0-0.1,0-0.2,0.1-0.2c0.1-0.1,0.2-0.1,0.3-0.1c1,0,1.9-0.2,2.6-0.7
		c0.8-0.5,1.2-1,1.2-1.7C101.9,279.4,101.9,279.3,102,279.3z M105.3,286.1c0.6,0.3,1,0.7,1,1.2c0,0.5-0.3,0.9-1,1.2
		c-0.7,0.3-1.7,0.5-3.1,0.5c-1.4,0-2.4-0.2-3.1-0.5c-0.6-0.3-0.9-0.7-0.9-1.2c0-0.5,0.3-0.9,0.9-1.2c0.7-0.3,1.8-0.5,3.1-0.5
		S104.6,285.8,105.3,286.1z M99.6,286.5c-0.5,0.2-0.8,0.5-0.8,0.8c0,0.4,0.3,0.6,0.8,0.8c0.6,0.2,1.4,0.3,2.6,0.3
		c1.2,0,2.1-0.1,2.6-0.3c0.5-0.2,0.8-0.4,0.8-0.8c0-0.4-0.3-0.6-0.8-0.8c-0.6-0.2-1.4-0.3-2.6-0.3C101,286.2,100.1,286.3,99.6,286.5
		z"/>
	<path d="M115.6,280.8c0.1,0.1,0.1,0.1,0.1,0.2s0,0.1-0.1,0.2c-0.1,0.1-0.1,0.1-0.2,0.1h-5.6c-0.2,0-0.3-0.1-0.3-0.3
		c0-0.2,0.1-0.3,0.3-0.3h5.6C115.5,280.7,115.5,280.7,115.6,280.8z M114.7,282.3c0.5,0.3,0.7,0.7,0.7,1.1c0,0.4-0.2,0.8-0.7,1.1
		c-0.5,0.3-1.2,0.5-2.1,0.5c-0.9,0-1.6-0.2-2.1-0.5c-0.5-0.3-0.7-0.7-0.7-1.1c0-0.4,0.2-0.8,0.7-1.1c0.5-0.3,1.2-0.5,2.1-0.5
		C113.5,281.8,114.1,282,114.7,282.3z M117.3,285.7c0.2,0.2,0.3,0.4,0.3,0.6v1.5c0,0.3-0.1,0.5-0.3,0.7c-0.2,0.2-0.4,0.2-0.7,0.2
		h-5.3c-0.3,0-0.6-0.1-0.7-0.2c-0.2-0.2-0.2-0.4-0.2-0.7v-1.4c0-0.3,0.1-0.5,0.3-0.7c0.2-0.2,0.4-0.2,0.7-0.2h5.2
		C116.9,285.5,117.1,285.5,117.3,285.7z M111,282.7c-0.3,0.2-0.5,0.4-0.5,0.7c0,0.3,0.2,0.5,0.5,0.7c0.4,0.2,0.9,0.3,1.6,0.3
		c0.6,0,1.2-0.1,1.5-0.3c0.3-0.2,0.5-0.4,0.5-0.7c0-0.3-0.2-0.5-0.5-0.7c-0.4-0.2-0.9-0.3-1.5-0.3C112,282.4,111.4,282.5,111,282.7z
		 M114.4,279.6c0,0.2-0.1,0.3-0.3,0.3H111c-0.2,0-0.3-0.1-0.3-0.3c0-0.2,0.1-0.3,0.3-0.3h3.1C114.3,279.3,114.4,279.4,114.4,279.6z
		 M116.8,286.1c-0.1-0.1-0.2-0.1-0.4-0.1h-4.8c-0.2,0-0.3,0-0.4,0.1c-0.1,0.1-0.1,0.2-0.1,0.3v1.2c0,0.2,0,0.3,0.1,0.3
		c0.1,0.1,0.2,0.1,0.4,0.1h4.8c0.2,0,0.3,0,0.4-0.1c0.1-0.1,0.1-0.2,0.1-0.3v-1.3C116.9,286.3,116.9,286.2,116.8,286.1z M118.9,282
		c0.2,0,0.3,0.1,0.3,0.3c0,0.2-0.1,0.3-0.3,0.3h-1.3v1.6c0,0.1,0,0.2-0.1,0.3c-0.1,0.1-0.1,0.1-0.2,0.1s-0.2,0-0.2-0.1
		c-0.1-0.1-0.1-0.1-0.1-0.3v-4.7c0-0.2,0.1-0.3,0.3-0.3c0.2,0,0.4,0.1,0.4,0.3v2.5H118.9z"/>
</g>
<g>
	<path d="M425.3,274.2c0.5-0.1,1.2-0.2,1.9-0.2c1,0,1.7,0.2,2.2,0.6c0.4,0.3,0.7,0.8,0.7,1.4c0,0.8-0.5,1.5-1.4,1.8v0
		c0.8,0.2,1.7,0.8,1.7,2c0,0.7-0.3,1.2-0.7,1.6c-0.6,0.5-1.5,0.8-2.8,0.8c-0.7,0-1.3,0-1.6-0.1V274.2z M426.4,277.5h0.9
		c1.1,0,1.8-0.6,1.8-1.4c0-0.9-0.7-1.3-1.8-1.3c-0.5,0-0.8,0-0.9,0.1V277.5z M426.4,281.4c0.2,0,0.5,0,0.9,0c1.1,0,2.1-0.4,2.1-1.6
		c0-1.1-0.9-1.6-2.1-1.6h-0.9V281.4z"/>
	<path d="M431.8,273.6h1.1v8.5h-1.1V273.6z"/>
	<path d="M439.5,280.6c0,0.6,0,1.1,0,1.6h-0.9l-0.1-0.9h0c-0.3,0.5-0.9,1.1-1.9,1.1c-0.9,0-2-0.5-2-2.5v-3.4h1.1v3.2
		c0,1.1,0.3,1.8,1.3,1.8c0.7,0,1.2-0.5,1.4-1c0.1-0.2,0.1-0.3,0.1-0.5v-3.6h1.1V280.6z"/>
	<path d="M441.8,279.4c0,1.4,0.9,2,2,2c0.8,0,1.2-0.1,1.6-0.3l0.2,0.8c-0.4,0.2-1,0.4-1.9,0.4c-1.8,0-2.9-1.2-2.9-2.9s1-3.1,2.7-3.1
		c1.9,0,2.4,1.7,2.4,2.7c0,0.2,0,0.4,0,0.5H441.8z M444.9,278.7c0-0.7-0.3-1.7-1.5-1.7c-1.1,0-1.5,1-1.6,1.7H444.9z"/>
	<path d="M447.3,277.9c0-0.6,0-1.1,0-1.6h0.9l0,0.9h0c0.3-0.6,0.9-1.1,1.8-1.1c0.8,0,1.4,0.5,1.6,1.2h0c0.2-0.3,0.4-0.6,0.6-0.8
		c0.3-0.3,0.7-0.4,1.3-0.4c0.8,0,1.9,0.5,1.9,2.5v3.4h-1v-3.3c0-1.1-0.4-1.8-1.3-1.8c-0.6,0-1.1,0.4-1.2,1c0,0.1-0.1,0.3-0.1,0.5
		v3.6h-1v-3.5c0-0.9-0.4-1.6-1.2-1.6c-0.7,0-1.1,0.5-1.3,1.1c-0.1,0.2-0.1,0.3-0.1,0.5v3.5h-1V277.9z"/>
	<path d="M458.5,274.7c0,0.4-0.3,0.6-0.7,0.6c-0.4,0-0.6-0.3-0.6-0.6c0-0.4,0.3-0.7,0.7-0.7C458.2,274,458.5,274.3,458.5,274.7z
		 M457.3,282.1v-5.8h1.1v5.8H457.3z"/>
	<path d="M460.6,276.3l0.8,1.2c0.2,0.3,0.4,0.6,0.6,0.9h0c0.2-0.3,0.4-0.6,0.6-1l0.8-1.2h1.1l-2,2.8l2,3h-1.2l-0.9-1.3
		c-0.2-0.3-0.4-0.7-0.6-1h0c-0.2,0.3-0.4,0.7-0.6,1l-0.8,1.3h-1.2l2.1-3l-2-2.8H460.6z"/>
	<path d="M470.1,274.5c0.3,0.8,0.5,1.8,0.5,3c0,1.2-0.2,2.2-0.5,3c-0.4,0.9-0.9,1.3-1.7,1.3s-1.3-0.4-1.7-1.3
		c-0.3-0.8-0.5-1.8-0.5-3c0-1.2,0.2-2.2,0.5-3c0.4-0.9,0.9-1.3,1.7-1.3S469.7,273.7,470.1,274.5z M467.3,274.9
		c-0.2,0.7-0.3,1.5-0.3,2.6c0,1.1,0.1,1.9,0.3,2.6c0.3,0.8,0.6,1.1,1.1,1.1c0.5,0,0.9-0.4,1.1-1.1c0.2-0.7,0.3-1.5,0.3-2.6
		c0-1.1-0.1-1.9-0.3-2.6c-0.3-0.7-0.6-1.1-1.1-1.1C467.9,273.8,467.5,274.2,467.3,274.9z M472,273c0.1-0.1,0.1-0.1,0.2-0.1
		c0.1,0,0.2,0,0.2,0.1c0.1,0.1,0.1,0.1,0.1,0.2v9.1c0,0.1,0,0.2-0.1,0.3c-0.1,0.1-0.1,0.1-0.2,0.1c-0.1,0-0.2,0-0.2-0.1
		c-0.1-0.1-0.1-0.2-0.1-0.3v-4.8h-1.6c-0.1,0-0.2,0-0.3-0.1c-0.1-0.1-0.1-0.1-0.1-0.2c0-0.1,0-0.2,0.1-0.2c0.1-0.1,0.1-0.1,0.3-0.1
		h1.6v-3.7C471.9,273.2,472,273.1,472,273z M474.7,282.6c-0.1,0.1-0.1,0.1-0.2,0.1c-0.1,0-0.2,0-0.2-0.1c-0.1-0.1-0.1-0.2-0.1-0.3
		v-9.1c0-0.1,0-0.2,0.1-0.2c0.1-0.1,0.1-0.1,0.2-0.1c0.1,0,0.2,0,0.2,0.1c0.1,0.1,0.1,0.1,0.1,0.2v9.1
		C474.8,282.5,474.8,282.6,474.7,282.6z"/>
	<path d="M485.5,273.5c0.2,0.2,0.3,0.4,0.3,0.7v0.6c0,1-0.4,1.8-1.3,2.4c-0.9,0.6-2,1-3.6,1c-0.1,0-0.2,0-0.3-0.1s-0.1-0.1-0.1-0.2
		c0-0.1,0-0.2,0.1-0.2c0.1-0.1,0.2-0.1,0.3-0.1c1.4-0.1,2.4-0.3,3.1-0.8c0.7-0.5,1.1-1.2,1.1-2.1v-0.5c0-0.2-0.1-0.3-0.2-0.4
		c-0.1-0.1-0.2-0.1-0.4-0.1h-3.5c-0.2,0-0.3-0.1-0.3-0.3c0-0.2,0.1-0.3,0.3-0.3h3.6C485,273.2,485.2,273.3,485.5,273.5z
		 M488.2,279.5c0.6,0.3,0.9,0.8,0.9,1.3c0,0.5-0.3,1-0.9,1.3c-0.7,0.4-1.7,0.6-2.9,0.6c-1.3,0-2.3-0.2-2.9-0.6
		c-0.6-0.3-0.9-0.8-0.9-1.3c0-0.6,0.3-1,0.9-1.3c0.7-0.4,1.7-0.6,2.9-0.6S487.6,279.2,488.2,279.5z M482.9,279.9
		c-0.5,0.2-0.8,0.5-0.8,0.9c0,0.4,0.3,0.7,0.8,0.9c0.6,0.3,1.4,0.4,2.4,0.4c1,0,1.9-0.1,2.4-0.4c0.5-0.2,0.8-0.5,0.8-0.9
		c0-0.4-0.3-0.7-0.8-0.9c-0.6-0.3-1.4-0.4-2.4-0.4C484.2,279.6,483.4,279.7,482.9,279.9z M489,278.9c-0.1,0.1-0.1,0.1-0.2,0.1
		c-0.1,0-0.2,0-0.2-0.1c-0.1-0.1-0.1-0.1-0.1-0.2v-1.3h-2c-0.1,0-0.2,0-0.3-0.1c-0.1-0.1-0.1-0.1-0.1-0.2c0-0.1,0-0.2,0.1-0.2
		c0.1-0.1,0.2-0.1,0.3-0.1h2V275h-2c-0.1,0-0.2,0-0.3-0.1c-0.1-0.1-0.1-0.1-0.1-0.2s0-0.1,0.1-0.2c0.1-0.1,0.2-0.1,0.3-0.1h2v-1.1
		c0-0.1,0-0.2,0.1-0.3c0.1-0.1,0.1-0.1,0.2-0.1c0.1,0,0.2,0,0.2,0.1c0.1,0.1,0.1,0.2,0.1,0.3v5.4C489.1,278.8,489,278.8,489,278.9z"
		/>
	<path d="M497.1,278.7c0.1-0.1,0.1-0.1,0.2-0.1c0.1,0,0.2,0,0.2,0.1c0.1,0.1,0.1,0.1,0.1,0.3v2.4h4.2c0.1,0,0.2,0,0.3,0.1
		c0.1,0.1,0.1,0.1,0.1,0.2s0,0.1-0.1,0.2s-0.1,0.1-0.2,0.1h-9.2c-0.1,0-0.2,0-0.2-0.1s-0.1-0.1-0.1-0.2s0-0.1,0.1-0.2
		c0.1-0.1,0.1-0.1,0.3-0.1h4.2v-2.4C497,278.8,497,278.7,497.1,278.7z M500.7,273.2c0.1-0.1,0.1-0.1,0.2-0.1c0.1,0,0.2,0,0.2,0.1
		c0.1,0.1,0.1,0.1,0.1,0.3v3.8c0,0.3-0.1,0.6-0.3,0.8c-0.2,0.2-0.5,0.3-0.8,0.3h-5.7c-0.3,0-0.6-0.1-0.8-0.2
		c-0.2-0.2-0.3-0.4-0.3-0.7v-3.9c0-0.1,0-0.2,0.1-0.3c0.1-0.1,0.1-0.1,0.2-0.1c0.1,0,0.2,0,0.2,0.1c0.1,0.1,0.1,0.2,0.1,0.3v1.4h6.5
		v-1.4C500.6,273.3,500.6,273.2,500.7,273.2z M494.1,275.5v1.7c0,0.2,0,0.3,0.1,0.4c0.1,0.1,0.2,0.1,0.4,0.1h5.4
		c0.2,0,0.3,0,0.4-0.1c0.1-0.1,0.1-0.2,0.1-0.4v-1.7H494.1z"/>
	<path d="M509.5,273.6c0.2,0.2,0.3,0.5,0.3,0.8v1.4c0,1.8-0.5,3.2-1.4,4.3c-0.9,1-2,1.5-3.5,1.6c-0.2,0-0.3-0.1-0.4-0.3
		c0-0.2,0.1-0.3,0.3-0.3c1.3-0.1,2.4-0.6,3.1-1.5c0.8-0.9,1.2-2.2,1.2-3.8v-1.4c0-0.2,0-0.3-0.1-0.4c-0.1-0.1-0.2-0.1-0.4-0.1h-3.5
		c-0.2,0-0.3-0.1-0.3-0.3c0-0.2,0.1-0.3,0.3-0.3h3.5C508.9,273.3,509.2,273.4,509.5,273.6z M514,277.5c0.2,0,0.3,0.1,0.3,0.3
		c0,0.2-0.1,0.3-0.3,0.3h-1.3v4.3c0,0.1,0,0.2-0.1,0.2c-0.1,0.1-0.1,0.1-0.2,0.1s-0.2,0-0.2-0.1c-0.1-0.1-0.1-0.1-0.1-0.2v-9.1
		c0-0.1,0-0.2,0.1-0.2c0.1,0,0.1-0.1,0.2-0.1s0.2,0,0.2,0.1c0.1,0.1,0.1,0.1,0.1,0.2v4.3H514z"/>
	<path d="M525.4,273.6c0,0.2-0.1,0.3-0.3,0.3h-2.3v0.6c0,0.9,0.3,1.7,0.9,2.4c0.4,0.5,1.1,1,1.9,1.5c0.1,0.1,0.2,0.1,0.2,0.2
		s0,0.2,0,0.3c-0.1,0.1-0.1,0.1-0.2,0.2c-0.1,0-0.2,0-0.3,0c-0.6-0.4-1.2-0.8-1.7-1.3c-0.5-0.5-0.9-1.1-1-1.6
		c-0.2,0.6-0.5,1.1-1,1.7c-0.5,0.6-1.1,1-1.8,1.3c-0.1,0-0.2,0.1-0.3,0c-0.1,0-0.1-0.1-0.2-0.2s-0.1-0.2,0-0.2
		c0-0.1,0.1-0.2,0.2-0.2c0.8-0.4,1.4-0.9,1.9-1.5c0.6-0.7,0.9-1.5,0.9-2.5v-0.6h-2.3c-0.2,0-0.3-0.1-0.3-0.3c0-0.2,0.1-0.3,0.3-0.3
		h5.3C525.3,273.3,525.4,273.4,525.4,273.6z M520.8,281.3c0,0.2,0,0.4,0.1,0.4c0.1,0.1,0.2,0.1,0.5,0.1h6.3c0.2,0,0.3,0.1,0.3,0.3
		c0,0.2-0.1,0.3-0.3,0.3h-6.4c-0.4,0-0.6-0.1-0.8-0.3c-0.2-0.2-0.3-0.4-0.3-0.8v-1.6c0-0.1,0-0.2,0.1-0.3c0.1-0.1,0.1-0.1,0.2-0.1
		c0.1,0,0.2,0,0.2,0.1c0.1,0.1,0.1,0.2,0.1,0.3V281.3z M527.5,280c-0.1,0.1-0.1,0.1-0.2,0.1c-0.1,0-0.2,0-0.2-0.1
		c-0.1-0.1-0.1-0.2-0.1-0.3v-3.4H525c-0.1,0-0.2,0-0.3-0.1c-0.1-0.1-0.1-0.1-0.1-0.2c0-0.1,0-0.2,0.1-0.2s0.1-0.1,0.2-0.1h2v-2.5
		c0-0.1,0-0.2,0.1-0.2c0.1-0.1,0.1-0.1,0.2-0.1c0.1,0,0.2,0,0.2,0.1c0.1,0.1,0.1,0.1,0.1,0.2v6.5C527.6,279.8,527.6,279.9,527.5,280
		z"/>
	<path d="M540.7,278c0.1,0.1,0.1,0.1,0.1,0.2s0,0.1-0.1,0.2s-0.1,0.1-0.2,0.1h-9.2c-0.1,0-0.2,0-0.2-0.1s-0.1-0.1-0.1-0.2
		s0-0.1,0.1-0.2c0.1-0.1,0.1-0.1,0.3-0.1h4.2v-1.3c0-0.2,0.1-0.3,0.3-0.3c0.2,0,0.3,0.1,0.3,0.3v1.3h4.2
		C540.5,277.9,540.6,277.9,540.7,278z M535.6,273c0.1-0.1,0.1-0.1,0.2-0.1c0.1,0,0.2,0,0.2,0.1c0.1,0.1,0.1,0.2,0.1,0.3
		c0,0.6,0.4,1.2,1.2,1.6c0.8,0.4,1.6,0.7,2.6,0.7c0.1,0,0.2,0,0.3,0.1c0.1,0.1,0.1,0.1,0.1,0.2c0,0.1,0,0.2-0.1,0.2
		c-0.1,0.1-0.2,0.1-0.3,0.1c-1-0.1-1.9-0.3-2.6-0.7c-0.7-0.3-1.2-0.8-1.5-1.2c-0.2,0.5-0.7,0.9-1.5,1.2c-0.8,0.4-1.6,0.6-2.6,0.7
		c-0.1,0-0.2,0-0.3-0.1c-0.1-0.1-0.1-0.1-0.1-0.2c0-0.1,0-0.2,0.1-0.2c0.1-0.1,0.2-0.1,0.3-0.1c1,0,1.9-0.2,2.6-0.7
		c0.8-0.5,1.2-1,1.2-1.7C535.5,273.2,535.5,273.1,535.6,273z M539,279.8c0.6,0.3,1,0.7,1,1.2c0,0.5-0.3,0.9-1,1.2
		c-0.7,0.3-1.7,0.5-3.1,0.5c-1.4,0-2.4-0.2-3.1-0.5c-0.6-0.3-0.9-0.7-0.9-1.2c0-0.5,0.3-0.9,0.9-1.2c0.7-0.3,1.8-0.5,3.1-0.5
		S538.3,279.5,539,279.8z M533.2,280.2c-0.5,0.2-0.8,0.5-0.8,0.8c0,0.4,0.3,0.6,0.8,0.8c0.6,0.2,1.4,0.3,2.6,0.3
		c1.2,0,2.1-0.1,2.6-0.3c0.5-0.2,0.8-0.4,0.8-0.8c0-0.4-0.3-0.6-0.8-0.8c-0.6-0.2-1.4-0.3-2.6-0.3
		C534.7,279.9,533.8,280,533.2,280.2z"/>
	<path d="M546.9,277.7c0.5,0,1.1-0.1,1.7-0.1c0.6-0.1,1.1-0.1,1.6-0.2c0.1,0,0.2,0,0.3,0s0.1,0.1,0.2,0.2s0,0.1,0,0.2
		c0,0.1-0.1,0.1-0.2,0.1c-0.8,0.1-1.8,0.3-3,0.3c-1.1,0.1-2.4,0.1-4.1,0.1c-0.3,0-0.4-0.1-0.4-0.3c0-0.2,0.1-0.3,0.4-0.3h0.4
		c0.5,0,0.9,0,1.3,0c0.5,0,1,0,1.3,0v-1.1c0-0.2,0.1-0.3,0.4-0.3s0.4,0.1,0.4,0.3V277.7z M549.5,275.8c0.1,0.1,0.1,0.1,0.1,0.2
		c0,0.1,0,0.1-0.1,0.2c-0.1,0.1-0.1,0.1-0.2,0.1h-4.8c-0.3,0-0.5-0.1-0.7-0.3c-0.2-0.2-0.3-0.4-0.3-0.6v-1.1c0-0.3,0.1-0.5,0.3-0.7
		c0.2-0.2,0.5-0.3,0.8-0.3h4.6c0.1,0,0.2,0,0.3,0.1c0.1,0.1,0.1,0.1,0.1,0.2s0,0.1-0.1,0.2c-0.1,0.1-0.1,0.1-0.2,0.1h-4.5
		c-0.2,0-0.3,0-0.4,0.1s-0.1,0.2-0.1,0.4v0.9c0,0.2,0,0.3,0.1,0.4c0.1,0.1,0.2,0.1,0.4,0.1h4.5C549.4,275.7,549.5,275.7,549.5,275.8
		z M551.3,279.5c0.2,0.1,0.3,0.4,0.3,0.6v1.5c0,0.3-0.1,0.5-0.3,0.7c-0.2,0.1-0.4,0.2-0.7,0.2H545c-0.4,0-0.7-0.1-0.8-0.3
		c-0.2-0.2-0.2-0.4-0.2-0.7v-1.4c0-0.3,0.1-0.5,0.2-0.6c0.2-0.2,0.4-0.2,0.7-0.2h5.7C550.9,279.3,551.2,279.3,551.3,279.5z
		 M550.8,280c-0.1-0.1-0.2-0.1-0.4-0.1H545c-0.2,0-0.3,0-0.4,0.1c-0.1,0.1-0.1,0.2-0.1,0.3v1.1c0,0.2,0,0.3,0.1,0.3s0.2,0.1,0.4,0.1
		h5.3c0.2,0,0.3,0,0.4-0.1c0.1-0.1,0.1-0.2,0.1-0.3v-1.2C550.9,280.1,550.9,280,550.8,280z M551.5,278.4c-0.1,0.1-0.1,0.1-0.2,0.1
		c-0.1,0-0.2,0-0.2-0.1c-0.1-0.1-0.1-0.2-0.1-0.3v-4.9c0-0.1,0-0.2,0.1-0.2c0.1-0.1,0.1-0.1,0.2-0.1c0.1,0,0.2,0,0.2,0.1
		c0.1,0.1,0.1,0.1,0.1,0.2v4.9C551.6,278.2,551.6,278.3,551.5,278.4z"/>
</g>
<g>
	<path d="M227.2,484.2c0.4,0.5,0.7,1.2,0.7,1.9s-0.2,1.4-0.7,1.9c-0.5,0.6-1.2,0.9-2,0.9c-0.9,0-1.5-0.3-2-0.9
		c-0.4-0.5-0.7-1.2-0.7-1.9c0-0.8,0.2-1.4,0.7-1.9c0.5-0.6,1.2-0.9,2-0.9C226.1,483.3,226.8,483.6,227.2,484.2z M223.7,484.6
		c-0.3,0.4-0.5,0.9-0.5,1.5s0.2,1.1,0.5,1.5c0.4,0.5,0.9,0.7,1.5,0.7c0.6,0,1.1-0.2,1.5-0.7c0.3-0.4,0.5-0.9,0.5-1.5
		s-0.2-1.1-0.5-1.5c-0.4-0.5-0.9-0.7-1.5-0.7C224.6,483.9,224.1,484.1,223.7,484.6z M224,491.4c0,0.2,0,0.4,0.1,0.4
		c0.1,0.1,0.2,0.1,0.5,0.1h6.3c0.2,0,0.3,0.1,0.3,0.3c0,0.2-0.1,0.3-0.3,0.3h-6.4c-0.4,0-0.6-0.1-0.8-0.3c-0.2-0.2-0.3-0.4-0.3-0.8
		v-1.6c0-0.1,0-0.2,0.1-0.3c0.1-0.1,0.1-0.1,0.2-0.1c0.1,0,0.2,0,0.2,0.1c0.1,0.1,0.1,0.2,0.1,0.3V491.4z M230.7,490.1
		c-0.1,0.1-0.1,0.1-0.2,0.1c-0.1,0-0.2,0-0.2-0.1c-0.1-0.1-0.1-0.2-0.1-0.3v-2.2h-2c-0.1,0-0.2,0-0.3-0.1c-0.1-0.1-0.1-0.1-0.1-0.2
		c0-0.1,0-0.2,0.1-0.2c0.1-0.1,0.2-0.1,0.3-0.1h2v-1.5h-1.9c-0.1,0-0.2,0-0.3-0.1c-0.1-0.1-0.1-0.1-0.1-0.2c0-0.1,0-0.1,0.1-0.2
		c0.1-0.1,0.2-0.1,0.3-0.1h2v-1.5c0-0.1,0-0.2,0.1-0.2c0.1-0.1,0.1-0.1,0.2-0.1c0.1,0,0.2,0,0.2,0.1c0.1,0.1,0.1,0.1,0.1,0.2v6.5
		C230.8,489.9,230.8,490,230.7,490.1z"/>
	<path d="M244,487.7c0,0.2-0.1,0.3-0.3,0.3h-4.3v1c0,0.1,0,0.2-0.1,0.3c-0.1,0.1-0.1,0.1-0.2,0.1c-0.1,0-0.2,0-0.2-0.1
		c-0.1-0.1-0.1-0.1-0.1-0.3V488h-4.3c-0.2,0-0.3-0.1-0.3-0.3c0-0.2,0.1-0.3,0.4-0.3h9.1C243.9,487.4,244,487.5,244,487.7z
		 M243.2,483.5c0,0.2-0.1,0.3-0.3,0.3h-3.5c0,0.5,0.4,1,1.2,1.3c0.7,0.3,1.6,0.5,2.7,0.6c0.1,0,0.2,0,0.2,0.1c0,0.1,0.1,0.1,0,0.2
		s-0.1,0.2-0.1,0.2c-0.1,0.1-0.2,0.1-0.3,0.1c-1-0.1-1.8-0.3-2.6-0.7c-0.7-0.3-1.2-0.7-1.5-1c-0.2,0.4-0.7,0.7-1.4,1
		c-0.8,0.3-1.6,0.5-2.6,0.7c-0.1,0-0.2,0-0.3-0.1c-0.1-0.1-0.1-0.1-0.1-0.2c0-0.1,0-0.2,0-0.2c0.1-0.1,0.2-0.1,0.3-0.1
		c1.1-0.1,1.9-0.3,2.6-0.6c0.7-0.4,1.1-0.8,1.2-1.3h-3.4c-0.2,0-0.3-0.1-0.3-0.3c0-0.2,0.1-0.3,0.3-0.3h7.6
		C243.1,483.2,243.2,483.3,243.2,483.5z M242.2,489.9c0.6,0.3,1,0.7,1,1.2c0,0.5-0.3,0.9-1,1.2c-0.7,0.3-1.7,0.5-3.1,0.5
		c-1.4,0-2.4-0.2-3.1-0.5c-0.6-0.3-0.9-0.7-0.9-1.2c0-0.5,0.3-0.9,0.9-1.2c0.7-0.3,1.8-0.5,3.1-0.5S241.5,489.6,242.2,489.9z
		 M236.4,490.3c-0.5,0.2-0.8,0.5-0.8,0.8c0,0.4,0.3,0.6,0.8,0.8c0.6,0.2,1.4,0.3,2.6,0.3c1.2,0,2.1-0.1,2.6-0.3
		c0.5-0.2,0.8-0.4,0.8-0.8c0-0.4-0.3-0.6-0.8-0.8c-0.6-0.2-1.4-0.3-2.6-0.3C237.9,490,237,490.1,236.4,490.3z"/>
	<path d="M260,489c0,0.2-0.1,0.3-0.3,0.3h-4.3v3.1c0,0.1,0,0.2-0.1,0.3c-0.1,0.1-0.1,0.1-0.2,0.1c-0.1,0-0.2,0-0.2-0.1
		c-0.1-0.1-0.1-0.2-0.1-0.3v-3.1h-4.3c-0.2,0-0.3-0.1-0.3-0.3c0-0.2,0.1-0.3,0.3-0.3h9.1C259.8,488.7,260,488.8,260,489z
		 M258.7,483.6c0.2,0.2,0.3,0.4,0.3,0.7v2.2c0,0.3-0.1,0.5-0.3,0.7c-0.2,0.2-0.5,0.3-0.8,0.3h-5.8c-0.3,0-0.6-0.1-0.8-0.2
		c-0.2-0.2-0.3-0.4-0.3-0.7v-2.1c0-0.3,0.1-0.5,0.3-0.7c0.2-0.2,0.5-0.3,0.8-0.3h5.7C258.3,483.3,258.6,483.4,258.7,483.6z
		 M258.2,484c-0.1-0.1-0.2-0.1-0.4-0.1h-5.5c-0.2,0-0.3,0-0.4,0.1c-0.1,0.1-0.1,0.2-0.1,0.3v2c0,0.2,0,0.3,0.1,0.3
		c0.1,0.1,0.2,0.1,0.4,0.1h5.5c0.2,0,0.3,0,0.4-0.1c0.1-0.1,0.1-0.2,0.1-0.3v-2.1C258.3,484.2,258.3,484.1,258.2,484z"/>
	<path d="M272,489.8c0,0.2-0.1,0.3-0.3,0.3h-1.9v2.4c0,0.1,0,0.2-0.1,0.3c-0.1,0.1-0.1,0.1-0.2,0.1s-0.2,0-0.2-0.1
		c-0.1-0.1-0.1-0.2-0.1-0.3v-2.4h-3.7v0.9c0,0.3-0.1,0.6-0.2,1c-0.1,0.3-0.3,0.6-0.6,0.8c-0.1,0.1-0.2,0.1-0.3,0.1
		c-0.1,0-0.2,0-0.2-0.1c-0.1-0.1-0.1-0.1-0.1-0.2c0-0.1,0.1-0.2,0.2-0.2c0.2-0.2,0.3-0.4,0.4-0.5c0.1-0.2,0.1-0.5,0.1-0.8v-0.8h-2.2
		c-0.2,0-0.3-0.1-0.3-0.3c0-0.2,0.1-0.3,0.4-0.3h9.1C271.9,489.5,272,489.6,272,489.8z M271.3,484.8c0,0.2-0.1,0.3-0.3,0.3h-7.9
		c-0.2,0-0.3-0.1-0.3-0.3s0.1-0.3,0.3-0.3h7.9C271.2,484.5,271.3,484.6,271.3,484.8z M269.9,486.1c0.6,0.3,0.9,0.6,0.9,1
		c0,0.4-0.3,0.7-0.9,1c-0.7,0.3-1.6,0.4-2.8,0.4c-1.2,0-2.1-0.1-2.8-0.4c-0.6-0.3-0.9-0.6-0.9-1c0-0.4,0.3-0.7,0.9-1
		c0.7-0.3,1.6-0.4,2.8-0.4C268.2,485.7,269.2,485.8,269.9,486.1z M264.8,486.6c-0.5,0.2-0.8,0.4-0.8,0.6c0,0.2,0.3,0.4,0.8,0.6
		c0.5,0.2,1.3,0.3,2.3,0.3s1.7-0.1,2.3-0.3c0.5-0.1,0.8-0.3,0.8-0.6c0-0.2-0.3-0.4-0.8-0.6c-0.6-0.2-1.3-0.3-2.3-0.3
		S265.3,486.4,264.8,486.6z M269.5,483.4c0,0.2-0.1,0.3-0.3,0.3h-4.3c-0.2,0-0.3-0.1-0.3-0.3c0-0.2,0.1-0.3,0.3-0.3h4.3
		C269.4,483.1,269.5,483.2,269.5,483.4z"/>
	<path d="M281.9,483.6c0.7,0,1.2,0.2,1.7,0.7c0.4,0.4,0.6,0.9,0.6,1.5c0,0.4-0.1,0.7-0.3,1c-0.2,0.3-0.4,0.6-0.8,0.8
		c0.4,0.2,0.8,0.5,1,0.8c0.3,0.4,0.4,0.8,0.4,1.3c0,0.7-0.2,1.2-0.6,1.7c-0.5,0.5-1.1,0.8-1.8,0.8h-2.8c-0.4,0-0.6-0.1-0.8-0.4
		c-0.2-0.2-0.3-0.5-0.3-0.8v-6.4c0-0.3,0.1-0.6,0.3-0.8c0.2-0.2,0.5-0.4,0.8-0.4H281.9z M283,486.9c0.3-0.3,0.4-0.7,0.4-1.1
		c0-0.4-0.1-0.8-0.4-1.1c-0.3-0.3-0.7-0.5-1.2-0.5h-2.4c-0.2,0-0.3,0.1-0.4,0.2c-0.1,0.1-0.1,0.2-0.1,0.4v2.6h2.9
		C282.3,487.4,282.7,487.2,283,486.9z M283.4,491c0.3-0.3,0.4-0.7,0.4-1.2s-0.2-0.9-0.5-1.2c-0.3-0.4-0.8-0.6-1.3-0.6h-3.1v3
		c0,0.1,0,0.3,0.1,0.4c0.1,0.1,0.2,0.2,0.4,0.2h2.6C282.6,491.6,283,491.4,283.4,491z"/>
	<path d="M286.3,483.5c0.1-0.1,0.2-0.1,0.3-0.1c0.1,0,0.2,0,0.2,0.1c0.1,0.1,0.1,0.2,0.1,0.3v8.3c0,0.1,0,0.2-0.1,0.3
		c-0.1,0.1-0.2,0.1-0.2,0.1c-0.1,0-0.2,0-0.3-0.1c-0.1-0.1-0.1-0.2-0.1-0.3v-8.3C286.2,483.6,286.2,483.5,286.3,483.5z"/>
	<path d="M293.7,492.2c-0.1,0.1-0.2,0.1-0.3,0.1s-0.2,0-0.3-0.1c-0.1-0.1-0.1-0.2-0.1-0.3v-0.5c-0.3,0.3-0.5,0.5-0.9,0.7
		c-0.4,0.2-0.8,0.3-1.2,0.3c-0.6,0-1.1-0.2-1.5-0.6c-0.3-0.4-0.5-0.8-0.5-1.3v-4.5c0-0.1,0-0.2,0.1-0.3s0.2-0.1,0.3-0.1
		c0.1,0,0.2,0,0.2,0.1c0.1,0.1,0.1,0.2,0.1,0.3v4.5c0,0.3,0.1,0.6,0.3,0.8c0.2,0.3,0.5,0.4,0.9,0.4c0.4,0,0.8-0.1,1.1-0.3
		c0.3-0.2,0.7-0.5,0.9-0.9v-4.4c0-0.1,0-0.2,0.1-0.3s0.2-0.1,0.3-0.1s0.2,0,0.3,0.1c0.1,0.1,0.1,0.2,0.1,0.3v5.9
		C293.8,492.1,293.7,492.1,293.7,492.2z"/>
	<path d="M300.2,490.2c0.1,0,0.2,0,0.3,0c0.1,0,0.2,0.1,0.2,0.2c0,0.1,0,0.2,0,0.3c-0.2,0.5-0.6,1-1,1.3c-0.4,0.3-1,0.5-1.5,0.5
		c-0.8,0-1.5-0.3-2-1c-0.4-0.6-0.7-1.4-0.7-2.3c0-0.9,0.2-1.7,0.7-2.3c0.5-0.7,1.2-1,2-1s1.5,0.3,2,1c0.5,0.6,0.7,1.4,0.7,2.3v0.2
		h-4.6c0,0.7,0.2,1.2,0.5,1.7c0.4,0.5,0.8,0.8,1.4,0.8c0.5,0,0.9-0.1,1.2-0.4c0.2-0.2,0.5-0.5,0.6-0.9
		C300,490.3,300.1,490.2,300.2,490.2z M300.1,488.6c0-0.6-0.2-1-0.5-1.5c-0.4-0.5-0.8-0.8-1.4-0.8s-1,0.3-1.4,0.8
		c-0.3,0.4-0.5,0.9-0.5,1.5H300.1z"/>
	<path d="M302.7,485.9c0.1-0.1,0.2-0.1,0.3-0.1c0.1,0,0.2,0,0.2,0.1c0.1,0.1,0.1,0.2,0.1,0.3v0.4c0.2-0.3,0.4-0.5,0.7-0.6
		c0.4-0.2,0.7-0.3,1.1-0.3c0.5,0,0.9,0.1,1.2,0.4c0.2,0.2,0.4,0.4,0.6,0.7c0.2-0.3,0.5-0.6,0.8-0.8c0.4-0.2,0.8-0.3,1.2-0.3
		c0.6,0,1.1,0.2,1.5,0.6c0.3,0.3,0.5,0.7,0.5,1.1v4.7c0,0.1,0,0.2-0.1,0.3c-0.1,0.1-0.2,0.1-0.2,0.1c-0.1,0-0.2,0-0.3-0.1
		c-0.1-0.1-0.1-0.2-0.1-0.3v-4.5c0-0.3-0.1-0.6-0.3-0.8c-0.2-0.2-0.5-0.3-0.9-0.3c-0.4,0-0.8,0.1-1.1,0.3c-0.3,0.2-0.5,0.5-0.8,0.9
		v4.4c0,0.1,0,0.2-0.1,0.3c-0.1,0.1-0.2,0.1-0.2,0.1c-0.1,0-0.2,0-0.3-0.1c-0.1-0.1-0.1-0.2-0.1-0.3v-4.5c0-0.3-0.1-0.6-0.3-0.8
		c-0.2-0.2-0.5-0.3-0.9-0.3c-0.4,0-0.8,0.1-1.1,0.3s-0.6,0.5-0.8,0.9v4.5c0,0.1,0,0.2-0.1,0.3c-0.1,0.1-0.2,0.1-0.2,0.1
		c-0.1,0-0.2,0-0.3-0.1c-0.1-0.1-0.1-0.2-0.1-0.3v-5.8C302.6,486.1,302.7,486,302.7,485.9z"/>
	<path d="M313.9,483.6c0.1,0.1,0.2,0.3,0.2,0.4c0,0.2-0.1,0.3-0.2,0.4c-0.1,0.1-0.3,0.2-0.4,0.2c-0.2,0-0.3-0.1-0.4-0.2
		c-0.1-0.1-0.1-0.2-0.1-0.4c0-0.2,0-0.3,0.1-0.4c0.1-0.1,0.2-0.2,0.4-0.2C313.6,483.4,313.8,483.5,313.9,483.6z M313.2,485.8
		c0.1-0.1,0.2-0.1,0.3-0.1s0.2,0,0.3,0.1c0.1,0.1,0.1,0.1,0.1,0.3v6c0,0.1,0,0.2-0.1,0.3c-0.1,0.1-0.2,0.1-0.3,0.1s-0.2,0-0.3-0.1
		c-0.1-0.1-0.1-0.2-0.1-0.3v-6C313.1,486,313.1,485.9,313.2,485.8z"/>
	<path d="M315.3,486c0-0.1,0.1-0.1,0.2-0.2s0.2-0.1,0.3-0.1c0.1,0,0.2,0.1,0.3,0.2l1.7,2.4l1.7-2.4c0.1-0.1,0.1-0.1,0.2-0.2
		c0.1,0,0.2,0,0.3,0.1c0.1,0,0.2,0.1,0.2,0.2c0,0.1,0,0.2,0,0.3l-1.9,2.6l2,3c0.1,0.1,0.1,0.2,0,0.3c0,0.1-0.1,0.2-0.2,0.2
		c-0.1,0-0.2,0.1-0.3,0c-0.1,0-0.2-0.1-0.3-0.2l-1.8-2.7l-1.8,2.7c-0.1,0.1-0.2,0.2-0.3,0.2c-0.1,0-0.2,0-0.3,0
		c-0.1-0.1-0.2-0.1-0.2-0.2c0-0.1,0-0.2,0.1-0.3l2.1-3l-1.9-2.6C315.3,486.1,315.2,486.1,315.3,486z"/>
	<path d="M332.2,484.6c0.1,0.1,0.1,0.1,0.1,0.2s0,0.1-0.1,0.2c-0.1,0.1-0.1,0.1-0.2,0.1h-5.6c-0.2,0-0.3-0.1-0.3-0.3
		c0-0.2,0.1-0.3,0.3-0.3h5.6C332.1,484.5,332.2,484.5,332.2,484.6z M331.3,486.1c0.5,0.3,0.7,0.7,0.7,1.1c0,0.4-0.2,0.8-0.7,1.1
		c-0.5,0.3-1.2,0.5-2.1,0.5c-0.9,0-1.6-0.2-2.1-0.5c-0.5-0.3-0.7-0.7-0.7-1.1c0-0.4,0.2-0.8,0.7-1.1c0.5-0.3,1.2-0.5,2.1-0.5
		C330.1,485.6,330.8,485.8,331.3,486.1z M334,489.2c0.1-0.1,0.1-0.1,0.2-0.1c0.1,0,0.2,0,0.2,0.1c0.1,0.1,0.1,0.1,0.1,0.3v2.3
		c0,0.2-0.1,0.4-0.2,0.6c-0.2,0.2-0.4,0.2-0.7,0.2h-5.7c-0.3,0-0.5-0.1-0.7-0.2c-0.1-0.2-0.2-0.4-0.2-0.6v-2.3c0-0.1,0-0.2,0.1-0.3
		c0.1-0.1,0.1-0.1,0.2-0.1c0.1,0,0.2,0,0.2,0.1c0.1,0.1,0.1,0.1,0.1,0.3v0.7h6.1v-0.7C333.9,489.3,333.9,489.2,334,489.2z
		 M327.7,486.5c-0.3,0.2-0.5,0.4-0.5,0.7c0,0.3,0.2,0.5,0.5,0.7c0.4,0.2,0.9,0.3,1.6,0.3c0.6,0,1.2-0.1,1.5-0.3
		c0.3-0.2,0.5-0.4,0.5-0.7c0-0.3-0.2-0.5-0.5-0.7c-0.4-0.2-0.9-0.3-1.5-0.3C328.6,486.2,328.1,486.3,327.7,486.5z M331.1,483.4
		c0,0.2-0.1,0.3-0.3,0.3h-3.1c-0.2,0-0.3-0.1-0.3-0.3c0-0.2,0.1-0.3,0.3-0.3h3.1C331,483.1,331.1,483.2,331.1,483.4z M327.8,490.7
		v0.8c0,0.1,0,0.2,0.1,0.3c0.1,0.1,0.2,0.1,0.3,0.1h5.3c0.2,0,0.3,0,0.3-0.1c0.1-0.1,0.1-0.2,0.1-0.3v-0.8H327.8z M334.5,488.5
		c-0.1,0.1-0.1,0.1-0.2,0.1c-0.1,0-0.2,0-0.2-0.1c-0.1-0.1-0.1-0.2-0.1-0.3v-0.2h-1.7c-0.3,0-0.4-0.1-0.4-0.3s0.1-0.3,0.4-0.3h1.7
		v-1.3h-1.7c-0.1,0-0.2,0-0.3-0.1c-0.1-0.1-0.1-0.1-0.1-0.2c0-0.1,0-0.1,0.1-0.2c0.1-0.1,0.1-0.1,0.2-0.1h1.8v-2.3
		c0-0.1,0-0.2,0.1-0.2c0.1-0.1,0.1-0.1,0.2-0.1c0.1,0,0.2,0,0.2,0.1c0.1,0.1,0.1,0.1,0.1,0.2v5C334.6,488.4,334.6,488.4,334.5,488.5
		z"/>
	<path d="M343,483.9c0.4,0.5,0.7,1,0.7,1.7c0,0.7-0.2,1.2-0.7,1.7c-0.5,0.5-1.1,0.7-2,0.7c-0.9,0-1.5-0.2-2-0.7
		c-0.4-0.4-0.7-1-0.7-1.7c0-0.7,0.2-1.2,0.7-1.7c0.5-0.5,1.2-0.7,2-0.7C341.9,483.2,342.5,483.5,343,483.9z M339.5,484.4
		c-0.3,0.3-0.5,0.8-0.5,1.3c0,0.5,0.2,0.9,0.5,1.3c0.4,0.4,0.9,0.6,1.5,0.6c0.6,0,1.1-0.2,1.5-0.6c0.3-0.3,0.5-0.8,0.5-1.3
		c0-0.5-0.2-0.9-0.5-1.3c-0.4-0.4-0.9-0.6-1.5-0.6C340.4,483.8,339.9,484,339.5,484.4z M346,489c0.1-0.1,0.1-0.1,0.2-0.1
		c0.1,0,0.2,0,0.2,0.1c0.1,0.1,0.1,0.1,0.1,0.3v2.4c0,0.2-0.1,0.4-0.2,0.6c-0.2,0.2-0.4,0.2-0.7,0.2H340c-0.3,0-0.5-0.1-0.6-0.2
		c-0.1-0.2-0.2-0.4-0.2-0.6v-2.4c0-0.1,0-0.2,0.1-0.3c0.1-0.1,0.1-0.1,0.2-0.1s0.2,0,0.2,0.1c0.1,0.1,0.1,0.1,0.1,0.3v0.7h6.1v-0.7
		C345.9,489.1,345.9,489.1,346,489z M339.8,490.6v0.9c0,0.1,0,0.2,0.1,0.3c0.1,0.1,0.2,0.1,0.4,0.1h5.2c0.2,0,0.3,0,0.3-0.1
		c0.1-0.1,0.1-0.2,0.1-0.3v-1H339.8z M346.5,488.3c-0.1,0.1-0.1,0.1-0.2,0.1c-0.1,0-0.2,0-0.2-0.1c-0.1-0.1-0.1-0.2-0.1-0.3v-2H344
		c-0.1,0-0.2,0-0.3-0.1c-0.1-0.1-0.1-0.1-0.1-0.2c0-0.1,0-0.1,0.1-0.2c0.1-0.1,0.1-0.1,0.2-0.1h2v-2c0-0.1,0-0.2,0.1-0.3
		c0.1-0.1,0.1-0.1,0.2-0.1c0.1,0,0.2,0,0.2,0.1c0.1,0.1,0.1,0.1,0.1,0.3v4.6C346.6,488.1,346.6,488.2,346.5,488.3z"/>
</g>
<g>
	<path d="M231.3,434.1c0.3-0.1,0.9-0.1,1.4-0.1c0.8,0,1.3,0.1,1.7,0.4c0.3,0.2,0.5,0.6,0.5,1.1c0,0.6-0.4,1.1-1,1.3v0
		c0.6,0.1,1.3,0.6,1.3,1.5c0,0.5-0.2,0.9-0.5,1.2c-0.4,0.4-1.1,0.6-2.1,0.6c-0.5,0-1,0-1.2-0.1V434.1z M232.1,436.6h0.7
		c0.8,0,1.3-0.4,1.3-1c0-0.7-0.5-1-1.3-1c-0.4,0-0.6,0-0.7,0.1V436.6z M232.1,439.5c0.2,0,0.4,0,0.7,0c0.8,0,1.6-0.3,1.6-1.2
		c0-0.8-0.7-1.2-1.6-1.2h-0.6V439.5z"/>
	<path d="M236.2,433.7h0.8v6.4h-0.8V433.7z"/>
	<path d="M241.9,438.9c0,0.5,0,0.8,0,1.2h-0.7l0-0.7h0c-0.2,0.4-0.7,0.8-1.4,0.8c-0.7,0-1.5-0.4-1.5-1.9v-2.5h0.8v2.4
		c0,0.8,0.3,1.4,1,1.4c0.5,0,0.9-0.4,1-0.7c0-0.1,0.1-0.3,0.1-0.4v-2.7h0.8V438.9z"/>
	<path d="M243.7,438.1c0,1.1,0.7,1.5,1.5,1.5c0.6,0,0.9-0.1,1.2-0.2l0.1,0.6c-0.3,0.1-0.8,0.3-1.4,0.3c-1.3,0-2.1-0.9-2.1-2.2
		s0.8-2.3,2-2.3c1.4,0,1.8,1.3,1.8,2.1c0,0.2,0,0.3,0,0.4H243.7z M246,437.5c0-0.5-0.2-1.3-1.1-1.3c-0.8,0-1.2,0.7-1.2,1.3H246z"/>
	<path d="M247.7,436.9c0-0.5,0-0.8,0-1.2h0.7l0,0.7h0c0.2-0.4,0.6-0.8,1.4-0.8c0.6,0,1,0.4,1.2,0.9h0c0.1-0.2,0.3-0.4,0.5-0.6
		c0.3-0.2,0.5-0.3,1-0.3c0.6,0,1.4,0.4,1.4,1.9v2.6h-0.8v-2.5c0-0.8-0.3-1.3-0.9-1.3c-0.5,0-0.8,0.3-0.9,0.7c0,0.1-0.1,0.3-0.1,0.4
		v2.7h-0.8v-2.6c0-0.7-0.3-1.2-0.9-1.2c-0.5,0-0.9,0.4-1,0.8c0,0.1-0.1,0.3-0.1,0.4v2.6h-0.8V436.9z"/>
	<path d="M256.1,434.5c0,0.3-0.2,0.5-0.5,0.5c-0.3,0-0.5-0.2-0.5-0.5c0-0.3,0.2-0.5,0.5-0.5C255.9,434,256.1,434.3,256.1,434.5z
		 M255.3,440.1v-4.4h0.8v4.4H255.3z"/>
	<path d="M257.7,435.8l0.6,0.9c0.2,0.2,0.3,0.5,0.4,0.7h0c0.1-0.3,0.3-0.5,0.4-0.7l0.6-0.9h0.9l-1.5,2.1l1.5,2.3h-0.9l-0.6-1
		c-0.2-0.3-0.3-0.5-0.5-0.8h0c-0.1,0.3-0.3,0.5-0.5,0.8l-0.6,1h-0.9l1.5-2.2l-1.5-2.1H257.7z"/>
	<path d="M243.4,444.5c0,0.2-0.1,0.2-0.2,0.2h-1.7v1.4c0,0.9,0.2,1.7,0.6,2.5c0.4,0.7,0.9,1.3,1.5,1.6c0.1,0,0.1,0.1,0.1,0.2
		s0,0.1,0,0.2c0,0.1-0.1,0.1-0.2,0.1c-0.1,0-0.2,0-0.2,0c-0.5-0.3-0.9-0.7-1.3-1.2c-0.4-0.6-0.6-1.2-0.7-1.8
		c-0.1,0.6-0.4,1.2-0.8,1.8c-0.4,0.6-0.8,1-1.3,1.2c-0.1,0-0.1,0-0.2,0c-0.1,0-0.1-0.1-0.1-0.1c0-0.1,0-0.1,0-0.2
		c0-0.1,0.1-0.1,0.1-0.2c0.6-0.3,1.1-0.8,1.5-1.6c0.4-0.8,0.6-1.6,0.6-2.5v-1.4h-1.7c-0.2,0-0.2-0.1-0.2-0.2c0-0.1,0.1-0.2,0.2-0.2
		h4C243.3,444.3,243.4,444.3,243.4,444.5z M244.9,451.3c0,0-0.1,0.1-0.2,0.1c-0.1,0-0.1,0-0.2-0.1c-0.1-0.1-0.1-0.1-0.1-0.2v-6.8
		c0-0.1,0-0.1,0.1-0.2c0,0,0.1-0.1,0.2-0.1c0.1,0,0.1,0,0.2,0.1c0.1,0,0.1,0.1,0.1,0.2v6.8C245,451.2,245,451.2,244.9,451.3z"/>
	<path d="M247.6,447.8c-0.1,0-0.2-0.1-0.2-0.2c0-0.1,0.1-0.2,0.2-0.2c0.8,0,1.7,0,2.6,0c1,0,1.7,0,2.3-0.1c0.1,0,0.1,0,0.2,0
		c0,0,0.1,0.1,0.1,0.1c0,0.1,0,0.1-0.1,0.1c0,0.1-0.1,0.1-0.2,0.1l-2.2,0.1v0.4c0,0.2,0,0.4-0.1,0.6c-0.1,0.2-0.1,0.4-0.2,0.5
		c-0.1,0.1-0.2,0.1-0.3,0c-0.1-0.1-0.1-0.2,0-0.3c0.1-0.1,0.1-0.2,0.1-0.3s0.1-0.3,0.1-0.4v-0.4L247.6,447.8z M252,444.6
		c0.4,0.2,0.6,0.5,0.6,0.9c0,0.4-0.2,0.6-0.6,0.9c-0.4,0.3-1,0.4-1.7,0.4c-0.8,0-1.3-0.1-1.7-0.4c-0.4-0.2-0.6-0.5-0.6-0.9
		c0-0.4,0.2-0.7,0.6-0.9c0.4-0.3,1-0.4,1.7-0.4C251,444.2,251.5,444.3,252,444.6z M248.9,450.3c0,0.2,0,0.3,0.1,0.3
		c0.1,0.1,0.2,0.1,0.3,0.1h4.8c0.2,0,0.2,0.1,0.2,0.2c0,0.2-0.1,0.2-0.2,0.2h-4.9c-0.2,0-0.4-0.1-0.6-0.2s-0.2-0.3-0.2-0.6v-1.1
		c0-0.1,0-0.1,0.1-0.2c0,0,0.1-0.1,0.2-0.1c0.1,0,0.1,0,0.2,0.1c0.1,0,0.1,0.1,0.1,0.2V450.3z M248.9,444.9
		c-0.3,0.2-0.4,0.3-0.4,0.6c0,0.2,0.1,0.4,0.4,0.6c0.3,0.2,0.8,0.3,1.4,0.3c0.6,0,1-0.1,1.4-0.3c0.3-0.2,0.4-0.3,0.4-0.6
		c0-0.2-0.1-0.4-0.4-0.6c-0.3-0.2-0.8-0.3-1.4-0.3C249.6,444.6,249.2,444.7,248.9,444.9z M253.9,449.4c0,0-0.1,0.1-0.2,0.1
		c-0.1,0-0.1,0-0.2-0.1c-0.1-0.1-0.1-0.1-0.1-0.2v-0.7h-1.7c-0.1,0-0.2,0-0.2-0.1c-0.1,0-0.1-0.1-0.1-0.1c0-0.1,0-0.1,0.1-0.2
		c0,0,0.1-0.1,0.2-0.1h1.7v-3.8c0-0.1,0-0.1,0.1-0.2c0,0,0.1-0.1,0.2-0.1c0.1,0,0.1,0,0.2,0.1c0.1,0,0.1,0.1,0.1,0.2v5
		C254,449.3,254,449.4,253.9,449.4z"/>
</g>
<g>
	<path d="M309.3,434.1c0.3-0.1,0.9-0.1,1.4-0.1c0.8,0,1.3,0.1,1.7,0.4c0.3,0.2,0.5,0.6,0.5,1.1c0,0.6-0.4,1.1-1,1.3v0
		c0.6,0.1,1.3,0.6,1.3,1.5c0,0.5-0.2,0.9-0.5,1.2c-0.4,0.4-1.1,0.6-2.1,0.6c-0.5,0-1,0-1.2-0.1V434.1z M310.1,436.6h0.7
		c0.8,0,1.3-0.4,1.3-1c0-0.7-0.5-1-1.3-1c-0.4,0-0.6,0-0.7,0.1V436.6z M310.1,439.5c0.2,0,0.4,0,0.7,0c0.8,0,1.6-0.3,1.6-1.2
		c0-0.8-0.7-1.2-1.6-1.2h-0.6V439.5z"/>
	<path d="M314.2,433.7h0.8v6.4h-0.8V433.7z"/>
	<path d="M319.9,438.9c0,0.5,0,0.8,0,1.2h-0.7l0-0.7h0c-0.2,0.4-0.7,0.8-1.4,0.8c-0.7,0-1.5-0.4-1.5-1.9v-2.5h0.8v2.4
		c0,0.8,0.3,1.4,1,1.4c0.5,0,0.9-0.4,1-0.7c0-0.1,0.1-0.3,0.1-0.4v-2.7h0.8V438.9z"/>
	<path d="M321.7,438.1c0,1.1,0.7,1.5,1.5,1.5c0.6,0,0.9-0.1,1.2-0.2l0.1,0.6c-0.3,0.1-0.8,0.3-1.4,0.3c-1.3,0-2.1-0.9-2.1-2.2
		s0.8-2.3,2-2.3c1.4,0,1.8,1.3,1.8,2.1c0,0.2,0,0.3,0,0.4H321.7z M324,437.5c0-0.5-0.2-1.3-1.1-1.3c-0.8,0-1.2,0.7-1.2,1.3H324z"/>
	<path d="M325.7,436.9c0-0.5,0-0.8,0-1.2h0.7l0,0.7h0c0.2-0.4,0.6-0.8,1.4-0.8c0.6,0,1,0.4,1.2,0.9h0c0.1-0.2,0.3-0.4,0.5-0.6
		c0.3-0.2,0.5-0.3,1-0.3c0.6,0,1.4,0.4,1.4,1.9v2.6h-0.8v-2.5c0-0.8-0.3-1.3-0.9-1.3c-0.5,0-0.8,0.3-0.9,0.7c0,0.1-0.1,0.3-0.1,0.4
		v2.7h-0.8v-2.6c0-0.7-0.3-1.2-0.9-1.2c-0.5,0-0.9,0.4-1,0.8c0,0.1-0.1,0.3-0.1,0.4v2.6h-0.8V436.9z"/>
	<path d="M334.1,434.5c0,0.3-0.2,0.5-0.5,0.5c-0.3,0-0.5-0.2-0.5-0.5c0-0.3,0.2-0.5,0.5-0.5C333.9,434,334.1,434.3,334.1,434.5z
		 M333.3,440.1v-4.4h0.8v4.4H333.3z"/>
	<path d="M335.7,435.8l0.6,0.9c0.2,0.2,0.3,0.5,0.4,0.7h0c0.1-0.3,0.3-0.5,0.4-0.7l0.6-0.9h0.9l-1.5,2.1l1.5,2.3h-0.9l-0.6-1
		c-0.2-0.3-0.3-0.5-0.5-0.8h0c-0.1,0.3-0.3,0.5-0.5,0.8l-0.6,1h-0.9l1.5-2.2l-1.5-2.1H335.7z"/>
	<path d="M306.5,448.3c0,0,0.1-0.1,0.2-0.1c0.1,0,0.1,0,0.2,0.1c0.1,0,0.1,0.1,0.1,0.2v1.8h3.2c0.1,0,0.1,0,0.2,0.1
		c0,0,0.1,0.1,0.1,0.2s0,0.1-0.1,0.2s-0.1,0.1-0.2,0.1h-6.9c-0.1,0-0.1,0-0.1-0.1s0-0.1,0-0.2s0-0.1,0.1-0.2c0,0,0.1-0.1,0.2-0.1
		h3.2v-1.8C306.4,448.4,306.5,448.4,306.5,448.3z M309,444.8c0.5,0.4,0.8,0.9,0.8,1.5c0,0.6-0.3,1.1-0.8,1.4
		c-0.6,0.4-1.3,0.6-2.3,0.6c-1,0-1.8-0.2-2.3-0.6c-0.5-0.4-0.8-0.8-0.8-1.4c0-0.6,0.3-1.1,0.8-1.5c0.6-0.4,1.3-0.6,2.3-0.6
		C307.7,444.2,308.4,444.4,309,444.8z M304.8,445.1c-0.4,0.3-0.6,0.7-0.6,1.2c0,0.5,0.2,0.9,0.6,1.1c0.5,0.3,1.1,0.4,1.9,0.4
		c0.8,0,1.5-0.1,1.9-0.4c0.4-0.3,0.6-0.7,0.6-1.1c0-0.5-0.2-0.9-0.6-1.2c-0.5-0.3-1.1-0.5-1.9-0.5
		C305.9,444.6,305.2,444.8,304.8,445.1z"/>
	<path d="M313.1,445.3c0,0,0.1-0.1,0.2-0.1s0.1,0,0.2,0.1c0.1,0,0.1,0.1,0.1,0.2c0,0.7,0,1.5,0.1,2.3c0.1,1,0.1,1.8,0.2,2.4
		c0.2,0,0.4,0,0.6,0c0.2,0,0.4,0,0.6,0c0.1-0.6,0.1-1.3,0.2-2.2c0-0.8,0.1-1.6,0.1-2.4c0-0.2,0.1-0.2,0.3-0.2s0.3,0.1,0.3,0.2
		c0,0.7,0,1.5-0.1,2.4c0,0.9-0.1,1.6-0.2,2.2l0.2,0c0.2,0,0.4-0.1,0.5-0.1c0.2,0,0.3-0.1,0.4-0.1c0.1,0,0.2,0,0.2,0
		c0,0,0.1,0.1,0.1,0.1c0,0.1,0,0.1,0,0.2c0,0.1-0.1,0.1-0.2,0.1c-0.5,0.2-1.2,0.3-2,0.3c-0.7,0.1-1.6,0.1-2.5,0.1
		c-0.2,0-0.3-0.1-0.3-0.2c0-0.1,0.1-0.2,0.3-0.2l1,0c-0.1-0.6-0.1-1.4-0.2-2.3c0-0.9-0.1-1.7-0.1-2.4
		C313.1,445.4,313.1,445.3,313.1,445.3z M316.6,444.5c0,0.2-0.1,0.2-0.3,0.2h-3.8c-0.2,0-0.2-0.1-0.2-0.2c0-0.1,0.1-0.2,0.2-0.2h3.8
		C316.5,444.3,316.6,444.3,316.6,444.5z M318.4,451.3c0,0.1-0.1,0.1-0.2,0.1c-0.1,0-0.1,0-0.2-0.1c-0.1-0.1-0.1-0.1-0.1-0.2v-3.4
		h-1.5c-0.1,0-0.2,0-0.2-0.1c0,0-0.1-0.1-0.1-0.2c0-0.1,0-0.1,0.1-0.2c0,0,0.1-0.1,0.2-0.1h1.5v-2.9c0-0.1,0-0.2,0.1-0.2
		c0,0,0.1-0.1,0.2-0.1c0.1,0,0.1,0,0.2,0.1c0.1,0,0.1,0.1,0.1,0.2v6.8C318.5,451.1,318.5,451.2,318.4,451.3z"/>
	<path d="M324,444.4c0.2,0.1,0.2,0.3,0.2,0.5v1.7c0,0.2-0.1,0.4-0.2,0.5c-0.1,0.1-0.3,0.2-0.5,0.2h-1.2c-0.1,0-0.2,0-0.3,0.1
		c-0.1,0.1-0.1,0.2-0.1,0.3v2c0,0.2,0,0.3,0.1,0.3s0.2,0.1,0.4,0.1c0.4,0,0.8,0,1.1-0.1c0.4-0.1,0.7-0.2,1.1-0.3c0.1,0,0.2,0,0.2,0
		c0.1,0,0.1,0.1,0.1,0.1c0,0.1,0,0.1,0,0.2c0,0.1-0.1,0.1-0.1,0.1c-0.4,0.2-0.8,0.3-1.2,0.4c-0.4,0.1-0.8,0.1-1.3,0.1
		c-0.3,0-0.5-0.1-0.6-0.2c-0.1-0.1-0.2-0.3-0.2-0.6v-2.1c0-0.2,0.1-0.4,0.2-0.6c0.2-0.2,0.4-0.2,0.6-0.2h1.1c0.1,0,0.2,0,0.3-0.1
		c0.1,0,0.1-0.1,0.1-0.3V445c0-0.1,0-0.2-0.1-0.3c-0.1-0.1-0.2-0.1-0.4-0.1h-1.6c-0.2,0-0.3-0.1-0.3-0.2c0-0.1,0.1-0.2,0.3-0.2h1.7
		C323.7,444.3,323.9,444.3,324,444.4z M325.7,444.1c0,0,0.1-0.1,0.2-0.1c0.1,0,0.1,0,0.2,0.1c0.1,0,0.1,0.1,0.1,0.2v6.8
		c0,0.1,0,0.1-0.1,0.2c0,0-0.1,0.1-0.2,0.1c-0.1,0-0.1,0-0.2-0.1c-0.1-0.1-0.1-0.1-0.1-0.2v-3.6h-1.2c-0.1,0-0.2,0-0.2-0.1
		c0,0-0.1-0.1-0.1-0.1c0-0.1,0-0.1,0.1-0.2c0,0,0.1-0.1,0.2-0.1h1.2v-2.8C325.6,444.2,325.6,444.1,325.7,444.1z M327.7,451.3
		c0,0-0.1,0.1-0.2,0.1c-0.1,0-0.1,0-0.2-0.1c-0.1-0.1-0.1-0.1-0.1-0.2v-6.8c0-0.1,0-0.1,0.1-0.2c0,0,0.1-0.1,0.2-0.1
		c0.1,0,0.1,0,0.2,0.1c0.1,0,0.1,0.1,0.1,0.2v6.8C327.8,451.2,327.7,451.2,327.7,451.3z"/>
	<path d="M333.8,445.2c0.3,0.6,0.5,1.3,0.5,2.3c0,0.9-0.2,1.6-0.5,2.2c-0.4,0.7-0.9,1-1.5,1c-0.6,0-1.2-0.3-1.5-1
		c-0.3-0.6-0.5-1.3-0.5-2.2c0-0.9,0.2-1.7,0.5-2.3c0.4-0.7,0.9-1,1.5-1C333,444.2,333.5,444.6,333.8,445.2z M331.2,445.5
		c-0.2,0.5-0.4,1.2-0.4,1.9c0,0.8,0.1,1.4,0.4,1.9c0.3,0.6,0.6,0.8,1.1,0.8c0.5,0,0.8-0.3,1.1-0.8c0.2-0.5,0.4-1.2,0.4-1.9
		c0-0.8-0.1-1.4-0.4-1.9c-0.3-0.6-0.6-0.8-1.1-0.8C331.9,444.7,331.5,445,331.2,445.5z M336.4,451.3c0,0-0.1,0.1-0.2,0.1
		c-0.1,0-0.1,0-0.2-0.1c-0.1-0.1-0.1-0.1-0.1-0.2v-6.8c0-0.1,0-0.1,0.1-0.2c0,0,0.1-0.1,0.2-0.1c0.1,0,0.1,0,0.2,0.1
		c0.1,0,0.1,0.1,0.1,0.2v6.8C336.5,451.2,336.5,451.2,336.4,451.3z"/>
	<path d="M341.2,444.3c0,0,0.1-0.1,0.2-0.1c0.1,0,0.1,0,0.2,0.1c0.1,0,0.1,0.1,0.1,0.2c0,0.3,0,0.6-0.1,0.8c0,0.3-0.1,0.6-0.2,0.8
		c0.4,0.3,0.8,0.6,1.2,0.9c0.4,0.3,0.7,0.7,1.1,1.1c0.1,0.1,0.1,0.2,0.1,0.2c0,0.1,0,0.1-0.1,0.2c-0.1,0-0.1,0.1-0.2,0.1
		c-0.1,0-0.1,0-0.2-0.1c-0.3-0.4-0.6-0.8-1-1.1c-0.3-0.3-0.7-0.6-1-0.9c-0.2,0.4-0.4,0.7-0.6,1.1c-0.3,0.4-0.7,0.8-1.1,1.2
		c-0.1,0-0.1,0.1-0.2,0.1c-0.1,0-0.1,0-0.2-0.1c0-0.1-0.1-0.1-0.1-0.2c0-0.1,0.1-0.1,0.1-0.2c0.6-0.5,1.1-1,1.4-1.7
		c0.4-0.7,0.6-1.4,0.6-2.2C341.2,444.4,341.2,444.3,341.2,444.3z M340.4,450.3c0,0.2,0,0.3,0.1,0.3c0.1,0.1,0.2,0.1,0.3,0.1h4.7
		c0.1,0,0.2,0.1,0.2,0.2c0,0.2-0.1,0.2-0.2,0.2h-4.8c-0.3,0-0.5-0.1-0.6-0.2c-0.2-0.1-0.2-0.3-0.2-0.6v-1.2c0-0.1,0-0.2,0.1-0.2
		c0,0,0.1-0.1,0.2-0.1c0.1,0,0.1,0,0.2,0.1c0.1,0.1,0.1,0.1,0.1,0.2V450.3z M345.4,449.3c0,0-0.1,0.1-0.2,0.1c-0.1,0-0.1,0-0.2-0.1
		c-0.1-0.1-0.1-0.1-0.1-0.2V447h-2.1c-0.2,0-0.3-0.1-0.3-0.2c0-0.1,0.1-0.2,0.3-0.2h2.1v-1h-2c-0.1,0-0.2,0-0.2-0.1
		c0,0-0.1-0.1-0.1-0.2c0-0.1,0-0.1,0.1-0.2c0,0,0.1-0.1,0.2-0.1h2v-0.8c0-0.1,0-0.1,0.1-0.2c0,0,0.1-0.1,0.2-0.1
		c0.1,0,0.1,0,0.2,0.1c0.1,0,0.1,0.1,0.1,0.2v4.8C345.5,449.2,345.5,449.3,345.4,449.3z"/>
</g>
<g>
</g>
<g>
</g>
<g>
</g>
<g>
</g>
<g>
</g>
<g>
</g>
<g>
</g>
</svg>
