<?xml version="1.0" encoding="utf-8"?>
<!-- Generator: Adobe Illustrator 19.2.1, SVG Export Plug-In . SVG Version: 6.00 Build 0)  -->
<svg version="1.1" id="Layer_1" xmlns="http://www.w3.org/2000/svg" xmlns:xlink="http://www.w3.org/1999/xlink" x="0px" y="0px"
	 viewBox="0 0 24 24" style="enable-background:new 0 0 24 24;" xml:space="preserve">
<style type="text/css">
	.st0{fill:#FF7733;}
</style>
<title>dedicatedicon</title>
<g>
	<path class="st0" d="M12,0C5.4,0,0,5.4,0,12c0,6.6,5.4,12,12,12c6.6,0,12-5.4,12-12C24,5.4,18.7,0,12,0z M12,22C6.5,22,2,17.6,2,12
		C2,6.5,6.5,2,12,2c5.5,0,10,4.5,10,10C22,17.6,17.6,22,12,22z"/>
	<path class="st0" d="M17.6,6H7.5C6.7,6,6,6.7,6,7.5v0.1C6,8.4,6.7,9,7.5,9h10.1C18.4,9,19,8.4,19,7.6V7.5C19,6.7,18.4,6,17.6,6z
		 M7.5,8C7.3,8,7,7.8,7,7.5C7,7.3,7.3,7,7.5,7C7.8,7,8,7.3,8,7.5C8,7.8,7.8,8,7.5,8z"/>
	<path class="st0" d="M17.6,10H7.5C6.7,10,6,10.7,6,11.5v0.1C6,12.4,6.7,13,7.5,13h10.1c0.8,0,1.5-0.7,1.5-1.5v-0.1
		C19,10.7,18.4,10,17.6,10z M7.6,12L7.6,12c-0.3,0-0.5-0.2-0.5-0.5c0-0.3,0.2-0.5,0.5-0.5s0.5,0.2,0.5,0.5C8.1,11.8,7.9,12,7.6,12z"
		/>
	<path class="st0" d="M17.6,14H7.5C6.7,14,6,14.7,6,15.5v0.1C6,16.4,6.7,17,7.5,17H12h5.5c0.8,0,1.5-0.7,1.5-1.5v-0.1
		C19,14.7,18.4,14,17.6,14z M7.6,16L7.6,16c-0.3,0-0.5-0.2-0.5-0.5c0-0.3,0.2-0.5,0.5-0.5s0.5,0.2,0.5,0.5C8.1,15.8,7.9,16,7.6,16z"
		/>
	<path class="st0" d="M11.5,17.5V18H11c-0.3,0-0.5,0.2-0.5,0.5c0,0.3,0.2,0.5,0.5,0.5h2c0.3,0,0.5-0.2,0.5-0.5
		c0-0.3-0.2-0.5-0.5-0.5h-0.5v-0.5c0-0.3-0.2-0.5-0.5-0.5C11.8,17,11.5,17.3,11.5,17.5z"/>
</g>
</svg>
