<?xml version="1.0" encoding="UTF-8" standalone="no"?>
<!-- Created with Inkscape (http://www.inkscape.org/) -->

<svg
   xmlns:dc="http://purl.org/dc/elements/1.1/"
   xmlns:cc="http://creativecommons.org/ns#"
   xmlns:rdf="http://www.w3.org/1999/02/22-rdf-syntax-ns#"
   xmlns:svg="http://www.w3.org/2000/svg"
   xmlns="http://www.w3.org/2000/svg"
   xmlns:sodipodi="http://sodipodi.sourceforge.net/DTD/sodipodi-0.dtd"
   xmlns:inkscape="http://www.inkscape.org/namespaces/inkscape"
   id="svg2"
   version="1.1"
   inkscape:version="0.48.0 r9654"
   width="765"
   height="788.75"
   xml:space="preserve"
   sodipodi:docname="incidentresponseprocess.svg"><metadata
     id="metadata8"><rdf:RDF><cc:Work
         rdf:about=""><dc:format>image/svg+xml</dc:format><dc:type
           rdf:resource="http://purl.org/dc/dcmitype/StillImage" /><dc:title></dc:title></cc:Work></rdf:RDF></metadata><defs
     id="defs6"><clipPath
       clipPathUnits="userSpaceOnUse"
       id="clipPath16"><path
         d="m 44.809,389.626 0,-20.793 0,-2.601 0,-18.192 0,-2.599 0,-20.793 64.941,0 0,20.793 0,2.599 0,18.192 0,2.601 0,20.793 -64.941,0 z M 94.164,377.93 c 0,2.153 1.745,3.899 3.896,3.899 l 0,0 c 2.152,0 3.896,-1.746 3.896,-3.899 l 0,0 c 0,-2.153 -1.744,-3.899 -3.896,-3.899 l 0,0 c -2.151,0 -3.896,1.746 -3.896,3.899 m -46.756,-11.698 59.746,0 0,-18.193 -59.746,0 0,18.193 z m 0,-20.791 59.746,0 0,-18.194 -59.746,0 0,18.194 z"
         id="path18" /></clipPath><clipPath
       clipPathUnits="userSpaceOnUse"
       id="clipPath26"><path
         d="m 94.164,357.137 c 0,-2.155 1.745,-3.9 3.896,-3.9 l 0,0 c 2.152,0 3.896,1.745 3.896,3.9 l 0,0 c 0,2.153 -1.744,3.899 -3.896,3.899 l 0,0 c -2.151,0 -3.896,-1.746 -3.896,-3.899"
         id="path28" /></clipPath><clipPath
       clipPathUnits="userSpaceOnUse"
       id="clipPath36"><path
         d="m 94.164,336.344 c 0,-2.153 1.745,-3.899 3.896,-3.899 l 0,0 c 2.152,0 3.896,1.746 3.896,3.899 l 0,0 c 0,2.153 -1.744,3.898 -3.896,3.898 l 0,0 c -2.151,0 -3.896,-1.745 -3.896,-3.898"
         id="path38" /></clipPath><clipPath
       clipPathUnits="userSpaceOnUse"
       id="clipPath58"><path
         d="m 76.094,319.905 c 0,-0.655 0.531,-1.186 1.185,-1.186 l 0,0 c 0.655,0 1.186,0.531 1.186,1.186 l 0,0 c 0,0.654 -0.531,1.184 -1.186,1.184 l 0,0 c -0.654,0 -1.185,-0.53 -1.185,-1.184"
         id="path60" /></clipPath><clipPath
       clipPathUnits="userSpaceOnUse"
       id="clipPath76"><path
         d="m 76.094,319.905 c 0,-0.655 0.531,-1.186 1.185,-1.186 l 0,0 c 0.655,0 1.186,0.531 1.186,1.186 l 0,0 c 0,0.654 -0.531,1.184 -1.186,1.184 l 0,0 c -0.654,0 -1.185,-0.53 -1.185,-1.184"
         id="path78" /></clipPath><clipPath
       clipPathUnits="userSpaceOnUse"
       id="clipPath86"><path
         d="m 5,0 599.999,0 0,631 L 5,631 5,0 z"
         id="path88" /></clipPath><clipPath
       clipPathUnits="userSpaceOnUse"
       id="clipPath126"><path
         d="m 5,0 599.999,0 0,631 L 5,631 5,0 z"
         id="path128" /></clipPath><clipPath
       clipPathUnits="userSpaceOnUse"
       id="clipPath166"><path
         d="m 433.156,368.183 c 0,-11.124 9.012,-20.143 20.13,-20.143 l 0,0 c 11.119,0 20.131,9.019 20.131,20.143 l 0,0 c 0,11.125 -9.012,20.144 -20.131,20.144 l 0,0 c -11.118,0 -20.13,-9.019 -20.13,-20.144 m 10.12,15.771 c 2.899,1.848 6.325,2.933 10.01,2.933 l 0,0 c 3.684,0 7.112,-1.085 10.01,-2.933 l 0,0 -5.284,-5.287 c -1.445,0.652 -3.04,1.027 -4.726,1.027 l 0,0 c -1.687,0 -3.282,-0.375 -4.726,-1.027 l 0,0 -5.284,5.287 z m 6.373,-25.153 c -2.63,1.023 -4.72,3.113 -5.741,5.745 l 0,0 c -0.438,1.128 -0.689,2.352 -0.689,3.637 l 0,0 c 0,1.284 0.251,2.508 0.689,3.637 l 0,0 c 1.021,2.631 3.114,4.724 5.741,5.745 l 0,0 c 1.13,0.439 2.354,0.69 3.637,0.69 l 0,0 c 1.283,0 2.506,-0.251 3.637,-0.69 l 0,0 c 2.628,-1.021 4.719,-3.114 5.741,-5.745 l 0,0 c 0.437,-1.129 0.688,-2.353 0.688,-3.637 l 0,0 c 0,-1.285 -0.251,-2.509 -0.688,-3.637 l 0,0 c -1.022,-2.632 -3.112,-4.722 -5.741,-5.745 l 0,0 c -1.129,-0.44 -2.354,-0.689 -3.637,-0.689 l 0,0 c -1.283,0 -2.507,0.249 -3.637,0.689 m 14.115,4.654 c 0.652,1.445 1.026,3.042 1.026,4.728 l 0,0 c 0,1.686 -0.374,3.284 -1.026,4.728 l 0,0 5.284,5.288 c 1.845,-2.9 2.933,-6.331 2.933,-10.016 l 0,0 c 0,-3.686 -1.088,-7.117 -2.933,-10.015 l 0,0 -5.284,5.287 z m -29.172,4.728 c 0,3.685 1.084,7.116 2.932,10.016 l 0,0 5.283,-5.288 c -0.651,-1.444 -1.025,-3.042 -1.025,-4.728 l 0,0 c 0,-1.686 0.374,-3.283 1.025,-4.728 l 0,0 -5.283,-5.287 c -1.848,2.898 -2.932,6.329 -2.932,10.015 m 23.42,-10.482 5.284,-5.289 c -2.898,-1.847 -6.326,-2.933 -10.01,-2.933 l 0,0 c -3.685,0 -7.111,1.086 -10.01,2.933 l 0,0 5.284,5.289 c 1.444,-0.656 3.039,-1.028 4.726,-1.028 l 0,0 c 1.686,0 3.281,0.372 4.726,1.028"
         id="path168" /></clipPath><clipPath
       clipPathUnits="userSpaceOnUse"
       id="clipPath176"><path
         d="m 5,0 599.999,0 0,631 L 5,631 5,0 z"
         id="path178" /></clipPath><clipPath
       clipPathUnits="userSpaceOnUse"
       id="clipPath208"><path
         d="m 271.062,573.868 0,0.99 -1.385,0 0,1.386 -2.771,0 0,-11.09 2.771,0 0,1.387 1.385,0 0,0.99 2.771,-0.792 0,-4.357 c 0,-1.531 1.241,-2.772 2.771,-2.772 l 0,0 5.541,0 c 1.531,0 2.772,1.241 2.772,2.772 l 0,0 0,1.188 23.551,-6.733 0,27.725 -37.406,-10.694 z m 0,-4.895 0,3.453 36.021,10.298 0,-24.049 -36.021,10.298 z m 4.156,-6.591 0,3.961 8.313,-2.377 0,-1.584 c 0,-0.764 -0.621,-1.386 -1.386,-1.386 l 0,0 -5.541,0 c -0.764,0 -1.386,0.622 -1.386,1.386"
         id="path210" /></clipPath><clipPath
       clipPathUnits="userSpaceOnUse"
       id="clipPath218"><path
         d="m 266.906,93.326 c 0,-11.479 9.309,-20.795 20.781,-20.795 l 0,0 c 11.471,0 20.781,9.316 20.781,20.795 l 0,0 c 0,11.475 -9.31,20.791 -20.781,20.791 l 0,0 c -11.472,0 -20.781,-9.316 -20.781,-20.791 m 2.078,-0.132 c 0,10.365 8.472,18.844 18.833,18.844 l 0,0 c 10.36,0 18.834,-8.434 18.834,-18.844 l 0,0 c 0,-10.366 -8.474,-18.843 -18.834,-18.843 l 0,0 c -10.361,0 -18.833,8.477 -18.833,18.843 m 16.625,10.485 0,-4.158 1.039,-10.355 2.078,0 1.039,10.355 0,4.158 -4.156,0 z m 0,-18.63 c 0,-1.123 0.914,-2.081 2.078,-2.081 l 0,0 c 1.163,0 2.078,0.917 2.078,2.081 l 0,0 c 0,1.122 -0.956,2.079 -2.078,2.079 l 0,0 c -1.123,0 -2.078,-0.915 -2.078,-2.079"
         id="path220" /></clipPath><clipPath
       clipPathUnits="userSpaceOnUse"
       id="clipPath232"><path
         d="m 555.232,386.885 c -0.19,-0.01 -0.362,-0.115 -0.458,-0.28 l 0,0 -5.221,-8.933 -10.44,0 c -0.202,0 -0.388,-0.107 -0.49,-0.28 l 0,0 -5.383,-9.212 c -0.102,-0.177 -0.102,-0.396 0,-0.572 l 0,0 5.383,-9.212 c 0.102,-0.173 0.288,-0.281 0.49,-0.281 l 0,0 10.44,0 5.221,-8.932 c 0.101,-0.174 0.287,-0.281 0.486,-0.281 l 0,0 10.769,0 c 0.2,0 0.386,0.107 0.487,0.281 l 0,0 5.385,9.213 c 0.05,0.087 0.075,0.186 0.075,0.285 l 0,0 c 0,0.099 -0.025,0.198 -0.075,0.286 l 0,0 -5.219,8.927 5.219,8.927 c 0.05,0.088 0.075,0.187 0.075,0.286 l 0,0 c 0,0.099 -0.025,0.196 -0.075,0.285 l 0,0 -5.385,9.213 c -0.097,0.165 -0.268,0.27 -0.456,0.28 l 0,0 -10.828,0 z m 0.353,-1.132 10.12,0 5.053,-8.646 -4.729,-8.093 -4.896,8.378 c -0.102,0.173 -0.287,0.28 -0.49,0.28 l 0,0 -9.78,0 4.722,8.081 z m -0.168,-17.006 -4.554,7.794 9.458,0 4.721,-8.082 -9.457,0 -0.168,0.288 z m -21.034,-0.853 5.053,8.647 9.457,0 -4.886,-8.361 c -0.104,-0.177 -0.104,-0.396 0,-0.572 l 0,0 4.886,-8.361 -9.457,0 -5.053,8.647 z m 10.768,0 4.727,8.093 4.729,-8.093 -4.729,-8.093 -4.727,8.093 z m 10.266,-0.854 0.168,0.289 9.457,0 -4.721,-8.082 -9.458,0 4.554,7.793 z m -4.554,-8.925 9.78,0 c 0.203,0 0.388,0.108 0.49,0.281 l 0,0 4.896,8.376 4.729,-8.091 -5.053,-8.647 -10.12,0 -4.722,8.081 z"
         id="path234" /></clipPath></defs><sodipodi:namedview
     pagecolor="#ffffff"
     bordercolor="#666666"
     borderopacity="1"
     objecttolerance="10"
     gridtolerance="10"
     guidetolerance="10"
     inkscape:pageopacity="0"
     inkscape:pageshadow="2"
     inkscape:window-width="1051"
     inkscape:window-height="681"
     id="namedview4"
     showgrid="false"
     inkscape:zoom="0.5675993"
     inkscape:cx="382.5"
     inkscape:cy="394.375"
     inkscape:window-x="0"
     inkscape:window-y="0"
     inkscape:window-maximized="0"
     inkscape:current-layer="g10" /><g
     id="g10"
     inkscape:groupmode="layer"
     inkscape:label="incidentresponseprocess"
     transform="matrix(1.25,0,0,-1.25,0,788.75)"><g
       id="g12"><g
         id="g14"
         clip-path="url(#clipPath16)"><path
           d="m 39.809,394.626 74.941,0 0,-74.978 -74.941,0 0,74.978 z"
           style="fill:#555555;fill-opacity:1;fill-rule:nonzero;stroke:none"
           id="path20" /></g></g><g
       id="g22"><g
         id="g24"
         clip-path="url(#clipPath26)"><path
           d="m 89.164,366.036 17.793,0 0,-17.798 -17.793,0 0,17.798 z"
           style="fill:#555555;fill-opacity:1;fill-rule:nonzero;stroke:none"
           id="path30" /></g></g><g
       id="g32"><g
         id="g34"
         clip-path="url(#clipPath36)"><path
           d="m 89.164,345.242 17.793,0 0,-17.797 -17.793,0 0,17.797 z"
           style="fill:#555555;fill-opacity:1;fill-rule:nonzero;stroke:none"
           id="path40" /></g></g><g
       id="g42"
       transform="translate(59.5034,312.79)"><path
         d="M 0,0 35.549,0 17.774,30.83 0,0 z M 17.776,28.457 33.5,1.186 l -31.448,0 15.724,27.271 z"
         style="fill:#555555;fill-opacity:1;fill-rule:nonzero;stroke:none"
         id="path44" /></g><g
       id="g46"
       transform="translate(59.5034,312.79)"><path
         d="M 0,0 35.552,0 17.776,30.83 0,0 z M 17.776,28.457 33.5,1.186 l -31.448,0 15.724,27.271 z"
         style="fill:#555555;fill-opacity:1;fill-rule:nonzero;stroke:none"
         id="path48" /></g><g
       id="g50"
       transform="translate(76.0942,330.5762)"><path
         d="M 0,0 0,-2.371 0.593,-8.3 1.777,-8.3 2.371,-2.371 2.371,0 0,0 z"
         style="fill:#555555;fill-opacity:1;fill-rule:nonzero;stroke:none"
         id="path52" /></g><g
       id="g54"><g
         id="g56"
         clip-path="url(#clipPath58)"><path
           d="m 71.094,326.09 12.37,0 0,-12.371 -12.37,0 0,12.371 z"
           style="fill:#555555;fill-opacity:1;fill-rule:nonzero;stroke:none"
           id="path62" /></g></g><g
       id="g64"
       transform="translate(61.5557,313.9756)"><path
         d="M 0,0 31.448,0 15.724,27.271 0,0 z"
         style="fill:#ffffff;fill-opacity:1;fill-rule:nonzero;stroke:none"
         id="path66" /></g><g
       id="g68"
       transform="translate(76.0942,330.5762)"><path
         d="M 0,0 0,-2.371 0.593,-8.3 1.777,-8.3 2.371,-2.371 2.371,0 0,0 z"
         style="fill:#555555;fill-opacity:1;fill-rule:nonzero;stroke:none"
         id="path70" /></g><g
       id="g72"><g
         id="g74"
         clip-path="url(#clipPath76)"><path
           d="m 71.094,326.09 12.37,0 0,-12.371 -12.37,0 0,12.371 z"
           style="fill:#555555;fill-opacity:1;fill-rule:nonzero;stroke:none"
           id="path80" /></g></g><g
       id="g82"><g
         id="g84"
         clip-path="url(#clipPath86)"><g
           id="g90"
           transform="translate(502.6406,286.96)"><path
             d="m 0,0 c 37.659,0 68.188,30.546 68.188,68.227 0,37.681 -30.529,68.228 -68.188,68.228 -37.659,0 -68.188,-30.547 -68.188,-68.228 C -68.188,30.546 -37.659,0 0,0 z"
             style="fill:none;stroke:#446584;stroke-opacity:1;stroke-width:2;stroke-linecap:butt;stroke-linejoin:miter;stroke-miterlimit:10;stroke-dasharray:none"
             id="path92" /></g></g></g><g
       id="g94"
       transform="translate(430.2314,396.0928)"><path
         d="M 0,0 -24.352,-42.205 0,-84.409 l 48.706,0 24.352,42.204 L 48.706,0 0,0 z"
         style="fill:#ffffff;fill-opacity:1;fill-rule:nonzero;stroke:none"
         id="path96" /></g><g
       id="g98"
       transform="translate(503.29,353.8882)"><path
         d="m 0,0 -24.353,-42.206 -48.705,0 L -97.411,0 l 24.353,42.205 48.705,0 L 0,0 z"
         style="fill:none;stroke:#555555;stroke-opacity:1;stroke-width:2;stroke-linecap:butt;stroke-linejoin:miter;stroke-miterlimit:10;stroke-dasharray:none"
         id="path100" /></g><g
       id="g102"
       transform="translate(263.3345,612.4707)"><path
         d="M 0,0 -24.353,-42.205 0,-84.409 l 48.706,0 24.352,42.204 L 48.706,0 0,0 z"
         style="fill:#ffffff;fill-opacity:1;fill-rule:nonzero;stroke:none"
         id="path104" /></g><g
       id="g106"
       transform="translate(336.3926,570.2661)"><path
         d="m 0,0 -24.353,-42.205 -48.705,0 L -97.411,0 l 24.353,42.205 48.705,0 L 0,0 z"
         style="fill:none;stroke:#555555;stroke-opacity:1;stroke-width:2;stroke-linecap:butt;stroke-linejoin:miter;stroke-miterlimit:10;stroke-dasharray:none"
         id="path108" /></g><g
       id="g110"
       transform="translate(263.3345,135.5293)"><path
         d="M 0,0 -24.353,-42.205 0,-84.409 l 48.706,0 24.352,42.204 L 48.706,0 0,0 z"
         style="fill:#ffffff;fill-opacity:1;fill-rule:nonzero;stroke:none"
         id="path112" /></g><g
       id="g114"
       transform="translate(336.3926,93.3242)"><path
         d="m 0,0 -24.353,-42.205 -48.705,0 L -97.411,0 l 24.353,42.205 48.705,0 L 0,0 z"
         style="fill:none;stroke:#555555;stroke-opacity:1;stroke-width:2;stroke-linecap:butt;stroke-linejoin:miter;stroke-miterlimit:10;stroke-dasharray:none"
         id="path116" /></g><g
       id="g118"
       transform="translate(528.9414,396.0928)"><path
         d="M 0,0 -24.353,-42.205 0,-84.409 l 48.705,0 24.354,42.204 L 48.705,0 0,0 z"
         style="fill:#ffffff;fill-opacity:1;fill-rule:nonzero;stroke:none"
         id="path120" /></g><g
       id="g122"><g
         id="g124"
         clip-path="url(#clipPath126)"><g
           id="g130"
           transform="translate(602,353.8882)"><path
             d="m 0,0 -24.354,-42.206 -48.705,0 L -97.411,0 l 24.352,42.205 48.705,0 L 0,0 z"
             style="fill:none;stroke:#555555;stroke-opacity:1;stroke-width:2;stroke-linecap:butt;stroke-linejoin:miter;stroke-miterlimit:10;stroke-dasharray:none"
             id="path132" /></g></g></g><g
       id="g134"
       transform="translate(142.2202,353.2383)"><path
         d="M 0,0 259.763,0"
         style="fill:none;stroke:#446584;stroke-opacity:1;stroke-width:2;stroke-linecap:butt;stroke-linejoin:miter;stroke-miterlimit:10;stroke-dasharray:5,8,5,8;stroke-dashoffset:0"
         id="path136" /></g><text
       transform="matrix(1,0,0,-1,153.8574,327.1914)"
       id="text138"><tspan
         style="fill:#646565;fill-opacity:1;fill-rule:nonzero;stroke:none;font-family:Myriad Pro;font-variant:normal;font-weight:normal;font-stretch:normal;font-size:16;writing-mode:lr;-inkscape-font-specification:HelvNeueRomanforIBM"
         x="0 7.792 15.504 22.672 31.456 35.232 40.528 48.24 53.536 57.28 64.976 73.76 77.072 80.464 84.208 87.984 91.376 98.544 102.32 106.064 114.08 122.96 128.256 136.272 139.664 147.376 156.48 161.712 169.728 173.12 181.936 190.816 194.208 199.504 203.248 210.416 217.92 225.936"
         y="0"
         sodipodi:role="line"
         id="tspan140">Facoltativo: il cliente apre un ticket</tspan><tspan
         style="fill:#646565;fill-opacity:1;fill-rule:nonzero;stroke:none;font-family:Myriad Pro;font-variant:normal;font-weight:normal;font-stretch:normal;font-size:16;writing-mode:lr;-inkscape-font-specification:HelvNeueRomanforIBM"
         x="-133.456 -129.632 -120.752 -113.584 -109.84 -100.816 -92.8 -83.92 -78.624 -70.608 -67.216 -61.984 -58.24 -54.464 -46.448 -38.752 -31.04 -25.744 -16.96 -13.568 -4.688 3.328 7.104 10.88 14.192 21.904 35.248 44.352 48.096 56.112 64.992 70.288 78.304 81.696 90.72 98.736 102.512 105.904 113.072 116.848 120.592 128.608 137.488 142.784"
         y="57.488"
         sodipodi:role="line"
         id="tspan142">Incidente rilevato nell’ambiente del cliente</tspan></text>
<text
       transform="matrix(1,0,0,-1,403.6406,271.7158)"
       id="text144"><tspan
         style="fill:#646565;fill-opacity:1;fill-rule:nonzero;stroke:none;font-family:Myriad Pro;font-variant:normal;font-weight:normal;font-stretch:normal;font-size:15.5858;writing-mode:lr;-inkscape-font-specification:HelvNeueRomanforIBM"
         x="0 9.039764 17.5963682 21.274617 24.9528658 32.4652214 41.3335416 49.8901458 54.9867024 62.499058 69.1697804 72.8168576 81.3734618 90.0235808"
         y="0"
         sodipodi:role="line"
         id="tspan146">Collaborazione</tspan><tspan
         style="fill:#646565;fill-opacity:1;fill-rule:nonzero;stroke:none;font-family:Myriad Pro;font-variant:normal;font-weight:normal;font-stretch:normal;font-size:15.5858;writing-mode:lr;-inkscape-font-specification:HelvNeueRomanforIBM"
         x="0 7.9955154 15.9910308 19.2952204 27.8518246 32.9483812 40.756867 44.0610566 51.5734122 55.251661 58.5558506 67.2683128 70.91539 79.4719942 84.5685508 93.2186698 101.775274"
         y="18.70296"
         sodipodi:role="line"
         id="tspan148">24 ore al giorno,</tspan><tspan
         style="fill:#646565;fill-opacity:1;fill-rule:nonzero;stroke:none;font-family:Myriad Pro;font-variant:normal;font-weight:normal;font-stretch:normal;font-size:15.5858;writing-mode:lr;-inkscape-font-specification:HelvNeueRomanforIBM"
         x="0 7.9955154 11.299705 20.0121672 23.6592444 32.2158486 37.3124052 45.9625242 49.6096014 52.913791 59.0857678 67.6735436 70.9777332"
         y="37.40592"
         sodipodi:role="line"
         id="tspan150">7 giorni su 7</tspan></text>
<text
       transform="matrix(1,0,0,-1,529.1426,338.1416)"
       id="text152"><tspan
         style="fill:#646565;fill-opacity:1;fill-rule:nonzero;stroke:none;font-family:Myriad Pro;font-variant:normal;font-weight:normal;font-stretch:normal;font-size:11;writing-mode:lr;-inkscape-font-specification:HelvNeueBoldforIBM"
         x="0 5.962 8.558 14.619 20.13 29.304 31.878"
         y="0"
         sodipodi:role="line"
         id="tspan154">Bluemix</tspan><tspan
         style="fill:#646565;fill-opacity:1;fill-rule:nonzero;stroke:none;font-family:Myriad Pro;font-variant:normal;font-weight:normal;font-stretch:normal;font-size:11;writing-mode:lr;-inkscape-font-specification:HelvNeueBoldforIBM"
         x="0 7.579 13.838 19.349 22.946 28.248 31.889 34.463 40.502 46.607"
         y="13.2"
         sodipodi:role="line"
         id="tspan156">Operations</tspan><tspan
         style="fill:#646565;fill-opacity:1;fill-rule:nonzero;stroke:none;font-family:Myriad Pro;font-variant:normal;font-weight:normal;font-stretch:normal;font-size:11;writing-mode:lr;-inkscape-font-specification:HelvNeueBoldforIBM"
         x="-95.029 -89.606 -83.545 -77.286 -71.027 -64.988 -61.391 -57.75"
         y="4.653"
         sodipodi:role="line"
         id="tspan158">Supporto</tspan><tspan
         style="fill:#646565;fill-opacity:1;fill-rule:nonzero;stroke:none;font-family:Myriad Pro;font-variant:normal;font-weight:normal;font-stretch:normal;font-size:11;writing-mode:lr;-inkscape-font-specification:HelvNeueBoldforIBM"
         x="-95.029 -89.067 -86.471 -80.41 -74.899 -65.725 -63.151"
         y="17.853"
         sodipodi:role="line"
         id="tspan160">Bluemix</tspan></text>
<g
       id="g162"><g
         id="g164"
         clip-path="url(#clipPath166)"><path
           d="m 428.154,393.327 50.263,0 0,-50.287 -50.263,0 0,50.287 z"
           style="fill:#555555;fill-opacity:1;fill-rule:nonzero;stroke:none"
           id="path170" /></g></g><g
       id="g172"><g
         id="g174"
         clip-path="url(#clipPath176)"><g
           id="g180"
           transform="translate(361.0703,94.624)"><path
             d="M 0,0 C 77.829,0 140.921,63.129 140.921,141.003"
             style="fill:none;stroke:#446584;stroke-opacity:1;stroke-width:5;stroke-linecap:butt;stroke-linejoin:miter;stroke-miterlimit:10;stroke-dasharray:5,5,5,5;stroke-dashoffset:0"
             id="path182" /></g><g
           id="g184"
           transform="translate(505.5635,423.7397)"><path
             d="M 0,0 C 0,77.874 -63.094,141.003 -140.921,141.003"
             style="fill:none;stroke:#446584;stroke-opacity:1;stroke-width:5;stroke-linecap:butt;stroke-linejoin:miter;stroke-miterlimit:10;stroke-dasharray:5,5,5,5;stroke-dashoffset:0"
             id="path186" /></g><g
           id="g188"
           transform="translate(68.3096,234.8398)"><path
             d="M 0,0 C 0,-77.874 63.093,-141.003 140.921,-141.003"
             style="fill:none;stroke:#446584;stroke-opacity:1;stroke-width:5;stroke-linecap:butt;stroke-linejoin:miter;stroke-miterlimit:10;stroke-dasharray:5,5,5,5;stroke-dashoffset:0"
             id="path190" /></g><g
           id="g192"
           transform="translate(214.9536,570.916)"><path
             d="M 0,0 C -77.829,0 -140.921,-63.129 -140.921,-141.003"
             style="fill:none;stroke:#446584;stroke-opacity:1;stroke-width:5;stroke-linecap:butt;stroke-linejoin:miter;stroke-miterlimit:10;stroke-dasharray:5,5,5,5;stroke-dashoffset:0"
             id="path194" /></g><g
           id="g196"
           transform="translate(142.2202,353.2383)"><path
             d="m 0,0 -32.47,-56.273 -64.941,0 -32.47,56.273 32.47,56.273 64.941,0 L 0,0 z"
             style="fill:none;stroke:#555555;stroke-opacity:1;stroke-width:3;stroke-linecap:butt;stroke-linejoin:miter;stroke-miterlimit:10;stroke-dasharray:none"
             id="path198" /></g></g></g><text
       transform="matrix(1,0,0,-1,197.1592,495.8359)"
       id="text200"><tspan
         style="fill:#646565;fill-opacity:1;fill-rule:nonzero;stroke:none;font-family:Myriad Pro;font-variant:normal;font-weight:normal;font-stretch:normal;font-size:16;writing-mode:lr;-inkscape-font-specification:HelvNeueRomanforIBM"
         x="0 8.672 12.448 21.264 29.28 42.624 46.368 53.776 57.168 60.912 69.792 77.488 81.232 88.944 92.336 96.112 103.824 107.216 116.096 124.88 130.176 133.92 142.288 149.456"
         y="0"
         sodipodi:role="line"
         id="tspan202">Bluemix invia la notifca</tspan></text>
<g
       id="g204"><g
         id="g206"
         clip-path="url(#clipPath208)"><path
           d="m 261.906,589.561 51.562,0 0,-37.724 -51.562,0 0,37.724 z"
           style="fill:#555555;fill-opacity:1;fill-rule:nonzero;stroke:none"
           id="path212" /></g></g><g
       id="g214"><g
         id="g216"
         clip-path="url(#clipPath218)"><path
           d="m 261.906,119.117 51.562,0 0,-51.586 -51.562,0 0,51.586 z"
           style="fill:#555555;fill-opacity:1;fill-rule:nonzero;stroke:none"
           id="path222" /></g></g><text
       transform="matrix(1,0,0,-1,215.9189,24.7422)"
       id="text224"><tspan
         style="fill:#646565;fill-opacity:1;fill-rule:nonzero;stroke:none;font-family:Myriad Pro;font-variant:normal;font-weight:normal;font-stretch:normal;font-size:16;writing-mode:lr;-inkscape-font-specification:HelvNeueRomanforIBM"
         x="0 9.792 17.488 25.184 28.928 35.264 44.048 47.44 51.184 60.064 67.76 71.504 79.216 84.512 93.296 96.688 104.4 107.792 116.464 120.24 129.056 137.072 150.416 154.16"
         y="0"
         sodipodi:role="line"
         id="tspan226">Avviso inviato a Bluemix</tspan></text>
<g
       id="g228"><g
         id="g230"
         clip-path="url(#clipPath232)"><path
           d="m 528.163,391.886 48.813,0 0,-47.983 -48.813,0 0,47.983 z"
           style="fill:#555555;fill-opacity:1;fill-rule:nonzero;stroke:none"
           id="path236" /></g></g><path
       d="m 261.061,364.935 21.647,0 0,1.083 -21.647,0 0,-1.083 z"
       style="fill:#555555;fill-opacity:1;fill-rule:nonzero;stroke:none"
       id="path238" /><g
       id="g240"
       transform="translate(261.061,397.4238)"><path
         d="m 0,0 0,-4.333 0,-25.991 21.647,0 0,25.991 0,4.333 L 0,0 z m 1.083,-5.415 19.482,0 0,-23.826 -19.482,0 0,23.826 z"
         style="fill:#555555;fill-opacity:1;fill-rule:nonzero;stroke:none"
         id="path242" /></g><path
       d="m 265.391,381.179 12.988,0 0,1.083 -12.988,0 0,-1.083 z"
       style="fill:#555555;fill-opacity:1;fill-rule:nonzero;stroke:none"
       id="path244" /><path
       d="m 265.391,385.51 12.988,0 0,1.084 -12.988,0 0,-1.084 z"
       style="fill:#555555;fill-opacity:1;fill-rule:nonzero;stroke:none"
       id="path246" /><path
       d="m 265.391,376.847 12.988,0 0,1.083 -12.988,0 0,-1.083 z"
       style="fill:#555555;fill-opacity:1;fill-rule:nonzero;stroke:none"
       id="path248" /><g
       id="g250"
       transform="translate(74.9014,428.9473)"><path
         d="M 0,0 -1.417,-0.001 -5.876,4.461 -6.878,3.459 -0.709,-2.714 5.46,3.459 4.459,4.461 0,0 z"
         style="fill:#446584;fill-opacity:1;fill-rule:nonzero;stroke:none"
         id="path252" /></g><g
       id="g254"
       transform="translate(68.0234,432.4058)"><path
         d="M 0,0 1.002,1.002 5.461,-3.459 6.878,-3.458 11.337,1.003 12.339,0 6.169,-6.173 0,0 z"
         style="fill:none;stroke:#446584;stroke-opacity:1;stroke-width:3;stroke-linecap:butt;stroke-linejoin:miter;stroke-miterlimit:10;stroke-dasharray:none"
         id="path256" /></g><g
       id="g258"
       transform="translate(495.498,232.7031)"><path
         d="M 0,0 1.002,-1.003 5.46,3.46 6.878,3.458 11.336,-1.003 12.338,0 6.169,6.173 0,0 z"
         style="fill:#446584;fill-opacity:1;fill-rule:nonzero;stroke:none"
         id="path260" /></g><g
       id="g262"
       transform="translate(495.4971,232.7031)"><path
         d="M 0,0 1.002,-1.002 5.461,3.459 6.878,3.458 11.337,-1.003 12.339,0 6.169,6.173 0,0 z"
         style="fill:none;stroke:#446584;stroke-opacity:1;stroke-width:3;stroke-linecap:butt;stroke-linejoin:miter;stroke-miterlimit:10;stroke-dasharray:none"
         id="path264" /></g><g
       id="g266"
       transform="translate(361.542,564.3252)"><path
         d="M 0,0 6.169,-6.172 7.171,-5.17 2.712,-0.708 2.713,0.71 7.171,5.171 6.169,6.174 0,0 z"
         style="fill:#446584;fill-opacity:1;fill-rule:nonzero;stroke:none"
         id="path268" /></g><g
       id="g270"
       transform="translate(367.7109,558.1528)"><path
         d="M 0,0 1.002,1.003 -3.457,5.464 -3.456,6.882 1.002,11.343 0,12.346 -6.169,6.172 0,0 z"
         style="fill:none;stroke:#446584;stroke-opacity:1;stroke-width:3;stroke-linecap:butt;stroke-linejoin:miter;stroke-miterlimit:10;stroke-dasharray:none"
         id="path272" /></g><g
       id="g274"
       transform="translate(205.2124,98.8203)"><path
         d="M 0,0 4.459,-4.461 4.46,-5.88 0,-10.342 1.002,-11.345 7.171,-5.171 1.002,1.003 0,0 z"
         style="fill:#446584;fill-opacity:1;fill-rule:nonzero;stroke:none"
         id="path276" /></g><g
       id="g278"
       transform="translate(206.2144,87.4766)"><path
         d="M 0,0 -1.002,1.003 3.457,5.464 3.456,6.882 -1.002,11.343 0,12.346 6.169,6.172 0,0 z"
         style="fill:none;stroke:#446584;stroke-opacity:1;stroke-width:3;stroke-linecap:butt;stroke-linejoin:miter;stroke-miterlimit:10;stroke-dasharray:none"
         id="path280" /></g><g
       id="g282"
       transform="translate(394.1904,358.7339)"><path
         d="M 0,0 4.458,-4.461 4.46,-5.88 0,-10.341 1.002,-11.344 7.171,-5.171 1.002,1.003 0,0 z"
         style="fill:#446584;fill-opacity:1;fill-rule:nonzero;stroke:none"
         id="path284" /></g></g></svg>