<?xml version="1.0" encoding="utf-8"?>
<!-- Generator: Adobe Illustrator 15.1.0, SVG Export Plug-In . SVG Version: 6.00 Build 0)  -->
<!DOCTYPE svg PUBLIC "-//W3C//DTD SVG 1.1//EN" "http://www.w3.org/Graphics/SVG/1.1/DTD/svg11.dtd">
<svg version="1.1"
	 id="svg2" xmlns:p="http://www.evolus.vn/Namespace/Pencil" inkscape:export-ydpi="90" inkscape:export-xdpi="90" sodipodi:docname="iota.svg" inkscape:version="0.91 r13725" xmlns:dc="http://purl.org/dc/elements/1.1/" xmlns:cc="http://creativecommons.org/ns#" xmlns:rdf="http://www.w3.org/1999/02/22-rdf-syntax-ns#" xmlns:svg="http://www.w3.org/2000/svg" xmlns:sodipodi="http://sodipodi.sourceforge.net/DTD/sodipodi-0.dtd" xmlns:inkscape="http://www.inkscape.org/namespaces/inkscape" inkscape:export-filename="C:\Users\IBM_ADMIN\GitHub\docs-staging\services\iotrtinsights\images\text8442-4-4.png"
	 xmlns="http://www.w3.org/2000/svg" xmlns:xlink="http://www.w3.org/1999/xlink" x="0px" y="0px" width="577.037px"
	 height="220.064px" viewBox="0 0 577.037 220.064" enable-background="new 0 0 577.037 220.064" xml:space="preserve">
<sodipodi:namedview  id="base" inkscape:window-y="1041" inkscape:window-x="-9" inkscape:window-height="1019" inkscape:window-width="1920" fit-margin-bottom="0" fit-margin-right="0" inkscape:current-layer="layer1" inkscape:document-units="px" inkscape:pageshadow="2" inkscape:pageopacity="0.0" showguides="false" fit-margin-left="0" fit-margin-top="0" showgrid="true" inkscape:cy="175.32649" inkscape:cx="333.66669" inkscape:zoom="1.6357369" borderopacity="1.0" bordercolor="#666666" pagecolor="#ffffff" inkscape:window-maximized="1">
	<inkscape:grid  type="xygrid" id="grid3358" originx="-29.132022" originy="-433.21588"></inkscape:grid>
</sodipodi:namedview>
<g id="layer1" transform="translate(-29.132023,-344.06509)" inkscape:label="Layer 1" inkscape:groupmode="layer">
	
		<image overflow="visible" enable-background="new    " width="366" height="271" id="image3344" xlink:href="EA0A8741.png"  transform="matrix(0.8 0 0 0.8 29.1323 347.33)">
	</image>
	
		<image overflow="visible" enable-background="new    " width="332" height="271" id="image3355" xlink:href="EA0A8743.png"  transform="matrix(0.6444 0 0 0.6444 314.9916 344.0653)">
	</image>
	<text transform="matrix(1 0 0 1 112.4985 431.8451)" font-family="'Helvetica'" font-size="16">Plataforma de</text>
	<text transform="matrix(1 0 0 1 102.811 451.8451)" font-family="'Helvetica'" font-size="16">Internet de las cosas</text>
	<text transform="matrix(1 0 0 1 407.9018 420.7596)" font-family="'Helvetica'" font-size="14">IoT</text>
	<text transform="matrix(1 0 0 1 360.187 438.2596)" font-family="'Helvetica'" font-size="14">Real-Time Insights </text>
	<path fill="none" d=""/>
	<path id="path8264" inkscape:connector-curvature="0" stroke="#000000" d="M325.212,430.703l-11.072,6.399v-12.8L325.212,430.703z"
		/>
	<path id="path7316" inkscape:connector-curvature="0" stroke="#000000" d="M243.501,652.974"/>
	<text transform="matrix(1 0 0 1 270.5473 449.8451)" enable-background="new    "><tspan x="0" y="0" font-family="'Helvetica'" font-size="12">Datos en</tspan><tspan x="0" y="14.4" font-family="'Helvetica'" font-size="12">tiempo real</tspan></text>
	<path fill="none" d=""/>
	<path id="path8264-9" inkscape:connector-curvature="0" stroke="#000000" d="M598.729,431.846l-13.292,7.684v-15.367
		L598.729,431.846z"/>
	<path id="path7316-1" inkscape:connector-curvature="0" stroke="#000000" d="M461.13,652.06"/>
	<text transform="matrix(1 0 0 1 523.017 465.788)" font-family="'Helvetica'" font-size="12">Node-RED</text>
	<path fill="none" d=""/>
	<path id="path8264-9-6" inkscape:connector-curvature="0" stroke="#000000" d="M597.704,402.703l-13.199,7.63v-15.26
		L597.704,402.703z"/>
	<path id="path7316-1-8" inkscape:connector-curvature="0" stroke="#000000" d="M460.36,675.375"/>
	<text transform="matrix(1 0 0 1 533.9643 434.8451)" font-family="'Helvetica'" font-size="12">IFTTT</text>
	<path fill="none" d=""/>
	<path id="path8264-9-3" inkscape:connector-curvature="0" stroke="#000000" d="M599.241,461.559l-13.338,7.71v-15.42
		L599.241,461.559z"/>
	<path id="path7316-1-1" inkscape:connector-curvature="0" stroke="#000000" d="M461.515,628.289"/>
	<text transform="matrix(1 0 0 1 520.9643 490.6737)" font-family="'Helvetica'" font-size="12">Webhooks</text>
	<g id="flowRoot4782">
	</g>
	<g id="flowRoot4790">
	</g>
	<text transform="matrix(1 0 0 1 481.726 406.8451)" font-family="'Helvetica'" font-size="12">Correo electrónico</text>
	<text transform="matrix(1 0 0 1 490.8578 372.4169)" font-family="'Helvetica-Bold'" font-size="12">Reglas y acciones</text>
	<text transform="matrix(1 0 0 1 363.3666 497.5594)" font-family="'Helvetica-Bold'" font-size="12">Analíticas en tiempo real</text>
	
		<g id="_x38_bcf31dd60ea4a52a276bbf8bb33183a" transform="matrix(2.1011905,0,0,1.8333333,493.41773,541.2892)" p:def="Evolus:FontAwesomeIcons:icon-bar-chart" p:type="Shape">
		<p:metadata>
			<p:property  name="box">
				<![CDATA[24,24]]>
			</p:property>
			<p:property  name="withShadow">
				<![CDATA[false]]>
			</p:property>
			<p:property  name="disabled">
				<![CDATA[false]]>
			</p:property>
			<p:property  name="shadowColor">
				<![CDATA[#FFFFFFFF]]>
			</p:property>
			<p:property  name="fillColor">
				<![CDATA[#333333FF]]>
			</p:property>
			<p:property  name="disabledColor">
				<![CDATA[#AAAAAAFF]]>
			</p:property>
		</p:metadata>
		<g id="a049453ce50e495d9dda5455ddcb4e40" transform="scale(0.75,0.75)" p:name="group">
			<rect id="rect4276" x="-58.924" y="-28.687" fill-opacity="0" width="25.6" height="25.6"/>
			<g id="g4278" transform="translate(1,1)">
				<g id="_x37_2c03cd12139483895a0dc8509458ded" p:name="shadow" display="none">
					<path id="b824c3b7ffce4d82b5b65216a59dcf9c" p:name="glyph" inkscape:connector-curvature="0" fill="#FFFFFF" d="
						M-57.842-7.925v-16.325c0-0.392,0.146-0.729,0.438-1.013s0.633-0.425,1.025-0.425h20.15c0.392,0,0.728,0.141,1.006,0.425
						c0.279,0.283,0.419,0.621,0.419,1.013v16.325c0,0.392-0.139,0.729-0.419,1.013c-0.279,0.283-0.615,0.425-1.006,0.425h-20.15
						c-0.392,0-0.733-0.141-1.025-0.425C-57.697-7.195-57.842-7.533-57.842-7.925z M-55.918-8.412h19.2v-15.35h-19.2V-8.412z
						 M-54.005-9.787v-4.538h2.538v4.538H-54.005z M-49.73-9.787v-9.7h2.513v9.7H-49.73z M-45.43-9.787v-7.4h2.538v7.4H-45.43z
						 M-41.18-9.787v-11.525h2.538v11.525H-41.18z"/>
				</g>
			</g>
			<g id="b4ca96cf21b04aac9d55166736c64779" p:name="icon">
				<path id="b824c3b7ffce4d82b5b65216a59dcf9c_1_" p:name="glyph" inkscape:connector-curvature="0" fill="#333333" d="
					M-57.642-7.725V-24.05c0-0.391,0.146-0.729,0.438-1.012s0.633-0.425,1.025-0.425h20.15c0.392,0,0.728,0.142,1.006,0.425
					c0.279,0.283,0.419,0.621,0.419,1.012v16.325c0,0.391-0.139,0.729-0.419,1.013c-0.279,0.283-0.615,0.425-1.006,0.425h-20.15
					c-0.392,0-0.733-0.142-1.025-0.425C-57.497-6.995-57.642-7.333-57.642-7.725z M-55.718-8.212h19.2v-15.35h-19.2V-8.212z
					 M-53.805-9.587v-4.538h2.538v4.538H-53.805z M-49.53-9.587v-9.7h2.513v9.7H-49.53z M-45.23-9.587v-7.401h2.538v7.401H-45.23z
					 M-40.98-9.587v-11.526h2.538v11.526H-40.98z"/>
			</g>
		</g>
	</g>
	<path fill="none" d=""/>
	<path id="path8264-9-3-3" inkscape:connector-curvature="0" stroke="#000000" d="M598.098,487.846l-13.339,7.71v-15.42
		L598.098,487.846z"/>
	<path id="path7316-1-1-2" inkscape:connector-curvature="0" stroke="#000000" d="M460.601,607.261"/>
</g>
</svg>
