<?xml version="1.0" encoding="UTF-8" standalone="no"?>
<svg
   xmlns:dc="http://purl.org/dc/elements/1.1/"
   xmlns:cc="http://creativecommons.org/ns#"
   xmlns:rdf="http://www.w3.org/1999/02/22-rdf-syntax-ns#"
   xmlns:svg="http://www.w3.org/2000/svg"
   xmlns="http://www.w3.org/2000/svg"
   xmlns:xlink="http://www.w3.org/1999/xlink"
   xmlns:sodipodi="http://sodipodi.sourceforge.net/DTD/sodipodi-0.dtd"
   xmlns:inkscape="http://www.inkscape.org/namespaces/inkscape"
   width="517.94672"
   height="27.870001"
   viewBox="0 0 517.94672 27.870001"
   version="1.1"
   id="svg2"
   inkscape:version="0.91 r13725"
   sodipodi:docname="bluemixsoftlayerbill.svg"
   inkscape:export-filename="C:\2.DTP\_Archive\BM110ABD042 - 2 + 1,5 + 1 + 2 + 1,5 + 1 + 1\ge\admin\images\bluemixsoftlayerbill.png"
   inkscape:export-xdpi="100"
   inkscape:export-ydpi="100">
  <metadata
     id="metadata153">
    <rdf:RDF>
      <cc:Work
         rdf:about="">
        <dc:format>image/svg+xml</dc:format>
        <dc:type
           rdf:resource="http://purl.org/dc/dcmitype/StillImage" />
        <dc:title>BluemixSoftLayerBill_v2</dc:title>
      </cc:Work>
    </rdf:RDF>
  </metadata>
  <sodipodi:namedview
     pagecolor="#ffffff"
     bordercolor="#666666"
     borderopacity="1"
     objecttolerance="10"
     gridtolerance="10"
     guidetolerance="10"
     inkscape:pageopacity="0"
     inkscape:pageshadow="2"
     inkscape:window-width="1600"
     inkscape:window-height="848"
     id="namedview151"
     showgrid="false"
     fit-margin-top="0"
     fit-margin-left="0"
     fit-margin-right="0"
     fit-margin-bottom="0"
     inkscape:zoom="0.89227683"
     inkscape:cx="127.73518"
     inkscape:cy="369.9703"
     inkscape:window-x="-8"
     inkscape:window-y="-8"
     inkscape:window-maximized="1"
     inkscape:current-layer="Page-1" />
  <!-- Generator: Sketch 40.3 (33839) - http://www.bohemiancoding.com/sketch -->
  <title
     id="title4">BluemixSoftLayerBill_v2</title>
  <desc
     id="desc6">Created with Sketch.</desc>
  <defs
     id="defs8">
    <polygon
       id="path-1"
       points="0,89.9997 89.9997,89.9997 89.9997,0 0,0 " />
    <mask
       fill="white"
       id="mask-2">
      <use
         height="100%"
         width="100%"
         y="0"
         x="0"
         id="use82"
         xlink:href="#path-1" />
    </mask>
  </defs>
  <g
     id="Page-1"
     style="fill:none;fill-rule:evenodd;stroke:none;stroke-width:1"
     transform="translate(-689.23998,-713.07)">
    <polyline
       style="stroke:#ff2f2f;stroke-width:6"
       points="147 545 399.6837 544 411.5038 504"
       id="Stroke-36" />
    <polyline
       style="stroke:#5596e6;stroke-width:6"
       points="147 253 399.6837 254 411.5038 294"
       id="Stroke-38" />
    <text
       style="font-weight:bold;font-size:32px;font-family:HelvNeueBoldforIBM, 'HelvNeue Bold for IBM';fill:#3c3232"
       font-weight="bold"
       font-size="32"
       id="Bluemix-bill"
       y="-2">
      <tspan
         id="tspan19"
         y="305"
         x="14.424">Bluemix-</tspan>
    </text>
    <text
       style="font-weight:bold;font-size:32px;font-family:HelvNeueBoldforIBM, 'HelvNeue Bold for IBM';fill:#3c3232"
       font-weight="bold"
       font-size="32"
       id="text3767"
       y="32">
      <tspan
         y="339"
         x="14.424"
         id="tspan3769">Rechnung</tspan>
    </text>
    <text
       style="font-weight:bold;font-size:32px;font-family:HelvNeueBoldforIBM, 'HelvNeue Bold for IBM';fill:#3c3232"
       font-weight="bold"
       font-size="32"
       id="SoftLayer-bill"
       y="-2"
       x="4">
      <tspan
         id="tspan22"
         y="595"
         x="4.9520001">SoftLayer-</tspan>
    </text>
    <text
       style="font-weight:bold;font-size:32px;font-family:HelvNeueBoldforIBM, 'HelvNeue Bold for IBM';fill:#3c3232"
       font-weight="bold"
       font-size="32"
       id="text3771"
       y="32"
       x="4">
      <tspan
         y="629"
         x="4.9520001"
         id="tspan3773">Rechnung</tspan>
    </text>
    <path
       style="fill:#ff2f2f"
       d="m 59,444.9994 0,120 80,0 0,-88 -32,-32 -48,0 0,0 z m 4,4.002 40,0 0,31.998 32,0 0,80.002 -72,0 0,-112 0,0 z"
       id="Fill-1"
       inkscape:connector-curvature="0" />
    <polygon
       style="fill:#ff2f2f"
       id="Fill-2"
       points="16,49 16,53 64,53 64,49 "
       transform="translate(59,444)" />
    <polygon
       style="fill:#ff2f2f"
       id="Fill-3"
       points="16,57 16,61 64,61 64,57 "
       transform="translate(59,444)" />
    <polygon
       style="fill:#ff2f2f"
       id="Fill-4"
       points="16,65 16,69 40,69 40,65 "
       transform="translate(59,444)" />
    <text
       style="font-weight:bold;font-size:32px;font-family:HelvNeueBoldforIBM, 'HelvNeue Bold for IBM';fill:#3c3232"
       font-weight="bold"
       font-size="32"
       id="text30"
       x="-82">
      <tspan
         id="tspan32"
         y="594"
         x="766.95203">SoftLayer-Rechnung</tspan>
    </text>
    <path
       style="fill:#ff2f2f"
       d="m 907,433.9994 0,120 80,0 0,-88 -32,-32 -48,0 0,0 z m 4,4.002 40,0 0,31.998 32,0 0,80.002 -72,0 0,-112 0,0 z"
       id="path36"
       inkscape:connector-curvature="0" />
    <polygon
       style="fill:#ff2f2f"
       id="polygon38"
       points="16,49 16,53 64,53 64,49 "
       transform="translate(907,433)" />
    <polygon
       style="fill:#ff2f2f"
       id="polygon40"
       points="16,57 16,61 64,61 64,57 "
       transform="translate(907,433)" />
    <polygon
       style="fill:#ff2f2f"
       id="polygon42"
       points="16,65 16,69 40,69 40,65 "
       transform="translate(907,433)" />
    <path
       style="fill:#5596e6"
       d="m 59,156.14226 0,118.85715 80,0 0,-87.16191 -32,-31.69524 -48,0 0,0 z m 4,3.96389 40,0 0,31.69326 32,0 0,79.24007 -72,0 0,-110.93333 0,0 z"
       id="path46"
       inkscape:connector-curvature="0" />
    <polygon
       style="fill:#5596e6"
       id="polygon48"
       points="16,47.685714 16,51.647619 64,51.647619 64,47.685714 "
       transform="translate(59,156)" />
    <polygon
       style="fill:#5596e6"
       id="polygon50"
       points="16,55.609524 16,59.571429 64,59.571429 64,55.609524 "
       transform="translate(59,156)" />
    <polygon
       style="fill:#5596e6"
       id="polygon52"
       points="16,63.533333 16,67.495238 40,67.495238 40,63.533333 "
       transform="translate(59,156)" />
    <text
       style="font-weight:bold;font-size:32px;font-family:HelvNeueBoldforIBM, 'HelvNeue Bold for IBM';fill:#3c3232"
       font-weight="bold"
       font-size="32"
       id="text54"
       x="-72">
      <tspan
         id="tspan56"
         y="161"
         x="537.92401">Bluemix-Rechnung</tspan>
    </text>
    <g
       id="g3781"
       transform="translate(12,0)">
      <path
         inkscape:connector-curvature="0"
         id="path60"
         d="m 654,0.9994 0,120 80,0 0,-88 -32,-32 -48,0 0,0 z m 4,4.002 40,0 0,31.998 32,0 0,80.002 -72,0 0,-112 0,0 z"
         style="fill:#5596e6" />
      <polygon
         transform="translate(654,0)"
         points="64,53 64,49 16,49 16,53 "
         id="polygon62"
         style="fill:#5596e6" />
      <polygon
         transform="translate(654,0)"
         points="64,61 64,57 16,57 16,61 "
         id="polygon64"
         style="fill:#5596e6" />
      <polygon
         transform="translate(654,0)"
         points="40,69 40,65 16,65 16,69 "
         id="polygon66"
         style="fill:#5596e6" />
    </g>
    <g
       id="g3775"
       transform="translate(12,0)">
      <path
         inkscape:connector-curvature="0"
         id="path70"
         d="m 1322,212.9994 0,120 80,0 0,-88 -32,-32 -48,0 0,0 z m 4,4.002 40,0 0,31.998 32,0 0,80.002 -72,0 0,-112 0,0 z"
         style="fill:#5596e6" />
      <polygon
         transform="translate(1322,212)"
         points="64,53 64,49 16,49 16,53 "
         id="polygon72"
         style="fill:#5596e6" />
      <polygon
         transform="translate(1322,212)"
         points="64,61 64,57 16,57 16,61 "
         id="polygon74"
         style="fill:#5596e6" />
      <polygon
         transform="translate(1322,212)"
         points="40,69 40,65 16,65 16,69 "
         id="polygon76"
         style="fill:#5596e6" />
    </g>
    <path
       style="fill:#000000"
       inkscape:connector-curvature="0"
       mask="url(#mask-2)"
       id="path86"
       d="m 79.6062,31.6062 -9,9 c -2.8335,2.8335 -6.6,4.3935 -10.6065,4.3935 -1.9275,0 -3.8025,-0.348 -5.535,-0.9795 l 12.7785,-12.777 -8.4855,-8.4855 -12.7785,12.777 c -0.6315,-1.731 -0.9795,-3.606 -0.9795,-5.535 0,-4.0065 1.56,-7.773 4.3935,-10.6065 l 9,-9 c 2.8335,-2.8335 6.6,-4.3935 10.6065,-4.3935 4.0065,0 7.773,1.56 10.6065,4.3935 2.8335,2.8335 4.3935,6.6 4.3935,10.6065 0,4.0065 -1.56,7.773 -4.3935,10.6065 M 44.9997,59.9997 c 0,4.0065 -1.56,7.773 -4.3935,10.6065 l -9,9 c -2.8335,2.8335 -6.6,4.3935 -10.6065,4.3935 -4.0065,0 -7.773,-1.56 -10.6065,-4.3935 -2.8335,-2.8335 -4.3935,-6.6 -4.3935,-10.6065 0,-4.0065 1.56,-7.773 4.3935,-10.6065 l 9,-9 c 2.8335,-2.8335 6.6,-4.3935 10.6065,-4.3935 1.929,0 3.804,0.348 5.535,0.9795 l -12.777,12.7785 8.4855,8.4855 12.777,-12.7785 c 0.6315,1.7325 0.9795,3.6075 0.9795,5.535 m 38.85,-53.8485 c -3.801,-3.7995 -9.051,-6.1515 -14.85,-6.1515 -5.799,0 -11.049,2.352 -14.8485,6.1515 l -9,9 c -3.7995,3.7995 -6.1515,9.0495 -6.1515,14.8485 0,3.6165 0.858,7.077 2.4225,10.092 l -1.3305,1.3305 c -3.0135,-1.5645 -6.4755,-2.4225 -10.092,-2.4225 -5.799,0 -11.049,2.352 -14.8485,6.1515 l -9,9 C 2.3517,57.9507 -3e-4,63.2007 -3e-4,68.9997 c 0,5.799 2.352,11.049 6.1515,14.85 3.7995,3.7995 9.0495,6.15 14.8485,6.15 5.799,0 11.049,-2.3505 14.85,-6.15 l 9,-9 c 3.7995,-3.801 6.15,-9.051 6.15,-14.85 0,-3.6165 -0.8565,-7.077 -2.4225,-10.092 l 1.3305,-1.3305 c 3.015,1.566 6.4755,2.4225 10.092,2.4225 5.799,0 11.049,-2.3505 14.85,-6.15 l 9,-9 c 3.7995,-3.801 6.15,-9.051 6.15,-14.85 0,-5.799 -2.3505,-11.049 -6.15,-14.8485"
       transform="translate(367,317)" />
    <text
       style="font-weight:bold;font-size:32px;font-family:HelvNeueBoldforIBM, 'HelvNeue Bold for IBM';fill:#3c3232"
       font-weight="bold"
       font-size="32"
       id="Link-Bluemix-and"
       x="-82">
      <tspan
         id="tspan89"
         y="441"
         x="202.95599">Bluemix- und SoftLayer-</tspan>
    </text>
    <text
       style="font-weight:bold;font-size:32px;font-family:HelvNeueBoldforIBM, 'HelvNeue Bold for IBM';fill:#3c3232"
       font-weight="bold"
       font-size="32"
       id="SoftLayer-accounts"
       x="-24">
      <tspan
         id="tspan92"
         y="480"
         x="241.91599">Konten verknüpfen</tspan>
    </text>
    <text
       style="font-weight:normal;font-size:30px;font-family:HelveticaNeue, 'Helvetica Neue';fill:#3c3232"
       font-weight="normal"
       font-size="30"
       id="For-the-next-billing-cycle,-you"
       x="8">
      <tspan
         id="tspan95"
         y="433"
         x="1123.285">Für den nächsten Abrechnungszyklus</tspan>
    </text>
    <text
       style="font-weight:normal;font-size:30px;font-family:HelveticaNeue, 'Helvetica Neue';fill:#3c3232"
       font-weight="normal"
       font-size="30"
       id="will-receive-a-singl"
       x="32">
      <tspan
         id="tspan98"
         y="465"
         x="1153.395">erhalten Sie eine einzige Bluemix-</tspan>
    </text>
    <text
       style="font-weight:normal;font-size:30px;font-family:HelveticaNeue, 'Helvetica Neue';fill:#3c3232"
       font-weight="normal"
       font-size="30"
       id="bill-that-includes-your-SoftLayer"
       x="46">
      <tspan
         id="tspan101"
         y="497"
         x="1146">Rechnung, die Ihre SoftLayer- und</tspan>
    </text>
    <text
       style="font-weight:normal;font-size:30px;font-family:HelveticaNeue, 'Helvetica Neue';fill:#3c3232"
       font-weight="normal"
       font-size="30"
       id="and-Bluemix-charges"
       x="34">
      <tspan
         id="tspan104"
         y="529"
         x="1204.005">Bluemix-Gebühren enthält</tspan>
    </text>
    <text
       style="font-weight:bold;font-size:32px;font-family:HelvNeueBoldforIBM, 'HelvNeue Bold for IBM';fill:#3c3232"
       font-weight="bold"
       font-size="32"
       id="text106"
       x="-22">
      <tspan
         id="tspan108"
         y="377"
         x="1205.864">Bluemix-Rechnung</tspan>
    </text>
    <path
       style="stroke:#af6ee8;stroke-width:6"
       d="M 458.26034,368.5 1188,368.5"
       id="Line"
       inkscape:connector-curvature="0" />
    <path
       style="stroke:#af6ee8;stroke-width:6"
       d="m 1188,371.5 0,-6"
       id="Line-decoration-1"
       inkscape:connector-curvature="0" />
    <text
       style="font-weight:normal;font-size:30px;font-family:HelveticaNeue, 'Helvetica Neue';fill:#1a1314"
       font-weight="normal"
       font-size="30"
       id="After-you-link-accounts,-you">
      <tspan
         id="tspan114"
         y="203"
         x="480.04001">Nach dem Verknüpfen der Konten</tspan>
    </text>
    <text
       style="font-weight:normal;font-size:30px;font-family:HelveticaNeue, 'Helvetica Neue';fill:#1a1314"
       font-weight="normal"
       font-size="30"
       id="will-receive-a-separate-bill-for-your"
       x="2">
      <tspan
         id="tspan117"
         y="235"
         x="441">erhalten Sie eine separate Rechnung für</tspan>
    </text>
    <text
       style="font-weight:normal;font-size:30px;font-family:HelveticaNeue, 'Helvetica Neue';fill:#1a1314"
       font-weight="normal"
       font-size="30"
       id="Bluemix-usage-for-the-current"
       x="42">
      <tspan
         id="tspan120"
         y="267"
         x="510.38501">Ihre Bluemix-Nutzung für den</tspan>
    </text>
    <text
       style="font-weight:normal;font-size:30px;font-family:HelveticaNeue, 'Helvetica Neue';fill:#1a1314"
       font-weight="normal"
       font-size="30"
       id="month’s-billing-cycle."
       x="-102">
      <tspan
         id="tspan123"
         y="299"
         x="423.03998">Abrechnungszyklus des laufenden Monats.</tspan>
    </text>
    <text
       style="font-weight:normal;font-size:30px;font-family:HelveticaNeue, 'Helvetica Neue';fill:#3c3232"
       font-weight="normal"
       font-size="30"
       id="You-might-receive-a-separate-bill"
       x="-56">
      <tspan
         id="tspan126"
         y="639"
         x="667.77002">Möglicherweise erhalten Sie eine separate</tspan>
    </text>
    <text
       style="font-weight:normal;font-size:30px;font-family:HelveticaNeue, 'Helvetica Neue';fill:#3c3232"
       font-weight="normal"
       font-size="30"
       id="for-SoftLayer-usage-for-the-current"
       x="-60">
      <tspan
         id="tspan129"
         y="671"
         x="649.92999">Rechnung für die SoftLayer-Nutzung für den</tspan>
    </text>
    <text
       style="font-weight:normal;font-size:30px;font-family:HelveticaNeue, 'Helvetica Neue';fill:#3c3232"
       font-weight="normal"
       font-size="30"
       id="billing-cycle,-depending-on-when-you"
       x="-36">
      <tspan
         id="tspan132"
         y="703"
         x="656">laufenden Abrechnungszyklus, je nachdem,</tspan>
    </text>
    <text
       style="font-weight:normal;font-size:30px;font-family:HelveticaNeue, 'Helvetica Neue';fill:#3c3232"
       font-weight="normal"
       font-size="30"
       id="linked-your-accounts."
       x="-110">
      <tspan
         id="tspan135"
         y="735"
         x="688.72998">wann Sie Ihre Konten verknüpft haben.</tspan>
    </text>
    <path
       d="m 583.6203,326 217.89474,0"
       id="path138"
       inkscape:connector-curvature="0"
       style="stroke:#5596e6;stroke-dasharray:15, 5" />
    <path
       d="m 581,366 0,-41"
       id="path140"
       inkscape:connector-curvature="0"
       style="stroke:#af6ee8" />
    <path
       d="m 807,366 0,-41"
       id="Line-Copy"
       inkscape:connector-curvature="0"
       style="stroke:#af6ee8" />
    <path
       d="m 1046.9417,408 -196.10523,0"
       id="path145"
       inkscape:connector-curvature="0"
       style="stroke:#ff2f2f;stroke-dasharray:15, 5" />
    <path
       d="m 1049,368 0,40.22581"
       id="path147"
       inkscape:connector-curvature="0"
       style="stroke:#af6ee8" />
    <path
       d="m 845,368 0,40.22581"
       id="path149"
       inkscape:connector-curvature="0"
       style="stroke:#af6ee8" />
  </g>
</svg>
