<?xml version="1.0" encoding="UTF-8" standalone="no"?>
<svg
   xmlns:dc="http://purl.org/dc/elements/1.1/"
   xmlns:cc="http://creativecommons.org/ns#"
   xmlns:rdf="http://www.w3.org/1999/02/22-rdf-syntax-ns#"
   xmlns:svg="http://www.w3.org/2000/svg"
   xmlns="http://www.w3.org/2000/svg"
   xmlns:xlink="http://www.w3.org/1999/xlink"
   xmlns:sodipodi="http://sodipodi.sourceforge.net/DTD/sodipodi-0.dtd"
   xmlns:inkscape="http://www.inkscape.org/namespaces/inkscape"
   width="1613px"
   height="831px"
   viewBox="0 0 1613 831"
   version="1.1"
   id="svg2"
   inkscape:version="0.91 r13725"
   sodipodi:docname="bluemixsoftlayerbill.svg">
  <metadata
     id="metadata139">
    <rdf:RDF>
      <cc:Work
         rdf:about="">
        <dc:format>image/svg+xml</dc:format>
        <dc:type
           rdf:resource="http://purl.org/dc/dcmitype/StillImage" />
      </cc:Work>
    </rdf:RDF>
  </metadata>
  <sodipodi:namedview
     pagecolor="#ffffff"
     bordercolor="#666666"
     borderopacity="1"
     objecttolerance="10"
     gridtolerance="10"
     guidetolerance="10"
     inkscape:pageopacity="0"
     inkscape:pageshadow="2"
     inkscape:window-width="1600"
     inkscape:window-height="848"
     id="namedview137"
     showgrid="false"
     inkscape:zoom="0.8698989"
     inkscape:cx="868.80516"
     inkscape:cy="415.8503"
     inkscape:window-x="-8"
     inkscape:window-y="-8"
     inkscape:window-maximized="1"
     inkscape:current-layer="svg2" />
  <!-- Generator: Sketch 3.7.2 (28276) - http://www.bohemiancoding.com/sketch -->
  <title
     id="title4">Desktop HD</title>
  <desc
     id="desc6">Created with Sketch.</desc>
  <defs
     id="defs8">
    <polygon
       id="path-1"
       points="89.9997 0 0 0 0 89.9997 89.9997 89.9997 89.9997 0" />
  </defs>
  <polyline
     id="Stroke-36"
     points="182 589 434.6837 588 446.5038 548"
     style="fill:none;fill-rule:evenodd;stroke:#ff2f2f;stroke-width:6;stroke-linecap:square" />
  <polyline
     id="Stroke-38"
     points="182 297 434.6837 298 446.5038 338"
     style="fill:none;fill-rule:evenodd;stroke:#5596e6;stroke-width:6;stroke-linecap:square" />
  <text
     id="Bluemix-bill"
     font-size="32"
     font-weight="bold"
     style="font-weight:bold;font-size:32px;font-family:HelvNeueBoldforIBM, 'HelvNeue Bold for IBM';fill:#3c3232;fill-rule:evenodd;stroke:none;stroke-width:1">
    <tspan
       x="49.424"
       y="351"
       id="tspan16">Bluemix-Rechnung</tspan>
  </text>
  <text
     id="SoftLayer-bill"
     font-size="32"
     font-weight="bold"
     style="font-weight:bold;font-size:32px;font-family:HelvNeueBoldforIBM, 'HelvNeue Bold for IBM';fill:#3c3232;fill-rule:evenodd;stroke:none;stroke-width:1">
    <tspan
       x="35.952"
       y="641"
       id="tspan19">SoftLayer-Rechnung</tspan>
  </text>
  <g
     id="g21"
     transform="translate(94,488)"
     style="fill:#ff2f2f;fill-rule:evenodd;stroke:none;stroke-width:1">
    <path
       d="m 0,0.9994 0,120 80,0 0,-88 -32,-32 -48,0 z m 4,4.002 40,0 0,31.998 32,0 0,80.002 -72,0 0,-112 z"
       id="Fill-1"
       inkscape:connector-curvature="0" />
    <polygon
       id="Fill-2"
       points="16,53 64,53 64,49 16,49 " />
    <polygon
       id="Fill-3"
       points="16,61 64,61 64,57 16,57 " />
    <polygon
       id="Fill-4"
       points="16,69 40,69 40,65 16,65 " />
  </g>
  <text
     id="text27"
     font-size="32"
     font-weight="bold"
     style="font-weight:bold;font-size:32px;font-family:HelvNeueBoldforIBM, 'HelvNeue Bold for IBM';fill:#3c3232;fill-rule:evenodd;stroke:none;stroke-width:1"
     x="-36">
    <tspan
       x="847.95203"
       y="638"
       id="tspan29">SoftLayer-Rechnung</tspan>
  </text>
  <g
     id="g31"
     transform="translate(942,477)"
     style="fill:#ff2f2f;fill-rule:evenodd;stroke:none;stroke-width:1">
    <path
       d="m 0,0.9994 0,120 80,0 0,-88 -32,-32 -48,0 z m 4,4.002 40,0 0,31.998 32,0 0,80.002 -72,0 0,-112 z"
       id="path33"
       inkscape:connector-curvature="0" />
    <polygon
       id="polygon35"
       points="16,53 64,53 64,49 16,49 " />
    <polygon
       id="polygon37"
       points="16,61 64,61 64,57 16,57 " />
    <polygon
       id="polygon39"
       points="16,69 40,69 40,65 16,65 " />
  </g>
  <g
     id="g41"
     transform="translate(94,200)"
     style="fill:#5596e6;fill-rule:evenodd;stroke:none;stroke-width:1">
    <path
       d="M 0,0.14226286 0,118.99941 l 80,0 0,-87.161909 -32,-31.69523814 -48,0 z m 4,3.96388574 40,0 0,31.6932574 32,0 0,79.240074 -72,0 L 4,4.1061486 Z"
       id="path43"
       inkscape:connector-curvature="0" />
    <polygon
       id="polygon45"
       points="16,51.647619 64,51.647619 64,47.685714 16,47.685714 " />
    <polygon
       id="polygon47"
       points="16,59.571429 64,59.571429 64,55.609524 16,55.609524 " />
    <polygon
       id="polygon49"
       points="16,67.495238 40,67.495238 40,63.533333 16,63.533333 " />
  </g>
  <text
     id="text51"
     font-size="32"
     font-weight="bold"
     style="font-weight:bold;font-size:32px;font-family:HelvNeueBoldforIBM, 'HelvNeue Bold for IBM';fill:#3c3232;fill-rule:evenodd;stroke:none;stroke-width:1"
     x="-36">
    <tspan
       x="608.92401"
       y="205"
       id="tspan53">Bluemix-Rechnung</tspan>
  </text>
  <g
     id="g55"
     transform="translate(689,44)"
     style="fill:#5596e6;fill-rule:evenodd;stroke:none;stroke-width:1">
    <path
       d="m 0,0.9994 0,120 80,0 0,-88 -32,-32 -48,0 z m 4,4.002 40,0 0,31.998 32,0 0,80.002 -72,0 0,-112 z"
       id="path57"
       inkscape:connector-curvature="0" />
    <polygon
       id="polygon59"
       points="16,53 64,53 64,49 16,49 " />
    <polygon
       id="polygon61"
       points="16,61 64,61 64,57 16,57 " />
    <polygon
       id="polygon63"
       points="16,69 40,69 40,65 16,65 " />
  </g>
  <g
     style="fill:none;fill-rule:evenodd;stroke:none;stroke-width:1"
     id="g65"
     transform="translate(402,361)">
    <mask
       id="mask-2"
       fill="white">
      <use
         xlink:href="#path-1"
         id="use68"
         x="0"
         y="0"
         width="100%"
         height="100%" />
    </mask>
    <g
       id="Clip-2" />
    <path
       d="m 79.6062,31.6062 -9,9 c -2.8335,2.8335 -6.6,4.3935 -10.6065,4.3935 -1.9275,0 -3.8025,-0.348 -5.535,-0.9795 l 12.7785,-12.777 -8.4855,-8.4855 -12.7785,12.777 c -0.6315,-1.731 -0.9795,-3.606 -0.9795,-5.535 0,-4.0065 1.56,-7.773 4.3935,-10.6065 l 9,-9 c 2.8335,-2.8335 6.6,-4.3935 10.6065,-4.3935 4.0065,0 7.773,1.56 10.6065,4.3935 2.8335,2.8335 4.3935,6.6 4.3935,10.6065 0,4.0065 -1.56,7.773 -4.3935,10.6065 M 44.9997,59.9997 c 0,4.0065 -1.56,7.773 -4.3935,10.6065 l -9,9 c -2.8335,2.8335 -6.6,4.3935 -10.6065,4.3935 -4.0065,0 -7.773,-1.56 -10.6065,-4.3935 -2.8335,-2.8335 -4.3935,-6.6 -4.3935,-10.6065 0,-4.0065 1.56,-7.773 4.3935,-10.6065 l 9,-9 c 2.8335,-2.8335 6.6,-4.3935 10.6065,-4.3935 1.929,0 3.804,0.348 5.535,0.9795 l -12.777,12.7785 8.4855,8.4855 12.777,-12.7785 c 0.6315,1.7325 0.9795,3.6075 0.9795,5.535 m 38.85,-53.8485 c -3.801,-3.7995 -9.051,-6.1515 -14.85,-6.1515 -5.799,0 -11.049,2.352 -14.8485,6.1515 l -9,9 c -3.7995,3.7995 -6.1515,9.0495 -6.1515,14.8485 0,3.6165 0.858,7.077 2.4225,10.092 l -1.3305,1.3305 c -3.0135,-1.5645 -6.4755,-2.4225 -10.092,-2.4225 -5.799,0 -11.049,2.352 -14.8485,6.1515 l -9,9 C 2.3517,57.9507 -3e-4,63.2007 -3e-4,68.9997 c 0,5.799 2.352,11.049 6.1515,14.85 3.7995,3.7995 9.0495,6.15 14.8485,6.15 5.799,0 11.049,-2.3505 14.85,-6.15 l 9,-9 c 3.7995,-3.801 6.15,-9.051 6.15,-14.85 0,-3.6165 -0.8565,-7.077 -2.4225,-10.092 l 1.3305,-1.3305 c 3.015,1.566 6.4755,2.4225 10.092,2.4225 5.799,0 11.049,-2.3505 14.85,-6.15 l 9,-9 c 3.7995,-3.801 6.15,-9.051 6.15,-14.85 0,-5.799 -2.3505,-11.049 -6.15,-14.8485"
       id="path71"
       mask="url(#mask-2)"
       inkscape:connector-curvature="0"
       style="fill:#000000" />
  </g>
  <text
     id="Bluemix-and--SoftLay"
     font-size="32"
     font-weight="bold"
     style="font-weight:bold;font-size:32px;font-family:HelvNeueBoldforIBM, 'HelvNeue Bold for IBM';fill:#3c3232;fill-rule:evenodd;stroke:none;stroke-width:1">
    <tspan
       x="1257.864"
       y="391"
       id="tspan88">Bluemix- und</tspan>
    <tspan
       x="1250.952"
       y="430"
       id="tspan90">SoftLayer-Rechnung</tspan>
  </text>
  <g
     id="g92"
     transform="translate(1309,221)"
     style="fill:#000000;fill-rule:evenodd;stroke:none;stroke-width:1">
    <path
       d="m 0,3e-4 0,120 80,0 0,-88 -32,-32 -48,0 z m 4,4 40,0 0,32 32,0 0,80 -72,0 0,-112 z"
       id="path94"
       inkscape:connector-curvature="0" />
    <polygon
       id="polygon96"
       points="16,52 64,52 64,48 16,48 " />
    <polygon
       id="polygon98"
       points="16,60 64,60 64,56 16,56 " />
    <polygon
       id="polygon100"
       points="16,68 40,68 40,64 16,64 " />
  </g>
  <g
     id="Group"
     transform="matrix(1,0,0,-1,492,434)"
     style="fill:none;fill-rule:evenodd;stroke:#af6ee8;stroke-width:6;stroke-linecap:square">
    <path
       d="M 1.2603448,21.5 731,21.5"
       id="Line"
       inkscape:connector-curvature="0" />
    <path
       id="Line-decoration-1"
       d="m 731,18.5 0,6"
       inkscape:connector-curvature="0" />
  </g>
  <g
     id="Group-2"
     transform="translate(613,367)"
     style="fill:none;fill-rule:evenodd;stroke:none;stroke-width:6">
    <path
       d="M 5.6203007,3 223.51504,3"
       id="path124"
       transform="matrix(1,0,0,-1,0,6)"
       inkscape:connector-curvature="0"
       style="stroke:#5596e6;stroke-dasharray:15, 5" />
    <path
       d="M 3,2 3,43"
       id="path126"
       transform="matrix(1,0,0,-1,0,45)"
       inkscape:connector-curvature="0"
       style="stroke:#af6ee8" />
    <path
       d="m 229,2 0,41"
       id="Line-Copy"
       transform="matrix(1,0,0,-1,0,45)"
       inkscape:connector-curvature="0"
       style="stroke:#af6ee8" />
  </g>
  <g
     id="g129"
     transform="matrix(-1,0,0,-1,1087,455)"
     style="fill:none;fill-rule:evenodd;stroke:none;stroke-width:6">
    <path
       d="M 5.0582707,3 201.16353,3"
       id="path131"
       transform="matrix(1,0,0,-1,0,6)"
       inkscape:connector-curvature="0"
       style="stroke:#ff2f2f;stroke-dasharray:15, 5" />
    <path
       d="M 3,2.7741936 3,43"
       id="path133"
       transform="matrix(1,0,0,-1,0,45.774194)"
       inkscape:connector-curvature="0"
       style="stroke:#af6ee8" />
    <path
       d="M 207,2.7741936 207,43"
       id="path135"
       transform="matrix(1,0,0,-1,0,45.774194)"
       inkscape:connector-curvature="0"
       style="stroke:#af6ee8" />
  </g>
  <text
     id="Link-Bluemix-and--So"
     font-size="32"
     font-weight="bold"
     style="font-style:normal;font-variant:normal;font-weight:bold;font-stretch:normal;font-size:32px;line-height:125%;font-family:HelvNeueBoldforIBM, 'HelvNeue Bold for IBM';-inkscape-font-specification:'HelvNeueBoldforIBM, HelvNeue Bold for IBM, Bold';text-align:center;writing-mode:lr-tb;text-anchor:middle;fill:#3c3232;fill-rule:evenodd;stroke:none;stroke-width:1"
     sodipodi:linespacing="125%"
     x="466.97311"
     y="482.81473">
    <tspan
       sodipodi:role="line"
       id="tspan3612"
       x="466.97311"
       y="482.81473">Bluemix- und SoftLayer-</tspan>
    <tspan
       sodipodi:role="line"
       id="tspan3614"
       x="466.97311"
       y="522.81476">Konten verknüpfen</tspan>
  </text>
  <text
     y="244.81133"
     x="734.22668"
     id="After-you-link-accou-2"
     font-size="30"
     font-weight="normal"
     line-spacing="32"
     style="font-style:normal;font-variant:normal;font-weight:normal;font-stretch:normal;font-size:30px;line-height:110%;font-family:HelveticaNeue, 'Helvetica Neue';-inkscape-font-specification:'HelveticaNeue, Helvetica Neue, Normal';text-align:center;writing-mode:lr;text-anchor:middle;fill:#1a1314;fill-rule:evenodd;stroke:none;stroke-width:1;"
     sodipodi:linespacing="110%">
    <tspan
       sodipodi:role="line"
       id="tspan3692"
       x="734.22668"
       y="244.81133">Nach der Verknüpfung der Konten erhalten</tspan>
    <tspan
       sodipodi:role="line"
       id="tspan3694"
       x="734.22668"
       y="282.31134">Sie eine separate Rechnung zu Ihrer</tspan>
    <tspan
       sodipodi:role="line"
       id="tspan3696"
       x="734.22668"
       y="319.81134">Bluemix-Nutzung für den Abrechnungs-</tspan>
    <tspan
       sodipodi:role="line"
       id="tspan3698"
       x="734.22668"
       y="357.31134">zyklus des aktuellen Monats.</tspan>
  </text>
  <text
     y="476.24371"
     x="1401.5172"
     id="For-the-next-billing-7"
     font-size="30"
     font-weight="normal"
     line-spacing="32"
     style="font-style:normal;font-variant:normal;font-weight:normal;font-stretch:normal;font-size:30px;line-height:110.00000238%;font-family:HelveticaNeue, 'Helvetica Neue';-inkscape-font-specification:'HelveticaNeue, Helvetica Neue, Normal';text-align:center;writing-mode:lr-tb;text-anchor:middle;fill:#3c3232;fill-rule:evenodd;stroke:none;stroke-width:1"
     sodipodi:linespacing="110%">
    <tspan
       sodipodi:role="line"
       id="tspan3733"
       x="1401.5172"
       y="476.24371">Im nächsten Abrechnungszyklus</tspan>
    <tspan
       sodipodi:role="line"
       id="tspan3735"
       x="1401.5172"
       y="509.24371">erhalten Sie nur eine SoftLayer-</tspan>
    <tspan
       sodipodi:role="line"
       id="tspan3737"
       x="1401.5172"
       y="542.24371">Rechnung mit Ihren SoftLayer-</tspan>
    <tspan
       sodipodi:role="line"
       id="tspan3739"
       x="1401.5172"
       y="575.24371">und Bluemix-Gebühren</tspan>
  </text>
  <text
     y="684.89355"
     x="991.62103"
     id="You-might-receive-a--1"
     font-size="30"
     font-weight="normal"
     line-spacing="32"
     letter-spacing="0.25000003"
     style="font-style:normal;font-variant:normal;font-weight:normal;font-stretch:normal;font-size:30px;line-height:110.00000238%;font-family:HelveticaNeue, 'Helvetica Neue';-inkscape-font-specification:'HelveticaNeue, Helvetica Neue, Normal';text-align:center;letter-spacing:0.25000003;writing-mode:lr-tb;text-anchor:middle;fill:#3c3232;fill-rule:evenodd;stroke:none;stroke-width:1"
     sodipodi:linespacing="110%">
    <tspan
       sodipodi:role="line"
       id="tspan3768"
       x="991.74603"
       y="684.89355">Je nachdem, wann Sie die Konten</tspan>
    <tspan
       sodipodi:role="line"
       id="tspan3770"
       x="991.74603"
       y="717.89355">verknüpft haben,erhalten Sie möglicherweise</tspan>
    <tspan
       sodipodi:role="line"
       id="tspan3772"
       x="991.74603"
       y="750.89355">eine separate Rechnung zu Ihrer SoftLayer-</tspan>
    <tspan
       sodipodi:role="line"
       id="tspan3774"
       x="991.74603"
       y="783.89355">Nutzung für den aktuellen Abrechnungszyklus.</tspan>
  </text>
</svg>
