<?xml version="1.0" encoding="UTF-8" standalone="no"?>
<svg
   xmlns:dc="http://purl.org/dc/elements/1.1/"
   xmlns:cc="http://creativecommons.org/ns#"
   xmlns:rdf="http://www.w3.org/1999/02/22-rdf-syntax-ns#"
   xmlns:svg="http://www.w3.org/2000/svg"
   xmlns="http://www.w3.org/2000/svg"
   xmlns:xlink="http://www.w3.org/1999/xlink"
   xmlns:sodipodi="http://sodipodi.sourceforge.net/DTD/sodipodi-0.dtd"
   xmlns:inkscape="http://www.inkscape.org/namespaces/inkscape"
   width="1613px"
   height="831px"
   viewBox="0 0 1613 831"
   version="1.1"
   id="svg2"
   inkscape:version="0.48.5 r"
   sodipodi:docname="BluemixSoftLayerBill.svg">
  <metadata
     id="metadata139">
    <rdf:RDF>
      <cc:Work
         rdf:about="">
        <dc:format>image/svg+xml</dc:format>
        <dc:type
           rdf:resource="http://purl.org/dc/dcmitype/StillImage" />
      </cc:Work>
    </rdf:RDF>
  </metadata>
  <sodipodi:namedview
     pagecolor="#ffffff"
     bordercolor="#666666"
     borderopacity="1"
     objecttolerance="10"
     gridtolerance="10"
     guidetolerance="10"
     inkscape:pageopacity="0"
     inkscape:pageshadow="2"
     inkscape:window-width="1680"
     inkscape:window-height="987"
     id="namedview137"
     showgrid="false"
     inkscape:zoom="0.56799037"
     inkscape:cx="1148.1473"
     inkscape:cy="457.21926"
     inkscape:window-x="-4"
     inkscape:window-y="-4"
     inkscape:window-maximized="1"
     inkscape:current-layer="svg2" />
  <!-- Generator: Sketch 3.7.2 (28276) - http://www.bohemiancoding.com/sketch -->
  <title
     id="title4">Desktop HD</title>
  <desc
     id="desc6">Created with Sketch.</desc>
  <defs
     id="defs8">
    <polygon
       id="path-1"
       points="89.9997 0 0 0 0 89.9997 89.9997 89.9997 89.9997 0" />
  </defs>
  <g
     id="Page-1"
     stroke="none"
     stroke-width="1"
     fill="none"
     fill-rule="evenodd">
    <g
       id="Desktop-HD">
      <polyline
         id="Stroke-36"
         stroke="#FF2F2F"
         stroke-width="6"
         stroke-linecap="square"
         points="182 589 434.6837 588 446.5038 548" />
      <polyline
         id="Stroke-38"
         stroke="#5596E6"
         stroke-width="6"
         stroke-linecap="square"
         points="182 297 434.6837 298 446.5038 338" />
      <g
         id="g21"
         transform="translate(94.000000, 488.000000)"
         fill="#FF2F2F">
        <path
           d="M0,0.9994 L0,120.9994 L80,120.9994 L80,32.9994 L48,0.9994 L0,0.9994 Z M4,5.0014 L44,5.0014 L44,36.9994 L76,36.9994 L76,117.0014 L4,117.0014 L4,5.0014 Z"
           id="Fill-1" />
        <polygon
           id="Fill-2"
           points="16 53 64 53 64 49 16 49" />
        <polygon
           id="Fill-3"
           points="16 61 64 61 64 57 16 57" />
        <polygon
           id="Fill-4"
           points="16 69 40 69 40 65 16 65" />
      </g>
      <g
         id="g31"
         transform="translate(942.000000, 477.000000)"
         fill="#FF2F2F">
        <path
           d="M0,0.9994 L0,120.9994 L80,120.9994 L80,32.9994 L48,0.9994 L0,0.9994 Z M4,5.0014 L44,5.0014 L44,36.9994 L76,36.9994 L76,117.0014 L4,117.0014 L4,5.0014 Z"
           id="path33" />
        <polygon
           id="polygon35"
           points="16 53 64 53 64 49 16 49" />
        <polygon
           id="polygon37"
           points="16 61 64 61 64 57 16 57" />
        <polygon
           id="polygon39"
           points="16 69 40 69 40 65 16 65" />
      </g>
      <g
         id="g41"
         transform="translate(94.000000, 200.000000)"
         fill="#5596E6">
        <path
           d="M0,0.142262857 L0,118.999406 L80,118.999406 L80,31.837501 L48,0.142262857 L0,0.142262857 Z M4,4.10614857 L44,4.10614857 L44,35.7994057 L76,35.7994057 L76,115.039482 L4,115.039482 L4,4.10614857 Z"
           id="path43" />
        <polygon
           id="polygon45"
           points="16 51.647619 64 51.647619 64 47.6857143 16 47.6857143" />
        <polygon
           id="polygon47"
           points="16 59.5714286 64 59.5714286 64 55.6095238 16 55.6095238" />
        <polygon
           id="polygon49"
           points="16 67.4952381 40 67.4952381 40 63.5333333 16 63.5333333" />
      </g>
      <g
         id="g55"
         transform="translate(689.000000, 44.000000)"
         fill="#5596E6">
        <path
           d="M0,0.9994 L0,120.9994 L80,120.9994 L80,32.9994 L48,0.9994 L0,0.9994 Z M4,5.0014 L44,5.0014 L44,36.9994 L76,36.9994 L76,117.0014 L4,117.0014 L4,5.0014 Z"
           id="path57" />
        <polygon
           id="polygon59"
           points="16 53 64 53 64 49 16 49" />
        <polygon
           id="polygon61"
           points="16 61 64 61 64 57 16 57" />
        <polygon
           id="polygon63"
           points="16 69 40 69 40 65 16 65" />
      </g>
      <g
         id="g65"
         transform="translate(402.000000, 361.000000)">
        <mask
           id="mask-2"
           fill="white">
          <use
             xlink:href="#path-1"
             id="use68" />
        </mask>
        <g
           id="Clip-2" />
        <path
           d="M79.6062,31.6062 L70.6062,40.6062 C67.7727,43.4397 64.0062,44.9997 59.9997,44.9997 C58.0722,44.9997 56.1972,44.6517 54.4647,44.0202 L67.2432,31.2432 L58.7577,22.7577 L45.9792,35.5347 C45.3477,33.8037 44.9997,31.9287 44.9997,29.9997 C44.9997,25.9932 46.5597,22.2267 49.3932,19.3932 L58.3932,10.3932 C61.2267,7.5597 64.9932,5.9997 68.9997,5.9997 C73.0062,5.9997 76.7727,7.5597 79.6062,10.3932 C82.4397,13.2267 83.9997,16.9932 83.9997,20.9997 C83.9997,25.0062 82.4397,28.7727 79.6062,31.6062 M44.9997,59.9997 C44.9997,64.0062 43.4397,67.7727 40.6062,70.6062 L31.6062,79.6062 C28.7727,82.4397 25.0062,83.9997 20.9997,83.9997 C16.9932,83.9997 13.2267,82.4397 10.3932,79.6062 C7.5597,76.7727 5.9997,73.0062 5.9997,68.9997 C5.9997,64.9932 7.5597,61.2267 10.3932,58.3932 L19.3932,49.3932 C22.2267,46.5597 25.9932,44.9997 29.9997,44.9997 C31.9287,44.9997 33.8037,45.3477 35.5347,45.9792 L22.7577,58.7577 L31.2432,67.2432 L44.0202,54.4647 C44.6517,56.1972 44.9997,58.0722 44.9997,59.9997 M83.8497,6.1512 C80.0487,2.3517 74.7987,-0.0003 68.9997,-0.0003 C63.2007,-0.0003 57.9507,2.3517 54.1512,6.1512 L45.1512,15.1512 C41.3517,18.9507 38.9997,24.2007 38.9997,29.9997 C38.9997,33.6162 39.8577,37.0767 41.4222,40.0917 L40.0917,41.4222 C37.0782,39.8577 33.6162,38.9997 29.9997,38.9997 C24.2007,38.9997 18.9507,41.3517 15.1512,45.1512 L6.1512,54.1512 C2.3517,57.9507 -0.0003,63.2007 -0.0003,68.9997 C-0.0003,74.7987 2.3517,80.0487 6.1512,83.8497 C9.9507,87.6492 15.2007,89.9997 20.9997,89.9997 C26.7987,89.9997 32.0487,87.6492 35.8497,83.8497 L44.8497,74.8497 C48.6492,71.0487 50.9997,65.7987 50.9997,59.9997 C50.9997,56.3832 50.1432,52.9227 48.5772,49.9077 L49.9077,48.5772 C52.9227,50.1432 56.3832,50.9997 59.9997,50.9997 C65.7987,50.9997 71.0487,48.6492 74.8497,44.8497 L83.8497,35.8497 C87.6492,32.0487 89.9997,26.7987 89.9997,20.9997 C89.9997,15.2007 87.6492,9.9507 83.8497,6.1512"
           id="path71"
           fill="#000000"
           mask="url(#mask-2)" />
      </g>
      <g
         id="g92"
         transform="translate(1309.000000, 221.000000)"
         fill="#000000">
        <path
           d="M0,0.0003 L0,120.0003 L80,120.0003 L80,32.0003 L48,0.0003 L0,0.0003 Z M4,4.0003 L44,4.0003 L44,36.0003 L76,36.0003 L76,116.0003 L4,116.0003 L4,4.0003 Z"
           id="path94" />
        <polygon
           id="polygon96"
           points="16 52 64 52 64 48 16 48" />
        <polygon
           id="polygon98"
           points="16 60 64 60 64 56 16 56" />
        <polygon
           id="polygon100"
           points="16 68 40 68 40 64 16 64" />
      </g>
      <g
         id="Group"
         transform="translate(857.500000, 412.500000) scale(1, -1) translate(-857.500000, -412.500000) translate(492.000000, 391.000000)"
         stroke="#AF6EE8"
         stroke-width="6"
         stroke-linecap="square">
        <path
           d="M1.26034483,21.5 L731,21.5"
           id="Line" />
        <path
           id="Line-decoration-1"
           d="M731,18.5 L731,24.5" />
      </g>
      <g
         id="Group-2"
         transform="translate(613.000000, 367.000000)"
         stroke-width="6">
        <path
           d="M5.62030075,3 L223.515038,3"
           id="path124"
           stroke="#5596E6"
           stroke-dasharray="15,5"
           transform="translate(114.567669, 3.000000) scale(1, -1) translate(-114.567669, -3.000000) " />
        <path
           d="M3,2 L3,43"
           id="path126"
           stroke="#AF6EE8"
           transform="translate(3.000000, 22.500000) scale(1, -1) translate(-3.000000, -22.500000) " />
        <path
           d="M229,2 L229,43"
           id="Line-Copy"
           stroke="#AF6EE8"
           transform="translate(229.000000, 22.500000) scale(1, -1) translate(-229.000000, -22.500000) " />
      </g>
      <g
         id="g129"
         transform="translate(982.000000, 433.500000) rotate(-180.000000) translate(-982.000000, -433.500000) translate(877.000000, 412.000000)"
         stroke-width="6">
        <path
           d="M5.05827068,3 L201.163534,3"
           id="path131"
           stroke="#FF2F2F"
           stroke-dasharray="15,5"
           transform="translate(103.110902, 3.000000) scale(1, -1) translate(-103.110902, -3.000000) " />
        <path
           d="M3,2.77419355 L3,43"
           id="path133"
           stroke="#AF6EE8"
           transform="translate(3.000000, 22.887097) scale(1, -1) translate(-3.000000, -22.887097) " />
        <path
           d="M207,2.77419355 L207,43"
           id="path135"
           stroke="#AF6EE8"
           transform="translate(207.000000, 22.887097) scale(1, -1) translate(-207.000000, -22.887097) " />
      </g>
    </g>
  </g>
  <text
     xml:space="preserve"
     style="font-size:15px;font-style:normal;font-variant:normal;font-weight:normal;font-stretch:normal;text-align:start;line-height:125%;letter-spacing:0px;word-spacing:0px;writing-mode:lr-tb;text-anchor:start;fill:#000000;fill-opacity:1;stroke:none;font-family:Arial;-inkscape-font-specification:Arial"
     x="634.91296"
     y="199.82181"
     id="text5468"
     sodipodi:linespacing="125%"><tspan
       sodipodi:role="line"
       id="tspan5470"
       x="634.91296"
       y="199.82181"
       style="font-size:32px">Bluemix <tspan
   style="font-style:normal;font-variant:normal;font-weight:normal;font-stretch:normal;font-family:MS UI Gothic;-inkscape-font-specification:MS UI Gothic"
   id="tspan5472">請求</tspan></tspan></text>
  <text
     xml:space="preserve"
     style="font-size:15px;font-style:normal;font-variant:normal;font-weight:normal;font-stretch:normal;text-align:start;line-height:125%;letter-spacing:0px;word-spacing:0px;writing-mode:lr-tb;text-anchor:start;fill:#000000;fill-opacity:1;stroke:none;font-family:Arial;-inkscape-font-specification:Arial"
     x="579.95209"
     y="235.9247"
     id="text5474"
     sodipodi:linespacing="125%"><tspan
       sodipodi:role="line"
       id="tspan5476"
       x="579.95209"
       y="235.9247"
       style="font-size:30px;font-style:normal;font-variant:normal;font-weight:normal;font-stretch:normal;font-family:MS UI Gothic;-inkscape-font-specification:MS UI Gothic">アカウントのリンク後、</tspan><tspan
       sodipodi:role="line"
       x="579.95209"
       y="273.42468"
       id="tspan5478"
       style="font-size:30px;font-style:normal;font-variant:normal;font-weight:normal;font-stretch:normal;font-family:MS UI Gothic;-inkscape-font-specification:MS UI Gothic">現行月の請求処理サイクルの</tspan><tspan
       sodipodi:role="line"
       x="579.95209"
       y="310.92468"
       id="tspan5480"
       style="font-size:30px">Bluemix <tspan
   style="font-style:normal;font-variant:normal;font-weight:normal;font-stretch:normal;font-family:MS UI Gothic;-inkscape-font-specification:MS UI Gothic"
   id="tspan5484">使用量に対して</tspan></tspan><tspan
       sodipodi:role="line"
       x="579.95209"
       y="355.58405"
       id="tspan5482"
       style="font-size:30px;font-style:normal;font-variant:normal;font-weight:normal;font-stretch:normal;font-family:MS UI Gothic;-inkscape-font-specification:MS UI Gothic">別個の請求を受け取る</tspan></text>
  <text
     xml:space="preserve"
     style="font-size:15px;font-style:normal;font-variant:normal;font-weight:normal;font-stretch:normal;text-align:start;line-height:125%;letter-spacing:0px;word-spacing:0px;writing-mode:lr-tb;text-anchor:start;fill:#000000;fill-opacity:1;stroke:none;font-family:Arial;-inkscape-font-specification:Arial"
     x="40.118977"
     y="350.94116"
     id="text5468-9"
     sodipodi:linespacing="125%"><tspan
       sodipodi:role="line"
       id="tspan5470-6"
       x="40.118977"
       y="350.94116"
       style="font-size:32px">Bluemix <tspan
   style="font-style:normal;font-variant:normal;font-weight:normal;font-stretch:normal;font-family:MS UI Gothic;-inkscape-font-specification:MS UI Gothic"
   id="tspan5472-4">請求</tspan></tspan></text>
  <text
     xml:space="preserve"
     style="font-size:15px;font-style:normal;font-variant:normal;font-weight:normal;font-stretch:normal;text-align:start;line-height:125%;letter-spacing:0px;word-spacing:0px;writing-mode:lr-tb;text-anchor:start;fill:#000000;fill-opacity:1;stroke:none;font-family:Arial;-inkscape-font-specification:Arial"
     x="25.139244"
     y="653.45856"
     id="text5468-2"
     sodipodi:linespacing="125%"><tspan
       sodipodi:role="line"
       id="tspan5470-1"
       x="25.139244"
       y="653.45856"
       style="font-size:32px">SoftLayer <tspan
   style="font-style:normal;font-variant:normal;font-weight:normal;font-stretch:normal;font-family:MS UI Gothic;-inkscape-font-specification:MS UI Gothic"
   id="tspan5472-6">請求</tspan></tspan></text>
  <text
     xml:space="preserve"
     style="font-size:15px;font-style:normal;font-variant:normal;font-weight:normal;font-stretch:normal;text-align:start;line-height:100%;letter-spacing:0px;word-spacing:0px;writing-mode:lr-tb;text-anchor:start;fill:#000000;fill-opacity:1;stroke:none;font-family:Arial;-inkscape-font-specification:Arial"
     x="272.742"
     y="484.95074"
     id="text5521"
     sodipodi:linespacing="100%"><tspan
       sodipodi:role="line"
       id="tspan5523"
       x="272.742"
       y="484.95074"
       style="font-size:32px;font-style:normal;font-variant:normal;font-weight:normal;font-stretch:normal;text-align:start;line-height:100%;writing-mode:lr-tb;text-anchor:start;font-family:Arial;-inkscape-font-specification:Arial">Bluemix <tspan
   style="font-style:normal;font-variant:normal;font-weight:normal;font-stretch:normal;font-family:MS UI Gothic;-inkscape-font-specification:MS UI Gothic"
   id="tspan5533">と</tspan></tspan><tspan
       sodipodi:role="line"
       x="272.742"
       y="523.06006"
       id="tspan5525"
       style="font-size:32px;font-style:normal;font-variant:normal;font-weight:normal;font-stretch:normal;text-align:start;line-height:100%;writing-mode:lr-tb;text-anchor:start;font-family:Arial;-inkscape-font-specification:Arial">SoftLayer <tspan
   style="font-style:normal;font-variant:normal;font-weight:normal;font-stretch:normal;font-family:MS UI Gothic;-inkscape-font-specification:MS UI Gothic"
   id="tspan5531">アカウントのリンク</tspan></tspan></text>
  <text
     xml:space="preserve"
     style="font-size:15px;font-style:normal;font-variant:normal;font-weight:normal;font-stretch:normal;text-align:start;line-height:125%;letter-spacing:0px;word-spacing:0px;writing-mode:lr-tb;text-anchor:start;fill:#000000;fill-opacity:1;stroke:none;font-family:Arial;-inkscape-font-specification:Arial"
     x="878.68054"
     y="629.58807"
     id="text5468-2-1"
     sodipodi:linespacing="125%"><tspan
       sodipodi:role="line"
       id="tspan5470-1-6"
       x="878.68054"
       y="629.58807"
       style="font-size:32px">SoftLayer <tspan
   style="font-style:normal;font-variant:normal;font-weight:normal;font-stretch:normal;font-family:MS UI Gothic;-inkscape-font-specification:MS UI Gothic"
   id="tspan5472-6-3">請求</tspan></tspan></text>
  <text
     xml:space="preserve"
     style="font-size:15px;font-style:normal;font-variant:normal;font-weight:normal;font-stretch:normal;text-align:start;line-height:100%;letter-spacing:0px;word-spacing:0px;writing-mode:lr-tb;text-anchor:start;fill:#000000;fill-opacity:1;stroke:none;font-family:Arial;-inkscape-font-specification:Arial"
     x="1231.7324"
     y="382.38907"
     id="text5521-3"
     sodipodi:linespacing="100%"><tspan
       sodipodi:role="line"
       id="tspan5523-8"
       x="1231.7324"
       y="382.38907"
       style="font-size:32px;font-style:normal;font-variant:normal;font-weight:normal;font-stretch:normal;text-align:start;line-height:100%;writing-mode:lr-tb;text-anchor:start;font-family:Arial;-inkscape-font-specification:Arial">Bluemix <tspan
   style="font-style:normal;font-variant:normal;font-weight:normal;font-stretch:normal;font-family:MS UI Gothic;-inkscape-font-specification:MS UI Gothic"
   id="tspan5533-8">と</tspan></tspan><tspan
       sodipodi:role="line"
       x="1231.7324"
       y="420.49838"
       id="tspan5525-2"
       style="font-size:32px;font-style:normal;font-variant:normal;font-weight:normal;font-stretch:normal;text-align:start;line-height:100%;writing-mode:lr-tb;text-anchor:start;font-family:Arial;-inkscape-font-specification:Arial">SoftLayer <tspan
   style="font-style:normal;font-variant:normal;font-weight:normal;font-stretch:normal;font-family:MS UI Gothic;-inkscape-font-specification:MS UI Gothic"
   id="tspan5531-4">の請求</tspan></tspan></text>
  <text
     xml:space="preserve"
     style="font-size:15px;font-style:normal;font-variant:normal;font-weight:normal;font-stretch:normal;text-align:start;line-height:100%;letter-spacing:0px;word-spacing:0px;writing-mode:lr-tb;text-anchor:start;fill:#000000;fill-opacity:1;stroke:none;font-family:Arial;-inkscape-font-specification:Arial"
     x="1203.6608"
     y="467.4812"
     id="text5616"
     sodipodi:linespacing="100%"><tspan
       sodipodi:role="line"
       id="tspan5618"
       x="1203.6608"
       y="467.4812"
       style="font-size:30px;font-style:normal;font-variant:normal;font-weight:normal;font-stretch:normal;text-align:start;line-height:100%;writing-mode:lr-tb;text-anchor:start;font-family:MS UI Gothic;-inkscape-font-specification:MS UI Gothic">次の請求処理サイクルで、</tspan><tspan
       sodipodi:role="line"
       x="1203.6608"
       y="497.4812"
       id="tspan5620"
       style="font-size:30px;font-style:normal;font-variant:normal;font-weight:normal;font-stretch:normal;text-align:start;line-height:100%;writing-mode:lr-tb;text-anchor:start;font-family:Arial;-inkscape-font-specification:Arial">SoftLayer <tspan
   style="font-style:normal;font-variant:normal;font-weight:normal;font-stretch:normal;font-family:MS UI Gothic;-inkscape-font-specification:MS UI Gothic"
   id="tspan5626">と</tspan> Bluemix <tspan
   style="font-style:normal;font-variant:normal;font-weight:normal;font-stretch:normal;font-family:MS UI Gothic;-inkscape-font-specification:MS UI Gothic"
   id="tspan5628">の</tspan></tspan><tspan
       sodipodi:role="line"
       x="1203.6608"
       y="533.20868"
       id="tspan5622"
       style="font-size:30px;font-style:normal;font-variant:normal;font-weight:normal;font-stretch:normal;text-align:start;line-height:100%;writing-mode:lr-tb;text-anchor:start;font-family:MS UI Gothic;-inkscape-font-specification:MS UI Gothic">課金が含まれた単一の</tspan><tspan
       sodipodi:role="line"
       x="1203.6608"
       y="563.20868"
       id="tspan5624"
       style="font-size:30px;font-style:normal;font-variant:normal;font-weight:normal;font-stretch:normal;text-align:start;line-height:100%;writing-mode:lr-tb;text-anchor:start;font-family:Arial;-inkscape-font-specification:Arial">SoftLayer <tspan
   style="font-style:normal;font-variant:normal;font-weight:normal;font-stretch:normal;font-family:MS UI Gothic;-inkscape-font-specification:MS UI Gothic"
   id="tspan5630">請求を受け取る</tspan></tspan></text>
  <text
     xml:space="preserve"
     style="font-size:15px;font-style:normal;font-variant:normal;font-weight:normal;font-stretch:normal;text-align:start;line-height:100%;letter-spacing:0px;word-spacing:0px;writing-mode:lr-tb;text-anchor:start;fill:#000000;fill-opacity:1;stroke:none;font-family:Arial;-inkscape-font-specification:Arial"
     x="872.63177"
     y="667.91449"
     id="text5632"
     sodipodi:linespacing="100%"><tspan
       sodipodi:role="line"
       id="tspan5634"
       x="872.63177"
       y="667.91449"
       style="font-size:30px;font-style:normal;font-variant:normal;font-weight:normal;font-stretch:normal;text-align:start;line-height:100%;writing-mode:lr-tb;text-anchor:start;font-family:MS UI Gothic;-inkscape-font-specification:MS UI Gothic">アカウントのリンクの</tspan><tspan
       sodipodi:role="line"
       x="872.63177"
       y="697.91449"
       id="tspan5636"
       style="font-size:30px;font-style:normal;font-variant:normal;font-weight:normal;font-stretch:normal;text-align:start;line-height:100%;writing-mode:lr-tb;text-anchor:start;font-family:MS UI Gothic;-inkscape-font-specification:MS UI Gothic">タイミングによっては、</tspan><tspan
       sodipodi:role="line"
       x="872.63177"
       y="727.91449"
       id="tspan5638"
       style="font-size:30px;font-style:normal;font-variant:normal;font-weight:normal;font-stretch:normal;text-align:start;line-height:100%;writing-mode:lr-tb;text-anchor:start;font-family:MS UI Gothic;-inkscape-font-specification:MS UI Gothic">現行請求処理サイクルの </tspan><tspan
       sodipodi:role="line"
       x="872.63177"
       y="757.91449"
       id="tspan5640"
       style="font-size:30px;font-style:normal;font-variant:normal;font-weight:normal;font-stretch:normal;text-align:start;line-height:100%;writing-mode:lr-tb;text-anchor:start;font-family:Arial;-inkscape-font-specification:Arial">SoftLayer <tspan
   style="font-style:normal;font-variant:normal;font-weight:normal;font-stretch:normal;font-family:MS UI Gothic;-inkscape-font-specification:MS UI Gothic"
   id="tspan5646">使用量に対して</tspan></tspan><tspan
       sodipodi:role="line"
       x="872.63177"
       y="793.64197"
       id="tspan5642"
       style="font-size:30px;font-style:normal;font-variant:normal;font-weight:normal;font-stretch:normal;text-align:start;line-height:100%;writing-mode:lr-tb;text-anchor:start;font-family:MS UI Gothic;-inkscape-font-specification:MS UI Gothic">別個の請求を受け取ることがある</tspan></text>
</svg>
