<?xml version="1.0" encoding="UTF-8" standalone="no"?>
<svg width="30px" height="30px" viewBox="0 0 30 30" version="1.1" xmlns="http://www.w3.org/2000/svg" xmlns:xlink="http://www.w3.org/1999/xlink">
    <!-- Generator: Sketch 40.2 (33826) - http://www.bohemiancoding.com/sketch -->
    <title>Group</title>
    <desc>Created with Sketch.</desc>
    <defs></defs>
    <g id="Icon" stroke="none" stroke-width="1" fill="none" fill-rule="evenodd">
        <g id="Desktop-HD" transform="translate(-850.000000, -387.000000)">
            <g id="Group" transform="translate(850.000000, 387.000000)">
                <rect id="Rectangle" fill="#FFFFFF" x="0" y="0" width="30" height="30"></rect>
                <g id="close-cancel-error_32" fill="#E71D32">
                    <polygon id="Shape" points="19.3256652 9 14.8928571 13.4328081 10.4600491 9 9 10.4600491 13.4328081 14.8928571 9 19.3256652 10.4600491 20.7857143 14.8928571 16.3529062 19.3256652 20.7857143 20.7857143 19.3256652 16.3529062 14.8928571 20.7857143 10.4600491"></polygon>
                    <path d="M15,0 C6.71678571,0 0,6.71678571 0,15 C0,23.2832143 6.71678571,30 15,30 C23.2832143,30 30,23.2832143 30,15 C30,6.71678571 23.2832143,0 15,0 L15,0 Z M15,27.8571429 C7.91035714,27.8571429 2.14285714,22.0896429 2.14285714,15 C2.14285714,7.91035714 7.91035714,2.14285714 15,2.14285714 C22.0896429,2.14285714 27.8571429,7.91035714 27.8571429,15 C27.8571429,22.0896429 22.0896429,27.8571429 15,27.8571429 L15,27.8571429 Z" id="Shape"></path>
                </g>
            </g>
        </g>
    </g>
</svg>