<?xml version="1.0" encoding="UTF-8" standalone="no"?>
<svg width="60px" height="59px" viewBox="0 0 60 59" version="1.1" xmlns="http://www.w3.org/2000/svg" xmlns:xlink="http://www.w3.org/1999/xlink" xmlns:sketch="http://www.bohemiancoding.com/sketch/ns">
    <!-- Generator: Sketch 3.5.1 (25234) - http://www.bohemiancoding.com/sketch -->
    <title>Imported Layers</title>
    <desc>Created with Sketch.</desc>
    <defs></defs>
    <g id="Docs" stroke="none" stroke-width="1" fill="none" fill-rule="evenodd" sketch:type="MSPage">
        <g id="2-Docs-landing-redesign-Copy" sketch:type="MSArtboardGroup" transform="translate(-1242.000000, -1329.000000)" fill="#42535C">
            <g id="Main-Menu-Copy" sketch:type="MSLayerGroup" transform="translate(275.000000, 1179.000000)">
                <g id="Imported-Layers" transform="translate(967.000000, 150.000000)" sketch:type="MSShapeGroup">
                    <path d="M1.30105263,58.7997105 C0.865263158,58.7997105 0.511578947,58.4526974 0.511578947,58.0233947 C0.511578947,57.5940921 0.865263158,57.2470789 1.30105263,57.2470789 L59.1813158,57.2470789 C59.6178947,57.2470789 59.9707895,57.5940921 59.9707895,58.0233947 C59.9707895,58.4526974 59.6178947,58.7997105 59.1813158,58.7997105 L1.30105263,58.7997105 Z" id="Fill-1"></path>
                    <path d="M56.8160526,44.5706184 L3.66631579,44.5706184 C1.92631579,44.5706184 0.511578947,43.1794605 0.511578947,41.4692368 L0.511578947,3.43442105 C0.511578947,1.72419737 1.92631579,0.333039474 3.66631579,0.333039474 L56.8160526,0.333039474 C58.5552632,0.333039474 59.9707895,1.72419737 59.9707895,3.43442105 L59.9707895,41.4692368 C59.9707895,43.1794605 58.5552632,44.5706184 56.8160526,44.5706184 L56.8160526,44.5706184 Z M3.66631579,1.88567105 C2.79710526,1.88567105 2.09052632,2.57969737 2.09052632,3.43442105 L2.09052632,41.4692368 C2.09052632,42.3239605 2.79710526,43.0179868 3.66631579,43.0179868 L56.8160526,43.0179868 C57.6844737,43.0179868 58.3918421,42.3239605 58.3918421,41.4692368 L58.3918421,3.43442105 C58.3918421,2.57969737 57.6844737,1.88567105 56.8160526,1.88567105 L3.66631579,1.88567105 L3.66631579,1.88567105 Z" id="Fill-2"></path>
                    <path d="M26.6628947,29.5170789 C26.2831579,29.7422105 25.7518421,29.8656447 25.1194737,29.8656447 C24.0063158,29.8656447 23.2989474,29.2686579 23.2989474,27.8759474 C22.1092105,29.2686579 20.5152632,29.8656447 18.6947368,29.8656447 C16.3160526,29.8656447 14.3684211,28.8455658 14.3684211,26.2588816 C14.3684211,23.3484737 16.5686842,22.7018026 18.7957895,22.3035526 C21.1476316,21.8307763 23.1971053,22.0302895 23.1971053,20.4132237 C23.1971053,18.5469605 21.6284211,18.2736974 20.2878947,18.2736974 C18.4665789,18.2736974 17.1252632,18.821 17.0242105,20.7121053 L14.8744737,20.7121053 C15.0007895,17.5276579 17.4805263,16.4082105 20.4142105,16.4082105 C22.7668421,16.4082105 25.3223684,16.9298947 25.3223684,19.9404474 L25.3223684,26.5577632 C25.3223684,27.5522237 25.3223684,28.0001579 26.0044737,28.0001579 C26.2073684,28.0001579 26.4347368,27.9504737 26.6628947,27.8759474 L26.6628947,29.5170789 L26.6628947,29.5170789 Z M23.1726316,22.9253816 C21.5021053,24.1441974 16.6452632,22.9502237 16.6452632,26.1090526 C16.6452632,27.5025395 17.8594737,28.0001579 19.1747368,28.0001579 C22.0081579,28.0001579 23.1726316,26.2837237 23.1726316,25.08975 L23.1726316,22.9253816 L23.1726316,22.9253816 Z" id="Fill-3"></path>
                    <path d="M28.6855263,16.7063158 L30.8360526,16.7063158 L30.8360526,18.4475921 L30.8865789,18.4475921 C31.5947368,17.0300395 33.2392105,16.4082105 35.0605263,16.4082105 C39.0828947,16.4082105 41.0810526,19.5421974 41.0810526,23.1745789 C41.0810526,26.8318026 39.1081579,29.8656447 35.1110526,29.8656447 C33.7957895,29.8656447 31.8228947,29.3680263 30.8865789,27.8511053 L30.8360526,27.8511053 L30.8360526,34.4932632 L28.6855263,34.4932632 L28.6855263,16.7063158 L28.6855263,16.7063158 Z M34.7565789,18.2736974 C31.8473684,18.2736974 30.7602632,20.7369474 30.7602632,23.1248947 C30.7602632,25.6370526 31.9231579,28.0001579 34.8836842,28.0001579 C37.8173684,28.0001579 38.8042105,25.5369079 38.8042105,23.02475 C38.8042105,20.6119605 37.5394737,18.2736974 34.7565789,18.2736974 L34.7565789,18.2736974 Z" id="Fill-4"></path>
                    <path d="M43.2560526,11.8062105 L45.4065789,11.8062105 L45.4065789,14.3928947 L43.2560526,14.3928947 L43.2560526,11.8062105 Z M43.2560526,16.7063158 L45.4065789,16.7063158 L45.4065789,29.5667632 L43.2560526,29.5667632 L43.2560526,16.7063158 Z" id="Fill-5"></path>
                </g>
            </g>
        </g>
    </g>
</svg>