<?xml version="1.0" encoding="UTF-8" standalone="no"?>
<svg width="61px" height="62px" viewBox="0 0 61 62" version="1.1" xmlns="http://www.w3.org/2000/svg" xmlns:xlink="http://www.w3.org/1999/xlink" xmlns:sketch="http://www.bohemiancoding.com/sketch/ns">
    <!-- Generator: Sketch 3.5.1 (25234) - http://www.bohemiancoding.com/sketch -->
    <title>Group</title>
    <desc>Created with Sketch.</desc>
    <defs></defs>
    <g id="Docs" stroke="none" stroke-width="1" fill="none" fill-rule="evenodd" sketch:type="MSPage">
        <g id="2-Docs-landing-redesign-Copy" sketch:type="MSArtboardGroup" transform="translate(-1238.000000, -1492.000000)" stroke-width="1.5" stroke="#42535C">
            <g id="Group" sketch:type="MSLayerGroup" transform="translate(1238.000000, 1493.000000)">
                <g id="Layer_1" sketch:type="MSShapeGroup">
                    <path d="M8.45070423,16.6285714 L8.45070423,38.0571429" id="XMLID_1098_"></path>
                    <ellipse id="XMLID_1097_" cx="54.084507" cy="30.4285714" rx="5.07042254" ry="5.14285714"></ellipse>
                    <path d="M59.5774648,13.3714286 L54.084507,18.8571429 L48.6760563,13.3714286" id="Shape" stroke-linecap="round" stroke-linejoin="round"></path>
                    <path d="M14.3661972,32.5714286 L8.45070423,38.5714286 L2.53521127,32.5714286" id="Shape" stroke-linecap="round" stroke-linejoin="round"></path>
                    <path d="M54.084507,18.4285714 L54.084507,10.2 C54.084507,7.88571429 52.6478873,6 50.7887324,6 L16.1408451,6" id="Shape"></path>
                    <g id="XMLID_1095_">
                        <ellipse id="XMLID_1096_" cx="8.45070423" cy="8.4" rx="7.69014085" ry="7.8"></ellipse>
                    </g>
                    <g id="XMLID_1093_" transform="translate(0.000000, 43.714286)">
                        <ellipse id="XMLID_1094_" cx="8.45070423" cy="8.31428571" rx="7.69014085" ry="7.8"></ellipse>
                    </g>
                    <path d="M59.4929577,46.8 L53.8309859,41.0571429 L48.4225352,46.6285714" id="Shape" stroke-linecap="round" stroke-linejoin="round"></path>
                    <path d="M53.8309859,41.9142857 L53.8309859,49.8857143 C53.8309859,52.2 52.3943662,54.0857143 50.5352113,54.0857143 L16.1408451,54.0857143" id="Shape"></path>
                </g>
            </g>
        </g>
    </g>
</svg>