<?xml version="1.0" encoding="UTF-8"?>
<svg width="68px" height="68px" viewBox="0 0 68 68" version="1.1" xmlns="http://www.w3.org/2000/svg" xmlns:xlink="http://www.w3.org/1999/xlink">
    <!-- Generator: Sketch 41.2 (35397) - http://www.bohemiancoding.com/sketch -->
    <title>Bluemix-logo-onecolor-dark</title>
    <desc>Created with Sketch.</desc>
    <defs></defs>
    <g id="Page-1" stroke="none" stroke-width="1" fill="none" fill-rule="evenodd">
        <g id="Bluemix-logo-onecolor-dark">
            <g id="Group">
                <g>
                    <path d="M20.5,34.2 C20.5,36.7 21,39.1 22,41.4 C22.9,43.6 24.3,45.6 26,47.3 C26.4,47.7 26.8,48 27.2,48.4 L27.2,20.1 C26.8,20.4 26.4,20.8 26,21.2 C24.3,22.9 23,24.9 22,27.1 C21,29.3 20.5,31.7 20.5,34.2 Z" id="Shape" fill="#3D70B2"></path>
                    <path d="M52.1,21.1 C50.4,19.4 48.4,18.1 46.2,17.1 C43.9,16.1 41.5,15.6 39,15.6 C36.8,15.6 34.7,16 32.7,16.7 L57.3,30.9 C57.1,29.5 56.7,28.2 56.1,26.9 C55.2,24.8 53.8,22.8 52.1,21.1 Z" id="Shape" fill="#3D70B2"></path>
                    <path d="M30.4,17.8 L39.4,33.4 L57.5,33.4 L57.5,32.8 L31,17.5 C30.8,17.6 30.6,17.7 30.4,17.8 Z" id="Shape" fill="#3D70B2"></path>
                    <path d="M57.6,35 L39.5,35 L30.5,50.7 C30.7,50.8 30.9,50.9 31,51 L57.5,35.7 C57.5,35.4 57.5,35.2 57.6,35 Z" id="Shape" fill="#3D70B2"></path>
                    <path d="M46.3,51.3 C48.5,50.4 50.5,49 52.2,47.3 C53.9,45.6 55.2,43.6 56.2,41.4 C56.7,40.1 57.1,38.8 57.4,37.4 L32.7,51.6 C34.7,52.3 36.9,52.7 39,52.7 C41.5,52.7 44,52.2 46.3,51.3 Z" id="Shape" fill="#3D70B2"></path>
                    <path d="M38.1,34.2 L29.1,18.6 C29,18.6 28.6,18.9 28.6,18.9 L28.6,49.5 C28.8,49.6 28.9,49.7 29.1,49.8 L38.1,34.2 Z" id="Shape" fill="#3D70B2"></path>
                    <polygon id="Shape" fill="#1D3649" points="39.4 34.9 39.4 35 39.4 35"></polygon>
                    <path d="M39,14.3 C49.2,14.3 57.7,22 58.8,31.9 C58.8,32.2 58.9,32.5 58.9,32.7 L58.9,32.7 L68,16.9 L58.5,0.4 L39.5,0.4 L30.3,16.3 C30.6,16.2 30.9,16 31.1,15.9 C33.6,14.8 36.2,14.3 39,14.3 Z" id="Shape" fill="#3D70B2"></path>
                    <rect id="Rectangle-path" fill="#1D3649" x="30.5" y="52.1" width="-0.1" height="0.7"></rect>
                    <path d="M58.9,35.6 L58.9,35.6 C58.9,35.9 58.9,36.2 58.8,36.5 C57.7,46.4 49.3,54.2 39,54.2 C36.2,54.2 33.5,53.6 31.1,52.6 C30.8,52.5 30.6,52.4 30.3,52.2 L39.4,68 L58.5,68 L68,51.5 L58.9,35.6 Z" id="Shape" fill="#3D70B2"></path>
                    <path d="M27.9,17.7 L9.5,17.7 L0,34.2 L9.5,50.7 L27.8,50.7 C27.6,50.5 27.3,50.4 27.1,50.2 C22.2,46.6 19.1,40.8 19.1,34.2 C19.1,27.7 22.3,21.8 27.1,18.2 C27.4,18 27.6,17.8 27.9,17.7 Z" id="Shape" fill="#3D70B2"></path>
                </g>
            </g>
        </g>
    </g>
</svg>