<?xml version="1.0" encoding="UTF-8" standalone="no"?>
<svg width="76px" height="65px" viewBox="0 0 76 65" version="1.1" xmlns="http://www.w3.org/2000/svg" xmlns:xlink="http://www.w3.org/1999/xlink" xmlns:sketch="http://www.bohemiancoding.com/sketch/ns">
    <!-- Generator: Sketch 3.5.1 (25234) - http://www.bohemiancoding.com/sketch -->
    <title>CLI icon</title>
    <desc>Created with Sketch.</desc>
    <defs></defs>
    <g id="Docs" stroke="none" stroke-width="1" fill="none" fill-rule="evenodd" sketch:type="MSPage">
        <g id="2-Docs-landing-redesign-Copy" sketch:type="MSArtboardGroup" transform="translate(-682.000000, -1498.000000)">
            <g id="CLI-icon" sketch:type="MSLayerGroup" transform="translate(683.000000, 1498.000000)">
                <path d="M0.1803,63.5 L73.4953,63.5 L73.4953,5.02 C73.4953,2.692 72.0303,0.804 70.2233,0.804 L3.4513,0.804 C1.6453,0.804 0.1803,2.692 0.1803,5.02 L0.1803,63.5 L0.1803,63.5 Z" id="Stroke-13" stroke="#42535C" stroke-width="1.5" stroke-linejoin="round" sketch:type="MSShapeGroup"></path>
                <path d="M73.495,11 L0.18,11" id="Stroke-14" stroke="#42535C" stroke-width="1.5" sketch:type="MSShapeGroup"></path>
                <path d="M69.6915,6.239 C69.6915,5.341 68.9635,4.614 68.0665,4.614 C67.1685,4.614 66.4405,5.341 66.4405,6.239 C66.4405,7.137 67.1685,7.864 68.0665,7.864 C68.9635,7.864 69.6915,7.137 69.6915,6.239" id="Fill-15" fill="#42535C" sketch:type="MSShapeGroup"></path>
                <path d="M62.6379,6.239 C62.6379,5.341 61.9099,4.614 61.0129,4.614 C60.1149,4.614 59.3869,5.341 59.3869,6.239 C59.3869,7.137 60.1149,7.864 61.0129,7.864 C61.9099,7.864 62.6379,7.137 62.6379,6.239" id="Fill-16" fill="#42535C" sketch:type="MSShapeGroup"></path>
                <path d="M55.5843,6.239 C55.5843,5.341 54.8563,4.614 53.9593,4.614 C53.0613,4.614 52.3333,5.341 52.3333,6.239 C52.3333,7.137 53.0613,7.864 53.9593,7.864 C54.8563,7.864 55.5843,7.137 55.5843,6.239" id="Fill-17" fill="#42535C" sketch:type="MSShapeGroup"></path>
                <path d="M10.0917,20.7342 L20.2887,26.6212" id="Stroke-18" stroke="#42535C" stroke-width="1.5" stroke-linecap="round" sketch:type="MSShapeGroup"></path>
                <path d="M10.0917,32.7519 L20.2887,26.8649" id="Stroke-19" stroke="#42535C" stroke-width="1.5" stroke-linecap="round" sketch:type="MSShapeGroup"></path>
            </g>
        </g>
    </g>
</svg>