<?xml version="1.0" encoding="UTF-8" standalone="no"?>
<svg width="60px" height="60px" viewBox="0 0 60 60" version="1.1" xmlns="http://www.w3.org/2000/svg" xmlns:xlink="http://www.w3.org/1999/xlink" xmlns:sketch="http://www.bohemiancoding.com/sketch/ns">
    <!-- Generator: Sketch 3.5.1 (25234) - http://www.bohemiancoding.com/sketch -->
    <title>DevOps Services icon</title>
    <desc>Created with Sketch.</desc>
    <defs></defs>
    <g id="Docs" stroke="none" stroke-width="1" fill="none" fill-rule="evenodd" sketch:type="MSPage">
        <g id="2-Docs-landing-redesign-Copy" sketch:type="MSArtboardGroup" transform="translate(-380.000000, -1493.000000)" fill="#42535C">
            <g id="DevOps-Services-icon" sketch:type="MSLayerGroup" transform="translate(380.000000, 1493.000000)">
                <path d="M59.07,59.4805263 L44.6344737,59.4805263 C44.1978947,59.4805263 43.845,59.1268421 43.845,58.6910526 L43.845,29.8215789 C43.845,29.3857895 44.1978947,29.0321053 44.6344737,29.0321053 L59.07,29.0321053 C59.5065789,29.0321053 59.8594737,29.3857895 59.8594737,29.8215789 L59.8594737,58.6910526 C59.8594737,59.1268421 59.5065789,59.4805263 59.07,59.4805263 L59.07,59.4805263 Z M45.4239474,57.9015789 L58.2805263,57.9015789 L58.2805263,30.6110526 L45.4239474,30.6110526 L45.4239474,57.9015789 Z" id="Fill-1" sketch:type="MSShapeGroup"></path>
                <path d="M26.3510526,16.1755263 C26.2144737,16.1755263 26.0778947,16.14 25.9563158,16.0697368 C25.7115789,15.9284211 25.5615789,15.6678947 25.5615789,15.3860526 L25.5615789,0.951315789 C25.5615789,0.668684211 25.7115789,0.408157895 25.9563158,0.266842105 C26.1994737,0.126315789 26.5018421,0.126315789 26.7457895,0.266842105 L39.2471053,7.48342105 C39.4910526,7.62473684 39.6418421,7.88526316 39.6418421,8.16789474 C39.6418421,8.44973684 39.4910526,8.71026316 39.2471053,8.85157895 L26.7457895,16.0697368 C26.6242105,16.14 26.4876316,16.1755263 26.3510526,16.1755263 L26.3510526,16.1755263 Z M27.1405263,2.31789474 L27.1405263,14.0186842 L37.2734211,8.16789474 L27.1405263,2.31789474 L27.1405263,2.31789474 Z" id="Fill-2" sketch:type="MSShapeGroup"></path>
                <path d="M8.54684211,38.5855263 C8.11026316,38.5855263 7.75736842,38.2318421 7.75736842,37.7960526 L7.75736842,8.16868421 C7.75736842,7.73289474 8.11026316,7.37921053 8.54684211,7.37921053 L26.3510526,7.37921053 C26.7868421,7.37921053 27.1405263,7.73289474 27.1405263,8.16868421 C27.1405263,8.60447368 26.7868421,8.95815789 26.3510526,8.95815789 L9.33631579,8.95815789 L9.33631579,37.7960526 C9.33631579,38.2318421 8.98342105,38.5855263 8.54684211,38.5855263" id="Fill-3" sketch:type="MSShapeGroup"></path>
                <path d="M8.54763158,59.4813158 C4.13289474,59.4813158 0.541578947,55.89 0.541578947,51.4752632 C0.541578947,47.0597368 4.13289474,43.4676316 8.54763158,43.4676316 C12.9623684,43.4676316 16.5536842,47.0597368 16.5536842,51.4752632 C16.5536842,55.89 12.9623684,59.4813158 8.54763158,59.4813158 L8.54763158,59.4813158 Z M8.54763158,45.0465789 C5.00447368,45.0465789 2.12052632,47.9305263 2.12052632,51.4752632 C2.12052632,55.0192105 5.00447368,57.9023684 8.54763158,57.9023684 C12.0907895,57.9023684 14.9747368,55.0192105 14.9747368,51.4752632 C14.9747368,47.9305263 12.0907895,45.0465789 8.54763158,45.0465789 L8.54763158,45.0465789 Z" id="Fill-4" sketch:type="MSShapeGroup"></path>
                <path d="M38.1750406,52.2639474 L15.7658446,52.2639474 C15.3292352,52.2639474 14.9763158,51.9102632 14.9763158,51.4744737 C14.9763158,51.0378947 15.3292352,50.685 15.7658446,50.685 L38.1750406,50.685 C38.61165,50.685 38.9653589,51.0378947 38.9653589,51.4744737 C38.9653589,51.9102632 38.61165,52.2639474 38.1750406,52.2639474 L38.1750406,52.2639474 Z M51.8559956,30.6102632 C51.4201757,30.6102632 51.0672564,30.2565789 51.0672564,29.8207895 L51.0672564,8.95894737 L45.4268626,8.95894737 C44.9902532,8.95894737 44.6373338,8.60526316 44.6373338,8.16947368 C44.6373338,7.73289474 44.9902532,7.38 45.4268626,7.38 L51.8559956,7.38 C52.2926051,7.38 52.646314,7.73289474 52.646314,8.16947368 L52.646314,29.8207895 C52.646314,30.2565789 52.2926051,30.6102632 51.8559956,30.6102632 L51.8559956,30.6102632 Z" id="Fill-5" sketch:type="MSShapeGroup"></path>
            </g>
        </g>
    </g>
</svg>