<?xml version="1.0" encoding="utf-8"?>
<!-- Generator: Adobe Illustrator 19.1.0, SVG Export Plug-In . SVG Version: 6.00 Build 0)  -->
<!DOCTYPE svg PUBLIC "-//W3C//DTD SVG 1.1//EN" "http://www.w3.org/Graphics/SVG/1.1/DTD/svg11.dtd">
<svg version="1.1" id="Layer_1" xmlns="http://www.w3.org/2000/svg" xmlns:xlink="http://www.w3.org/1999/xlink" x="0px" y="0px"
	 width="64px" height="64px" viewBox="0 0 64 64" style="enable-background:new 0 0 64 64;" xml:space="preserve">
<style type="text/css">
	.st0{fill:#BE9B00;}
</style>
<g>
	<path class="st0" d="M1.8,30.3h4.7v4.6H1.8V30.3z"/>
	<path class="st0" d="M6.8,36.7c0.2,0.1,0.5,0.1,0.9,0.1c0.9,0,1.6-0.2,1.6-1.4V19.4h4.3v16.3c0,3.2-1.2,4.7-5.5,4.7
		c-0.5,0-0.9,0-1.4-0.1V36.7z M13.7,17H9.4v-3.5h4.3V17z"/>
	<path class="st0" d="M16.4,24.1c0.2-4,3.8-5.2,7.3-5.2c3.1,0,6.8,0.7,6.8,4.4v8.1c0,1.4,0.1,2.8,0.5,3.5h-4.3
		c-0.2-0.5-0.3-1-0.3-1.5c-1.4,1.4-3.3,1.9-5.2,1.9c-3,0-5.3-1.5-5.3-4.6c0.1-7,10.5-3.3,10.3-6.8c0-1.8-1.3-2.1-2.8-2.1
		c-1.6,0-2.7,0.7-2.8,2.3H16.4z M26.2,27.3c-0.7,0.6-2.2,0.7-3.5,0.9c-1.3,0.2-2.5,0.7-2.5,2.3c0,1.6,1.2,2,2.6,2
		c3.3,0,3.4-2.6,3.4-3.6V27.3z"/>
	<path class="st0" d="M41.4,34.9h-4.7l-5.3-15.5h4.5L39.1,30h0.1l3.3-10.6h4.2L41.4,34.9z"/>
	<path class="st0" d="M47.2,24.1c0.2-4,3.8-5.2,7.3-5.2c3.1,0,6.8,0.7,6.8,4.4v8.1c0,1.4,0.1,2.8,0.5,3.5h-4.3
		c-0.2-0.5-0.3-1-0.3-1.5c-1.4,1.4-3.3,1.9-5.2,1.9c-3,0-5.3-1.5-5.3-4.6c0.1-7,10.5-3.3,10.3-6.8c0-1.8-1.3-2.1-2.8-2.1
		c-1.6,0-2.7,0.7-2.8,2.3H47.2z M57,27.3c-0.7,0.6-2.2,0.7-3.5,0.9c-1.3,0.2-2.5,0.7-2.5,2.3c0,1.6,1.2,2,2.6,2
		c3.3,0,3.5-2.6,3.5-3.6V27.3z"/>
	<path class="st0" d="M20,39.6h1.5V41H20v3.6c0,0.7,0.2,0.8,0.8,0.8c0.2,0,0.4,0,0.6-0.1v1.6C21.1,47,20.7,47,20.3,47
		C19,47,18,46.7,18,45.2V41h-1.2v-1.3H18v-2.2h2V39.6z"/>
	<path class="st0" d="M25.5,39.4c2.3,0,3.8,1.5,3.8,3.8c0,2.3-1.5,3.8-3.8,3.8c-2.3,0-3.7-1.5-3.7-3.8C21.8,41,23.3,39.4,25.5,39.4z
		 M25.5,45.6c1.4,0,1.8-1.1,1.8-2.3c0-1.2-0.4-2.3-1.8-2.3c-1.3,0-1.8,1.2-1.8,2.3C23.8,44.4,24.2,45.6,25.5,45.6z"/>
	<path class="st0" d="M30.4,39.6h1.9v1h0c0.5-0.7,1.3-1.2,2.2-1.2c0.9,0,1.7,0.3,2.1,1.2c0.4-0.6,1.2-1.2,2.2-1.2
		c1.5,0,2.6,0.7,2.6,2.6v4.8h-2v-4.1c0-1-0.1-1.8-1.2-1.8c-1.1,0-1.3,0.9-1.3,1.8v4h-2v-4.1c0-0.8,0.1-1.8-1.2-1.8
		c-0.4,0-1.3,0.3-1.3,1.7v4.2h-2V39.6z"/>
	<path class="st0" d="M47.6,42.2c-0.1-0.8-0.6-1.2-1.5-1.2c-1.3,0-1.7,1.3-1.7,2.4c0,1.1,0.4,2.3,1.7,2.3c0.9,0,1.5-0.6,1.6-1.5h1.9
		c-0.3,1.9-1.6,3-3.5,3c-2.2,0-3.7-1.5-3.7-3.7c0-2.3,1.3-3.9,3.7-3.9c1.7,0,3.3,0.9,3.4,2.7H47.6z"/>
	<path class="st0" d="M50.4,41.9c0.1-1.8,1.8-2.4,3.4-2.4c1.4,0,3.2,0.3,3.2,2.1v3.8c0,0.7,0.1,1.3,0.3,1.6h-2
		c-0.1-0.2-0.1-0.5-0.1-0.7c-0.6,0.7-1.5,0.9-2.4,0.9c-1.4,0-2.5-0.7-2.5-2.2c0-3.3,4.9-1.5,4.8-3.2c0-0.8-0.6-1-1.3-1
		c-0.8,0-1.2,0.3-1.3,1.1H50.4z M55,43.3c-0.3,0.3-1,0.3-1.7,0.4c-0.6,0.1-1.2,0.3-1.2,1.1c0,0.7,0.6,0.9,1.2,0.9
		c1.6,0,1.6-1.2,1.6-1.7V43.3z"/>
	<path class="st0" d="M60.9,39.6h1.5V41h-1.5v3.6c0,0.7,0.2,0.8,0.8,0.8c0.2,0,0.4,0,0.6-0.1v1.6C62,47,61.6,47,61.2,47
		c-1.2,0-2.3-0.3-2.3-1.7V41h-1.2v-1.3h1.2v-2.2h2V39.6z"/>
</g>
</svg>
