<?xml version="1.0" encoding="UTF-8" standalone="no"?>
<svg width="61px" height="59px" viewBox="0 0 61 59" version="1.1" xmlns="http://www.w3.org/2000/svg" xmlns:xlink="http://www.w3.org/1999/xlink">
    <!-- Generator: Sketch 3.7.2 (28276) - http://www.bohemiancoding.com/sketch -->
    <title>platformAPI-icon</title>
    <desc>Created with Sketch.</desc>
    <defs></defs>
    <g id="Page-1" stroke="none" stroke-width="1" fill="none" fill-rule="evenodd">
        <g id="APIDocs-icon" fill="#2D3F49">
            <g id="Docs">
                <g id="_x32_-Docs-landing-redesign-Copy">
                    <g id="Main-Menu-Copy">
                        <g id="Imported-Layers">
                            <path d="M1.3,58.8 C0.9,58.8 0.5,58.5 0.5,58 C0.5,57.6 0.9,57.2 1.3,57.2 L59.2,57.2 C59.6,57.2 60,57.5 60,58 C60,58.4 59.6,58.8 59.2,58.8 L1.3,58.8 L1.3,58.8 Z" id="Fill-1"></path>
                            <path d="M56.8,44.6 L3.7,44.6 C2,44.6 0.5,43.2 0.5,41.5 L0.5,3.5 C0.5,1.8 1.9,0.4 3.7,0.4 L56.8,0.4 C58.5,0.4 60,1.8 60,3.5 L60,41.5 C60,43.2 58.6,44.6 56.8,44.6 L56.8,44.6 L56.8,44.6 Z M3.7,1.9 C2.8,1.9 2.1,2.6 2.1,3.4 L2.1,41.4 C2.1,42.3 2.8,42.9 3.7,42.9 L56.8,42.9 C57.7,42.9 58.4,42.2 58.4,41.4 L58.4,3.4 C58.4,2.5 57.7,1.9 56.8,1.9 L3.7,1.9 L3.7,1.9 L3.7,1.9 Z" id="Fill-2"></path>
                            <path d="M8.113,28.5 L9.898,28.5 L9.898,22.368 C9.898,20.415 10.948,18.966 13.111,18.966 C14.476,18.966 15.316,19.806 15.316,21.15 L15.316,28.5 L17.101,28.5 L17.101,21.36 C17.101,19.029 16.219,17.391 13.363,17.391 C12.082,17.391 10.507,17.916 9.94,19.239 L9.898,19.239 L9.898,13.506 L8.113,13.506 L8.113,28.5 Z M21.595,14.388 L19.81,14.388 L19.81,17.643 L17.962,17.643 L17.962,19.218 L19.81,19.218 L19.81,26.127 C19.81,28.122 20.545,28.5 22.393,28.5 L23.758,28.5 L23.758,26.925 L22.939,26.925 C21.826,26.925 21.595,26.799 21.595,25.959 L21.595,19.218 L23.758,19.218 L23.758,17.643 L21.595,17.643 L21.595,14.388 Z M28.483,14.388 L26.698,14.388 L26.698,17.643 L24.85,17.643 L24.85,19.218 L26.698,19.218 L26.698,26.127 C26.698,28.122 27.433,28.5 29.281,28.5 L30.646,28.5 L30.646,26.925 L29.827,26.925 C28.714,26.925 28.483,26.799 28.483,25.959 L28.483,19.218 L30.646,19.218 L30.646,17.643 L28.483,17.643 L28.483,14.388 Z M32.389,32.658 L34.174,32.658 L34.174,27.051 L34.216,27.051 C34.993,28.332 36.631,28.752 37.723,28.752 C41.041,28.752 42.679,26.19 42.679,23.103 C42.679,20.037 41.02,17.391 37.681,17.391 C36.169,17.391 34.804,17.916 34.216,19.113 L34.174,19.113 L34.174,17.643 L32.389,17.643 L32.389,32.658 Z M40.789,22.977 C40.789,25.098 39.97,27.177 37.534,27.177 C35.077,27.177 34.111,25.182 34.111,23.061 C34.111,21.045 35.014,18.966 37.429,18.966 C39.739,18.966 40.789,20.94 40.789,22.977 L40.789,22.977 Z M43.981,25.077 C44.086,27.765 46.144,28.752 48.58,28.752 C50.785,28.752 53.2,27.933 53.2,25.329 C53.2,23.25 51.436,22.641 49.651,22.242 C47.992,21.864 46.102,21.612 46.102,20.352 C46.102,19.26 47.341,18.966 48.412,18.966 C49.567,18.966 50.827,19.407 50.932,20.793 L52.717,20.793 C52.549,18.147 50.701,17.391 48.265,17.391 C46.354,17.391 44.212,18.294 44.212,20.478 C44.212,24.657 51.31,22.767 51.31,25.56 C51.31,26.925 49.798,27.177 48.685,27.177 C47.236,27.177 45.829,26.673 45.766,25.077 L43.981,25.077 Z" id="https"></path>
                        </g>
                    </g>
                </g>
            </g>
        </g>
    </g>
</svg>