<svg id="Layer_3" data-name="Layer 3" xmlns="http://www.w3.org/2000/svg" xmlns:xlink="http://www.w3.org/1999/xlink" viewBox="0 0 24 24"><defs><style>.cls-1{fill:#7cc7ff;}.cls-2{fill:#5596e6;}.cls-3{fill:#1d3649;}</style><symbol id="Small" data-name="Small" viewBox="0 0 425 425"><path class="cls-1" d="M212.04214,218.67118L381.06729,115.57366a1.01656,1.01656,0,0,1,.1584-0.10831C334.4659,87.04992,217.53228,15.8814,217.53228,15.8814a15.6728,15.6728,0,0,0-8.748-1.45309c-7.62281.84011-15.1259,6.40018-21.67423,10.45374C184.79536,26.315,41.56715,114.67362,41.56715,114.67362Z"/><path class="cls-2" d="M208.0993,330.184l-113.963-69.86268L28.349,300.44908,204.49645,408.26445c4.44116,2.66513,12.20251,1.00893,16.06413-3.19588,4.84932-5.28013,6.76348-13.80359,6.76348-24.93537C227.32406,340.97766,208.29189,330.28784,208.0993,330.184Z"/><path class="cls-1" d="M391.48962,218.59729l-76.60377-46.702-102.84371,62.73L34.63425,126.41484c-3.503-1.95421-6.4043-2.7474-9.60311-1.53731a28.28233,28.28233,0,0,0-4.076,2.51531c-7.168,6.10107-8.62813,17.41311-8.93757,27.50863-0.57358,18.71378,4.14477,40.46548,18.1573,50.494,0.02756,0.01969.06353,0.04809,0.09023,0.06689-2.93368-1.7917,182.689,111.73385,182.7393,111.76461,2.78462,1.61047,25.95308,16.42844,25.95308,62.90621a74.09065,74.09065,0,0,1-1.8056,16.52967c58.948-36.48479,148.1883-91.72331,155.058-95.99566,14.533-11.1728,21.15643-16.55962,21.15643-44.59086C413.36631,230.86975,393.73,219.78069,391.48962,218.59729Z"/><path class="cls-3" d="M396.08117,205.46678L327.991,163.9346l79.50949-48.48328S224.16693,3.85751,222.06367,2.75024l-0.541-.15909a25.96676,25.96676,0,0,0-19.90374-1.14238C195.44029,3.403,189.86668,6.987,185.18782,10.00994c-1.12245.72569-163.85887,100.95771-164.96715,101.63813a35.7678,35.7678,0,0,0-8.1638,6.3466c-14.53106,15.96987-14.13323,46.17467-8.1776,67.0363A70.87564,70.87564,0,0,0,15.2638,208.43829c5.82983,7.65742,13.27943,11.91812,20.80791,16.51886,5.99012,3.66071,45.20507,27.23,45.20507,27.23S2.17127,300.43785,2.18214,300.45339c2.59343,1.582,197.71819,121.47678,201.60863,123.27988,9.35282,4.33474,20.97021-3.39753,30.02186-9.00106,4.871-3.01546,163.923-101.45466,164.13317-101.6162C413.652,301.04423,425,292.32091,425,256.07652A57.2881,57.2881,0,0,0,396.08117,205.46678ZM208.78431,14.42832a15.6728,15.6728,0,0,1,8.748,1.45309S334.4659,87.04992,381.22569,115.46534a1.01858,1.01858,0,0,0-.1584.10827L212.04214,218.67118,41.56715,114.67362S184.79536,26.315,187.11008,24.88206C193.65841,20.8285,201.1615,15.26842,208.78431,14.42832Zm11.77627,390.6403c-3.86162,4.20472-11.623,5.861-16.06414,3.19582L28.349,300.44908l65.78726-40.12776L208.0993,330.184c0.19258,0.10384,19.22476,10.79366,19.22476,49.94919C227.32406,391.265,225.4099,399.78845,220.56059,405.06862ZM392.20988,300.66721c-6.8697,4.27235-96.11,59.51087-155.058,95.99566a74.09065,74.09065,0,0,0,1.8056-16.52967c0-46.47777-23.16846-61.29573-25.95308-62.90621-0.05028-.03076-185.673-113.55631-182.7393-111.76461-0.0267-.0188-0.06267-0.0472-0.09023-0.06689-14.01253-10.02854-18.73088-31.78024-18.1573-50.494,0.30945-10.09552,1.76956-21.40755,8.93757-27.50863a28.28233,28.28233,0,0,1,4.076-2.51531c3.1988-1.21009,6.10015-.4169,9.60311,1.53731L212.04214,234.62526l102.84371-62.73,76.60377,46.702c2.24039,1.1834,21.87668,12.27246,21.87668,37.47907C413.36631,284.10759,406.74286,289.49441,392.20988,300.66721Z"/><path class="cls-2" d="M314.88605,171.89484l-51.42188,31.36544-51.42188,31.36463L34.63417,126.41483c-3.5027-1.95441-6.40392-2.7472-9.60264-1.53775a28.20434,28.20434,0,0,0-4.07581,2.51536c-7.16834,6.10156-8.62827,17.413-8.93793,27.5085-0.57392,18.714,4.14472,40.4655,18.15715,50.49453,0.02756,0.01945.064,0.04783,0.09,0.06647-2.61345-1.59612,144.33064,88.27362,176.47834,107.93528L381.25582,212.35791Z"/><polygon class="cls-3" points="271.25 77.019 204.572 122.647 218.625 131.214 285.303 85.585 271.25 77.019"/><polygon class="cls-3" points="93.708 114.786 112.173 126.008 153.441 115.296 146.834 139.007 163.296 149.019 174.827 96.002 93.708 114.786"/><path class="cls-3" d="M215.238,226.70935c4.69954-3.5753,4.90853-2.16015,9.002-6.461L38.9877,107.23608s-13.541,4.814-8.62468,7.55661C30.363,114.79269,214.66254,227.14722,215.238,226.70935Z"/><path class="cls-3" d="M15.26383,208.43828c5.82983,7.65741,13.27942,11.91809,20.80786,16.51886C42.06187,228.61785,208.09935,330.184,208.09935,330.184c0.19257,0.10382,19.22473,10.79364,19.22473,49.94916,0,6.91193-.73981,12.81616-2.46021,17.56488,0.42041-.0155.84113-0.03888,1.26233-0.07837a20.5256,20.5256,0,0,0,11.87372-5.334,76.26805,76.26805,0,0,0,.95758-12.15247c0-46.47778-23.16846-63.29572-25.95306-64.90619-0.05029-.03076-182.802-111.81183-182.82953-111.83148-14.01257-10.02856-18.7309-29.78027-18.15729-48.494,0.29572-9.65,1.65631-20.3996,8.0351-26.65906a124.79636,124.79636,0,0,1-10.90686-6.5636c-11.5246,16.61029-10.79181,43.998-5.26654,63.35211A70.87382,70.87382,0,0,0,15.26383,208.43828Z"/><path class="cls-3" d="M211.29,224.70935c-4.69954-3.5753-4.90853-2.16015-9.002-6.461L387.54032,105.23608s13.541,4.814,8.62468,7.55661C396.165,112.79269,211.86548,225.14722,211.29,224.70935Z"/></symbol></defs><title>schematics_logo_24x24px</title><use width="424.99999" height="425.00011" transform="scale(0.05647)" xlink:href="#Small"/></svg>