<?xml version="1.0" encoding="utf-8"?>
<!-- Generator: Adobe Illustrator 19.0.0, SVG Export Plug-In . SVG Version: 6.00 Build 0)  -->
<svg version="1.1" xmlns="http://www.w3.org/2000/svg" xmlns:xlink="http://www.w3.org/1999/xlink" x="0px" y="0px"
	 viewBox="0 0 1600 1600" style="enable-background:new 0 0 1600 1600;" xml:space="preserve">
<style type="text/css">
	.st0{fill:none;stroke:#000000;stroke-width:2.216;stroke-miterlimit:10;}
	.st1{fill:none;stroke:#1176BD;stroke-width:11.8918;stroke-miterlimit:10;}
	.st2{fill:none;stroke:#020404;stroke-width:2.216;stroke-miterlimit:10;}
	.st3{fill:#30354D;}
	.st4{fill:#30354D;stroke:#FFFFFF;stroke-width:1.7199;stroke-miterlimit:10;}
	.st5{fill:none;stroke:#24B0E6;stroke-width:3.3239;stroke-miterlimit:10;}
	.st6{fill:none;stroke:#DFE6EB;stroke-width:3.3239;stroke-miterlimit:10;}
	.st7{fill:#02AED1;}
	.st8{fill:#F19026;}
	.st9{fill:#7E287D;}
	.st10{fill:#E62133;}
	.st11{fill:#865DA7;}
	.st12{fill:#8DC641;}
	.st13{fill:#088BC0;}
	.st14{fill:#EEF8FC;}
	.st15{fill:none;stroke:#49C1F0;stroke-width:3.3239;stroke-miterlimit:10;}
	.st16{fill:none;stroke:#49C1F0;stroke-width:3.3239;stroke-miterlimit:10;stroke-dasharray:4.4553,4.4553;}
	.st17{fill:none;stroke:#49C1F0;stroke-width:3.3239;stroke-miterlimit:10;stroke-dasharray:4.4319;}
	.st18{fill:#CED5DE;}
	.st19{opacity:0.5;fill:#E62133;}
	.st20{opacity:0.8;fill:none;stroke:#E62133;stroke-width:3.3239;stroke-miterlimit:10;stroke-dasharray:4.4319;}
	.st21{fill:#335D80;}
	.st22{stroke:#000000;stroke-width:2.216;stroke-miterlimit:10;}
	.st23{stroke:#FFFFFF;stroke-width:2.216;stroke-miterlimit:10;}
	.st24{fill:#24B0E6;}
	.st25{fill:#A63725;}
	.st26{fill:none;stroke:#000000;stroke-width:1.7079;stroke-miterlimit:10;}
	.st27{fill:none;stroke:#6D7877;stroke-width:2.5083;stroke-miterlimit:10;}
	.st28{fill:none;stroke:#24B0E6;stroke-width:2.1441;stroke-miterlimit:10;}
	.st29{fill:none;stroke:#24B0E6;stroke-width:2.1441;stroke-miterlimit:10;stroke-dasharray:17.1745,17.1745;}
	.st30{fill:#92278F;}
	.st31{fill:none;stroke:#00A6A0;stroke-width:2.1441;stroke-miterlimit:10;}
	.st32{fill:#00A6A0;}
	.st33{fill:none;stroke:#00A6A0;stroke-width:2.1441;stroke-miterlimit:10;stroke-dasharray:16.9456,16.9456;}
	.st34{fill:none;stroke:#00A6A0;stroke-width:2.1441;stroke-miterlimit:10;stroke-dasharray:20.6727,20.6727;}
	.st35{fill:none;stroke:#00A6A0;stroke-width:2.1441;stroke-miterlimit:10;stroke-dasharray:16.7456,16.7456;}
	.st36{fill:#00A6A0;stroke:#FFFFFF;stroke-width:2.216;stroke-miterlimit:10;}
	.st37{fill:none;}
	.st38{fill:#020404;}
	.st39{font-family:'HelveticaNeue-Light';}
	.st40{font-size:28.8074px;}
	.st41{font-size:21px;}
	.st42{fill:#FEFFFF;}
	.st43{font-family:'HelveticaNeue-Bold';}
	.st44{font-size:17.7276px;}
	.st45{font-size:29.457px;}
	.st46{font-size:14px;}
	.st47{fill:none;stroke:#000000;stroke-width:2.2077;stroke-miterlimit:10;}
	.st48{fill:#30354D;stroke:#000000;stroke-width:2.216;stroke-miterlimit:10;}
	.st49{fill:none;stroke:#92278F;stroke-width:2.1354;stroke-miterlimit:10;}
	.st50{fill:none;stroke:#92278F;stroke-width:2.1354;stroke-miterlimit:10;stroke-dasharray:15.6416,15.6416;}
	.st51{fill:none;stroke:#92278F;stroke-width:2.1354;stroke-miterlimit:10;stroke-dasharray:17.0625,17.0625;}
	.st52{fill:none;stroke:#92278F;stroke-width:2.1354;stroke-miterlimit:10;stroke-dasharray:17.2749,17.2749;}
	.st53{fill:none;stroke:#92278F;stroke-width:2.1354;stroke-miterlimit:10;stroke-dasharray:17.5124,17.5124;}
	.st54{fill:none;stroke:#92278F;stroke-width:2.1354;stroke-miterlimit:10;stroke-dasharray:15.2043,15.2043;}
	.st55{fill:none;stroke:#92278F;stroke-width:2.1354;stroke-miterlimit:10;stroke-dasharray:16.894;}
	.st56{font-size:12px;}
	.st57{fill:none;stroke:#A63725;stroke-width:2.216;stroke-miterlimit:10;}
	.st58{fill:none;stroke:#A63725;stroke-width:2.1441;stroke-miterlimit:10;}
	.st59{fill:none;stroke:#A63725;stroke-width:2.1441;stroke-miterlimit:10;stroke-dasharray:16.7552,16.7552;}
	.st60{fill:none;stroke:#A63725;stroke-width:2.1441;stroke-miterlimit:10;stroke-dasharray:17.6417,17.6417;}
</style>
<g id="ART">
	<line class="st0" x1="1270.6" y1="1204.9" x2="1414.8" y2="1204.9"/>
	<rect x="486.4" y="166.8" class="st1" width="824.3" height="771"/>
	<g>
		<g>
			<rect x="528.5" y="745.4" class="st2" width="355.7" height="146.3"/>
		</g>
		<g>
			<rect x="912.9" y="745.4" class="st2" width="355.7" height="146.3"/>
		</g>
	</g>
	<rect x="528.5" y="388.4" class="st2" width="740.1" height="146.3"/>
	<rect x="528.5" y="208.9" class="st2" width="740.1" height="146.3"/>
	<g>
		<g>
			<path class="st3" d="M754,413.6c-21.8,0-39.6,4.6-39.6,10.3v74.7c0,5.7,17.7,10.3,39.6,10.3c21.8,0,39.6-4.6,39.6-10.3v-74.7
				C793.6,418.2,775.8,413.6,754,413.6z"/>
			<ellipse class="st4" cx="754" cy="423.9" rx="39.6" ry="10.3"/>
		</g>
	</g>
	<g>
		<g>
			<path class="st3" d="M853.2,413.6c-21.8,0-39.6,4.6-39.6,10.3v74.7c0,5.7,17.7,10.3,39.6,10.3c21.8,0,39.6-4.6,39.6-10.3v-74.7
				C892.8,418.2,875.1,413.6,853.2,413.6z"/>
			<ellipse class="st4" cx="853.2" cy="423.9" rx="39.6" ry="10.3"/>
		</g>
	</g>
	<g>
		<path class="st3" d="M1008.5,509.7h-90.7c-1.3,0-2.3-1.1-2.3-2.3v-90.7c0-1.3,1.1-2.3,2.3-2.3h90.7c1.3,0,2.3,1.1,2.3,2.3v90.7
			C1010.8,508.6,1009.8,509.7,1008.5,509.7z"/>
	</g>
	<g>
		<path class="st3" d="M1123.9,509.7h-90.7c-1.3,0-2.3-1.1-2.3-2.3v-90.7c0-1.3,1.1-2.3,2.3-2.3h90.7c1.3,0,2.3,1.1,2.3,2.3v90.7
			C1126.2,508.6,1125.1,509.7,1123.9,509.7z"/>
	</g>
	<g>
		<path class="st3" d="M1238.8,509.7h-90.7c-1.3,0-2.3-1.1-2.3-2.3v-90.7c0-1.3,1.1-2.3,2.3-2.3h90.7c1.3,0,2.3,1.1,2.3,2.3v90.7
			C1241.2,508.6,1240.1,509.7,1238.8,509.7z"/>
	</g>
	<g>
		<rect x="528.5" y="566.9" class="st2" width="740.1" height="146.3"/>
		<circle class="st5" cx="821.7" cy="640.6" r="36.4"/>
		<circle class="st6" cx="901.4" cy="640.6" r="36.4"/>
		<circle class="st6" cx="981" cy="640.6" r="36.4"/>
		<circle class="st6" cx="1060.6" cy="640.6" r="36.4"/>
		<circle class="st6" cx="1140.2" cy="640.6" r="36.4"/>
		<circle class="st6" cx="1219.8" cy="640.6" r="36.4"/>
		<circle class="st5" cx="742.1" cy="640.6" r="36.4"/>
		<g>
			<path class="st7" d="M721.6,639.5h3.1v3h-3.1V639.5z"/>
			<path class="st7" d="M724.9,643.7c0.1,0.1,0.3,0.1,0.6,0.1c0.6,0,1-0.1,1-0.9v-10.4h2.8V643c0,2.1-0.8,3.1-3.6,3.1
				c-0.3,0-0.6,0-0.9-0.1L724.9,643.7L724.9,643.7z M729.3,630.9h-2.7v-2.3h2.8L729.3,630.9L729.3,630.9z"/>
			<path class="st7" d="M731,635.5c0.1-2.6,2.5-3.4,4.7-3.4c2,0,4.4,0.5,4.4,2.9v5.3c0,0.9,0.1,1.8,0.3,2.3h-2.8
				c-0.1-0.3-0.2-0.6-0.2-1c-0.9,0.9-2.1,1.2-3.4,1.2c-1.9,0-3.4-1-3.4-3c0.1-4.5,6.8-2.1,6.7-4.4c0-1.2-0.8-1.4-1.8-1.4
				c-1,0-1.8,0.5-1.8,1.5H731L731,635.5z M737.5,637.5c-0.5,0.4-1.4,0.5-2.3,0.6c-0.8,0.1-1.6,0.5-1.6,1.5c0,1,0.8,1.3,1.7,1.3
				c2.1,0,2.2-1.7,2.2-2.3V637.5z"/>
			<path class="st7" d="M747.3,642.5h-3.1l-3.4-10.1h2.9l2.1,6.9h0.1l2.1-6.9h2.7L747.3,642.5z"/>
			<path class="st7" d="M751.1,635.5c0.1-2.6,2.5-3.4,4.7-3.4c2,0,4.4,0.5,4.4,2.9v5.3c0,0.9,0.1,1.8,0.3,2.3h-2.8
				c-0.1-0.3-0.2-0.6-0.2-1c-0.9,0.9-2.1,1.2-3.4,1.2c-1.9,0-3.4-1-3.4-3c0.1-4.5,6.8-2.1,6.7-4.4c0-1.2-0.8-1.4-1.8-1.4
				c-1,0-1.8,0.5-1.8,1.5H751.1L751.1,635.5z M757.4,637.5c-0.5,0.4-1.4,0.5-2.3,0.6c-0.8,0.1-1.6,0.5-1.6,1.5c0,1,0.8,1.3,1.7,1.3
				c2.1,0,2.3-1.7,2.3-2.3L757.4,637.5L757.4,637.5z"/>
			<path class="st7" d="M730.6,645.5h1.5v7.4h-1.5V645.5z"/>
			<path class="st7" d="M734.6,646.7h-1.5v-1.2h1.5V646.7z M733.1,647.5h1.5v5.4h-1.5V647.5z"/>
			<path class="st7" d="M735.6,645.5h1.5v2.7l0,0c0.4-0.5,1-0.8,1.7-0.8c1,0,2.2,0.8,2.2,2.9c0,2-1.2,2.9-2.2,2.9
				c-0.8,0-1.4-0.3-1.8-0.8l0,0v0.7h-1.4V645.5L735.6,645.5z M738.3,648.4c-0.8,0-1.2,0.8-1.2,1.8c0,0.9,0.4,1.7,1.2,1.7
				c0.8,0,1.2-0.8,1.2-1.7C739.6,649.3,739.2,648.4,738.3,648.4z"/>
			<path class="st7" d="M743,650.5c0.1,1,0.5,1.4,1.3,1.4c0.6,0,1-0.4,1.2-0.7h1.3c-0.4,1.3-1.3,1.8-2.5,1.8c-1.7,0-2.7-1.2-2.7-2.9
				c0-1.6,1.1-2.9,2.7-2.9c1.8,0,2.7,1.6,2.6,3.2L743,650.5L743,650.5z M745.4,649.6c-0.1-0.8-0.5-1.2-1.2-1.2c-1,0-1.2,0.7-1.2,1.2
				H745.4z"/>
			<path class="st7" d="M747.7,647.5h1.4v1l0,0c0.3-0.6,1-1.2,1.7-1.2c0.1,0,0.2,0,0.3,0.1v1.4c-0.1,0-0.3-0.1-0.5-0.1
				c-1.1,0-1.4,0.8-1.4,1.8v2.4h-1.5V647.5z"/>
			<path class="st7" d="M754.1,647.5h1.1v1h-1.1v2.7c0,0.5,0.1,0.6,0.6,0.6c0.2,0,0.3,0,0.5-0.1v1.2c-0.3,0.1-0.6,0.1-0.9,0.1
				c-0.9,0-1.7-0.2-1.7-1.3v-3.2h-0.9v-1h0.9v-1.6h1.5V647.5z"/>
			<path class="st7" d="M758.9,653.6c-0.3,0.8-0.8,1.2-1.8,1.2c-0.3,0-0.6,0-0.9-0.1v-1.2c0.3,0,0.6,0.1,0.8,0.1
				c0.4-0.1,0.6-0.3,0.6-0.6c0-0.1,0-0.3-0.1-0.3l-1.9-5.1h1.6l1.2,3.7l0,0l1.2-3.7h1.6L758.9,653.6z"/>
		</g>
		<g>
			<path class="st8" d="M808.9,643.5h3.6v3.5h-3.6V643.5z"/>
			<path class="st8" d="M813.4,648.3c0.2,0.1,0.4,0.1,0.7,0.1c0.6,0,1.3-0.2,1.3-1.1v-12.2h3.2v12.4c0,2.4-0.9,3.5-4.2,3.5
				c-0.3,0-0.7,0-1.1-0.1L813.4,648.3L813.4,648.3z M818.6,633.3h-3.2v-2.7h3.2V633.3z"/>
			<path class="st8" d="M823.5,643.1c0,1.4,1.2,2,2.5,2c0.9,0,2.1-0.4,2.1-1.5c0-1-1.4-1.3-3.7-1.8c-1.9-0.4-3.7-1.1-3.7-3.2
				c0-3,2.6-3.8,5.1-3.8s4.9,0.9,5.2,3.7h-3.1c-0.1-1.3-1.1-1.6-2.2-1.6c-0.8,0-1.8,0.1-1.8,1.1c0,1.1,1.8,1.3,3.7,1.8
				c1.9,0.4,3.7,1.1,3.7,3.3c0,3.1-2.7,4.1-5.4,4.1c-2.7,0-5.5-1-5.5-4.2h3.1V643.1z"/>
		</g>
		<g>
			<path class="st9" d="M886,643.8h3.7v3.5H886V643.8z"/>
			<path class="st9" d="M902.7,646.6c0,2-0.7,5.3-6.2,5.3c-2.4,0-5.1-1.2-5.3-3.9h3.2c0.3,1.2,1.3,1.7,2.5,1.7c1.8,0,2.6-1.2,2.6-3
				v-1.5h-0.1c-0.7,1.3-2.1,1.9-3.6,1.9c-3.6,0-5.2-2.7-5.2-6.1c0-3.1,1.8-5.9,5.2-5.9c1.5,0,2.8,0.5,3.5,1.9h0.1v-1.6h3.2
				L902.7,646.6L902.7,646.6z M899.5,641.2c0-1.9-0.6-3.7-2.8-3.7c-1.9,0-2.6,1.6-2.6,3.4c0,1.7,0.6,3.6,2.6,3.6
				C898.6,644.5,899.5,642.9,899.5,641.2z"/>
			<path class="st9" d="M910.5,635c3.8,0,6.2,2.5,6.2,6.3c0,3.8-2.5,6.3-6.2,6.3c-3.7,0-6.2-2.5-6.2-6.3
				C904.4,637.6,906.8,635,910.5,635z M910.5,645.2c2.3,0,2.9-1.9,2.9-3.8c0-1.9-0.6-3.9-2.9-3.9c-2.3,0-2.9,1.9-2.9,3.9
				C907.6,643.3,908.4,645.2,910.5,645.2z"/>
		</g>
		<g>
			<path class="st10" d="M958.6,643.7h3.6v3.5h-3.6V643.7z"/>
			<path class="st10" d="M964.1,635.3h3.1v1.5h0.1c0.8-1.3,2.1-1.9,3.5-1.9c3.7,0,5.4,3,5.4,6.4c0,3.2-1.7,6.1-5.3,6.1
				c-1.4,0-2.7-0.6-3.6-1.8l0,0v5.7h-3.2V635.3z M972.9,641.3c0-1.9-0.8-3.8-2.9-3.8c-2.2,0-2.8,1.9-2.8,3.8c0,1.9,0.7,3.7,2.9,3.7
				C972.3,645.1,972.9,643.3,972.9,641.3z"/>
			<path class="st10" d="M977.9,630.8h3.2v6.2h0.1c0.9-1.4,2.2-2,3.5-2c3.5,0,4.3,1.9,4.3,4.9v7.3h-3.2v-6.7c0-1.9-0.6-3-2.1-3
				c-1.8,0-2.5,1-2.5,3.4v6.3h-3.2V630.8L977.9,630.8z"/>
			<path class="st10" d="M991.2,635.3h3.1v1.5h0.1c0.8-1.3,2.1-1.9,3.5-1.9c3.7,0,5.4,3,5.4,6.4c0,3.2-1.7,6.1-5.3,6.1
				c-1.4,0-2.7-0.6-3.6-1.8h-0.1v5.7h-3.2L991.2,635.3L991.2,635.3z M1000.1,641.3c0-1.9-0.8-3.8-2.9-3.8c-2.2,0-2.8,1.9-2.8,3.8
				c0,1.9,0.7,3.7,2.9,3.7C999.4,645.1,1000.1,643.3,1000.1,641.3z"/>
		</g>
		<g>
			<path class="st11" d="M1044.8,643.7h3.8v3.8h-3.8V643.7z"/>
			<path class="st11" d="M1050.5,634.7h3.4v1.6h0.1c0.9-1.4,2.2-2,3.8-2c4,0,5.8,3.2,5.8,6.9c0,3.4-1.9,6.6-5.6,6.6
				c-1.6,0-2.9-0.7-3.8-1.9h-0.1v6.1h-3.5V634.7L1050.5,634.7z M1060,641.2c0-2.1-0.8-4.1-3.1-4.1s-3,2.1-3,4.1c0,2.1,0.8,4,3.1,4
				C1059.2,645.2,1060,643.2,1060,641.2z"/>
			<path class="st11" d="M1071,649c-0.8,2.1-2,2.9-4.4,2.9c-0.7,0-1.4-0.1-2.1-0.1v-2.9c0.7,0.1,1.4,0.1,2.1,0.1
				c0.9-0.1,1.4-0.8,1.4-1.6c0-0.3-0.1-0.5-0.1-0.8l-4.5-12h3.8l2.9,8.7l0,0l2.7-8.6h3.6L1071,649z"/>
		</g>
		<g>
			<path class="st12" d="M1128.5,638.8h3.2v3.1h-3.2V638.8z"/>
			<path class="st12" d="M1133.7,631.5h2.7v1.9h0.1c0.6-1.3,1.9-2.2,3.3-2.2c0.2,0,0.4,0.1,0.6,0.1v2.7c-0.3-0.1-0.7-0.1-1-0.1
				c-2.1,0-2.8,1.5-2.8,3.3v4.7h-2.8L1133.7,631.5L1133.7,631.5z"/>
			<path class="st12" d="M1141.7,627.6h2.8v5.2h0.1c0.7-1.1,2-1.6,3.3-1.6c2.1,0,4.3,1.7,4.3,5.4s-2.2,5.4-4.3,5.4
				c-1.5,0-2.8-0.4-3.4-1.6h-0.1v1.3h-2.7V627.6z M1146.9,633.3c-1.7,0-2.4,1.6-2.4,3.3c0,1.7,0.7,3.3,2.4,3.3
				c1.7,0,2.4-1.6,2.4-3.3C1149.3,634.9,1148.5,633.3,1146.9,633.3z"/>
			<path class="st12" d="M1128,646c1.4,0,2.4,0.9,2.4,2.4c0,1.4-0.9,2.4-2.4,2.4s-2.4-0.9-2.4-2.4C1125.6,646.9,1126.5,646,1128,646
				z M1128,649.9c0.9,0,1.1-0.7,1.1-1.4c0-0.7-0.3-1.5-1.1-1.5c-0.8,0-1.1,0.7-1.1,1.5C1126.9,649.2,1127.2,649.9,1128,649.9z"/>
			<path class="st12" d="M1131,646.1h1.2v0.7l0,0c0.3-0.5,0.9-0.8,1.4-0.8c1.3,0,1.7,0.8,1.7,1.9v2.8h-1.3v-2.6
				c0-0.8-0.2-1.1-0.8-1.1c-0.7,0-1,0.4-1,1.3v2.4h-1.2V646.1z"/>
			<path class="st12" d="M1138.3,646.1h1.2v0.8l0,0c0.2-0.6,0.8-1,1.4-1c0.1,0,0.2,0,0.3,0.1v1.2c-0.1,0-0.3-0.1-0.4-0.1
				c-0.9,0-1.2,0.7-1.2,1.5v2.1h-1.3V646.1L1138.3,646.1z"/>
			<path class="st12" d="M1141.5,647.6c0.1-1.2,1.1-1.6,2.2-1.6c0.9,0,2,0.2,2,1.3v2.4c0,0.4,0.1,0.8,0.2,1h-1.3
				c-0.1-0.2-0.1-0.3-0.1-0.4c-0.4,0.4-1,0.6-1.6,0.6c-0.9,0-1.6-0.4-1.6-1.4c0-2.1,3.1-0.9,3.1-2c0-0.6-0.4-0.6-0.8-0.6
				c-0.5,0-0.8,0.2-0.8,0.7L1141.5,647.6L1141.5,647.6z M1144.4,648.5c-0.2,0.2-0.7,0.2-1.1,0.3c-0.4,0.1-0.7,0.2-0.7,0.7
				c0,0.4,0.4,0.6,0.8,0.6c1,0,1-0.8,1-1.1V648.5z"/>
			<path class="st12" d="M1147.9,645.4h-1.3v-1.1h1.3V645.4z M1146.6,646.1h1.3v4.6h-1.3V646.1z"/>
			<path class="st12" d="M1148.8,644.4h1.3v6.3h-1.3V644.4z"/>
			<path class="st12" d="M1151.8,649.2c0,0.6,0.5,0.8,0.9,0.8c0.3,0,0.8-0.2,0.8-0.6c0-0.4-0.6-0.5-1.4-0.7
				c-0.7-0.2-1.4-0.4-1.4-1.2c0-1.2,1-1.5,2-1.5c1,0,1.9,0.3,2,1.4h-1.2c-0.1-0.5-0.4-0.6-0.9-0.6c-0.3,0-0.7,0.1-0.7,0.4
				c0,0.4,0.7,0.5,1.4,0.7c0.7,0.2,1.4,0.4,1.4,1.3c0,1.2-1.1,1.6-2.1,1.6s-2.1-0.4-2.2-1.6L1151.8,649.2L1151.8,649.2z"/>
		</g>
		<g>
			<path class="st13" d="M1208.1,638.8h3.2v3.1h-3.2V638.8z"/>
			<path class="st13" d="M1213.4,631.5h2.7v1.9h0.1c0.6-1.3,1.9-2.2,3.3-2.2c0.2,0,0.4,0.1,0.6,0.1v2.7c-0.3-0.1-0.7-0.1-1-0.1
				c-2.1,0-2.8,1.5-2.8,3.3v4.7h-2.8L1213.4,631.5L1213.4,631.5z"/>
			<path class="st13" d="M1221.4,627.6h2.8v5.2h0.1c0.7-1.1,2-1.6,3.3-1.6c2.1,0,4.3,1.7,4.3,5.5c0,3.8-2.2,5.5-4.3,5.5
				c-1.5,0-2.8-0.4-3.4-1.6h-0.1v1.3h-2.7V627.6z M1226.6,633.4c-1.7,0-2.4,1.6-2.4,3.3c0,1.7,0.7,3.3,2.4,3.3
				c1.7,0,2.4-1.6,2.4-3.3C1229,634.9,1228.2,633.4,1226.6,633.4z"/>
			<path class="st13" d="M1207.1,649.3c0,0.6,0.5,0.8,0.9,0.8c0.3,0,0.8-0.2,0.8-0.6c0-0.4-0.6-0.5-1.4-0.7
				c-0.7-0.2-1.4-0.4-1.4-1.2c0-1.2,1-1.5,2-1.5c1,0,1.9,0.3,2,1.4h-1.2c-0.1-0.5-0.4-0.6-0.9-0.6c-0.3,0-0.7,0.1-0.7,0.4
				c0,0.4,0.7,0.5,1.4,0.7c0.7,0.2,1.4,0.4,1.4,1.3c0,1.2-1.1,1.6-2.1,1.6c-1.1,0-2.1-0.4-2.2-1.6L1207.1,649.3L1207.1,649.3z"/>
			<path class="st13" d="M1212,645.4h-1.3v-1.1h1.3V645.4z M1210.7,646.2h1.3v4.6h-1.3V646.2z"/>
			<path class="st13" d="M1212.9,646.2h1.2v0.7l0,0c0.3-0.5,0.9-0.8,1.4-0.8c1.3,0,1.7,0.8,1.7,1.9v2.8h-1.3v-2.6
				c0-0.8-0.2-1.1-0.8-1.1c-0.7,0-1,0.4-1,1.3v2.4h-1.2V646.2z"/>
			<path class="st13" d="M1218,647.6c0.1-1.2,1.1-1.6,2.2-1.6c0.9,0,2,0.2,2,1.3v2.4c0,0.4,0.1,0.8,0.2,1h-1.3
				c-0.1-0.2-0.1-0.3-0.1-0.4c-0.4,0.4-1,0.6-1.6,0.6c-0.9,0-1.6-0.4-1.6-1.4c0-2.1,3.1-0.9,3.1-2c0-0.6-0.4-0.6-0.8-0.6
				c-0.5,0-0.8,0.2-0.8,0.7L1218,647.6L1218,647.6z M1220.9,648.5c-0.2,0.2-0.7,0.2-1.1,0.3c-0.4,0.1-0.7,0.2-0.7,0.7
				s0.4,0.6,0.8,0.6c1,0,1-0.8,1-1.1V648.5z"/>
			<path class="st13" d="M1224.6,646.2h0.9v0.8h-0.9v2.3c0,0.4,0.1,0.6,0.6,0.6c0.2,0,0.3,0,0.4-0.1v1c-0.2,0.1-0.5,0.1-0.7,0.1
				c-0.8,0-1.4-0.2-1.4-1.1V647h-0.8v-0.8h0.8v-1.4h1.3L1224.6,646.2L1224.6,646.2z"/>
			<path class="st13" d="M1226.2,646.2h1.2v0.8l0,0c0.2-0.6,0.8-1,1.4-1c0.1,0,0.2,0,0.3,0.1v1.2c-0.1,0-0.3-0.1-0.4-0.1
				c-0.9,0-1.2,0.7-1.2,1.5v2.1h-1.3V646.2z"/>
			<path class="st13" d="M1229.5,647.6c0.1-1.2,1.1-1.6,2.2-1.6c0.9,0,2,0.2,2,1.3v2.4c0,0.4,0.1,0.8,0.2,1h-1.3
				c-0.1-0.2-0.1-0.3-0.1-0.4c-0.4,0.4-1,0.6-1.6,0.6c-0.9,0-1.6-0.4-1.6-1.4c0-2.1,3.1-0.9,3.1-2c0-0.6-0.4-0.6-0.8-0.6
				c-0.5,0-0.8,0.2-0.8,0.7L1229.5,647.6L1229.5,647.6z M1232.4,648.5c-0.2,0.2-0.7,0.2-1.1,0.3c-0.4,0.1-0.7,0.2-0.7,0.7
				s0.4,0.6,0.8,0.6c1,0,1-0.8,1-1.1V648.5z"/>
		</g>
	</g>
	<rect x="1336.2" y="160.7" class="st14" width="35.5" height="828.7"/>
	<g>
		<g>
			<line class="st15" x1="1336.2" y1="160.7" x2="1336.2" y2="162.9"/>
			<line class="st16" x1="1336.2" y1="167.3" x2="1336.2" y2="984.9"/>
			<line class="st15" x1="1336.2" y1="987.1" x2="1336.2" y2="989.3"/>
		</g>
	</g>
	<g>
		<g>
			<line class="st15" x1="1371.6" y1="160.7" x2="1371.6" y2="162.9"/>
			<line class="st16" x1="1371.6" y1="167.3" x2="1371.6" y2="984.9"/>
			<line class="st15" x1="1371.6" y1="987.1" x2="1371.6" y2="989.3"/>
		</g>
	</g>
	<rect x="425.4" y="160.7" class="st14" width="35.5" height="828.7"/>
	<line class="st17" x1="425.4" y1="160.7" x2="425.4" y2="989.3"/>
	<line class="st17" x1="460.9" y1="160.7" x2="460.9" y2="989.3"/>
	<rect x="354" y="160.7" class="st14" width="35.5" height="828.7"/>
	<rect x="266.6" y="1293.4" class="st18" width="1105" height="35.5"/>
	<rect x="1387.6" y="1293.4" class="st18" width="198.8" height="35.5"/>
	<line class="st17" x1="354" y1="160.7" x2="354" y2="989.3"/>
	<line class="st17" x1="389.4" y1="160.7" x2="389.4" y2="989.3"/>
	<rect x="280.9" y="160.7" class="st19" width="35.5" height="828.7"/>
	<line class="st20" x1="280.9" y1="160.7" x2="280.9" y2="989.3"/>
	<line class="st20" x1="316.3" y1="160.7" x2="316.3" y2="989.3"/>
	<g>
		<polygon class="st21" points="1455.4,502.5 1431.2,458.5 1455.4,414.5 1503.9,414.5 1528.1,458.5 1503.9,502.5 		"/>
		<polygon class="st21" points="1455.4,603.5 1431.2,559.5 1455.4,515.5 1503.9,515.5 1528.1,559.5 1503.9,603.5 		"/>
		<polygon class="st21" points="1455.4,706.5 1431.2,664 1455.4,621.5 1503.9,621.5 1528.1,664 1503.9,706.5 		"/>
		<polygon class="st21" points="1455.4,810.5 1431.2,766.5 1455.4,722.5 1503.9,722.5 1528.1,766.5 1503.9,810.5 		"/>
		<polygon class="st21" points="1455.4,913.5 1431.2,870.5 1455.4,827.5 1503.9,827.5 1528.1,870.5 1503.9,913.5 		"/>
	</g>
	<rect x="1396.9" y="335" class="st2" width="165.5" height="602.9"/>
	<circle cx="528.5" cy="632.4" r="9.9"/>
	<circle class="st22" cx="280.9" cy="210.6" r="9.9"/>
	<circle class="st22" cx="354" cy="321.4" r="9.9"/>
	<circle class="st23" cx="994.4" cy="414.9" r="9.9"/>
	<circle class="st24" cx="928.8" cy="581.2" r="6.1"/>
	<circle class="st24" cx="443.2" cy="656.1" r="6.1"/>
	<circle class="st24" cx="371.7" cy="656.1" r="6.1"/>
	<circle class="st24" cx="298.6" cy="656.1" r="6.1"/>
	<circle class="st25" cx="443.2" cy="460.6" r="6.1"/>
	<circle class="st25" cx="611.9" cy="282" r="6.1"/>
	<circle class="st25" cx="371.7" cy="460.6" r="6.1"/>
	<circle class="st25" cx="298.6" cy="460.6" r="6.1"/>
	<rect x="465.8" y="37.3" class="st26" width="181.9" height="78.3"/>
	<rect x="243.6" y="37.3" class="st26" width="181.9" height="78.3"/>
	<rect x="919.4" y="37.3" class="st26" width="152.7" height="55.4"/>
	<rect x="81.7" y="200.7" class="st26" width="152.7" height="55.4"/>
	<rect x="81.7" y="267.6" class="st26" width="152.7" height="55.4"/>
	<rect x="186.7" y="1071.4" class="st27" width="152.7" height="55.4"/>
	<rect x="27.2" y="1071.4" class="st27" width="152.7" height="55.4"/>
	<line class="st0" x1="995.7" y1="414.9" x2="995.7" y2="92.7"/>
	<polyline class="st0" points="556.1,115.6 527.2,311.3 527.2,632.4 	"/>
	<polyline class="st0" points="234.3,228.4 257.2,228.4 280.9,210.6 257.6,295.3 234.3,295.3 	"/>
	<polyline class="st0" points="354,321.4 354,265.5 334.5,115.6 	"/>
	<polyline class="st28" points="225.7,640.5 241.3,656.1 225.7,671.8 	"/>
	<line class="st28" x1="7.3" y1="602.8" x2="7.3" y2="656.1"/>
	<g>
		<g>
			<line class="st28" x1="7.3" y1="656.1" x2="15.8" y2="656.1"/>
			<polyline class="st29" points="33,656.1 298.6,656.1 371.7,656.1 443.2,656.1 911.9,583.8 			"/>
			<line class="st28" x1="920.4" y1="582.5" x2="928.8" y2="581.2"/>
		</g>
	</g>
	<circle class="st30" cx="103.5" cy="1126.3" r="6.1"/>
	<circle class="st30" cx="259.7" cy="1126.3" r="6.1"/>
	<line class="st31" x1="6.2" y1="850" x2="6.2" y2="796.6"/>
	<circle class="st32" cx="1414.8" cy="579" r="6.1"/>
	<circle class="st32" cx="1011.4" cy="581.2" r="6.1"/>
	<polyline class="st31" points="201.3,834.3 217,850 201.3,865.6 	"/>
	<g>
		<g>
			<line class="st31" x1="1414.8" y1="579" x2="1406.3" y2="579"/>
			<line class="st33" x1="1389.4" y1="579" x2="1025.1" y2="579"/>
			<polyline class="st31" points="1016.6,579 1008.1,579 1004,571.5 			"/>
			<line class="st34" x1="994.1" y1="553.4" x2="979.2" y2="526.2"/>
			<polyline class="st31" points="974.3,517.1 970.2,509.7 962.5,513.3 			"/>
			<polyline class="st35" points="947.3,520.4 240.5,850 24,850 			"/>
			<line class="st31" x1="15.7" y1="850" x2="7.2" y2="850"/>
		</g>
	</g>
	<circle class="st36" cx="970.2" cy="508.9" r="6.1"/>
	<circle class="st30" cx="1093" cy="841.7" r="6.1"/>
	<circle class="st30" cx="714.2" cy="841.7" r="6.1"/>
	<rect x="582.9" y="803.1" class="st37" width="202.4" height="44.6"/>
	<text transform="matrix(1 0 0 1 582.9465 823.5944)" class="st38 st39 st40">IU do Bluemix</text>
	<rect x="667.4" y="275.1" class="st37" width="526.3" height="81.7"/>
	<text transform="matrix(1 0 0 1 667.3606 295.5105)"><tspan x="0" y="0" class="st38 st39 st40">Console do administrador para o Bluemix </tspan><tspan x="0" y="39.9" class="st38 st39 st40">Dedicated </tspan></text>
	<rect x="963.1" y="803.1" class="st37" width="245.3" height="38.4"/>
	<text transform="matrix(1 0 0 1 972.8733 823.5944)" class="st38 st39 st40">Servidor UAA do cf</text>
	<rect x="552.8" y="430.5" class="st37" width="150.9" height="173.7"/>
	<text transform="matrix(1 0 0 1 552.8469 445.4255)"><tspan x="0" y="0" class="st38 st39 st41">elementos de</tspan><tspan x="0" y="35.5" class="st38 st39 st41">controle cf</tspan></text>
	<rect x="729.9" y="448.4" class="st37" width="63.7" height="50.2"/>
	<text transform="matrix(1 0 0 1 729.8655 460.9987)"><tspan x="0" y="0" class="st42 st43 st44">Loja </tspan><tspan x="0" y="17.7" class="st42 st43 st44">Blob</tspan></text>
	<rect x="828.4" y="456.4" class="st37" width="63.7" height="50.2"/>
	<text transform="matrix(1 0 0 1 828.387 468.9616)" class="st42 st43 st44">CCDB</text>
	<rect x="920.8" y="439" class="st37" width="90.8" height="43.2"/>
	<text transform="matrix(1 0 0 1 920.7952 451.6237)"><tspan x="0" y="0" class="st42 st43 st44">Controlador </tspan><tspan x="0" y="17.7" class="st42 st43 st44">de nuvem</tspan></text>
	<rect x="1038.9" y="438.5" class="st37" width="78.7" height="57.6"/>
	<text transform="matrix(1 0 0 1 1038.8928 451.0652)"><tspan x="0" y="0" class="st42 st43 st44">Geren</tspan><tspan x="44.9" y="0" class="st42 st43 st44">-</tspan><tspan x="0" y="17.7" class="st42 st43 st44">ciador</tspan><tspan x="0" y="35.4" class="st42 st43 st44">de funcio</tspan><tspan x="69.2" y="35.4" class="st42 st43 st44">-</tspan></text>
	<rect x="1154.8" y="452.5" class="st37" width="77.8" height="18.9"/>
	<text transform="matrix(1 0 0 1 1154.7561 465.1013)" class="st42 st43 st44">Medição</text>
	<rect x="538" y="581.4" class="st37" width="167.8" height="131.7"/>
	<text transform="matrix(1 0 0 1 537.9821 596.3357)"><tspan x="0" y="0" class="st38 st39 st41">Tempos de </tspan><tspan x="0" y="28.8" class="st38 st39 st41">execução do app</tspan><tspan x="0" y="57.6" class="st38 st39 st41">Droplet Execution </tspan><tspan x="0" y="86.4" class="st38 st39 st41">Agent</tspan></text>
	<rect x="1347.3" y="466.7" class="st37" width="17.7" height="200.5"/>
	<text transform="matrix(0 -1 1 0 1359.8508 626.6872)" class="st38 st43 st44">Gateway seguro</text>
	<g>
		<rect x="436.5" y="513.2" class="st37" width="17.7" height="122.7"/>
		<text transform="matrix(0 -1 1 0 449.0969 608.5563)" class="st38 st43 st44">Roteador</text>
	</g>
	<g>
		<rect x="365.1" y="463.7" class="st37" width="17.7" height="221.7"/>
		<text transform="matrix(0 -1 1 0 377.6575 665.4899)" class="st38 st43 st44">IBM DataPower Gateway</text>
	</g>
	<rect x="291.9" y="513.2" class="st37" width="17.7" height="122.7"/>
	<text transform="matrix(0 -1 1 0 304.5325 603.2204)" class="st38 st43 st44">Firewall</text>
	<rect x="1419.1" y="357.6" class="st37" width="121.1" height="47"/>
	<text transform="matrix(0.9779 0 0 1 1430.2659 378.4748)" class="st38 st39 st45">Serviços</text>
	<g>
		<rect x="714.2" y="1302.2" class="st37" width="122.7" height="17.7"/>
		<text transform="matrix(1 0 0 1 748.7366 1314.8152)" class="st38 st43 st44">VLAN 1</text>
	</g>
	<g>
		<rect x="1425.7" y="1302.2" class="st37" width="122.7" height="17.7"/>
		<text transform="matrix(1 0 0 1 1460.2092 1314.8152)" class="st38 st43 st44">VLAN 2</text>
	</g>
	<rect x="481.5" y="57.9" class="st37" width="166.2" height="42.1"/>
	<text transform="matrix(1 0 0 1 483.8645 67.8859)"><tspan x="0" y="0" class="st38 st39 st46">Isolamento do contêiner do </tspan><tspan x="52.4" y="22.2" class="st38 st39 st46">aplicativo</tspan></text>
	<rect x="921.1" y="46.6" class="st37" width="149.2" height="37.9"/>
	<text transform="matrix(1 0 0 1 951.4856 59.2146)"><tspan x="0" y="0" class="st38 st39 st44">Autorização</tspan><tspan x="26.1" y="22.2" class="st38 st39 st44">Auth</tspan></text>
	<rect x="248.2" y="57.9" class="st37" width="171.4" height="67.6"/>
	<text transform="matrix(1 0 0 1 292.9583 67.8859)"><tspan x="0" y="0" class="st38 st39 st46">Proxy reverso,</tspan><tspan x="-28.8" y="22.2" class="st38 st39 st46">proxy de finalização SSL</tspan></text>
	<rect x="83.4" y="221.3" class="st37" width="149.2" height="26.6"/>
	<text transform="matrix(1 0 0 1 146.7942 233.9236)" class="st38 st39 st44">IPS</text>
	<rect x="83.4" y="288.3" class="st37" width="149.2" height="26.6"/>
	<text transform="matrix(1 0 0 1 89.0393 300.8923)" class="st38 st39 st44">Segurança de rede</text>
	<rect x="188.4" y="1092.1" class="st37" width="149.2" height="26.6"/>
	<text transform="matrix(1 0 0 1 227.4592 1104.6472)" class="st38 st39 st44">Dedicado</text>
	<rect x="28.9" y="1092.1" class="st37" width="149.2" height="26.6"/>
	<text transform="matrix(1 0 0 1 75.8664 1104.6472)" class="st38 st39 st44">Público</text>
	<g>
		<circle class="st22" cx="259.7" cy="1477.7" r="9.9"/>
		<circle class="st22" cx="1586.4" cy="1477.7" r="9.9"/>
		<g>
			<rect x="263" y="1505" class="st47" width="1323.5" height="55.4"/>
		</g>
		<line class="st48" x1="259.7" y1="1477.7" x2="1586.4" y2="1477.7"/>
		<rect x="264.7" y="1525.6" class="st37" width="790.8" height="26.6"/>
		<text transform="matrix(1 0 0 1 282.0598 1538.2351)" class="st38 st39 st44">Serviços de segurança operacional (IBM Endpoint Manager, QRadar, Nessus, User Access Management)</text>
	</g>
	<g>
		<rect x="18.4" y="612.1" class="st37" width="214.2" height="34.2"/>
		<text transform="matrix(1 0 0 1 18.3948 624.6608)" class="st38 st43 st44">Fluxo do usuário do app</text>
	</g>
	<rect x="27.2" y="1042.3" class="st37" width="291" height="25.5"/>
	<text transform="matrix(1 0 0 1 27.1819 1054.8796)" class="st38 st43 st44">Fluxo de login do desenvolvedor</text>
	<g>
		<rect x="16.3" y="798.9" class="st37" width="223.3" height="48.8"/>
		<text transform="matrix(1 0 0 1 16.301 811.4987)"><tspan x="0" y="0" class="st38 st43 st44">Fluxo de desenvolvimento</tspan><tspan x="0" y="22.2" class="st38 st43 st44">e implementação</tspan></text>
	</g>
	<g>
		<g>
			<line class="st49" x1="103.5" y1="1126.3" x2="103.5" y2="1134.7"/>
			<line class="st50" x1="103.5" y1="1150.3" x2="103.5" y2="1205.1"/>
			<polyline class="st49" points="103.5,1212.9 103.5,1221.4 112,1221.4 			"/>
			<line class="st51" x1="129" y1="1221.4" x2="1076" y2="1221.4"/>
			<polyline class="st49" points="1084.5,1221.4 1093,1221.4 1093,1212.9 			"/>
			<line class="st52" x1="1093" y1="1195.6" x2="1093" y2="858.8"/>
			<line class="st49" x1="1093" y1="850.1" x2="1093" y2="841.7"/>
		</g>
	</g>
	<g>
		<g>
			<line class="st49" x1="259.7" y1="1130.5" x2="259.7" y2="1139"/>
			<polyline class="st49" points="259.7,1161.9 259.7,1170.4 268.2,1170.4 			"/>
			<line class="st53" x1="285.7" y1="1170.4" x2="697.2" y2="1170.4"/>
			<polyline class="st49" points="706,1170.4 714.4,1170.4 714.4,1161.9 			"/>
			<line class="st54" x1="714.4" y1="1146.7" x2="714.4" y2="1032.7"/>
			<line class="st49" x1="714.4" y1="1025.1" x2="714.4" y2="1016.7"/>
		</g>
	</g>
	<line class="st55" x1="714.4" y1="1016.7" x2="1093" y2="1016.7"/>
	<line class="st55" x1="1093" y1="841.7" x2="714.2" y2="841.7"/>
	<circle class="st30" cx="714.4" cy="1126.3" r="6.1"/>
	<circle class="st30" cx="1092.7" cy="1049.3" r="6.1"/>
	<circle class="st30" cx="1092.7" cy="1126.3" r="6.1"/>
	<circle class="st22" cx="912.9" cy="891.7" r="9.9"/>
	<circle class="st22" cx="906.5" cy="1126.3" r="9.9"/>
	<g>
		<rect x="1256.3" y="1372.2" class="st26" width="181.9" height="78.3"/>
	</g>
	<g>
		<rect x="267.9" y="1395" class="st26" width="152.7" height="55.4"/>
	</g>
	<polyline class="st0" points="331.5,1395 331.5,1328.8 903.7,1126.3 	"/>
	<line class="st0" x1="1347.3" y1="1241.3" x2="1347.3" y2="1372.2"/>
	<polyline class="st0" points="912.9,891.7 331.5,1147.1 331.5,1328.8 	"/>
	<rect x="1272" y="1392.8" class="st37" width="149.2" height="57.6"/>
	<text transform="matrix(1 0 0 1 1284.7141 1401.3591)"><tspan x="0" y="0" class="st38 st39 st56">Reforço de segurança do </tspan><tspan x="12" y="22.2" class="st38 st39 st56">sistema operacional</tspan></text>
	<rect x="269.6" y="1415.7" class="st37" width="149.2" height="26.6"/>
	<text transform="matrix(1 0 0 1 295.2815 1428.3152)" class="st38 st39 st44">Autenticação</text>
	<ellipse class="st18" cx="1347.3" cy="1204.9" rx="48" ry="28.5"/>
	<rect x="1310.3" y="1185.7" class="st37" width="85" height="66"/>
	<text transform="matrix(1 0 0 1 1310.2922 1194.2234)"><tspan x="0" y="0" class="st38 st43 st56">Nó do sistema </tspan><tspan x="0" y="26.5" class="st38 st43 st56">operacional</tspan></text>
	<ellipse class="st18" cx="1222.6" cy="1204.9" rx="48" ry="28.5"/>
	<rect x="1183.4" y="1190" class="st37" width="93.5" height="51.3"/>
	<text transform="matrix(1 0 0 1 1183.4121 1198.5239)"><tspan x="0" y="0" class="st38 st43 st56">Nó do sistema </tspan><tspan x="0" y="26.5" class="st38 st43 st56">operacional</tspan></text>
	<ellipse class="st18" cx="1462.8" cy="1204.9" rx="48" ry="28.5"/>
	<rect x="1429.9" y="1186.7" class="st37" width="93.1" height="45"/>
	<text transform="matrix(1 0 0 1 1429.8567 1195.2234)"><tspan x="0" y="0" class="st38 st43 st56">Nó do sistema </tspan><tspan x="0" y="26.5" class="st38 st43 st56">operacional</tspan></text>
	<circle class="st22" cx="1346.1" cy="1241.3" r="9.9"/>
	<g>
		<path class="st30" d="M38.3,738.4c4.9,0,8.9-4,8.9-8.9c0-4.9-4-8.9-8.9-8.9s-8.9,4-8.9,8.9C29.4,734.4,33.4,738.4,38.3,738.4z
			 M38.3,725.1c2.4,0,4.4,2,4.4,4.4c0,2.4-2,4.4-4.4,4.4s-4.4-2-4.4-4.4C33.8,727.1,35.8,725.1,38.3,725.1z"/>
		<path class="st30" d="M44.9,742.8H31.6c-2.4,0-4.4,2-4.4,4.4V765l4.4,4.4v15.5c0,1.2,1,2.2,2.2,2.2h8.9c1.2,0,2.2-1,2.2-2.2v-15.5
			l4.4-4.4v-17.7C49.3,744.8,47.4,742.8,44.9,742.8z"/>
	</g>
	<g>
		<path class="st24" d="M38.3,543.3c4.9,0,8.9-4,8.9-8.9c0-4.9-4-8.9-8.9-8.9s-8.9,4-8.9,8.9C29.4,539.4,33.4,543.3,38.3,543.3z
			 M38.3,530c2.4,0,4.4,2,4.4,4.4s-2,4.4-4.4,4.4s-4.4-2-4.4-4.4S35.8,530,38.3,530z"/>
		<path class="st24" d="M44.9,547.8H31.6c-2.4,0-4.4,2-4.4,4.4v17.7l4.4,4.4v15.5c0,1.2,1,2.2,2.2,2.2h8.9c1.2,0,2.2-1,2.2-2.2
			v-15.5l4.4-4.4v-17.7C49.3,549.8,47.4,547.8,44.9,547.8z"/>
	</g>
	<line class="st57" x1="7.3" y1="408.1" x2="7.3" y2="461.4"/>
	<g>
		<g>
			<line class="st58" x1="7.3" y1="461.4" x2="15.8" y2="461.4"/>
			<polyline class="st59" points="32.6,461.4 298.6,461.4 371.7,461.4 426.3,461.4 			"/>
			<polyline class="st58" points="434.7,461.4 443.2,461.4 449,455.2 			"/>
			<line class="st60" x1="461.1" y1="442.4" x2="600.1" y2="294.6"/>
			<line class="st58" x1="606.1" y1="288.2" x2="611.9" y2="282"/>
		</g>
	</g>
	<g>
		<rect x="18.4" y="417.4" class="st37" width="259.1" height="39"/>
		<text transform="matrix(1 0 0 1 18.3948 429.9577)" class="st38 st43 st44">Fluxo de administrador dedicado</text>
	</g>
	<g>
		<path class="st25" d="M38.3,348.6c4.9,0,8.9-4,8.9-8.9c0-4.9-4-8.9-8.9-8.9s-8.9,4-8.9,8.9C29.4,344.7,33.4,348.6,38.3,348.6z
			 M38.3,335.3c2.4,0,4.4,2,4.4,4.4c0,2.4-2,4.4-4.4,4.4s-4.4-2-4.4-4.4C33.8,337.3,35.8,335.3,38.3,335.3z"/>
		<path class="st25" d="M44.9,353.1H31.6c-2.4,0-4.4,2-4.4,4.4v17.7l4.4,4.4v15.5c0,1.2,1,2.2,2.2,2.2h8.9c1.2,0,2.2-1,2.2-2.2
			v-15.5l4.4-4.4v-17.7C49.3,355,47.4,353.1,44.9,353.1z"/>
	</g>
	<g>
		<path class="st30" d="M38.3,979.8c4.9,0,8.9-4,8.9-8.9c0-4.9-4-8.9-8.9-8.9s-8.9,4-8.9,8.9C29.4,975.8,33.4,979.8,38.3,979.8z
			 M38.3,966.5c2.4,0,4.4,2,4.4,4.4c0,2.4-2,4.4-4.4,4.4s-4.4-2-4.4-4.4C33.8,968.5,35.8,966.5,38.3,966.5z"/>
		<path class="st30" d="M44.9,984.2H31.6c-2.4,0-4.4,2-4.4,4.4v17.7l4.4,4.4v15.5c0,1.2,1,2.2,2.2,2.2h8.9c1.2,0,2.2-1,2.2-2.2
			v-15.5l4.4-4.4v-17.7C49.3,986.2,47.4,984.2,44.9,984.2z"/>
	</g>
	<g>
		<rect x="904.9" y="984" class="st27" width="365.6" height="65.3"/>
		<rect x="904.9" y="1061" class="st27" width="365.6" height="65.3"/>
		<rect x="527.6" y="984" class="st27" width="365.6" height="142.2"/>
		<rect x="907.7" y="1082.7" class="st37" width="360" height="21.7"/>
		<text transform="matrix(1 0 0 1 927.4329 1103.1853)" class="st38 st39 st40">Serviço IBM Single Sign On</text>
		<rect x="907.7" y="1006.1" class="st37" width="360" height="21.1"/>
		<text transform="matrix(1 0 0 1 986.386 1026.5427)" class="st38 st39 st40">IBM web identity</text>
		<rect x="530.5" y="1044.6" class="st37" width="360" height="21.2"/>
		<text transform="matrix(1 0 0 1 604.7317 1065.0037)" class="st38 st39 st40">LDAP corporativo</text>
	</g>
</g>
<g id="TEXT">
</g>
</svg>
