<svg xmlns="http://www.w3.org/2000/svg" xmlns:xlink="http://www.w3.org/1999/xlink" viewBox="0 0 1630 536"><defs><clipPath id="a" transform="translate(2.35 2)"><rect x="0.65" y="1" width="799" height="530" style="fill:none"/></clipPath><clipPath id="b" transform="translate(2.35 2)"><rect width="1626" height="532" style="fill:none"/></clipPath><clipPath id="c" transform="translate(2.35 2)"><path d="M293.6,50h3V44.31c0-2.2.69-3.11,2.31-3.11,1.41,0,1.91.88,1.91,2.67V50h3V43.32c0-2.69-.8-4.47-4-4.47a3.83,3.83,0,0,0-3.32,1.81h-.06V39.14H293.6Zm-12.77-5.42c0-3.46,2.2-5.73,5.61-5.73s5.63,2.27,5.63,5.73a5.62,5.62,0,1,1-11.23,0Zm3,0c0,1.74.61,3.46,2.63,3.46s2.65-1.72,2.65-3.46-.61-3.49-2.65-3.49S283.81,42.84,283.81,44.58ZM276.23,50h3V39.14h-3Zm3-15h-3v2.46h3Zm-6.78.88h-3v3.26h-1.81v2h1.81v6.4c0,2.18,1.58,2.58,3.42,2.58a11.43,11.43,0,0,0,1.74-.11V47.69a4.2,4.2,0,0,1-.92.08c-1,0-1.26-.25-1.26-1.26V41.14h2.18v-2h-2.18Zm-8.84,9.91V44.69a5.93,5.93,0,0,1-2.48.63c-.92.17-1.76.5-1.76,1.6s.86,1.39,1.83,1.39A2.21,2.21,0,0,0,263.59,45.8Zm-3.91-3.32h-3c.17-2.77,2.67-3.63,5.1-3.63,2.16,0,4.77.48,4.77,3.09v5.65a5.56,5.56,0,0,0,.38,2.42h-3a4.43,4.43,0,0,1-.21-1,5,5,0,0,1-3.65,1.34c-2.08,0-3.7-1-3.7-3.26,0-4.93,7.35-2.29,7.22-4.73,0-1.26-.88-1.47-1.93-1.47S259.79,41.31,259.68,42.48ZM245.38,50h10V47.75h-6L255,41.39V39.14H245.8v2.25H251l-5.65,6.36ZM241,50h3V39.14h-3Zm3-15h-3v2.46h3ZM228.79,50h3V44.31c0-2.2.69-3.11,2.31-3.11,1.41,0,1.91.88,1.91,2.67V50h3V43.32c0-2.69-.8-4.47-4-4.47a3.83,3.83,0,0,0-3.32,1.81h-.06V39.14h-2.84Zm-5.17-4.2V44.69a5.93,5.93,0,0,1-2.48.63c-.92.17-1.76.5-1.76,1.6s.86,1.39,1.83,1.39A2.21,2.21,0,0,0,223.63,45.8Zm-3.91-3.32h-3c.17-2.77,2.67-3.63,5.1-3.63,2.16,0,4.77.48,4.77,3.09v5.65A5.56,5.56,0,0,0,227,50h-3a4.44,4.44,0,0,1-.21-1,5,5,0,0,1-3.65,1.34c-2.08,0-3.7-1-3.7-3.26,0-4.93,7.35-2.29,7.22-4.73,0-1.26-.88-1.47-1.93-1.47S219.82,41.31,219.72,42.48Zm-4.79-3.34V49.31c0,1.79-.65,4.81-5.63,4.81-2.14,0-4.62-1-4.79-3.49h3a2,2,0,0,0,2.23,1.49c1.66,0,2.42-1.11,2.39-2.69V48h0a3.6,3.6,0,0,1-3.26,1.68c-3.28,0-4.64-2.48-4.64-5.46,0-2.81,1.64-5.38,4.66-5.38a3.4,3.4,0,0,1,3.23,1.74h0V39.14Zm-5.38,8.29c1.7,0,2.54-1.45,2.54-3,0-1.76-.61-3.34-2.54-3.34-1.68,0-2.41,1.47-2.41,3.09S207.71,47.44,209.55,47.44ZM196.91,50h3V45.11c0-1.93.74-3.49,2.94-3.49a5.44,5.44,0,0,1,1.07.11V39a2.22,2.22,0,0,0-.65-.11,3.82,3.82,0,0,0-3.47,2.31h0v-2h-2.84Zm-16.3-7.43c0-4.45,2.75-7.92,7.37-7.92s7.37,3.47,7.37,7.92-2.75,7.79-7.37,7.79S180.62,46.89,180.62,42.57Zm3.3,0c0,2.5,1.11,5,4.07,5s4.07-2.52,4.07-5-1.11-5.15-4.07-5.15S183.91,39.94,183.91,42.57ZM171,50h3V35h-3Zm-5.08,0h3V39.14h-3Zm3-15h-3v2.46h3Zm-8,10.79V44.69a5.93,5.93,0,0,1-2.48.63c-.92.17-1.76.5-1.76,1.6s.86,1.39,1.83,1.39A2.21,2.21,0,0,0,160.88,45.8ZM157,42.48h-3c.17-2.77,2.67-3.63,5.1-3.63,2.16,0,4.77.48,4.77,3.09v5.65a5.56,5.56,0,0,0,.38,2.42h-3a4.44,4.44,0,0,1-.21-1,5,5,0,0,1-3.65,1.34c-2.08,0-3.7-1-3.7-3.26,0-4.93,7.35-2.29,7.22-4.73,0-1.26-.88-1.47-1.93-1.47S157.08,41.31,157,42.48Zm-6.47-6.59h-3v3.26h-1.81v2h1.81v6.4c0,2.18,1.57,2.58,3.42,2.58a11.43,11.43,0,0,0,1.74-.11V47.69a4.2,4.2,0,0,1-.92.08c-1,0-1.26-.25-1.26-1.26V41.14h2.18v-2H150.5Zm-5.12,9.41h-7.83c.08,1.91,1,2.75,2.67,2.75a2.45,2.45,0,0,0,2.35-1.41h2.63a4.86,4.86,0,0,1-5.08,3.65c-3.42,0-5.54-2.35-5.54-5.71a5.44,5.44,0,0,1,5.54-5.73C143.8,38.85,145.61,42,145.38,45.3Zm-7.83-1.89h4.85c-.27-1.51-.92-2.31-2.37-2.31A2.34,2.34,0,0,0,137.55,43.41ZM121.1,50V35h8.09a4.12,4.12,0,0,1,4.39,4.14,3.66,3.66,0,0,1-2.37,3.76v0c1.62.44,2.08,2,2.18,3.51.06.95,0,2.73.63,3.55h-3.3a18,18,0,0,1-.52-3.59c-.23-1.57-.84-2.27-2.5-2.27h-3.3V50Zm3.3-12.43v4.22H128c1.49,0,2.27-.63,2.27-2.14s-.78-2.08-2.27-2.08Zm-16.8,8h6.32V43H107.6ZM87.1,50l5.69-15h3.38l5.61,15H98.36l-1.13-3.34H91.62L90.44,50Zm7.33-11.3-2,5.5h3.88l-1.89-5.5ZM71.67,50h3V46.26l1.15-1.11,3,4.85H82.4l-4.56-6.87,4.1-4H78.41L74.65,43V35h-3Zm-12.2,0h3V44.31c0-2.2.69-3.11,2.31-3.11,1.41,0,1.91.88,1.91,2.67V50h3V43.32c0-2.69-.8-4.47-4-4.47a3.83,3.83,0,0,0-3.32,1.81H62.3V39.14H59.47ZM54.3,45.8V44.69a5.93,5.93,0,0,1-2.48.63c-.92.17-1.76.5-1.76,1.6s.86,1.39,1.83,1.39A2.21,2.21,0,0,0,54.3,45.8ZM50.4,42.48h-3c.17-2.77,2.67-3.63,5.1-3.63,2.16,0,4.77.48,4.77,3.09v5.65A5.56,5.56,0,0,0,57.66,50h-3a4.44,4.44,0,0,1-.21-1,5,5,0,0,1-3.65,1.34c-2.08,0-3.7-1-3.7-3.26,0-4.93,7.35-2.29,7.22-4.73,0-1.26-.88-1.47-1.93-1.47S50.5,41.31,50.4,42.48Zm-13.86.84v4.12h3.53c1.28,0,2.44-.42,2.44-2s-.94-2.14-2.37-2.14ZM33.24,50V35h7.06c2.86,0,4.79.92,4.79,3.72a3.26,3.26,0,0,1-2,3.13,3.64,3.64,0,0,1,2.75,3.8c0,3-2.58,4.35-5.29,4.35Zm3.3-12.43v3.51h3.34c1.18,0,2-.53,2-1.79s-1.09-1.72-2.27-1.72Z" style="fill:none;clip-rule:evenodd"/></clipPath><clipPath id="e" transform="translate(2.35 2)"><rect x="32" y="76.58" width="360" height="420" style="fill:none"/></clipPath><clipPath id="h" transform="translate(2.35 2)"><rect x="406" y="76.58" width="360" height="420" style="fill:none"/></clipPath><clipPath id="k" transform="translate(2.35 2)"><polygon points="100 148 137 168 137 208 100 228 63 208 63 168 100 148" style="fill:none;clip-rule:evenodd"/></clipPath><clipPath id="m" transform="translate(2.35 2)"><polygon points="100 228 137 248 137 288 100 308 63 288 63 248 100 228" style="fill:none;clip-rule:evenodd"/></clipPath><clipPath id="o" transform="translate(2.35 2)"><polygon points="100 308 137 328 137 368 100 388 63 368 63 328 100 308" style="fill:none;clip-rule:evenodd"/></clipPath><clipPath id="q" transform="translate(2.35 2)"><polygon points="100 388 137 408 137 448 100 468 63 448 63 408 100 388" style="fill:none;clip-rule:evenodd"/></clipPath><clipPath id="s" transform="translate(2.35 2)"><path d="M100.5,194.5a6,6,0,1,1,6-6A6,6,0,0,1,100.5,194.5Zm0,3a9,9,0,1,0-9-9A9,9,0,0,0,100.5,197.5Zm-29-38h58v58h-58Z" style="fill:none;clip-rule:evenodd"/></clipPath><clipPath id="t" transform="translate(2.35 2)"><circle cx="100.5" cy="188.5" r="7.5" style="fill:none"/></clipPath><clipPath id="y" transform="translate(2.35 2)"><path d="M100.5,274.5a6,6,0,1,1,6-6A6,6,0,0,1,100.5,274.5Zm0,3a9,9,0,1,0-9-9A9,9,0,0,0,100.5,277.5Zm-29-38h58v58h-58Z" style="fill:none;clip-rule:evenodd"/></clipPath><clipPath id="z" transform="translate(2.35 2)"><circle cx="100.5" cy="268.5" r="7.5" style="fill:none"/></clipPath><clipPath id="ad" transform="translate(2.35 2)"><path d="M100.5,354.5a6,6,0,1,1,6-6A6,6,0,0,1,100.5,354.5Zm0,3a9,9,0,1,0-9-9A9,9,0,0,0,100.5,357.5Zm-29-38h58v58h-58Z" style="fill:none;clip-rule:evenodd"/></clipPath><clipPath id="ae" transform="translate(2.35 2)"><circle cx="100.5" cy="348.5" r="7.5" style="fill:none"/></clipPath><clipPath id="ai" transform="translate(2.35 2)"><path d="M100.5,434.5a6,6,0,1,1,6-6A6,6,0,0,1,100.5,434.5Zm0,3a9,9,0,1,0-9-9A9,9,0,0,0,100.5,437.5Zm-29-38h58v58h-58Z" style="fill:none;clip-rule:evenodd"/></clipPath><clipPath id="aj" transform="translate(2.35 2)"><circle cx="100.5" cy="428.5" r="7.5" style="fill:none"/></clipPath><clipPath id="ao" transform="translate(2.35 2)"><polygon points="480 148 517 168 517 208 480 228 443 208 443 168 480 148" style="fill:none;clip-rule:evenodd"/></clipPath><clipPath id="aq" transform="translate(2.35 2)"><polygon points="480 228 517 248 517 288 480 308 443 288 443 248 480 228" style="fill:none;clip-rule:evenodd"/></clipPath><clipPath id="as" transform="translate(2.35 2)"><polygon points="480 308 517 328 517 368 480 388 443 368 443 328 480 308" style="fill:none;clip-rule:evenodd"/></clipPath><clipPath id="au" transform="translate(2.35 2)"><polygon points="480 388 517 408 517 448 480 468 443 448 443 408 480 388" style="fill:none;clip-rule:evenodd"/></clipPath><clipPath id="aw" transform="translate(2.35 2)"><path d="M480.5,194.5a6,6,0,1,1,6-6A6,6,0,0,1,480.5,194.5Zm0,3a9,9,0,1,0-9-9A9,9,0,0,0,480.5,197.5Zm-29-38h58v58h-58Z" style="fill:none;clip-rule:evenodd"/></clipPath><clipPath id="ax" transform="translate(2.35 2)"><circle cx="480.5" cy="188.5" r="7.5" style="fill:none"/></clipPath><clipPath id="bc" transform="translate(2.35 2)"><path d="M480.5,274.5a6,6,0,1,1,6-6A6,6,0,0,1,480.5,274.5Zm0,3a9,9,0,1,0-9-9A9,9,0,0,0,480.5,277.5Zm-29-38h58v58h-58Z" style="fill:none;clip-rule:evenodd"/></clipPath><clipPath id="bd" transform="translate(2.35 2)"><circle cx="480.5" cy="268.5" r="7.5" style="fill:none"/></clipPath><clipPath id="bh" transform="translate(2.35 2)"><path d="M480.5,354.5a6,6,0,1,1,6-6A6,6,0,0,1,480.5,354.5Zm0,3a9,9,0,1,0-9-9A9,9,0,0,0,480.5,357.5Zm-29-38h58v58h-58Z" style="fill:none;clip-rule:evenodd"/></clipPath><clipPath id="bi" transform="translate(2.35 2)"><circle cx="480.5" cy="348.5" r="7.5" style="fill:none"/></clipPath><clipPath id="bm" transform="translate(2.35 2)"><path d="M480.5,434.5a6,6,0,1,1,6-6A6,6,0,0,1,480.5,434.5Zm0,3a9,9,0,1,0-9-9A9,9,0,0,0,480.5,437.5Zm-29-38h58v58h-58Z" style="fill:none;clip-rule:evenodd"/></clipPath><clipPath id="bn" transform="translate(2.35 2)"><circle cx="480.5" cy="428.5" r="7.5" style="fill:none"/></clipPath><clipPath id="bs" transform="translate(2.35 2)"><rect x="825.65" y="1" width="799" height="530" style="fill:none"/></clipPath><clipPath id="bv" transform="translate(2.35 2)"><rect x="857" y="76.58" width="360" height="420" style="fill:none"/></clipPath><clipPath id="by" transform="translate(2.35 2)"><rect x="1231" y="76.58" width="360" height="420" style="fill:none"/></clipPath><clipPath id="cb" transform="translate(2.35 2)"><polygon points="925 148 962 168 962 208 925 228 888 208 888 168 925 148" style="fill:none;clip-rule:evenodd"/></clipPath><clipPath id="cd" transform="translate(2.35 2)"><polygon points="925 228 962 248 962 288 925 308 888 288 888 248 925 228" style="fill:none;clip-rule:evenodd"/></clipPath><clipPath id="cf" transform="translate(2.35 2)"><polygon points="925 308 962 328 962 368 925 388 888 368 888 328 925 308" style="fill:none;clip-rule:evenodd"/></clipPath><clipPath id="ch" transform="translate(2.35 2)"><polygon points="925 388 962 408 962 448 925 468 888 448 888 408 925 388" style="fill:none;clip-rule:evenodd"/></clipPath><clipPath id="cj" transform="translate(2.35 2)"><path d="M925.5,194.5a6,6,0,1,1,6-6A6,6,0,0,1,925.5,194.5Zm0,3a9,9,0,1,0-9-9A9,9,0,0,0,925.5,197.5Zm-29-38h58v58h-58Z" style="fill:none;clip-rule:evenodd"/></clipPath><clipPath id="ck" transform="translate(2.35 2)"><circle cx="925.5" cy="188.5" r="7.5" style="fill:none"/></clipPath><clipPath id="cp" transform="translate(2.35 2)"><path d="M925.5,274.5a6,6,0,1,1,6-6A6,6,0,0,1,925.5,274.5Zm0,3a9,9,0,1,0-9-9A9,9,0,0,0,925.5,277.5Zm-29-38h58v58h-58Z" style="fill:none;clip-rule:evenodd"/></clipPath><clipPath id="cq" transform="translate(2.35 2)"><circle cx="925.5" cy="268.5" r="7.5" style="fill:none"/></clipPath><clipPath id="cu" transform="translate(2.35 2)"><path d="M925.5,354.5a6,6,0,1,1,6-6A6,6,0,0,1,925.5,354.5Zm0,3a9,9,0,1,0-9-9A9,9,0,0,0,925.5,357.5Zm-29-38h58v58h-58Z" style="fill:none;clip-rule:evenodd"/></clipPath><clipPath id="cv" transform="translate(2.35 2)"><circle cx="925.5" cy="348.5" r="7.5" style="fill:none"/></clipPath><clipPath id="cz" transform="translate(2.35 2)"><path d="M925.5,434.5a6,6,0,1,1,6-6A6,6,0,0,1,925.5,434.5Zm0,3a9,9,0,1,0-9-9A9,9,0,0,0,925.5,437.5Zm-29-38h58v58h-58Z" style="fill:none;clip-rule:evenodd"/></clipPath><clipPath id="da" transform="translate(2.35 2)"><circle cx="925.5" cy="428.5" r="7.5" style="fill:none"/></clipPath><clipPath id="df" transform="translate(2.35 2)"><polygon points="1305 148 1342 168 1342 208 1305 228 1268 208 1268 168 1305 148" style="fill:none;clip-rule:evenodd"/></clipPath><clipPath id="dh" transform="translate(2.35 2)"><polygon points="1305 228 1342 248 1342 288 1305 308 1268 288 1268 248 1305 228" style="fill:none;clip-rule:evenodd"/></clipPath><clipPath id="dj" transform="translate(2.35 2)"><polygon points="1305 308 1342 328 1342 368 1305 388 1268 368 1268 328 1305 308" style="fill:none;clip-rule:evenodd"/></clipPath><clipPath id="dl" transform="translate(2.35 2)"><polygon points="1305 388 1342 408 1342 448 1305 468 1268 448 1268 408 1305 388" style="fill:none;clip-rule:evenodd"/></clipPath><clipPath id="dn" transform="translate(2.35 2)"><path d="M1305.5,194.5a6,6,0,1,1,6-6A6,6,0,0,1,1305.5,194.5Zm0,3a9,9,0,1,0-9-9A9,9,0,0,0,1305.5,197.5Zm-29-38h58v58h-58Z" style="fill:none;clip-rule:evenodd"/></clipPath><clipPath id="do" transform="translate(2.35 2)"><circle cx="1305.5" cy="188.5" r="7.5" style="fill:none"/></clipPath><clipPath id="dt" transform="translate(2.35 2)"><path d="M1305.5,274.5a6,6,0,1,1,6-6A6,6,0,0,1,1305.5,274.5Zm0,3a9,9,0,1,0-9-9A9,9,0,0,0,1305.5,277.5Zm-29-38h58v58h-58Z" style="fill:none;clip-rule:evenodd"/></clipPath><clipPath id="du" transform="translate(2.35 2)"><circle cx="1305.5" cy="268.5" r="7.5" style="fill:none"/></clipPath><clipPath id="dy" transform="translate(2.35 2)"><path d="M1305.5,354.5a6,6,0,1,1,6-6A6,6,0,0,1,1305.5,354.5Zm0,3a9,9,0,1,0-9-9A9,9,0,0,0,1305.5,357.5Zm-29-38h58v58h-58Z" style="fill:none;clip-rule:evenodd"/></clipPath><clipPath id="dz" transform="translate(2.35 2)"><circle cx="1305.5" cy="348.5" r="7.5" style="fill:none"/></clipPath><clipPath id="ed" transform="translate(2.35 2)"><path d="M1305.5,434.5a6,6,0,1,1,6-6A6,6,0,0,1,1305.5,434.5Zm0,3a9,9,0,1,0-9-9A9,9,0,0,0,1305.5,437.5Zm-29-38h58v58h-58Z" style="fill:none;clip-rule:evenodd"/></clipPath><clipPath id="ee" transform="translate(2.35 2)"><circle cx="1305.5" cy="428.5" r="7.5" style="fill:none"/></clipPath></defs><title>documentation-bank-orgs-V01-ML</title><g style="clip-path:url(#a)"><g style="clip-path:url(#b)"><rect x="3" y="3" width="799" height="530" style="fill:none;stroke:#dfe3e6;stroke-miterlimit:10;stroke-width:6px;stroke-dasharray:10,10"/></g></g><g style="clip-path:url(#c)"><g style="clip-path:url(#b)"><rect x="30.59" y="31.65" width="280.54" height="29.47" style="fill:#5a6872"/></g></g><g style="clip-path:url(#e)"><g style="clip-path:url(#b)"><rect x="34.35" y="78.58" width="360" height="420" style="fill:none;stroke:#8c9ba5;stroke-miterlimit:10;stroke-width:4px"/></g></g><g style="clip-path:url(#b)"><path d="M64.24,107h8.08a4.12,4.12,0,0,1,4.39,4.14,3.66,3.66,0,0,1-2.37,3.76v0c1.62.44,2.08,2,2.18,3.51.06.95,0,2.73.63,3.55h-3.3a17.91,17.91,0,0,1-.53-3.59c-.23-1.58-.84-2.27-2.5-2.27h-3.3V122h-3.3Zm3.3,6.78h3.61c1.49,0,2.27-.63,2.27-2.14s-.78-2.08-2.27-2.08H67.54Z" transform="translate(2.35 2)" style="fill:#6d7b85"/><path d="M80.68,117.3c.08,1.91,1,2.75,2.67,2.75a2.45,2.45,0,0,0,2.35-1.41h2.63a4.86,4.86,0,0,1-5.08,3.65c-3.42,0-5.54-2.35-5.54-5.71a5.44,5.44,0,0,1,5.54-5.73c3.7,0,5.5,3.11,5.27,6.45Zm4.85-1.89c-.27-1.51-.92-2.31-2.37-2.31a2.33,2.33,0,0,0-2.48,2.31Z" transform="translate(2.35 2)" style="fill:#6d7b85"/><path d="M93.66,111.14h2.18v2H93.66v5.38c0,1,.25,1.26,1.26,1.26a4.16,4.16,0,0,0,.92-.08V122a11.43,11.43,0,0,1-1.74.1c-1.85,0-3.42-.4-3.42-2.58v-6.4H88.87v-2h1.81v-3.25h3Z" transform="translate(2.35 2)" style="fill:#6d7b85"/><path d="M97.17,114.48c.17-2.77,2.67-3.63,5.1-3.63,2.16,0,4.77.48,4.77,3.09v5.65a5.57,5.57,0,0,0,.38,2.41h-3a4.44,4.44,0,0,1-.21-1,5,5,0,0,1-3.65,1.34c-2.08,0-3.7-1-3.7-3.25,0-4.93,7.35-2.29,7.22-4.72,0-1.26-.88-1.47-1.93-1.47s-1.87.46-2,1.64Zm6.89,2.2a5.92,5.92,0,0,1-2.48.63c-.92.17-1.76.5-1.76,1.6s.86,1.38,1.83,1.38a2.21,2.21,0,0,0,2.41-2.5Z" transform="translate(2.35 2)" style="fill:#6d7b85"/><path d="M112.08,109.46h-3V107h3Zm-3,1.68h3V122h-3Z" transform="translate(2.35 2)" style="fill:#6d7b85"/><path d="M114.18,107h3v15h-3Z" transform="translate(2.35 2)" style="fill:#6d7b85"/><path d="M124.44,107h6.76c3.76,0,5.19,2.37,5.19,4.81s-1.43,4.81-5.19,4.81h-3.46V122h-3.3Zm3.3,7.05h2.56c1.51,0,2.9-.34,2.9-2.25s-1.38-2.25-2.9-2.25h-2.56Z" transform="translate(2.35 2)" style="fill:#6d7b85"/><path d="M137.55,111.14h2.83v2h0a3.82,3.82,0,0,1,3.46-2.31,2.21,2.21,0,0,1,.65.1v2.77a5.4,5.4,0,0,0-1.07-.1c-2.2,0-2.94,1.55-2.94,3.48V122h-3Z" transform="translate(2.35 2)" style="fill:#6d7b85"/><path d="M150.42,110.85c3.42,0,5.63,2.27,5.63,5.73a5.62,5.62,0,1,1-11.23,0C144.81,113.12,147,110.85,150.42,110.85Zm0,9.2c2,0,2.65-1.72,2.65-3.46s-.61-3.49-2.65-3.49-2.62,1.74-2.62,3.49S148.4,120,150.42,120Z" transform="translate(2.35 2)" style="fill:#6d7b85"/><path d="M156,123.28a1.9,1.9,0,0,0,.65.08c.61,0,1.16-.15,1.16-1V111.14h3v11.4c0,2.23-.82,3.28-3.82,3.28a5,5,0,0,1-1-.08Zm4.79-13.82h-3V107h3Z" transform="translate(2.35 2)" style="fill:#6d7b85"/><path d="M165.37,117.3c.08,1.91,1,2.75,2.67,2.75a2.46,2.46,0,0,0,2.35-1.41H173a4.86,4.86,0,0,1-5.08,3.65c-3.42,0-5.54-2.35-5.54-5.71a5.44,5.44,0,0,1,5.54-5.73c3.7,0,5.5,3.11,5.27,6.45Zm4.85-1.89c-.27-1.51-.92-2.31-2.37-2.31a2.34,2.34,0,0,0-2.48,2.31Z" transform="translate(2.35 2)" style="fill:#6d7b85"/><path d="M182.15,115a2,2,0,0,0-2.21-1.87c-1.91,0-2.54,1.93-2.54,3.53S178,120,179.88,120a2.27,2.27,0,0,0,2.37-2.2h2.88a4.85,4.85,0,0,1-5.23,4.45,5.27,5.27,0,0,1-5.48-5.56c0-3.38,2-5.88,5.54-5.88,2.56,0,4.93,1.34,5.1,4.12Z" transform="translate(2.35 2)" style="fill:#6d7b85"/><path d="M190.55,111.14h2.18v2h-2.18v5.38c0,1,.25,1.26,1.26,1.26a4.17,4.17,0,0,0,.92-.08V122a11.43,11.43,0,0,1-1.74.1c-1.85,0-3.42-.4-3.42-2.58v-6.4h-1.81v-2h1.81v-3.25h3Z" transform="translate(2.35 2)" style="fill:#6d7b85"/><path d="M203.86,107h3.38l5.61,15h-3.42l-1.13-3.34h-5.61L201.51,122h-3.34Zm-.32,9.2h3.88l-1.89-5.5h0Z" transform="translate(2.35 2)" style="fill:#6d7b85"/></g><g style="clip-path:url(#h)"><g style="clip-path:url(#b)"><rect x="408.35" y="78.58" width="360" height="420" style="fill:none;stroke:#8c9ba5;stroke-miterlimit:10;stroke-width:4px"/></g></g><g style="clip-path:url(#b)"><path d="M438.24,107h8.08a4.12,4.12,0,0,1,4.39,4.14,3.66,3.66,0,0,1-2.37,3.76v0c1.62.44,2.08,2,2.18,3.51.06.95,0,2.73.63,3.55h-3.3a17.91,17.91,0,0,1-.53-3.59c-.23-1.58-.84-2.27-2.5-2.27h-3.3V122h-3.3Zm3.3,6.78h3.61c1.49,0,2.27-.63,2.27-2.14s-.78-2.08-2.27-2.08h-3.61Z" transform="translate(2.35 2)" style="fill:#6d7b85"/><path d="M454.68,117.3c.08,1.91,1,2.75,2.67,2.75a2.45,2.45,0,0,0,2.35-1.41h2.63a4.86,4.86,0,0,1-5.08,3.65c-3.42,0-5.54-2.35-5.54-5.71a5.44,5.44,0,0,1,5.54-5.73c3.7,0,5.5,3.11,5.27,6.45Zm4.85-1.89c-.27-1.51-.92-2.31-2.37-2.31a2.33,2.33,0,0,0-2.48,2.31Z" transform="translate(2.35 2)" style="fill:#6d7b85"/><path d="M467.66,111.14h2.18v2h-2.18v5.38c0,1,.25,1.26,1.26,1.26a4.16,4.16,0,0,0,.92-.08V122a11.43,11.43,0,0,1-1.74.1c-1.85,0-3.42-.4-3.42-2.58v-6.4h-1.81v-2h1.81v-3.25h3Z" transform="translate(2.35 2)" style="fill:#6d7b85"/><path d="M471.17,114.48c.17-2.77,2.67-3.63,5.1-3.63,2.16,0,4.77.48,4.77,3.09v5.65a5.57,5.57,0,0,0,.38,2.41h-3a4.44,4.44,0,0,1-.21-1,5,5,0,0,1-3.65,1.34c-2.08,0-3.7-1-3.7-3.25,0-4.93,7.35-2.29,7.22-4.72,0-1.26-.88-1.47-1.93-1.47s-1.87.46-2,1.64Zm6.89,2.2a5.92,5.92,0,0,1-2.48.63c-.92.17-1.76.5-1.76,1.6s.86,1.38,1.83,1.38a2.21,2.21,0,0,0,2.41-2.5Z" transform="translate(2.35 2)" style="fill:#6d7b85"/><path d="M486.08,109.46h-3V107h3Zm-3,1.68h3V122h-3Z" transform="translate(2.35 2)" style="fill:#6d7b85"/><path d="M488.18,107h3v15h-3Z" transform="translate(2.35 2)" style="fill:#6d7b85"/><path d="M498.44,107h6.76c3.76,0,5.19,2.37,5.19,4.81s-1.43,4.81-5.19,4.81h-3.46V122h-3.3Zm3.3,7.05h2.56c1.51,0,2.9-.34,2.9-2.25s-1.38-2.25-2.9-2.25h-2.56Z" transform="translate(2.35 2)" style="fill:#6d7b85"/><path d="M511.55,111.14h2.83v2h0a3.82,3.82,0,0,1,3.46-2.31,2.21,2.21,0,0,1,.65.1v2.77a5.4,5.4,0,0,0-1.07-.1c-2.2,0-2.94,1.55-2.94,3.48V122h-3Z" transform="translate(2.35 2)" style="fill:#6d7b85"/><path d="M524.42,110.85c3.42,0,5.63,2.27,5.63,5.73a5.62,5.62,0,1,1-11.23,0C518.81,113.12,521,110.85,524.42,110.85Zm0,9.2c2,0,2.65-1.72,2.65-3.46s-.61-3.49-2.65-3.49-2.62,1.74-2.62,3.49S522.4,120,524.42,120Z" transform="translate(2.35 2)" style="fill:#6d7b85"/><path d="M530,123.28a1.9,1.9,0,0,0,.65.08c.61,0,1.16-.15,1.16-1V111.14h3v11.4c0,2.23-.82,3.28-3.82,3.28a5,5,0,0,1-1-.08Zm4.79-13.82h-3V107h3Z" transform="translate(2.35 2)" style="fill:#6d7b85"/><path d="M539.37,117.3c.08,1.91,1,2.75,2.67,2.75a2.46,2.46,0,0,0,2.35-1.41H547a4.86,4.86,0,0,1-5.08,3.65c-3.42,0-5.54-2.35-5.54-5.71a5.44,5.44,0,0,1,5.54-5.73c3.7,0,5.5,3.11,5.27,6.45Zm4.85-1.89c-.27-1.51-.92-2.31-2.37-2.31a2.34,2.34,0,0,0-2.48,2.31Z" transform="translate(2.35 2)" style="fill:#6d7b85"/><path d="M556.15,115a2,2,0,0,0-2.21-1.87c-1.91,0-2.54,1.93-2.54,3.53S552,120,553.88,120a2.27,2.27,0,0,0,2.37-2.2h2.88a4.85,4.85,0,0,1-5.23,4.45,5.27,5.27,0,0,1-5.48-5.56c0-3.38,2-5.88,5.54-5.88,2.56,0,4.93,1.34,5.1,4.12Z" transform="translate(2.35 2)" style="fill:#6d7b85"/><path d="M564.55,111.14h2.18v2h-2.18v5.38c0,1,.25,1.26,1.26,1.26a4.17,4.17,0,0,0,.92-.08V122a11.43,11.43,0,0,1-1.74.1c-1.85,0-3.42-.4-3.42-2.58v-6.4h-1.81v-2h1.81v-3.25h3Z" transform="translate(2.35 2)" style="fill:#6d7b85"/><path d="M573.54,107h7.05c2.86,0,4.79.92,4.79,3.72a3.26,3.26,0,0,1-2,3.13,3.64,3.64,0,0,1,2.75,3.8c0,3-2.58,4.35-5.29,4.35h-7.26Zm3.3,6.07h3.34c1.18,0,2-.52,2-1.78s-1.09-1.72-2.27-1.72h-3.09Zm0,6.36h3.53c1.28,0,2.44-.42,2.44-2s-.95-2.14-2.37-2.14h-3.59Z" transform="translate(2.35 2)" style="fill:#6d7b85"/></g><g style="clip-path:url(#k)"><g style="clip-path:url(#b)"><rect x="60.35" y="145" width="84" height="90" style="fill:#7cc7ff"/></g></g><g style="clip-path:url(#m)"><g style="clip-path:url(#b)"><rect x="60.35" y="225" width="84" height="90" style="fill:#5aaafa"/></g></g><g style="clip-path:url(#o)"><g style="clip-path:url(#b)"><rect x="60.35" y="305" width="84" height="90" style="fill:#5596e6"/></g></g><g style="clip-path:url(#q)"><g style="clip-path:url(#b)"><rect x="60.35" y="385" width="84" height="90" style="fill:#3d70b2"/></g></g><g style="clip-path:url(#s)"><g style="clip-path:url(#t)"><g style="clip-path:url(#b)"><circle cx="102.85" cy="190.5" r="7.5" style="fill:#fff"/></g></g></g><g style="clip-path:url(#t)"><g style="clip-path:url(#b)"><circle cx="102.85" cy="190.5" r="7.5" style="fill:none;stroke:#0f212e;stroke-miterlimit:10;stroke-width:6px"/></g></g><g style="clip-path:url(#b)"><line x1="102.35" y1="197" x2="102.35" y2="429.95" style="fill:none;stroke:#0f212e;stroke-linecap:square;stroke-miterlimit:10;stroke-width:3px"/></g><g style="clip-path:url(#y)"><g style="clip-path:url(#z)"><g style="clip-path:url(#b)"><circle cx="102.85" cy="270.5" r="7.5" style="fill:#fff"/></g></g></g><g style="clip-path:url(#z)"><g style="clip-path:url(#b)"><circle cx="102.85" cy="270.5" r="7.5" style="fill:none;stroke:#0f212e;stroke-miterlimit:10;stroke-width:6px"/></g></g><g style="clip-path:url(#ad)"><g style="clip-path:url(#ae)"><g style="clip-path:url(#b)"><circle cx="102.85" cy="350.5" r="7.5" style="fill:#fff"/></g></g></g><g style="clip-path:url(#ae)"><g style="clip-path:url(#b)"><circle cx="102.85" cy="350.5" r="7.5" style="fill:none;stroke:#0f212e;stroke-miterlimit:10;stroke-width:6px"/></g></g><g style="clip-path:url(#ai)"><g style="clip-path:url(#aj)"><g style="clip-path:url(#b)"><circle cx="102.85" cy="430.5" r="7.5" style="fill:#fff"/></g></g></g><g style="clip-path:url(#aj)"><g style="clip-path:url(#b)"><circle cx="102.85" cy="430.5" r="7.5" style="fill:none;stroke:#0f212e;stroke-miterlimit:10;stroke-width:6px"/></g></g><g style="clip-path:url(#b)"><path d="M165.43,178H172c3,0,4.6,1.64,4.6,4.43s-1.6,4.45-4.6,4.43h-4.58V193h-2Zm2,7.18h3.91c2.27,0,3.28-1,3.28-2.75s-1-2.75-3.28-2.75h-3.91Z" transform="translate(2.35 2)" style="fill:#6d7b85"/><path d="M178.38,182.14h1.68v2.29h0a3.92,3.92,0,0,1,4-2.54v1.89c-2.88,0-3.93,1.62-3.93,4.39V193h-1.79Z" transform="translate(2.35 2)" style="fill:#6d7b85"/><path d="M189.68,181.89c3.44,0,5.27,2.5,5.27,5.69s-1.83,5.67-5.27,5.67-5.27-2.5-5.27-5.67S186.24,181.89,189.68,181.89Zm0,9.79c1.87,0,3.38-1.47,3.38-4.09s-1.51-4.12-3.38-4.12-3.38,1.49-3.38,4.12S187.81,191.68,189.68,191.68Z" transform="translate(2.35 2)" style="fill:#6d7b85"/><path d="M206.63,193h-1.78v-1.47h0a3.63,3.63,0,0,1-3.46,1.72c-3.34,0-5-2.65-5-5.71s1.64-5.65,5-5.65a4.16,4.16,0,0,1,3.51,1.7h0V178h1.78Zm-5-1.32c2.42,0,3.32-2.08,3.32-4.09s-1-4.12-3.42-4.12-3.25,2.08-3.25,4.2S199.28,191.68,201.59,191.68Z" transform="translate(2.35 2)" style="fill:#6d7b85"/><path d="M207.68,194.57h10.5v1.05h-10.5Z" transform="translate(2.35 2)" style="fill:#6d7b85"/><path d="M223.85,178h2.21l5.86,15h-2.2l-1.64-4.51h-6.34L220,193H218Zm-1.49,8.8h5.08l-2.5-7h0Z" transform="translate(2.35 2)" style="fill:#6d7b85"/><path d="M233.32,182.14h1.78v1.47h0a3.63,3.63,0,0,1,3.46-1.72c3.34,0,5,2.65,5,5.71s-1.64,5.65-5,5.65a4.16,4.16,0,0,1-3.51-1.7h0v5.61h-1.78Zm5,1.32c-2.42,0-3.32,2.08-3.32,4.09s1,4.12,3.42,4.12,3.25-2.08,3.25-4.2S240.67,183.47,238.36,183.47Z" transform="translate(2.35 2)" style="fill:#6d7b85"/><path d="M245.39,182.14h1.79v1.47h0a3.63,3.63,0,0,1,3.46-1.72c3.34,0,5,2.65,5,5.71s-1.64,5.65-5,5.65a4.16,4.16,0,0,1-3.51-1.7h0v5.61h-1.79Zm5,1.32c-2.41,0-3.32,2.08-3.32,4.09s1,4.12,3.42,4.12,3.25-2.08,3.25-4.2S252.74,183.47,250.43,183.47Z" transform="translate(2.35 2)" style="fill:#6d7b85"/><path d="M262.09,178h2.2l5.86,15h-2.2l-1.64-4.51H260L258.29,193h-2.06Zm-1.49,8.8h5.08l-2.5-7h0Z" transform="translate(2.35 2)" style="fill:#6d7b85"/><path d="M269.94,194.57h10.5v1.05h-10.5Z" transform="translate(2.35 2)" style="fill:#6d7b85"/><path d="M287.92,193h-2.27l-5.29-15h2.16l4.28,13h0l4.33-13h2.08Z" transform="translate(2.35 2)" style="fill:#6d7b85"/><path d="M299.85,193h-1.78V182.33H294.2v-1.43c2,0,3.88-.53,4.28-2.79h1.36Z" transform="translate(2.35 2)" style="fill:#6d7b85"/><path d="M174.12,262.4c-.23-2.16-1.64-3.06-3.72-3.06-1.7,0-3.36.61-3.36,2.56,0,3.7,9.59,1.09,9.59,7,0,3.19-3.13,4.47-5.86,4.47-3.36,0-6.19-1.66-6.19-5.29h1.89c0,2.52,2.1,3.61,4.37,3.61,1.81,0,3.8-.57,3.8-2.73,0-4.12-9.59-1.41-9.59-6.91,0-3,2.69-4.39,5.44-4.39,3.06,0,5.42,1.45,5.52,4.74Z" transform="translate(2.35 2)" style="fill:#6d7b85"/><path d="M180.95,262.14h2.16v1.58h-2.16v6.74c0,.84.23,1,1.34,1h.82V273h-1.37c-1.85,0-2.58-.38-2.58-2.37v-6.91h-1.85v-1.58h1.85v-3.25h1.78Z" transform="translate(2.35 2)" style="fill:#6d7b85"/><path d="M194.26,273a2.52,2.52,0,0,1-1.28.29c-.92,0-1.51-.5-1.51-1.68a4.75,4.75,0,0,1-3.82,1.68c-2,0-3.59-.86-3.59-3,0-2.46,1.83-3,3.67-3.34s3.65-.23,3.65-1.6c0-1.57-1.3-1.81-2.42-1.81-1.51,0-2.62.46-2.71,2.06h-1.79c.11-2.69,2.16-3.63,4.6-3.63,2,0,4.07.44,4.07,3v5.58c0,.84,0,1.22.57,1.22a1.8,1.8,0,0,0,.55-.11Zm-2.9-5.56c-1.39,1-5.42,0-5.42,2.69,0,1.18,1,1.6,2.1,1.6,2.35,0,3.32-1.45,3.32-2.46Z" transform="translate(2.35 2)" style="fill:#6d7b85"/><path d="M205.18,272.08c0,3.55-1.6,5.33-5,5.33-2,0-4.39-.84-4.49-3.19h1.79c.06,1.28,1.66,1.76,2.81,1.76,2.33,0,3.25-1.68,3.25-4.12v-.71h0a3.62,3.62,0,0,1-3.38,2c-3.23,0-4.85-2.54-4.85-5.5,0-2.56,1.24-5.73,5-5.73a3.54,3.54,0,0,1,3.23,1.81h0v-1.55h1.68Zm-1.76-4.72c0-1.91-.84-3.88-3.09-3.88s-3.21,1.87-3.21,3.95.71,4.14,3.07,4.14S203.42,269.39,203.42,267.35Z" transform="translate(2.35 2)" style="fill:#6d7b85"/><path d="M216.77,269.56a4.35,4.35,0,0,1-4.64,3.7c-3.46,0-5.1-2.41-5.21-5.71s2.14-5.65,5.1-5.65c3.84,0,5,3.59,4.91,6.21h-8.13a3.2,3.2,0,0,0,3.38,3.57,2.59,2.59,0,0,0,2.81-2.12Zm-1.72-3a3.12,3.12,0,0,0-3.13-3.07,3.08,3.08,0,0,0-3.11,3.07Z" transform="translate(2.35 2)" style="fill:#6d7b85"/><path d="M217.53,274.57H228v1.05h-10.5Z" transform="translate(2.35 2)" style="fill:#6d7b85"/><path d="M233.7,258h2.21l5.86,15h-2.21l-1.64-4.51h-6.34L229.9,273h-2.06Zm-1.49,8.8h5.08l-2.5-7h0Z" transform="translate(2.35 2)" style="fill:#6d7b85"/><path d="M243.19,262.14H245v1.47h0a3.63,3.63,0,0,1,3.46-1.72c3.34,0,5,2.65,5,5.71s-1.64,5.65-5,5.65a4.16,4.16,0,0,1-3.51-1.7h0v5.61h-1.79Zm5,1.32c-2.41,0-3.32,2.08-3.32,4.09s1,4.12,3.42,4.12,3.25-2.08,3.25-4.2S250.54,263.47,248.23,263.47Z" transform="translate(2.35 2)" style="fill:#6d7b85"/><path d="M255.27,262.14H257v1.47h0a3.63,3.63,0,0,1,3.46-1.72c3.34,0,5,2.65,5,5.71s-1.64,5.65-5,5.65a4.16,4.16,0,0,1-3.51-1.7h0v5.61h-1.78Zm5,1.32c-2.42,0-3.32,2.08-3.32,4.09s1,4.12,3.42,4.12,3.25-2.08,3.25-4.2S262.61,263.47,260.3,263.47Z" transform="translate(2.35 2)" style="fill:#6d7b85"/><path d="M272,258h2.21L280,273h-2.21l-1.64-4.51h-6.34L268.16,273H266.1Zm-1.49,8.8h5.08l-2.5-7h0Z" transform="translate(2.35 2)" style="fill:#6d7b85"/><path d="M279.81,274.57h10.5v1.05h-10.5Z" transform="translate(2.35 2)" style="fill:#6d7b85"/><path d="M297.79,273h-2.27l-5.29-15h2.16l4.28,13h0L301,258h2.08Z" transform="translate(2.35 2)" style="fill:#6d7b85"/><path d="M309.72,273h-1.79V262.33h-3.86v-1.43c2,0,3.88-.53,4.28-2.79h1.37Z" transform="translate(2.35 2)" style="fill:#6d7b85"/><path d="M169.48,339.69h-5V338h12v1.68h-5V353h-2Z" transform="translate(2.35 2)" style="fill:#6d7b85"/><path d="M184.68,349.56a4.35,4.35,0,0,1-4.64,3.7c-3.46,0-5.1-2.41-5.21-5.71s2.14-5.65,5.1-5.65c3.84,0,5,3.59,4.91,6.21h-8.13a3.2,3.2,0,0,0,3.38,3.57,2.59,2.59,0,0,0,2.81-2.12Zm-1.72-3a3.12,3.12,0,0,0-3.13-3.07,3.08,3.08,0,0,0-3.11,3.07Z" transform="translate(2.35 2)" style="fill:#6d7b85"/><path d="M187.86,349.58c.06,1.6,1.47,2.1,2.92,2.1,1.11,0,2.63-.25,2.63-1.62,0-2.79-7.1-.9-7.1-5.08,0-2.18,2.14-3.09,4.05-3.09,2.44,0,4.28.76,4.45,3.4H193c-.1-1.39-1.36-1.83-2.52-1.83s-2.31.29-2.31,1.39c0,1.26,1.89,1.51,3.55,1.89s3.55,1,3.55,3.09c0,2.6-2.41,3.42-4.62,3.42-2.44,0-4.49-1-4.6-3.67Z" transform="translate(2.35 2)" style="fill:#6d7b85"/><path d="M199.47,342.14h2.16v1.58h-2.16v6.74c0,.84.23,1,1.34,1h.82V353h-1.37c-1.85,0-2.58-.38-2.58-2.37v-6.91h-1.85v-1.58h1.85v-3.25h1.78Z" transform="translate(2.35 2)" style="fill:#6d7b85"/><path d="M202.16,354.57h10.5v1.05h-10.5Z" transform="translate(2.35 2)" style="fill:#6d7b85"/><path d="M218.33,338h2.2l5.86,15h-2.2l-1.64-4.51h-6.34L214.53,353h-2.06Zm-1.49,8.8h5.08l-2.5-7h0Z" transform="translate(2.35 2)" style="fill:#6d7b85"/><path d="M227.82,342.14h1.78v1.47h0a3.63,3.63,0,0,1,3.46-1.72c3.34,0,5,2.65,5,5.71s-1.64,5.65-5,5.65a4.16,4.16,0,0,1-3.51-1.7h0v5.61h-1.78Zm5,1.32c-2.42,0-3.32,2.08-3.32,4.09s1,4.12,3.42,4.12,3.25-2.08,3.25-4.2S235.17,343.47,232.86,343.47Z" transform="translate(2.35 2)" style="fill:#6d7b85"/><path d="M239.89,342.14h1.79v1.47h0a3.63,3.63,0,0,1,3.46-1.72c3.34,0,5,2.65,5,5.71s-1.64,5.65-5,5.65a4.16,4.16,0,0,1-3.51-1.7h0v5.61h-1.79Zm5,1.32c-2.41,0-3.32,2.08-3.32,4.09s1,4.12,3.42,4.12,3.25-2.08,3.25-4.2S247.24,343.47,244.93,343.47Z" transform="translate(2.35 2)" style="fill:#6d7b85"/><path d="M256.59,338h2.2l5.86,15h-2.2l-1.64-4.51h-6.34L252.79,353h-2.06Zm-1.49,8.8h5.08l-2.5-7h0Z" transform="translate(2.35 2)" style="fill:#6d7b85"/><path d="M264.44,354.57h10.5v1.05h-10.5Z" transform="translate(2.35 2)" style="fill:#6d7b85"/><path d="M282.42,353h-2.27l-5.29-15H277l4.28,13h0l4.32-13h2.08Z" transform="translate(2.35 2)" style="fill:#6d7b85"/><path d="M294.34,353h-1.78V342.33H288.7v-1.43c2,0,3.88-.53,4.28-2.79h1.36Z" transform="translate(2.35 2)" style="fill:#6d7b85"/><path d="M165.43,418h5.14c4.62,0,7.2,2.33,7.2,7.14,0,5-2.21,7.85-7.2,7.85h-5.14Zm2,13.31h3.32c1.36,0,5-.38,5-5.9,0-3.57-1.32-5.73-5-5.73h-3.36Z" transform="translate(2.35 2)" style="fill:#6d7b85"/><path d="M189,429.56a4.35,4.35,0,0,1-4.64,3.7c-3.46,0-5.1-2.41-5.21-5.71s2.14-5.65,5.1-5.65c3.84,0,5,3.59,4.91,6.21H181a3.2,3.2,0,0,0,3.38,3.57,2.59,2.59,0,0,0,2.81-2.12Zm-1.72-3a3.12,3.12,0,0,0-3.13-3.07,3.08,3.08,0,0,0-3.11,3.07Z" transform="translate(2.35 2)" style="fill:#6d7b85"/><path d="M195.39,433h-1.91l-4-10.86h2l3,9h0l3-9h1.87Z" transform="translate(2.35 2)" style="fill:#6d7b85"/><path d="M199.45,434.57h10.5v1.05h-10.5Z" transform="translate(2.35 2)" style="fill:#6d7b85"/><path d="M215.62,418h2.2l5.86,15h-2.2l-1.64-4.51H213.5L211.82,433h-2.06Zm-1.49,8.8h5.08l-2.5-7h0Z" transform="translate(2.35 2)" style="fill:#6d7b85"/><path d="M225.09,422.14h1.79v1.47h0a3.63,3.63,0,0,1,3.46-1.72c3.34,0,5,2.65,5,5.71s-1.64,5.65-5,5.65a4.16,4.16,0,0,1-3.51-1.7h0v5.61h-1.79Zm5,1.32c-2.41,0-3.32,2.08-3.32,4.09s1,4.12,3.42,4.12,3.25-2.08,3.25-4.2S232.44,423.47,230.13,423.47Z" transform="translate(2.35 2)" style="fill:#6d7b85"/><path d="M237.16,422.14h1.78v1.47h0a3.63,3.63,0,0,1,3.46-1.72c3.34,0,5,2.65,5,5.71s-1.64,5.65-5,5.65a4.15,4.15,0,0,1-3.51-1.7h0v5.61h-1.78Zm5,1.32c-2.42,0-3.32,2.08-3.32,4.09s1,4.12,3.42,4.12,3.25-2.08,3.25-4.2S244.51,423.47,242.2,423.47Z" transform="translate(2.35 2)" style="fill:#6d7b85"/><path d="M253.86,418h2.2l5.86,15h-2.21l-1.64-4.51h-6.34L250.06,433H248Zm-1.49,8.8h5.08l-2.5-7h0Z" transform="translate(2.35 2)" style="fill:#6d7b85"/><path d="M261.71,434.57h10.5v1.05h-10.5Z" transform="translate(2.35 2)" style="fill:#6d7b85"/><path d="M279.69,433h-2.27l-5.29-15h2.16l4.28,13h0l4.33-13H285Z" transform="translate(2.35 2)" style="fill:#6d7b85"/><path d="M291.61,433h-1.78V422.33H286v-1.43c2,0,3.88-.53,4.28-2.79h1.36Z" transform="translate(2.35 2)" style="fill:#6d7b85"/></g><g style="clip-path:url(#ao)"><g style="clip-path:url(#b)"><rect x="440.35" y="145" width="84" height="90" style="fill:#dfe3e6"/></g></g><g style="clip-path:url(#aq)"><g style="clip-path:url(#b)"><rect x="440.35" y="225" width="84" height="90" style="fill:#8c9ba5"/></g></g><g style="clip-path:url(#as)"><g style="clip-path:url(#b)"><rect x="440.35" y="305" width="84" height="90" style="fill:#5a6872"/></g></g><g style="clip-path:url(#au)"><g style="clip-path:url(#b)"><rect x="440.35" y="385" width="84" height="90" style="fill:#2d3f49"/></g></g><g style="clip-path:url(#aw)"><g style="clip-path:url(#ax)"><g style="clip-path:url(#b)"><circle cx="482.85" cy="190.5" r="7.5" style="fill:#fff"/></g></g></g><g style="clip-path:url(#ax)"><g style="clip-path:url(#b)"><circle cx="482.85" cy="190.5" r="7.5" style="fill:none;stroke:#0f212e;stroke-miterlimit:10;stroke-width:6px"/></g></g><g style="clip-path:url(#b)"><line x1="482.35" y1="197" x2="482.35" y2="429.95" style="fill:none;stroke:#0f212e;stroke-linecap:square;stroke-miterlimit:10;stroke-width:3px"/></g><g style="clip-path:url(#bc)"><g style="clip-path:url(#bd)"><g style="clip-path:url(#b)"><circle cx="482.85" cy="270.5" r="7.5" style="fill:#fff"/></g></g></g><g style="clip-path:url(#bd)"><g style="clip-path:url(#b)"><circle cx="482.85" cy="270.5" r="7.5" style="fill:none;stroke:#0f212e;stroke-miterlimit:10;stroke-width:6px"/></g></g><g style="clip-path:url(#bh)"><g style="clip-path:url(#bi)"><g style="clip-path:url(#b)"><circle cx="482.85" cy="350.5" r="7.5" style="fill:#fff"/></g></g></g><g style="clip-path:url(#bi)"><g style="clip-path:url(#b)"><circle cx="482.85" cy="350.5" r="7.5" style="fill:none;stroke:#0f212e;stroke-miterlimit:10;stroke-width:6px"/></g></g><g style="clip-path:url(#bm)"><g style="clip-path:url(#bn)"><g style="clip-path:url(#b)"><circle cx="482.85" cy="430.5" r="7.5" style="fill:#fff"/></g></g></g><g style="clip-path:url(#bn)"><g style="clip-path:url(#b)"><circle cx="482.85" cy="430.5" r="7.5" style="fill:none;stroke:#0f212e;stroke-miterlimit:10;stroke-width:6px"/></g></g><g style="clip-path:url(#b)"><path d="M545.43,178H552c3,0,4.6,1.64,4.6,4.43s-1.6,4.45-4.6,4.43h-4.58V193h-2Zm2,7.18h3.91c2.27,0,3.28-1,3.28-2.75s-1-2.75-3.28-2.75h-3.91Z" transform="translate(2.35 2)" style="fill:#6d7b85"/><path d="M558.38,182.14h1.68v2.29h0a3.92,3.92,0,0,1,4-2.54v1.89c-2.88,0-3.93,1.62-3.93,4.39V193h-1.79Z" transform="translate(2.35 2)" style="fill:#6d7b85"/><path d="M569.68,181.89c3.44,0,5.27,2.5,5.27,5.69s-1.83,5.67-5.27,5.67-5.27-2.5-5.27-5.67S566.24,181.89,569.68,181.89Zm0,9.79c1.87,0,3.38-1.47,3.38-4.09s-1.51-4.12-3.38-4.12-3.38,1.49-3.38,4.12S567.81,191.68,569.68,191.68Z" transform="translate(2.35 2)" style="fill:#6d7b85"/><path d="M586.63,193h-1.78v-1.47h0a3.63,3.63,0,0,1-3.46,1.72c-3.34,0-5-2.65-5-5.71s1.64-5.65,5-5.65a4.16,4.16,0,0,1,3.51,1.7h0V178h1.78Zm-5-1.32c2.42,0,3.32-2.08,3.32-4.09s-1-4.12-3.42-4.12-3.25,2.08-3.25,4.2S579.28,191.68,581.59,191.68Z" transform="translate(2.35 2)" style="fill:#6d7b85"/><path d="M587.68,194.57h10.5v1.05h-10.5Z" transform="translate(2.35 2)" style="fill:#6d7b85"/><path d="M603.85,178h2.21l5.86,15h-2.2l-1.64-4.51h-6.34L600,193H598Zm-1.49,8.8h5.08l-2.5-7h0Z" transform="translate(2.35 2)" style="fill:#6d7b85"/><path d="M613.32,182.14h1.78v1.47h0a3.63,3.63,0,0,1,3.46-1.72c3.34,0,5,2.65,5,5.71s-1.64,5.65-5,5.65a4.16,4.16,0,0,1-3.51-1.7h0v5.61h-1.78Zm5,1.32c-2.42,0-3.32,2.08-3.32,4.09s1,4.12,3.42,4.12,3.25-2.08,3.25-4.2S620.67,183.47,618.36,183.47Z" transform="translate(2.35 2)" style="fill:#6d7b85"/><path d="M625.39,182.14h1.79v1.47h0a3.63,3.63,0,0,1,3.46-1.72c3.34,0,5,2.65,5,5.71s-1.64,5.65-5,5.65a4.16,4.16,0,0,1-3.51-1.7h0v5.61h-1.79Zm5,1.32c-2.41,0-3.32,2.08-3.32,4.09s1,4.12,3.42,4.12,3.25-2.08,3.25-4.2S632.74,183.47,630.43,183.47Z" transform="translate(2.35 2)" style="fill:#6d7b85"/><path d="M637.76,178h5.44c1.3,0,3.09,0,4,.55a3.53,3.53,0,0,1,1.76,3.13,3.43,3.43,0,0,1-2.23,3.36v0a3.45,3.45,0,0,1,2.86,3.61A4.28,4.28,0,0,1,645,193h-7.24Zm2,6.45h4c2.27,0,3.19-.8,3.19-2.39,0-2.1-1.45-2.37-3.19-2.37h-4Zm0,6.87h5a2.55,2.55,0,0,0,2.81-2.69c0-2-1.57-2.5-3.25-2.5h-4.56Z" transform="translate(2.35 2)" style="fill:#6d7b85"/><path d="M650.22,194.57h10.5v1.05h-10.5Z" transform="translate(2.35 2)" style="fill:#6d7b85"/><path d="M668.19,193h-2.27l-5.29-15h2.16l4.28,13h0l4.32-13h2.08Z" transform="translate(2.35 2)" style="fill:#6d7b85"/><path d="M680.12,193h-1.78V182.33h-3.86v-1.43c2,0,3.88-.53,4.28-2.79h1.36Z" transform="translate(2.35 2)" style="fill:#6d7b85"/><path d="M554.12,262.4c-.23-2.16-1.64-3.06-3.72-3.06-1.7,0-3.36.61-3.36,2.56,0,3.7,9.59,1.09,9.59,7,0,3.19-3.13,4.47-5.86,4.47-3.36,0-6.19-1.66-6.19-5.29h1.89c0,2.52,2.1,3.61,4.37,3.61,1.81,0,3.8-.57,3.8-2.73,0-4.12-9.59-1.41-9.59-6.91,0-3,2.69-4.39,5.44-4.39,3.06,0,5.42,1.45,5.52,4.74Z" transform="translate(2.35 2)" style="fill:#6d7b85"/><path d="M560.95,262.14h2.16v1.58h-2.16v6.74c0,.84.23,1,1.34,1h.82V273h-1.37c-1.85,0-2.58-.38-2.58-2.37v-6.91h-1.85v-1.58h1.85v-3.25h1.78Z" transform="translate(2.35 2)" style="fill:#6d7b85"/><path d="M574.26,273a2.52,2.52,0,0,1-1.28.29c-.92,0-1.51-.5-1.51-1.68a4.75,4.75,0,0,1-3.82,1.68c-2,0-3.59-.86-3.59-3,0-2.46,1.83-3,3.67-3.34s3.65-.23,3.65-1.6c0-1.57-1.3-1.81-2.42-1.81-1.51,0-2.62.46-2.71,2.06h-1.79c.11-2.69,2.16-3.63,4.6-3.63,2,0,4.07.44,4.07,3v5.58c0,.84,0,1.22.57,1.22a1.8,1.8,0,0,0,.55-.11Zm-2.9-5.56c-1.39,1-5.42,0-5.42,2.69,0,1.18,1,1.6,2.1,1.6,2.35,0,3.32-1.45,3.32-2.46Z" transform="translate(2.35 2)" style="fill:#6d7b85"/><path d="M585.18,272.08c0,3.55-1.6,5.33-5,5.33-2,0-4.39-.84-4.49-3.19h1.79c.06,1.28,1.66,1.76,2.81,1.76,2.33,0,3.25-1.68,3.25-4.12v-.71h0a3.62,3.62,0,0,1-3.38,2c-3.23,0-4.85-2.54-4.85-5.5,0-2.56,1.24-5.73,5-5.73a3.54,3.54,0,0,1,3.23,1.81h0v-1.55h1.68Zm-1.76-4.72c0-1.91-.84-3.88-3.09-3.88s-3.21,1.87-3.21,3.95.71,4.14,3.07,4.14S583.42,269.39,583.42,267.35Z" transform="translate(2.35 2)" style="fill:#6d7b85"/><path d="M596.77,269.56a4.35,4.35,0,0,1-4.64,3.7c-3.46,0-5.1-2.41-5.21-5.71s2.14-5.65,5.1-5.65c3.84,0,5,3.59,4.91,6.21h-8.13a3.2,3.2,0,0,0,3.38,3.57,2.59,2.59,0,0,0,2.81-2.12Zm-1.72-3a3.12,3.12,0,0,0-3.13-3.07,3.08,3.08,0,0,0-3.11,3.07Z" transform="translate(2.35 2)" style="fill:#6d7b85"/><path d="M597.53,274.57H608v1.05h-10.5Z" transform="translate(2.35 2)" style="fill:#6d7b85"/><path d="M613.7,258h2.21l5.86,15h-2.21l-1.64-4.51h-6.34L609.9,273h-2.06Zm-1.49,8.8h5.08l-2.5-7h0Z" transform="translate(2.35 2)" style="fill:#6d7b85"/><path d="M623.19,262.14H625v1.47h0a3.63,3.63,0,0,1,3.46-1.72c3.34,0,5,2.65,5,5.71s-1.64,5.65-5,5.65a4.16,4.16,0,0,1-3.51-1.7h0v5.61h-1.79Zm5,1.32c-2.41,0-3.32,2.08-3.32,4.09s1,4.12,3.42,4.12,3.25-2.08,3.25-4.2S630.54,263.47,628.23,263.47Z" transform="translate(2.35 2)" style="fill:#6d7b85"/><path d="M635.27,262.14H637v1.47h0a3.63,3.63,0,0,1,3.46-1.72c3.34,0,5,2.65,5,5.71s-1.64,5.65-5,5.65a4.16,4.16,0,0,1-3.51-1.7h0v5.61h-1.78Zm5,1.32c-2.42,0-3.32,2.08-3.32,4.09s1,4.12,3.42,4.12,3.25-2.08,3.25-4.2S642.61,263.47,640.3,263.47Z" transform="translate(2.35 2)" style="fill:#6d7b85"/><path d="M647.63,258h5.44c1.3,0,3.09,0,4,.55a3.53,3.53,0,0,1,1.76,3.13,3.44,3.44,0,0,1-2.23,3.36v0a3.45,3.45,0,0,1,2.86,3.61,4.28,4.28,0,0,1-4.56,4.3h-7.24Zm2,6.45h4c2.27,0,3.19-.8,3.19-2.39,0-2.1-1.45-2.37-3.19-2.37h-4Zm0,6.87h5a2.55,2.55,0,0,0,2.81-2.69c0-2-1.58-2.5-3.25-2.5h-4.56Z" transform="translate(2.35 2)" style="fill:#6d7b85"/><path d="M660.09,274.57h10.5v1.05h-10.5Z" transform="translate(2.35 2)" style="fill:#6d7b85"/><path d="M678.06,273h-2.27l-5.29-15h2.16l4.28,13h0l4.33-13h2.08Z" transform="translate(2.35 2)" style="fill:#6d7b85"/><path d="M690,273h-1.79V262.33h-3.86v-1.43c2,0,3.88-.53,4.28-2.79H690Z" transform="translate(2.35 2)" style="fill:#6d7b85"/><path d="M549.48,339.69h-5V338h12v1.68h-5V353h-2Z" transform="translate(2.35 2)" style="fill:#6d7b85"/><path d="M564.68,349.56a4.35,4.35,0,0,1-4.64,3.7c-3.46,0-5.1-2.41-5.21-5.71s2.14-5.65,5.1-5.65c3.84,0,5,3.59,4.91,6.21h-8.13a3.2,3.2,0,0,0,3.38,3.57,2.59,2.59,0,0,0,2.81-2.12Zm-1.72-3a3.12,3.12,0,0,0-3.13-3.07,3.08,3.08,0,0,0-3.11,3.07Z" transform="translate(2.35 2)" style="fill:#6d7b85"/><path d="M567.86,349.58c.06,1.6,1.47,2.1,2.92,2.1,1.11,0,2.63-.25,2.63-1.62,0-2.79-7.1-.9-7.1-5.08,0-2.18,2.14-3.09,4.05-3.09,2.44,0,4.28.76,4.45,3.4H573c-.1-1.39-1.36-1.83-2.52-1.83s-2.31.29-2.31,1.39c0,1.26,1.89,1.51,3.55,1.89s3.55,1,3.55,3.09c0,2.6-2.41,3.42-4.62,3.42-2.44,0-4.49-1-4.6-3.67Z" transform="translate(2.35 2)" style="fill:#6d7b85"/><path d="M579.47,342.14h2.16v1.58h-2.16v6.74c0,.84.23,1,1.34,1h.82V353h-1.37c-1.85,0-2.58-.38-2.58-2.37v-6.91h-1.85v-1.58h1.85v-3.25h1.78Z" transform="translate(2.35 2)" style="fill:#6d7b85"/><path d="M582.16,354.57h10.5v1.05h-10.5Z" transform="translate(2.35 2)" style="fill:#6d7b85"/><path d="M598.33,338h2.2l5.86,15h-2.2l-1.64-4.51h-6.34L594.53,353h-2.06Zm-1.49,8.8h5.08l-2.5-7h0Z" transform="translate(2.35 2)" style="fill:#6d7b85"/><path d="M607.82,342.14h1.78v1.47h0a3.63,3.63,0,0,1,3.46-1.72c3.34,0,5,2.65,5,5.71s-1.64,5.65-5,5.65a4.16,4.16,0,0,1-3.51-1.7h0v5.61h-1.78Zm5,1.32c-2.42,0-3.32,2.08-3.32,4.09s1,4.12,3.42,4.12,3.25-2.08,3.25-4.2S615.17,343.47,612.86,343.47Z" transform="translate(2.35 2)" style="fill:#6d7b85"/><path d="M619.89,342.14h1.79v1.47h0a3.63,3.63,0,0,1,3.46-1.72c3.34,0,5,2.65,5,5.71s-1.64,5.65-5,5.65a4.16,4.16,0,0,1-3.51-1.7h0v5.61h-1.79Zm5,1.32c-2.41,0-3.32,2.08-3.32,4.09s1,4.12,3.42,4.12,3.25-2.08,3.25-4.2S627.24,343.47,624.93,343.47Z" transform="translate(2.35 2)" style="fill:#6d7b85"/><path d="M632.26,338h5.44c1.3,0,3.09,0,4,.55a3.53,3.53,0,0,1,1.76,3.13,3.43,3.43,0,0,1-2.23,3.36v0a3.45,3.45,0,0,1,2.86,3.61,4.28,4.28,0,0,1-4.56,4.3h-7.24Zm2,6.45h4c2.27,0,3.19-.8,3.19-2.39,0-2.1-1.45-2.37-3.19-2.37h-4Zm0,6.87h5a2.55,2.55,0,0,0,2.81-2.69c0-2-1.57-2.5-3.25-2.5h-4.56Z" transform="translate(2.35 2)" style="fill:#6d7b85"/><path d="M644.71,354.57h10.5v1.05h-10.5Z" transform="translate(2.35 2)" style="fill:#6d7b85"/><path d="M662.69,353h-2.27l-5.29-15h2.16l4.28,13h0l4.33-13H668Z" transform="translate(2.35 2)" style="fill:#6d7b85"/><path d="M674.62,353h-1.79V342.33H669v-1.43c2,0,3.88-.53,4.28-2.79h1.37Z" transform="translate(2.35 2)" style="fill:#6d7b85"/><path d="M545.43,418h5.14c4.62,0,7.2,2.33,7.2,7.14,0,5-2.21,7.85-7.2,7.85h-5.14Zm2,13.31h3.32c1.36,0,5-.38,5-5.9,0-3.57-1.32-5.73-5-5.73h-3.36Z" transform="translate(2.35 2)" style="fill:#6d7b85"/><path d="M569,429.56a4.35,4.35,0,0,1-4.64,3.7c-3.46,0-5.1-2.41-5.21-5.71s2.14-5.65,5.1-5.65c3.84,0,5,3.59,4.91,6.21H561a3.2,3.2,0,0,0,3.38,3.57,2.59,2.59,0,0,0,2.81-2.12Zm-1.72-3a3.12,3.12,0,0,0-3.13-3.07,3.08,3.08,0,0,0-3.11,3.07Z" transform="translate(2.35 2)" style="fill:#6d7b85"/><path d="M575.39,433h-1.91l-4-10.86h2l3,9h0l3-9h1.87Z" transform="translate(2.35 2)" style="fill:#6d7b85"/><path d="M579.45,434.57h10.5v1.05h-10.5Z" transform="translate(2.35 2)" style="fill:#6d7b85"/><path d="M595.62,418h2.2l5.86,15h-2.2l-1.64-4.51H593.5L591.82,433h-2.06Zm-1.49,8.8h5.08l-2.5-7h0Z" transform="translate(2.35 2)" style="fill:#6d7b85"/><path d="M605.09,422.14h1.79v1.47h0a3.63,3.63,0,0,1,3.46-1.72c3.34,0,5,2.65,5,5.71s-1.64,5.65-5,5.65a4.16,4.16,0,0,1-3.51-1.7h0v5.61h-1.79Zm5,1.32c-2.41,0-3.32,2.08-3.32,4.09s1,4.12,3.42,4.12,3.25-2.08,3.25-4.2S612.44,423.47,610.13,423.47Z" transform="translate(2.35 2)" style="fill:#6d7b85"/><path d="M617.16,422.14h1.78v1.47h0a3.63,3.63,0,0,1,3.46-1.72c3.34,0,5,2.65,5,5.71s-1.64,5.65-5,5.65a4.15,4.15,0,0,1-3.51-1.7h0v5.61h-1.78Zm5,1.32c-2.42,0-3.32,2.08-3.32,4.09s1,4.12,3.42,4.12,3.25-2.08,3.25-4.2S624.51,423.47,622.2,423.47Z" transform="translate(2.35 2)" style="fill:#6d7b85"/><path d="M629.53,418H635c1.3,0,3.09,0,4,.55a3.53,3.53,0,0,1,1.76,3.13,3.44,3.44,0,0,1-2.22,3.36v0a3.45,3.45,0,0,1,2.86,3.61,4.28,4.28,0,0,1-4.56,4.3h-7.24Zm2,6.45h4c2.27,0,3.19-.8,3.19-2.39,0-2.1-1.45-2.37-3.19-2.37h-4Zm0,6.87h5a2.55,2.55,0,0,0,2.81-2.69c0-2-1.58-2.5-3.25-2.5h-4.56Z" transform="translate(2.35 2)" style="fill:#6d7b85"/><path d="M642,434.57h10.5v1.05H642Z" transform="translate(2.35 2)" style="fill:#6d7b85"/><path d="M660,433h-2.27l-5.29-15h2.16l4.28,13h0l4.32-13h2.08Z" transform="translate(2.35 2)" style="fill:#6d7b85"/><path d="M671.89,433H670.1V422.33h-3.86v-1.43c2,0,3.88-.53,4.28-2.79h1.36Z" transform="translate(2.35 2)" style="fill:#6d7b85"/></g><g style="clip-path:url(#bs)"><g style="clip-path:url(#b)"><rect x="828" y="3" width="799" height="530" style="fill:none;stroke:#dfe3e6;stroke-miterlimit:10;stroke-width:6px;stroke-dasharray:10,10"/></g></g><g style="clip-path:url(#b)"><path d="M858.24,35h7.05c2.86,0,4.79.92,4.79,3.72a3.26,3.26,0,0,1-2,3.13,3.64,3.64,0,0,1,2.75,3.8c0,3-2.58,4.35-5.29,4.35h-7.27Zm3.3,6.07h3.34c1.18,0,2-.52,2-1.78s-1.09-1.72-2.27-1.72h-3.09Zm0,6.36h3.53c1.28,0,2.44-.42,2.44-2s-.95-2.14-2.37-2.14h-3.59Z" transform="translate(2.35 2)" style="fill:#6d7b85"/><path d="M872.41,42.48c.17-2.77,2.67-3.63,5.1-3.63,2.16,0,4.77.48,4.77,3.09v5.65a5.55,5.55,0,0,0,.38,2.41h-3a4.44,4.44,0,0,1-.21-1,4.94,4.94,0,0,1-3.65,1.34c-2.08,0-3.7-1-3.7-3.25,0-4.93,7.35-2.29,7.22-4.72,0-1.26-.88-1.47-1.93-1.47s-1.87.46-2,1.64Zm6.89,2.2a5.93,5.93,0,0,1-2.48.63c-.92.17-1.76.5-1.76,1.6s.86,1.38,1.83,1.38a2.21,2.21,0,0,0,2.42-2.5Z" transform="translate(2.35 2)" style="fill:#6d7b85"/><path d="M884.47,39.14h2.83v1.51h.06a3.82,3.82,0,0,1,3.32-1.8c3.17,0,4,1.78,4,4.47V50h-3V43.87c0-1.79-.5-2.67-1.91-2.67-1.62,0-2.31.9-2.31,3.11V50h-3Z" transform="translate(2.35 2)" style="fill:#6d7b85"/><path d="M896.67,35h3v8l3.76-3.91h3.53l-4.09,4L907.4,50h-3.61l-3-4.85-1.15,1.11V50h-3Z" transform="translate(2.35 2)" style="fill:#6d7b85"/><path d="M917.79,35h3.38l5.61,15h-3.42l-1.13-3.34h-5.61L915.44,50H912.1Zm-.31,9.2h3.88l-1.89-5.5h0Z" transform="translate(2.35 2)" style="fill:#6d7b85"/><path d="M932.6,43h6.32v2.56H932.6Z" transform="translate(2.35 2)" style="fill:#6d7b85"/><path d="M946.1,35h3.3V50h-3.3Z" transform="translate(2.35 2)" style="fill:#6d7b85"/><path d="M951.6,39.14h2.83v1.51h.06a3.82,3.82,0,0,1,3.32-1.8c3.17,0,4,1.78,4,4.47V50h-3V43.87c0-1.79-.5-2.67-1.91-2.67-1.62,0-2.31.9-2.31,3.11V50h-3Z" transform="translate(2.35 2)" style="fill:#6d7b85"/><path d="M969.37,50h-3.32l-3.72-10.86h3.13l2.29,7.41h0l2.29-7.41h3Z" transform="translate(2.35 2)" style="fill:#6d7b85"/><path d="M975.94,45.3c.08,1.91,1,2.75,2.67,2.75A2.45,2.45,0,0,0,981,46.64h2.62a4.86,4.86,0,0,1-5.08,3.65c-3.42,0-5.54-2.35-5.54-5.71a5.44,5.44,0,0,1,5.54-5.73c3.7,0,5.5,3.11,5.27,6.45Zm4.85-1.89c-.27-1.51-.92-2.31-2.37-2.31a2.34,2.34,0,0,0-2.48,2.31Z" transform="translate(2.35 2)" style="fill:#6d7b85"/><path d="M987.64,46.47c0,1.28,1.13,1.83,2.29,1.83.84,0,2-.34,2-1.38s-1.26-1.24-3.38-1.68c-1.74-.4-3.44-1-3.44-2.9,0-2.77,2.39-3.48,4.72-3.48s4.56.8,4.79,3.46h-2.83c-.08-1.16-1-1.47-2-1.47-.67,0-1.66.11-1.66,1,0,1.07,1.7,1.22,3.38,1.62s3.44,1,3.44,3c0,2.86-2.5,3.78-5,3.78s-5-.94-5.1-3.82Z" transform="translate(2.35 2)" style="fill:#6d7b85"/><path d="M999.94,39.14h2.18v2h-2.18v5.38c0,1,.25,1.26,1.26,1.26a4.16,4.16,0,0,0,.92-.08V50a11.44,11.44,0,0,1-1.74.1c-1.85,0-3.42-.4-3.42-2.58v-6.4h-1.81v-2H997V35.89h3Z" transform="translate(2.35 2)" style="fill:#6d7b85"/><path d="M1003.75,39.14h2.81v1.47h0a3.89,3.89,0,0,1,3.32-1.76,3.18,3.18,0,0,1,3.17,1.8,4,4,0,0,1,3.28-1.8c2.31,0,4,1.07,4,3.88V50h-3V43.85c0-1.45-.13-2.64-1.83-2.64s-2,1.41-2,2.75v6h-3V43.91c0-1.26.08-2.71-1.81-2.71-.59,0-2,.38-2,2.5V50h-3Z" transform="translate(2.35 2)" style="fill:#6d7b85"/><path d="M1024.79,45.3c.08,1.91,1,2.75,2.67,2.75a2.45,2.45,0,0,0,2.35-1.41h2.63a4.86,4.86,0,0,1-5.08,3.65c-3.42,0-5.54-2.35-5.54-5.71a5.44,5.44,0,0,1,5.54-5.73c3.7,0,5.5,3.11,5.27,6.45Zm4.85-1.89c-.27-1.51-.92-2.31-2.37-2.31a2.34,2.34,0,0,0-2.48,2.31Z" transform="translate(2.35 2)" style="fill:#6d7b85"/><path d="M1034.17,39.14H1037v1.51h.06a3.82,3.82,0,0,1,3.32-1.8c3.17,0,4,1.78,4,4.47V50h-3V43.87c0-1.79-.5-2.67-1.91-2.67-1.62,0-2.31.9-2.31,3.11V50h-3Z" transform="translate(2.35 2)" style="fill:#6d7b85"/><path d="M1049.76,39.14h2.18v2h-2.18v5.38c0,1,.25,1.26,1.26,1.26a4.17,4.17,0,0,0,.92-.08V50a11.43,11.43,0,0,1-1.74.1c-1.85,0-3.42-.4-3.42-2.58v-6.4H1045v-2h1.81V35.89h3Z" transform="translate(2.35 2)" style="fill:#6d7b85"/><path d="M1065.46,34.65c4.62,0,7.37,3.46,7.37,7.92s-2.75,7.79-7.37,7.79-7.37-3.46-7.37-7.79S1060.84,34.65,1065.46,34.65Zm0,12.93c3,0,4.07-2.52,4.07-5s-1.11-5.14-4.07-5.14-4.07,2.52-4.07,5.14S1062.5,47.59,1065.46,47.59Z" transform="translate(2.35 2)" style="fill:#6d7b85"/><path d="M1074.39,39.14h2.83v2h0a3.81,3.81,0,0,1,3.46-2.31,2.21,2.21,0,0,1,.65.1v2.77a5.41,5.41,0,0,0-1.07-.1c-2.21,0-2.94,1.55-2.94,3.48V50h-3Z" transform="translate(2.35 2)" style="fill:#6d7b85"/><path d="M1092.43,49.31c0,1.79-.65,4.81-5.63,4.81-2.14,0-4.62-1-4.79-3.49h3a2,2,0,0,0,2.22,1.49c1.66,0,2.42-1.11,2.39-2.69V48h0a3.6,3.6,0,0,1-3.25,1.68c-3.28,0-4.64-2.48-4.64-5.46,0-2.81,1.64-5.37,4.66-5.37a3.4,3.4,0,0,1,3.23,1.74h0V39.14h2.83Zm-2.83-4.87c0-1.76-.61-3.34-2.54-3.34-1.68,0-2.41,1.47-2.41,3.09s.57,3.25,2.41,3.25S1089.59,46,1089.59,44.44Z" transform="translate(2.35 2)" style="fill:#6d7b85"/><path d="M1094.23,42.48c.17-2.77,2.67-3.63,5.1-3.63,2.16,0,4.77.48,4.77,3.09v5.65a5.55,5.55,0,0,0,.38,2.41h-3a4.44,4.44,0,0,1-.21-1,4.94,4.94,0,0,1-3.65,1.34c-2.08,0-3.7-1-3.7-3.25,0-4.93,7.35-2.29,7.22-4.72,0-1.26-.88-1.47-1.93-1.47s-1.87.46-2,1.64Zm6.89,2.2a5.93,5.93,0,0,1-2.48.63c-.92.17-1.76.5-1.76,1.6s.86,1.38,1.83,1.38a2.21,2.21,0,0,0,2.42-2.5Z" transform="translate(2.35 2)" style="fill:#6d7b85"/><path d="M1106.29,39.14h2.83v1.51h.06a3.82,3.82,0,0,1,3.32-1.8c3.17,0,4,1.78,4,4.47V50h-3V43.87c0-1.79-.5-2.67-1.91-2.67-1.62,0-2.31.9-2.31,3.11V50h-3Z" transform="translate(2.35 2)" style="fill:#6d7b85"/><path d="M1121.47,37.46h-3V35h3Zm-3,1.68h3V50h-3Z" transform="translate(2.35 2)" style="fill:#6d7b85"/><path d="M1122.88,47.75l5.65-6.36h-5.23V39.14h9.15v2.25l-5.65,6.36h6V50h-10Z" transform="translate(2.35 2)" style="fill:#6d7b85"/><path d="M1134.2,42.48c.17-2.77,2.67-3.63,5.1-3.63,2.16,0,4.77.48,4.77,3.09v5.65a5.57,5.57,0,0,0,.38,2.41h-3a4.49,4.49,0,0,1-.21-1,5,5,0,0,1-3.65,1.34c-2.08,0-3.7-1-3.7-3.25,0-4.93,7.35-2.29,7.22-4.72,0-1.26-.88-1.47-1.93-1.47s-1.87.46-2,1.64Zm6.89,2.2a5.92,5.92,0,0,1-2.48.63c-.92.17-1.76.5-1.76,1.6s.86,1.38,1.83,1.38a2.21,2.21,0,0,0,2.42-2.5Z" transform="translate(2.35 2)" style="fill:#6d7b85"/><path d="M1149.9,39.14h2.18v2h-2.18v5.38c0,1,.25,1.26,1.26,1.26a4.17,4.17,0,0,0,.92-.08V50a11.44,11.44,0,0,1-1.74.1c-1.85,0-3.42-.4-3.42-2.58v-6.4h-1.8v-2h1.8V35.89h3Z" transform="translate(2.35 2)" style="fill:#6d7b85"/><path d="M1156.69,37.46h-3V35h3Zm-3,1.68h3V50h-3Z" transform="translate(2.35 2)" style="fill:#6d7b85"/><path d="M1163.91,38.85c3.42,0,5.63,2.27,5.63,5.73a5.62,5.62,0,1,1-11.23,0C1158.3,41.12,1160.51,38.85,1163.91,38.85Zm0,9.2c2,0,2.65-1.72,2.65-3.46s-.61-3.49-2.65-3.49-2.62,1.74-2.62,3.49S1161.89,48,1163.91,48Z" transform="translate(2.35 2)" style="fill:#6d7b85"/><path d="M1171.07,39.14h2.83v1.51h.06a3.83,3.83,0,0,1,3.32-1.8c3.17,0,4,1.78,4,4.47V50h-3V43.87c0-1.79-.5-2.67-1.91-2.67-1.62,0-2.31.9-2.31,3.11V50h-3Z" transform="translate(2.35 2)" style="fill:#6d7b85"/></g><g style="clip-path:url(#bv)"><g style="clip-path:url(#b)"><rect x="859.35" y="78.58" width="360" height="420" style="fill:none;stroke:#8c9ba5;stroke-miterlimit:10;stroke-width:4px"/></g></g><g style="clip-path:url(#b)"><path d="M889.24,107h3.3v15h-3.3Z" transform="translate(2.35 2)" style="fill:#6d7b85"/><path d="M894.74,111.14h2.83v1.51h.06a3.82,3.82,0,0,1,3.32-1.8c3.17,0,4,1.78,4,4.47V122h-3v-6.13c0-1.79-.5-2.67-1.91-2.67-1.62,0-2.31.9-2.31,3.11V122h-3Z" transform="translate(2.35 2)" style="fill:#6d7b85"/><path d="M912.51,122h-3.32l-3.72-10.86h3.13l2.29,7.41h0l2.29-7.41h3Z" transform="translate(2.35 2)" style="fill:#6d7b85"/><path d="M919.08,117.3c.08,1.91,1,2.75,2.67,2.75a2.46,2.46,0,0,0,2.35-1.41h2.62a4.86,4.86,0,0,1-5.08,3.65c-3.42,0-5.54-2.35-5.54-5.71a5.44,5.44,0,0,1,5.54-5.73c3.7,0,5.5,3.11,5.27,6.45Zm4.85-1.89c-.27-1.51-.92-2.31-2.37-2.31a2.34,2.34,0,0,0-2.48,2.31Z" transform="translate(2.35 2)" style="fill:#6d7b85"/><path d="M930.78,118.47c0,1.28,1.13,1.83,2.29,1.83.84,0,2-.34,2-1.38s-1.26-1.24-3.38-1.68c-1.74-.4-3.44-1-3.44-2.9,0-2.77,2.39-3.48,4.72-3.48s4.56.8,4.79,3.46h-2.83c-.08-1.16-1-1.47-2-1.47-.67,0-1.66.11-1.66,1,0,1.07,1.7,1.22,3.38,1.62s3.44,1,3.44,3c0,2.86-2.5,3.78-5,3.78s-5-.94-5.1-3.82Z" transform="translate(2.35 2)" style="fill:#6d7b85"/><path d="M943.1,111.14h2.18v2H943.1v5.38c0,1,.25,1.26,1.26,1.26a4.16,4.16,0,0,0,.92-.08V122a11.44,11.44,0,0,1-1.74.1c-1.85,0-3.42-.4-3.42-2.58v-6.4h-1.81v-2h1.81v-3.25h3Z" transform="translate(2.35 2)" style="fill:#6d7b85"/><path d="M946.9,111.14h2.81v1.47h0a3.89,3.89,0,0,1,3.32-1.76,3.18,3.18,0,0,1,3.17,1.8,4,4,0,0,1,3.28-1.8c2.31,0,4,1.07,4,3.88V122h-3v-6.15c0-1.45-.13-2.64-1.83-2.64s-2,1.41-2,2.75v6h-3v-6.09c0-1.26.08-2.71-1.81-2.71-.59,0-2,.38-2,2.5V122h-3Z" transform="translate(2.35 2)" style="fill:#6d7b85"/><path d="M967.92,117.3c.08,1.91,1,2.75,2.67,2.75a2.46,2.46,0,0,0,2.35-1.41h2.62a4.86,4.86,0,0,1-5.08,3.65c-3.42,0-5.54-2.35-5.54-5.71a5.44,5.44,0,0,1,5.54-5.73c3.7,0,5.5,3.11,5.27,6.45Zm4.85-1.89c-.27-1.51-.92-2.31-2.37-2.31a2.34,2.34,0,0,0-2.48,2.31Z" transform="translate(2.35 2)" style="fill:#6d7b85"/><path d="M977.31,111.14h2.83v1.51h.06a3.82,3.82,0,0,1,3.32-1.8c3.17,0,4,1.78,4,4.47V122h-3v-6.13c0-1.79-.5-2.67-1.91-2.67-1.62,0-2.31.9-2.31,3.11V122h-3Z" transform="translate(2.35 2)" style="fill:#6d7b85"/><path d="M992.91,111.14h2.18v2h-2.18v5.38c0,1,.25,1.26,1.26,1.26a4.17,4.17,0,0,0,.92-.08V122a11.43,11.43,0,0,1-1.74.1c-1.85,0-3.42-.4-3.42-2.58v-6.4h-1.81v-2h1.81v-3.25h3Z" transform="translate(2.35 2)" style="fill:#6d7b85"/><path d="M1001.9,107h6.76c3.76,0,5.19,2.37,5.19,4.81s-1.43,4.81-5.19,4.81h-3.46V122h-3.3Zm3.3,7.05h2.56c1.51,0,2.9-.34,2.9-2.25s-1.39-2.25-2.9-2.25h-2.56Z" transform="translate(2.35 2)" style="fill:#6d7b85"/><path d="M1015,111.14h2.83v2h0a3.81,3.81,0,0,1,3.46-2.31,2.21,2.21,0,0,1,.65.1v2.77a5.41,5.41,0,0,0-1.07-.1c-2.21,0-2.94,1.55-2.94,3.48V122h-3Z" transform="translate(2.35 2)" style="fill:#6d7b85"/><path d="M1027.88,110.85c3.42,0,5.63,2.27,5.63,5.73a5.62,5.62,0,1,1-11.23,0C1022.27,113.12,1024.48,110.85,1027.88,110.85Zm0,9.2c2,0,2.65-1.72,2.65-3.46s-.61-3.49-2.65-3.49-2.62,1.74-2.62,3.49S1025.86,120,1027.88,120Z" transform="translate(2.35 2)" style="fill:#6d7b85"/><path d="M1033.51,123.28a1.9,1.9,0,0,0,.65.08c.61,0,1.15-.15,1.15-1V111.14h3v11.4c0,2.23-.82,3.28-3.82,3.28a5,5,0,0,1-1-.08Zm4.79-13.82h-3V107h3Z" transform="translate(2.35 2)" style="fill:#6d7b85"/><path d="M1042.83,117.3c.08,1.91,1,2.75,2.67,2.75a2.45,2.45,0,0,0,2.35-1.41h2.63a4.86,4.86,0,0,1-5.08,3.65c-3.42,0-5.54-2.35-5.54-5.71a5.44,5.44,0,0,1,5.54-5.73c3.7,0,5.5,3.11,5.27,6.45Zm4.85-1.89c-.27-1.51-.92-2.31-2.37-2.31a2.34,2.34,0,0,0-2.48,2.31Z" transform="translate(2.35 2)" style="fill:#6d7b85"/><path d="M1059.61,115a2,2,0,0,0-2.2-1.87c-1.91,0-2.54,1.93-2.54,3.53s.61,3.42,2.48,3.42a2.27,2.27,0,0,0,2.37-2.2h2.88a4.85,4.85,0,0,1-5.23,4.45,5.27,5.27,0,0,1-5.48-5.56c0-3.38,2-5.88,5.54-5.88,2.56,0,4.93,1.34,5.1,4.12Z" transform="translate(2.35 2)" style="fill:#6d7b85"/><path d="M1068,111.14h2.18v2H1068v5.38c0,1,.25,1.26,1.26,1.26a4.17,4.17,0,0,0,.92-.08V122a11.43,11.43,0,0,1-1.74.1c-1.85,0-3.42-.4-3.42-2.58v-6.4h-1.81v-2H1065v-3.25h3Z" transform="translate(2.35 2)" style="fill:#6d7b85"/><path d="M1080.9,114.15l-4.83-7.14h3.82l2.94,4.79,3-4.79h3.61l-4.81,7.16,5.23,7.83H1086l-3.28-5.19-3.34,5.19h-3.72Z" transform="translate(2.35 2)" style="fill:#6d7b85"/></g><g style="clip-path:url(#by)"><g style="clip-path:url(#b)"><rect x="1233.35" y="78.58" width="360" height="420" style="fill:none;stroke:#8c9ba5;stroke-miterlimit:10;stroke-width:4px"/></g></g><g style="clip-path:url(#b)"><path d="M1263.24,107h3.3v15h-3.3Z" transform="translate(2.35 2)" style="fill:#6d7b85"/><path d="M1268.74,111.14h2.83v1.51h.06a3.82,3.82,0,0,1,3.32-1.8c3.17,0,4,1.78,4,4.47V122h-3v-6.13c0-1.79-.5-2.67-1.91-2.67-1.62,0-2.31.9-2.31,3.11V122h-3Z" transform="translate(2.35 2)" style="fill:#6d7b85"/><path d="M1286.51,122h-3.32l-3.72-10.86h3.13l2.29,7.41h0l2.29-7.41h3Z" transform="translate(2.35 2)" style="fill:#6d7b85"/><path d="M1293.08,117.3c.08,1.91,1,2.75,2.67,2.75a2.46,2.46,0,0,0,2.35-1.41h2.62a4.86,4.86,0,0,1-5.08,3.65c-3.42,0-5.54-2.35-5.54-5.71a5.44,5.44,0,0,1,5.54-5.73c3.7,0,5.5,3.11,5.27,6.45Zm4.85-1.89c-.27-1.51-.92-2.31-2.37-2.31a2.34,2.34,0,0,0-2.48,2.31Z" transform="translate(2.35 2)" style="fill:#6d7b85"/><path d="M1304.78,118.47c0,1.28,1.13,1.83,2.29,1.83.84,0,2-.34,2-1.38s-1.26-1.24-3.38-1.68c-1.74-.4-3.44-1-3.44-2.9,0-2.77,2.39-3.48,4.72-3.48s4.56.8,4.79,3.46h-2.83c-.08-1.16-1-1.47-2-1.47-.67,0-1.66.11-1.66,1,0,1.07,1.7,1.22,3.38,1.62s3.44,1,3.44,3c0,2.86-2.5,3.78-5,3.78s-5-.94-5.1-3.82Z" transform="translate(2.35 2)" style="fill:#6d7b85"/><path d="M1317.1,111.14h2.18v2h-2.18v5.38c0,1,.25,1.26,1.26,1.26a4.16,4.16,0,0,0,.92-.08V122a11.44,11.44,0,0,1-1.74.1c-1.85,0-3.42-.4-3.42-2.58v-6.4h-1.81v-2h1.81v-3.25h3Z" transform="translate(2.35 2)" style="fill:#6d7b85"/><path d="M1320.9,111.14h2.81v1.47h0a3.89,3.89,0,0,1,3.32-1.76,3.18,3.18,0,0,1,3.17,1.8,4,4,0,0,1,3.28-1.8c2.31,0,4,1.07,4,3.88V122h-3v-6.15c0-1.45-.13-2.64-1.83-2.64s-2,1.41-2,2.75v6h-3v-6.09c0-1.26.08-2.71-1.81-2.71-.59,0-2,.38-2,2.5V122h-3Z" transform="translate(2.35 2)" style="fill:#6d7b85"/><path d="M1341.92,117.3c.08,1.91,1,2.75,2.67,2.75a2.46,2.46,0,0,0,2.35-1.41h2.62a4.86,4.86,0,0,1-5.08,3.65c-3.42,0-5.54-2.35-5.54-5.71a5.44,5.44,0,0,1,5.54-5.73c3.7,0,5.5,3.11,5.27,6.45Zm4.85-1.89c-.27-1.51-.92-2.31-2.37-2.31a2.34,2.34,0,0,0-2.48,2.31Z" transform="translate(2.35 2)" style="fill:#6d7b85"/><path d="M1351.31,111.14h2.83v1.51h.06a3.82,3.82,0,0,1,3.32-1.8c3.17,0,4,1.78,4,4.47V122h-3v-6.13c0-1.79-.5-2.67-1.91-2.67-1.62,0-2.31.9-2.31,3.11V122h-3Z" transform="translate(2.35 2)" style="fill:#6d7b85"/><path d="M1366.91,111.14h2.18v2h-2.18v5.38c0,1,.25,1.26,1.26,1.26a4.17,4.17,0,0,0,.92-.08V122a11.43,11.43,0,0,1-1.74.1c-1.85,0-3.42-.4-3.42-2.58v-6.4h-1.81v-2h1.81v-3.25h3Z" transform="translate(2.35 2)" style="fill:#6d7b85"/><path d="M1375.9,107h6.76c3.76,0,5.19,2.37,5.19,4.81s-1.43,4.81-5.19,4.81h-3.46V122h-3.3Zm3.3,7.05h2.56c1.51,0,2.9-.34,2.9-2.25s-1.39-2.25-2.9-2.25h-2.56Z" transform="translate(2.35 2)" style="fill:#6d7b85"/><path d="M1389,111.14h2.83v2h0a3.81,3.81,0,0,1,3.46-2.31,2.21,2.21,0,0,1,.65.1v2.77a5.41,5.41,0,0,0-1.07-.1c-2.21,0-2.94,1.55-2.94,3.48V122h-3Z" transform="translate(2.35 2)" style="fill:#6d7b85"/><path d="M1401.88,110.85c3.42,0,5.63,2.27,5.63,5.73a5.62,5.62,0,1,1-11.23,0C1396.27,113.12,1398.48,110.85,1401.88,110.85Zm0,9.2c2,0,2.65-1.72,2.65-3.46s-.61-3.49-2.65-3.49-2.62,1.74-2.62,3.49S1399.86,120,1401.88,120Z" transform="translate(2.35 2)" style="fill:#6d7b85"/><path d="M1407.51,123.28a1.9,1.9,0,0,0,.65.08c.61,0,1.15-.15,1.15-1V111.14h3v11.4c0,2.23-.82,3.28-3.82,3.28a5,5,0,0,1-1-.08Zm4.79-13.82h-3V107h3Z" transform="translate(2.35 2)" style="fill:#6d7b85"/><path d="M1416.83,117.3c.08,1.91,1,2.75,2.67,2.75a2.45,2.45,0,0,0,2.35-1.41h2.63a4.86,4.86,0,0,1-5.08,3.65c-3.42,0-5.54-2.35-5.54-5.71a5.44,5.44,0,0,1,5.54-5.73c3.7,0,5.5,3.11,5.27,6.45Zm4.85-1.89c-.27-1.51-.92-2.31-2.37-2.31a2.34,2.34,0,0,0-2.48,2.31Z" transform="translate(2.35 2)" style="fill:#6d7b85"/><path d="M1433.61,115a2,2,0,0,0-2.2-1.87c-1.91,0-2.54,1.93-2.54,3.53s.61,3.42,2.48,3.42a2.27,2.27,0,0,0,2.37-2.2h2.88a4.85,4.85,0,0,1-5.23,4.45,5.27,5.27,0,0,1-5.48-5.56c0-3.38,2-5.88,5.54-5.88,2.56,0,4.93,1.34,5.1,4.12Z" transform="translate(2.35 2)" style="fill:#6d7b85"/><path d="M1442,111.14h2.18v2H1442v5.38c0,1,.25,1.26,1.26,1.26a4.17,4.17,0,0,0,.92-.08V122a11.43,11.43,0,0,1-1.74.1c-1.85,0-3.42-.4-3.42-2.58v-6.4h-1.81v-2H1439v-3.25h3Z" transform="translate(2.35 2)" style="fill:#6d7b85"/><path d="M1454.9,116.16l-5.52-9.15h3.72l3.51,5.92,3.48-5.92h3.67l-5.56,9.24V122h-3.3Z" transform="translate(2.35 2)" style="fill:#6d7b85"/></g><g style="clip-path:url(#cb)"><g style="clip-path:url(#b)"><rect x="885.35" y="145" width="84" height="90" style="fill:#7cc7ff"/></g></g><g style="clip-path:url(#cd)"><g style="clip-path:url(#b)"><rect x="885.35" y="225" width="84" height="90" style="fill:#5aaafa"/></g></g><g style="clip-path:url(#cf)"><g style="clip-path:url(#b)"><rect x="885.35" y="305" width="84" height="90" style="fill:#5596e6"/></g></g><g style="clip-path:url(#ch)"><g style="clip-path:url(#b)"><rect x="885.35" y="385" width="84" height="90" style="fill:#3d70b2"/></g></g><g style="clip-path:url(#cj)"><g style="clip-path:url(#ck)"><g style="clip-path:url(#b)"><circle cx="927.85" cy="190.5" r="7.5" style="fill:#fff"/></g></g></g><g style="clip-path:url(#ck)"><g style="clip-path:url(#b)"><circle cx="927.85" cy="190.5" r="7.5" style="fill:none;stroke:#0f212e;stroke-miterlimit:10;stroke-width:6px"/></g></g><g style="clip-path:url(#b)"><line x1="927.35" y1="197" x2="927.35" y2="429.95" style="fill:none;stroke:#0f212e;stroke-linecap:square;stroke-miterlimit:10;stroke-width:3px"/></g><g style="clip-path:url(#cp)"><g style="clip-path:url(#cq)"><g style="clip-path:url(#b)"><circle cx="927.85" cy="270.5" r="7.5" style="fill:#fff"/></g></g></g><g style="clip-path:url(#cq)"><g style="clip-path:url(#b)"><circle cx="927.85" cy="270.5" r="7.5" style="fill:none;stroke:#0f212e;stroke-miterlimit:10;stroke-width:6px"/></g></g><g style="clip-path:url(#cu)"><g style="clip-path:url(#cv)"><g style="clip-path:url(#b)"><circle cx="927.85" cy="350.5" r="7.5" style="fill:#fff"/></g></g></g><g style="clip-path:url(#cv)"><g style="clip-path:url(#b)"><circle cx="927.85" cy="350.5" r="7.5" style="fill:none;stroke:#0f212e;stroke-miterlimit:10;stroke-width:6px"/></g></g><g style="clip-path:url(#cz)"><g style="clip-path:url(#da)"><g style="clip-path:url(#b)"><circle cx="927.85" cy="430.5" r="7.5" style="fill:#fff"/></g></g></g><g style="clip-path:url(#da)"><g style="clip-path:url(#b)"><circle cx="927.85" cy="430.5" r="7.5" style="fill:none;stroke:#0f212e;stroke-miterlimit:10;stroke-width:6px"/></g></g><g style="clip-path:url(#b)"><path d="M990.43,178H997c3,0,4.6,1.64,4.6,4.43s-1.6,4.45-4.6,4.43h-4.58V193h-2Zm2,7.18h3.91c2.27,0,3.28-1,3.28-2.75s-1-2.75-3.28-2.75h-3.91Z" transform="translate(2.35 2)" style="fill:#6d7b85"/><path d="M1003.38,182.14h1.68v2.29h0a3.92,3.92,0,0,1,4-2.54v1.89c-2.88,0-3.93,1.62-3.93,4.39V193h-1.79Z" transform="translate(2.35 2)" style="fill:#6d7b85"/><path d="M1014.68,181.89c3.44,0,5.27,2.5,5.27,5.69s-1.83,5.67-5.27,5.67-5.27-2.5-5.27-5.67S1011.24,181.89,1014.68,181.89Zm0,9.79c1.87,0,3.38-1.47,3.38-4.09s-1.51-4.12-3.38-4.12-3.38,1.49-3.38,4.12S1012.81,191.68,1014.68,191.68Z" transform="translate(2.35 2)" style="fill:#6d7b85"/><path d="M1031.63,193h-1.78v-1.47h0a3.63,3.63,0,0,1-3.46,1.72c-3.34,0-5-2.65-5-5.71s1.64-5.65,5-5.65a4.16,4.16,0,0,1,3.51,1.7h0V178h1.78Zm-5-1.32c2.42,0,3.32-2.08,3.32-4.09s-1-4.12-3.42-4.12-3.25,2.08-3.25,4.2S1024.28,191.68,1026.59,191.68Z" transform="translate(2.35 2)" style="fill:#6d7b85"/><path d="M1032.68,194.57h10.5v1.05h-10.5Z" transform="translate(2.35 2)" style="fill:#6d7b85"/><path d="M1048.85,178h2.21l5.86,15h-2.2l-1.64-4.51h-6.34L1045,193H1043Zm-1.49,8.8h5.08l-2.5-7h0Z" transform="translate(2.35 2)" style="fill:#6d7b85"/><path d="M1058.32,182.14h1.78v1.47h0a3.63,3.63,0,0,1,3.46-1.72c3.34,0,5,2.65,5,5.71s-1.64,5.65-5,5.65a4.16,4.16,0,0,1-3.51-1.7h0v5.61h-1.78Zm5,1.32c-2.42,0-3.32,2.08-3.32,4.09s1,4.12,3.42,4.12,3.25-2.08,3.25-4.2S1065.67,183.47,1063.36,183.47Z" transform="translate(2.35 2)" style="fill:#6d7b85"/><path d="M1070.39,182.14h1.79v1.47h0a3.63,3.63,0,0,1,3.46-1.72c3.34,0,5,2.65,5,5.71s-1.64,5.65-5,5.65a4.16,4.16,0,0,1-3.51-1.7h0v5.61h-1.79Zm5,1.32c-2.41,0-3.32,2.08-3.32,4.09s1,4.12,3.42,4.12,3.25-2.08,3.25-4.2S1077.74,183.47,1075.43,183.47Z" transform="translate(2.35 2)" style="fill:#6d7b85"/><path d="M1086.4,185.29l-4.93-7.29h2.39l3.74,5.86,3.91-5.86h2.23l-5,7.29L1094,193h-2.44l-4-6.19-4.16,6.19h-2.25Z" transform="translate(2.35 2)" style="fill:#6d7b85"/><path d="M1093.81,194.57h10.5v1.05h-10.5Z" transform="translate(2.35 2)" style="fill:#6d7b85"/><path d="M1111.78,193h-2.27l-5.29-15h2.16l4.28,13h0l4.33-13h2.08Z" transform="translate(2.35 2)" style="fill:#6d7b85"/><path d="M1123.71,193h-1.79V182.33h-3.86v-1.43c2,0,3.88-.53,4.28-2.79h1.37Z" transform="translate(2.35 2)" style="fill:#6d7b85"/><path d="M999.12,262.4c-.23-2.16-1.64-3.06-3.72-3.06-1.7,0-3.36.61-3.36,2.56,0,3.7,9.59,1.09,9.59,7,0,3.19-3.13,4.47-5.86,4.47-3.36,0-6.19-1.66-6.19-5.29h1.89c0,2.52,2.1,3.61,4.37,3.61,1.81,0,3.8-.57,3.8-2.73,0-4.12-9.59-1.41-9.59-6.91,0-3,2.69-4.39,5.44-4.39,3.06,0,5.42,1.45,5.52,4.74Z" transform="translate(2.35 2)" style="fill:#6d7b85"/><path d="M1005.95,262.14h2.16v1.58h-2.16v6.74c0,.84.23,1,1.34,1h.82V273h-1.37c-1.85,0-2.58-.38-2.58-2.37v-6.91h-1.85v-1.58h1.85v-3.25h1.78Z" transform="translate(2.35 2)" style="fill:#6d7b85"/><path d="M1019.26,273a2.52,2.52,0,0,1-1.28.29c-.92,0-1.51-.5-1.51-1.68a4.75,4.75,0,0,1-3.82,1.68c-2,0-3.59-.86-3.59-3,0-2.46,1.83-3,3.67-3.34s3.65-.23,3.65-1.6c0-1.57-1.3-1.81-2.42-1.81-1.51,0-2.62.46-2.71,2.06h-1.79c.11-2.69,2.16-3.63,4.6-3.63,2,0,4.07.44,4.07,3v5.58c0,.84,0,1.22.57,1.22a1.8,1.8,0,0,0,.55-.11Zm-2.9-5.56c-1.39,1-5.42,0-5.42,2.69,0,1.18,1,1.6,2.1,1.6,2.35,0,3.32-1.45,3.32-2.46Z" transform="translate(2.35 2)" style="fill:#6d7b85"/><path d="M1030.18,272.08c0,3.55-1.6,5.33-5,5.33-2,0-4.39-.84-4.49-3.19h1.79c.06,1.28,1.66,1.76,2.81,1.76,2.33,0,3.25-1.68,3.25-4.12v-.71h0a3.62,3.62,0,0,1-3.38,2c-3.23,0-4.85-2.54-4.85-5.5,0-2.56,1.24-5.73,5-5.73a3.54,3.54,0,0,1,3.23,1.81h0v-1.55h1.68Zm-1.76-4.72c0-1.91-.84-3.88-3.09-3.88s-3.21,1.87-3.21,3.95.71,4.14,3.07,4.14S1028.42,269.39,1028.42,267.35Z" transform="translate(2.35 2)" style="fill:#6d7b85"/><path d="M1041.77,269.56a4.35,4.35,0,0,1-4.64,3.7c-3.46,0-5.1-2.41-5.21-5.71s2.14-5.65,5.1-5.65c3.84,0,5,3.59,4.91,6.21h-8.13a3.2,3.2,0,0,0,3.38,3.57,2.59,2.59,0,0,0,2.81-2.12Zm-1.72-3a3.12,3.12,0,0,0-3.13-3.07,3.08,3.08,0,0,0-3.11,3.07Z" transform="translate(2.35 2)" style="fill:#6d7b85"/><path d="M1042.53,274.57H1053v1.05h-10.5Z" transform="translate(2.35 2)" style="fill:#6d7b85"/><path d="M1058.7,258h2.21l5.86,15h-2.21l-1.64-4.51h-6.34L1054.9,273h-2.06Zm-1.49,8.8h5.08l-2.5-7h0Z" transform="translate(2.35 2)" style="fill:#6d7b85"/><path d="M1068.19,262.14H1070v1.47h0a3.63,3.63,0,0,1,3.46-1.72c3.34,0,5,2.65,5,5.71s-1.64,5.65-5,5.65a4.16,4.16,0,0,1-3.51-1.7h0v5.61h-1.79Zm5,1.32c-2.41,0-3.32,2.08-3.32,4.09s1,4.12,3.42,4.12,3.25-2.08,3.25-4.2S1075.54,263.47,1073.23,263.47Z" transform="translate(2.35 2)" style="fill:#6d7b85"/><path d="M1080.27,262.14H1082v1.47h0a3.63,3.63,0,0,1,3.46-1.72c3.34,0,5,2.65,5,5.71s-1.64,5.65-5,5.65a4.16,4.16,0,0,1-3.51-1.7h0v5.61h-1.78Zm5,1.32c-2.42,0-3.32,2.08-3.32,4.09s1,4.12,3.42,4.12,3.25-2.08,3.25-4.2S1087.61,263.47,1085.3,263.47Z" transform="translate(2.35 2)" style="fill:#6d7b85"/><path d="M1096.27,265.29l-4.93-7.29h2.39l3.74,5.86,3.91-5.86h2.23l-5,7.29,5.27,7.71h-2.44l-4-6.19-4.16,6.19H1091Z" transform="translate(2.35 2)" style="fill:#6d7b85"/><path d="M1103.68,274.57h10.5v1.05h-10.5Z" transform="translate(2.35 2)" style="fill:#6d7b85"/><path d="M1121.65,273h-2.27l-5.29-15h2.16l4.28,13h0l4.32-13H1127Z" transform="translate(2.35 2)" style="fill:#6d7b85"/><path d="M1133.58,273h-1.78V262.33h-3.86v-1.43c2,0,3.88-.53,4.28-2.79h1.36Z" transform="translate(2.35 2)" style="fill:#6d7b85"/><path d="M994.48,339.69h-5V338h12v1.68h-5V353h-2Z" transform="translate(2.35 2)" style="fill:#6d7b85"/><path d="M1009.68,349.56a4.35,4.35,0,0,1-4.64,3.7c-3.46,0-5.1-2.41-5.21-5.71s2.14-5.65,5.1-5.65c3.84,0,5,3.59,4.91,6.21h-8.13a3.2,3.2,0,0,0,3.38,3.57,2.59,2.59,0,0,0,2.81-2.12Zm-1.72-3a3.12,3.12,0,0,0-3.13-3.07,3.08,3.08,0,0,0-3.11,3.07Z" transform="translate(2.35 2)" style="fill:#6d7b85"/><path d="M1012.86,349.58c.06,1.6,1.47,2.1,2.92,2.1,1.11,0,2.63-.25,2.63-1.62,0-2.79-7.1-.9-7.1-5.08,0-2.18,2.14-3.09,4.05-3.09,2.44,0,4.28.76,4.45,3.4H1018c-.1-1.39-1.36-1.83-2.52-1.83s-2.31.29-2.31,1.39c0,1.26,1.89,1.51,3.55,1.89s3.55,1,3.55,3.09c0,2.6-2.41,3.42-4.62,3.42-2.44,0-4.49-1-4.6-3.67Z" transform="translate(2.35 2)" style="fill:#6d7b85"/><path d="M1024.47,342.14h2.16v1.58h-2.16v6.74c0,.84.23,1,1.34,1h.82V353h-1.37c-1.85,0-2.58-.38-2.58-2.37v-6.91h-1.85v-1.58h1.85v-3.25h1.78Z" transform="translate(2.35 2)" style="fill:#6d7b85"/><path d="M1027.16,354.57h10.5v1.05h-10.5Z" transform="translate(2.35 2)" style="fill:#6d7b85"/><path d="M1043.33,338h2.2l5.86,15h-2.2l-1.64-4.51h-6.34l-1.68,4.51h-2.06Zm-1.49,8.8h5.08l-2.5-7h0Z" transform="translate(2.35 2)" style="fill:#6d7b85"/><path d="M1052.82,342.14h1.78v1.47h0a3.63,3.63,0,0,1,3.46-1.72c3.34,0,5,2.65,5,5.71s-1.64,5.65-5,5.65a4.16,4.16,0,0,1-3.51-1.7h0v5.61h-1.78Zm5,1.32c-2.42,0-3.32,2.08-3.32,4.09s1,4.12,3.42,4.12,3.25-2.08,3.25-4.2S1060.17,343.47,1057.86,343.47Z" transform="translate(2.35 2)" style="fill:#6d7b85"/><path d="M1064.89,342.14h1.79v1.47h0a3.63,3.63,0,0,1,3.46-1.72c3.34,0,5,2.65,5,5.71s-1.64,5.65-5,5.65a4.16,4.16,0,0,1-3.51-1.7h0v5.61h-1.79Zm5,1.32c-2.41,0-3.32,2.08-3.32,4.09s1,4.12,3.42,4.12,3.25-2.08,3.25-4.2S1072.24,343.47,1069.93,343.47Z" transform="translate(2.35 2)" style="fill:#6d7b85"/><path d="M1080.89,345.29,1076,338h2.39l3.74,5.86L1086,338h2.23l-5,7.29,5.27,7.71h-2.44l-4-6.19-4.16,6.19h-2.25Z" transform="translate(2.35 2)" style="fill:#6d7b85"/><path d="M1088.31,354.57h10.5v1.05h-10.5Z" transform="translate(2.35 2)" style="fill:#6d7b85"/><path d="M1106.28,353H1104l-5.29-15h2.16l4.28,13h0l4.33-13h2.08Z" transform="translate(2.35 2)" style="fill:#6d7b85"/><path d="M1118.21,353h-1.79V342.33h-3.86v-1.43c2,0,3.88-.53,4.28-2.79h1.37Z" transform="translate(2.35 2)" style="fill:#6d7b85"/><path d="M990.43,418h5.14c4.62,0,7.2,2.33,7.2,7.14,0,5-2.21,7.85-7.2,7.85h-5.14Zm2,13.31h3.32c1.36,0,5-.38,5-5.9,0-3.57-1.32-5.73-5-5.73h-3.36Z" transform="translate(2.35 2)" style="fill:#6d7b85"/><path d="M1014,429.56a4.35,4.35,0,0,1-4.64,3.7c-3.46,0-5.1-2.41-5.21-5.71s2.14-5.65,5.1-5.65c3.84,0,5,3.59,4.91,6.21H1006a3.2,3.2,0,0,0,3.38,3.57,2.59,2.59,0,0,0,2.81-2.12Zm-1.72-3a3.12,3.12,0,0,0-3.13-3.07,3.08,3.08,0,0,0-3.11,3.07Z" transform="translate(2.35 2)" style="fill:#6d7b85"/><path d="M1020.39,433h-1.91l-4-10.86h2l3,9h0l3-9h1.87Z" transform="translate(2.35 2)" style="fill:#6d7b85"/><path d="M1024.45,434.57h10.5v1.05h-10.5Z" transform="translate(2.35 2)" style="fill:#6d7b85"/><path d="M1040.62,418h2.2l5.86,15h-2.2l-1.64-4.51h-6.34l-1.68,4.51h-2.06Zm-1.49,8.8h5.08l-2.5-7h0Z" transform="translate(2.35 2)" style="fill:#6d7b85"/><path d="M1050.09,422.14h1.79v1.47h0a3.63,3.63,0,0,1,3.46-1.72c3.34,0,5,2.65,5,5.71s-1.64,5.65-5,5.65a4.16,4.16,0,0,1-3.51-1.7h0v5.61h-1.79Zm5,1.32c-2.41,0-3.32,2.08-3.32,4.09s1,4.12,3.42,4.12,3.25-2.08,3.25-4.2S1057.44,423.47,1055.13,423.47Z" transform="translate(2.35 2)" style="fill:#6d7b85"/><path d="M1062.16,422.14h1.78v1.47h0a3.63,3.63,0,0,1,3.46-1.72c3.34,0,5,2.65,5,5.71s-1.64,5.65-5,5.65a4.15,4.15,0,0,1-3.51-1.7h0v5.61h-1.78Zm5,1.32c-2.42,0-3.32,2.08-3.32,4.09s1,4.12,3.42,4.12,3.25-2.08,3.25-4.2S1069.51,423.47,1067.2,423.47Z" transform="translate(2.35 2)" style="fill:#6d7b85"/><path d="M1078.16,425.29l-4.93-7.29h2.39l3.74,5.86,3.9-5.86h2.23l-5,7.29,5.27,7.71h-2.44l-4-6.19-4.16,6.19h-2.25Z" transform="translate(2.35 2)" style="fill:#6d7b85"/><path d="M1085.58,434.57h10.5v1.05h-10.5Z" transform="translate(2.35 2)" style="fill:#6d7b85"/><path d="M1103.55,433h-2.27L1096,418h2.16l4.28,13h0l4.33-13h2.08Z" transform="translate(2.35 2)" style="fill:#6d7b85"/><path d="M1115.48,433h-1.79V422.33h-3.86v-1.43c2,0,3.88-.53,4.28-2.79h1.37Z" transform="translate(2.35 2)" style="fill:#6d7b85"/></g><g style="clip-path:url(#df)"><g style="clip-path:url(#b)"><rect x="1265.35" y="145" width="84" height="90" style="fill:#dfe3e6"/></g></g><g style="clip-path:url(#dh)"><g style="clip-path:url(#b)"><rect x="1265.35" y="225" width="84" height="90" style="fill:#8c9ba5"/></g></g><g style="clip-path:url(#dj)"><g style="clip-path:url(#b)"><rect x="1265.35" y="305" width="84" height="90" style="fill:#5a6872"/></g></g><g style="clip-path:url(#dl)"><g style="clip-path:url(#b)"><rect x="1265.35" y="385" width="84" height="90" style="fill:#2d3f49"/></g></g><g style="clip-path:url(#dn)"><g style="clip-path:url(#do)"><g style="clip-path:url(#b)"><circle cx="1307.85" cy="190.5" r="7.5" style="fill:#fff"/></g></g></g><g style="clip-path:url(#do)"><g style="clip-path:url(#b)"><circle cx="1307.85" cy="190.5" r="7.5" style="fill:none;stroke:#0f212e;stroke-miterlimit:10;stroke-width:6px"/></g></g><g style="clip-path:url(#b)"><line x1="1307.35" y1="197" x2="1307.35" y2="429.95" style="fill:none;stroke:#0f212e;stroke-linecap:square;stroke-miterlimit:10;stroke-width:3px"/></g><g style="clip-path:url(#dt)"><g style="clip-path:url(#du)"><g style="clip-path:url(#b)"><circle cx="1307.85" cy="270.5" r="7.5" style="fill:#fff"/></g></g></g><g style="clip-path:url(#du)"><g style="clip-path:url(#b)"><circle cx="1307.85" cy="270.5" r="7.5" style="fill:none;stroke:#0f212e;stroke-miterlimit:10;stroke-width:6px"/></g></g><g style="clip-path:url(#dy)"><g style="clip-path:url(#dz)"><g style="clip-path:url(#b)"><circle cx="1307.85" cy="350.5" r="7.5" style="fill:#fff"/></g></g></g><g style="clip-path:url(#dz)"><g style="clip-path:url(#b)"><circle cx="1307.85" cy="350.5" r="7.5" style="fill:none;stroke:#0f212e;stroke-miterlimit:10;stroke-width:6px"/></g></g><g style="clip-path:url(#ed)"><g style="clip-path:url(#ee)"><g style="clip-path:url(#b)"><circle cx="1307.85" cy="430.5" r="7.5" style="fill:#fff"/></g></g></g><g style="clip-path:url(#ee)"><g style="clip-path:url(#b)"><circle cx="1307.85" cy="430.5" r="7.5" style="fill:none;stroke:#0f212e;stroke-miterlimit:10;stroke-width:6px"/></g></g><g style="clip-path:url(#b)"><path d="M1370.43,178H1377c3,0,4.6,1.64,4.6,4.43s-1.6,4.45-4.6,4.43h-4.58V193h-2Zm2,7.18h3.91c2.27,0,3.28-1,3.28-2.75s-1-2.75-3.28-2.75h-3.91Z" transform="translate(2.35 2)" style="fill:#6d7b85"/><path d="M1383.38,182.14h1.68v2.29h0a3.92,3.92,0,0,1,4-2.54v1.89c-2.88,0-3.93,1.62-3.93,4.39V193h-1.79Z" transform="translate(2.35 2)" style="fill:#6d7b85"/><path d="M1394.68,181.89c3.44,0,5.27,2.5,5.27,5.69s-1.83,5.67-5.27,5.67-5.27-2.5-5.27-5.67S1391.24,181.89,1394.68,181.89Zm0,9.79c1.87,0,3.38-1.47,3.38-4.09s-1.51-4.12-3.38-4.12-3.38,1.49-3.38,4.12S1392.81,191.68,1394.68,191.68Z" transform="translate(2.35 2)" style="fill:#6d7b85"/><path d="M1411.63,193h-1.78v-1.47h0a3.63,3.63,0,0,1-3.46,1.72c-3.34,0-5-2.65-5-5.71s1.64-5.65,5-5.65a4.16,4.16,0,0,1,3.51,1.7h0V178h1.78Zm-5-1.32c2.42,0,3.32-2.08,3.32-4.09s-1-4.12-3.42-4.12-3.25,2.08-3.25,4.2S1404.28,191.68,1406.59,191.68Z" transform="translate(2.35 2)" style="fill:#6d7b85"/><path d="M1412.68,194.57h10.5v1.05h-10.5Z" transform="translate(2.35 2)" style="fill:#6d7b85"/><path d="M1428.85,178h2.21l5.86,15h-2.2l-1.64-4.51h-6.34L1425,193H1423Zm-1.49,8.8h5.08l-2.5-7h0Z" transform="translate(2.35 2)" style="fill:#6d7b85"/><path d="M1438.32,182.14h1.78v1.47h0a3.63,3.63,0,0,1,3.46-1.72c3.34,0,5,2.65,5,5.71s-1.64,5.65-5,5.65a4.16,4.16,0,0,1-3.51-1.7h0v5.61h-1.78Zm5,1.32c-2.42,0-3.32,2.08-3.32,4.09s1,4.12,3.42,4.12,3.25-2.08,3.25-4.2S1445.67,183.47,1443.36,183.47Z" transform="translate(2.35 2)" style="fill:#6d7b85"/><path d="M1450.39,182.14h1.79v1.47h0a3.63,3.63,0,0,1,3.46-1.72c3.34,0,5,2.65,5,5.71s-1.64,5.65-5,5.65a4.16,4.16,0,0,1-3.51-1.7h0v5.61h-1.79Zm5,1.32c-2.41,0-3.32,2.08-3.32,4.09s1,4.12,3.42,4.12,3.25-2.08,3.25-4.2S1457.74,183.47,1455.43,183.47Z" transform="translate(2.35 2)" style="fill:#6d7b85"/><path d="M1469,186.87V193h-2v-6.13l-5.79-8.86h2.37l4.49,7.14,4.39-7.14h2.27Z" transform="translate(2.35 2)" style="fill:#6d7b85"/><path d="M1474.57,194.57h10.5v1.05h-10.5Z" transform="translate(2.35 2)" style="fill:#6d7b85"/><path d="M1492.54,193h-2.27L1485,178h2.16l4.28,13h0l4.33-13h2.08Z" transform="translate(2.35 2)" style="fill:#6d7b85"/><path d="M1504.47,193h-1.79V182.33h-3.86v-1.43c2,0,3.88-.53,4.28-2.79h1.37Z" transform="translate(2.35 2)" style="fill:#6d7b85"/><path d="M1379.12,262.4c-.23-2.16-1.64-3.06-3.72-3.06-1.7,0-3.36.61-3.36,2.56,0,3.7,9.59,1.09,9.59,7,0,3.19-3.13,4.47-5.86,4.47-3.36,0-6.19-1.66-6.19-5.29h1.89c0,2.52,2.1,3.61,4.37,3.61,1.81,0,3.8-.57,3.8-2.73,0-4.12-9.59-1.41-9.59-6.91,0-3,2.69-4.39,5.44-4.39,3.06,0,5.42,1.45,5.52,4.74Z" transform="translate(2.35 2)" style="fill:#6d7b85"/><path d="M1385.95,262.14h2.16v1.58h-2.16v6.74c0,.84.23,1,1.34,1h.82V273h-1.37c-1.85,0-2.58-.38-2.58-2.37v-6.91h-1.85v-1.58h1.85v-3.25h1.78Z" transform="translate(2.35 2)" style="fill:#6d7b85"/><path d="M1399.26,273a2.52,2.52,0,0,1-1.28.29c-.92,0-1.51-.5-1.51-1.68a4.75,4.75,0,0,1-3.82,1.68c-2,0-3.59-.86-3.59-3,0-2.46,1.83-3,3.67-3.34s3.65-.23,3.65-1.6c0-1.57-1.3-1.81-2.42-1.81-1.51,0-2.62.46-2.71,2.06h-1.79c.11-2.69,2.16-3.63,4.6-3.63,2,0,4.07.44,4.07,3v5.58c0,.84,0,1.22.57,1.22a1.8,1.8,0,0,0,.55-.11Zm-2.9-5.56c-1.39,1-5.42,0-5.42,2.69,0,1.18,1,1.6,2.1,1.6,2.35,0,3.32-1.45,3.32-2.46Z" transform="translate(2.35 2)" style="fill:#6d7b85"/><path d="M1410.18,272.08c0,3.55-1.6,5.33-5,5.33-2,0-4.39-.84-4.49-3.19h1.79c.06,1.28,1.66,1.76,2.81,1.76,2.33,0,3.25-1.68,3.25-4.12v-.71h0a3.62,3.62,0,0,1-3.38,2c-3.23,0-4.85-2.54-4.85-5.5,0-2.56,1.24-5.73,5-5.73a3.54,3.54,0,0,1,3.23,1.81h0v-1.55h1.68Zm-1.76-4.72c0-1.91-.84-3.88-3.09-3.88s-3.21,1.87-3.21,3.95.71,4.14,3.07,4.14S1408.42,269.39,1408.42,267.35Z" transform="translate(2.35 2)" style="fill:#6d7b85"/><path d="M1421.77,269.56a4.35,4.35,0,0,1-4.64,3.7c-3.46,0-5.1-2.41-5.21-5.71s2.14-5.65,5.1-5.65c3.84,0,5,3.59,4.91,6.21h-8.13a3.2,3.2,0,0,0,3.38,3.57,2.59,2.59,0,0,0,2.81-2.12Zm-1.72-3a3.12,3.12,0,0,0-3.13-3.07,3.08,3.08,0,0,0-3.11,3.07Z" transform="translate(2.35 2)" style="fill:#6d7b85"/><path d="M1422.53,274.57H1433v1.05h-10.5Z" transform="translate(2.35 2)" style="fill:#6d7b85"/><path d="M1438.7,258h2.21l5.86,15h-2.21l-1.64-4.51h-6.34L1434.9,273h-2.06Zm-1.49,8.8h5.08l-2.5-7h0Z" transform="translate(2.35 2)" style="fill:#6d7b85"/><path d="M1448.19,262.14H1450v1.47h0a3.63,3.63,0,0,1,3.46-1.72c3.34,0,5,2.65,5,5.71s-1.64,5.65-5,5.65a4.16,4.16,0,0,1-3.51-1.7h0v5.61h-1.79Zm5,1.32c-2.41,0-3.32,2.08-3.32,4.09s1,4.12,3.42,4.12,3.25-2.08,3.25-4.2S1455.54,263.47,1453.23,263.47Z" transform="translate(2.35 2)" style="fill:#6d7b85"/><path d="M1460.27,262.14H1462v1.47h0a3.63,3.63,0,0,1,3.46-1.72c3.34,0,5,2.65,5,5.71s-1.64,5.65-5,5.65a4.16,4.16,0,0,1-3.51-1.7h0v5.61h-1.78Zm5,1.32c-2.42,0-3.32,2.08-3.32,4.09s1,4.12,3.42,4.12,3.25-2.08,3.25-4.2S1467.61,263.47,1465.3,263.47Z" transform="translate(2.35 2)" style="fill:#6d7b85"/><path d="M1478.89,266.87V273h-2v-6.13L1471.1,258h2.37l4.49,7.14,4.39-7.14h2.27Z" transform="translate(2.35 2)" style="fill:#6d7b85"/><path d="M1484.44,274.57h10.5v1.05h-10.5Z" transform="translate(2.35 2)" style="fill:#6d7b85"/><path d="M1502.41,273h-2.27l-5.29-15H1497l4.28,13h0l4.32-13h2.08Z" transform="translate(2.35 2)" style="fill:#6d7b85"/><path d="M1514.34,273h-1.78V262.33h-3.86v-1.43c2,0,3.88-.53,4.28-2.79h1.36Z" transform="translate(2.35 2)" style="fill:#6d7b85"/><path d="M1374.48,339.69h-5V338h12v1.68h-5V353h-2Z" transform="translate(2.35 2)" style="fill:#6d7b85"/><path d="M1389.68,349.56a4.35,4.35,0,0,1-4.64,3.7c-3.46,0-5.1-2.41-5.21-5.71s2.14-5.65,5.1-5.65c3.84,0,5,3.59,4.91,6.21h-8.13a3.2,3.2,0,0,0,3.38,3.57,2.59,2.59,0,0,0,2.81-2.12Zm-1.72-3a3.12,3.12,0,0,0-3.13-3.07,3.08,3.08,0,0,0-3.11,3.07Z" transform="translate(2.35 2)" style="fill:#6d7b85"/><path d="M1392.86,349.58c.06,1.6,1.47,2.1,2.92,2.1,1.11,0,2.63-.25,2.63-1.62,0-2.79-7.1-.9-7.1-5.08,0-2.18,2.14-3.09,4.05-3.09,2.44,0,4.28.76,4.45,3.4H1398c-.1-1.39-1.36-1.83-2.52-1.83s-2.31.29-2.31,1.39c0,1.26,1.89,1.51,3.55,1.89s3.55,1,3.55,3.09c0,2.6-2.41,3.42-4.62,3.42-2.44,0-4.49-1-4.6-3.67Z" transform="translate(2.35 2)" style="fill:#6d7b85"/><path d="M1404.47,342.14h2.16v1.58h-2.16v6.74c0,.84.23,1,1.34,1h.82V353h-1.37c-1.85,0-2.58-.38-2.58-2.37v-6.91h-1.85v-1.58h1.85v-3.25h1.78Z" transform="translate(2.35 2)" style="fill:#6d7b85"/><path d="M1407.16,354.57h10.5v1.05h-10.5Z" transform="translate(2.35 2)" style="fill:#6d7b85"/><path d="M1423.33,338h2.2l5.86,15h-2.2l-1.64-4.51h-6.34l-1.68,4.51h-2.06Zm-1.49,8.8h5.08l-2.5-7h0Z" transform="translate(2.35 2)" style="fill:#6d7b85"/><path d="M1432.82,342.14h1.78v1.47h0a3.63,3.63,0,0,1,3.46-1.72c3.34,0,5,2.65,5,5.71s-1.64,5.65-5,5.65a4.16,4.16,0,0,1-3.51-1.7h0v5.61h-1.78Zm5,1.32c-2.42,0-3.32,2.08-3.32,4.09s1,4.12,3.42,4.12,3.25-2.08,3.25-4.2S1440.17,343.47,1437.86,343.47Z" transform="translate(2.35 2)" style="fill:#6d7b85"/><path d="M1444.89,342.14h1.79v1.47h0a3.63,3.63,0,0,1,3.46-1.72c3.34,0,5,2.65,5,5.71s-1.64,5.65-5,5.65a4.16,4.16,0,0,1-3.51-1.7h0v5.61h-1.79Zm5,1.32c-2.41,0-3.32,2.08-3.32,4.09s1,4.12,3.42,4.12,3.25-2.08,3.25-4.2S1452.24,343.47,1449.93,343.47Z" transform="translate(2.35 2)" style="fill:#6d7b85"/><path d="M1463.52,346.87V353h-2v-6.13l-5.79-8.86h2.37l4.49,7.14L1467,338h2.27Z" transform="translate(2.35 2)" style="fill:#6d7b85"/><path d="M1469.06,354.57h10.5v1.05h-10.5Z" transform="translate(2.35 2)" style="fill:#6d7b85"/><path d="M1487,353h-2.27l-5.29-15h2.16l4.28,13h0l4.33-13h2.08Z" transform="translate(2.35 2)" style="fill:#6d7b85"/><path d="M1499,353h-1.79V342.33h-3.86v-1.43c2,0,3.88-.53,4.28-2.79H1499Z" transform="translate(2.35 2)" style="fill:#6d7b85"/><path d="M1370.43,418h5.14c4.62,0,7.2,2.33,7.2,7.14,0,5-2.21,7.85-7.2,7.85h-5.14Zm2,13.31h3.32c1.36,0,5-.38,5-5.9,0-3.57-1.32-5.73-5-5.73h-3.36Z" transform="translate(2.35 2)" style="fill:#6d7b85"/><path d="M1394,429.56a4.35,4.35,0,0,1-4.64,3.7c-3.46,0-5.1-2.41-5.21-5.71s2.14-5.65,5.1-5.65c3.84,0,5,3.59,4.91,6.21H1386a3.2,3.2,0,0,0,3.38,3.57,2.59,2.59,0,0,0,2.81-2.12Zm-1.72-3a3.12,3.12,0,0,0-3.13-3.07,3.08,3.08,0,0,0-3.11,3.07Z" transform="translate(2.35 2)" style="fill:#6d7b85"/><path d="M1400.39,433h-1.91l-4-10.86h2l3,9h0l3-9h1.87Z" transform="translate(2.35 2)" style="fill:#6d7b85"/><path d="M1404.45,434.57h10.5v1.05h-10.5Z" transform="translate(2.35 2)" style="fill:#6d7b85"/><path d="M1420.62,418h2.2l5.86,15h-2.2l-1.64-4.51h-6.34l-1.68,4.51h-2.06Zm-1.49,8.8h5.08l-2.5-7h0Z" transform="translate(2.35 2)" style="fill:#6d7b85"/><path d="M1430.09,422.14h1.79v1.47h0a3.63,3.63,0,0,1,3.46-1.72c3.34,0,5,2.65,5,5.71s-1.64,5.65-5,5.65a4.16,4.16,0,0,1-3.51-1.7h0v5.61h-1.79Zm5,1.32c-2.41,0-3.32,2.08-3.32,4.09s1,4.12,3.42,4.12,3.25-2.08,3.25-4.2S1437.44,423.47,1435.13,423.47Z" transform="translate(2.35 2)" style="fill:#6d7b85"/><path d="M1442.16,422.14h1.78v1.47h0a3.63,3.63,0,0,1,3.46-1.72c3.34,0,5,2.65,5,5.71s-1.64,5.65-5,5.65a4.15,4.15,0,0,1-3.51-1.7h0v5.61h-1.78Zm5,1.32c-2.42,0-3.32,2.08-3.32,4.09s1,4.12,3.42,4.12,3.25-2.08,3.25-4.2S1449.51,423.47,1447.2,423.47Z" transform="translate(2.35 2)" style="fill:#6d7b85"/><path d="M1460.79,426.87V433h-2v-6.13L1453,418h2.37l4.49,7.14,4.39-7.14h2.27Z" transform="translate(2.35 2)" style="fill:#6d7b85"/><path d="M1466.33,434.57h10.5v1.05h-10.5Z" transform="translate(2.35 2)" style="fill:#6d7b85"/><path d="M1484.31,433H1482l-5.29-15h2.16l4.28,13h0l4.33-13h2.08Z" transform="translate(2.35 2)" style="fill:#6d7b85"/><path d="M1496.24,433h-1.79V422.33h-3.86v-1.43c2,0,3.88-.53,4.28-2.79h1.37Z" transform="translate(2.35 2)" style="fill:#6d7b85"/></g></svg>