<svg xmlns="http://www.w3.org/2000/svg" xmlns:xlink="http://www.w3.org/1999/xlink" viewBox="0 0 586 669"><defs><clipPath id="a" transform="translate(3 3)"><rect y="233" width="580" height="430" style="fill:none"/></clipPath><clipPath id="b" transform="translate(3 3)"><rect x="-1" y="-1" width="583" height="666" style="fill:none"/></clipPath><clipPath id="d" transform="translate(3 3)"><rect x="300" width="280" height="215" style="fill:none"/></clipPath><clipPath id="g" transform="translate(3 3)"><polygon points="440 68 477 88 477 128 440 148 403 128 403 88 440 68" style="fill:none;clip-rule:evenodd"/></clipPath><clipPath id="i" transform="translate(3 3)"><polygon points="440 68 477 88 477 128 440 148 440 68" style="fill:none;clip-rule:evenodd"/></clipPath><clipPath id="k" transform="translate(3 3)"><rect width="280" height="215" style="fill:none"/></clipPath><clipPath id="n" transform="translate(3 3)"><polygon points="140 68 177 88 177 128 140 148 103 128 103 88 140 68" style="fill:none;clip-rule:evenodd"/></clipPath><clipPath id="p" transform="translate(3 3)"><polygon points="140 68 177 88 177 128 140 148 140 68" style="fill:none;clip-rule:evenodd"/></clipPath><clipPath id="s" transform="translate(3 3)"><rect x="30" y="316" width="160" height="65" style="fill:none"/></clipPath><clipPath id="v" transform="translate(3 3)"><polygon points="290 500 327 520 327 560 290 580 253 560 253 520 290 500" style="fill:none;clip-rule:evenodd"/></clipPath><clipPath id="x" transform="translate(3 3)"><polygon points="290 500 327 520 327 560 290 580 290 500" style="fill:none;clip-rule:evenodd"/></clipPath><clipPath id="z" transform="translate(3 3)"><path d="M110.5,385.5a6,6,0,1,1,6-6A6,6,0,0,1,110.5,385.5Zm0,3a9,9,0,1,0-9-9A9,9,0,0,0,110.5,388.5Zm-29-38h58v58h-58Z" style="fill:none;clip-rule:evenodd"/></clipPath><clipPath id="aa" transform="translate(3 3)"><circle cx="110.5" cy="379.5" r="7.5" style="fill:none"/></clipPath><clipPath id="af" transform="translate(3 3)"><rect x="210" y="316" width="160" height="65" style="fill:none"/></clipPath><clipPath id="ai" transform="translate(3 3)"><rect x="390" y="316" width="160" height="65" style="fill:none"/></clipPath><clipPath id="ak" transform="translate(3 3)"><path d="M470.5,385.5a6,6,0,1,1,6-6A6,6,0,0,1,470.5,385.5Zm0,3a9,9,0,1,0-9-9A9,9,0,0,0,470.5,388.5Zm-29-38h58v58h-58Z" style="fill:none;clip-rule:evenodd"/></clipPath><clipPath id="al" transform="translate(3 3)"><circle cx="470.5" cy="379.5" r="7.5" style="fill:none"/></clipPath><clipPath id="aq" transform="translate(3 3)"><path d="M290.5,385.5a6,6,0,1,1,6-6A6,6,0,0,1,290.5,385.5Zm0,3a9,9,0,1,0-9-9A9,9,0,0,0,290.5,388.5Zm-29-38h58v58h-58Z" style="fill:none;clip-rule:evenodd"/></clipPath><clipPath id="ar" transform="translate(3 3)"><circle cx="290.5" cy="379.5" r="7.5" style="fill:none"/></clipPath></defs><title>documentation-pdl-org-region-V01-ML</title><g style="clip-path:url(#a)"><g style="clip-path:url(#b)"><rect x="3" y="236" width="580" height="430" style="fill:none;stroke:#dfe3e6;stroke-miterlimit:10;stroke-width:6px;stroke-dasharray:10,10"/></g></g><g style="clip-path:url(#b)"><path d="M30.67,263h7.05c2.86,0,4.79.92,4.79,3.72a3.26,3.26,0,0,1-2,3.13,3.64,3.64,0,0,1,2.75,3.8c0,3-2.58,4.35-5.29,4.35H30.67Zm3.3,6.07h3.34c1.18,0,2-.52,2-1.78s-1.09-1.72-2.27-1.72H34Zm0,6.36h3.53c1.28,0,2.44-.42,2.44-2s-.94-2.14-2.37-2.14H34Z" transform="translate(3 3)" style="fill:#6d7b85"/><path d="M44.85,263h3v15h-3Z" transform="translate(3 3)" style="fill:#6d7b85"/><path d="M60,278H57.19v-1.51h-.06a3.83,3.83,0,0,1-3.32,1.81c-3.17,0-4-1.78-4-4.47v-6.68h3v6.13c0,1.79.5,2.67,1.91,2.67,1.62,0,2.31-.9,2.31-3.11v-5.69h3Z" transform="translate(3 3)" style="fill:#6d7b85"/><path d="M64.48,273.3c.08,1.91,1,2.75,2.67,2.75a2.45,2.45,0,0,0,2.35-1.41h2.62A4.86,4.86,0,0,1,67,278.29c-3.42,0-5.54-2.35-5.54-5.71A5.44,5.44,0,0,1,67,266.85c3.7,0,5.5,3.11,5.27,6.45Zm4.85-1.89c-.27-1.51-.92-2.31-2.37-2.31a2.34,2.34,0,0,0-2.48,2.31Z" transform="translate(3 3)" style="fill:#6d7b85"/><path d="M74,267.14h2.81v1.47h0a3.89,3.89,0,0,1,3.32-1.76,3.18,3.18,0,0,1,3.17,1.8,4,4,0,0,1,3.28-1.8c2.31,0,4,1.07,4,3.88V278h-3v-6.15c0-1.45-.13-2.64-1.83-2.64s-2,1.41-2,2.75v6h-3v-6.09c0-1.26.08-2.71-1.81-2.71-.59,0-2,.38-2,2.5V278H74Z" transform="translate(3 3)" style="fill:#6d7b85"/><path d="M95.62,265.46h-3V263h3Zm-3,1.68h3V278h-3Z" transform="translate(3 3)" style="fill:#6d7b85"/><path d="M100.41,272.29l-3.57-5.14h3.4l1.91,2.83,1.89-2.83h3.3l-3.57,5.08,4,5.77h-3.4l-2.27-3.42L99.84,278H96.5Z" transform="translate(3 3)" style="fill:#6d7b85"/><path d="M113.85,263h6.76c3.76,0,5.19,2.37,5.19,4.81s-1.43,4.81-5.19,4.81h-3.46V278h-3.3Zm3.3,7.05h2.56c1.51,0,2.9-.34,2.9-2.25s-1.39-2.25-2.9-2.25h-2.56Z" transform="translate(3 3)" style="fill:#6d7b85"/><path d="M137.14,278H134.3v-1.51h-.06a3.83,3.83,0,0,1-3.32,1.81c-3.17,0-4-1.78-4-4.47v-6.68h3v6.13c0,1.79.5,2.67,1.91,2.67,1.62,0,2.31-.9,2.31-3.11v-5.69h3Z" transform="translate(3 3)" style="fill:#6d7b85"/><path d="M139.16,263h3v5.46h0a4,4,0,0,1,3.42-1.62c2.16,0,4.49,1.74,4.49,5.71s-2.33,5.73-4.49,5.73a3.76,3.76,0,0,1-3.57-1.68h0V278h-2.83Zm5.42,6.09c-1.76,0-2.54,1.64-2.54,3.49s.78,3.46,2.54,3.46,2.54-1.66,2.54-3.46S146.34,269.1,144.57,269.1Z" transform="translate(3 3)" style="fill:#6d7b85"/><path d="M151.73,263h3v15h-3Z" transform="translate(3 3)" style="fill:#6d7b85"/><path d="M159.8,265.46h-3V263h3Zm-3,1.68h3V278h-3Z" transform="translate(3 3)" style="fill:#6d7b85"/><path d="M169.2,271a2,2,0,0,0-2.2-1.87c-1.91,0-2.54,1.93-2.54,3.53s.61,3.42,2.48,3.42a2.27,2.27,0,0,0,2.37-2.2h2.88a4.85,4.85,0,0,1-5.23,4.45,5.27,5.27,0,0,1-5.48-5.56c0-3.38,2-5.88,5.54-5.88,2.56,0,4.93,1.34,5.1,4.12Z" transform="translate(3 3)" style="fill:#6d7b85"/></g><g style="clip-path:url(#d)"><g style="clip-path:url(#b)"><rect x="303" y="3" width="280" height="215" style="fill:none;stroke:#dfe3e6;stroke-miterlimit:10;stroke-width:6px;stroke-dasharray:10,10"/></g></g><g style="clip-path:url(#b)"><path d="M350.41,29h7.05c2.86,0,4.79.92,4.79,3.72a3.26,3.26,0,0,1-2,3.13,3.64,3.64,0,0,1,2.75,3.8c0,3-2.58,4.35-5.29,4.35h-7.26Zm3.3,6.07H357c1.18,0,2-.52,2-1.78s-1.09-1.72-2.27-1.72h-3.09Zm0,6.36h3.53c1.28,0,2.44-.42,2.44-2s-.94-2.14-2.37-2.14h-3.59Z" transform="translate(3 3)" style="fill:#6d7b85"/><path d="M364.58,29h3V44h-3Z" transform="translate(3 3)" style="fill:#6d7b85"/><path d="M379.77,44h-2.83V42.49h-.06a3.83,3.83,0,0,1-3.32,1.81c-3.17,0-4-1.78-4-4.47V33.14h3v6.13c0,1.79.5,2.67,1.91,2.67,1.62,0,2.31-.9,2.31-3.11V33.14h3Z" transform="translate(3 3)" style="fill:#6d7b85"/><path d="M384.22,39.3c.08,1.91,1,2.75,2.67,2.75a2.45,2.45,0,0,0,2.35-1.41h2.62a4.86,4.86,0,0,1-5.08,3.65c-3.42,0-5.54-2.35-5.54-5.71a5.44,5.44,0,0,1,5.54-5.73c3.7,0,5.5,3.11,5.27,6.45Zm4.85-1.89c-.27-1.51-.92-2.31-2.37-2.31a2.34,2.34,0,0,0-2.48,2.31Z" transform="translate(3 3)" style="fill:#6d7b85"/><path d="M393.69,33.14h2.81v1.47h0a3.89,3.89,0,0,1,3.32-1.76,3.18,3.18,0,0,1,3.17,1.8,4,4,0,0,1,3.28-1.8c2.31,0,4,1.07,4,3.88V44h-3V37.85c0-1.45-.13-2.64-1.83-2.64s-2,1.41-2,2.75v6h-3V37.91c0-1.26.08-2.71-1.81-2.71-.59,0-2,.38-2,2.5V44h-3Z" transform="translate(3 3)" style="fill:#6d7b85"/><path d="M415.36,31.46h-3V29h3Zm-3,1.68h3V44h-3Z" transform="translate(3 3)" style="fill:#6d7b85"/><path d="M420.15,38.29l-3.57-5.14H420L421.89,36l1.89-2.83h3.3l-3.57,5.08,4,5.77h-3.4l-2.27-3.42L419.58,44h-3.34Z" transform="translate(3 3)" style="fill:#6d7b85"/><path d="M433.59,29h6.47c3.88,0,6.8,2.46,6.8,7.41,0,4.35-2.23,7.58-6.8,7.58h-6.47Zm3.3,12.22h2.94c1.91,0,3.74-1.18,3.74-4.49,0-3-1.07-5-4.33-5h-2.35Z" transform="translate(3 3)" style="fill:#6d7b85"/><path d="M451,39.3c.08,1.91,1,2.75,2.67,2.75A2.45,2.45,0,0,0,456,40.64h2.62a4.86,4.86,0,0,1-5.08,3.65c-3.42,0-5.54-2.35-5.54-5.71a5.44,5.44,0,0,1,5.54-5.73c3.7,0,5.5,3.11,5.27,6.45Zm4.85-1.89c-.27-1.51-.92-2.31-2.37-2.31A2.34,2.34,0,0,0,451,37.41Z" transform="translate(3 3)" style="fill:#6d7b85"/><path d="M468.11,42.61h0a3.58,3.58,0,0,1-3.3,1.68c-3.28,0-4.87-2.79-4.87-5.82s1.62-5.63,4.81-5.63a3.73,3.73,0,0,1,3.21,1.62h0V29h3V44h-2.83Zm-2.6-7.52c-2,0-2.62,1.7-2.62,3.46s.78,3.48,2.62,3.48,2.56-1.72,2.56-3.51S467.44,35.1,465.51,35.1Z" transform="translate(3 3)" style="fill:#6d7b85"/><path d="M475.92,31.46h-3V29h3Zm-3,1.68h3V44h-3Z" transform="translate(3 3)" style="fill:#6d7b85"/><path d="M485.33,37a2,2,0,0,0-2.2-1.87c-1.91,0-2.54,1.93-2.54,3.53s.61,3.42,2.48,3.42a2.27,2.27,0,0,0,2.37-2.2h2.88a4.85,4.85,0,0,1-5.23,4.45,5.27,5.27,0,0,1-5.48-5.56c0-3.38,2-5.88,5.54-5.88,2.56,0,4.93,1.34,5.1,4.12Z" transform="translate(3 3)" style="fill:#6d7b85"/><path d="M489.53,36.48c.17-2.77,2.67-3.63,5.1-3.63,2.16,0,4.77.48,4.77,3.09v5.65a5.56,5.56,0,0,0,.38,2.41h-3a4.44,4.44,0,0,1-.21-1,4.94,4.94,0,0,1-3.65,1.34c-2.08,0-3.7-1-3.7-3.25,0-4.93,7.35-2.29,7.22-4.72,0-1.26-.88-1.47-1.93-1.47s-1.87.46-2,1.64Zm6.89,2.2a5.92,5.92,0,0,1-2.48.63c-.92.17-1.76.5-1.76,1.6S493,42.3,494,42.3a2.21,2.21,0,0,0,2.41-2.5Z" transform="translate(3 3)" style="fill:#6d7b85"/><path d="M505.24,33.14h2.18v2h-2.18v5.38c0,1,.25,1.26,1.26,1.26a4.17,4.17,0,0,0,.92-.08V44a11.44,11.44,0,0,1-1.74.1c-1.85,0-3.42-.4-3.42-2.58v-6.4h-1.81v-2h1.81V29.89h3Z" transform="translate(3 3)" style="fill:#6d7b85"/><path d="M510.91,39.3c.08,1.91,1,2.75,2.67,2.75a2.45,2.45,0,0,0,2.35-1.41h2.62a4.86,4.86,0,0,1-5.08,3.65c-3.42,0-5.54-2.35-5.54-5.71a5.44,5.44,0,0,1,5.54-5.73c3.7,0,5.5,3.11,5.27,6.45Zm4.85-1.89c-.27-1.51-.92-2.31-2.37-2.31a2.34,2.34,0,0,0-2.48,2.31Z" transform="translate(3 3)" style="fill:#6d7b85"/><path d="M528,42.61h0a3.58,3.58,0,0,1-3.3,1.68c-3.28,0-4.87-2.79-4.87-5.82s1.62-5.63,4.81-5.63a3.73,3.73,0,0,1,3.21,1.62h0V29h3V44H528Zm-2.6-7.52c-2,0-2.62,1.7-2.62,3.46s.78,3.48,2.62,3.48S528,40.33,528,38.54,527.37,35.1,525.44,35.1Z" transform="translate(3 3)" style="fill:#6d7b85"/><path d="M389.87,166.65c4.77,0,7.18,3.76,7.18,7.85s-2.41,7.85-7.18,7.85-7.18-3.76-7.18-7.85S385.11,166.65,389.87,166.65Zm0,14c3.65,0,5.19-3.15,5.19-6.17s-1.53-6.17-5.19-6.17-5.19,3.15-5.19,6.17S386.22,180.68,389.87,180.68Z" transform="translate(3 3)" style="fill:#6d7b85"/><path d="M398.86,171.14h1.68v2.29h0a3.92,3.92,0,0,1,4-2.54v1.89c-2.88,0-3.93,1.62-3.93,4.39V182h-1.78Z" transform="translate(3 3)" style="fill:#6d7b85"/><path d="M414.84,181.08c0,3.55-1.6,5.33-5,5.33-2,0-4.39-.84-4.49-3.19h1.78c.06,1.28,1.66,1.76,2.81,1.76,2.33,0,3.25-1.68,3.25-4.12v-.71h0a3.62,3.62,0,0,1-3.38,2c-3.23,0-4.85-2.54-4.85-5.5,0-2.56,1.24-5.73,5-5.73a3.54,3.54,0,0,1,3.23,1.81h0v-1.55h1.68Zm-1.76-4.72c0-1.91-.84-3.88-3.09-3.88s-3.21,1.87-3.21,3.95.71,4.14,3.07,4.14S413.08,178.39,413.08,176.35Z" transform="translate(3 3)" style="fill:#6d7b85"/><path d="M426.77,182a2.52,2.52,0,0,1-1.28.29c-.92,0-1.51-.5-1.51-1.68a4.75,4.75,0,0,1-3.82,1.68c-2,0-3.59-.86-3.59-3,0-2.46,1.83-3,3.67-3.34s3.65-.23,3.65-1.6c0-1.57-1.3-1.81-2.41-1.81-1.51,0-2.62.46-2.71,2.06H417c.1-2.69,2.16-3.63,4.6-3.63,2,0,4.07.44,4.07,3v5.58c0,.84,0,1.22.57,1.22a1.8,1.8,0,0,0,.55-.11Zm-2.9-5.56c-1.39,1-5.42,0-5.42,2.69,0,1.18,1,1.6,2.1,1.6,2.35,0,3.32-1.45,3.32-2.46Z" transform="translate(3 3)" style="fill:#6d7b85"/><path d="M428.41,171.14h1.68v1.72h0a3.76,3.76,0,0,1,3.53-2c2.86,0,3.74,1.64,3.74,4V182h-1.78v-7.35a2,2,0,0,0-2.2-2.18c-2.16,0-3.21,1.45-3.21,3.4V182h-1.78Z" transform="translate(3 3)" style="fill:#6d7b85"/><path d="M441.45,169.19h-1.78V167h1.78Zm-1.78,2h1.78V182h-1.78Z" transform="translate(3 3)" style="fill:#6d7b85"/><path d="M443,180.63l6.55-7.92h-6.13v-1.58h8.44v1.22l-6.63,8.06h6.93V182H443Z" transform="translate(3 3)" style="fill:#6d7b85"/><path d="M463.27,182a2.52,2.52,0,0,1-1.28.29c-.92,0-1.51-.5-1.51-1.68a4.75,4.75,0,0,1-3.82,1.68c-2,0-3.59-.86-3.59-3,0-2.46,1.83-3,3.67-3.34s3.65-.23,3.65-1.6c0-1.57-1.3-1.81-2.41-1.81-1.51,0-2.62.46-2.71,2.06h-1.78c.1-2.69,2.16-3.63,4.6-3.63,2,0,4.07.44,4.07,3v5.58c0,.84,0,1.22.57,1.22a1.8,1.8,0,0,0,.55-.11Zm-2.9-5.56c-1.39,1-5.42,0-5.42,2.69,0,1.18,1,1.6,2.1,1.6,2.35,0,3.32-1.45,3.32-2.46Z" transform="translate(3 3)" style="fill:#6d7b85"/><path d="M467.22,171.14h2.16v1.58h-2.16v6.74c0,.84.23,1,1.34,1h.82V182H468c-1.85,0-2.58-.38-2.58-2.37v-6.91h-1.85v-1.58h1.85v-3.25h1.78Z" transform="translate(3 3)" style="fill:#6d7b85"/><path d="M472.93,169.19h-1.78V167h1.78Zm-1.78,2h1.78V182h-1.78Z" transform="translate(3 3)" style="fill:#6d7b85"/><path d="M480,170.89c3.44,0,5.27,2.5,5.27,5.69s-1.83,5.67-5.27,5.67-5.27-2.5-5.27-5.67S476.58,170.89,480,170.89Zm0,9.79c1.87,0,3.38-1.47,3.38-4.09s-1.51-4.12-3.38-4.12-3.38,1.49-3.38,4.12S478.16,180.68,480,180.68Z" transform="translate(3 3)" style="fill:#6d7b85"/><path d="M487.06,171.14h1.68v1.72h0a3.76,3.76,0,0,1,3.53-2c2.86,0,3.74,1.64,3.74,4V182h-1.78v-7.35a2,2,0,0,0-2.2-2.18c-2.16,0-3.21,1.45-3.21,3.4V182h-1.78Z" transform="translate(3 3)" style="fill:#6d7b85"/></g><g style="clip-path:url(#g)"><g style="clip-path:url(#b)"><rect x="401" y="66" width="84" height="90" style="fill:#5aaafa"/></g></g><g style="clip-path:url(#i)"><g style="clip-path:url(#b)"><rect x="438" y="66" width="47" height="90" style="fill:#5596e6"/></g></g><g style="clip-path:url(#k)"><g style="clip-path:url(#b)"><rect x="3" y="3" width="280" height="215" style="fill:none;stroke:#dfe3e6;stroke-miterlimit:10;stroke-width:6px;stroke-dasharray:10,10"/></g></g><g style="clip-path:url(#b)"><path d="M73.24,29h7.05c2.86,0,4.79.92,4.79,3.72a3.26,3.26,0,0,1-2,3.13,3.64,3.64,0,0,1,2.75,3.8c0,3-2.58,4.35-5.29,4.35H73.24Zm3.3,6.07h3.34c1.18,0,2-.52,2-1.78s-1.09-1.72-2.27-1.72H76.54Zm0,6.36h3.53c1.28,0,2.44-.42,2.44-2s-.94-2.14-2.37-2.14H76.54Z" transform="translate(3 3)" style="fill:#6d7b85"/><path d="M87.41,29h3V44h-3Z" transform="translate(3 3)" style="fill:#6d7b85"/><path d="M102.59,44H99.76V42.49H99.7a3.83,3.83,0,0,1-3.32,1.81c-3.17,0-4-1.78-4-4.47V33.14h3v6.13c0,1.79.5,2.67,1.91,2.67,1.62,0,2.31-.9,2.31-3.11V33.14h3Z" transform="translate(3 3)" style="fill:#6d7b85"/><path d="M107,39.3c.08,1.91,1,2.75,2.67,2.75a2.45,2.45,0,0,0,2.35-1.41h2.62a4.86,4.86,0,0,1-5.08,3.65c-3.42,0-5.54-2.35-5.54-5.71a5.44,5.44,0,0,1,5.54-5.73c3.7,0,5.5,3.11,5.27,6.45Zm4.85-1.89c-.27-1.51-.92-2.31-2.37-2.31A2.34,2.34,0,0,0,107,37.41Z" transform="translate(3 3)" style="fill:#6d7b85"/><path d="M116.52,33.14h2.81v1.47h0a3.89,3.89,0,0,1,3.32-1.76,3.18,3.18,0,0,1,3.17,1.8,4,4,0,0,1,3.28-1.8c2.31,0,4,1.07,4,3.88V44h-3V37.85c0-1.45-.13-2.64-1.83-2.64s-2,1.41-2,2.75v6h-3V37.91c0-1.26.08-2.71-1.81-2.71-.59,0-2,.38-2,2.5V44h-3Z" transform="translate(3 3)" style="fill:#6d7b85"/><path d="M138.19,31.46h-3V29h3Zm-3,1.68h3V44h-3Z" transform="translate(3 3)" style="fill:#6d7b85"/><path d="M143,38.29l-3.57-5.14h3.4L144.72,36l1.89-2.83h3.3l-3.57,5.08,4,5.77h-3.4l-2.27-3.42L142.41,44h-3.34Z" transform="translate(3 3)" style="fill:#6d7b85"/><path d="M156.42,29h3.3V41.23H167V44h-10.6Z" transform="translate(3 3)" style="fill:#6d7b85"/><path d="M173.41,32.85c3.42,0,5.63,2.27,5.63,5.73a5.62,5.62,0,1,1-11.23,0C167.8,35.12,170,32.85,173.41,32.85Zm0,9.2c2,0,2.65-1.72,2.65-3.46s-.61-3.49-2.65-3.49-2.62,1.74-2.62,3.49S171.39,42,173.41,42Z" transform="translate(3 3)" style="fill:#6d7b85"/><path d="M188,37a2,2,0,0,0-2.2-1.87c-1.91,0-2.54,1.93-2.54,3.53s.61,3.42,2.48,3.42a2.27,2.27,0,0,0,2.37-2.2h2.88a4.85,4.85,0,0,1-5.23,4.45,5.27,5.27,0,0,1-5.48-5.56c0-3.38,2-5.88,5.54-5.88,2.56,0,4.93,1.34,5.1,4.12Z" transform="translate(3 3)" style="fill:#6d7b85"/><path d="M192.16,36.48c.17-2.77,2.67-3.63,5.1-3.63,2.16,0,4.77.48,4.77,3.09v5.65a5.56,5.56,0,0,0,.38,2.41h-3a4.44,4.44,0,0,1-.21-1,4.94,4.94,0,0,1-3.65,1.34c-2.08,0-3.7-1-3.7-3.25,0-4.93,7.35-2.29,7.22-4.72,0-1.26-.88-1.47-1.93-1.47s-1.87.46-2,1.64Zm6.89,2.2a5.92,5.92,0,0,1-2.48.63c-.92.17-1.76.5-1.76,1.6s.86,1.38,1.83,1.38A2.21,2.21,0,0,0,199,39.8Z" transform="translate(3 3)" style="fill:#6d7b85"/><path d="M204.23,29h3V44h-3Z" transform="translate(3 3)" style="fill:#6d7b85"/><path d="M89.87,166.65c4.77,0,7.18,3.76,7.18,7.85s-2.41,7.85-7.18,7.85-7.18-3.76-7.18-7.85S85.11,166.65,89.87,166.65Zm0,14c3.65,0,5.19-3.15,5.19-6.17s-1.53-6.17-5.19-6.17-5.19,3.15-5.19,6.17S86.22,180.68,89.87,180.68Z" transform="translate(3 3)" style="fill:#6d7b85"/><path d="M98.86,171.14h1.68v2.29h0a3.92,3.92,0,0,1,4-2.54v1.89c-2.88,0-3.93,1.62-3.93,4.39V182H98.86Z" transform="translate(3 3)" style="fill:#6d7b85"/><path d="M114.84,181.08c0,3.55-1.6,5.33-5,5.33-2,0-4.39-.84-4.49-3.19h1.78c.06,1.28,1.66,1.76,2.81,1.76,2.33,0,3.25-1.68,3.25-4.12v-.71h0a3.62,3.62,0,0,1-3.38,2c-3.23,0-4.85-2.54-4.85-5.5,0-2.56,1.24-5.73,5-5.73a3.54,3.54,0,0,1,3.23,1.81h0v-1.55h1.68Zm-1.76-4.72c0-1.91-.84-3.88-3.09-3.88s-3.21,1.87-3.21,3.95.71,4.14,3.07,4.14S113.08,178.39,113.08,176.35Z" transform="translate(3 3)" style="fill:#6d7b85"/><path d="M126.77,182a2.52,2.52,0,0,1-1.28.29c-.92,0-1.51-.5-1.51-1.68a4.75,4.75,0,0,1-3.82,1.68c-2,0-3.59-.86-3.59-3,0-2.46,1.83-3,3.67-3.34s3.65-.23,3.65-1.6c0-1.57-1.3-1.81-2.41-1.81-1.51,0-2.62.46-2.71,2.06H117c.1-2.69,2.16-3.63,4.6-3.63,2,0,4.07.44,4.07,3v5.58c0,.84,0,1.22.57,1.22a1.8,1.8,0,0,0,.55-.11Zm-2.9-5.56c-1.39,1-5.42,0-5.42,2.69,0,1.18,1,1.6,2.1,1.6,2.35,0,3.32-1.45,3.32-2.46Z" transform="translate(3 3)" style="fill:#6d7b85"/><path d="M128.41,171.14h1.68v1.72h0a3.76,3.76,0,0,1,3.53-2c2.86,0,3.74,1.64,3.74,4V182h-1.78v-7.35a2,2,0,0,0-2.2-2.18c-2.16,0-3.21,1.45-3.21,3.4V182h-1.78Z" transform="translate(3 3)" style="fill:#6d7b85"/><path d="M141.45,169.19h-1.78V167h1.78Zm-1.78,2h1.78V182h-1.78Z" transform="translate(3 3)" style="fill:#6d7b85"/><path d="M143,180.63l6.55-7.92h-6.13v-1.58h8.44v1.22l-6.63,8.06h6.93V182H143Z" transform="translate(3 3)" style="fill:#6d7b85"/><path d="M163.27,182a2.52,2.52,0,0,1-1.28.29c-.92,0-1.51-.5-1.51-1.68a4.75,4.75,0,0,1-3.82,1.68c-2,0-3.59-.86-3.59-3,0-2.46,1.83-3,3.67-3.34s3.65-.23,3.65-1.6c0-1.57-1.3-1.81-2.41-1.81-1.51,0-2.62.46-2.71,2.06h-1.78c.1-2.69,2.16-3.63,4.6-3.63,2,0,4.07.44,4.07,3v5.58c0,.84,0,1.22.57,1.22a1.8,1.8,0,0,0,.55-.11Zm-2.9-5.56c-1.39,1-5.42,0-5.42,2.69,0,1.18,1,1.6,2.1,1.6,2.35,0,3.32-1.45,3.32-2.46Z" transform="translate(3 3)" style="fill:#6d7b85"/><path d="M167.22,171.14h2.16v1.58h-2.16v6.74c0,.84.23,1,1.34,1h.82V182H168c-1.85,0-2.58-.38-2.58-2.37v-6.91h-1.85v-1.58h1.85v-3.25h1.78Z" transform="translate(3 3)" style="fill:#6d7b85"/><path d="M172.93,169.19h-1.78V167h1.78Zm-1.78,2h1.78V182h-1.78Z" transform="translate(3 3)" style="fill:#6d7b85"/><path d="M180,170.89c3.44,0,5.27,2.5,5.27,5.69s-1.83,5.67-5.27,5.67-5.27-2.5-5.27-5.67S176.58,170.89,180,170.89Zm0,9.79c1.87,0,3.38-1.47,3.38-4.09s-1.51-4.12-3.38-4.12-3.38,1.49-3.38,4.12S178.16,180.68,180,180.68Z" transform="translate(3 3)" style="fill:#6d7b85"/><path d="M187.06,171.14h1.68v1.72h0a3.76,3.76,0,0,1,3.53-2c2.86,0,3.74,1.64,3.74,4V182h-1.78v-7.35a2,2,0,0,0-2.2-2.18c-2.16,0-3.21,1.45-3.21,3.4V182h-1.78Z" transform="translate(3 3)" style="fill:#6d7b85"/></g><g style="clip-path:url(#n)"><g style="clip-path:url(#b)"><rect x="101" y="66" width="84" height="90" style="fill:#5596e6"/></g></g><g style="clip-path:url(#p)"><g style="clip-path:url(#b)"><rect x="138" y="66" width="47" height="90" style="fill:#3d70b2"/></g></g><g style="clip-path:url(#b)"><path d="M79.43,341h7.05c2.83,0,4.56,1.51,4.56,3.93a3.56,3.56,0,0,1-2.6,3.8v0c1.74.34,2.08,1.64,2.25,3.09s0,3.13.88,4.14H89.34c-.57-.61-.25-2.23-.55-3.7s-.57-2.71-2.5-2.71H81.42V356h-2Zm6.15,6.91c1.85,0,3.46-.48,3.46-2.67a2.36,2.36,0,0,0-2.67-2.56h-5v5.23Z" transform="translate(3 3)" style="fill:#6d7b85"/><path d="M102.42,352.56a4.35,4.35,0,0,1-4.64,3.7c-3.46,0-5.1-2.41-5.21-5.71s2.14-5.65,5.1-5.65c3.84,0,5,3.59,4.91,6.21H94.46a3.2,3.2,0,0,0,3.38,3.57,2.59,2.59,0,0,0,2.81-2.12Zm-1.72-3a3.12,3.12,0,0,0-3.13-3.07,3.08,3.08,0,0,0-3.11,3.07Z" transform="translate(3 3)" style="fill:#6d7b85"/><path d="M113.95,355.08c0,3.55-1.6,5.33-5,5.33-2,0-4.39-.84-4.49-3.19h1.78c.06,1.28,1.66,1.76,2.81,1.76,2.33,0,3.25-1.68,3.25-4.12v-.71h0a3.62,3.62,0,0,1-3.38,2c-3.23,0-4.85-2.54-4.85-5.5,0-2.56,1.24-5.73,5-5.73a3.54,3.54,0,0,1,3.23,1.81h0v-1.55h1.68Zm-1.76-4.72c0-1.91-.84-3.88-3.09-3.88s-3.21,1.87-3.21,3.95.71,4.14,3.07,4.14S112.19,352.39,112.19,350.35Z" transform="translate(3 3)" style="fill:#6d7b85"/><path d="M118,343.19h-1.78V341H118Zm-1.78,2H118V356h-1.78Z" transform="translate(3 3)" style="fill:#6d7b85"/><path d="M125.12,344.89c3.44,0,5.27,2.5,5.27,5.69s-1.83,5.67-5.27,5.67-5.27-2.5-5.27-5.67S121.68,344.89,125.12,344.89Zm0,9.79c1.87,0,3.38-1.47,3.38-4.09s-1.51-4.12-3.38-4.12-3.38,1.49-3.38,4.12S123.25,354.68,125.12,354.68Z" transform="translate(3 3)" style="fill:#6d7b85"/><path d="M132.16,345.14h1.68v1.72h0a3.76,3.76,0,0,1,3.53-2c2.86,0,3.74,1.64,3.74,4V356h-1.78v-7.35a2,2,0,0,0-2.2-2.18c-2.16,0-3.21,1.45-3.21,3.4V356h-1.78Z" transform="translate(3 3)" style="fill:#6d7b85"/></g><g style="clip-path:url(#s)"><g style="clip-path:url(#b)"><rect x="33" y="319" width="160" height="65" style="fill:none;stroke:#8c9ba5;stroke-miterlimit:10;stroke-width:4px"/></g></g><g style="clip-path:url(#b)"><path d="M239.87,599.65c4.77,0,7.18,3.76,7.18,7.85s-2.41,7.85-7.18,7.85-7.18-3.76-7.18-7.85S235.11,599.65,239.87,599.65Zm0,14c3.65,0,5.19-3.15,5.19-6.17s-1.53-6.17-5.19-6.17-5.19,3.15-5.19,6.17S236.22,613.68,239.87,613.68Z" transform="translate(3 3)" style="fill:#6d7b85"/><path d="M248.86,604.14h1.68v2.29h0a3.92,3.92,0,0,1,4-2.54v1.89c-2.88,0-3.93,1.62-3.93,4.39V615h-1.78Z" transform="translate(3 3)" style="fill:#6d7b85"/><path d="M264.84,614.08c0,3.55-1.6,5.33-5,5.33-2,0-4.39-.84-4.49-3.19h1.78c.06,1.28,1.66,1.76,2.81,1.76,2.33,0,3.25-1.68,3.25-4.12v-.71h0a3.62,3.62,0,0,1-3.38,2c-3.23,0-4.85-2.54-4.85-5.5,0-2.56,1.24-5.73,5-5.73a3.54,3.54,0,0,1,3.23,1.81h0v-1.55h1.68Zm-1.76-4.72c0-1.91-.84-3.88-3.09-3.88s-3.21,1.87-3.21,3.95.71,4.14,3.07,4.14S263.08,611.39,263.08,609.35Z" transform="translate(3 3)" style="fill:#6d7b85"/><path d="M276.77,615a2.52,2.52,0,0,1-1.28.29c-.92,0-1.51-.5-1.51-1.68a4.75,4.75,0,0,1-3.82,1.68c-2,0-3.59-.86-3.59-3,0-2.46,1.83-3,3.67-3.34s3.65-.23,3.65-1.6c0-1.57-1.3-1.81-2.41-1.81-1.51,0-2.62.46-2.71,2.06H267c.1-2.69,2.16-3.63,4.6-3.63,2,0,4.07.44,4.07,3v5.58c0,.84,0,1.22.57,1.22a1.8,1.8,0,0,0,.55-.11Zm-2.9-5.56c-1.39,1-5.42,0-5.42,2.69,0,1.18,1,1.6,2.1,1.6,2.35,0,3.32-1.45,3.32-2.46Z" transform="translate(3 3)" style="fill:#6d7b85"/><path d="M278.41,604.14h1.68v1.72h0a3.76,3.76,0,0,1,3.53-2c2.86,0,3.74,1.64,3.74,4V615h-1.78v-7.35a2,2,0,0,0-2.2-2.18c-2.16,0-3.21,1.45-3.21,3.4V615h-1.78Z" transform="translate(3 3)" style="fill:#6d7b85"/><path d="M291.45,602.19h-1.78V600h1.78Zm-1.78,2h1.78V615h-1.78Z" transform="translate(3 3)" style="fill:#6d7b85"/><path d="M293,613.63l6.55-7.92h-6.13v-1.58h8.44v1.22l-6.63,8.06h6.93V615H293Z" transform="translate(3 3)" style="fill:#6d7b85"/><path d="M313.27,615a2.52,2.52,0,0,1-1.28.29c-.92,0-1.51-.5-1.51-1.68a4.75,4.75,0,0,1-3.82,1.68c-2,0-3.59-.86-3.59-3,0-2.46,1.83-3,3.67-3.34s3.65-.23,3.65-1.6c0-1.57-1.3-1.81-2.41-1.81-1.51,0-2.62.46-2.71,2.06h-1.78c.1-2.69,2.16-3.63,4.6-3.63,2,0,4.07.44,4.07,3v5.58c0,.84,0,1.22.57,1.22a1.8,1.8,0,0,0,.55-.11Zm-2.9-5.56c-1.39,1-5.42,0-5.42,2.69,0,1.18,1,1.6,2.1,1.6,2.35,0,3.32-1.45,3.32-2.46Z" transform="translate(3 3)" style="fill:#6d7b85"/><path d="M317.22,604.14h2.16v1.58h-2.16v6.74c0,.84.23,1,1.34,1h.82V615H318c-1.85,0-2.58-.38-2.58-2.37v-6.91h-1.85v-1.58h1.85v-3.25h1.78Z" transform="translate(3 3)" style="fill:#6d7b85"/><path d="M322.93,602.19h-1.78V600h1.78Zm-1.78,2h1.78V615h-1.78Z" transform="translate(3 3)" style="fill:#6d7b85"/><path d="M330,603.89c3.44,0,5.27,2.5,5.27,5.69s-1.83,5.67-5.27,5.67-5.27-2.5-5.27-5.67S326.58,603.89,330,603.89Zm0,9.79c1.87,0,3.38-1.47,3.38-4.09s-1.51-4.12-3.38-4.12-3.38,1.49-3.38,4.12S328.16,613.68,330,613.68Z" transform="translate(3 3)" style="fill:#6d7b85"/><path d="M337.06,604.14h1.68v1.72h0a3.76,3.76,0,0,1,3.53-2c2.86,0,3.74,1.64,3.74,4V615h-1.78v-7.35a2,2,0,0,0-2.2-2.18c-2.16,0-3.21,1.45-3.21,3.4V615h-1.78Z" transform="translate(3 3)" style="fill:#6d7b85"/></g><g style="clip-path:url(#v)"><g style="clip-path:url(#b)"><rect x="251" y="498" width="84" height="90" style="fill:#7cc7ff"/></g></g><g style="clip-path:url(#x)"><g style="clip-path:url(#b)"><rect x="288" y="498" width="47" height="90" style="fill:#5aaafa"/></g></g><g style="clip-path:url(#z)"><g style="clip-path:url(#aa)"><g style="clip-path:url(#b)"><circle cx="113.5" cy="382.5" r="7.5" style="fill:#fff"/></g></g></g><g style="clip-path:url(#aa)"><g style="clip-path:url(#b)"><circle cx="113.5" cy="382.5" r="7.5" style="fill:none;stroke:#5596e6;stroke-miterlimit:10;stroke-width:6px"/></g></g><g style="clip-path:url(#b)"><path d="M259.43,341h7.05c2.83,0,4.56,1.51,4.56,3.93a3.56,3.56,0,0,1-2.6,3.8v0c1.74.34,2.08,1.64,2.25,3.09s0,3.13.88,4.14h-2.23c-.57-.61-.25-2.23-.55-3.7s-.57-2.71-2.5-2.71h-4.87V356h-2Zm6.15,6.91c1.85,0,3.46-.48,3.46-2.67a2.36,2.36,0,0,0-2.67-2.56h-5v5.23Z" transform="translate(3 3)" style="fill:#6d7b85"/><path d="M282.42,352.56a4.35,4.35,0,0,1-4.64,3.7c-3.46,0-5.1-2.41-5.21-5.71s2.14-5.65,5.1-5.65c3.84,0,5,3.59,4.91,6.21h-8.13a3.2,3.2,0,0,0,3.38,3.57,2.59,2.59,0,0,0,2.81-2.12Zm-1.72-3a3.12,3.12,0,0,0-3.13-3.07,3.08,3.08,0,0,0-3.11,3.07Z" transform="translate(3 3)" style="fill:#6d7b85"/><path d="M293.95,355.08c0,3.55-1.6,5.33-5,5.33-2,0-4.39-.84-4.49-3.19h1.78c.06,1.28,1.66,1.76,2.81,1.76,2.33,0,3.25-1.68,3.25-4.12v-.71h0a3.62,3.62,0,0,1-3.38,2c-3.23,0-4.85-2.54-4.85-5.5,0-2.56,1.24-5.73,5-5.73a3.54,3.54,0,0,1,3.23,1.81h0v-1.55h1.68Zm-1.76-4.72c0-1.91-.84-3.88-3.09-3.88s-3.21,1.87-3.21,3.95.71,4.14,3.07,4.14S292.19,352.39,292.19,350.35Z" transform="translate(3 3)" style="fill:#6d7b85"/><path d="M298,343.19h-1.78V341H298Zm-1.78,2H298V356h-1.78Z" transform="translate(3 3)" style="fill:#6d7b85"/><path d="M305.12,344.89c3.44,0,5.27,2.5,5.27,5.69s-1.83,5.67-5.27,5.67-5.27-2.5-5.27-5.67S301.68,344.89,305.12,344.89Zm0,9.79c1.87,0,3.38-1.47,3.38-4.09s-1.51-4.12-3.38-4.12-3.38,1.49-3.38,4.12S303.25,354.68,305.12,354.68Z" transform="translate(3 3)" style="fill:#6d7b85"/><path d="M312.16,345.14h1.68v1.72h0a3.76,3.76,0,0,1,3.53-2c2.86,0,3.74,1.64,3.74,4V356h-1.78v-7.35a2,2,0,0,0-2.2-2.18c-2.16,0-3.21,1.45-3.21,3.4V356h-1.78Z" transform="translate(3 3)" style="fill:#6d7b85"/></g><g style="clip-path:url(#af)"><g style="clip-path:url(#b)"><rect x="213" y="319" width="160" height="65" style="fill:none;stroke:#8c9ba5;stroke-miterlimit:10;stroke-width:4px"/></g></g><g style="clip-path:url(#b)"><path d="M439.43,341h7.05c2.83,0,4.56,1.51,4.56,3.93a3.56,3.56,0,0,1-2.6,3.8v0c1.74.34,2.08,1.64,2.25,3.09s0,3.13.88,4.14h-2.23c-.57-.61-.25-2.23-.55-3.7s-.57-2.71-2.5-2.71h-4.87V356h-2Zm6.15,6.91c1.85,0,3.46-.48,3.46-2.67a2.36,2.36,0,0,0-2.67-2.56h-5v5.23Z" transform="translate(3 3)" style="fill:#6d7b85"/><path d="M462.42,352.56a4.35,4.35,0,0,1-4.64,3.7c-3.46,0-5.1-2.41-5.21-5.71s2.14-5.65,5.1-5.65c3.84,0,5,3.59,4.91,6.21h-8.13a3.2,3.2,0,0,0,3.38,3.57,2.59,2.59,0,0,0,2.81-2.12Zm-1.72-3a3.12,3.12,0,0,0-3.13-3.07,3.08,3.08,0,0,0-3.11,3.07Z" transform="translate(3 3)" style="fill:#6d7b85"/><path d="M473.95,355.08c0,3.55-1.6,5.33-5,5.33-2,0-4.39-.84-4.49-3.19h1.78c.06,1.28,1.66,1.76,2.81,1.76,2.33,0,3.25-1.68,3.25-4.12v-.71h0a3.62,3.62,0,0,1-3.38,2c-3.23,0-4.85-2.54-4.85-5.5,0-2.56,1.24-5.73,5-5.73a3.54,3.54,0,0,1,3.23,1.81h0v-1.55h1.68Zm-1.76-4.72c0-1.91-.84-3.88-3.09-3.88s-3.21,1.87-3.21,3.95.71,4.14,3.07,4.14S472.19,352.39,472.19,350.35Z" transform="translate(3 3)" style="fill:#6d7b85"/><path d="M478,343.19h-1.78V341H478Zm-1.78,2H478V356h-1.78Z" transform="translate(3 3)" style="fill:#6d7b85"/><path d="M485.12,344.89c3.44,0,5.27,2.5,5.27,5.69s-1.83,5.67-5.27,5.67-5.27-2.5-5.27-5.67S481.68,344.89,485.12,344.89Zm0,9.79c1.87,0,3.38-1.47,3.38-4.09s-1.51-4.12-3.38-4.12-3.38,1.49-3.38,4.12S483.25,354.68,485.12,354.68Z" transform="translate(3 3)" style="fill:#6d7b85"/><path d="M492.16,345.14h1.68v1.72h0a3.76,3.76,0,0,1,3.53-2c2.86,0,3.74,1.64,3.74,4V356h-1.78v-7.35a2,2,0,0,0-2.2-2.18c-2.16,0-3.21,1.45-3.21,3.4V356h-1.78Z" transform="translate(3 3)" style="fill:#6d7b85"/></g><g style="clip-path:url(#ai)"><g style="clip-path:url(#b)"><rect x="393" y="319" width="160" height="65" style="fill:none;stroke:#8c9ba5;stroke-miterlimit:10;stroke-width:4px"/></g></g><g style="clip-path:url(#ak)"><g style="clip-path:url(#al)"><g style="clip-path:url(#b)"><circle cx="473.5" cy="382.5" r="7.5" style="fill:#fff"/></g></g></g><g style="clip-path:url(#al)"><g style="clip-path:url(#b)"><circle cx="473.5" cy="382.5" r="7.5" style="fill:none;stroke:#5596e6;stroke-miterlimit:10;stroke-width:6px"/></g></g><g style="clip-path:url(#b)"><line x1="294" y1="384" x2="294" y2="504" style="fill:none;stroke:#5596e6;stroke-linecap:square;stroke-miterlimit:10;stroke-width:3px"/><line x1="474" y1="391" x2="474" y2="451" style="fill:none;stroke:#5596e6;stroke-linecap:square;stroke-miterlimit:10;stroke-width:3px"/><line x1="114" y1="391" x2="114" y2="451" style="fill:none;stroke:#5596e6;stroke-linecap:square;stroke-miterlimit:10;stroke-width:3px"/><line x1="474" y1="452" x2="114" y2="452" style="fill:none;stroke:#5596e6;stroke-linecap:square;stroke-miterlimit:10;stroke-width:3px"/></g><g style="clip-path:url(#aq)"><g style="clip-path:url(#ar)"><g style="clip-path:url(#b)"><circle cx="293.5" cy="382.5" r="7.5" style="fill:#fff"/></g></g></g><g style="clip-path:url(#ar)"><g style="clip-path:url(#b)"><circle cx="293.5" cy="382.5" r="7.5" style="fill:none;stroke:#5596e6;stroke-miterlimit:10;stroke-width:6px"/></g></g></svg>