<svg xmlns="http://www.w3.org/2000/svg" xmlns:xlink="http://www.w3.org/1999/xlink" viewBox="0 0 805 535"><defs><clipPath id="a" transform="translate(2.35 3)"><rect x="0.65" width="799" height="529" style="fill:none"/></clipPath><clipPath id="b" transform="translate(2.35 3)"><rect y="-1" width="801" height="531" style="fill:none"/></clipPath><clipPath id="d" transform="translate(2.35 3)"><rect x="32" y="75.58" width="360" height="420" style="fill:none"/></clipPath><clipPath id="e" transform="translate(2.35 3)"><rect y="-1" width="801" height="532" style="fill:none"/></clipPath><clipPath id="g" transform="translate(2.35 3)"><rect x="406" y="75.58" width="360" height="420" style="fill:none"/></clipPath><clipPath id="j" transform="translate(2.35 3)"><polygon points="100 147 137 167 137 207 100 227 63 207 63 167 100 147" style="fill:none;clip-rule:evenodd"/></clipPath><clipPath id="l" transform="translate(2.35 3)"><polygon points="100 227 137 247 137 287 100 307 63 287 63 247 100 227" style="fill:none;clip-rule:evenodd"/></clipPath><clipPath id="n" transform="translate(2.35 3)"><polygon points="100 307 137 327 137 367 100 387 63 367 63 327 100 307" style="fill:none;clip-rule:evenodd"/></clipPath><clipPath id="p" transform="translate(2.35 3)"><polygon points="100 387 137 407 137 447 100 467 63 447 63 407 100 387" style="fill:none;clip-rule:evenodd"/></clipPath><clipPath id="r" transform="translate(2.35 3)"><path d="M100.5,193.5a6,6,0,1,1,6-6A6,6,0,0,1,100.5,193.5Zm0,3a9,9,0,1,0-9-9A9,9,0,0,0,100.5,196.5Zm-29-38h58v58h-58Z" style="fill:none;clip-rule:evenodd"/></clipPath><clipPath id="s" transform="translate(2.35 3)"><circle cx="100.5" cy="187.5" r="7.5" style="fill:none"/></clipPath><clipPath id="x" transform="translate(2.35 3)"><path d="M100.5,273.5a6,6,0,1,1,6-6A6,6,0,0,1,100.5,273.5Zm0,3a9,9,0,1,0-9-9A9,9,0,0,0,100.5,276.5Zm-29-38h58v58h-58Z" style="fill:none;clip-rule:evenodd"/></clipPath><clipPath id="y" transform="translate(2.35 3)"><circle cx="100.5" cy="267.5" r="7.5" style="fill:none"/></clipPath><clipPath id="ac" transform="translate(2.35 3)"><path d="M100.5,353.5a6,6,0,1,1,6-6A6,6,0,0,1,100.5,353.5Zm0,3a9,9,0,1,0-9-9A9,9,0,0,0,100.5,356.5Zm-29-38h58v58h-58Z" style="fill:none;clip-rule:evenodd"/></clipPath><clipPath id="ad" transform="translate(2.35 3)"><circle cx="100.5" cy="347.5" r="7.5" style="fill:none"/></clipPath><clipPath id="ah" transform="translate(2.35 3)"><path d="M100.5,433.5a6,6,0,1,1,6-6A6,6,0,0,1,100.5,433.5Zm0,3a9,9,0,1,0-9-9A9,9,0,0,0,100.5,436.5Zm-29-38h58v58h-58Z" style="fill:none;clip-rule:evenodd"/></clipPath><clipPath id="ai" transform="translate(2.35 3)"><circle cx="100.5" cy="427.5" r="7.5" style="fill:none"/></clipPath><clipPath id="an" transform="translate(2.35 3)"><polygon points="480 147 517 167 517 207 480 227 443 207 443 167 480 147" style="fill:none;clip-rule:evenodd"/></clipPath><clipPath id="ap" transform="translate(2.35 3)"><polygon points="480 227 517 247 517 287 480 307 443 287 443 247 480 227" style="fill:none;clip-rule:evenodd"/></clipPath><clipPath id="ar" transform="translate(2.35 3)"><polygon points="480 307 517 327 517 367 480 387 443 367 443 327 480 307" style="fill:none;clip-rule:evenodd"/></clipPath><clipPath id="at" transform="translate(2.35 3)"><polygon points="480 387 517 407 517 447 480 467 443 447 443 407 480 387" style="fill:none;clip-rule:evenodd"/></clipPath><clipPath id="av" transform="translate(2.35 3)"><path d="M480.5,193.5a6,6,0,1,1,6-6A6,6,0,0,1,480.5,193.5Zm0,3a9,9,0,1,0-9-9A9,9,0,0,0,480.5,196.5Zm-29-38h58v58h-58Z" style="fill:none;clip-rule:evenodd"/></clipPath><clipPath id="aw" transform="translate(2.35 3)"><circle cx="480.5" cy="187.5" r="7.5" style="fill:none"/></clipPath><clipPath id="bb" transform="translate(2.35 3)"><path d="M480.5,273.5a6,6,0,1,1,6-6A6,6,0,0,1,480.5,273.5Zm0,3a9,9,0,1,0-9-9A9,9,0,0,0,480.5,276.5Zm-29-38h58v58h-58Z" style="fill:none;clip-rule:evenodd"/></clipPath><clipPath id="bc" transform="translate(2.35 3)"><circle cx="480.5" cy="267.5" r="7.5" style="fill:none"/></clipPath><clipPath id="bg" transform="translate(2.35 3)"><path d="M480.5,353.5a6,6,0,1,1,6-6A6,6,0,0,1,480.5,353.5Zm0,3a9,9,0,1,0-9-9A9,9,0,0,0,480.5,356.5Zm-29-38h58v58h-58Z" style="fill:none;clip-rule:evenodd"/></clipPath><clipPath id="bh" transform="translate(2.35 3)"><circle cx="480.5" cy="347.5" r="7.5" style="fill:none"/></clipPath><clipPath id="bl" transform="translate(2.35 3)"><path d="M480.5,433.5a6,6,0,1,1,6-6A6,6,0,0,1,480.5,433.5Zm0,3a9,9,0,1,0-9-9A9,9,0,0,0,480.5,436.5Zm-29-38h58v58h-58Z" style="fill:none;clip-rule:evenodd"/></clipPath><clipPath id="bm" transform="translate(2.35 3)"><circle cx="480.5" cy="427.5" r="7.5" style="fill:none"/></clipPath></defs><title>documentation-org-project-V01-ML</title><g style="clip-path:url(#a)"><g style="clip-path:url(#b)"><rect x="3" y="3" width="799" height="529" style="fill:none;stroke:#dfe3e6;stroke-miterlimit:10;stroke-width:6px;stroke-dasharray:10,10"/></g></g><g style="clip-path:url(#b)"><path d="M35.49,44c0,2,1.55,2.77,3.32,2.77,1.15,0,2.92-.34,2.92-1.87s-2.27-1.87-4.45-2.48S32.8,41,32.8,38.19c0-3.09,2.9-4.54,5.61-4.54,3.13,0,6,1.36,6,4.83H41.22c-.1-1.78-1.36-2.27-3-2.27-1,0-2.27.44-2.27,1.7s.71,1.32,4.47,2.27c1.11.25,4.45,1,4.45,4.37,0,2.75-2.14,4.81-6.24,4.81-3.32,0-6.45-1.64-6.38-5.33Z" transform="translate(2.35 3)" style="fill:#6d7b85"/><path d="M49.24,36.46h-3V34h3Zm-3,1.68h3V49h-3Z" transform="translate(2.35 3)" style="fill:#6d7b85"/><path d="M51.26,38.14h2.83v1.51h.06a3.82,3.82,0,0,1,3.32-1.8c3.17,0,4,1.78,4,4.47V49h-3V42.87c0-1.79-.5-2.67-1.91-2.67-1.62,0-2.31.9-2.31,3.11V49h-3Z" transform="translate(2.35 3)" style="fill:#6d7b85"/><path d="M73.66,48.31c0,1.79-.65,4.81-5.63,4.81-2.14,0-4.62-1-4.79-3.49h3a2,2,0,0,0,2.23,1.49c1.66,0,2.41-1.11,2.39-2.69V47h0a3.6,3.6,0,0,1-3.25,1.68c-3.28,0-4.64-2.48-4.64-5.46,0-2.81,1.64-5.37,4.66-5.37a3.4,3.4,0,0,1,3.23,1.74h0V38.14h2.83Zm-2.83-4.87c0-1.76-.61-3.34-2.54-3.34-1.68,0-2.41,1.47-2.41,3.09s.57,3.25,2.41,3.25S70.83,45,70.83,43.44Z" transform="translate(2.35 3)" style="fill:#6d7b85"/><path d="M75.68,34h3V49h-3Z" transform="translate(2.35 3)" style="fill:#6d7b85"/><path d="M83.2,44.3c.08,1.91,1,2.75,2.67,2.75a2.45,2.45,0,0,0,2.35-1.41h2.62a4.86,4.86,0,0,1-5.08,3.65c-3.42,0-5.54-2.35-5.54-5.71a5.44,5.44,0,0,1,5.54-5.73c3.7,0,5.5,3.11,5.27,6.45ZM88,42.41c-.27-1.51-.92-2.31-2.37-2.31a2.34,2.34,0,0,0-2.48,2.31Z" transform="translate(2.35 3)" style="fill:#6d7b85"/><path d="M104.57,33.65c4.62,0,7.37,3.46,7.37,7.92s-2.75,7.79-7.37,7.79-7.37-3.46-7.37-7.79S100,33.65,104.57,33.65Zm0,12.93c3,0,4.07-2.52,4.07-5s-1.11-5.14-4.07-5.14-4.07,2.52-4.07,5.14S101.61,46.59,104.57,46.59Z" transform="translate(2.35 3)" style="fill:#6d7b85"/><path d="M113.5,38.14h2.83v2h0a3.82,3.82,0,0,1,3.46-2.31,2.21,2.21,0,0,1,.65.1v2.77a5.41,5.41,0,0,0-1.07-.1c-2.2,0-2.94,1.55-2.94,3.48V49h-3Z" transform="translate(2.35 3)" style="fill:#6d7b85"/><path d="M131.54,48.31c0,1.79-.65,4.81-5.63,4.81-2.14,0-4.62-1-4.79-3.49h3a2,2,0,0,0,2.23,1.49c1.66,0,2.41-1.11,2.39-2.69V47h0a3.6,3.6,0,0,1-3.25,1.68c-3.28,0-4.64-2.48-4.64-5.46,0-2.81,1.64-5.37,4.66-5.37a3.4,3.4,0,0,1,3.23,1.74h0V38.14h2.83Zm-2.83-4.87c0-1.76-.61-3.34-2.54-3.34-1.68,0-2.41,1.47-2.41,3.09s.57,3.25,2.41,3.25S128.7,45,128.7,43.44Z" transform="translate(2.35 3)" style="fill:#6d7b85"/><path d="M133.34,41.48c.17-2.77,2.67-3.63,5.1-3.63,2.16,0,4.77.48,4.77,3.09v5.65a5.56,5.56,0,0,0,.38,2.41h-3a4.44,4.44,0,0,1-.21-1,4.94,4.94,0,0,1-3.65,1.34c-2.08,0-3.7-1-3.7-3.25,0-4.93,7.35-2.29,7.22-4.72,0-1.26-.88-1.47-1.93-1.47s-1.87.46-2,1.64Zm6.89,2.2a5.92,5.92,0,0,1-2.48.63c-.92.17-1.76.5-1.76,1.6s.86,1.38,1.83,1.38a2.21,2.21,0,0,0,2.41-2.5Z" transform="translate(2.35 3)" style="fill:#6d7b85"/><path d="M145.4,38.14h2.83v1.51h.06a3.82,3.82,0,0,1,3.32-1.8c3.17,0,4,1.78,4,4.47V49h-3V42.87c0-1.79-.5-2.67-1.91-2.67-1.62,0-2.31.9-2.31,3.11V49h-3Z" transform="translate(2.35 3)" style="fill:#6d7b85"/><path d="M160.58,36.46h-3V34h3Zm-3,1.68h3V49h-3Z" transform="translate(2.35 3)" style="fill:#6d7b85"/><path d="M162,46.75l5.65-6.36h-5.23V38.14h9.15v2.25l-5.65,6.36h6V49H162Z" transform="translate(2.35 3)" style="fill:#6d7b85"/><path d="M173.31,41.48c.17-2.77,2.67-3.63,5.1-3.63,2.16,0,4.77.48,4.77,3.09v5.65a5.56,5.56,0,0,0,.38,2.41h-3a4.44,4.44,0,0,1-.21-1,4.94,4.94,0,0,1-3.65,1.34c-2.08,0-3.7-1-3.7-3.25,0-4.93,7.35-2.29,7.22-4.72,0-1.26-.88-1.47-1.93-1.47s-1.87.46-2,1.64Zm6.89,2.2a5.92,5.92,0,0,1-2.48.63c-.92.17-1.76.5-1.76,1.6s.86,1.38,1.83,1.38a2.21,2.21,0,0,0,2.41-2.5Z" transform="translate(2.35 3)" style="fill:#6d7b85"/><path d="M189,38.14h2.18v2H189v5.38c0,1,.25,1.26,1.26,1.26a4.17,4.17,0,0,0,.92-.08V49a11.44,11.44,0,0,1-1.74.1c-1.85,0-3.42-.4-3.42-2.58v-6.4h-1.81v-2H186V34.89h3Z" transform="translate(2.35 3)" style="fill:#6d7b85"/><path d="M195.8,36.46h-3V34h3Zm-3,1.68h3V49h-3Z" transform="translate(2.35 3)" style="fill:#6d7b85"/><path d="M203,37.85c3.42,0,5.63,2.27,5.63,5.73a5.62,5.62,0,1,1-11.23,0C197.41,40.12,199.62,37.85,203,37.85Zm0,9.2c2,0,2.65-1.72,2.65-3.46s-.61-3.49-2.65-3.49-2.62,1.74-2.62,3.49S201,47,203,47Z" transform="translate(2.35 3)" style="fill:#6d7b85"/><path d="M210.18,38.14H213v1.51h.06a3.82,3.82,0,0,1,3.32-1.8c3.17,0,4,1.78,4,4.47V49h-3V42.87c0-1.79-.5-2.67-1.91-2.67-1.62,0-2.31.9-2.31,3.11V49h-3Z" transform="translate(2.35 3)" style="fill:#6d7b85"/></g><g style="clip-path:url(#d)"><g style="clip-path:url(#e)"><rect x="34.35" y="78.58" width="360" height="420" style="fill:none;stroke:#8c9ba5;stroke-miterlimit:10;stroke-width:4px"/></g></g><g style="clip-path:url(#b)"><path d="M64.24,106H71c3.76,0,5.19,2.37,5.19,4.81s-1.43,4.81-5.19,4.81H67.54V121h-3.3Zm3.3,7.05H70.1c1.51,0,2.9-.34,2.9-2.25s-1.39-2.25-2.9-2.25H67.54Z" transform="translate(2.35 3)" style="fill:#6d7b85"/><path d="M77.34,110.14h2.83v2h0a3.82,3.82,0,0,1,3.46-2.31,2.21,2.21,0,0,1,.65.1v2.77a5.41,5.41,0,0,0-1.07-.1c-2.2,0-2.94,1.55-2.94,3.48V121h-3Z" transform="translate(2.35 3)" style="fill:#6d7b85"/><path d="M90.21,109.85c3.42,0,5.63,2.27,5.63,5.73a5.62,5.62,0,1,1-11.23,0C84.61,112.12,86.81,109.85,90.21,109.85Zm0,9.2c2,0,2.65-1.72,2.65-3.46s-.61-3.49-2.65-3.49-2.62,1.74-2.62,3.49S88.2,119,90.21,119Z" transform="translate(2.35 3)" style="fill:#6d7b85"/><path d="M95.84,122.28a1.9,1.9,0,0,0,.65.08c.61,0,1.15-.15,1.15-1V110.14h3v11.4c0,2.23-.82,3.28-3.82,3.28a5,5,0,0,1-1-.08Zm4.79-13.82h-3V106h3Z" transform="translate(2.35 3)" style="fill:#6d7b85"/><path d="M105.17,116.3c.08,1.91,1,2.75,2.67,2.75a2.45,2.45,0,0,0,2.35-1.41h2.62a4.86,4.86,0,0,1-5.08,3.65c-3.42,0-5.54-2.35-5.54-5.71a5.44,5.44,0,0,1,5.54-5.73c3.7,0,5.5,3.11,5.27,6.45Zm4.85-1.89c-.27-1.51-.92-2.31-2.37-2.31a2.34,2.34,0,0,0-2.48,2.31Z" transform="translate(2.35 3)" style="fill:#6d7b85"/><path d="M121.94,114a2,2,0,0,0-2.2-1.87c-1.91,0-2.54,1.93-2.54,3.53s.61,3.42,2.48,3.42a2.27,2.27,0,0,0,2.37-2.2h2.88a4.85,4.85,0,0,1-5.23,4.45,5.27,5.27,0,0,1-5.48-5.56c0-3.38,2-5.88,5.54-5.88,2.56,0,4.93,1.34,5.1,4.12Z" transform="translate(2.35 3)" style="fill:#6d7b85"/><path d="M130.37,110.14h2.18v2h-2.18v5.38c0,1,.25,1.26,1.26,1.26a4.17,4.17,0,0,0,.92-.08V121a11.44,11.44,0,0,1-1.74.1c-1.85,0-3.42-.4-3.42-2.58v-6.4h-1.81v-2h1.81v-3.25h3Z" transform="translate(2.35 3)" style="fill:#6d7b85"/><path d="M143.24,113.15,138.41,106h3.82l2.94,4.79,3-4.79h3.61L147,113.17l5.23,7.83h-3.93L145,115.81,141.71,121H138Z" transform="translate(2.35 3)" style="fill:#6d7b85"/></g><g style="clip-path:url(#g)"><g style="clip-path:url(#e)"><rect x="408.35" y="78.58" width="360" height="420" style="fill:none;stroke:#8c9ba5;stroke-miterlimit:10;stroke-width:4px"/></g></g><g style="clip-path:url(#b)"><path d="M438.24,106H445c3.76,0,5.19,2.37,5.19,4.81s-1.43,4.81-5.19,4.81h-3.46V121h-3.3Zm3.3,7.05h2.56c1.51,0,2.9-.34,2.9-2.25s-1.39-2.25-2.9-2.25h-2.56Z" transform="translate(2.35 3)" style="fill:#6d7b85"/><path d="M451.34,110.14h2.83v2h0a3.82,3.82,0,0,1,3.46-2.31,2.2,2.2,0,0,1,.65.1v2.77a5.39,5.39,0,0,0-1.07-.1c-2.21,0-2.94,1.55-2.94,3.48V121h-3Z" transform="translate(2.35 3)" style="fill:#6d7b85"/><path d="M464.21,109.85c3.42,0,5.63,2.27,5.63,5.73a5.62,5.62,0,1,1-11.23,0C458.61,112.12,460.81,109.85,464.21,109.85Zm0,9.2c2,0,2.64-1.72,2.64-3.46s-.61-3.49-2.64-3.49-2.62,1.74-2.62,3.49S462.2,119,464.21,119Z" transform="translate(2.35 3)" style="fill:#6d7b85"/><path d="M469.84,122.28a1.89,1.89,0,0,0,.65.08c.61,0,1.15-.15,1.15-1V110.14h3v11.4c0,2.23-.82,3.28-3.82,3.28a5,5,0,0,1-1-.08Zm4.79-13.82h-3V106h3Z" transform="translate(2.35 3)" style="fill:#6d7b85"/><path d="M479.17,116.3c.08,1.91,1,2.75,2.67,2.75a2.45,2.45,0,0,0,2.35-1.41h2.62a4.86,4.86,0,0,1-5.08,3.65c-3.42,0-5.54-2.35-5.54-5.71a5.44,5.44,0,0,1,5.54-5.73c3.7,0,5.5,3.11,5.27,6.45Zm4.85-1.89c-.27-1.51-.92-2.31-2.37-2.31a2.34,2.34,0,0,0-2.48,2.31Z" transform="translate(2.35 3)" style="fill:#6d7b85"/><path d="M495.94,114a2,2,0,0,0-2.2-1.87c-1.91,0-2.54,1.93-2.54,3.53s.61,3.42,2.48,3.42a2.27,2.27,0,0,0,2.37-2.2h2.88a4.85,4.85,0,0,1-5.23,4.45,5.27,5.27,0,0,1-5.48-5.56c0-3.38,2-5.88,5.54-5.88,2.56,0,4.93,1.34,5.1,4.12Z" transform="translate(2.35 3)" style="fill:#6d7b85"/><path d="M504.37,110.14h2.18v2h-2.18v5.38c0,1,.25,1.26,1.26,1.26a4.16,4.16,0,0,0,.92-.08V121a11.43,11.43,0,0,1-1.74.1c-1.85,0-3.42-.4-3.42-2.58v-6.4h-1.81v-2h1.81v-3.25h3Z" transform="translate(2.35 3)" style="fill:#6d7b85"/><path d="M517.24,115.16,511.72,106h3.72l3.51,5.92,3.49-5.92h3.67l-5.56,9.24V121h-3.3Z" transform="translate(2.35 3)" style="fill:#6d7b85"/></g><g style="clip-path:url(#j)"><g style="clip-path:url(#e)"><rect x="60.35" y="145" width="84" height="90" style="fill:#7cc7ff"/></g></g><g style="clip-path:url(#l)"><g style="clip-path:url(#e)"><rect x="60.35" y="225" width="84" height="90" style="fill:#5aaafa"/></g></g><g style="clip-path:url(#n)"><g style="clip-path:url(#e)"><rect x="60.35" y="305" width="84" height="90" style="fill:#5596e6"/></g></g><g style="clip-path:url(#p)"><g style="clip-path:url(#e)"><rect x="60.35" y="385" width="84" height="90" style="fill:#3d70b2"/></g></g><g style="clip-path:url(#r)"><g style="clip-path:url(#s)"><g style="clip-path:url(#e)"><circle cx="102.85" cy="190.5" r="7.5" style="fill:#fff"/></g></g></g><g style="clip-path:url(#s)"><g style="clip-path:url(#e)"><circle cx="102.85" cy="190.5" r="7.5" style="fill:none;stroke:#0f212e;stroke-miterlimit:10;stroke-width:6px"/></g></g><g style="clip-path:url(#b)"><line x1="102.35" y1="196" x2="102.35" y2="426" style="fill:none;stroke:#0f212e;stroke-linecap:square;stroke-miterlimit:10;stroke-width:3px"/></g><g style="clip-path:url(#x)"><g style="clip-path:url(#y)"><g style="clip-path:url(#e)"><circle cx="102.85" cy="270.5" r="7.5" style="fill:#fff"/></g></g></g><g style="clip-path:url(#y)"><g style="clip-path:url(#e)"><circle cx="102.85" cy="270.5" r="7.5" style="fill:none;stroke:#0f212e;stroke-miterlimit:10;stroke-width:6px"/></g></g><g style="clip-path:url(#ac)"><g style="clip-path:url(#ad)"><g style="clip-path:url(#e)"><circle cx="102.85" cy="350.5" r="7.5" style="fill:#fff"/></g></g></g><g style="clip-path:url(#ad)"><g style="clip-path:url(#e)"><circle cx="102.85" cy="350.5" r="7.5" style="fill:none;stroke:#0f212e;stroke-miterlimit:10;stroke-width:6px"/></g></g><g style="clip-path:url(#ah)"><g style="clip-path:url(#ai)"><g style="clip-path:url(#e)"><circle cx="102.85" cy="430.5" r="7.5" style="fill:#fff"/></g></g></g><g style="clip-path:url(#ai)"><g style="clip-path:url(#e)"><circle cx="102.85" cy="430.5" r="7.5" style="fill:none;stroke:#0f212e;stroke-miterlimit:10;stroke-width:6px"/></g></g><g style="clip-path:url(#b)"><path d="M165.43,177H172c3,0,4.6,1.64,4.6,4.43s-1.6,4.45-4.6,4.43h-4.58V192h-2Zm2,7.18h3.91c2.27,0,3.28-1,3.28-2.75s-1-2.75-3.28-2.75h-3.91Z" transform="translate(2.35 3)" style="fill:#6d7b85"/><path d="M178.38,181.14h1.68v2.29h0a3.92,3.92,0,0,1,4-2.54v1.89c-2.88,0-3.93,1.62-3.93,4.39V192h-1.78Z" transform="translate(2.35 3)" style="fill:#6d7b85"/><path d="M189.68,180.89c3.44,0,5.27,2.5,5.27,5.69s-1.83,5.67-5.27,5.67-5.27-2.5-5.27-5.67S186.24,180.89,189.68,180.89Zm0,9.79c1.87,0,3.38-1.47,3.38-4.09s-1.51-4.12-3.38-4.12-3.38,1.49-3.38,4.12S187.81,190.68,189.68,190.68Z" transform="translate(2.35 3)" style="fill:#6d7b85"/><path d="M206.63,192h-1.78v-1.47h0a3.63,3.63,0,0,1-3.46,1.72c-3.34,0-5-2.65-5-5.71s1.64-5.65,5-5.65a4.16,4.16,0,0,1,3.51,1.7h0V177h1.78Zm-5-1.32c2.41,0,3.32-2.08,3.32-4.09s-1-4.12-3.42-4.12-3.25,2.08-3.25,4.2S199.28,190.68,201.59,190.68Z" transform="translate(2.35 3)" style="fill:#6d7b85"/><path d="M207.68,193.57h10.5v1.05h-10.5Z" transform="translate(2.35 3)" style="fill:#6d7b85"/><path d="M223.85,177h2.2l5.86,15h-2.2l-1.64-4.51h-6.34L220,192H218Zm-1.49,8.8h5.08l-2.5-7h0Z" transform="translate(2.35 3)" style="fill:#6d7b85"/><path d="M233.32,181.14h1.78v1.47h0a3.63,3.63,0,0,1,3.46-1.72c3.34,0,5,2.65,5,5.71s-1.64,5.65-5,5.65a4.16,4.16,0,0,1-3.51-1.7h0v5.61h-1.78Zm5,1.32c-2.41,0-3.32,2.08-3.32,4.09s1,4.12,3.42,4.12,3.25-2.08,3.25-4.2S240.67,182.47,238.36,182.47Z" transform="translate(2.35 3)" style="fill:#6d7b85"/><path d="M245.4,181.14h1.78v1.47h0a3.63,3.63,0,0,1,3.46-1.72c3.34,0,5,2.65,5,5.71s-1.64,5.65-5,5.65a4.16,4.16,0,0,1-3.51-1.7h0v5.61H245.4Zm5,1.32c-2.41,0-3.32,2.08-3.32,4.09s1,4.12,3.42,4.12,3.25-2.08,3.25-4.2S252.74,182.47,250.43,182.47Z" transform="translate(2.35 3)" style="fill:#6d7b85"/><path d="M261.4,184.29,256.46,177h2.39l3.74,5.86L266.5,177h2.23l-5,7.29L269,192H266.6l-4-6.19L258.41,192h-2.25Z" transform="translate(2.35 3)" style="fill:#6d7b85"/><path d="M268.81,193.57h10.5v1.05h-10.5Z" transform="translate(2.35 3)" style="fill:#6d7b85"/><path d="M286.78,192h-2.27l-5.29-15h2.16l4.28,13h0L290,177h2.08Z" transform="translate(2.35 3)" style="fill:#6d7b85"/><path d="M298.71,192h-1.78V181.33h-3.86v-1.43c2,0,3.88-.53,4.28-2.79h1.36Z" transform="translate(2.35 3)" style="fill:#6d7b85"/><path d="M174.12,261.4c-.23-2.16-1.64-3.06-3.72-3.06-1.7,0-3.36.61-3.36,2.56,0,3.7,9.6,1.09,9.6,7,0,3.19-3.13,4.47-5.86,4.47-3.36,0-6.19-1.66-6.19-5.29h1.89c0,2.52,2.1,3.61,4.37,3.61,1.81,0,3.8-.57,3.8-2.73,0-4.12-9.6-1.41-9.6-6.91,0-3,2.69-4.39,5.44-4.39,3.07,0,5.42,1.45,5.52,4.74Z" transform="translate(2.35 3)" style="fill:#6d7b85"/><path d="M180.95,261.14h2.16v1.58h-2.16v6.74c0,.84.23,1,1.34,1h.82V272h-1.36c-1.85,0-2.58-.38-2.58-2.37v-6.91h-1.85v-1.58h1.85v-3.25h1.78Z" transform="translate(2.35 3)" style="fill:#6d7b85"/><path d="M194.26,272a2.52,2.52,0,0,1-1.28.29c-.92,0-1.51-.5-1.51-1.68a4.75,4.75,0,0,1-3.82,1.68c-2,0-3.59-.86-3.59-3,0-2.46,1.83-3,3.67-3.34s3.65-.23,3.65-1.6c0-1.57-1.3-1.81-2.41-1.81-1.51,0-2.62.46-2.71,2.06h-1.78c.1-2.69,2.16-3.63,4.6-3.63,2,0,4.07.44,4.07,3v5.58c0,.84,0,1.22.57,1.22a1.8,1.8,0,0,0,.55-.11Zm-2.9-5.56c-1.39,1-5.42,0-5.42,2.69,0,1.18,1,1.6,2.1,1.6,2.35,0,3.32-1.45,3.32-2.46Z" transform="translate(2.35 3)" style="fill:#6d7b85"/><path d="M205.18,271.08c0,3.55-1.6,5.33-5,5.33-2,0-4.39-.84-4.49-3.19h1.78c.06,1.28,1.66,1.76,2.81,1.76,2.33,0,3.25-1.68,3.25-4.12v-.71h0a3.62,3.62,0,0,1-3.38,2c-3.23,0-4.85-2.54-4.85-5.5,0-2.56,1.24-5.73,5-5.73a3.54,3.54,0,0,1,3.23,1.81h0v-1.55h1.68Zm-1.76-4.72c0-1.91-.84-3.88-3.09-3.88s-3.21,1.87-3.21,3.95.71,4.14,3.07,4.14S203.42,268.39,203.42,266.35Z" transform="translate(2.35 3)" style="fill:#6d7b85"/><path d="M216.77,268.56a4.35,4.35,0,0,1-4.64,3.7c-3.46,0-5.1-2.41-5.21-5.71s2.14-5.65,5.1-5.65c3.84,0,5,3.59,4.91,6.21h-8.13a3.2,3.2,0,0,0,3.38,3.57,2.59,2.59,0,0,0,2.81-2.12Zm-1.72-3a3.12,3.12,0,0,0-3.13-3.07,3.08,3.08,0,0,0-3.11,3.07Z" transform="translate(2.35 3)" style="fill:#6d7b85"/><path d="M217.53,273.57H228v1.05h-10.5Z" transform="translate(2.35 3)" style="fill:#6d7b85"/><path d="M233.7,257h2.2l5.86,15h-2.2l-1.64-4.51h-6.34L229.9,272h-2.06Zm-1.49,8.8h5.08l-2.5-7h0Z" transform="translate(2.35 3)" style="fill:#6d7b85"/><path d="M243.19,261.14H245v1.47h0a3.63,3.63,0,0,1,3.46-1.72c3.34,0,5,2.65,5,5.71s-1.64,5.65-5,5.65a4.16,4.16,0,0,1-3.51-1.7h0v5.61h-1.78Zm5,1.32c-2.41,0-3.32,2.08-3.32,4.09s1,4.12,3.42,4.12,3.25-2.08,3.25-4.2S250.54,262.47,248.23,262.47Z" transform="translate(2.35 3)" style="fill:#6d7b85"/><path d="M255.27,261.14H257v1.47h0a3.63,3.63,0,0,1,3.46-1.72c3.34,0,5,2.65,5,5.71s-1.64,5.65-5,5.65a4.16,4.16,0,0,1-3.51-1.7h0v5.61h-1.78Zm5,1.32c-2.41,0-3.32,2.08-3.32,4.09s1,4.12,3.42,4.12,3.25-2.08,3.25-4.2S262.61,262.47,260.3,262.47Z" transform="translate(2.35 3)" style="fill:#6d7b85"/><path d="M271.27,264.29,266.33,257h2.39l3.74,5.86,3.91-5.86h2.23l-5,7.29,5.27,7.71h-2.44l-4-6.19L268.28,272H266Z" transform="translate(2.35 3)" style="fill:#6d7b85"/><path d="M278.68,273.57h10.5v1.05h-10.5Z" transform="translate(2.35 3)" style="fill:#6d7b85"/><path d="M296.65,272h-2.27l-5.29-15h2.16l4.28,13h0l4.33-13H302Z" transform="translate(2.35 3)" style="fill:#6d7b85"/><path d="M308.58,272H306.8V261.33h-3.86v-1.43c2,0,3.88-.53,4.28-2.79h1.36Z" transform="translate(2.35 3)" style="fill:#6d7b85"/><path d="M169.48,338.69h-5V337h12v1.68h-5V352h-2Z" transform="translate(2.35 3)" style="fill:#6d7b85"/><path d="M184.68,348.56a4.35,4.35,0,0,1-4.64,3.7c-3.46,0-5.1-2.41-5.21-5.71s2.14-5.65,5.1-5.65c3.84,0,5,3.59,4.91,6.21h-8.13a3.2,3.2,0,0,0,3.38,3.57,2.59,2.59,0,0,0,2.81-2.12Zm-1.72-3a3.12,3.12,0,0,0-3.13-3.07,3.08,3.08,0,0,0-3.11,3.07Z" transform="translate(2.35 3)" style="fill:#6d7b85"/><path d="M187.85,348.58c.06,1.6,1.47,2.1,2.92,2.1,1.11,0,2.62-.25,2.62-1.62,0-2.79-7.1-.9-7.1-5.08,0-2.18,2.14-3.09,4.05-3.09,2.44,0,4.28.76,4.45,3.4H193c-.1-1.39-1.36-1.83-2.52-1.83s-2.31.29-2.31,1.39c0,1.26,1.89,1.51,3.55,1.89s3.55,1,3.55,3.09c0,2.6-2.41,3.42-4.62,3.42-2.44,0-4.49-1-4.6-3.67Z" transform="translate(2.35 3)" style="fill:#6d7b85"/><path d="M199.47,341.14h2.16v1.58h-2.16v6.74c0,.84.23,1,1.34,1h.82V352h-1.36c-1.85,0-2.58-.38-2.58-2.37v-6.91h-1.85v-1.58h1.85v-3.25h1.78Z" transform="translate(2.35 3)" style="fill:#6d7b85"/><path d="M202.16,353.57h10.5v1.05h-10.5Z" transform="translate(2.35 3)" style="fill:#6d7b85"/><path d="M218.33,337h2.2l5.86,15h-2.2l-1.64-4.51H216.2L214.52,352h-2.06Zm-1.49,8.8h5.08l-2.5-7h0Z" transform="translate(2.35 3)" style="fill:#6d7b85"/><path d="M227.82,341.14h1.78v1.47h0a3.63,3.63,0,0,1,3.46-1.72c3.34,0,5,2.65,5,5.71s-1.64,5.65-5,5.65a4.16,4.16,0,0,1-3.51-1.7h0v5.61h-1.78Zm5,1.32c-2.41,0-3.32,2.08-3.32,4.09s1,4.12,3.42,4.12,3.25-2.08,3.25-4.2S235.17,342.47,232.86,342.47Z" transform="translate(2.35 3)" style="fill:#6d7b85"/><path d="M239.89,341.14h1.78v1.47h0a3.63,3.63,0,0,1,3.46-1.72c3.34,0,5,2.65,5,5.71s-1.64,5.65-5,5.65a4.16,4.16,0,0,1-3.51-1.7h0v5.61h-1.78Zm5,1.32c-2.41,0-3.32,2.08-3.32,4.09s1,4.12,3.42,4.12,3.25-2.08,3.25-4.2S247.24,342.47,244.93,342.47Z" transform="translate(2.35 3)" style="fill:#6d7b85"/><path d="M255.89,344.29,251,337h2.39l3.74,5.86L261,337h2.23l-5,7.29,5.27,7.71H261.1l-4-6.19L252.91,352h-2.25Z" transform="translate(2.35 3)" style="fill:#6d7b85"/><path d="M263.31,353.57h10.5v1.05h-10.5Z" transform="translate(2.35 3)" style="fill:#6d7b85"/><path d="M281.28,352H279l-5.29-15h2.16l4.28,13h0l4.33-13h2.08Z" transform="translate(2.35 3)" style="fill:#6d7b85"/><path d="M293.21,352h-1.78V341.33h-3.86v-1.43c2,0,3.88-.53,4.28-2.79h1.36Z" transform="translate(2.35 3)" style="fill:#6d7b85"/><path d="M165.43,417h5.14c4.62,0,7.2,2.33,7.2,7.14,0,5-2.2,7.85-7.2,7.85h-5.14Zm2,13.31h3.32c1.36,0,5-.38,5-5.9,0-3.57-1.32-5.73-5-5.73h-3.36Z" transform="translate(2.35 3)" style="fill:#6d7b85"/><path d="M189,428.56a4.35,4.35,0,0,1-4.64,3.7c-3.46,0-5.1-2.41-5.21-5.71s2.14-5.65,5.1-5.65c3.84,0,5,3.59,4.91,6.21H181a3.2,3.2,0,0,0,3.38,3.57,2.59,2.59,0,0,0,2.81-2.12Zm-1.72-3a3.12,3.12,0,0,0-3.13-3.07,3.08,3.08,0,0,0-3.11,3.07Z" transform="translate(2.35 3)" style="fill:#6d7b85"/><path d="M195.39,432h-1.91l-4-10.86h2l3,9h0l3-9h1.87Z" transform="translate(2.35 3)" style="fill:#6d7b85"/><path d="M199.45,433.57h10.5v1.05h-10.5Z" transform="translate(2.35 3)" style="fill:#6d7b85"/><path d="M215.62,417h2.2l5.86,15h-2.2l-1.64-4.51H213.5L211.82,432h-2.06Zm-1.49,8.8h5.08l-2.5-7h0Z" transform="translate(2.35 3)" style="fill:#6d7b85"/><path d="M225.09,421.14h1.78v1.47h0a3.63,3.63,0,0,1,3.46-1.72c3.34,0,5,2.65,5,5.71s-1.64,5.65-5,5.65a4.16,4.16,0,0,1-3.51-1.7h0v5.61h-1.78Zm5,1.32c-2.41,0-3.32,2.08-3.32,4.09s1,4.12,3.42,4.12,3.25-2.08,3.25-4.2S232.44,422.47,230.13,422.47Z" transform="translate(2.35 3)" style="fill:#6d7b85"/><path d="M237.16,421.14h1.78v1.47h0a3.63,3.63,0,0,1,3.46-1.72c3.34,0,5,2.65,5,5.71s-1.64,5.65-5,5.65a4.16,4.16,0,0,1-3.51-1.7h0v5.61h-1.78Zm5,1.32c-2.41,0-3.32,2.08-3.32,4.09s1,4.12,3.42,4.12,3.25-2.08,3.25-4.2S244.51,422.47,242.2,422.47Z" transform="translate(2.35 3)" style="fill:#6d7b85"/><path d="M253.16,424.29,248.23,417h2.39l3.74,5.86,3.91-5.86h2.23l-5,7.29,5.27,7.71h-2.44l-4-6.19L250.18,432h-2.25Z" transform="translate(2.35 3)" style="fill:#6d7b85"/><path d="M260.58,433.57h10.5v1.05h-10.5Z" transform="translate(2.35 3)" style="fill:#6d7b85"/><path d="M278.55,432h-2.27L271,417h2.16l4.28,13h0l4.33-13h2.08Z" transform="translate(2.35 3)" style="fill:#6d7b85"/><path d="M290.48,432H288.7V421.33h-3.86v-1.43c2,0,3.88-.53,4.28-2.79h1.36Z" transform="translate(2.35 3)" style="fill:#6d7b85"/></g><g style="clip-path:url(#an)"><g style="clip-path:url(#e)"><rect x="440.35" y="145" width="84" height="90" style="fill:#dfe3e6"/></g></g><g style="clip-path:url(#ap)"><g style="clip-path:url(#e)"><rect x="440.35" y="225" width="84" height="90" style="fill:#8c9ba5"/></g></g><g style="clip-path:url(#ar)"><g style="clip-path:url(#e)"><rect x="440.35" y="305" width="84" height="90" style="fill:#5a6872"/></g></g><g style="clip-path:url(#at)"><g style="clip-path:url(#e)"><rect x="440.35" y="385" width="84" height="90" style="fill:#2d3f49"/></g></g><g style="clip-path:url(#av)"><g style="clip-path:url(#aw)"><g style="clip-path:url(#e)"><circle cx="482.85" cy="190.5" r="7.5" style="fill:#fff"/></g></g></g><g style="clip-path:url(#aw)"><g style="clip-path:url(#e)"><circle cx="482.85" cy="190.5" r="7.5" style="fill:none;stroke:#0f212e;stroke-miterlimit:10;stroke-width:6px"/></g></g><g style="clip-path:url(#b)"><line x1="482.35" y1="197" x2="482.35" y2="427" style="fill:none;stroke:#0f212e;stroke-linecap:square;stroke-miterlimit:10;stroke-width:3px"/></g><g style="clip-path:url(#bb)"><g style="clip-path:url(#bc)"><g style="clip-path:url(#e)"><circle cx="482.85" cy="270.5" r="7.5" style="fill:#fff"/></g></g></g><g style="clip-path:url(#bc)"><g style="clip-path:url(#e)"><circle cx="482.85" cy="270.5" r="7.5" style="fill:none;stroke:#0f212e;stroke-miterlimit:10;stroke-width:6px"/></g></g><g style="clip-path:url(#bg)"><g style="clip-path:url(#bh)"><g style="clip-path:url(#e)"><circle cx="482.85" cy="350.5" r="7.5" style="fill:#fff"/></g></g></g><g style="clip-path:url(#bh)"><g style="clip-path:url(#e)"><circle cx="482.85" cy="350.5" r="7.5" style="fill:none;stroke:#0f212e;stroke-miterlimit:10;stroke-width:6px"/></g></g><g style="clip-path:url(#bl)"><g style="clip-path:url(#bm)"><g style="clip-path:url(#e)"><circle cx="482.85" cy="430.5" r="7.5" style="fill:#fff"/></g></g></g><g style="clip-path:url(#bm)"><g style="clip-path:url(#e)"><circle cx="482.85" cy="430.5" r="7.5" style="fill:none;stroke:#0f212e;stroke-miterlimit:10;stroke-width:6px"/></g></g><g style="clip-path:url(#b)"><path d="M545.43,177H552c3,0,4.6,1.64,4.6,4.43s-1.6,4.45-4.6,4.43h-4.58V192h-2Zm2,7.18h3.91c2.27,0,3.28-1,3.28-2.75s-1-2.75-3.28-2.75h-3.91Z" transform="translate(2.35 3)" style="fill:#6d7b85"/><path d="M558.38,181.14h1.68v2.29h0a3.92,3.92,0,0,1,4-2.54v1.89c-2.88,0-3.93,1.62-3.93,4.39V192h-1.79Z" transform="translate(2.35 3)" style="fill:#6d7b85"/><path d="M569.68,180.89c3.44,0,5.27,2.5,5.27,5.69s-1.83,5.67-5.27,5.67-5.27-2.5-5.27-5.67S566.24,180.89,569.68,180.89Zm0,9.79c1.87,0,3.38-1.47,3.38-4.09s-1.51-4.12-3.38-4.12-3.38,1.49-3.38,4.12S567.81,190.68,569.68,190.68Z" transform="translate(2.35 3)" style="fill:#6d7b85"/><path d="M586.63,192h-1.78v-1.47h0a3.63,3.63,0,0,1-3.46,1.72c-3.34,0-5-2.65-5-5.71s1.64-5.65,5-5.65a4.16,4.16,0,0,1,3.51,1.7h0V177h1.78Zm-5-1.32c2.42,0,3.32-2.08,3.32-4.09s-1-4.12-3.42-4.12-3.25,2.08-3.25,4.2S579.28,190.68,581.59,190.68Z" transform="translate(2.35 3)" style="fill:#6d7b85"/><path d="M587.68,193.57h10.5v1.05h-10.5Z" transform="translate(2.35 3)" style="fill:#6d7b85"/><path d="M603.85,177h2.21l5.86,15h-2.2l-1.64-4.51h-6.34L600,192H598Zm-1.49,8.8h5.08l-2.5-7h0Z" transform="translate(2.35 3)" style="fill:#6d7b85"/><path d="M613.32,181.14h1.78v1.47h0a3.63,3.63,0,0,1,3.46-1.72c3.34,0,5,2.65,5,5.71s-1.64,5.65-5,5.65a4.16,4.16,0,0,1-3.51-1.7h0v5.61h-1.78Zm5,1.32c-2.42,0-3.32,2.08-3.32,4.09s1,4.12,3.42,4.12,3.25-2.08,3.25-4.2S620.67,182.47,618.36,182.47Z" transform="translate(2.35 3)" style="fill:#6d7b85"/><path d="M625.39,181.14h1.79v1.47h0a3.63,3.63,0,0,1,3.46-1.72c3.34,0,5,2.65,5,5.71s-1.64,5.65-5,5.65a4.16,4.16,0,0,1-3.51-1.7h0v5.61h-1.79Zm5,1.32c-2.41,0-3.32,2.08-3.32,4.09s1,4.12,3.42,4.12,3.25-2.08,3.25-4.2S632.74,182.47,630.43,182.47Z" transform="translate(2.35 3)" style="fill:#6d7b85"/><path d="M644,185.87V192h-2v-6.13L636.23,177h2.37l4.49,7.14,4.39-7.14h2.27Z" transform="translate(2.35 3)" style="fill:#6d7b85"/><path d="M649.57,193.57h10.5v1.05h-10.5Z" transform="translate(2.35 3)" style="fill:#6d7b85"/><path d="M667.54,192h-2.27L660,177h2.16l4.28,13h0l4.33-13h2.08Z" transform="translate(2.35 3)" style="fill:#6d7b85"/><path d="M679.47,192h-1.79V181.33h-3.86v-1.43c2,0,3.88-.53,4.28-2.79h1.37Z" transform="translate(2.35 3)" style="fill:#6d7b85"/><path d="M554.12,261.4c-.23-2.16-1.64-3.06-3.72-3.06-1.7,0-3.36.61-3.36,2.56,0,3.7,9.59,1.09,9.59,7,0,3.19-3.13,4.47-5.86,4.47-3.36,0-6.19-1.66-6.19-5.29h1.89c0,2.52,2.1,3.61,4.37,3.61,1.81,0,3.8-.57,3.8-2.73,0-4.12-9.59-1.41-9.59-6.91,0-3,2.69-4.39,5.44-4.39,3.06,0,5.42,1.45,5.52,4.74Z" transform="translate(2.35 3)" style="fill:#6d7b85"/><path d="M560.95,261.14h2.16v1.58h-2.16v6.74c0,.84.23,1,1.34,1h.82V272h-1.37c-1.85,0-2.58-.38-2.58-2.37v-6.91h-1.85v-1.58h1.85v-3.25h1.78Z" transform="translate(2.35 3)" style="fill:#6d7b85"/><path d="M574.26,272a2.52,2.52,0,0,1-1.28.29c-.92,0-1.51-.5-1.51-1.68a4.75,4.75,0,0,1-3.82,1.68c-2,0-3.59-.86-3.59-3,0-2.46,1.83-3,3.67-3.34s3.65-.23,3.65-1.6c0-1.57-1.3-1.81-2.42-1.81-1.51,0-2.62.46-2.71,2.06h-1.79c.11-2.69,2.16-3.63,4.6-3.63,2,0,4.07.44,4.07,3v5.58c0,.84,0,1.22.57,1.22a1.8,1.8,0,0,0,.55-.11Zm-2.9-5.56c-1.39,1-5.42,0-5.42,2.69,0,1.18,1,1.6,2.1,1.6,2.35,0,3.32-1.45,3.32-2.46Z" transform="translate(2.35 3)" style="fill:#6d7b85"/><path d="M585.18,271.08c0,3.55-1.6,5.33-5,5.33-2,0-4.39-.84-4.49-3.19h1.79c.06,1.28,1.66,1.76,2.81,1.76,2.33,0,3.25-1.68,3.25-4.12v-.71h0a3.62,3.62,0,0,1-3.38,2c-3.23,0-4.85-2.54-4.85-5.5,0-2.56,1.24-5.73,5-5.73a3.54,3.54,0,0,1,3.23,1.81h0v-1.55h1.68Zm-1.76-4.72c0-1.91-.84-3.88-3.09-3.88s-3.21,1.87-3.21,3.95.71,4.14,3.07,4.14S583.42,268.39,583.42,266.35Z" transform="translate(2.35 3)" style="fill:#6d7b85"/><path d="M596.77,268.56a4.35,4.35,0,0,1-4.64,3.7c-3.46,0-5.1-2.41-5.21-5.71s2.14-5.65,5.1-5.65c3.84,0,5,3.59,4.91,6.21h-8.13a3.2,3.2,0,0,0,3.38,3.57,2.59,2.59,0,0,0,2.81-2.12Zm-1.72-3a3.12,3.12,0,0,0-3.13-3.07,3.08,3.08,0,0,0-3.11,3.07Z" transform="translate(2.35 3)" style="fill:#6d7b85"/><path d="M597.53,273.57H608v1.05h-10.5Z" transform="translate(2.35 3)" style="fill:#6d7b85"/><path d="M613.7,257h2.21l5.86,15h-2.21l-1.64-4.51h-6.34L609.9,272h-2.06Zm-1.49,8.8h5.08l-2.5-7h0Z" transform="translate(2.35 3)" style="fill:#6d7b85"/><path d="M623.19,261.14H625v1.47h0a3.63,3.63,0,0,1,3.46-1.72c3.34,0,5,2.65,5,5.71s-1.64,5.65-5,5.65a4.16,4.16,0,0,1-3.51-1.7h0v5.61h-1.79Zm5,1.32c-2.41,0-3.32,2.08-3.32,4.09s1,4.12,3.42,4.12,3.25-2.08,3.25-4.2S630.54,262.47,628.23,262.47Z" transform="translate(2.35 3)" style="fill:#6d7b85"/><path d="M635.27,261.14H637v1.47h0a3.63,3.63,0,0,1,3.46-1.72c3.34,0,5,2.65,5,5.71s-1.64,5.65-5,5.65a4.16,4.16,0,0,1-3.51-1.7h0v5.61h-1.78Zm5,1.32c-2.42,0-3.32,2.08-3.32,4.09s1,4.12,3.42,4.12,3.25-2.08,3.25-4.2S642.61,262.47,640.3,262.47Z" transform="translate(2.35 3)" style="fill:#6d7b85"/><path d="M653.89,265.87V272h-2v-6.13L646.1,257h2.37l4.49,7.14,4.39-7.14h2.27Z" transform="translate(2.35 3)" style="fill:#6d7b85"/><path d="M659.44,273.57h10.5v1.05h-10.5Z" transform="translate(2.35 3)" style="fill:#6d7b85"/><path d="M677.41,272h-2.27l-5.29-15H672l4.28,13h0l4.32-13h2.08Z" transform="translate(2.35 3)" style="fill:#6d7b85"/><path d="M689.34,272h-1.78V261.33h-3.86v-1.43c2,0,3.88-.53,4.28-2.79h1.36Z" transform="translate(2.35 3)" style="fill:#6d7b85"/><path d="M549.48,338.69h-5V337h12v1.68h-5V352h-2Z" transform="translate(2.35 3)" style="fill:#6d7b85"/><path d="M564.68,348.56a4.35,4.35,0,0,1-4.64,3.7c-3.46,0-5.1-2.41-5.21-5.71s2.14-5.65,5.1-5.65c3.84,0,5,3.59,4.91,6.21h-8.13a3.2,3.2,0,0,0,3.38,3.57,2.59,2.59,0,0,0,2.81-2.12Zm-1.72-3a3.12,3.12,0,0,0-3.13-3.07,3.08,3.08,0,0,0-3.11,3.07Z" transform="translate(2.35 3)" style="fill:#6d7b85"/><path d="M567.86,348.58c.06,1.6,1.47,2.1,2.92,2.1,1.11,0,2.63-.25,2.63-1.62,0-2.79-7.1-.9-7.1-5.08,0-2.18,2.14-3.09,4.05-3.09,2.44,0,4.28.76,4.45,3.4H573c-.1-1.39-1.36-1.83-2.52-1.83s-2.31.29-2.31,1.39c0,1.26,1.89,1.51,3.55,1.89s3.55,1,3.55,3.09c0,2.6-2.41,3.42-4.62,3.42-2.44,0-4.49-1-4.6-3.67Z" transform="translate(2.35 3)" style="fill:#6d7b85"/><path d="M579.47,341.14h2.16v1.58h-2.16v6.74c0,.84.23,1,1.34,1h.82V352h-1.37c-1.85,0-2.58-.38-2.58-2.37v-6.91h-1.85v-1.58h1.85v-3.25h1.78Z" transform="translate(2.35 3)" style="fill:#6d7b85"/><path d="M582.16,353.57h10.5v1.05h-10.5Z" transform="translate(2.35 3)" style="fill:#6d7b85"/><path d="M598.33,337h2.2l5.86,15h-2.2l-1.64-4.51h-6.34L594.53,352h-2.06Zm-1.49,8.8h5.08l-2.5-7h0Z" transform="translate(2.35 3)" style="fill:#6d7b85"/><path d="M607.82,341.14h1.78v1.47h0a3.63,3.63,0,0,1,3.46-1.72c3.34,0,5,2.65,5,5.71s-1.64,5.65-5,5.65a4.16,4.16,0,0,1-3.51-1.7h0v5.61h-1.78Zm5,1.32c-2.42,0-3.32,2.08-3.32,4.09s1,4.12,3.42,4.12,3.25-2.08,3.25-4.2S615.17,342.47,612.86,342.47Z" transform="translate(2.35 3)" style="fill:#6d7b85"/><path d="M619.89,341.14h1.79v1.47h0a3.63,3.63,0,0,1,3.46-1.72c3.34,0,5,2.65,5,5.71s-1.64,5.65-5,5.65a4.16,4.16,0,0,1-3.51-1.7h0v5.61h-1.79Zm5,1.32c-2.41,0-3.32,2.08-3.32,4.09s1,4.12,3.42,4.12,3.25-2.08,3.25-4.2S627.24,342.47,624.93,342.47Z" transform="translate(2.35 3)" style="fill:#6d7b85"/><path d="M638.52,345.87V352h-2v-6.13L630.73,337h2.37l4.49,7.14L642,337h2.27Z" transform="translate(2.35 3)" style="fill:#6d7b85"/><path d="M644.06,353.57h10.5v1.05h-10.5Z" transform="translate(2.35 3)" style="fill:#6d7b85"/><path d="M662,352h-2.27l-5.29-15h2.16l4.28,13h0l4.33-13h2.08Z" transform="translate(2.35 3)" style="fill:#6d7b85"/><path d="M674,352h-1.79V341.33h-3.86v-1.43c2,0,3.88-.53,4.28-2.79H674Z" transform="translate(2.35 3)" style="fill:#6d7b85"/><path d="M545.43,417h5.14c4.62,0,7.2,2.33,7.2,7.14,0,5-2.21,7.85-7.2,7.85h-5.14Zm2,13.31h3.32c1.36,0,5-.38,5-5.9,0-3.57-1.32-5.73-5-5.73h-3.36Z" transform="translate(2.35 3)" style="fill:#6d7b85"/><path d="M569,428.56a4.35,4.35,0,0,1-4.64,3.7c-3.46,0-5.1-2.41-5.21-5.71s2.14-5.65,5.1-5.65c3.84,0,5,3.59,4.91,6.21H561a3.2,3.2,0,0,0,3.38,3.57,2.59,2.59,0,0,0,2.81-2.12Zm-1.72-3a3.12,3.12,0,0,0-3.13-3.07,3.08,3.08,0,0,0-3.11,3.07Z" transform="translate(2.35 3)" style="fill:#6d7b85"/><path d="M575.39,432h-1.91l-4-10.86h2l3,9h0l3-9h1.87Z" transform="translate(2.35 3)" style="fill:#6d7b85"/><path d="M579.45,433.57h10.5v1.05h-10.5Z" transform="translate(2.35 3)" style="fill:#6d7b85"/><path d="M595.62,417h2.2l5.86,15h-2.2l-1.64-4.51H593.5L591.82,432h-2.06Zm-1.49,8.8h5.08l-2.5-7h0Z" transform="translate(2.35 3)" style="fill:#6d7b85"/><path d="M605.09,421.14h1.79v1.47h0a3.63,3.63,0,0,1,3.46-1.72c3.34,0,5,2.65,5,5.71s-1.64,5.65-5,5.65a4.16,4.16,0,0,1-3.51-1.7h0v5.61h-1.79Zm5,1.32c-2.41,0-3.32,2.08-3.32,4.09s1,4.12,3.42,4.12,3.25-2.08,3.25-4.2S612.44,422.47,610.13,422.47Z" transform="translate(2.35 3)" style="fill:#6d7b85"/><path d="M617.16,421.14h1.78v1.47h0a3.63,3.63,0,0,1,3.46-1.72c3.34,0,5,2.65,5,5.71s-1.64,5.65-5,5.65a4.15,4.15,0,0,1-3.51-1.7h0v5.61h-1.78Zm5,1.32c-2.42,0-3.32,2.08-3.32,4.09s1,4.12,3.42,4.12,3.25-2.08,3.25-4.2S624.51,422.47,622.2,422.47Z" transform="translate(2.35 3)" style="fill:#6d7b85"/><path d="M635.79,425.87V432h-2v-6.13L628,417h2.37l4.49,7.14,4.39-7.14h2.27Z" transform="translate(2.35 3)" style="fill:#6d7b85"/><path d="M641.33,433.57h10.5v1.05h-10.5Z" transform="translate(2.35 3)" style="fill:#6d7b85"/><path d="M659.31,432H657l-5.29-15h2.16l4.28,13h0l4.33-13h2.08Z" transform="translate(2.35 3)" style="fill:#6d7b85"/><path d="M671.24,432h-1.79V421.33h-3.86v-1.43c2,0,3.88-.53,4.28-2.79h1.37Z" transform="translate(2.35 3)" style="fill:#6d7b85"/></g></svg>