<?xml version="1.0" encoding="utf-8"?>
<!-- Generator: Adobe Illustrator 16.0.0, SVG Export Plug-In . SVG Version: 6.00 Build 0)  -->
<!DOCTYPE svg PUBLIC "-//W3C//DTD SVG 1.1//EN" "http://www.w3.org/Graphics/SVG/1.1/DTD/svg11.dtd">
<svg version="1.1" id="Layer_1" xmlns="http://www.w3.org/2000/svg" xmlns:xlink="http://www.w3.org/1999/xlink" x="0px" y="0px"
	 width="1613px" height="831px" viewBox="0 0 1613 831" enable-background="new 0 0 1613 831" xml:space="preserve">
<title>Desktop HD</title>
<desc>Created with Sketch.</desc>
<g id="Page-1_6_">
	<g id="Desktop-HD">
		<polyline id="Stroke-36" fill="none" stroke="#FF2F2F" stroke-width="6" stroke-linecap="square" points="181,589 433.684,588 
			445.504,548 		"/>
		<polyline id="Stroke-38" fill="none" stroke="#5596E6" stroke-width="6" stroke-linecap="square" points="181,297 433.684,298 
			445.504,338 		"/>
		<text transform="matrix(1 0 0 1 48.4238 351)" fill="#3C3232" font-family="'ArialMT-Bold'" font-size="32">Fattura Bluemix</text>
		<text transform="matrix(1 0 0 1 34.9521 641)" fill="#3C3232" font-family="'ArialMT-Bold'" font-size="32">Fattura SoftLayer</text>
		<g id="Page-1" transform="translate(94.000000, 488.000000)">
			<path id="Fill-1" fill="#FF2F2F" d="M-1,0.999v120h80v-88l-32-32H-1z M3,5.001h40v31.998h32v80.002H3V5.001z"/>
			<polygon id="Fill-2" fill="#FF2F2F" points="15,53 63,53 63,49 15,49 			"/>
			<polygon id="Fill-3" fill="#FF2F2F" points="15,61 63,61 63,57 15,57 			"/>
			<polygon id="Fill-4" fill="#FF2F2F" points="15,69 39,69 39,65 15,65 			"/>
		</g>
		<text transform="matrix(1 0 0 1 821.9521 638)" fill="#3C3232" font-family="'ArialMT-Bold'" font-size="32">Fattura SoftLayer</text>
		<g id="Page-1_1_" transform="translate(942.000000, 477.000000)">
			<path id="Fill-1_1_" fill="#FF2F2F" d="M-1,0.999v120h80v-88l-32-32H-1z M3,5.001h40v31.998h32v80.002H3V5.001z"/>
			<polygon id="Fill-2_1_" fill="#FF2F2F" points="15,53 63,53 63,49 15,49 			"/>
			<polygon id="Fill-3_1_" fill="#FF2F2F" points="15,61 63,61 63,57 15,57 			"/>
			<polygon id="Fill-4_1_" fill="#FF2F2F" points="15,69 39,69 39,65 15,65 			"/>
		</g>
		<g id="Page-1_2_" transform="translate(94.000000, 200.000000)">
			<path id="Fill-1_2_" fill="#5596E6" d="M-1,0.142V119h80V31.837L47,0.142H-1z M3,4.106h40v31.693h32v79.24H3V4.106z"/>
			<polygon id="Fill-2_2_" fill="#5596E6" points="15,51.647 63,51.647 63,47.686 15,47.686 			"/>
			<polygon id="Fill-3_2_" fill="#5596E6" points="15,59.571 63,59.571 63,55.609 15,55.609 			"/>
			<polygon id="Fill-4_2_" fill="#5596E6" points="15,67.495 39,67.495 39,63.533 15,63.533 			"/>
		</g>
		<text transform="matrix(1 0 0 1 643.9238 205)" fill="#3C3232" font-family="'ArialMT-Bold'" font-size="32">Fattura Bluemix</text>
		<g id="Page-1_3_" transform="translate(689.000000, 44.000000)">
			<path id="Fill-1_3_" fill="#5596E6" d="M-1,1v120h80V33L47,1H-1z M3,5.001h40V37h32v80.002H3V5.001z"/>
			<polygon id="Fill-2_3_" fill="#5596E6" points="15,53 63,53 63,49 15,49 			"/>
			<polygon id="Fill-3_3_" fill="#5596E6" points="15,61 63,61 63,57 15,57 			"/>
			<polygon id="Fill-4_3_" fill="#5596E6" points="15,69 39,69 39,65 15,65 			"/>
		</g>
		<g id="Page-1_4_" transform="translate(402.000000, 361.000000)">
			<g id="Clip-2">
			</g>
			<defs>
				<filter id="Adobe_OpacityMaskFilter" filterUnits="userSpaceOnUse" x="-1" y="0" width="90" height="90">
					<feColorMatrix  type="matrix" values="1 0 0 0 0  0 1 0 0 0  0 0 1 0 0  0 0 0 1 0"/>
				</filter>
			</defs>
			<mask maskUnits="userSpaceOnUse" x="-1" y="0" width="90" height="90" id="mask-2">
				<g filter="url(#Adobe_OpacityMaskFilter)">
					<polygon id="path-1" fill="#FFFFFF" points="89,0 -1,0 -1,90 89,90 					"/>
				</g>
			</mask>
			<path id="Fill-1_4_" mask="url(#mask-2)" d="M78.606,31.606l-9,9C66.772,43.439,63.006,45,59,45
				c-1.928,0-3.803-0.349-5.535-0.979l12.778-12.777l-8.485-8.485L44.979,35.535C44.348,33.804,44,31.929,44,30
				c0-4.006,1.56-7.773,4.394-10.606l9-9C60.227,7.56,63.993,6,68,6c4.006,0,7.772,1.56,10.606,4.394C81.439,13.227,83,16.993,83,21
				C83,25.006,81.439,28.772,78.606,31.606 M44,60c0,4.006-1.561,7.772-4.394,10.606l-9,9C27.772,82.439,24.006,84,20,84
				c-4.007,0-7.773-1.561-10.606-4.394C6.56,76.772,5,73.006,5,69c0-4.007,1.56-7.773,4.394-10.606l9-9
				C21.227,46.56,24.993,45,29,45c1.929,0,3.804,0.348,5.535,0.979L21.758,58.758l8.485,8.485l12.777-12.778
				C43.651,56.197,44,58.072,44,60 M82.85,6.151C79.049,2.352,73.799,0,68,0S56.951,2.352,53.151,6.151l-9,9
				C40.352,18.951,38,24.201,38,30c0,3.617,0.857,7.078,2.422,10.092l-1.33,1.33C36.078,39.857,32.616,39,29,39
				c-5.799,0-11.049,2.352-14.849,6.151l-9,9C1.352,57.951-1,63.201-1,69s2.352,11.049,6.151,14.85C8.951,87.649,14.201,90,20,90
				s11.049-2.351,14.85-6.15l9-9C47.649,71.049,50,65.799,50,60c0-3.617-0.856-7.077-2.423-10.092l1.331-1.331
				C51.923,50.144,55.383,51,59,51c5.799,0,11.049-2.351,14.85-6.15l9-9C86.649,32.049,89,26.799,89,21
				C89,15.201,86.649,9.951,82.85,6.151"/>
		</g>
		<text transform="matrix(1 0 0 1 318.9561 485)" enable-background="new    "><tspan x="0" y="0" fill="#3C3232" font-family="'ArialMT-Bold'" font-size="32">Collegamento agli account</tspan><tspan x="0" y="38.4" fill="#3C3232" font-family="'ArialMT-Bold'" font-size="32">Bluemix e SoftLayer</tspan></text>
		<text transform="matrix(1 0 0 1 1149.2852 477)" enable-background="new    "><tspan x="0" y="0" fill="#3C3232" font-family="'HelveticaNeue-Medium'" font-size="30">Per il prossimo ciclo di</tspan><tspan x="0" y="36" fill="#3C3232" font-family="'HelveticaNeue-Medium'" font-size="30">fatturazione, riceverai un&apos;unica</tspan><tspan x="0" y="72" fill="#3C3232" font-family="'HelveticaNeue-Medium'" font-size="30">fattura SoftLayer che include i</tspan><tspan x="0" y="108" fill="#3C3232" font-family="'HelveticaNeue-Medium'" font-size="30">tuoi addebiti Bluemix e</tspan><tspan x="0" y="144" fill="#3C3232" font-family="'HelveticaNeue-Medium'" font-size="30">SoftLayer.</tspan></text>
		<text transform="matrix(1 0 0 1 1256.8643 391)" enable-background="new    "><tspan x="0" y="0" fill="#3C3232" font-family="'ArialMT-Bold'" font-size="32">Fattura SoftLayer</tspan><tspan x="0" y="38.4" fill="#3C3232" font-family="'ArialMT-Bold'" font-size="32">e Bluemix</tspan></text>
		<g id="Page-1_5_" transform="translate(1309.000000, 221.000000)">
			<path id="Fill-1_5_" d="M-1,0v120h80V32L47,0H-1z M3,4h40v32h32v80H3V4z"/>
			<polygon id="Fill-2_4_" points="15,52 63,52 63,48 15,48 			"/>
			<polygon id="Fill-3_4_" points="15,60 63,60 63,56 15,56 			"/>
			<polygon id="Fill-4_4_" points="15,68 39,68 39,64 15,64 			"/>
		</g>
		
			<g id="Group" transform="translate(857.500000, 412.500000) scale(1, -1) translate(-857.500000, -412.500000) translate(492.000000, 391.000000)">
			<path id="Line" fill="none" stroke="#AF6EE8" stroke-width="6" stroke-linecap="square" d="M0.261,21.5H730"/>
			<path id="Line-decoration-1" fill="none" stroke="#AF6EE8" stroke-width="6" stroke-linecap="square" d="M730,18.5v6"/>
		</g>
		<text transform="matrix(1 0 0 1 514.04 247)" enable-background="new    "><tspan x="0" y="0" fill="#1A1314" font-family="'HelveticaNeue-Medium'" font-size="30">Dopo aver collegato gli account,</tspan><tspan x="0" y="36" fill="#1A1314" font-family="'HelveticaNeue-Medium'" font-size="30">riceverai una fattura separata sul</tspan><tspan x="0" y="72" fill="#1A1314" font-family="'HelveticaNeue-Medium'" font-size="30">tuo utilizzo di Bluemix per il ciclo</tspan><tspan x="0" y="108" fill="#1A1314" font-family="'HelveticaNeue-Medium'" font-size="30">di fatturazione mensile corrente.</tspan></text>
		<text transform="matrix(1 0 0 1 705.77 683)" enable-background="new    "><tspan x="0" y="0" fill="#3C3232" font-family="'HelveticaNeue-Medium'" font-size="30">Potresti ricevere una fattura</tspan><tspan x="0" y="36" fill="#3C3232" font-family="'HelveticaNeue-Medium'" font-size="30">separata sull&apos;utilizzo di SoftLayer</tspan><tspan x="0" y="72" fill="#3C3232" font-family="'HelveticaNeue-Medium'" font-size="30">per il ciclo di fatturazione mensile, in</tspan><tspan x="0" y="108" fill="#3C3232" font-family="'HelveticaNeue-Medium'" font-size="30">base a quando hai collegato i tuoi account.</tspan></text>
		<g id="Group-2" transform="translate(613.000000, 367.000000)">
			<path id="Line_1_" fill="none" stroke="#5596E6" stroke-width="6" stroke-dasharray="15,5" d="M4.62,3h217.895"/>
			<path id="Line_2_" fill="none" stroke="#AF6EE8" stroke-width="6" d="M2,43V2"/>
			<path id="Line-Copy" fill="none" stroke="#AF6EE8" stroke-width="6" d="M228,43V2"/>
		</g>
		
			<g id="Group-2_1_" transform="translate(982.000000, 433.500000) rotate(-180.000000) translate(-982.000000, -433.500000) translate(877.000000, 412.000000)">
			<path id="Line_3_" fill="none" stroke="#FF2F2F" stroke-width="6" stroke-dasharray="15,5" d="M6.059,3h196.104"/>
			<path id="Line_4_" fill="none" stroke="#AF6EE8" stroke-width="6" d="M4,43V2.774"/>
			<path id="Line-Copy_1_" fill="none" stroke="#AF6EE8" stroke-width="6" d="M208,43V2.774"/>
		</g>
	</g>
</g>
</svg>
