<?xml version="1.0" encoding="utf-8"?>
<!-- Generator: Adobe Illustrator 16.0.0, SVG Export Plug-In . SVG Version: 6.00 Build 0)  -->
<!DOCTYPE svg PUBLIC "-//W3C//DTD SVG 1.1//EN" "http://www.w3.org/Graphics/SVG/1.1/DTD/svg11.dtd">
<svg version="1.1" id="Layer_1" xmlns="http://www.w3.org/2000/svg" xmlns:xlink="http://www.w3.org/1999/xlink" x="0px" y="0px"
	 width="1613px" height="831px" viewBox="0 0 1613 831" enable-background="new 0 0 1613 831" xml:space="preserve">
<title>Desktop HD</title>
<desc>Created with Sketch.</desc>
<g id="Page-1_6_">
	<g id="Desktop-HD">
		<polyline id="Stroke-36" fill="none" stroke="#FF2F2F" stroke-width="6" stroke-linecap="square" points="182,589 434.684,588 
			446.504,548 		"/>
		<polyline id="Stroke-38" fill="none" stroke="#5596E6" stroke-width="6" stroke-linecap="square" points="182,297 434.684,298 
			446.504,338 		"/>
		<text transform="matrix(1 0 0 1 49.4238 351)" fill="#3C3232" font-family="'ArialMT-Bold'" font-size="32">Fattura Bluemix</text>
		<text transform="matrix(1 0 0 1 35.9521 641)" fill="#3C3232" font-family="'ArialMT-Bold'" font-size="32">Fattura SoftLayer</text>
		<g id="Page-1" transform="translate(94.000000, 488.000000)">
			<path id="Fill-1" fill="#FF2F2F" d="M0,0.999v120h80v-88l-32-32H0z M4,5.001h40v31.998h32v80.002H4V5.001z"/>
			<polygon id="Fill-2" fill="#FF2F2F" points="16,53 64,53 64,49 16,49 			"/>
			<polygon id="Fill-3" fill="#FF2F2F" points="16,61 64,61 64,57 16,57 			"/>
			<polygon id="Fill-4" fill="#FF2F2F" points="16,69 40,69 40,65 16,65 			"/>
		</g>
		<text transform="matrix(1 0 0 1 883.9521 638)" fill="#3C3232" font-family="'ArialMT-Bold'" font-size="32">Fattura SoftLayer</text>
		<g id="Page-1_1_" transform="translate(942.000000, 477.000000)">
			<path id="Fill-1_1_" fill="#FF2F2F" d="M0,0.999v120h80v-88l-32-32H0z M4,5.001h40v31.998h32v80.002H4V5.001z"/>
			<polygon id="Fill-2_1_" fill="#FF2F2F" points="16,53 64,53 64,49 16,49 			"/>
			<polygon id="Fill-3_1_" fill="#FF2F2F" points="16,61 64,61 64,57 16,57 			"/>
			<polygon id="Fill-4_1_" fill="#FF2F2F" points="16,69 40,69 40,65 16,65 			"/>
		</g>
		<g id="Page-1_2_" transform="translate(94.000000, 200.000000)">
			<path id="Fill-1_2_" fill="#5596E6" d="M0,0.142V119h80V31.837L48,0.142H0z M4,4.106h40v31.693h32v79.24H4V4.106z"/>
			<polygon id="Fill-2_2_" fill="#5596E6" points="16,51.647 64,51.647 64,47.686 16,47.686 			"/>
			<polygon id="Fill-3_2_" fill="#5596E6" points="16,59.571 64,59.571 64,55.609 16,55.609 			"/>
			<polygon id="Fill-4_2_" fill="#5596E6" points="16,67.495 40,67.495 40,63.533 16,63.533 			"/>
		</g>
		<text transform="matrix(1 0 0 1 644.9238 205)" fill="#3C3232" font-family="'ArialMT-Bold'" font-size="32">Fattura Bluemix</text>
		<g id="Page-1_3_" transform="translate(689.000000, 44.000000)">
			<path id="Fill-1_3_" fill="#5596E6" d="M0,1v120h80V33L48,1H0z M4,5.001h40V37h32v80.002H4V5.001z"/>
			<polygon id="Fill-2_3_" fill="#5596E6" points="16,53 64,53 64,49 16,49 			"/>
			<polygon id="Fill-3_3_" fill="#5596E6" points="16,61 64,61 64,57 16,57 			"/>
			<polygon id="Fill-4_3_" fill="#5596E6" points="16,69 40,69 40,65 16,65 			"/>
		</g>
		<g id="Page-1_4_" transform="translate(402.000000, 361.000000)">
			<g id="Clip-2">
			</g>
			<defs>
				<filter id="Adobe_OpacityMaskFilter" filterUnits="userSpaceOnUse" x="0" y="0" width="90" height="90">
					<feColorMatrix  type="matrix" values="1 0 0 0 0  0 1 0 0 0  0 0 1 0 0  0 0 0 1 0"/>
				</filter>
			</defs>
			<mask maskUnits="userSpaceOnUse" x="0" y="0" width="90" height="90" id="mask-2">
				<g filter="url(#Adobe_OpacityMaskFilter)">
					<polygon id="path-1" fill="#FFFFFF" points="90,0 0,0 0,90 90,90 					"/>
				</g>
			</mask>
			<path id="Fill-1_4_" mask="url(#mask-2)" d="M79.606,31.606l-9,9C67.772,43.439,64.006,45,60,45
				c-1.928,0-3.803-0.349-5.535-0.979l12.778-12.777l-8.485-8.485L45.979,35.535C45.348,33.804,45,31.929,45,30
				c0-4.006,1.56-7.773,4.394-10.606l9-9C61.227,7.56,64.993,6,69,6c4.006,0,7.772,1.56,10.606,4.394C82.439,13.227,84,16.993,84,21
				C84,25.006,82.439,28.772,79.606,31.606 M45,60c0,4.006-1.561,7.772-4.394,10.606l-9,9C28.772,82.439,25.006,84,21,84
				c-4.007,0-7.773-1.561-10.606-4.394C7.56,76.772,6,73.006,6,69c0-4.007,1.56-7.773,4.394-10.606l9-9
				C22.227,46.56,25.993,45,30,45c1.929,0,3.804,0.348,5.535,0.979L22.758,58.758l8.485,8.485l12.777-12.778
				C44.651,56.197,45,58.072,45,60 M83.85,6.151C80.049,2.352,74.799,0,69,0S57.951,2.352,54.151,6.151l-9,9
				C41.352,18.951,39,24.201,39,30c0,3.617,0.857,7.078,2.422,10.092l-1.33,1.33C37.078,39.857,33.616,39,30,39
				c-5.799,0-11.049,2.352-14.849,6.151l-9,9C2.352,57.951,0,63.201,0,69s2.352,11.049,6.151,14.85C9.951,87.649,15.201,90,21,90
				s11.049-2.351,14.85-6.15l9-9C48.649,71.049,51,65.799,51,60c0-3.617-0.856-7.077-2.423-10.092l1.331-1.331
				C52.923,50.144,56.383,51,60,51c5.799,0,11.049-2.351,14.85-6.15l9-9C87.649,32.049,90,26.799,90,21
				C90,15.201,87.649,9.951,83.85,6.151"/>
		</g>
		<text transform="matrix(1 0 0 1 319.9561 485)" enable-background="new    "><tspan x="0" y="0" fill="#3C3232" font-family="'ArialMT-Bold'" font-size="32">Collega gli account Bluemix </tspan><tspan x="0" y="38.4" fill="#3C3232" font-family="'ArialMT-Bold'" font-size="32">e SoftLayer. </tspan></text>
		<text transform="matrix(1 0 0 1 1159.2852 468)" enable-background="new    "><tspan x="0" y="0" fill="#3C3232" font-family="'HelveticaNeue-Medium'" font-size="30">Per il successivo ciclo di</tspan><tspan x="0" y="36" fill="#3C3232" font-family="'HelveticaNeue-Medium'" font-size="30">fatturazione, riceverai un’unica</tspan><tspan x="0" y="72" fill="#3C3232" font-family="'HelveticaNeue-Medium'" font-size="30">fattura SoftLayer che</tspan><tspan x="0" y="108" fill="#3C3232" font-family="'HelveticaNeue-Medium'" font-size="30">comprende gli addebiti di</tspan><tspan x="0" y="144" fill="#3C3232" font-family="'HelveticaNeue-Medium'" font-size="30">SoftLayer e Bluemix</tspan></text>
		<text transform="matrix(1 0 0 1 1257.8643 391)" enable-background="new    "><tspan x="0" y="0" fill="#3C3232" font-family="'ArialMT-Bold'" font-size="32">Fattura Bluemix</tspan><tspan x="0" y="38.4" fill="#3C3232" font-family="'ArialMT-Bold'" font-size="32">e SoftLayer</tspan></text>
		<g id="Page-1_5_" transform="translate(1309.000000, 221.000000)">
			<path id="Fill-1_5_" d="M0,0v120h80V32L48,0H0z M4,4h40v32h32v80H4V4z"/>
			<polygon id="Fill-2_4_" points="16,52 64,52 64,48 16,48 			"/>
			<polygon id="Fill-3_4_" points="16,60 64,60 64,56 16,56 			"/>
			<polygon id="Fill-4_4_" points="16,68 40,68 40,64 16,64 			"/>
		</g>
		
			<g id="Group" transform="translate(857.500000, 412.500000) scale(1, -1) translate(-857.500000, -412.500000) translate(492.000000, 391.000000)">
			<path id="Line" fill="none" stroke="#AF6EE8" stroke-width="6" stroke-linecap="square" d="M1.261,21.5H731"/>
			<path id="Line-decoration-1" fill="none" stroke="#AF6EE8" stroke-width="6" stroke-linecap="square" d="M731,18.5v6"/>
		</g>
		<text transform="matrix(1 0 0 1 515.04 247)" enable-background="new    "><tspan x="0" y="0" fill="#1A1314" font-family="'HelveticaNeue-Medium'" font-size="30">Una volta collegati gli account,  </tspan><tspan x="0" y="36" fill="#1A1314" font-family="'HelveticaNeue-Medium'" font-size="30">riceverai una fattura distinta per l’utilizzo</tspan><tspan x="0" y="72" fill="#1A1314" font-family="'HelveticaNeue-Medium'" font-size="30">di Bluemix per il ciclo di fatturazione del </tspan><tspan x="0" y="108" fill="#1A1314" font-family="'HelveticaNeue-Medium'" font-size="30">mese corrente.</tspan></text>
		<text transform="matrix(1 0 0 1 758.77 683)" enable-background="new    "><tspan x="0" y="0" fill="#3C3232" font-family="'HelveticaNeue-Medium'" font-size="30">A seconda di quando hai collegato i tuoi</tspan><tspan x="0" y="36" fill="#3C3232" font-family="'HelveticaNeue-Medium'" font-size="30">account, potresti ricevere una fattura distinta</tspan><tspan x="0" y="72" fill="#3C3232" font-family="'HelveticaNeue-Medium'" font-size="30">per l’utilizzo di SoftLayer per il ciclo di fatturazione</tspan><tspan x="0" y="108" fill="#3C3232" font-family="'HelveticaNeue-Medium'" font-size="30">corrente</tspan></text>
		<g id="Group-2" transform="translate(613.000000, 367.000000)">
			<path id="Line_1_" fill="none" stroke="#5596E6" stroke-width="6" stroke-dasharray="15,5" d="M5.62,3h217.895"/>
			<path id="Line_2_" fill="none" stroke="#AF6EE8" stroke-width="6" d="M3,43V2"/>
			<path id="Line-Copy" fill="none" stroke="#AF6EE8" stroke-width="6" d="M229,43V2"/>
		</g>
		
			<g id="Group-2_1_" transform="translate(982.000000, 433.500000) rotate(-180.000000) translate(-982.000000, -433.500000) translate(877.000000, 412.000000)">
			<path id="Line_3_" fill="none" stroke="#FF2F2F" stroke-width="6" stroke-dasharray="15,5" d="M5.059,3h196.104"/>
			<path id="Line_4_" fill="none" stroke="#AF6EE8" stroke-width="6" d="M3,43V2.774"/>
			<path id="Line-Copy_1_" fill="none" stroke="#AF6EE8" stroke-width="6" d="M207,43V2.774"/>
		</g>
	</g>
</g>
</svg>
