<?xml version="1.0" encoding="utf-8"?>
<!-- Generator: Adobe Illustrator 19.0.0, SVG Export Plug-In . SVG Version: 6.00 Build 0)  -->
<!DOCTYPE svg PUBLIC "-//W3C//DTD SVG 1.1//EN" "http://www.w3.org/Graphics/SVG/1.1/DTD/svg11.dtd">
<svg version="1.1" id="Layer_1" xmlns:sketch="http://www.bohemiancoding.com/sketch/ns"
	 xmlns="http://www.w3.org/2000/svg" xmlns:xlink="http://www.w3.org/1999/xlink" x="0px" y="0px" viewBox="-618 380 42 41"
	 style="enable-background:new -618 380 42 41;" xml:space="preserve" fill="#0071c2">
<title>Imported Layers</title>
<desc>Created with Sketch.</desc>
<g id="Page-1" sketch:type="MSPage">
	<g id="Compute-Taxonomy" transform="translate(-420.000000, -181.000000)" sketch:type="MSArtboardGroup">
		<g id="Main-Menu" transform="translate(38.000000, 83.000000)" sketch:type="MSLayerGroup">
			<path d="M-199.6,518.6c-2.8,0-5.2-2.4-5.2-5.3c0-2.9,2.3-5.3,5.2-5.3s5.2,2.4,5.2,5.3C-194.4,516.2-196.7,518.6-199.6,518.6z
				 M-199.6,509.3c-2.1,0-3.9,1.8-3.9,4c0,2.2,1.7,4,3.9,4s3.9-1.8,3.9-4C-195.7,511.1-197.5,509.3-199.6,509.3z M-215,518.6
				c-2.8,0-5.2-2.4-5.2-5.3c0-2.9,2.3-5.3,5.2-5.3c2.8,0,5.2,2.4,5.2,5.3C-209.9,516.2-212.2,518.6-215,518.6z M-215,509.3
				c-2.1,0-3.9,1.8-3.9,4c0,2.2,1.7,4,3.9,4s3.9-1.8,3.9-4C-211.2,511.1-212.9,509.3-215,509.3z M-230.5,518.6
				c-2.8,0-5.2-2.4-5.2-5.3c0-2.9,2.3-5.3,5.2-5.3c2.8,0,5.2,2.4,5.2,5.3C-225.3,516.2-227.6,518.6-230.5,518.6z M-230.5,509.3
				c-2.1,0-3.9,1.8-3.9,4c0,2.2,1.7,4,3.9,4c2.1,0,3.9-1.8,3.9-4C-226.6,511.1-228.4,509.3-230.5,509.3z M-199.6,503.7
				c-2.8,0-5.2-2.4-5.2-5.3s2.3-5.3,5.2-5.3s5.2,2.4,5.2,5.3S-196.7,503.7-199.6,503.7z M-199.6,494.5c-2.1,0-3.9,1.8-3.9,4
				c0,2.2,1.7,4,3.9,4s3.9-1.8,3.9-4C-195.7,496.3-197.5,494.5-199.6,494.5z M-215,503.7c-2.8,0-5.2-2.4-5.2-5.3s2.3-5.3,5.2-5.3
				c2.8,0,5.2,2.4,5.2,5.3S-212.2,503.7-215,503.7z M-215,494.5c-2.1,0-3.9,1.8-3.9,4c0,2.2,1.7,4,3.9,4s3.9-1.8,3.9-4
				C-211.2,496.3-212.9,494.5-215,494.5z M-230.5,503.7c-2.8,0-5.2-2.4-5.2-5.3s2.3-5.3,5.2-5.3c2.8,0,5.2,2.4,5.2,5.3
				S-227.6,503.7-230.5,503.7z M-230.5,494.5c-2.1,0-3.9,1.8-3.9,4c0,2.2,1.7,4,3.9,4c2.1,0,3.9-1.8,3.9-4
				C-226.6,496.3-228.4,494.5-230.5,494.5z M-199.6,488.9c-2.8,0-5.2-2.4-5.2-5.3s2.3-5.3,5.2-5.3s5.2,2.4,5.2,5.3
				S-196.7,488.9-199.6,488.9z M-199.6,479.6c-2.1,0-3.9,1.8-3.9,4s1.7,4,3.9,4s3.9-1.8,3.9-4S-197.5,479.6-199.6,479.6z
				 M-215,488.9c-2.8,0-5.2-2.4-5.2-5.3s2.3-5.3,5.2-5.3c2.8,0,5.2,2.4,5.2,5.3S-212.2,488.9-215,488.9z M-215,479.6
				c-2.1,0-3.9,1.8-3.9,4s1.7,4,3.9,4s3.9-1.8,3.9-4S-212.9,479.6-215,479.6z M-230.5,488.9c-2.8,0-5.2-2.4-5.2-5.3s2.3-5.3,5.2-5.3
				c2.8,0,5.2,2.4,5.2,5.3S-227.6,488.9-230.5,488.9z M-230.5,479.6c-2.1,0-3.9,1.8-3.9,4s1.7,4,3.9,4c2.1,0,3.9-1.8,3.9-4
				S-228.4,479.6-230.5,479.6z"/>
		</g>
	</g>
</g>
</svg>
