<?xml version="1.0" encoding="utf-8"?>
<!-- Generator: Adobe Illustrator 18.1.1, SVG Export Plug-In . SVG Version: 6.00 Build 0)  -->
<svg version="1.1" id="Layer_1" xmlns:sketch="http://www.bohemiancoding.com/sketch/ns"
	 xmlns="http://www.w3.org/2000/svg" xmlns:xlink="http://www.w3.org/1999/xlink" x="0px" y="0px" viewBox="-129 211 60 60"
	 enable-background="new -129 211 60 60" xml:space="preserve">
<title>DevOps Services icon</title>
<desc>Created with Sketch.</desc>
<g id="Docs" sketch:type="MSPage">
	<g id="_x32_-Docs-landing-redesign-Copy" transform="translate(-380.000000, -1493.000000)" sketch:type="MSArtboardGroup">
		<g id="DevOps-Services-icon" transform="translate(380.000000, 1493.000000)" sketch:type="MSLayerGroup">
			<path id="Fill-1" sketch:type="MSShapeGroup" fill="#2D3F49" d="M-69.9,270.5h-14.4c-0.4,0-0.8-0.4-0.8-0.8v-28.9
				c0-0.4,0.4-0.8,0.8-0.8h14.4c0.4,0,0.8,0.4,0.8,0.8v28.9C-69.1,270.1-69.5,270.5-69.9,270.5L-69.9,270.5z M-83.6,268.9h12.9
				v-27.3h-12.9V268.9z"/>
			<path id="Fill-2" sketch:type="MSShapeGroup" fill="#2D3F49" d="M-102.6,227.2c-0.1,0-0.3,0-0.4-0.1c-0.2-0.1-0.4-0.4-0.4-0.7
				V212c0-0.3,0.2-0.5,0.4-0.7c0.2-0.1,0.5-0.1,0.8,0l12.5,7.2c0.2,0.1,0.4,0.4,0.4,0.7c0,0.3-0.2,0.5-0.4,0.7l-12.5,7.2
				C-102.4,227.1-102.5,227.2-102.6,227.2L-102.6,227.2z M-101.9,213.3V225l10.1-5.9L-101.9,213.3L-101.9,213.3z"/>
			<path id="Fill-3" sketch:type="MSShapeGroup" fill="#2D3F49" d="M-120.5,249.6c-0.4,0-0.8-0.4-0.8-0.8v-29.6
				c0-0.4,0.4-0.8,0.8-0.8h17.8c0.4,0,0.8,0.4,0.8,0.8s-0.4,0.8-0.8,0.8h-17v28.8C-119.7,249.2-120,249.6-120.5,249.6"/>
			<path id="Fill-4" sketch:type="MSShapeGroup" fill="#2D3F49" d="M-120.5,270.5c-4.4,0-8-3.6-8-8c0-4.4,3.6-8,8-8c4.4,0,8,3.6,8,8
				C-112.4,266.9-116,270.5-120.5,270.5L-120.5,270.5z M-120.5,256c-3.5,0-6.4,2.9-6.4,6.4c0,3.5,2.9,6.4,6.4,6.4s6.4-2.9,6.4-6.4
				C-114,258.9-116.9,256-120.5,256L-120.5,256z"/>
			<path id="Fill-5" sketch:type="MSShapeGroup" fill="#2D3F49" d="M-90.8,263.3h-22.4c-0.4,0-0.8-0.4-0.8-0.8
				c0-0.4,0.4-0.8,0.8-0.8h22.4c0.4,0,0.8,0.4,0.8,0.8C-90,262.9-90.4,263.3-90.8,263.3L-90.8,263.3z M-77.1,241.6
				c-0.4,0-0.8-0.4-0.8-0.8V220h-5.6c-0.4,0-0.8-0.4-0.8-0.8c0-0.4,0.4-0.8,0.8-0.8h6.4c0.4,0,0.8,0.4,0.8,0.8v21.7
				C-76.4,241.3-76.7,241.6-77.1,241.6L-77.1,241.6z"/>
		</g>
	</g>
</g>
</svg>
