<?xml version="1.0" encoding="UTF-8" standalone="no"?>
<!-- Created with Inkscape (http://www.inkscape.org/) -->

<svg
   xmlns:dc="http://purl.org/dc/elements/1.1/"
   xmlns:cc="http://creativecommons.org/ns#"
   xmlns:rdf="http://www.w3.org/1999/02/22-rdf-syntax-ns#"
   xmlns:svg="http://www.w3.org/2000/svg"
   xmlns="http://www.w3.org/2000/svg"
   xmlns:sodipodi="http://sodipodi.sourceforge.net/DTD/sodipodi-0.dtd"
   xmlns:inkscape="http://www.inkscape.org/namespaces/inkscape"
   version="1.1"
   width="1465.3375"
   height="711.51501"
   id="svg2"
   xml:space="preserve"
   inkscape:version="0.91 r13725"
   sodipodi:docname="classifier_process.svg"
   inkscape:export-filename="Q:\PUB\ABD088\ART\WORK\ship1\images\classifier_process.png"
   inkscape:export-xdpi="150.02551"
   inkscape:export-ydpi="150.02551"><sodipodi:namedview
     pagecolor="#ffffff"
     bordercolor="#666666"
     borderopacity="1"
     objecttolerance="10"
     gridtolerance="10"
     guidetolerance="10"
     inkscape:pageopacity="0"
     inkscape:pageshadow="2"
     inkscape:window-width="1920"
     inkscape:window-height="1015"
     id="namedview122"
     showgrid="false"
     inkscape:zoom="0.94709742"
     inkscape:cx="655.91367"
     inkscape:cy="354.60576"
     inkscape:window-x="-8"
     inkscape:window-y="-8"
     inkscape:window-maximized="1"
     inkscape:current-layer="svg2" /><metadata
     id="metadata8"><rdf:RDF><cc:Work
         rdf:about=""><dc:format>image/svg+xml</dc:format><dc:type
           rdf:resource="http://purl.org/dc/dcmitype/StillImage" /><dc:title /></cc:Work></rdf:RDF></metadata><defs
     id="defs6"><clipPath
       id="clipPath36"><path
         d="m 0,569.212 1172.27,0 L 1172.27,0 0,0 0,569.212 z"
         id="path38" /></clipPath><clipPath
       id="clipPath70"><path
         d="m 0,569.212 1172.27,0 L 1172.27,0 0,0 0,569.212 z"
         id="path72" /></clipPath><clipPath
       id="clipPath96"><path
         d="m 0,569.212 1172.27,0 L 1172.27,0 0,0 0,569.212 z"
         id="path98" /></clipPath><clipPath
       id="clipPath210"><path
         d="m 0,569.212 1172.27,0 L 1172.27,0 0,0 0,569.212 z"
         id="path212" /></clipPath></defs><path
     inkscape:connector-curvature="0"
     style="fill:#f4f4f4;fill-opacity:1;fill-rule:nonzero;stroke:none"
     id="path12"
     d="m 1266.4212,624.3325 -235.9562,0 0,-499.16 235.9562,0 0,499.16 z" /><path
     inkscape:connector-curvature="0"
     style="fill:#f4f4f4;fill-opacity:1;fill-rule:nonzero;stroke:none"
     id="path14"
     d="m 989.80375,624.3325 -235.95625,0 0,-499.16 235.95625,0 0,499.16 z" /><g
     id="g20"
     transform="matrix(1.25,0,0,-1.25,1095.2021,56.5895)"><path
       inkscape:connector-curvature="0"
       style="fill:#000000;fill-opacity:1;fill-rule:nonzero;stroke:none"
       id="path22"
       d="M 0,0 252.993,0 0,0 Z" /></g><g
     id="g24"
     transform="matrix(1.25,0,0,-1.25,47.275875,56.5895)"><path
       inkscape:connector-curvature="0"
       style="fill:#000000;fill-opacity:1;fill-rule:nonzero;stroke:none"
       id="path26"
       d="M 0,0 247.521,0 0,0 Z" /></g><path
     inkscape:connector-curvature="0"
     style="fill:#f4f4f4;fill-opacity:1;fill-rule:nonzero;stroke:none"
     id="path28"
     d="m 435.1225,624.3325 -235.95625,0 0,-499.16 235.95625,0 0,499.16 z" /><path
     inkscape:connector-curvature="0"
     style="fill:#000000;fill-opacity:1;fill-rule:nonzero;stroke:none"
     id="path30"
     d="m 248.565,169.8525 69.21375,0 0,108.75 -69.21375,0 0,-108.75 z m -5,-6.25 0,20 0,100 150,0 0,-100 0,-20 -150,0 z" /><g
     id="g32"
     transform="matrix(1.25,0,0,-1.25,0,711.515)"><g
       id="g34"
       clip-path="url(#clipPath36)"><g
         id="g40"
         transform="translate(302.1063,404.1542)"><path
           inkscape:connector-curvature="0"
           style="fill:#ffffff;fill-opacity:1;fill-rule:nonzero;stroke:none"
           id="path42"
           d="m 0,0 -8.806,-8.806 -1.511,0 -2.579,0 0,-2.58 0,-1.51 -2.325,-2.324 -1.093,-1.094 0.448,-1.48 c 0.259,-0.853 0.39,-1.734 0.39,-2.619 0,-4.978 -4.05,-9.027 -9.027,-9.027 -4.977,0 -9.027,4.049 -9.027,9.027 0,4.978 4.05,9.027 9.027,9.027 0.885,0 1.767,-0.131 2.62,-0.389 l 1.478,-0.449 1.093,1.093 L -4.091,4.09 0,4.09 0,0 Z M -5.159,6.669 -21.135,-9.307 c -1.066,0.323 -2.197,0.501 -3.368,0.501 -6.41,0 -11.607,-5.197 -11.607,-11.607 0,-6.41 5.197,-11.607 11.607,-11.607 6.41,0 11.607,5.197 11.607,11.607 0,1.172 -0.178,2.302 -0.502,3.368 l 3.081,3.08 0,2.579 2.579,0 10.317,10.317 0,7.738 -7.738,0 z" /></g><g
         id="g44"
         transform="translate(275.0241,383.7412)"><path
           inkscape:connector-curvature="0"
           style="fill:#ffffff;fill-opacity:1;fill-rule:nonzero;stroke:none"
           id="path46"
           d="m 0,0 c -1.424,0 -2.579,-1.155 -2.579,-2.579 0,-1.425 1.155,-2.58 2.579,-2.58 1.424,0 2.579,1.155 2.579,2.58 C 2.579,-1.155 1.424,0 0,0" /></g><g
         id="g48"
         transform="translate(292.2451,397.4713)"><path
           inkscape:connector-curvature="0"
           style="fill:#ffffff;fill-opacity:1;fill-rule:nonzero;stroke:none"
           id="path50"
           d="M 0,0 7.738,7.738 6.826,8.65 -0.912,0.912 0,0 Z" /></g><path
         inkscape:connector-curvature="0"
         style="fill:#000000;fill-opacity:1;fill-rule:nonzero;stroke:none"
         id="path52"
         d="m 246.153,401.458 -40,0 0,-4 40,0 0,4 z" /><path
         inkscape:connector-curvature="0"
         style="fill:#000000;fill-opacity:1;fill-rule:nonzero;stroke:none"
         id="path54"
         d="m 246.153,417.415 -40,0 0,-4 40,0 0,4 z" /><path
         inkscape:connector-curvature="0"
         style="fill:#000000;fill-opacity:1;fill-rule:nonzero;stroke:none"
         id="path56"
         d="m 246.153,385.5 -40,0 0,-4 40,0 0,4 z" /><path
         inkscape:connector-curvature="0"
         style="fill:#000000;fill-opacity:1;fill-rule:nonzero;stroke:none"
         id="path58"
         d="m 246.153,369.543 -40,0 0,-4 40,0 0,4 z" /></g></g><g
     id="g66"
     transform="matrix(1.25,0,0,-1.25,0,711.515)"><g
       id="g68"
       clip-path="url(#clipPath70)"><path
         inkscape:connector-curvature="0"
         style="fill:#f4f4f4;fill-opacity:1;fill-rule:nonzero;stroke:none"
         id="path74"
         d="m 569.843,69.746 -188.765,0 0,399.328 188.765,0 0,-399.328 z" /></g></g><g
     id="g92"
     transform="matrix(1.25,0,0,-1.25,0,711.515)"><g
       id="g94"
       clip-path="url(#clipPath96)"><g
         id="g100"
         transform="translate(938.9902,396.6732)"><path
           inkscape:connector-curvature="0"
           style="fill:#000000;fill-opacity:1;fill-rule:nonzero;stroke:none"
           id="path102"
           d="m 0,0 17.171,-17.172 5.658,5.657 L 0,11.313 l -40,-40 -17.171,17.172 -5.658,-5.657 L -40,-40 0,0 Z" /></g><path
         inkscape:connector-curvature="0"
         style="fill:#000000;fill-opacity:1;fill-rule:nonzero;stroke:none"
         id="path104"
         d="m 974.99,346.33 -112,0 0,72 112,0 0,-72 z m -116,92 0,-16 0,-80 120,0 0,80 0,16 -120,0 z" /><g
         id="g106"
         transform="translate(688.2606,380.4909)"><path
           inkscape:connector-curvature="0"
           style="fill:#000000;fill-opacity:1;fill-rule:nonzero;stroke:none"
           id="path108"
           d="M 0,0 -12.53,12.53 -17.91,7.148 0,-10.762 33.13,22.368 27.75,27.75 0,0 Z" /></g><g
         id="g110"
         transform="translate(695.8706,340.8652)"><path
           inkscape:connector-curvature="0"
           style="fill:#000000;fill-opacity:1;fill-rule:nonzero;stroke:none"
           id="path112"
           d="m 0,0 c -27.275,0 -49.465,22.19 -49.465,49.465 0,27.275 22.19,49.464 49.465,49.464 27.275,0 49.465,-22.189 49.465,-49.464 C 49.465,22.19 27.275,0 0,0 m 0,102.734 c -29.416,0 -53.27,-23.851 -53.27,-53.269 0,-29.418 23.854,-53.27 53.27,-53.27 29.418,0 53.27,23.852 53.27,53.27 0,29.418 -23.852,53.269 -53.27,53.269" /></g><g
         id="g114"
         transform="translate(462.1252,395.3914)"><path
           inkscape:connector-curvature="0"
           style="fill:#000000;fill-opacity:1;fill-rule:nonzero;stroke:none"
           id="path116"
           d="m 0,0 c 0,-0.72 -0.174,-1.327 -0.52,-1.82 -0.347,-0.494 -0.78,-0.9 -1.3,-1.22 -0.52,-0.32 -1.074,-0.547 -1.66,-0.68 -0.587,-0.134 -1.134,-0.2 -1.64,-0.2 -0.4,0 -0.847,0.04 -1.34,0.12 -0.494,0.08 -0.947,0.22 -1.36,0.42 -0.414,0.2 -0.767,0.473 -1.06,0.82 -0.294,0.346 -0.44,0.773 -0.44,1.28 0,0.586 0.1,1.086 0.3,1.5 0.2,0.413 0.473,0.746 0.82,1 0.346,0.253 0.746,0.453 1.2,0.6 0.453,0.146 0.92,0.26 1.4,0.34 1.013,0.186 2.026,0.326 3.04,0.42 C -1.547,2.673 -0.694,2.946 0,3.4 L 0,0 Z m 5.64,-3.92 c -0.427,0 -0.714,0.12 -0.86,0.36 -0.147,0.24 -0.22,0.64 -0.22,1.2 l 0,10.64 c 0,1.093 -0.24,2.02 -0.72,2.78 -0.48,0.76 -1.114,1.38 -1.9,1.86 -0.787,0.48 -1.674,0.826 -2.66,1.04 -0.987,0.213 -1.987,0.32 -3,0.32 -1.147,0 -2.267,-0.107 -3.36,-0.32 -1.094,-0.214 -2.074,-0.587 -2.94,-1.12 -0.867,-0.534 -1.58,-1.24 -2.14,-2.12 -0.56,-0.88 -0.88,-1.987 -0.96,-3.32 l 4.56,0 c 0.106,1.12 0.573,1.946 1.4,2.48 0.826,0.533 1.88,0.8 3.16,0.8 0.453,0 0.933,-0.034 1.44,-0.1 0.506,-0.067 0.966,-0.2 1.38,-0.4 0.413,-0.2 0.76,-0.487 1.04,-0.86 C 0.14,8.946 0.28,8.466 0.28,7.88 0.28,7.213 0.113,6.713 -0.22,6.38 -0.554,6.046 -1.007,5.8 -1.58,5.64 -2.154,5.48 -2.814,5.366 -3.56,5.3 -4.307,5.233 -5.094,5.12 -5.92,4.96 -6.88,4.853 -7.834,4.7 -8.78,4.5 -9.727,4.3 -10.58,3.973 -11.34,3.52 -12.1,3.066 -12.714,2.44 -13.18,1.64 c -0.467,-0.8 -0.7,-1.84 -0.7,-3.12 0,-1.014 0.193,-1.9 0.58,-2.66 0.386,-0.76 0.906,-1.387 1.56,-1.88 0.653,-0.494 1.406,-0.867 2.26,-1.12 0.853,-0.253 1.746,-0.38 2.68,-0.38 1.226,0 2.5,0.2 3.82,0.6 1.32,0.4 2.433,1.04 3.34,1.92 0.186,-0.934 0.586,-1.587 1.2,-1.96 0.613,-0.373 1.386,-0.56 2.32,-0.56 0.186,0 0.413,0.014 0.68,0.04 0.266,0.027 0.533,0.067 0.8,0.12 0.266,0.054 0.526,0.114 0.78,0.18 0.253,0.067 0.46,0.127 0.62,0.18 l 0,3.16 C 6.52,-3.893 6.306,-3.92 6.12,-3.92 l -0.48,0 z" /></g><g
         id="g118"
         transform="translate(487.3449,396.0916)"><path
           inkscape:connector-curvature="0"
           style="fill:#000000;fill-opacity:1;fill-rule:nonzero;stroke:none"
           id="path120"
           d="M 0,0 C -0.2,-0.867 -0.534,-1.64 -1,-2.32 -1.467,-3 -2.06,-3.554 -2.78,-3.98 c -0.72,-0.427 -1.6,-0.64 -2.64,-0.64 -0.934,0 -1.754,0.186 -2.46,0.56 -0.707,0.373 -1.314,0.88 -1.82,1.52 -0.507,0.64 -0.887,1.406 -1.14,2.3 -0.254,0.893 -0.38,1.86 -0.38,2.9 0,2.213 0.486,3.986 1.46,5.32 0.973,1.333 2.42,2 4.34,2 0.933,0 1.76,-0.207 2.48,-0.62 C -2.22,8.946 -1.62,8.4 -1.14,7.72 -0.66,7.04 -0.3,6.26 -0.06,5.38 0.18,4.5 0.3,3.593 0.3,2.66 0.3,1.753 0.2,0.866 0,0 m 2.46,10.36 c -0.8,1 -1.807,1.786 -3.02,2.36 -1.214,0.573 -2.634,0.86 -4.26,0.86 -1.334,0 -2.574,-0.26 -3.72,-0.78 -1.147,-0.52 -2.04,-1.38 -2.68,-2.58 l -0.08,0 0,2.8 -4.32,0 0,-28.32 4.56,0 0,10.32 0.08,0 c 0.346,-0.56 0.78,-1.047 1.3,-1.46 0.52,-0.414 1.086,-0.754 1.7,-1.02 0.613,-0.267 1.253,-0.46 1.92,-0.58 0.666,-0.12 1.333,-0.18 2,-0.18 1.52,0 2.84,0.3 3.96,0.9 1.12,0.6 2.046,1.4 2.78,2.4 0.733,1 1.28,2.153 1.64,3.46 0.36,1.306 0.54,2.653 0.54,4.04 0,1.52 -0.2,2.946 -0.6,4.28 -0.4,1.333 -1,2.5 -1.8,3.5" /></g><path
         inkscape:connector-curvature="0"
         style="fill:#000000;fill-opacity:1;fill-rule:nonzero;stroke:none"
         id="path122"
         d="m 496.164,412.672 4.56,0 0,4.32 -4.56,0 0,-4.32 z" /><path
         inkscape:connector-curvature="0"
         style="fill:#000000;fill-opacity:1;fill-rule:nonzero;stroke:none"
         id="path124"
         d="m 496.164,388.431 4.56,0 0,20.68 -4.56,0 0,-20.68 z" /><path
         inkscape:connector-curvature="0"
         style="fill:#000000;fill-opacity:1;fill-rule:nonzero;stroke:none"
         id="path126"
         d="m 427.125,438.33 96,0 0,-80 -96,0 0,80 z m -4,4 0,-88 0,-16 104,0 0,16 0,88 -104,0 z" /></g></g><text
     id="text128"
     x="222.69901"
     y="468.02863"
     style="font-size:15px"><tspan
       style="font-variant:normal;font-weight:300;font-stretch:normal;font-size:17.5px;font-family:'Helvetica 45 Light';-inkscape-font-specification:HelveticaNeue-Light;writing-mode:lr-tb;fill:#000000;fill-opacity:1;fill-rule:nonzero;stroke:none"
       id="tspan130"
       y="468.02863"
       x="222.69901">●</tspan></text>
<text
     id="text136"
     x="222.69901"
     y="510.02863"
     style="font-size:15px"><tspan
       style="font-variant:normal;font-weight:300;font-stretch:normal;font-size:17.5px;font-family:'Helvetica 45 Light';-inkscape-font-specification:HelveticaNeue-Light;writing-mode:lr-tb;fill:#000000;fill-opacity:1;fill-rule:nonzero;stroke:none"
       id="tspan138"
       y="510.02863"
       x="222.69901">●</tspan></text>
<text
     id="text146"
     x="222.69901"
     y="573.02863"
     style="font-size:15px"><tspan
       style="font-variant:normal;font-weight:300;font-stretch:normal;font-size:17.5px;font-family:'Helvetica 45 Light';-inkscape-font-specification:HelveticaNeue-Light;writing-mode:lr-tb;fill:#000000;fill-opacity:1;fill-rule:nonzero;stroke:none"
       id="tspan148"
       y="573.02863"
       x="222.69901">●</tspan></text>
<text
     id="text154"
     x="498.95401"
     y="468.02863"
     style="font-size:15px"><tspan
       style="font-variant:normal;font-weight:300;font-stretch:normal;font-size:17.5px;font-family:'Helvetica 45 Light';-inkscape-font-specification:HelveticaNeue-Light;writing-mode:lr-tb;fill:#000000;fill-opacity:1;fill-rule:nonzero;stroke:none"
       id="tspan156"
       y="468.02863"
       x="498.95401">●</tspan></text>
<text
     id="text164"
     x="777.71149"
     y="468.02863"
     style="font-size:15px"><tspan
       style="font-variant:normal;font-weight:300;font-stretch:normal;font-size:17.5px;font-family:'Helvetica 45 Light';-inkscape-font-specification:HelveticaNeue-Light;writing-mode:lr-tb;fill:#000000;fill-opacity:1;fill-rule:nonzero;stroke:none"
       id="tspan166"
       y="468.02863"
       x="777.71149">●</tspan></text>
<text
     id="text182"
     x="1052.479"
     y="468.02863"
     style="font-size:15px"><tspan
       style="font-variant:normal;font-weight:300;font-stretch:normal;font-size:17.5px;font-family:'Helvetica 45 Light';-inkscape-font-specification:HelveticaNeue-Light;writing-mode:lr-tb;fill:#000000;fill-opacity:1;fill-rule:nonzero;stroke:none"
       id="tspan184"
       y="468.02863"
       x="1052.479">●</tspan></text>
<text
     id="text194"
     x="1052.479"
     y="552.02863"
     style="font-size:15px"><tspan
       style="font-variant:normal;font-weight:300;font-stretch:normal;font-size:17.5px;font-family:'Helvetica 45 Light';-inkscape-font-specification:HelveticaNeue-Light;writing-mode:lr-tb;fill:#000000;fill-opacity:1;fill-rule:nonzero;stroke:none"
       id="tspan196"
       y="552.02863"
       x="1052.479">●</tspan></text>
<g
     id="g206"
     transform="matrix(1.25,0,0,-1.25,0,711.515)"><g
       id="g208"
       clip-path="url(#clipPath210)"><path
         inkscape:connector-curvature="0"
         style="fill:#000000;fill-opacity:1;fill-rule:nonzero;stroke:none"
         id="path214"
         d="m 366.087,227.272 -187,0 0,1 187,0 0,-1 z" /><g
         id="g216"
         transform="translate(356.5733,217.5502)"><path
           inkscape:connector-curvature="0"
           style="fill:#000000;fill-opacity:1;fill-rule:nonzero;stroke:none"
           id="path218"
           d="M 0,0 -0.707,0.707 8.807,10.222 -0.707,19.736 0,20.443 10.221,10.222 0,0 Z" /></g><path
         inkscape:connector-curvature="0"
         style="fill:#000000;fill-opacity:1;fill-rule:nonzero;stroke:none"
         id="path220"
         d="m 587.087,227.272 -187,0 0,1 187,0 0,-1 z" /><g
         id="g222"
         transform="translate(577.5733,217.5502)"><path
           inkscape:connector-curvature="0"
           style="fill:#000000;fill-opacity:1;fill-rule:nonzero;stroke:none"
           id="path224"
           d="M 0,0 -0.707,0.707 8.807,10.222 -0.707,19.736 0,20.443 10.221,10.222 0,0 Z" /></g><path
         inkscape:connector-curvature="0"
         style="fill:#000000;fill-opacity:1;fill-rule:nonzero;stroke:none"
         id="path226"
         d="m 809.087,227.272 -187,0 0,1 187,0 0,-1 z" /><g
         id="g228"
         transform="translate(799.5733,217.5502)"><path
           inkscape:connector-curvature="0"
           style="fill:#000000;fill-opacity:1;fill-rule:nonzero;stroke:none"
           id="path230"
           d="M 0,0 -0.707,0.707 8.807,10.222 -0.707,19.736 0,20.443 10.221,10.222 0,0 Z" /></g><g
         id="g232"
         transform="translate(37.8203,36.3835)"><path
           inkscape:connector-curvature="0"
           style="fill:#000000;fill-opacity:1;fill-rule:nonzero;stroke:none"
           id="path234"
           d="M 0,0 1091.334,0" /></g></g></g><text
     xml:space="preserve"
     style="font-style:normal;font-variant:normal;font-weight:normal;font-stretch:normal;font-size:30px;line-height:125%;font-family:Gulim;-inkscape-font-specification:'Gulim, Normal';text-align:start;letter-spacing:0px;word-spacing:0px;writing-mode:lr-tb;text-anchor:start;fill:#000000;fill-opacity:1;stroke:#000000;stroke-width:0.5;stroke-linecap:butt;stroke-linejoin:miter;stroke-opacity:1;stroke-miterlimit:4;stroke-dasharray:none;"
     x="420.06586"
     y="78.837372"
     id="text4250"
     sodipodi:linespacing="125%"><tspan
       sodipodi:role="line"
       id="tspan4252"
       x="420.06586"
       y="78.837372"
       style="font-style:normal;font-variant:normal;font-weight:normal;font-stretch:normal;font-size:35px;line-height:125%;font-family:Gulim;-inkscape-font-specification:'Gulim, Normal';text-align:start;writing-mode:lr-tb;text-anchor:start;stroke-width:0.5;stroke-miterlimit:4;stroke-dasharray:none;stroke:#000000;stroke-opacity:1;">Natural Language Classifer 서비스 사용</tspan></text>
<text
     xml:space="preserve"
     style="font-style:normal;font-variant:normal;font-weight:normal;font-stretch:normal;font-size:25px;line-height:125%;font-family:Gulim;-inkscape-font-specification:'Gulim, Normal';text-align:center;letter-spacing:0px;word-spacing:0px;writing-mode:lr-tb;text-anchor:middle;fill:#000000;fill-opacity:1;stroke:#000000;stroke-width:0.5;stroke-linecap:butt;stroke-linejoin:miter;stroke-miterlimit:4;stroke-dasharray:none;stroke-opacity:1"
     x="318.10873"
     y="339.51801"
     id="text4295"
     sodipodi:linespacing="125%"><tspan
       sodipodi:role="line"
       id="tspan4297"
       x="318.10873"
       y="339.51801"><tspan
         style="font-style:normal;font-variant:normal;font-weight:normal;font-stretch:normal;font-size:25px;line-height:125%;font-family:Gulim;-inkscape-font-specification:'Gulim, Normal';text-align:center;writing-mode:lr-tb;text-anchor:middle;stroke:#000000;stroke-width:0.5;stroke-miterlimit:4;stroke-dasharray:none;stroke-opacity:1"
         id="tspan4309">훈련 데이터</tspan></tspan><tspan
       sodipodi:role="line"
       x="318.10873"
       y="370.76801"
       id="tspan4299"
       style="font-style:normal;font-variant:normal;font-weight:normal;font-stretch:normal;font-size:25px;line-height:125%;font-family:Gulim;-inkscape-font-specification:'Gulim, Normal';text-align:center;writing-mode:lr-tb;text-anchor:middle;stroke:#000000;stroke-width:0.5;stroke-miterlimit:4;stroke-dasharray:none;stroke-opacity:1">준비</tspan></text>
<flowRoot
     xml:space="preserve"
     id="flowRoot4301"
     style="fill:black;stroke:none;stroke-opacity:1;stroke-width:1px;stroke-linejoin:miter;stroke-linecap:butt;fill-opacity:1;font-family:Gulim;font-style:normal;font-weight:normal;font-size:11.00000024px;line-height:125%;letter-spacing:0px;word-spacing:0px;-inkscape-font-specification:'Gulim, Normal';font-stretch:normal;font-variant:normal;text-anchor:start;text-align:start;writing-mode:lr"><flowRegion
       id="flowRegion4303"><rect
         id="rect4305"
         width="6.3351455"
         height="25.340582"
         x="442.40433"
         y="317.68015" /></flowRegion><flowPara
       id="flowPara4307" /></flowRoot><text
     xml:space="preserve"
     style="font-style:normal;font-variant:normal;font-weight:normal;font-stretch:normal;font-size:25px;line-height:125%;font-family:Gulim;-inkscape-font-specification:'Gulim, Normal';text-align:center;letter-spacing:0px;word-spacing:0px;writing-mode:lr-tb;text-anchor:middle;fill:#000000;fill-opacity:1;stroke:#000000;stroke-width:0.5;stroke-linecap:butt;stroke-linejoin:miter;stroke-miterlimit:4;stroke-dasharray:none;stroke-opacity:1"
     x="594.6496"
     y="336.68558"
     id="text4311"
     sodipodi:linespacing="125%"><tspan
       sodipodi:role="line"
       id="tspan4313"
       x="594.6496"
       y="336.68558">분류자</tspan><tspan
       sodipodi:role="line"
       x="594.6496"
       y="367.93558"
       id="tspan4323">작성 및 훈련</tspan></text>
<text
     xml:space="preserve"
     style="font-style:normal;font-variant:normal;font-weight:normal;font-stretch:normal;font-size:25px;line-height:125%;font-family:Gulim;-inkscape-font-specification:'Gulim, Normal';text-align:center;letter-spacing:0px;word-spacing:0px;writing-mode:lr-tb;text-anchor:middle;fill:#000000;fill-opacity:1;stroke:#000000;stroke-width:0.5;stroke-linecap:butt;stroke-linejoin:miter;stroke-miterlimit:4;stroke-dasharray:none;stroke-opacity:1"
     x="869.17249"
     y="340.909"
     id="text4315"
     sodipodi:linespacing="125%"><tspan
       sodipodi:role="line"
       id="tspan4317"
       x="873.34729"
       y="340.909">훈련된 </tspan><tspan
       sodipodi:role="line"
       x="869.17249"
       y="372.159"
       id="tspan4325">분류자 조회</tspan></text>
<text
     xml:space="preserve"
     style="font-style:normal;font-variant:normal;font-weight:normal;font-stretch:normal;font-size:25px;line-height:125%;font-family:Gulim;-inkscape-font-specification:'Gulim, Normal';text-align:center;letter-spacing:0px;word-spacing:0px;writing-mode:lr-tb;text-anchor:middle;fill:#000000;fill-opacity:1;stroke:#000000;stroke-width:0.5;stroke-linecap:butt;stroke-linejoin:miter;stroke-miterlimit:4;stroke-dasharray:none;stroke-opacity:1"
     x="1147.9189"
     y="328.23871"
     id="text4319"
     sodipodi:linespacing="125%"><tspan
       sodipodi:role="line"
       id="tspan4321"
       x="1152.0938"
       y="328.23871">결과 평가 및 </tspan><tspan
       sodipodi:role="line"
       x="1147.9189"
       y="359.48871"
       id="tspan4327">훈련 데이터</tspan><tspan
       sodipodi:role="line"
       x="1147.9189"
       y="390.73871"
       id="tspan4329">업데이트</tspan></text>
<text
     xml:space="preserve"
     style="font-style:normal;font-variant:normal;font-weight:normal;font-stretch:normal;font-size:15px;line-height:125%;font-family:Gulim;-inkscape-font-specification:'Gulim, Normal';text-align:start;letter-spacing:0px;word-spacing:0px;writing-mode:lr-tb;text-anchor:start;fill:#000000;fill-opacity:1;stroke:none;stroke-width:1px;stroke-linecap:butt;stroke-linejoin:miter;stroke-opacity:1"
     x="243.90312"
     y="465.50021"
     id="text4331"
     sodipodi:linespacing="125%"><tspan
       sodipodi:role="line"
       id="tspan4333"
       x="243.90312"
       y="465.50021">클래스 레이블 식별</tspan></text>
<text
     xml:space="preserve"
     style="font-style:normal;font-variant:normal;font-weight:normal;font-stretch:normal;font-size:15px;line-height:125%;font-family:Gulim;-inkscape-font-specification:'Gulim, Normal';text-align:start;letter-spacing:0px;word-spacing:0px;writing-mode:lr-tb;text-anchor:start;fill:#000000;fill-opacity:1;stroke:none;stroke-width:1px;stroke-linecap:butt;stroke-linejoin:miter;stroke-opacity:1"
     x="241.7914"
     y="507.7345"
     id="text4335"
     sodipodi:linespacing="125%"><tspan
       sodipodi:role="line"
       id="tspan4337"
       x="241.7914"
       y="507.7345">대표 텍스트 </tspan><tspan
       sodipodi:role="line"
       x="241.7914"
       y="526.4845"
       id="tspan4367">수집</tspan></text>
<text
     xml:space="preserve"
     style="font-style:normal;font-variant:normal;font-weight:normal;font-stretch:normal;font-size:15px;line-height:125%;font-family:Gulim;-inkscape-font-specification:'Gulim, Normal';text-align:start;letter-spacing:0px;word-spacing:0px;writing-mode:lr-tb;text-anchor:start;fill:#000000;fill-opacity:1;stroke:none;stroke-width:1px;stroke-linecap:butt;stroke-linejoin:miter;stroke-opacity:1"
     x="240.73553"
     y="572.14178"
     id="text4339"
     sodipodi:linespacing="125%"><tspan
       sodipodi:role="line"
       id="tspan4341"
       x="240.73553"
       y="572.14178">클래스를 텍스트와 </tspan><tspan
       sodipodi:role="line"
       x="240.73553"
       y="590.89178"
       id="tspan4453">일치시킴</tspan></text>
<text
     xml:space="preserve"
     style="font-style:normal;font-variant:normal;font-weight:normal;font-stretch:normal;font-size:15px;line-height:125%;font-family:Gulim;-inkscape-font-specification:'Gulim, Normal';text-align:start;letter-spacing:0px;word-spacing:0px;writing-mode:lr-tb;text-anchor:start;fill:#000000;fill-opacity:1;stroke:none;stroke-width:1px;stroke-linecap:butt;stroke-linejoin:miter;stroke-opacity:1"
     x="519.48193"
     y="467.61191"
     id="text4343"
     sodipodi:linespacing="125%"><tspan
       sodipodi:role="line"
       id="tspan4345"
       x="519.48193"
       y="467.61191">API를 사용하여  </tspan><tspan
       sodipodi:role="line"
       x="519.48193"
       y="486.36191"
       id="tspan4369">훈련 데이터 업로드 </tspan></text>
<text
     xml:space="preserve"
     style="font-style:normal;font-variant:normal;font-weight:normal;font-stretch:normal;font-size:15px;line-height:125%;font-family:Gulim;-inkscape-font-specification:'Gulim, Normal';text-align:start;letter-spacing:0px;word-spacing:0px;writing-mode:lr-tb;text-anchor:start;fill:#000000;fill-opacity:1;stroke:none;stroke-width:1px;stroke-linecap:butt;stroke-linejoin:miter;stroke-opacity:1"
     x="519.48193"
     y="551.02466"
     id="text4347"
     sodipodi:linespacing="125%"><tspan
       sodipodi:role="line"
       id="tspan4349"
       x="519.48193"
       y="551.02466">바로 훈련 </tspan><tspan
       sodipodi:role="line"
       x="519.48193"
       y="569.77466"
       id="tspan4371">시작</tspan></text>
<text
     xml:space="preserve"
     style="font-style:normal;font-variant:normal;font-weight:normal;font-stretch:normal;font-size:15px;line-height:125%;font-family:Gulim;-inkscape-font-specification:'Gulim, Normal';text-align:start;letter-spacing:0px;word-spacing:0px;writing-mode:lr-tb;text-anchor:start;fill:#000000;fill-opacity:1;stroke:none;stroke-width:1px;stroke-linecap:butt;stroke-linejoin:miter;stroke-opacity:1"
     x="795.06073"
     y="465.50018"
     id="text4351"
     sodipodi:linespacing="125%"><tspan
       sodipodi:role="line"
       id="tspan4353"
       x="795.06073"
       y="465.50018">API를 사용하여 </tspan><tspan
       sodipodi:role="line"
       x="795.06073"
       y="484.25018"
       id="tspan4373">분류자에 텍스트 전송</tspan></text>
<text
     xml:space="preserve"
     style="font-style:normal;font-variant:normal;font-weight:normal;font-stretch:normal;font-size:15px;line-height:125%;font-family:Gulim;-inkscape-font-specification:'Gulim, Normal';text-align:start;letter-spacing:0px;word-spacing:0px;writing-mode:lr-tb;text-anchor:start;fill:#000000;fill-opacity:1;stroke:none;stroke-width:1px;stroke-linecap:butt;stroke-linejoin:miter;stroke-opacity:1"
     x="794.00488"
     y="553.13635"
     id="text4355"
     sodipodi:linespacing="125%"><tspan
       sodipodi:role="line"
       id="tspan4357"
       x="794.00488"
       y="553.13635">서비스가 최상위 일치 </tspan><tspan
       sodipodi:role="line"
       x="794.00488"
       y="571.88635"
       id="tspan4375">클래스 및 기타 가능한  </tspan><tspan
       sodipodi:role="line"
       x="794.00488"
       y="590.63635"
       id="tspan4377">일치 항목 리턴 </tspan></text>
<text
     xml:space="preserve"
     style="font-style:normal;font-variant:normal;font-weight:normal;font-stretch:normal;font-size:15px;line-height:125%;font-family:Gulim;-inkscape-font-specification:'Gulim, Normal';text-align:start;letter-spacing:0px;word-spacing:0px;writing-mode:lr-tb;text-anchor:start;fill:#000000;fill-opacity:1;stroke:none;stroke-width:1px;stroke-linecap:butt;stroke-linejoin:miter;stroke-opacity:1"
     x="1071.6954"
     y="467.61191"
     id="text4359"
     sodipodi:linespacing="125%"><tspan
       sodipodi:role="line"
       id="tspan4361"
       x="1071.6954"
       y="467.61191">분류 결과를  </tspan><tspan
       sodipodi:role="line"
       x="1071.6954"
       y="486.36191"
       id="tspan4383">기반으로 훈련  </tspan><tspan
       sodipodi:role="line"
       x="1071.6954"
       y="505.11191"
       id="tspan4385">데이터 업데이트 </tspan></text>
<text
     xml:space="preserve"
     style="font-style:normal;font-variant:normal;font-weight:normal;font-stretch:normal;font-size:15px;line-height:125%;font-family:Gulim;-inkscape-font-specification:'Gulim, Normal';text-align:start;letter-spacing:0px;word-spacing:0px;writing-mode:lr-tb;text-anchor:start;fill:#000000;fill-opacity:1;stroke:none;stroke-width:1px;stroke-linecap:butt;stroke-linejoin:miter;stroke-opacity:1"
     x="1070.7513"
     y="551.02466"
     id="text4363"
     sodipodi:linespacing="125%"><tspan
       sodipodi:role="line"
       id="tspan4365"
       x="1070.7513"
       y="551.02466">업데이트된 훈련 </tspan><tspan
       sodipodi:role="line"
       x="1070.7513"
       y="569.77466"
       id="tspan4379">데이터를 사용하여 </tspan><tspan
       sodipodi:role="line"
       x="1070.7513"
       y="588.52466"
       id="tspan4381">분류자 작성 및 훈련 </tspan></text>
</svg>
