<?xml version="1.0" encoding="UTF-8" standalone="no"?>
<svg width="76px" height="76px" viewBox="0 0 76 76" version="1.1" xmlns="http://www.w3.org/2000/svg" xmlns:xlink="http://www.w3.org/1999/xlink">
    <!-- Generator: Sketch 3.6.1 (26313) - http://www.bohemiancoding.com/sketch -->
    <title>CLI and Dev Tools</title>
    <desc>Created with Sketch.</desc>
    <defs></defs>
    <g id="WeddingCake" stroke="none" stroke-width="1" fill="none" fill-rule="evenodd">
        <g id="Documentation-Copy-2" transform="translate(-205.000000, -425.000000)" stroke-width="1.5" stroke="#5596E6">
            <g id="CLI-and-Dev-Tools" transform="translate(206.000000, 426.000000)">
                <g id="Group">
                    <g id="Layer_1">
                        <g id="XMLID_1049_" transform="translate(1.000000, 0.000000)">
                            <path d="M19.2,27.7 L45.6,54.1 C43.7,59.2 44.8,65.1 48.8,69.1 C53.3,73.6 60,74.4 65.3,71.7 L55.7,62.1 C54,60.4 54,57.7 55.7,56 C57.4,54.3 60.1,54.3 61.8,56 L71.4,65.6 C74.2,60.3 73.3,53.5 68.8,49.1 C64.7,45 58.8,44 53.8,45.9 L27.4,19.4 C29.3,14.3 28.2,8.4 24.2,4.4 C19.7,-0.1 13,-0.9 7.7,1.8 L17.3,11.4 C19,13.1 19,15.8 17.3,17.5 C15.6,19.2 12.9,19.2 11.2,17.5 L1.6,7.9 C-1.2,13.2 -0.3,20 4.2,24.4 C8.2,28.5 14.2,29.6 19.2,27.7 L19.2,27.7 Z" id="XMLID_1057_"></path>
                        </g>
                        <path d="M41.5,24.6 L64.2,1.9 C66.5,-0.4 70.2,-0.4 72.4,1.9 L72.4,1.9 C74.7,4.2 74.7,7.9 72.4,10.1 L49.7,32.9" id="XMLID_1048_"></path>
                        <path d="M45.5,28.7 L68.2,6" id="XMLID_1005_"></path>
                        <path d="M10.6,63.6 L29.4,44.8" id="XMLID_1004_"></path>
                        <path d="M0.9,69 L5.2,73.3 L13.1,66.1 L8.1,61.1 L0.9,69 Z" id="XMLID_1003_"></path>
                    </g>
                </g>
            </g>
        </g>
    </g>
</svg>
