<?xml version="1.0" encoding="utf-8"?>
<!-- Generator: Adobe Illustrator 19.0.0, SVG Export Plug-In . SVG Version: 6.00 Build 0)  -->
<!DOCTYPE svg PUBLIC "-//W3C//DTD SVG 1.1//EN" "http://www.w3.org/Graphics/SVG/1.1/DTD/svg11.dtd">
<svg version="1.1" id="Layer_1" xmlns:sketch="http://www.bohemiancoding.com/sketch/ns"
	 xmlns="http://www.w3.org/2000/svg" xmlns:xlink="http://www.w3.org/1999/xlink" x="0px" y="0px" viewBox="-617 378 45 45"
	 style="enable-background:new -617 378 45 45;" xml:space="preserve" fill="#0071c2">
<title>Group</title>
<desc>Created with Sketch.</desc>
<g id="Page-1" sketch:type="MSPage">
	<g id="Compute-Taxonomy" transform="translate(-313.000000, -274.000000)" sketch:type="MSArtboardGroup">
		<g id="Main-Menu" transform="translate(23.000000, 62.000000)" sketch:type="MSLayerGroup">
			<g id="Group" transform="translate(290.000000, 212.000000)" sketch:type="MSShapeGroup">
				<path id="Fill-1" d="M-594.3,422.8c-12.3,0-22.3-10-22.3-22.3c0-12.3,10-22.3,22.3-22.3c12.3,0,22.3,10,22.3,22.3
					C-572,412.8-582,422.8-594.3,422.8L-594.3,422.8z M-594.3,379.4c-11.6,0-21.1,9.5-21.1,21.1s9.5,21.1,21.1,21.1
					c11.6,0,21.1-9.5,21.1-21.1S-582.7,379.4-594.3,379.4L-594.3,379.4z"/>
				<path id="Fill-2" d="M-600.6,421.6l-0.8-0.9l11-10.4c0.4-0.4,0.5-1,0.2-1.5l-8.3-14.5c-0.6-1-0.4-2.2,0.4-2.9l5.8-5.4
					c0.4-0.4,0.5-1,0.2-1.5l-3.2-5.6l1-0.6l3.2,5.6c0.6,1,0.4,2.2-0.4,2.9l-5.8,5.4c-0.4,0.4-0.5,1-0.2,1.5l8.3,14.5
					c0.5,1,0.4,2.1-0.4,2.9L-600.6,421.6"/>
				<path id="Fill-3" d="M-604.7,419.6l-1-0.6l3.8-6.6c0.2-0.4,0.2-0.8,0-1.2l-2.1-3.6c-0.6-1-0.4-2.2,0.4-2.9l3.2-3
					c0.4-0.4,0.5-1,0.2-1.5l-2.4-4.1c-0.2-0.4-0.6-0.6-1-0.6h-5.7c-0.8,0-1.6-0.5-2-1.2l-2.5-4.3l1-0.6l2.5,4.3
					c0.2,0.4,0.6,0.6,1,0.6h5.7c0.8,0,1.6,0.5,2,1.2l2.4,4.1c0.6,1,0.4,2.2-0.4,2.9l-3.2,3c-0.4,0.4-0.5,1-0.2,1.5l2.1,3.6
					c0.4,0.7,0.4,1.6,0,2.4L-604.7,419.6"/>
				<path id="Fill-4" d="M-572.9,404h-4.1c-0.8,0-1.6-0.5-2.1-1.2l-3.5-6c-0.4-0.7-0.4-1.6,0-2.4l4.5-7.8l1,0.6l-4.5,7.8
					c-0.2,0.4-0.2,0.8,0,1.2l3.5,6c0.2,0.4,0.6,0.6,1,0.6h4.1V404"/>
			</g>
		</g>
	</g>
</g>
</svg>
