<?xml version="1.0" encoding="UTF-8" standalone="no"?>
<!-- Created with Inkscape (http://www.inkscape.org/) -->

<svg
   xmlns:dc="http://purl.org/dc/elements/1.1/"
   xmlns:cc="http://creativecommons.org/ns#"
   xmlns:rdf="http://www.w3.org/1999/02/22-rdf-syntax-ns#"
   xmlns:svg="http://www.w3.org/2000/svg"
   xmlns="http://www.w3.org/2000/svg"
   xmlns:sodipodi="http://sodipodi.sourceforge.net/DTD/sodipodi-0.dtd"
   xmlns:inkscape="http://www.inkscape.org/namespaces/inkscape"
   id="svg4104"
   version="1.1"
   inkscape:version="0.48.0 r9654"
   width="696.25"
   height="628.36625"
   xml:space="preserve"
   sodipodi:docname="incidentresponseprocess.ai"><metadata
     id="metadata4110"><rdf:RDF><cc:Work
         rdf:about=""><dc:format>image/svg+xml</dc:format><dc:type
           rdf:resource="http://purl.org/dc/dcmitype/StillImage" /><dc:title></dc:title></cc:Work></rdf:RDF></metadata><defs
     id="defs4108"><clipPath
       clipPathUnits="userSpaceOnUse"
       id="clipPath4118"><path
         d="m 260,475.693 0,-16.587 0,-2.072 0,-14.514 0,-2.073 0,-16.588 51.803,0 0,16.588 0,2.073 0,14.514 0,2.072 0,16.587 -51.803,0 z m 39.371,-9.33 c 0,1.717 1.391,3.11 3.107,3.11 l 0,0 c 1.717,0 3.109,-1.393 3.109,-3.11 l 0,0 c 0,-1.717 -1.392,-3.11 -3.109,-3.11 l 0,0 c -1.716,0 -3.107,1.393 -3.107,3.11 m -37.299,-9.329 47.659,0 0,-14.513 -47.659,0 0,14.513 z m 0,-16.587 47.659,0 0,-14.513 -47.659,0 0,14.513 z"
         id="path4120" /></clipPath><clipPath
       clipPathUnits="userSpaceOnUse"
       id="clipPath4128"><path
         d="m 299.371,449.777 c 0,-1.718 1.391,-3.111 3.107,-3.111 l 0,0 c 1.717,0 3.109,1.393 3.109,3.111 l 0,0 c 0,1.717 -1.392,3.109 -3.109,3.109 l 0,0 c -1.716,0 -3.107,-1.392 -3.107,-3.109"
         id="path4130" /></clipPath><clipPath
       clipPathUnits="userSpaceOnUse"
       id="clipPath4138"><path
         d="m 299.371,433.19 c 0,-1.717 1.391,-3.111 3.107,-3.111 l 0,0 c 1.717,0 3.109,1.394 3.109,3.111 l 0,0 c 0,1.717 -1.392,3.11 -3.109,3.11 l 0,0 c -1.716,0 -3.107,-1.393 -3.107,-3.11"
         id="path4140" /></clipPath><clipPath
       clipPathUnits="userSpaceOnUse"
       id="clipPath4160"><path
         d="m 284.956,420.077 c 0,-0.523 0.423,-0.946 0.945,-0.946 l 0,0 c 0.522,0 0.946,0.423 0.946,0.946 l 0,0 c 0,0.522 -0.424,0.946 -0.946,0.946 l 0,0 c -0.522,0 -0.945,-0.424 -0.945,-0.946"
         id="path4162" /></clipPath><clipPath
       clipPathUnits="userSpaceOnUse"
       id="clipPath4178"><path
         d="m 284.956,420.077 c 0,-0.523 0.423,-0.946 0.945,-0.946 l 0,0 c 0.522,0 0.946,0.423 0.946,0.946 l 0,0 c 0,0.522 -0.424,0.946 -0.946,0.946 l 0,0 c -0.522,0 -0.945,-0.424 -0.945,-0.946"
         id="path4180" /></clipPath><clipPath
       clipPathUnits="userSpaceOnUse"
       id="clipPath4208"><path
         d="m 69.315,292.163 0,0.79 -1.105,0 0,1.106 -2.21,0 0,-8.847 2.21,0 0,1.106 1.105,0 0,0.79 2.211,-0.633 0,-3.475 c 0,-1.221 0.99,-2.211 2.21,-2.211 l 0,0 4.42,0 c 1.221,0 2.21,0.99 2.21,2.211 l 0,0 0,0.948 18.788,-5.37 0,22.115 -29.839,-8.53 z m 0,-3.905 0,2.755 28.734,8.214 0,-19.184 -28.734,8.215 z m 3.316,-5.258 0,3.16 6.63,-1.896 0,-1.264 c 0,-0.609 -0.496,-1.106 -1.105,-1.106 l 0,0 -4.42,0 c -0.609,0 -1.105,0.497 -1.105,1.106"
         id="path4210" /></clipPath><clipPath
       clipPathUnits="userSpaceOnUse"
       id="clipPath4218"><path
         d="m 472,289.106 c 0,-9.156 7.426,-16.586 16.577,-16.586 l 0,0 c 9.15,0 16.577,7.43 16.577,16.586 l 0,0 c 0,9.156 -7.427,16.587 -16.577,16.587 l 0,0 c -9.151,0 -16.577,-7.431 -16.577,-16.587 m 1.657,-0.103 c 0,8.269 6.759,15.031 15.023,15.031 l 0,0 c 8.265,0 15.023,-6.727 15.023,-15.031 l 0,0 c 0,-8.27 -6.758,-15.032 -15.023,-15.032 l 0,0 c -8.264,0 -15.023,6.762 -15.023,15.032 m 13.262,8.363 0,-3.317 0.829,-8.26 1.658,0 0.828,8.26 0,3.317 -3.315,0 z m 0,-14.861 c 0,-0.896 0.73,-1.659 1.658,-1.659 l 0,0 c 0.928,0 1.657,0.73 1.657,1.659 l 0,0 c 0,0.896 -0.762,1.658 -1.657,1.658 l 0,0 c -0.895,0 -1.658,-0.73 -1.658,-1.658"
         id="path4220" /></clipPath><clipPath
       clipPathUnits="userSpaceOnUse"
       id="clipPath4228"><path
         d="m 0,502.693 557,0 L 557,0 0,0 0,502.693 z"
         id="path4230" /></clipPath><clipPath
       clipPathUnits="userSpaceOnUse"
       id="clipPath4240"><path
         d="M 226.426,111.693 207,78.026 226.426,44.36 l 38.853,0 19.425,33.666 -19.425,33.667 -38.853,0 z"
         id="path4242" /></clipPath><clipPath
       clipPathUnits="userSpaceOnUse"
       id="clipPath4250"><path
         d="m 0,502.693 557,0 L 557,0 0,0 0,502.693 z"
         id="path4252" /></clipPath><clipPath
       clipPathUnits="userSpaceOnUse"
       id="clipPath4262"><path
         d="M 305.426,111.693 286,78.026 305.426,44.36 l 38.853,0 19.425,33.666 -19.425,33.667 -38.853,0 z"
         id="path4264" /></clipPath><clipPath
       clipPathUnits="userSpaceOnUse"
       id="clipPath4272"><path
         d="m 0,502.693 557,0 L 557,0 0,0 0,502.693 z"
         id="path4274" /></clipPath><clipPath
       clipPathUnits="userSpaceOnUse"
       id="clipPath4284"><path
         d="m 229,89.625 c 0,-8.874 7.191,-16.069 16.059,-16.069 l 0,0 c 8.869,0 16.059,7.195 16.059,16.069 l 0,0 c 0,8.874 -7.19,16.068 -16.059,16.068 l 0,0 C 236.191,105.693 229,98.499 229,89.625 m 8.074,12.58 c 2.313,1.474 5.047,2.34 7.985,2.34 l 0,0 c 2.938,0 5.673,-0.866 7.985,-2.34 l 0,0 -4.216,-4.217 c -1.152,0.521 -2.425,0.819 -3.769,0.819 l 0,0 c -1.344,0 -2.618,-0.298 -3.77,-0.819 l 0,0 -4.215,4.217 z m 5.084,-20.064 c -2.097,0.816 -3.764,2.483 -4.58,4.582 l 0,0 c -0.349,0.901 -0.549,1.878 -0.549,2.902 l 0,0 c 0,1.024 0.2,1.999 0.549,2.9 l 0,0 c 0.816,2.099 2.483,3.769 4.58,4.584 l 0,0 c 0.901,0.35 1.877,0.55 2.901,0.55 l 0,0 c 1.024,0 2,-0.2 2.901,-0.55 l 0,0 c 2.096,-0.815 3.764,-2.484 4.579,-4.584 l 0,0 c 0.35,-0.901 0.549,-1.876 0.549,-2.9 l 0,0 c 0,-1.024 -0.199,-2.001 -0.549,-2.902 l 0,0 c -0.815,-2.099 -2.482,-3.766 -4.579,-4.582 l 0,0 c -0.9,-0.351 -1.877,-0.551 -2.901,-0.551 l 0,0 c -1.024,0 -2,0.2 -2.901,0.551 m 11.259,3.712 c 0.521,1.153 0.819,2.426 0.819,3.772 l 0,0 c 0,1.345 -0.298,2.619 -0.819,3.772 l 0,0 4.215,4.217 c 1.473,-2.313 2.338,-5.049 2.338,-7.989 l 0,0 c 0,-2.941 -0.865,-5.677 -2.338,-7.99 l 0,0 -4.215,4.218 z m -23.27,3.772 c 0,2.94 0.866,5.676 2.339,7.989 l 0,0 4.215,-4.217 c -0.52,-1.153 -0.818,-2.427 -0.818,-3.772 l 0,0 c 0,-1.346 0.298,-2.619 0.818,-3.772 l 0,0 -4.215,-4.218 c -1.473,2.313 -2.339,5.049 -2.339,7.99 m 18.681,-8.363 4.216,-4.218 c -2.312,-1.474 -5.047,-2.34 -7.985,-2.34 l 0,0 c -2.938,0 -5.672,0.866 -7.985,2.34 l 0,0 4.215,4.218 c 1.152,-0.521 2.426,-0.819 3.77,-0.819 l 0,0 c 1.344,0 2.617,0.298 3.769,0.819"
         id="path4286" /></clipPath><clipPath
       clipPathUnits="userSpaceOnUse"
       id="clipPath4294"><path
         d="m 326.628,104.58 c -0.16,0 -0.308,-0.085 -0.389,-0.223 l 0,0 -4.164,-7.126 -8.33,0 c -0.16,0 -0.308,-0.085 -0.389,-0.224 l 0,0 -4.294,-7.348 C 309.02,89.588 309,89.509 309,89.43 l 0,0 c 0,-0.078 0.02,-0.157 0.062,-0.227 l 0,0 4.294,-7.349 c 0.081,-0.139 0.229,-0.224 0.389,-0.224 l 0,0 8.33,0 4.164,-7.125 c 0.077,-0.131 0.212,-0.215 0.361,-0.223 l 0,0 8.645,0 c 0.149,0.008 0.284,0.092 0.36,0.223 l 0,0 4.295,7.349 c 0.042,0.07 0.061,0.149 0.061,0.227 l 0,0 c 0,0.079 -0.019,0.158 -0.061,0.229 l 0,0 -4.16,7.12 4.16,7.122 c 0.042,0.07 0.061,0.149 0.061,0.228 l 0,0 c 0,0.079 -0.019,0.157 -0.061,0.227 l 0,0 -4.295,7.35 c -0.08,0.138 -0.228,0.223 -0.388,0.223 l 0,0 -8.589,0 z m 0.258,-0.903 8.072,0 4.031,-6.897 -3.772,-6.456 -3.905,6.683 c -0.081,0.139 -0.23,0.224 -0.39,0.224 l 0,0 -7.802,0 3.766,6.446 z m -0.134,-13.566 -3.632,6.217 7.544,0 3.766,-6.446 -7.544,0 -0.134,0.229 z m -16.779,-0.681 4.031,6.898 7.543,0 -3.897,-6.669 c -0.082,-0.141 -0.082,-0.316 0,-0.456 l 0,0 3.897,-6.67 -7.543,0 -4.031,6.897 z m 8.589,0 3.772,6.456 3.772,-6.456 -3.772,-6.455 -3.772,6.455 z m 8.19,-0.681 0.134,0.23 7.544,0 -3.766,-6.446 -7.544,0 3.632,6.216 z m -3.632,-7.119 7.802,0 c 0.16,0 0.309,0.085 0.39,0.224 l 0,0 3.905,6.683 3.772,-6.456 -4.031,-6.898 -8.072,0 -3.766,6.447 z"
         id="path4296" /></clipPath><clipPath
       clipPathUnits="userSpaceOnUse"
       id="clipPath4304"><path
         d="m 0,502.693 557,0 L 557,0 0,0 0,502.693 z"
         id="path4306" /></clipPath><clipPath
       clipPathUnits="userSpaceOnUse"
       id="clipPath4316"><path
         d="m 374.438,77.712 4.924,-5.088 0.8,0.826 -3.559,3.677 -0.001,1.169 3.56,3.678 -0.8,0.826 -4.924,-5.088 z"
         id="path4318" /></clipPath><clipPath
       clipPathUnits="userSpaceOnUse"
       id="clipPath4326"><path
         d="m 0,502.693 557,0 L 557,0 0,0 0,502.693 z"
         id="path4328" /></clipPath><clipPath
       clipPathUnits="userSpaceOnUse"
       id="clipPath4342"><path
         d="m 196.838,453.993 3.559,-3.557 0.001,-1.13 -3.56,-3.557 0.8,-0.799 4.924,4.92 -4.924,4.923 -0.8,-0.8 z"
         id="path4344" /></clipPath><clipPath
       clipPathUnits="userSpaceOnUse"
       id="clipPath4352"><path
         d="m 0,502.693 557,0 L 557,0 0,0 0,502.693 z"
         id="path4354" /></clipPath><clipPath
       clipPathUnits="userSpaceOnUse"
       id="clipPath4368"><path
         d="m 489.743,336.211 -1.13,-0.001 -3.556,3.443 -0.8,-0.774 4.921,-4.763 4.921,4.763 -0.799,0.774 -3.557,-3.442 z"
         id="path4370" /></clipPath><clipPath
       clipPathUnits="userSpaceOnUse"
       id="clipPath4378"><path
         d="m 0,502.693 557,0 L 557,0 0,0 0,502.693 z"
         id="path4380" /></clipPath><clipPath
       clipPathUnits="userSpaceOnUse"
       id="clipPath4394"><path
         d="m 81.901,193.332 0.799,-0.8 3.557,3.558 1.13,0 3.556,-3.558 0.8,0.799 -4.921,4.925 -4.921,-4.924 z"
         id="path4396" /></clipPath><clipPath
       clipPathUnits="userSpaceOnUse"
       id="clipPath4404"><path
         d="m 0,502.693 557,0 L 557,0 0,0 0,502.693 z"
         id="path4406" /></clipPath></defs><sodipodi:namedview
     pagecolor="#ffffff"
     bordercolor="#666666"
     borderopacity="1"
     objecttolerance="10"
     gridtolerance="10"
     guidetolerance="10"
     inkscape:pageopacity="0"
     inkscape:pageshadow="2"
     inkscape:window-width="1277"
     inkscape:window-height="852"
     id="namedview4106"
     showgrid="false"
     inkscape:zoom="0.9652382"
     inkscape:cx="348.125"
     inkscape:cy="314.18314"
     inkscape:window-x="0"
     inkscape:window-y="0"
     inkscape:window-maximized="0"
     inkscape:current-layer="g4112" /><g
     id="g4112"
     inkscape:groupmode="layer"
     inkscape:label="incidentresponseprocess"
     transform="matrix(1.25,0,0,-1.25,0,628.36625)"><g
       id="g4114"><g
         id="g4116"
         clip-path="url(#clipPath4118)"><path
           d="m 255,480.693 61.803,0 0,-61.833 -61.803,0 0,61.833 z"
           style="fill:#555555;fill-opacity:1;fill-rule:nonzero;stroke:none"
           id="path4122" /></g></g><g
       id="g4124"><g
         id="g4126"
         clip-path="url(#clipPath4128)"><path
           d="m 294.37,457.886 16.216,0 0,-16.22 -16.216,0 0,16.22 z"
           style="fill:#555555;fill-opacity:1;fill-rule:nonzero;stroke:none"
           id="path4132" /></g></g><g
       id="g4134"><g
         id="g4136"
         clip-path="url(#clipPath4138)"><path
           d="m 294.37,441.3 16.216,0 0,-16.22 -16.216,0 0,16.22 z"
           style="fill:#555555;fill-opacity:1;fill-rule:nonzero;stroke:none"
           id="path4142" /></g></g><g
       id="g4144"
       transform="translate(271.7217,414.4014)"><path
         d="M 0,0 28.357,0 14.179,24.592 0,0 z M 14.18,22.7 26.723,0.946 1.637,0.946 14.18,22.7 z"
         style="fill:#555555;fill-opacity:1;fill-rule:nonzero;stroke:none"
         id="path4146" /></g><g
       id="g4148"
       transform="translate(271.7217,414.4014)"><path
         d="M 0,0 28.36,0 14.18,24.592 0,0 z M 14.18,22.7 26.723,0.946 1.637,0.946 14.18,22.7 z"
         style="fill:#555555;fill-opacity:1;fill-rule:nonzero;stroke:none"
         id="path4150" /></g><g
       id="g4152"
       transform="translate(284.9562,428.589)"><path
         d="m 0,0 0,-1.892 0.473,-4.729 0.945,0 0.473,4.729 L 1.891,0 0,0 z"
         style="fill:#555555;fill-opacity:1;fill-rule:nonzero;stroke:none"
         id="path4154" /></g><g
       id="g4156"><g
         id="g4158"
         clip-path="url(#clipPath4160)"><path
           d="m 279.956,426.022 11.891,0 0,-11.892 -11.891,0 0,11.892 z"
           style="fill:#555555;fill-opacity:1;fill-rule:nonzero;stroke:none"
           id="path4164" /></g></g><g
       id="g4166"
       transform="translate(273.3588,415.3473)"><path
         d="M 0,0 25.086,0 12.542,21.754 0,0 z"
         style="fill:#ffffff;fill-opacity:1;fill-rule:nonzero;stroke:none"
         id="path4168" /></g><g
       id="g4170"
       transform="translate(284.9562,428.589)"><path
         d="m 0,0 0,-1.892 0.473,-4.729 0.945,0 0.473,4.729 L 1.891,0 0,0 z"
         style="fill:#555555;fill-opacity:1;fill-rule:nonzero;stroke:none"
         id="path4172" /></g><g
       id="g4174"><g
         id="g4176"
         clip-path="url(#clipPath4178)"><path
           d="m 279.956,426.022 11.891,0 0,-11.892 -11.891,0 0,11.892 z"
           style="fill:#555555;fill-opacity:1;fill-rule:nonzero;stroke:none"
           id="path4182" /></g></g><g
       id="g4184"
       transform="translate(63.4257,322.6932)"><path
         d="M 0,0 -19.426,-33.667 0,-67.334 l 38.853,0 19.426,33.667 L 38.853,0 0,0 z"
         style="fill:#ffffff;fill-opacity:1;fill-rule:nonzero;stroke:none"
         id="path4186" /></g><g
       id="g4188"
       transform="translate(121.7045,289.0264)"><path
         d="m 0,0 -19.426,-33.667 -38.852,0 L -77.704,0 l 19.426,33.667 38.852,0 L 0,0 z"
         style="fill:none;stroke:#555555;stroke-opacity:1;stroke-width:2;stroke-linecap:butt;stroke-linejoin:miter;stroke-miterlimit:10;stroke-dasharray:none"
         id="path4190" /></g><g
       id="g4192"
       transform="translate(469.4265,322.6932)"><path
         d="M 0,0 -19.426,-33.667 0,-67.334 l 38.852,0 19.426,33.667 L 38.852,0 0,0 z"
         style="fill:#ffffff;fill-opacity:1;fill-rule:nonzero;stroke:none"
         id="path4194" /></g><g
       id="g4196"
       transform="translate(508.2784,255.3598)"><path
         d="M 0,0 -38.852,0 -58.278,33.667 -38.852,67.333 0,67.333 19.426,33.667 0,0 z"
         style="fill:none;stroke:#555555;stroke-opacity:1;stroke-width:2;stroke-linecap:butt;stroke-linejoin:miter;stroke-miterlimit:10;stroke-dasharray:none"
         id="path4198" /></g><g
       id="g4200"
       transform="translate(337.606,446.8042)"><path
         d="m 0,0 -25.901,-44.889 -51.803,0 -25.902,44.889 25.902,44.889 51.803,0 L 0,0 z"
         style="fill:none;stroke:#555555;stroke-opacity:1;stroke-width:3;stroke-linecap:butt;stroke-linejoin:miter;stroke-miterlimit:10;stroke-dasharray:none"
         id="path4202" /></g><g
       id="g4204"><g
         id="g4206"
         clip-path="url(#clipPath4208)"><path
           d="m 61,305.693 43.154,0 0,-32.115 -43.154,0 0,32.115 z"
           style="fill:#555555;fill-opacity:1;fill-rule:nonzero;stroke:none"
           id="path4212" /></g></g><g
       id="g4214"><g
         id="g4216"
         clip-path="url(#clipPath4218)"><path
           d="m 467,310.693 43.154,0 0,-43.173 -43.154,0 0,43.173 z"
           style="fill:#555555;fill-opacity:1;fill-rule:nonzero;stroke:none"
           id="path4222" /></g></g><g
       id="g4224"><g
         id="g4226"
         clip-path="url(#clipPath4228)"><g
           id="g4232"
           transform="translate(284.3931,24.8434)"><path
             d="M 0,0 C 30.041,0 54.393,24.367 54.393,54.425 54.393,84.483 30.041,108.85 0,108.85 -30.04,108.85 -54.393,84.483 -54.393,54.425 -54.393,24.367 -30.04,0 0,0 z"
             style="fill:none;stroke:#446584;stroke-opacity:1;stroke-width:2;stroke-linecap:butt;stroke-linejoin:miter;stroke-miterlimit:10;stroke-dasharray:none"
             id="path4234" /></g></g></g><g
       id="g4236"><g
         id="g4238"
         clip-path="url(#clipPath4240)"><path
           d="m 202,116.693 87.704,0 0,-77.333 -87.704,0 0,77.333 z"
           style="fill:#ffffff;fill-opacity:1;fill-rule:nonzero;stroke:none"
           id="path4244" /></g></g><g
       id="g4246"><g
         id="g4248"
         clip-path="url(#clipPath4250)"><g
           id="g4254"
           transform="translate(284.7045,78.0264)"><path
             d="m 0,0 -19.426,-33.667 -38.852,0 L -77.704,0 l 19.426,33.667 38.852,0 L 0,0 z"
             style="fill:none;stroke:#555555;stroke-opacity:1;stroke-width:2;stroke-linecap:butt;stroke-linejoin:miter;stroke-miterlimit:10;stroke-dasharray:none"
             id="path4256" /></g></g></g><g
       id="g4258"><g
         id="g4260"
         clip-path="url(#clipPath4262)"><path
           d="m 281,116.693 87.704,0 0,-77.333 -87.704,0 0,77.333 z"
           style="fill:#ffffff;fill-opacity:1;fill-rule:nonzero;stroke:none"
           id="path4266" /></g></g><g
       id="g4268"><g
         id="g4270"
         clip-path="url(#clipPath4272)"><g
           id="g4276"
           transform="translate(363.7045,78.0264)"><path
             d="m 0,0 -19.426,-33.667 -38.852,0 L -77.704,0 l 19.426,33.667 38.852,0 L 0,0 z"
             style="fill:none;stroke:#555555;stroke-opacity:1;stroke-width:2;stroke-linecap:butt;stroke-linejoin:miter;stroke-miterlimit:10;stroke-dasharray:none"
             id="path4278" /></g></g></g><g
       id="g4280"><g
         id="g4282"
         clip-path="url(#clipPath4284)"><path
           d="m 224,110.693 42.118,0 0,-42.137 -42.118,0 0,42.137 z"
           style="fill:#555555;fill-opacity:1;fill-rule:nonzero;stroke:none"
           id="path4288" /></g></g><g
       id="g4290"><g
         id="g4292"
         clip-path="url(#clipPath4294)"><path
           d="m 304,109.58 40.962,0 0,-40.299 -40.962,0 0,40.299 z"
           style="fill:#555555;fill-opacity:1;fill-rule:nonzero;stroke:none"
           id="path4298" /></g></g><g
       id="g4300"><g
         id="g4302"
         clip-path="url(#clipPath4304)"><g
           id="g4308"
           transform="translate(491.5072,195.6675)"><path
             d="M 0,0 C 0,-64.188 -48.358,-118.223 -110.478,-118.223"
             style="fill:none;stroke:#446584;stroke-opacity:1;stroke-width:5;stroke-linecap:butt;stroke-linejoin:miter;stroke-miterlimit:10;stroke-dasharray:5,5,5,5;stroke-dashoffset:0"
             id="path4310" /></g></g></g><g
       id="g4312"><g
         id="g4314"
         clip-path="url(#clipPath4316)"><path
           d="m 369.438,67.624 15.724,0 0,20.176 -15.724,0 0,-20.176 z"
           style="fill:#446584;fill-opacity:1;fill-rule:nonzero;stroke:none"
           id="path4320" /></g></g><g
       id="g4322"><g
         id="g4324"
         clip-path="url(#clipPath4326)"><g
           id="g4330"
           transform="translate(379.3619,82.8003)"><path
             d="m 0,0 0.8,-0.827 -3.559,-3.677 0,-1.169 L 0.8,-9.35 0,-10.176 -4.924,-5.088 0,0 z"
             style="fill:none;stroke:#446584;stroke-opacity:1;stroke-width:3;stroke-linecap:butt;stroke-linejoin:miter;stroke-miterlimit:10;stroke-dasharray:none"
             id="path4332" /></g><g
           id="g4334"
           transform="translate(81.4928,337.7177)"><path
             d="M 0,0 C 0,62.084 50.358,112.412 112.478,112.412"
             style="fill:none;stroke:#446584;stroke-opacity:1;stroke-width:5;stroke-linecap:butt;stroke-linejoin:miter;stroke-miterlimit:10;stroke-dasharray:5,5,5,5;stroke-dashoffset:0"
             id="path4336" /></g></g></g><g
       id="g4338"><g
         id="g4340"
         clip-path="url(#clipPath4342)"><path
           d="m 207.562,459.793 -15.724,0 0,-19.843 15.724,0 0,19.843 z"
           style="fill:#446584;fill-opacity:1;fill-rule:nonzero;stroke:none"
           id="path4346" /></g></g><g
       id="g4348"><g
         id="g4350"
         clip-path="url(#clipPath4352)"><g
           id="g4356"
           transform="translate(197.6381,444.9499)"><path
             d="M 0,0 -0.8,0.799 2.76,4.356 2.759,5.487 -0.8,9.043 0,9.843 4.924,4.921 0,0 z"
             style="fill:none;stroke:#446584;stroke-opacity:1;stroke-width:3;stroke-linecap:butt;stroke-linejoin:miter;stroke-miterlimit:10;stroke-dasharray:none"
             id="path4358" /></g><g
           id="g4360"
           transform="translate(372.0247,454.2164)"><path
             d="M 0,0 C 62.084,0 117.413,-47.707 117.413,-107.79"
             style="fill:none;stroke:#446584;stroke-opacity:1;stroke-width:5;stroke-linecap:butt;stroke-linejoin:miter;stroke-miterlimit:10;stroke-dasharray:5,5,5,5;stroke-dashoffset:0"
             id="path4362" /></g></g></g><g
       id="g4364"><g
         id="g4366"
         clip-path="url(#clipPath4368)"><path
           d="m 479.257,329.116 19.843,0 0,15.536 -19.843,0 0,-15.536 z"
           style="fill:#446584;fill-opacity:1;fill-rule:nonzero;stroke:none"
           id="path4372" /></g></g><g
       id="g4374"><g
         id="g4376"
         clip-path="url(#clipPath4378)"><g
           id="g4382"
           transform="translate(484.2569,338.8791)"><path
             d="M 0,0 0.799,0.773 4.356,-2.669 5.486,-2.668 9.043,0.774 9.843,0 4.921,-4.763 0,0 z"
             style="fill:none;stroke:#446584;stroke-opacity:1;stroke-width:3;stroke-linecap:butt;stroke-linejoin:miter;stroke-miterlimit:10;stroke-dasharray:none"
             id="path4384" /></g><g
           id="g4386"
           transform="translate(198.9753,77.1858)"><path
             d="M 0,0 C -62.084,0 -112.412,50.358 -112.412,112.478"
             style="fill:none;stroke:#446584;stroke-opacity:1;stroke-width:5;stroke-linecap:butt;stroke-linejoin:miter;stroke-miterlimit:10;stroke-dasharray:5,5,5,5;stroke-dashoffset:0"
             id="path4388" /></g></g></g><g
       id="g4390"><g
         id="g4392"
         clip-path="url(#clipPath4394)"><path
           d="m 76.9,187.531 19.843,0 0,15.724 -19.843,0 0,-15.724 z"
           style="fill:#446584;fill-opacity:1;fill-rule:nonzero;stroke:none"
           id="path4398" /></g></g><g
       id="g4400"><g
         id="g4402"
         clip-path="url(#clipPath4404)"><g
           id="g4408"
           transform="translate(91.7431,193.3311)"><path
             d="M 0,0 -0.799,-0.8 -4.356,2.76 -5.487,2.759 -9.043,-0.8 -9.843,0 -4.921,4.924 0,0 z"
             style="fill:none;stroke:#446584;stroke-opacity:1;stroke-width:3;stroke-linecap:butt;stroke-linejoin:miter;stroke-miterlimit:10;stroke-dasharray:none"
             id="path4410" /></g></g></g><text
       transform="matrix(1,0,0,-1,227.5967,378.4492)"
       id="text4412"><tspan
         style="fill:#373535;fill-opacity:1;fill-rule:nonzero;stroke:none;font-family:Myriad Pro;font-variant:normal;font-weight:normal;font-stretch:normal;font-size:12;writing-mode:lr;-inkscape-font-specification:HelvNeueRomanforIBM"
         x="0 2.988 9.648 15.024 17.832 24.6 30.612 37.2252 41.1252 47.1372 49.6812 56.4492 62.4612 66.3612 72.3732 77.9052 81.8772 87.6612 94.4292 101.0172 103.5612 110.2212"
         y="0"
         sodipodi:role="line"
         id="tspan4414">Incidente detectado no</tspan><tspan
         style="fill:#373535;fill-opacity:1;fill-rule:nonzero;stroke:none;font-family:Myriad Pro;font-variant:normal;font-weight:normal;font-stretch:normal;font-size:12;writing-mode:lr;-inkscape-font-specification:HelvNeueRomanforIBM"
         x="8.424 14.208 24.216 31.044 33.852 39.864 46.4772 50.3772 56.3892 58.9332 65.7012 72.2892 74.8332 80.2092 83.0412 85.8492 91.8612 98.4732 102.3732"
         y="14.4"
         sodipodi:role="line"
         id="tspan4416">ambiente do cliente</tspan><tspan
         style="fill:#373535;fill-opacity:1;fill-rule:nonzero;stroke:none;font-family:Myriad Pro;font-variant:normal;font-weight:normal;font-stretch:normal;font-size:12;writing-mode:lr;-inkscape-font-specification:HelvNeueRomanforIBM"
         x="-213.816 -205.548 -203.004 -196.5 -193.668 -187.056 -181.044 -171.036 -168.228 -162.672 -160.128 -154.116 -147.612 -141.84 -139.032 -133.248 -130.704 -124.044 -117.456 -113.484 -110.676 -104.4 -99.024 -93.24 -87.864 -82.08"
         y="149.76"
         sodipodi:role="line"
         id="tspan4418">O Bluemix envia notifcação</tspan><tspan
         style="fill:#373535;fill-opacity:1;fill-rule:nonzero;stroke:none;font-family:Myriad Pro;font-variant:normal;font-weight:normal;font-stretch:normal;font-size:12;writing-mode:lr;-inkscape-font-specification:HelvNeueRomanforIBM"
         x="-191.04 -184.212 -178.428 -174.564 -168.78 -166.236 -159.408 -153.624 -146.9892 -144.1812 -137.5212 -131.7372 -129.1932 -123.3132 -119.3412 -113.6052 -109.6332 -103.0212"
         y="164.16"
         sodipodi:role="line"
         id="tspan4420">para página Status</tspan><tspan
         style="fill:#373535;fill-opacity:1;fill-rule:nonzero;stroke:none;font-family:Myriad Pro;font-variant:normal;font-weight:normal;font-stretch:normal;font-size:12;writing-mode:lr;-inkscape-font-specification:HelvNeueRomanforIBM"
         x="196.2 203.508 206.34 212.352 216.564 220.536 226.32 228.864 234.876 241.38 247.152 249.96 255.744 262.512 269.1 271.644 277.428 284.016 286.56 293.064 295.896 302.508 308.52 318.528 321.336"
         y="157.908"
         sodipodi:role="line"
         id="tspan4422">Alerta enviado ao Bluemix</tspan><tspan
         style="fill:#373535;fill-opacity:1;fill-rule:nonzero;stroke:none;font-family:Myriad Pro;font-variant:normal;font-weight:normal;font-stretch:normal;font-size:12;writing-mode:lr;-inkscape-font-specification:HelvNeueRomanforIBM"
         x="-16.02 -9.192 -2.604 0.228 6.012 12.84 19.428 23.292 29.076 34.452 40.236 46.824 49.368 56.136 62.724 65.268 71.772 74.604 81.216 87.228 97.236 100.044 105.6 108.144 114.3 120.456 124.572"
         y="367.968"
         sodipodi:role="line"
         id="tspan4424">Colaboração do Bluemix 24/7</tspan></text>
<text
       xml:space="preserve"
       style="font-size:9.60000038px;font-style:normal;font-variant:normal;font-weight:normal;font-stretch:normal;text-align:center;line-height:125%;letter-spacing:0px;word-spacing:0px;writing-mode:lr-tb;text-anchor:middle;fill:#000000;fill-opacity:1;stroke:none;font-family:Sans;-inkscape-font-specification:Sans"
       x="200.50804"
       y="-79.374405"
       id="text4430"
       sodipodi:linespacing="125%"
       transform="scale(1.2193987,-0.82007632)"><tspan
         sodipodi:role="line"
         id="tspan4432"
         x="200.50804"
         y="-79.374405"
         style="font-size:9.60000038px;font-style:normal;font-variant:normal;font-weight:normal;font-stretch:normal;text-align:center;line-height:125%;writing-mode:lr-tb;text-anchor:middle;font-family:Sans;-inkscape-font-specification:Sans">Suporte do</tspan><tspan
         sodipodi:role="line"
         x="200.50804"
         y="-67.374405"
         id="tspan4434"
         style="font-size:9.60000038px;font-style:normal;font-variant:normal;font-weight:normal;font-stretch:normal;text-align:center;line-height:125%;writing-mode:lr-tb;text-anchor:middle;font-family:Sans;-inkscape-font-specification:Sans"> Bluemix</tspan></text>
<text
       xml:space="preserve"
       style="font-size:9.60000038px;font-style:normal;font-variant:normal;font-weight:normal;font-stretch:normal;text-align:center;line-height:125%;letter-spacing:0px;word-spacing:0px;writing-mode:lr-tb;text-anchor:middle;fill:#000000;fill-opacity:1;stroke:none;font-family:Sans;-inkscape-font-specification:Sans"
       x="324.93579"
       y="-65.476051"
       id="text4436"
       sodipodi:linespacing="125%"
       transform="scale(1,-1)"><tspan
         sodipodi:role="line"
         id="tspan4438"
         x="326.26703"
         y="-65.476051">Operações do </tspan><tspan
         sodipodi:role="line"
         x="324.93579"
         y="-53.476051"
         id="tspan4440">Bluemix</tspan></text>
</g></svg>