<?xml version="1.0" encoding="utf-8"?>
<!-- Generator: Adobe Illustrator 19.0.0, SVG Export Plug-In . SVG Version: 6.00 Build 0)  -->
<!DOCTYPE svg PUBLIC "-//W3C//DTD SVG 1.1//EN" "http://www.w3.org/Graphics/SVG/1.1/DTD/svg11.dtd">
<svg version="1.1" id="Layer_1" xmlns:sketch="http://www.bohemiancoding.com/sketch/ns"
	 xmlns="http://www.w3.org/2000/svg" xmlns:xlink="http://www.w3.org/1999/xlink" x="0px" y="0px" viewBox="-622 370 65 62" xml:space="preserve" fill="#0071c2">
<title>Page 1</title>
<desc>Created with Sketch.</desc>
<g id="Console-Screens" sketch:type="MSPage">
	<g id="Atlas-Home-Copy" transform="translate(-1229.000000, -338.000000)" sketch:type="MSArtboardGroup">
		<g id="Page-1" transform="translate(1230.000000, 339.000000)" sketch:type="MSLayerGroup">
			<path d="M-589,408.3v-29.1c0-1.5,1.2-2.7,2.7-2.7h25.1c1.5,0,2.7,1.2,2.7,2.7V398c0,1.5-1.2,2.7-2.7,2.7h-17.9L-589,408.3z
				 M-586.3,378.5c-0.4,0-0.7,0.3-0.7,0.7v25l7.3-5.5h18.6c0.4,0,0.7-0.3,0.7-0.7v-18.8c0-0.4-0.3-0.7-0.7-0.7H-586.3z"/>
			<path d="M-565.7,385.6h-16.1c-0.6,0-1-0.4-1-1s0.4-1,1-1h16.1c0.6,0,1,0.4,1,1S-565.2,385.6-565.7,385.6z"/>
			<path d="M-565.7,392.9h-16.1c-0.6,0-1-0.4-1-1s0.4-1,1-1h16.1c0.6,0,1,0.4,1,1S-565.2,392.9-565.7,392.9z"/>
			<rect x="-611.6" y="415.2" width="33.9" height="2"/>
			<path id="Fill-9" sketch:type="MSShapeGroup" d="M-592.9,422.9c0-1-0.8-1.8-1.8-1.8s-1.8,0.8-1.8,1.8s0.8,1.8,1.8,1.8
				S-592.9,423.9-592.9,422.9"/>
			<path d="M-580.9,430.6h-27.6c-2.3,0-4.1-1.9-4.1-4.2v-53.1c0-2.3,1.9-4.2,4.1-4.2h27.6c2.3,0,4.1,1.9,4.1,4.2v4.1h-2v-4.1
				c0-1.2-1-2.2-2.1-2.2h-27.6c-1.2,0-2.1,1-2.1,2.2v53.1c0,1.2,1,2.2,2.1,2.2h27.6c1.2,0,2.1-1,2.1-2.2v-26.6h2v26.6
				C-576.7,428.7-578.6,430.6-580.9,430.6z"/>
		</g>
	</g>
</g>
</svg>
