<?xml version="1.0" encoding="utf-8"?>
<!-- Generator: Adobe Illustrator 18.1.1, SVG Export Plug-In . SVG Version: 6.00 Build 0)  -->
<svg version="1.1" id="Layer_1" xmlns:sketch="http://www.bohemiancoding.com/sketch/ns"
	 xmlns="http://www.w3.org/2000/svg" xmlns:xlink="http://www.w3.org/1999/xlink" x="0px" y="0px" viewBox="-129 211 60 59"
	 enable-background="new -129 211 60 59" xml:space="preserve">
<title>Imported Layers</title>
<desc>Created with Sketch.</desc>
<g id="Docs" sketch:type="MSPage">
	<g id="_x32_-Docs-landing-redesign-Copy" transform="translate(-1242.000000, -1329.000000)" sketch:type="MSArtboardGroup">
		<g id="Main-Menu-Copy" transform="translate(275.000000, 1179.000000)" sketch:type="MSLayerGroup">
			<g id="Imported-Layers" transform="translate(967.000000, 150.000000)" sketch:type="MSShapeGroup">
				<path id="Fill-1" fill="#2D3F49" d="M-127.7,269.8c-0.4,0-0.8-0.3-0.8-0.8c0-0.4,0.4-0.8,0.8-0.8h57.9c0.4,0,0.8,0.3,0.8,0.8
					c0,0.4-0.4,0.8-0.8,0.8H-127.7z"/>
				<path id="Fill-2" fill="#2D3F49" d="M-72.2,255.6h-53.1c-1.7,0-3.2-1.4-3.2-3.1v-38c0-1.7,1.4-3.1,3.2-3.1h53.1
					c1.7,0,3.2,1.4,3.2,3.1v38C-69,254.2-70.4,255.6-72.2,255.6L-72.2,255.6z M-125.3,212.9c-0.9,0-1.6,0.7-1.6,1.5v38
					c0,0.9,0.7,1.5,1.6,1.5h53.1c0.9,0,1.6-0.7,1.6-1.5v-38c0-0.9-0.7-1.5-1.6-1.5H-125.3L-125.3,212.9z"/>
				<path id="Fill-3" fill="#2D3F49" d="M-102.3,240.5c-0.4,0.2-0.9,0.3-1.5,0.3c-1.1,0-1.8-0.6-1.8-2c-1.2,1.4-2.8,2-4.6,2
					c-2.4,0-4.3-1-4.3-3.6c0-2.9,2.2-3.6,4.4-4c2.4-0.5,4.4-0.3,4.4-1.9c0-1.9-1.6-2.1-2.9-2.1c-1.8,0-3.2,0.5-3.3,2.4h-2.1
					c0.1-3.2,2.6-4.3,5.5-4.3c2.4,0,4.9,0.5,4.9,3.5v6.6c0,1,0,1.4,0.7,1.4c0.2,0,0.4,0,0.7-0.1V240.5L-102.3,240.5z M-105.8,233.9
					c-1.7,1.2-6.5,0-6.5,3.2c0,1.4,1.2,1.9,2.5,1.9c2.8,0,4-1.7,4-2.9V233.9L-105.8,233.9z"/>
				<path id="Fill-4" fill="#2D3F49" d="M-100.3,227.7h2.2v1.7h0.1c0.7-1.4,2.4-2,4.2-2c4,0,6,3.1,6,6.8c0,3.7-2,6.7-6,6.7
					c-1.3,0-3.3-0.5-4.2-2h-0.1v6.6h-2.2V227.7L-100.3,227.7z M-94.2,229.3c-2.9,0-4,2.5-4,4.9c0,2.5,1.2,4.9,4.1,4.9
					c2.9,0,3.9-2.5,3.9-5C-90.2,231.6-91.5,229.3-94.2,229.3L-94.2,229.3z"/>
				<path id="Fill-5" fill="#2D3F49" d="M-85.7,222.8h2.2v2.6h-2.2V222.8z M-85.7,227.7h2.2v12.9h-2.2V227.7z"/>
			</g>
		</g>
	</g>
</g>
</svg>
