<?xml version="1.0" encoding="UTF-8"?>
<svg width="24px" height="18px" viewBox="0 0 24 18" version="1.1" xmlns="http://www.w3.org/2000/svg" xmlns:xlink="http://www.w3.org/1999/xlink">
    <!-- Generator: Sketch 41.2 (35397) - http://www.bohemiancoding.com/sketch -->
    <title>cloud-foundry</title>
    <desc>Created with Sketch.</desc>
    <defs></defs>
    <g id="Page-1" stroke="none" stroke-width="1" fill="none" fill-rule="evenodd">
        <g id="cloud-foundry" fill="#3D70B2">
            <path d="M12.2,10.5 C12.1,10 11.6,9.6 11,9.6 C9.9,9.6 9.5,10.5 9.5,11.5 C9.5,12.4 9.9,13.3 11,13.3 C11.7,13.3 12.1,12.8 12.2,12.1 L13.4,12.1 C13.3,13.5 12.4,14.3 11,14.3 C9.3,14.3 8.3,13 8.3,11.5 C8.3,9.9 9.3,8.6 11,8.6 C12.2,8.6 13.2,9.3 13.3,10.6 L12.2,10.6 L12.2,10.5 Z" id="Shape"></path>
            <polygon id="Shape" points="14.1 8.7 17.9 8.7 17.9 9.7 15.3 9.7 15.3 11 17.6 11 17.6 11.9 15.3 11.9 15.3 14.1 14.1 14.1"></polygon>
            <path d="M13.6,1.2 C16.6,1.2 19,3.6 19.1,6.6 L19.1,7.4 L19.8,7.7 C21.6,8.4 22.7,10.1 22.7,12.1 C22.7,14.7 20.7,16.8 18.2,16.8 L17.2,16.8 L6.3,16.8 L5.6,16.8 C3.1,16.7 1.1,14.6 1.1,12.1 C1.1,9.5 3.2,7.3 5.8,7.3 C6.1,7.3 6.4,7.3 6.7,7.4 L8,7.6 L8.1,6.3 C8.4,3.4 10.7,1.2 13.6,1.2 L13.6,1.2 Z M13.6,0 C10.1,0 7.2,2.7 6.9,6.2 C6.6,6.1 6.2,6.1 5.9,6.1 C2.6,6.1 0,8.7 0,12 C0,15.2 2.5,17.8 5.6,17.9 L5.6,17.9 L18.3,17.9 L18.3,17.9 C21.5,17.9 24,15.3 24,12 C24,9.5 22.5,7.4 20.3,6.5 C20.2,2.9 17.2,0 13.6,0 L13.6,0 L13.6,0 Z" id="Shape"></path>
        </g>
    </g>
</svg>
