<?xml version="1.0" encoding="utf-8"?>
<!-- Generator: Adobe Illustrator 19.0.0, SVG Export Plug-In . SVG Version: 6.00 Build 0)  -->
<!DOCTYPE svg PUBLIC "-//W3C//DTD SVG 1.1//EN" "http://www.w3.org/Graphics/SVG/1.1/DTD/svg11.dtd">
<svg version="1.1" id="Layer_1" xmlns:sketch="http://www.bohemiancoding.com/sketch/ns"
	 xmlns="http://www.w3.org/2000/svg" xmlns:xlink="http://www.w3.org/1999/xlink" x="0px" y="0px" viewBox="-616 379 46 44"
	 style="enable-background:new -616 379 46 44;" xml:space="preserve" fill="#0071c2">
<title>Imported Layers</title>
<desc>Created with Sketch.</desc>
<g id="Page-1" sketch:type="MSPage">
	<g id="Compute-Taxonomy" transform="translate(-76.000000, -133.000000)" sketch:type="MSArtboardGroup">
		<g id="Main-Menu" transform="translate(23.000000, 62.000000)" sketch:type="MSLayerGroup">
			<g id="Imported-Layers" transform="translate(53.000000, 71.000000)" sketch:type="MSShapeGroup">
				<path id="Fill-1" d="M-574.5,385c0-0.7-0.6-1.3-1.3-1.3c-0.7,0-1.3,0.6-1.3,1.3s0.6,1.3,1.3,1.3
					C-575.1,386.3-574.5,385.7-574.5,385"/>
				<path id="Fill-2" d="M-574.5,416.5c0-0.7-0.6-1.3-1.3-1.3c-0.7,0-1.3,0.6-1.3,1.3c0,0.7,0.6,1.3,1.3,1.3
					C-575.1,417.8-574.5,417.2-574.5,416.5"/>
				<path id="Fill-3" d="M-574.5,400.8c0-0.7-0.6-1.3-1.3-1.3c-0.7,0-1.3,0.6-1.3,1.3c0,0.7,0.6,1.3,1.3,1.3
					C-575.1,402-574.5,401.5-574.5,400.8"/>
				<path id="Fill-4" d="M-570.7,422.3H-615c-0.3,0-0.6-0.3-0.6-0.6v-10.5c0-0.3,0.3-0.6,0.6-0.6h44.3c0.3,0,0.6,0.3,0.6,0.6v10.5
					C-570.1,422.1-570.3,422.3-570.7,422.3L-570.7,422.3z M-614.4,421.2h43.1v-9.3h-43.1V421.2z"/>
				<path id="Fill-5" d="M-570.7,406.6H-615c-0.3,0-0.6-0.3-0.6-0.6v-10.5c0-0.3,0.3-0.6,0.6-0.6h44.3c0.3,0,0.6,0.3,0.6,0.6V406
					C-570.1,406.3-570.3,406.6-570.7,406.6L-570.7,406.6z M-614.4,405.4h43.1v-9.3h-43.1V405.4z"/>
				<path id="Fill-6" d="M-570.7,390.8H-615c-0.3,0-0.6-0.3-0.6-0.6v-10.5c0-0.3,0.3-0.6,0.6-0.6h44.3c0.3,0,0.6,0.3,0.6,0.6v10.5
					C-570.1,390.6-570.3,390.8-570.7,390.8L-570.7,390.8z M-614.4,389.7h43.1v-9.3h-43.1V389.7z"/>
			</g>
		</g>
	</g>
</g>
</svg>
