<?xml version="1.0" encoding="UTF-8" standalone="no"?>
<svg width="66px" height="76px" viewBox="0 0 66 76" version="1.1" xmlns="http://www.w3.org/2000/svg" xmlns:xlink="http://www.w3.org/1999/xlink">
    <!-- Generator: Sketch 3.6.1 (26313) - http://www.bohemiancoding.com/sketch -->
    <title>Security of Platform</title>
    <desc>Created with Sketch.</desc>
    <defs></defs>
    <g id="WeddingCake" stroke="none" stroke-width="1" fill="none" fill-rule="evenodd">
        <g id="Documentation-Copy-2" transform="translate(-833.000000, -732.000000)" stroke-width="1.5" stroke="#5596E6">
            <g id="Security-of-Platform" transform="translate(834.000000, 733.000000)">
                <g id="Group">
                    <g id="Layer_1">
                        <path d="M32.4,0.3 L32.4,73.9 C54.5,73.9 64.1,53.5 64.1,44.2 L64.1,0.3 L32.4,0.3 L32.4,0.3 L32.4,0.3 L32.4,0.3 L0.6,0.3 L0.6,44.2 C0.6,53.4 10.3,73.9 32.3,73.9" id="Shape"></path>
                        <path d="M32.4,66.3 L52.6,66.3" id="Shape"></path>
                        <path d="M32.4,0.3 L64.1,0.3" id="Shape"></path>
                        <path d="M32.4,8.5 L64.1,8.5" id="Shape"></path>
                        <path d="M32.4,16.8 L64.1,16.8" id="Shape"></path>
                        <path d="M32.4,25 L64.1,25" id="Shape"></path>
                        <path d="M32.4,33.3 L64.1,33.3" id="Shape"></path>
                        <path d="M32.4,41.5 L64.1,41.5" id="Shape"></path>
                        <path d="M32.4,49.8 L63.4999985,49.8" id="Shape"></path>
                        <path d="M32.4,58 L59.5046124,58" id="Shape"></path>
                    </g>
                </g>
            </g>
        </g>
    </g>
</svg>
