<?xml version="1.0" encoding="UTF-8" standalone="no"?>
<!-- Generator: Adobe Illustrator 18.1.1, SVG Export Plug-In . SVG Version: 6.00 Build 0)  -->

<svg
   xmlns:dc="http://purl.org/dc/elements/1.1/"
   xmlns:cc="http://creativecommons.org/ns#"
   xmlns:rdf="http://www.w3.org/1999/02/22-rdf-syntax-ns#"
   xmlns:svg="http://www.w3.org/2000/svg"
   xmlns="http://www.w3.org/2000/svg"
   xmlns:xlink="http://www.w3.org/1999/xlink"
   xmlns:sodipodi="http://sodipodi.sourceforge.net/DTD/sodipodi-0.dtd"
   xmlns:inkscape="http://www.inkscape.org/namespaces/inkscape"
   version="1.1"
   id="Layer_1"
   x="0px"
   y="0px"
   viewBox="0 0 557 502.7"
   enable-background="new 0 0 557 502.7"
   xml:space="preserve"
   inkscape:version="0.48.5 r"
   width="100%"
   height="100%"
   sodipodi:docname="incidentresponseprocess.svg"><metadata
     id="metadata517"><rdf:RDF><cc:Work
         rdf:about=""><dc:format>image/svg+xml</dc:format><dc:type
           rdf:resource="http://purl.org/dc/dcmitype/StillImage" /></cc:Work></rdf:RDF></metadata><defs
     id="defs515" /><sodipodi:namedview
     pagecolor="#ffffff"
     bordercolor="#666666"
     borderopacity="1"
     objecttolerance="10"
     gridtolerance="10"
     guidetolerance="10"
     inkscape:pageopacity="0"
     inkscape:pageshadow="2"
     inkscape:window-width="1680"
     inkscape:window-height="987"
     id="namedview513"
     showgrid="false"
     inkscape:zoom="3.7557191"
     inkscape:cx="383.8311"
     inkscape:cy="14.99317"
     inkscape:window-x="-4"
     inkscape:window-y="-4"
     inkscape:window-maximized="1"
     inkscape:current-layer="Layer_1" /><g
     id="g3"><defs
       id="defs5"><path
         id="SVGID_1_"
         d="M302.5,33.2c1.7,0,3.1,1.4,3.1,3.1c0,1.7-1.4,3.1-3.1,3.1c-1.7,0-3.1-1.4-3.1-3.1    C299.4,34.6,300.8,33.2,302.5,33.2z M309.7,60.2h-47.7V45.7h47.7V60.2z M309.7,76.8h-47.7V62.2h47.7V76.8z M260,27v16.6v2.1v14.5    v2.1v16.6h51.8V62.2v-2.1V45.7v-2.1V27H260z" /></defs><clipPath
       id="SVGID_2_"><use
         xlink:href="#SVGID_1_"
         overflow="visible"
         id="use9" /></clipPath><g
       clip-path="url(#SVGID_2_)"
       id="g11"><defs
         id="defs13"><rect
           id="SVGID_3_"
           x="1"
           width="556"
           height="504" /></defs><clipPath
         id="SVGID_4_"><use
           xlink:href="#SVGID_3_"
           overflow="visible"
           id="use17" /></clipPath><rect
         x="255"
         y="22"
         clip-path="url(#SVGID_4_)"
         fill="#4B4A4B"
         width="61.8"
         height="61.8"
         id="rect19" /></g></g><g
     id="g21"><defs
       id="defs23"><circle
         id="SVGID_5_"
         cx="302.5"
         cy="52.9"
         r="3.1" /></defs><clipPath
       id="SVGID_6_"><use
         xlink:href="#SVGID_5_"
         overflow="visible"
         id="use27" /></clipPath><g
       clip-path="url(#SVGID_6_)"
       id="g29"><defs
         id="defs31"><rect
           id="SVGID_7_"
           x="1"
           width="556"
           height="504" /></defs><clipPath
         id="SVGID_8_"><use
           xlink:href="#SVGID_7_"
           overflow="visible"
           id="use35" /></clipPath><rect
         x="294.4"
         y="44.8"
         clip-path="url(#SVGID_8_)"
         fill="#4B4A4B"
         width="16.2"
         height="16.2"
         id="rect37" /></g></g><g
     id="g39"><defs
       id="defs41"><circle
         id="SVGID_9_"
         cx="302.5"
         cy="69.5"
         r="3.1" /></defs><clipPath
       id="SVGID_10_"><use
         xlink:href="#SVGID_9_"
         overflow="visible"
         id="use45" /></clipPath><g
       clip-path="url(#SVGID_10_)"
       id="g47"><defs
         id="defs49"><rect
           id="SVGID_11_"
           x="1"
           width="556"
           height="504" /></defs><clipPath
         id="SVGID_12_"><use
           xlink:href="#SVGID_11_"
           overflow="visible"
           id="use53" /></clipPath><rect
         x="294.4"
         y="61.4"
         clip-path="url(#SVGID_12_)"
         fill="#4B4A4B"
         width="16.2"
         height="16.2"
         id="rect55" /></g></g><g
     id="g57"><defs
       id="defs59"><path
         id="SVGID_13_"
         d="M285.9,65.6l12.5,21.8h-25.1L285.9,65.6z M285.9,63.7l-14.2,24.6h28.4L285.9,63.7z" /></defs><clipPath
       id="SVGID_14_"><use
         xlink:href="#SVGID_13_"
         overflow="visible"
         id="use63" /></clipPath><g
       clip-path="url(#SVGID_14_)"
       id="g65"><defs
         id="defs67"><rect
           id="SVGID_15_"
           x="1"
           width="556"
           height="504" /></defs><clipPath
         id="SVGID_16_"><use
           xlink:href="#SVGID_15_"
           overflow="visible"
           id="use71" /></clipPath><rect
         x="266.7"
         y="58.7"
         clip-path="url(#SVGID_16_)"
         fill="#4B4A4B"
         width="38.4"
         height="34.6"
         id="rect73" /></g></g><g
     id="g75"><defs
       id="defs77"><path
         id="SVGID_17_"
         d="M285.9,65.6l12.5,21.8h-25.1L285.9,65.6z M285.9,63.7l-14.2,24.6h28.4L285.9,63.7z" /></defs><clipPath
       id="SVGID_18_"><use
         xlink:href="#SVGID_17_"
         overflow="visible"
         id="use81" /></clipPath><g
       clip-path="url(#SVGID_18_)"
       id="g83"><defs
         id="defs85"><rect
           id="SVGID_19_"
           x="1"
           width="556"
           height="504" /></defs><clipPath
         id="SVGID_20_"><use
           xlink:href="#SVGID_19_"
           overflow="visible"
           id="use89" /></clipPath><rect
         x="266.7"
         y="58.7"
         clip-path="url(#SVGID_20_)"
         fill="#4B4A4B"
         width="38.4"
         height="34.6"
         id="rect91" /></g></g><g
     id="g93"><defs
       id="defs95"><polygon
         id="SVGID_21_"
         points="285,74.1 285,76 285.4,80.7 286.4,80.7 286.8,76 286.8,74.1   " /></defs><clipPath
       id="SVGID_22_"><use
         xlink:href="#SVGID_21_"
         overflow="visible"
         id="use99" /></clipPath><g
       clip-path="url(#SVGID_22_)"
       id="g101"><defs
         id="defs103"><rect
           id="SVGID_23_"
           x="1"
           width="556"
           height="504" /></defs><clipPath
         id="SVGID_24_"><use
           xlink:href="#SVGID_23_"
           overflow="visible"
           id="use107" /></clipPath><rect
         x="280"
         y="69.1"
         clip-path="url(#SVGID_24_)"
         fill="#4B4A4B"
         width="11.9"
         height="16.6"
         id="rect109" /></g></g><g
     id="g111"><defs
       id="defs113"><circle
         id="SVGID_25_"
         cx="285.9"
         cy="82.6"
         r="0.9" /></defs><clipPath
       id="SVGID_26_"><use
         xlink:href="#SVGID_25_"
         overflow="visible"
         id="use117" /></clipPath><g
       clip-path="url(#SVGID_26_)"
       id="g119"><defs
         id="defs121"><rect
           id="SVGID_27_"
           x="1"
           width="556"
           height="504" /></defs><clipPath
         id="SVGID_28_"><use
           xlink:href="#SVGID_27_"
           overflow="visible"
           id="use125" /></clipPath><rect
         x="280"
         y="76.7"
         clip-path="url(#SVGID_28_)"
         fill="#4B4A4B"
         width="11.9"
         height="11.9"
         id="rect127" /></g></g><g
     id="g129"><defs
       id="defs131"><polygon
         id="SVGID_29_"
         points="285.9,65.6 298.4,87.3 273.4,87.3   " /></defs><clipPath
       id="SVGID_30_"><use
         xlink:href="#SVGID_29_"
         overflow="visible"
         id="use135" /></clipPath><g
       clip-path="url(#SVGID_30_)"
       id="g137"><defs
         id="defs139"><rect
           id="SVGID_31_"
           x="1"
           width="556"
           height="504" /></defs><clipPath
         id="SVGID_32_"><use
           xlink:href="#SVGID_31_"
           overflow="visible"
           id="use143" /></clipPath><rect
         x="268.4"
         y="60.6"
         clip-path="url(#SVGID_32_)"
         fill="#FFFFFF"
         width="35.1"
         height="31.8"
         id="rect145" /></g></g><g
     id="g147"><defs
       id="defs149"><polygon
         id="SVGID_33_"
         points="285,74.1 285,76 285.4,80.7 286.4,80.7 286.8,76 286.8,74.1   " /></defs><clipPath
       id="SVGID_34_"><use
         xlink:href="#SVGID_33_"
         overflow="visible"
         id="use153" /></clipPath><g
       clip-path="url(#SVGID_34_)"
       id="g155"><defs
         id="defs157"><rect
           id="SVGID_35_"
           x="1"
           width="556"
           height="504" /></defs><clipPath
         id="SVGID_36_"><use
           xlink:href="#SVGID_35_"
           overflow="visible"
           id="use161" /></clipPath><rect
         x="280"
         y="69.1"
         clip-path="url(#SVGID_36_)"
         fill="#4B4A4B"
         width="11.9"
         height="16.6"
         id="rect163" /></g></g><g
     id="g165"><defs
       id="defs167"><circle
         id="SVGID_37_"
         cx="285.9"
         cy="82.6"
         r="0.9" /></defs><clipPath
       id="SVGID_38_"><use
         xlink:href="#SVGID_37_"
         overflow="visible"
         id="use171" /></clipPath><g
       clip-path="url(#SVGID_38_)"
       id="g173"><defs
         id="defs175"><rect
           id="SVGID_39_"
           x="1"
           width="556"
           height="504" /></defs><clipPath
         id="SVGID_40_"><use
           xlink:href="#SVGID_39_"
           overflow="visible"
           id="use179" /></clipPath><rect
         x="280"
         y="76.7"
         clip-path="url(#SVGID_40_)"
         fill="#4B4A4B"
         width="11.9"
         height="11.9"
         id="rect181" /></g></g><g
     id="g183"><defs
       id="defs185"><polygon
         id="SVGID_41_"
         points="121.7,213.7 102.3,247.3 63.4,247.3 44,213.7 63.4,180 102.3,180   " /></defs><clipPath
       id="SVGID_42_"><use
         xlink:href="#SVGID_41_"
         overflow="visible"
         id="use189" /></clipPath><g
       clip-path="url(#SVGID_42_)"
       id="g191"><defs
         id="defs193"><rect
           id="SVGID_43_"
           x="1"
           width="556"
           height="504" /></defs><clipPath
         id="SVGID_44_"><use
           xlink:href="#SVGID_43_"
           overflow="visible"
           id="use197" /></clipPath><rect
         x="39"
         y="175"
         clip-path="url(#SVGID_44_)"
         fill="#FFFFFF"
         width="87.7"
         height="77.3"
         id="rect199" /></g></g><g
     id="g201"><polygon
       fill="none"
       stroke="#4B4A4B"
       stroke-width="2"
       stroke-miterlimit="10"
       points="121.7,213.7 102.3,247.3 63.4,247.3    44,213.7 63.4,180 102.3,180  "
       id="polygon203" /></g><g
     id="g205"><defs
       id="defs207"><polygon
         id="SVGID_45_"
         points="508.3,247.3 469.4,247.3 450,213.7 469.4,180 508.3,180 527.7,213.7   " /></defs><clipPath
       id="SVGID_46_"><use
         xlink:href="#SVGID_45_"
         overflow="visible"
         id="use211" /></clipPath><g
       clip-path="url(#SVGID_46_)"
       id="g213"><defs
         id="defs215"><rect
           id="SVGID_47_"
           x="1"
           width="556"
           height="504" /></defs><clipPath
         id="SVGID_48_"><use
           xlink:href="#SVGID_47_"
           overflow="visible"
           id="use219" /></clipPath><rect
         x="445"
         y="175"
         clip-path="url(#SVGID_48_)"
         fill="#FFFFFF"
         width="87.7"
         height="77.3"
         id="rect221" /></g></g><polygon
     fill="none"
     stroke="#4B4A4B"
     stroke-width="2"
     stroke-miterlimit="10"
     points="508.3,247.3 469.4,247.3 450,213.7   469.4,180 508.3,180 527.7,213.7 "
     id="polygon223" /><polygon
     fill="none"
     stroke="#4B4A4B"
     stroke-width="3"
     stroke-miterlimit="10"
     points="337.6,55.9 311.7,100.8 259.9,100.8   234,55.9 259.9,11 311.7,11 "
     id="polygon225" /><g
     id="g227"><defs
       id="defs229"><path
         id="SVGID_49_"
         d="M98,222.6l-28.7-8.2v-2.8l28.7-8.2V222.6z M79.3,219.7c0,0.6-0.5,1.1-1.1,1.1h-4.4c-0.6,0-1.1-0.5-1.1-1.1    v-3.2l6.6,1.9V219.7z M69.3,210.5v-0.8h-1.1v-1.1H66v8.8h2.2v-1.1h1.1v-0.8l2.2,0.6v3.5c0,1.2,1,2.2,2.2,2.2h4.4    c1.2,0,2.2-1,2.2-2.2v-0.9l18.8,5.4V202L69.3,210.5z" /></defs><clipPath
       id="SVGID_50_"><use
         xlink:href="#SVGID_49_"
         overflow="visible"
         id="use233" /></clipPath><g
       clip-path="url(#SVGID_50_)"
       id="g235"><defs
         id="defs237"><rect
           id="SVGID_51_"
           x="1"
           width="556"
           height="504" /></defs><clipPath
         id="SVGID_52_"><use
           xlink:href="#SVGID_51_"
           overflow="visible"
           id="use241" /></clipPath><rect
         x="61"
         y="197"
         clip-path="url(#SVGID_52_)"
         fill="#4B4A4B"
         width="43.2"
         height="32.1"
         id="rect243" /></g></g><g
     id="g245"><defs
       id="defs247"><path
         id="SVGID_53_"
         d="M488.7,228.7c-8.3,0-15-6.8-15-15c0-8.3,6.8-15,15-15c8.3,0,15,6.7,15,15    C503.7,222,496.9,228.7,488.7,228.7z M488.6,197c-9.2,0-16.6,7.4-16.6,16.6c0,9.2,7.4,16.6,16.6,16.6c9.2,0,16.6-7.4,16.6-16.6    C505.2,204.4,497.7,197,488.6,197z M486.9,208.6l0.8,8.3h1.7l0.8-8.3v-3.3h-3.3V208.6z M488.6,218.5c-0.9,0-1.7,0.7-1.7,1.7    c0,0.9,0.7,1.7,1.7,1.7c0.9,0,1.7-0.7,1.7-1.7C490.2,219.3,489.5,218.5,488.6,218.5z" /></defs><clipPath
       id="SVGID_54_"><use
         xlink:href="#SVGID_53_"
         overflow="visible"
         id="use251" /></clipPath><g
       clip-path="url(#SVGID_54_)"
       id="g253"><defs
         id="defs255"><rect
           id="SVGID_55_"
           x="1"
           width="556"
           height="504" /></defs><clipPath
         id="SVGID_56_"><use
           xlink:href="#SVGID_55_"
           overflow="visible"
           id="use259" /></clipPath><rect
         x="467"
         y="192"
         clip-path="url(#SVGID_56_)"
         fill="#4B4A4B"
         width="43.2"
         height="43.2"
         id="rect261" /></g></g><ellipse
     fill="none"
     stroke="#355D7F"
     stroke-width="2"
     stroke-miterlimit="10"
     cx="284.4"
     cy="423.4"
     rx="54.4"
     ry="54.4"
     id="ellipse263" /><g
     id="g265"><defs
       id="defs267"><polygon
         id="SVGID_57_"
         points="284.7,424.7 265.3,458.3 226.4,458.3 207,424.7 226.4,391 265.3,391   " /></defs><clipPath
       id="SVGID_58_"><use
         xlink:href="#SVGID_57_"
         overflow="visible"
         id="use271" /></clipPath><g
       clip-path="url(#SVGID_58_)"
       id="g273"><defs
         id="defs275"><rect
           id="SVGID_59_"
           x="1"
           width="556"
           height="504" /></defs><clipPath
         id="SVGID_60_"><use
           xlink:href="#SVGID_59_"
           overflow="visible"
           id="use279" /></clipPath><rect
         x="202"
         y="386"
         clip-path="url(#SVGID_60_)"
         fill="#FFFFFF"
         width="87.7"
         height="77.3"
         id="rect281" /></g></g><g
     id="g283"><polygon
       fill="none"
       stroke="#4B4A4B"
       stroke-width="2"
       stroke-miterlimit="10"
       points="284.7,424.7 265.3,458.3 226.4,458.3    207,424.7 226.4,391 265.3,391  "
       id="polygon285" /></g><g
     id="g287"><defs
       id="defs289"><polygon
         id="SVGID_61_"
         points="363.7,424.7 344.3,458.3 305.4,458.3 286,424.7 305.4,391 344.3,391   " /></defs><clipPath
       id="SVGID_62_"><use
         xlink:href="#SVGID_61_"
         overflow="visible"
         id="use293" /></clipPath><g
       clip-path="url(#SVGID_62_)"
       id="g295"><defs
         id="defs297"><rect
           id="SVGID_63_"
           x="1"
           width="556"
           height="504" /></defs><clipPath
         id="SVGID_64_"><use
           xlink:href="#SVGID_63_"
           overflow="visible"
           id="use301" /></clipPath><rect
         x="281"
         y="386"
         clip-path="url(#SVGID_64_)"
         fill="#FFFFFF"
         width="87.7"
         height="77.3"
         id="rect303" /></g></g><polygon
     fill="none"
     stroke="#4B4A4B"
     stroke-width="2"
     stroke-miterlimit="10"
     points="363.7,424.7 344.3,458.3 305.4,458.3   286,424.7 305.4,391 344.3,391 "
     id="polygon305" /><g
     id="g307"><defs
       id="defs309"><path
         id="SVGID_65_"
         d="M253.4,416.8c0.5-1.2,0.8-2.4,0.8-3.8c0-1.3-0.3-2.6-0.8-3.8l4.2-4.2c1.5,2.3,2.3,5,2.3,8    c0,2.9-0.9,5.7-2.3,8L253.4,416.8z M252.5,416c-0.8,2.1-2.5,3.8-4.6,4.6c-0.9,0.4-1.9,0.6-2.9,0.6c-1,0-2-0.2-2.9-0.6    c-2.1-0.8-3.8-2.5-4.6-4.6c-0.3-0.9-0.5-1.9-0.5-2.9c0-1,0.2-2,0.5-2.9c0.8-2.1,2.5-3.8,4.6-4.6c0.9-0.4,1.9-0.5,2.9-0.5    c1,0,2,0.2,2.9,0.5c2.1,0.8,3.8,2.5,4.6,4.6c0.3,0.9,0.5,1.9,0.5,2.9C253.1,414.1,252.9,415.1,252.5,416z M245.1,428    c-2.9,0-5.7-0.9-8-2.3l4.2-4.2c1.2,0.5,2.4,0.8,3.8,0.8c1.3,0,2.6-0.3,3.8-0.8l4.2,4.2C250.7,427.1,248,428,245.1,428z     M236.7,416.8l-4.2,4.2c-1.5-2.3-2.3-5-2.3-8c0-2.9,0.9-5.7,2.3-8l4.2,4.2c-0.5,1.2-0.8,2.4-0.8,3.8    C235.9,414.4,236.2,415.7,236.7,416.8z M245.1,398.1c2.9,0,5.7,0.9,8,2.3l-4.2,4.2c-1.2-0.5-2.4-0.8-3.8-0.8    c-1.3,0-2.6,0.3-3.8,0.8l-4.2-4.2C239.4,399,242.1,398.1,245.1,398.1z M245.1,397c-8.9,0-16.1,7.2-16.1,16.1s7.2,16.1,16.1,16.1    c8.9,0,16.1-7.2,16.1-16.1S253.9,397,245.1,397z" /></defs><clipPath
       id="SVGID_66_"><use
         xlink:href="#SVGID_65_"
         overflow="visible"
         id="use313" /></clipPath><g
       clip-path="url(#SVGID_66_)"
       id="g315"><defs
         id="defs317"><rect
           id="SVGID_67_"
           x="1"
           width="556"
           height="504" /></defs><clipPath
         id="SVGID_68_"><use
           xlink:href="#SVGID_67_"
           overflow="visible"
           id="use321" /></clipPath><rect
         x="224"
         y="392"
         clip-path="url(#SVGID_68_)"
         fill="#4B4A4B"
         width="42.1"
         height="42.1"
         id="rect323" /></g></g><g
     id="g325"><defs
       id="defs327"><rect
         id="SVGID_69_"
         x="309"
         y="398.1"
         width="31"
         height="30.3" /></defs><clipPath
       id="SVGID_70_"><use
         xlink:href="#SVGID_69_"
         overflow="visible"
         id="use331" /></clipPath><g
       clip-path="url(#SVGID_70_)"
       id="g333"><defs
         id="defs335"><rect
           id="SVGID_71_"
           x="1"
           width="556"
           height="504" /></defs><clipPath
         id="SVGID_72_"><use
           xlink:href="#SVGID_71_"
           overflow="visible"
           id="use339" /></clipPath><g
         clip-path="url(#SVGID_72_)"
         enable-background="new    "
         id="g341"><g
           id="g343"><defs
             id="defs345"><rect
               id="SVGID_73_"
               x="309"
               y="397.5"
               width="31"
               height="31" /></defs><clipPath
             id="SVGID_74_"><use
               xlink:href="#SVGID_73_"
               overflow="visible"
               id="use349" /></clipPath><g
             clip-path="url(#SVGID_74_)"
             id="g351"><defs
               id="defs353"><path
                 id="SVGID_75_"
                 d="M326.6,428.4h8.6c0.2,0,0.3-0.1,0.4-0.2l4.3-7.3c0-0.1,0.1-0.1,0.1-0.2s0-0.2-0.1-0.2l-4.2-7.1        l4.2-7.1c0-0.1,0.1-0.1,0.1-0.2c0-0.1,0-0.2-0.1-0.2l-4.3-7.3c-0.1-0.1-0.2-0.2-0.4-0.2h-8.6c-0.2,0-0.3,0.1-0.4,0.2l-4.2,7.1        h-8.3c-0.2,0-0.3,0.1-0.4,0.2l-4.3,7.3c-0.1,0.1-0.1,0.3,0,0.5l4.3,7.3c0.1,0.1,0.2,0.2,0.4,0.2h8.3l4.2,7.1        C326.3,428.3,326.5,428.4,326.6,428.4z M334.4,412.8h-7.5l-0.1-0.2l-3.6-6.2h7.5L334.4,412.8z M322.3,419.7l-3.8-6.5l3.8-6.5        l3.8,6.5L322.3,419.7z M334.4,413.7l-3.8,6.4h-7.5l3.6-6.2l0.1-0.2H334.4z M314,406.4h7.5l-3.9,6.7c-0.1,0.1-0.1,0.3,0,0.5        l3.9,6.7H314l-4-6.9L314,406.4z M335.2,412.4l-3.9-6.7c-0.1-0.1-0.2-0.2-0.4-0.2h-7.8l3.8-6.4h8.1l4,6.9L335.2,412.4z         M326.9,427.5l-3.8-6.4h7.8c0.2,0,0.3-0.1,0.4-0.2l3.9-6.7l3.8,6.5l-4,6.9H326.9z" /></defs><clipPath
               id="SVGID_76_"><use
                 xlink:href="#SVGID_75_"
                 overflow="visible"
                 id="use357" /></clipPath><g
               clip-path="url(#SVGID_76_)"
               id="g359"><defs
                 id="defs361"><rect
                   id="SVGID_77_"
                   x="309"
                   y="397.5"
                   width="31"
                   height="31" /></defs><clipPath
                 id="SVGID_78_"><use
                   xlink:href="#SVGID_77_"
                   overflow="visible"
                   id="use365" /></clipPath><rect
                 x="304"
                 y="393.1"
                 clip-path="url(#SVGID_78_)"
                 fill="#4B4A4B"
                 width="41"
                 height="40.3"
                 id="rect367" /></g></g></g></g></g></g><g
     id="g369"><path
       fill="none"
       stroke="#355D7F"
       stroke-width="5"
       stroke-miterlimit="10"
       stroke-dasharray="5,5,5,5"
       d="M491.5,307   c0,64.2-48.4,118.2-110.5,118.2"
       id="path371" /></g><g
     id="g373"><defs
       id="defs375"><polygon
         id="SVGID_79_"
         points="379.4,419.9 380.2,420.7 376.6,424.4 376.6,425.6 380.2,429.2 379.4,430.1 374.4,425   " /></defs><clipPath
       id="SVGID_80_"><use
         xlink:href="#SVGID_79_"
         overflow="visible"
         id="use379" /></clipPath><g
       clip-path="url(#SVGID_80_)"
       id="g381"><defs
         id="defs383"><rect
           id="SVGID_81_"
           x="1"
           width="556"
           height="504" /></defs><clipPath
         id="SVGID_82_"><use
           xlink:href="#SVGID_81_"
           overflow="visible"
           id="use387" /></clipPath><rect
         x="369.4"
         y="414.9"
         clip-path="url(#SVGID_82_)"
         fill="#355D7F"
         width="15.7"
         height="20.2"
         id="rect389" /></g></g><g
     id="g391"><polygon
       fill="none"
       stroke="#355D7F"
       stroke-width="3"
       stroke-miterlimit="10"
       points="379.4,419.9 380.2,420.7 376.6,424.4    376.6,425.6 380.2,429.2 379.4,430.1 374.4,425  "
       id="polygon393" /><path
       fill="none"
       stroke="#355D7F"
       stroke-width="5"
       stroke-miterlimit="10"
       stroke-dasharray="5,5,5,5"
       d="M81.5,165   c0-62.1,50.4-112.4,112.5-112.4"
       id="path395" /></g><g
     id="g397"><defs
       id="defs399"><polygon
         id="SVGID_83_"
         points="197.6,57.7 196.8,56.9 200.4,53.4 200.4,52.3 196.8,48.7 197.6,47.9 202.6,52.8   " /></defs><clipPath
       id="SVGID_84_"><use
         xlink:href="#SVGID_83_"
         overflow="visible"
         id="use403" /></clipPath><g
       clip-path="url(#SVGID_84_)"
       id="g405"><defs
         id="defs407"><rect
           id="SVGID_85_"
           x="1"
           width="556"
           height="504" /></defs><clipPath
         id="SVGID_86_"><use
           xlink:href="#SVGID_85_"
           overflow="visible"
           id="use411" /></clipPath><rect
         x="191.8"
         y="42.9"
         clip-path="url(#SVGID_86_)"
         fill="#355D7F"
         width="15.7"
         height="19.8"
         id="rect413" /></g></g><g
     id="g415"><polygon
       fill="none"
       stroke="#355D7F"
       stroke-width="3"
       stroke-miterlimit="10"
       points="197.6,57.7 196.8,56.9 200.4,53.4    200.4,52.3 196.8,48.7 197.6,47.9 202.6,52.8  "
       id="polygon417" /><path
       fill="none"
       stroke="#355D7F"
       stroke-width="5"
       stroke-miterlimit="10"
       stroke-dasharray="5,5,5,5"
       d="M372,48.5   c62.1,0,117.4,47.7,117.4,107.8"
       id="path419" /></g><g
     id="g421"><defs
       id="defs423"><polygon
         id="SVGID_87_"
         points="484.3,163.8 485.1,163 488.6,166.5 489.7,166.5 493.3,163 494.1,163.8 489.2,168.6   " /></defs><clipPath
       id="SVGID_88_"><use
         xlink:href="#SVGID_87_"
         overflow="visible"
         id="use427" /></clipPath><g
       clip-path="url(#SVGID_88_)"
       id="g429"><defs
         id="defs431"><rect
           id="SVGID_89_"
           x="1"
           width="556"
           height="504" /></defs><clipPath
         id="SVGID_90_"><use
           xlink:href="#SVGID_89_"
           overflow="visible"
           id="use435" /></clipPath><rect
         x="479.3"
         y="158"
         clip-path="url(#SVGID_90_)"
         fill="#355D7F"
         width="19.8"
         height="15.5"
         id="rect437" /></g></g><g
     id="g439"><polygon
       fill="none"
       stroke="#355D7F"
       stroke-width="3"
       stroke-miterlimit="10"
       points="484.3,163.8 485.1,163 488.6,166.5    489.7,166.5 493.3,163 494.1,163.8 489.2,168.6  "
       id="polygon441" /><path
       fill="none"
       stroke="#355D7F"
       stroke-width="5"
       stroke-miterlimit="10"
       stroke-dasharray="5,5,5,5"
       d="M199,425.5   c-62.1,0-112.4-50.4-112.4-112.5"
       id="path443" /></g><g
     id="g445"><defs
       id="defs447"><polygon
         id="SVGID_91_"
         points="91.7,309.4 90.9,310.2 87.4,306.6 86.3,306.6 82.7,310.2 81.9,309.4 86.8,304.4   " /></defs><clipPath
       id="SVGID_92_"><use
         xlink:href="#SVGID_91_"
         overflow="visible"
         id="use451" /></clipPath><g
       clip-path="url(#SVGID_92_)"
       id="g453"><defs
         id="defs455"><rect
           id="SVGID_93_"
           x="1"
           width="556"
           height="504" /></defs><clipPath
         id="SVGID_94_"><use
           xlink:href="#SVGID_93_"
           overflow="visible"
           id="use459" /></clipPath><rect
         x="76.9"
         y="299.4"
         clip-path="url(#SVGID_94_)"
         fill="#355D7F"
         width="19.8"
         height="15.7"
         id="rect461" /></g></g><g
     id="g463"><polygon
       fill="none"
       stroke="#355D7F"
       stroke-width="3"
       stroke-miterlimit="10"
       points="91.7,309.4 90.9,310.2 87.4,306.6    86.3,306.6 82.7,310.2 81.9,309.4 86.8,304.4  "
       id="polygon465" /></g><text
     transform="matrix(1 0 0 1 202 124.2446)"
     id="text467"><tspan
       x="0"
       y="0"
       font-family="'MS-Gothic'"
       font-size="12"
       id="tspan469">お客様の環境でインシデントが</tspan><tspan
       x="54"
       y="14.4"
       font-family="'MS-Gothic'"
       font-size="12"
       id="tspan471">検出される</tspan></text>
<text
     transform="matrix(1 0 0 1 17.9324 274.0001)"
     id="text473"><tspan
       x="0"
       y="0"
       font-family="'ArialMT'"
       font-size="12"
       id="tspan475">Bluemix </tspan><tspan
       x="46"
       y="0"
       font-family="'MS-Gothic'"
       font-size="12"
       id="tspan477">が状況ページに</tspan><tspan
       x="23"
       y="14.4"
       font-family="'MS-Gothic'"
       font-size="12"
       id="tspan479">通知を送信する</tspan></text>
<text
     transform="matrix(1 0 0 1 428.4705 272.1436)"
     id="text481"><tspan
       x="0"
       y="0"
       font-family="'MS-Gothic'"
       font-size="12"
       id="tspan483">アラートが</tspan><tspan
       x="60"
       y="0"
       font-family="'ArialMT'"
       font-size="12"
       id="tspan485"> Bluemix </tspan><tspan
       x="109.3"
       y="0"
       font-family="'MS-Gothic'"
       font-size="12"
       id="tspan487">に</tspan><tspan
       x="30.7"
       y="14.4"
       font-family="'MS-Gothic'"
       font-size="12"
       id="tspan489">送信される</tspan></text>
<text
     transform="matrix(1 0 0 1 226.9433 440.1124)"
     id="text497"><tspan
       x="0"
       y="0"
       font-family="'Arial-BoldMT'"
       font-size="9"
       id="tspan499">Bluemix </tspan><tspan
       x="0.8"
       y="10.8"
       font-family="'MS-Gothic'"
       font-size="9"
       id="tspan501">サポート</tspan></text>
<text
     xml:space="preserve"
     style="font-size:13.75px;font-style:normal;font-variant:normal;font-weight:normal;font-stretch:normal;text-align:center;line-height:125%;letter-spacing:0px;word-spacing:0px;writing-mode:lr-tb;text-anchor:middle;fill:#000000;fill-opacity:1;stroke:none;font-family:MS UI Gothic;-inkscape-font-specification:MS UI Gothic"
     x="287.7085"
     y="493.66284"
     id="text5846"
     sodipodi:linespacing="125%"><tspan
       sodipodi:role="line"
       id="tspan5848"
       x="287.7085"
       y="493.66284"
       style="font-size:12px">年中無休の<tspan
   style="font-style:normal;font-variant:normal;font-weight:normal;font-stretch:normal;font-family:Arial;-inkscape-font-specification:Arial"
   id="tspan5927"> Bluemix </tspan>コラボレーション</tspan></text>
<text
     xml:space="preserve"
     style="font-size:13.75px;font-style:normal;font-variant:normal;font-weight:normal;font-stretch:normal;text-align:center;line-height:125%;letter-spacing:0px;word-spacing:0px;writing-mode:lr-tb;text-anchor:middle;fill:#000000;fill-opacity:1;stroke:none;font-family:MS UI Gothic;-inkscape-font-specification:MS UI Gothic"
     x="-141.58255"
     y="212.00391"
     id="text5858"
     sodipodi:linespacing="125%"
     transform="translate(0,-6.1035156e-6)"><tspan
       sodipodi:role="line"
       id="tspan5860" /></text>
<text
     xml:space="preserve"
     style="font-size:13.75px;font-style:normal;font-variant:normal;font-weight:normal;font-stretch:normal;text-align:center;line-height:125%;letter-spacing:0px;word-spacing:0px;writing-mode:lr-tb;text-anchor:middle;fill:#000000;fill-opacity:1;stroke:none;font-family:MS UI Gothic;-inkscape-font-specification:MS UI Gothic"
     x="325.37045"
     y="437.19989"
     id="text5638"
     sodipodi:linespacing="125%"><tspan
       sodipodi:role="line"
       id="tspan5640"
       x="325.37045"
       y="437.19989"
       style="font-size:9px;font-style:normal;font-variant:normal;font-weight:normal;font-stretch:normal;font-family:Arial;-inkscape-font-specification:Arial">Bluemix</tspan><tspan
       sodipodi:role="line"
       x="325.37045"
       y="450.59769"
       id="tspan5642"
       style="font-size:9px">オペレーション</tspan></text>
</svg>
