<?xml version="1.0" encoding="utf-8"?>
<!-- Generator: Adobe Illustrator 18.1.1, SVG Export Plug-In . SVG Version: 6.00 Build 0)  -->
<svg version="1.1" id="Layer_1" xmlns="http://www.w3.org/2000/svg" xmlns:xlink="http://www.w3.org/1999/xlink" x="0px" y="0px"
	 viewBox="0 0 622.5 268" enable-background="new 0 0 622.5 268" xml:space="preserve">
<g>
	<defs>
		<rect id="SVGID_1_" x="14" width="600" height="268"/>
	</defs>
	<clipPath id="SVGID_2_">
		<use xlink:href="#SVGID_1_"  overflow="visible"/>
	</clipPath>
	
		<line clip-path="url(#SVGID_2_)" fill="none" stroke="#2D3F4A" stroke-width="5" stroke-miterlimit="10" x1="56.8" y1="115.5" x2="558.5" y2="115.5"/>
</g>
<g>
	<defs>
		<ellipse id="SVGID_3_" cx="55.6" cy="117.2" rx="28.6" ry="28.2"/>
	</defs>
	<clipPath id="SVGID_4_">
		<use xlink:href="#SVGID_3_"  overflow="visible"/>
	</clipPath>
	<g clip-path="url(#SVGID_4_)">
		<defs>
			<rect id="SVGID_5_" x="14" width="600" height="268"/>
		</defs>
		<clipPath id="SVGID_6_">
			<use xlink:href="#SVGID_5_"  overflow="visible"/>
		</clipPath>
		<rect x="22" y="84" clip-path="url(#SVGID_6_)" fill="#FFFFFF" width="67.2" height="66.3"/>
	</g>
</g>
<g>
	<defs>
		<ellipse id="SVGID_7_" cx="222.6" cy="117.2" rx="28.6" ry="28.2"/>
	</defs>
	<clipPath id="SVGID_8_">
		<use xlink:href="#SVGID_7_"  overflow="visible"/>
	</clipPath>
	<g clip-path="url(#SVGID_8_)">
		<defs>
			<rect id="SVGID_9_" x="14" width="600" height="268"/>
		</defs>
		<clipPath id="SVGID_10_">
			<use xlink:href="#SVGID_9_"  overflow="visible"/>
		</clipPath>
		<rect x="189" y="84" clip-path="url(#SVGID_10_)" fill="#FFFFFF" width="67.2" height="66.3"/>
	</g>
</g>
<g>
	<defs>
		<ellipse id="SVGID_11_" cx="389.6" cy="117.2" rx="28.6" ry="28.2"/>
	</defs>
	<clipPath id="SVGID_12_">
		<use xlink:href="#SVGID_11_"  overflow="visible"/>
	</clipPath>
	<g clip-path="url(#SVGID_12_)">
		<defs>
			<rect id="SVGID_13_" x="14" width="600" height="268"/>
		</defs>
		<clipPath id="SVGID_14_">
			<use xlink:href="#SVGID_13_"  overflow="visible"/>
		</clipPath>
		<rect x="356" y="84" clip-path="url(#SVGID_14_)" fill="#FFFFFF" width="67.2" height="66.3"/>
	</g>
</g>
<g>
	<defs>
		<ellipse id="SVGID_15_" cx="565.6" cy="117.2" rx="28.6" ry="28.2"/>
	</defs>
	<clipPath id="SVGID_16_">
		<use xlink:href="#SVGID_15_"  overflow="visible"/>
	</clipPath>
	<g clip-path="url(#SVGID_16_)">
		<defs>
			<rect id="SVGID_17_" x="14" width="600" height="268"/>
		</defs>
		<clipPath id="SVGID_18_">
			<use xlink:href="#SVGID_17_"  overflow="visible"/>
		</clipPath>
		<rect x="532" y="84" clip-path="url(#SVGID_18_)" fill="#FFFFFF" width="67.2" height="66.3"/>
	</g>
</g>
<g>
	<defs>
		<ellipse id="SVGID_19_" cx="55.4" cy="117.1" rx="21.4" ry="21.1"/>
	</defs>
	<clipPath id="SVGID_20_">
		<use xlink:href="#SVGID_19_"  overflow="visible"/>
	</clipPath>
	<g clip-path="url(#SVGID_20_)">
		<defs>
			<rect id="SVGID_21_" x="14" width="600" height="268"/>
		</defs>
		<clipPath id="SVGID_22_">
			<use xlink:href="#SVGID_21_"  overflow="visible"/>
		</clipPath>
		<rect x="29" y="91" opacity="0.5" clip-path="url(#SVGID_22_)" fill="#7CB7FA" width="52.9" height="52.2"/>
	</g>
</g>
<g>
	<defs>
		<ellipse id="SVGID_23_" cx="222.4" cy="117.1" rx="21.4" ry="21.1"/>
	</defs>
	<clipPath id="SVGID_24_">
		<use xlink:href="#SVGID_23_"  overflow="visible"/>
	</clipPath>
	<g clip-path="url(#SVGID_24_)">
		<defs>
			<rect id="SVGID_25_" x="14" width="600" height="268"/>
		</defs>
		<clipPath id="SVGID_26_">
			<use xlink:href="#SVGID_25_"  overflow="visible"/>
		</clipPath>
		<rect x="196" y="91" opacity="0.5" clip-path="url(#SVGID_26_)" fill="#7CB7FA" width="52.9" height="52.2"/>
	</g>
</g>
<g>
	<defs>
		<ellipse id="SVGID_27_" cx="389.4" cy="117.1" rx="21.4" ry="21.1"/>
	</defs>
	<clipPath id="SVGID_28_">
		<use xlink:href="#SVGID_27_"  overflow="visible"/>
	</clipPath>
	<g clip-path="url(#SVGID_28_)">
		<defs>
			<rect id="SVGID_29_" x="14" width="600" height="268"/>
		</defs>
		<clipPath id="SVGID_30_">
			<use xlink:href="#SVGID_29_"  overflow="visible"/>
		</clipPath>
		<rect x="363" y="91" opacity="0.5" clip-path="url(#SVGID_30_)" fill="#7CB7FA" width="52.9" height="52.2"/>
	</g>
</g>
<g>
	<defs>
		<ellipse id="SVGID_31_" cx="565.4" cy="117.1" rx="21.4" ry="21.1"/>
	</defs>
	<clipPath id="SVGID_32_">
		<use xlink:href="#SVGID_31_"  overflow="visible"/>
	</clipPath>
	<g clip-path="url(#SVGID_32_)">
		<defs>
			<rect id="SVGID_33_" x="14" width="600" height="268"/>
		</defs>
		<clipPath id="SVGID_34_">
			<use xlink:href="#SVGID_33_"  overflow="visible"/>
		</clipPath>
		<rect x="539" y="91" opacity="0.5" clip-path="url(#SVGID_34_)" fill="#7CB7FA" width="52.9" height="52.2"/>
	</g>
</g>
<text transform="matrix(1 0 0 1 46 128)" fill="#3B505C" font-family="'Arial-BoldMT'" font-size="30">1</text>
<text transform="matrix(1 0 0 1 214 127)" fill="#3B505C" font-family="'Arial-BoldMT'" font-size="30">2</text>
<text transform="matrix(1 0 0 1 381 128)" fill="#3B505C" font-family="'Arial-BoldMT'" font-size="30">3</text>
<text transform="matrix(1 0 0 1 556 128)" fill="#3B505C" font-family="'Arial-BoldMT'" font-size="30">4</text>
<rect y="162.2" fill="none" width="107.6" height="56.3"/>
<text transform="matrix(1 0 0 1 7.629395e-005 172.9885)"><tspan x="0" y="0" fill="#26465B" font-family="'ArialMT'" font-size="14">IBM </tspan><tspan x="28.8" y="0" fill="#26465B" font-family="'MS-Gothic'" font-size="14">がお客様に</tspan><tspan x="0" y="19" fill="#26465B" font-family="'MS-Gothic'" font-size="14">保留中の更新を</tspan><tspan x="0" y="38" fill="#26465B" font-family="'MS-Gothic'" font-size="14">通知する</tspan></text>
<rect x="172.9" y="162.2" fill="none" width="101.1" height="51.3"/>
<text transform="matrix(1 0 0 1 172.9009 172.9885)"><tspan x="0" y="0" fill="#26465B" font-family="'MS-Gothic'" font-size="14">お客様が通知を</tspan><tspan x="0" y="19" fill="#26465B" font-family="'MS-Gothic'" font-size="14">確認する</tspan></text>
<rect x="340.9" y="162.2" fill="none" width="99.6" height="44.8"/>
<text transform="matrix(1 0 0 1 340.9009 172.9885)"><tspan x="0" y="0" fill="#26465B" font-family="'MS-Gothic'" font-size="14">お客様が更新を</tspan><tspan x="0" y="19" fill="#26465B" font-family="'MS-Gothic'" font-size="14">承認する</tspan></text>
<g>
	<defs>
		<path id="SVGID_35_" d="M49.6,47.6h17.3c-1.9-2.5-5-4.2-8.7-4.2C54.6,43.4,51.5,45.1,49.6,47.6z"/>
	</defs>
	<clipPath id="SVGID_36_">
		<use xlink:href="#SVGID_35_"  overflow="visible"/>
	</clipPath>
	<g clip-path="url(#SVGID_36_)">
		<defs>
			<rect id="SVGID_37_" x="14" width="600" height="268"/>
		</defs>
		<clipPath id="SVGID_38_">
			<use xlink:href="#SVGID_37_"  overflow="visible"/>
		</clipPath>
		<rect x="44.6" y="38.4" clip-path="url(#SVGID_38_)" fill="#2D3F4A" width="27.3" height="14.2"/>
	</g>
</g>
<g>
	<defs>
		<path id="SVGID_39_" d="M47.9,51.8c0,0.3-0.1,0.7-0.1,1v3.1h20.8v-3.1c0-0.4,0-0.7-0.1-1H47.9z"/>
	</defs>
	<clipPath id="SVGID_40_">
		<use xlink:href="#SVGID_39_"  overflow="visible"/>
	</clipPath>
	<g clip-path="url(#SVGID_40_)">
		<defs>
			<rect id="SVGID_41_" x="14" width="600" height="268"/>
		</defs>
		<clipPath id="SVGID_42_">
			<use xlink:href="#SVGID_41_"  overflow="visible"/>
		</clipPath>
		<rect x="42.8" y="46.8" clip-path="url(#SVGID_42_)" fill="#2D3F4A" width="30.8" height="14.2"/>
	</g>
</g>
<g>
	<defs>
		<path id="SVGID_43_" d="M47.8,63.2c0,0.4,0,0.7,0.1,1h20.7c0-0.3,0.1-0.7,0.1-1v-3.1H47.8V63.2z"/>
	</defs>
	<clipPath id="SVGID_44_">
		<use xlink:href="#SVGID_43_"  overflow="visible"/>
	</clipPath>
	<g clip-path="url(#SVGID_44_)">
		<defs>
			<rect id="SVGID_45_" x="14" width="600" height="268"/>
		</defs>
		<clipPath id="SVGID_46_">
			<use xlink:href="#SVGID_45_"  overflow="visible"/>
		</clipPath>
		<rect x="42.8" y="55.1" clip-path="url(#SVGID_46_)" fill="#2D3F4A" width="30.8" height="14.2"/>
	</g>
</g>
<g>
	<defs>
		<path id="SVGID_47_" d="M58.3,72.6c3.6,0,6.8-1.7,8.7-4.2H49.6C51.5,70.9,54.6,72.6,58.3,72.6z"/>
	</defs>
	<clipPath id="SVGID_48_">
		<use xlink:href="#SVGID_47_"  overflow="visible"/>
	</clipPath>
	<g clip-path="url(#SVGID_48_)">
		<defs>
			<rect id="SVGID_49_" x="14" width="600" height="268"/>
		</defs>
		<clipPath id="SVGID_50_">
			<use xlink:href="#SVGID_49_"  overflow="visible"/>
		</clipPath>
		<rect x="44.6" y="63.4" clip-path="url(#SVGID_50_)" fill="#2D3F4A" width="27.3" height="14.2"/>
	</g>
</g>
<g>
	<defs>
		<path id="SVGID_51_" d="M39.5,58.8c-0.3,0.7-0.7,1.2-1.2,1.8c-0.5,0.5-1.1,0.9-1.8,1.2c-0.7,0.3-1.4,0.4-2.1,0.4h0
			c-0.7,0-1.4-0.1-2.1-0.4c-0.7-0.3-1.3-0.7-1.8-1.2c-0.5-0.5-0.9-1.1-1.2-1.8c-0.3-0.7-0.4-1.4-0.4-2.1c0-0.7,0.1-1.4,0.4-2.1
			c0.3-0.7,0.7-1.3,1.2-1.8c0.5-0.5,1.1-0.9,1.8-1.2l11.7-4.6L39.5,58.8z M31.6,49.8c-0.9,0.4-1.7,0.9-2.4,1.6
			c-0.7,0.7-1.3,1.6-1.6,2.4c-0.4,0.9-0.6,1.9-0.6,2.9c0,1,0.2,2,0.6,2.9c0.4,0.9,0.9,1.7,1.6,2.4c0.7,0.7,1.6,1.3,2.4,1.6
			c0.9,0.4,1.9,0.6,2.9,0.6h0h0c1,0,1.9-0.2,2.9-0.6c0.9-0.4,1.7-0.9,2.4-1.6c0.7-0.7,1.3-1.6,1.6-2.4l6.4-16.2L31.6,49.8z"/>
	</defs>
	<clipPath id="SVGID_52_">
		<use xlink:href="#SVGID_51_"  overflow="visible"/>
	</clipPath>
	<g clip-path="url(#SVGID_52_)">
		<defs>
			<rect id="SVGID_53_" x="14" width="600" height="268"/>
		</defs>
		<clipPath id="SVGID_54_">
			<use xlink:href="#SVGID_53_"  overflow="visible"/>
		</clipPath>
		<rect x="22" y="38.4" clip-path="url(#SVGID_54_)" fill="#2D3F4A" width="30.8" height="30.8"/>
	</g>
</g>
<g>
	<defs>
		<path id="SVGID_55_" d="M87,58.8c-0.3,0.7-0.7,1.3-1.2,1.8c-0.5,0.5-1.1,0.9-1.8,1.2c-0.7,0.3-1.4,0.4-2.1,0.4h0
			c-0.7,0-1.4-0.1-2.1-0.4c-0.7-0.3-1.3-0.7-1.8-1.2c-0.5-0.5-0.9-1.1-1.2-1.8l-4.6-11.7l11.7,4.6c0.7,0.3,1.2,0.7,1.8,1.2
			c0.5,0.5,0.9,1.1,1.2,1.8c0.3,0.7,0.4,1.4,0.4,2.1C87.4,57.4,87.3,58.1,87,58.8z M88.9,53.8c-0.4-0.9-0.9-1.7-1.6-2.4
			c-0.7-0.7-1.6-1.3-2.4-1.6l-16.2-6.4L75,59.6c0.4,0.9,0.9,1.7,1.6,2.4c0.7,0.7,1.6,1.3,2.4,1.6c0.9,0.4,1.9,0.6,2.9,0.6h0h0
			c1,0,2-0.2,2.9-0.6c0.9-0.4,1.7-0.9,2.4-1.6c0.7-0.7,1.3-1.6,1.6-2.4c0.4-0.9,0.6-1.9,0.6-2.9C89.5,55.7,89.3,54.8,88.9,53.8z"/>
	</defs>
	<clipPath id="SVGID_56_">
		<use xlink:href="#SVGID_55_"  overflow="visible"/>
	</clipPath>
	<g clip-path="url(#SVGID_56_)">
		<defs>
			<rect id="SVGID_57_" x="14" width="600" height="268"/>
		</defs>
		<clipPath id="SVGID_58_">
			<use xlink:href="#SVGID_57_"  overflow="visible"/>
		</clipPath>
		<rect x="63.7" y="38.4" clip-path="url(#SVGID_58_)" fill="#2D3F4A" width="30.8" height="30.8"/>
	</g>
</g>
<g>
	<defs>
		<path id="SVGID_59_" d="M53,35.1c1.1,0,2.1,0.9,2.1,2.1c0,1.1-0.9,2.1-2.1,2.1c-1.1,0-2.1-0.9-2.1-2.1C51,36,51.9,35.1,53,35.1z
			 M53,41.3c2.3,0,4.2-1.9,4.2-4.2c0-2.3-1.9-4.2-4.2-4.2c-2.3,0-4.2,1.9-4.2,4.2C48.9,39.5,50.7,41.3,53,41.3z"/>
	</defs>
	<clipPath id="SVGID_60_">
		<use xlink:href="#SVGID_59_"  overflow="visible"/>
	</clipPath>
	<g clip-path="url(#SVGID_60_)">
		<defs>
			<rect id="SVGID_61_" x="14" width="600" height="268"/>
		</defs>
		<clipPath id="SVGID_62_">
			<use xlink:href="#SVGID_61_"  overflow="visible"/>
		</clipPath>
		<rect x="43.9" y="28" clip-path="url(#SVGID_62_)" fill="#2D3F4A" width="18.3" height="18.3"/>
	</g>
</g>
<g>
	<defs>
		<path id="SVGID_63_" d="M63.5,35.1c1.1,0,2.1,0.9,2.1,2.1c0,1.1-0.9,2.1-2.1,2.1c-1.1,0-2.1-0.9-2.1-2.1
			C61.4,36,62.3,35.1,63.5,35.1z M63.5,41.3c2.3,0,4.2-1.9,4.2-4.2c0-2.3-1.9-4.2-4.2-4.2c-2.3,0-4.2,1.9-4.2,4.2
			C59.3,39.5,61.2,41.3,63.5,41.3z"/>
	</defs>
	<clipPath id="SVGID_64_">
		<use xlink:href="#SVGID_63_"  overflow="visible"/>
	</clipPath>
	<g clip-path="url(#SVGID_64_)">
		<defs>
			<rect id="SVGID_65_" x="14" width="600" height="268"/>
		</defs>
		<clipPath id="SVGID_66_">
			<use xlink:href="#SVGID_65_"  overflow="visible"/>
		</clipPath>
		<rect x="54.3" y="28" clip-path="url(#SVGID_66_)" fill="#2D3F4A" width="18.3" height="18.3"/>
	</g>
</g>
<g>
	<defs>
		<path id="SVGID_67_" d="M228.3,71.3h-46.7v-30h46.7V71.3z M180,33v6.7V73h50V39.7V33H180z"/>
	</defs>
	<clipPath id="SVGID_68_">
		<use xlink:href="#SVGID_67_"  overflow="visible"/>
	</clipPath>
	<g clip-path="url(#SVGID_68_)">
		<defs>
			<rect id="SVGID_69_" x="14" width="600" height="268"/>
		</defs>
		<clipPath id="SVGID_70_">
			<use xlink:href="#SVGID_69_"  overflow="visible"/>
		</clipPath>
		<rect x="175" y="28" clip-path="url(#SVGID_70_)" fill="#2D3F4A" width="60" height="50"/>
	</g>
</g>
<g>
	<defs>
		<circle id="SVGID_71_" cx="220.8" cy="41.3" r="5"/>
	</defs>
	<clipPath id="SVGID_72_">
		<use xlink:href="#SVGID_71_"  overflow="visible"/>
	</clipPath>
	<g clip-path="url(#SVGID_72_)">
		<defs>
			<rect id="SVGID_73_" x="14" width="600" height="268"/>
		</defs>
		<clipPath id="SVGID_74_">
			<use xlink:href="#SVGID_73_"  overflow="visible"/>
		</clipPath>
		<rect x="210.8" y="31.3" clip-path="url(#SVGID_74_)" fill="#7CB7FA" width="20" height="20"/>
	</g>
</g>
<g>
	<defs>
		<path id="SVGID_75_" d="M249.2,35.8h5.3v1.3h-5.3V35.8z M262.4,39.8v26.4h-21.1V39.8H262.4z M240,38.5v29v5.3h23.8v-5.3v-29v-5.3
			H240V38.5z"/>
	</defs>
	<clipPath id="SVGID_76_">
		<use xlink:href="#SVGID_75_"  overflow="visible"/>
	</clipPath>
	<g clip-path="url(#SVGID_76_)">
		<defs>
			<rect id="SVGID_77_" x="14" width="600" height="268"/>
		</defs>
		<clipPath id="SVGID_78_">
			<use xlink:href="#SVGID_77_"  overflow="visible"/>
		</clipPath>
		<rect x="235" y="28.2" clip-path="url(#SVGID_78_)" fill="#2D3F4A" width="33.8" height="49.6"/>
	</g>
</g>
<g>
	<defs>
		<circle id="SVGID_79_" cx="257.8" cy="40.2" r="3.4"/>
	</defs>
	<clipPath id="SVGID_80_">
		<use xlink:href="#SVGID_79_"  overflow="visible"/>
	</clipPath>
	<g clip-path="url(#SVGID_80_)">
		<defs>
			<rect id="SVGID_81_" x="14" width="600" height="268"/>
		</defs>
		<clipPath id="SVGID_82_">
			<use xlink:href="#SVGID_81_"  overflow="visible"/>
		</clipPath>
		<rect x="249.4" y="31.8" clip-path="url(#SVGID_82_)" fill="#7CB7FA" width="16.9" height="16.9"/>
	</g>
</g>
<g>
	<defs>
		<path id="SVGID_83_" d="M412.3,71.3h-46.7v-30h46.7V71.3z M364,33v6.7V73h50V39.7V33H364z"/>
	</defs>
	<clipPath id="SVGID_84_">
		<use xlink:href="#SVGID_83_"  overflow="visible"/>
	</clipPath>
	<g clip-path="url(#SVGID_84_)">
		<defs>
			<rect id="SVGID_85_" x="14" width="600" height="268"/>
		</defs>
		<clipPath id="SVGID_86_">
			<use xlink:href="#SVGID_85_"  overflow="visible"/>
		</clipPath>
		<rect x="359" y="28" clip-path="url(#SVGID_86_)" fill="#2D3F4A" width="60" height="50"/>
	</g>
</g>
<g>
	<defs>
		<rect id="SVGID_87_" x="379" y="36.1" width="20.2" height="2.9"/>
	</defs>
	<clipPath id="SVGID_88_">
		<use xlink:href="#SVGID_87_"  overflow="visible"/>
	</clipPath>
	<g clip-path="url(#SVGID_88_)">
		<defs>
			<rect id="SVGID_89_" x="14" width="600" height="268"/>
		</defs>
		<clipPath id="SVGID_90_">
			<use xlink:href="#SVGID_89_"  overflow="visible"/>
		</clipPath>
		<rect x="374" y="31.1" clip-path="url(#SVGID_90_)" fill="#FFFFFF" width="30.2" height="12.9"/>
	</g>
</g>
<g>
	<defs>
		<polygon id="SVGID_91_" points="407.8,34.9 407.1,35.6 408.4,36.9 405.3,36.9 405.3,37.8 408.4,37.8 407.1,39.2 407.8,39.9 
			410.3,37.4 		"/>
	</defs>
	<clipPath id="SVGID_92_">
		<use xlink:href="#SVGID_91_"  overflow="visible"/>
	</clipPath>
	<g clip-path="url(#SVGID_92_)">
		<defs>
			<rect id="SVGID_93_" x="14" width="600" height="268"/>
		</defs>
		<clipPath id="SVGID_94_">
			<use xlink:href="#SVGID_93_"  overflow="visible"/>
		</clipPath>
		<rect x="400.3" y="29.9" clip-path="url(#SVGID_94_)" fill="#FFFFFF" width="15" height="15"/>
	</g>
</g>
<g>
	<defs>
		<polygon id="SVGID_95_" points="370.3,34.9 370.9,35.6 369.6,36.9 372.8,36.9 372.8,37.8 369.6,37.8 370.9,39.2 370.3,39.9 
			367.8,37.4 		"/>
	</defs>
	<clipPath id="SVGID_96_">
		<use xlink:href="#SVGID_95_"  overflow="visible"/>
	</clipPath>
	<g clip-path="url(#SVGID_96_)">
		<defs>
			<rect id="SVGID_97_" x="14" width="600" height="268"/>
		</defs>
		<clipPath id="SVGID_98_">
			<use xlink:href="#SVGID_97_"  overflow="visible"/>
		</clipPath>
		<rect x="362.8" y="29.9" clip-path="url(#SVGID_98_)" fill="#FFFFFF" width="15" height="15"/>
	</g>
</g>
<g>
	<defs>
		<path id="SVGID_99_" d="M588.3,71.3h-46.7v-30h46.7V71.3z M540,33v6.7V73h50V39.7V33H540z"/>
	</defs>
	<clipPath id="SVGID_100_">
		<use xlink:href="#SVGID_99_"  overflow="visible"/>
	</clipPath>
	<g clip-path="url(#SVGID_100_)">
		<defs>
			<rect id="SVGID_101_" x="14" width="600" height="268"/>
		</defs>
		<clipPath id="SVGID_102_">
			<use xlink:href="#SVGID_101_"  overflow="visible"/>
		</clipPath>
		<rect x="535" y="28" clip-path="url(#SVGID_102_)" fill="#2D3F4A" width="60" height="50"/>
	</g>
</g>
<g>
	<defs>
		<rect id="SVGID_103_" x="14" width="600" height="268"/>
	</defs>
	<clipPath id="SVGID_104_">
		<use xlink:href="#SVGID_103_"  overflow="visible"/>
	</clipPath>
	
		<line clip-path="url(#SVGID_104_)" fill="none" stroke="#2D3F4A" stroke-linecap="square" stroke-miterlimit="10" x1="541.6" y1="48.5" x2="588.5" y2="48.5"/>
	
		<line clip-path="url(#SVGID_104_)" fill="none" stroke="#2D3F4A" stroke-linecap="square" stroke-miterlimit="10" x1="540.6" y1="56.5" x2="569" y2="56.5"/>
	
		<line clip-path="url(#SVGID_104_)" fill="none" stroke="#2D3F4A" stroke-linecap="square" stroke-miterlimit="10" x1="559.5" y1="71.8" x2="559.5" y2="41.1"/>
	
		<line clip-path="url(#SVGID_104_)" fill="none" stroke="#2D3F4A" stroke-linecap="square" stroke-miterlimit="10" x1="569.5" y1="71.8" x2="569.5" y2="41.1"/>
	
		<line clip-path="url(#SVGID_104_)" fill="none" stroke="#2D3F4A" stroke-linecap="square" stroke-miterlimit="10" x1="578.5" y1="71.8" x2="578.5" y2="65.5"/>
	
		<line clip-path="url(#SVGID_104_)" fill="none" stroke="#2D3F4A" stroke-linecap="square" stroke-miterlimit="10" x1="578.5" y1="47.4" x2="578.5" y2="41.1"/>
	
		<line clip-path="url(#SVGID_104_)" fill="none" stroke="#2D3F4A" stroke-linecap="square" stroke-miterlimit="10" x1="550.5" y1="71.8" x2="550.5" y2="41.1"/>
	
		<line clip-path="url(#SVGID_104_)" fill="none" stroke="#2D3F4A" stroke-linecap="square" stroke-miterlimit="10" x1="541.6" y1="64.5" x2="588.5" y2="64.5"/>
</g>
<g>
	<defs>
		<circle id="SVGID_105_" cx="579.4" cy="56.8" r="4.4"/>
	</defs>
	<clipPath id="SVGID_106_">
		<use xlink:href="#SVGID_105_"  overflow="visible"/>
	</clipPath>
	<g clip-path="url(#SVGID_106_)">
		<defs>
			<rect id="SVGID_107_" x="14" width="600" height="268"/>
		</defs>
		<clipPath id="SVGID_108_">
			<use xlink:href="#SVGID_107_"  overflow="visible"/>
		</clipPath>
		<rect x="570" y="47.4" clip-path="url(#SVGID_108_)" fill="#7CB7FA" width="18.8" height="18.8"/>
	</g>
</g>
<g>
	<defs>
		<path id="SVGID_109_" d="M579.4,51.7c2.8,0,5.1,2.3,5.1,5.1s-2.3,5.1-5.1,5.1s-5.1-2.3-5.1-5.1S576.6,51.7,579.4,51.7z
			 M579.4,62.4c3.1,0,5.6-2.5,5.6-5.6s-2.5-5.6-5.6-5.6s-5.6,2.5-5.6,5.6S576.3,62.4,579.4,62.4z"/>
	</defs>
	<clipPath id="SVGID_110_">
		<use xlink:href="#SVGID_109_"  overflow="visible"/>
	</clipPath>
	<g clip-path="url(#SVGID_110_)">
		<defs>
			<rect id="SVGID_111_" x="14" width="600" height="268"/>
		</defs>
		<clipPath id="SVGID_112_">
			<use xlink:href="#SVGID_111_"  overflow="visible"/>
		</clipPath>
		<rect x="568.8" y="46.1" clip-path="url(#SVGID_112_)" fill="#2D3F4A" width="21.3" height="21.3"/>
	</g>
</g>
<g>
	<defs>
		<polygon id="SVGID_113_" points="582.2,55.4 581.4,54.6 578.5,57.6 577.2,56.3 576.4,57.1 578.5,59.2 		"/>
	</defs>
	<clipPath id="SVGID_114_">
		<use xlink:href="#SVGID_113_"  overflow="visible"/>
	</clipPath>
	<g clip-path="url(#SVGID_114_)">
		<defs>
			<rect id="SVGID_115_" x="14" width="600" height="268"/>
		</defs>
		<clipPath id="SVGID_116_">
			<use xlink:href="#SVGID_115_"  overflow="visible"/>
		</clipPath>
		<rect x="571.4" y="49.6" clip-path="url(#SVGID_116_)" fill="#FFFFFF" width="15.9" height="14.6"/>
	</g>
</g>
<g>
	<defs>
		<path id="SVGID_117_" d="M389.5,47c5.2,0,9.5,4.2,9.5,9.5s-4.2,9.4-9.5,9.4c-5.2,0-9.5-4.2-9.5-9.4S384.3,47,389.5,47z M389.5,67
			c5.8,0,10.5-4.7,10.5-10.5S395.3,46,389.5,46c-5.8,0-10.5,4.7-10.5,10.5S383.7,67,389.5,67z"/>
	</defs>
	<clipPath id="SVGID_118_">
		<use xlink:href="#SVGID_117_"  overflow="visible"/>
	</clipPath>
	<g clip-path="url(#SVGID_118_)">
		<defs>
			<rect id="SVGID_119_" x="14" width="600" height="268"/>
		</defs>
		<clipPath id="SVGID_120_">
			<use xlink:href="#SVGID_119_"  overflow="visible"/>
		</clipPath>
		<rect x="374" y="41" clip-path="url(#SVGID_120_)" fill="#5AAAFA" width="31" height="31"/>
	</g>
</g>
<g>
	<defs>
		<polygon id="SVGID_121_" points="395,54.1 393.5,52.6 387.9,58.2 385.5,55.8 384,57.2 387.9,61.1 		"/>
	</defs>
	<clipPath id="SVGID_122_">
		<use xlink:href="#SVGID_121_"  overflow="visible"/>
	</clipPath>
	<g clip-path="url(#SVGID_122_)">
		<defs>
			<rect id="SVGID_123_" x="14" width="600" height="268"/>
		</defs>
		<clipPath id="SVGID_124_">
			<use xlink:href="#SVGID_123_"  overflow="visible"/>
		</clipPath>
		<rect x="379" y="47.6" clip-path="url(#SVGID_124_)" fill="#5AAAFA" width="20.9" height="18.5"/>
	</g>
</g>
<text transform="matrix(1 0 0 1 510.5 171)"><tspan x="0" y="0" fill="#26465B" font-family="'ArialMT'" font-size="14">IBM </tspan><tspan x="28.8" y="0" fill="#26465B" font-family="'MS-Gothic'" font-size="14">が更新の</tspan><tspan x="0" y="19" fill="#26465B" font-family="'MS-Gothic'" font-size="14">スケジュール日を</tspan><tspan x="0" y="38" fill="#26465B" font-family="'MS-Gothic'" font-size="14">確認する</tspan></text>
</svg>
