<?xml version="1.0" encoding="utf-8"?>
<!-- Generator: Adobe Illustrator 18.1.1, SVG Export Plug-In . SVG Version: 6.00 Build 0)  -->
<svg version="1.1" id="Layer_1" xmlns="http://www.w3.org/2000/svg" xmlns:xlink="http://www.w3.org/1999/xlink" x="0px" y="0px"
	 viewBox="0 0 610.7 268" enable-background="new 0 0 610.7 268" xml:space="preserve">
<g>
	<defs>
		<rect id="SVGID_1_" width="600" height="268"/>
	</defs>
	<clipPath id="SVGID_2_">
		<use xlink:href="#SVGID_1_"  overflow="visible"/>
	</clipPath>
	
		<line clip-path="url(#SVGID_2_)" fill="none" stroke="#2D3F4A" stroke-width="5" stroke-miterlimit="10" x1="42.8" y1="115.5" x2="544.5" y2="115.5"/>
</g>
<g>
	<defs>
		<ellipse id="SVGID_3_" cx="41.6" cy="117.2" rx="28.6" ry="28.2"/>
	</defs>
	<clipPath id="SVGID_4_">
		<use xlink:href="#SVGID_3_"  overflow="visible"/>
	</clipPath>
	<g clip-path="url(#SVGID_4_)">
		<defs>
			<rect id="SVGID_5_" width="600" height="268"/>
		</defs>
		<clipPath id="SVGID_6_">
			<use xlink:href="#SVGID_5_"  overflow="visible"/>
		</clipPath>
		<rect x="8" y="84" clip-path="url(#SVGID_6_)" fill="#FFFFFF" width="67.2" height="66.3"/>
	</g>
</g>
<g>
	<defs>
		<ellipse id="SVGID_7_" cx="208.6" cy="117.2" rx="28.6" ry="28.2"/>
	</defs>
	<clipPath id="SVGID_8_">
		<use xlink:href="#SVGID_7_"  overflow="visible"/>
	</clipPath>
	<g clip-path="url(#SVGID_8_)">
		<defs>
			<rect id="SVGID_9_" width="600" height="268"/>
		</defs>
		<clipPath id="SVGID_10_">
			<use xlink:href="#SVGID_9_"  overflow="visible"/>
		</clipPath>
		<rect x="175" y="84" clip-path="url(#SVGID_10_)" fill="#FFFFFF" width="67.2" height="66.3"/>
	</g>
</g>
<g>
	<defs>
		<ellipse id="SVGID_11_" cx="375.6" cy="117.2" rx="28.6" ry="28.2"/>
	</defs>
	<clipPath id="SVGID_12_">
		<use xlink:href="#SVGID_11_"  overflow="visible"/>
	</clipPath>
	<g clip-path="url(#SVGID_12_)">
		<defs>
			<rect id="SVGID_13_" width="600" height="268"/>
		</defs>
		<clipPath id="SVGID_14_">
			<use xlink:href="#SVGID_13_"  overflow="visible"/>
		</clipPath>
		<rect x="342" y="84" clip-path="url(#SVGID_14_)" fill="#FFFFFF" width="67.2" height="66.3"/>
	</g>
</g>
<g>
	<defs>
		<ellipse id="SVGID_15_" cx="551.6" cy="117.2" rx="28.6" ry="28.2"/>
	</defs>
	<clipPath id="SVGID_16_">
		<use xlink:href="#SVGID_15_"  overflow="visible"/>
	</clipPath>
	<g clip-path="url(#SVGID_16_)">
		<defs>
			<rect id="SVGID_17_" width="600" height="268"/>
		</defs>
		<clipPath id="SVGID_18_">
			<use xlink:href="#SVGID_17_"  overflow="visible"/>
		</clipPath>
		<rect x="518" y="84" clip-path="url(#SVGID_18_)" fill="#FFFFFF" width="67.2" height="66.3"/>
	</g>
</g>
<g>
	<defs>
		<ellipse id="SVGID_19_" cx="41.4" cy="117.1" rx="21.4" ry="21.1"/>
	</defs>
	<clipPath id="SVGID_20_">
		<use xlink:href="#SVGID_19_"  overflow="visible"/>
	</clipPath>
	<g clip-path="url(#SVGID_20_)">
		<defs>
			<rect id="SVGID_21_" width="600" height="268"/>
		</defs>
		<clipPath id="SVGID_22_">
			<use xlink:href="#SVGID_21_"  overflow="visible"/>
		</clipPath>
		<rect x="15" y="91" opacity="0.5" clip-path="url(#SVGID_22_)" fill="#7CB7FA" width="52.9" height="52.2"/>
	</g>
</g>
<g>
	<defs>
		<ellipse id="SVGID_23_" cx="208.4" cy="117.1" rx="21.4" ry="21.1"/>
	</defs>
	<clipPath id="SVGID_24_">
		<use xlink:href="#SVGID_23_"  overflow="visible"/>
	</clipPath>
	<g clip-path="url(#SVGID_24_)">
		<defs>
			<rect id="SVGID_25_" width="600" height="268"/>
		</defs>
		<clipPath id="SVGID_26_">
			<use xlink:href="#SVGID_25_"  overflow="visible"/>
		</clipPath>
		<rect x="182" y="91" opacity="0.5" clip-path="url(#SVGID_26_)" fill="#7CB7FA" width="52.9" height="52.2"/>
	</g>
</g>
<g>
	<defs>
		<ellipse id="SVGID_27_" cx="375.4" cy="117.1" rx="21.4" ry="21.1"/>
	</defs>
	<clipPath id="SVGID_28_">
		<use xlink:href="#SVGID_27_"  overflow="visible"/>
	</clipPath>
	<g clip-path="url(#SVGID_28_)">
		<defs>
			<rect id="SVGID_29_" width="600" height="268"/>
		</defs>
		<clipPath id="SVGID_30_">
			<use xlink:href="#SVGID_29_"  overflow="visible"/>
		</clipPath>
		<rect x="349" y="91" opacity="0.5" clip-path="url(#SVGID_30_)" fill="#7CB7FA" width="52.9" height="52.2"/>
	</g>
</g>
<g>
	<defs>
		<ellipse id="SVGID_31_" cx="551.4" cy="117.1" rx="21.4" ry="21.1"/>
	</defs>
	<clipPath id="SVGID_32_">
		<use xlink:href="#SVGID_31_"  overflow="visible"/>
	</clipPath>
	<g clip-path="url(#SVGID_32_)">
		<defs>
			<rect id="SVGID_33_" width="600" height="268"/>
		</defs>
		<clipPath id="SVGID_34_">
			<use xlink:href="#SVGID_33_"  overflow="visible"/>
		</clipPath>
		<rect x="525" y="91" opacity="0.5" clip-path="url(#SVGID_34_)" fill="#7CB7FA" width="52.9" height="52.2"/>
	</g>
</g>
<g>
	<defs>
		<rect id="SVGID_35_" width="600" height="268"/>
	</defs>
	<clipPath id="SVGID_36_">
		<use xlink:href="#SVGID_35_"  overflow="visible"/>
	</clipPath>
	<g clip-path="url(#SVGID_36_)">
		<text transform="matrix(1 0 0 1 32 128)" fill="#3B505C" font-family="'Arial-BoldMT'" font-size="30">1</text>
	</g>
	<g clip-path="url(#SVGID_36_)">
		<text transform="matrix(1 0 0 1 200 127)" fill="#3B505C" font-family="'Arial-BoldMT'" font-size="30">2</text>
	</g>
	<g clip-path="url(#SVGID_36_)">
		<text transform="matrix(1 0 0 1 367 128)" fill="#3B505C" font-family="'Arial-BoldMT'" font-size="30">3</text>
	</g>
	<g clip-path="url(#SVGID_36_)">
		<text transform="matrix(1 0 0 1 542 128)" fill="#3B505C" font-family="'Arial-BoldMT'" font-size="30">4</text>
	</g>
	<g clip-path="url(#SVGID_36_)">
		<rect x="1" y="161.5" fill="none" width="102.2" height="59.5"/>
		<text transform="matrix(1 0 0 1 1 172.2857)"><tspan x="0" y="0" fill="#26465B" font-family="'ArialMT'" font-size="14">IBM </tspan><tspan x="28.8" y="0" fill="#26465B" font-family="'MS-Gothic'" font-size="14">がお客様に</tspan><tspan x="0" y="19" fill="#26465B" font-family="'MS-Gothic'" font-size="14">保留中の更新を</tspan><tspan x="0" y="38" fill="#26465B" font-family="'MS-Gothic'" font-size="14">通知する</tspan></text>
	</g>
	<g clip-path="url(#SVGID_36_)">
		<rect x="170.5" y="161.5" fill="none" width="102.2" height="59.5"/>
		<text transform="matrix(1 0 0 1 170.5445 172.2857)"><tspan x="0" y="0" fill="#26465B" font-family="'MS-Gothic'" font-size="14">お客様が通知を</tspan><tspan x="0" y="19" fill="#26465B" font-family="'MS-Gothic'" font-size="14">確認する</tspan></text>
	</g>
	<g clip-path="url(#SVGID_36_)">
		<rect x="312.5" y="161.5" fill="none" width="126.6" height="59.5"/>
		<text transform="matrix(1 0 0 1 312.5445 172.2857)"><tspan x="0" y="0" fill="#26465B" font-family="'MS-Gothic'" font-size="14">お客様が更新の利用</tspan><tspan x="0" y="19" fill="#26465B" font-family="'MS-Gothic'" font-size="14">不能日を選択する</tspan></text>
	</g>
</g>
<g>
	<defs>
		<path id="SVGID_37_" d="M35.6,47.6h17.3c-1.9-2.5-5-4.2-8.7-4.2C40.6,43.4,37.5,45.1,35.6,47.6z"/>
	</defs>
	<clipPath id="SVGID_38_">
		<use xlink:href="#SVGID_37_"  overflow="visible"/>
	</clipPath>
	<g clip-path="url(#SVGID_38_)">
		<defs>
			<rect id="SVGID_39_" width="600" height="268"/>
		</defs>
		<clipPath id="SVGID_40_">
			<use xlink:href="#SVGID_39_"  overflow="visible"/>
		</clipPath>
		<rect x="30.6" y="38.4" clip-path="url(#SVGID_40_)" fill="#2D3F4A" width="27.3" height="14.2"/>
	</g>
</g>
<g>
	<defs>
		<path id="SVGID_41_" d="M33.9,51.8c0,0.3-0.1,0.7-0.1,1v3.1h20.8v-3.1c0-0.4,0-0.7-0.1-1H33.9z"/>
	</defs>
	<clipPath id="SVGID_42_">
		<use xlink:href="#SVGID_41_"  overflow="visible"/>
	</clipPath>
	<g clip-path="url(#SVGID_42_)">
		<defs>
			<rect id="SVGID_43_" width="600" height="268"/>
		</defs>
		<clipPath id="SVGID_44_">
			<use xlink:href="#SVGID_43_"  overflow="visible"/>
		</clipPath>
		<rect x="28.8" y="46.8" clip-path="url(#SVGID_44_)" fill="#2D3F4A" width="30.8" height="14.2"/>
	</g>
</g>
<g>
	<defs>
		<path id="SVGID_45_" d="M33.8,63.2c0,0.4,0,0.7,0.1,1h20.7c0-0.3,0.1-0.7,0.1-1v-3.1H33.8V63.2z"/>
	</defs>
	<clipPath id="SVGID_46_">
		<use xlink:href="#SVGID_45_"  overflow="visible"/>
	</clipPath>
	<g clip-path="url(#SVGID_46_)">
		<defs>
			<rect id="SVGID_47_" width="600" height="268"/>
		</defs>
		<clipPath id="SVGID_48_">
			<use xlink:href="#SVGID_47_"  overflow="visible"/>
		</clipPath>
		<rect x="28.8" y="55.1" clip-path="url(#SVGID_48_)" fill="#2D3F4A" width="30.8" height="14.2"/>
	</g>
</g>
<g>
	<defs>
		<path id="SVGID_49_" d="M44.3,72.6c3.6,0,6.8-1.7,8.7-4.2H35.6C37.5,70.9,40.6,72.6,44.3,72.6z"/>
	</defs>
	<clipPath id="SVGID_50_">
		<use xlink:href="#SVGID_49_"  overflow="visible"/>
	</clipPath>
	<g clip-path="url(#SVGID_50_)">
		<defs>
			<rect id="SVGID_51_" width="600" height="268"/>
		</defs>
		<clipPath id="SVGID_52_">
			<use xlink:href="#SVGID_51_"  overflow="visible"/>
		</clipPath>
		<rect x="30.6" y="63.4" clip-path="url(#SVGID_52_)" fill="#2D3F4A" width="27.3" height="14.2"/>
	</g>
</g>
<g>
	<defs>
		<path id="SVGID_53_" d="M25.5,58.8c-0.3,0.7-0.7,1.2-1.2,1.8c-0.5,0.5-1.1,0.9-1.8,1.2c-0.7,0.3-1.4,0.4-2.1,0.4h0
			c-0.7,0-1.4-0.1-2.1-0.4c-0.7-0.3-1.3-0.7-1.8-1.2c-0.5-0.5-0.9-1.1-1.2-1.8c-0.3-0.7-0.4-1.4-0.4-2.1c0-0.7,0.1-1.4,0.4-2.1
			c0.3-0.7,0.7-1.3,1.2-1.8c0.5-0.5,1.1-0.9,1.8-1.2l11.7-4.6L25.5,58.8z M17.6,49.8c-0.9,0.4-1.7,0.9-2.4,1.6
			c-0.7,0.7-1.3,1.6-1.6,2.4c-0.4,0.9-0.6,1.9-0.6,2.9c0,1,0.2,2,0.6,2.9c0.4,0.9,0.9,1.7,1.6,2.4c0.7,0.7,1.6,1.3,2.4,1.6
			c0.9,0.4,1.9,0.6,2.9,0.6h0h0c1,0,1.9-0.2,2.9-0.6c0.9-0.4,1.7-0.9,2.4-1.6c0.7-0.7,1.3-1.6,1.6-2.4l6.4-16.2L17.6,49.8z"/>
	</defs>
	<clipPath id="SVGID_54_">
		<use xlink:href="#SVGID_53_"  overflow="visible"/>
	</clipPath>
	<g clip-path="url(#SVGID_54_)">
		<defs>
			<rect id="SVGID_55_" width="600" height="268"/>
		</defs>
		<clipPath id="SVGID_56_">
			<use xlink:href="#SVGID_55_"  overflow="visible"/>
		</clipPath>
		<rect x="8" y="38.4" clip-path="url(#SVGID_56_)" fill="#2D3F4A" width="30.8" height="30.8"/>
	</g>
</g>
<g>
	<defs>
		<path id="SVGID_57_" d="M73,58.8c-0.3,0.7-0.7,1.3-1.2,1.8c-0.5,0.5-1.1,0.9-1.8,1.2c-0.7,0.3-1.4,0.4-2.1,0.4h0
			c-0.7,0-1.4-0.1-2.1-0.4c-0.7-0.3-1.3-0.7-1.8-1.2c-0.5-0.5-0.9-1.1-1.2-1.8l-4.6-11.7l11.7,4.6c0.7,0.3,1.2,0.7,1.8,1.2
			c0.5,0.5,0.9,1.1,1.2,1.8c0.3,0.7,0.4,1.4,0.4,2.1C73.4,57.4,73.3,58.1,73,58.8z M74.9,53.8c-0.4-0.9-0.9-1.7-1.6-2.4
			c-0.7-0.7-1.6-1.3-2.4-1.6l-16.2-6.4L61,59.6c0.4,0.9,0.9,1.7,1.6,2.4c0.7,0.7,1.6,1.3,2.4,1.6c0.9,0.4,1.9,0.6,2.9,0.6h0h0
			c1,0,2-0.2,2.9-0.6c0.9-0.4,1.7-0.9,2.4-1.6c0.7-0.7,1.3-1.6,1.6-2.4c0.4-0.9,0.6-1.9,0.6-2.9C75.5,55.7,75.3,54.8,74.9,53.8z"/>
	</defs>
	<clipPath id="SVGID_58_">
		<use xlink:href="#SVGID_57_"  overflow="visible"/>
	</clipPath>
	<g clip-path="url(#SVGID_58_)">
		<defs>
			<rect id="SVGID_59_" width="600" height="268"/>
		</defs>
		<clipPath id="SVGID_60_">
			<use xlink:href="#SVGID_59_"  overflow="visible"/>
		</clipPath>
		<rect x="49.7" y="38.4" clip-path="url(#SVGID_60_)" fill="#2D3F4A" width="30.8" height="30.8"/>
	</g>
</g>
<g>
	<defs>
		<path id="SVGID_61_" d="M39,35.1c1.1,0,2.1,0.9,2.1,2.1c0,1.1-0.9,2.1-2.1,2.1c-1.1,0-2.1-0.9-2.1-2.1C37,36,37.9,35.1,39,35.1z
			 M39,41.3c2.3,0,4.2-1.9,4.2-4.2c0-2.3-1.9-4.2-4.2-4.2c-2.3,0-4.2,1.9-4.2,4.2C34.9,39.5,36.7,41.3,39,41.3z"/>
	</defs>
	<clipPath id="SVGID_62_">
		<use xlink:href="#SVGID_61_"  overflow="visible"/>
	</clipPath>
	<g clip-path="url(#SVGID_62_)">
		<defs>
			<rect id="SVGID_63_" width="600" height="268"/>
		</defs>
		<clipPath id="SVGID_64_">
			<use xlink:href="#SVGID_63_"  overflow="visible"/>
		</clipPath>
		<rect x="29.9" y="28" clip-path="url(#SVGID_64_)" fill="#2D3F4A" width="18.3" height="18.3"/>
	</g>
</g>
<g>
	<defs>
		<path id="SVGID_65_" d="M49.5,35.1c1.1,0,2.1,0.9,2.1,2.1c0,1.1-0.9,2.1-2.1,2.1c-1.1,0-2.1-0.9-2.1-2.1
			C47.4,36,48.3,35.1,49.5,35.1z M49.5,41.3c2.3,0,4.2-1.9,4.2-4.2c0-2.3-1.9-4.2-4.2-4.2c-2.3,0-4.2,1.9-4.2,4.2
			C45.3,39.5,47.2,41.3,49.5,41.3z"/>
	</defs>
	<clipPath id="SVGID_66_">
		<use xlink:href="#SVGID_65_"  overflow="visible"/>
	</clipPath>
	<g clip-path="url(#SVGID_66_)">
		<defs>
			<rect id="SVGID_67_" width="600" height="268"/>
		</defs>
		<clipPath id="SVGID_68_">
			<use xlink:href="#SVGID_67_"  overflow="visible"/>
		</clipPath>
		<rect x="40.3" y="28" clip-path="url(#SVGID_68_)" fill="#2D3F4A" width="18.3" height="18.3"/>
	</g>
</g>
<g>
	<defs>
		<path id="SVGID_69_" d="M214.3,71.3h-46.7v-30h46.7V71.3z M166,33v6.7V73h50V39.7V33H166z"/>
	</defs>
	<clipPath id="SVGID_70_">
		<use xlink:href="#SVGID_69_"  overflow="visible"/>
	</clipPath>
	<g clip-path="url(#SVGID_70_)">
		<defs>
			<rect id="SVGID_71_" width="600" height="268"/>
		</defs>
		<clipPath id="SVGID_72_">
			<use xlink:href="#SVGID_71_"  overflow="visible"/>
		</clipPath>
		<rect x="161" y="28" clip-path="url(#SVGID_72_)" fill="#2D3F4A" width="60" height="50"/>
	</g>
</g>
<g>
	<defs>
		<circle id="SVGID_73_" cx="206.8" cy="41.3" r="5"/>
	</defs>
	<clipPath id="SVGID_74_">
		<use xlink:href="#SVGID_73_"  overflow="visible"/>
	</clipPath>
	<g clip-path="url(#SVGID_74_)">
		<defs>
			<rect id="SVGID_75_" width="600" height="268"/>
		</defs>
		<clipPath id="SVGID_76_">
			<use xlink:href="#SVGID_75_"  overflow="visible"/>
		</clipPath>
		<rect x="196.8" y="31.3" clip-path="url(#SVGID_76_)" fill="#7CB7FA" width="20" height="20"/>
	</g>
</g>
<g>
	<defs>
		<path id="SVGID_77_" d="M235.2,35.8h5.3v1.3h-5.3V35.8z M248.4,39.8v26.4h-21.1V39.8H248.4z M226,38.5v29v5.3h23.8v-5.3v-29v-5.3
			H226V38.5z"/>
	</defs>
	<clipPath id="SVGID_78_">
		<use xlink:href="#SVGID_77_"  overflow="visible"/>
	</clipPath>
	<g clip-path="url(#SVGID_78_)">
		<defs>
			<rect id="SVGID_79_" width="600" height="268"/>
		</defs>
		<clipPath id="SVGID_80_">
			<use xlink:href="#SVGID_79_"  overflow="visible"/>
		</clipPath>
		<rect x="221" y="28.2" clip-path="url(#SVGID_80_)" fill="#2D3F4A" width="33.8" height="49.6"/>
	</g>
</g>
<g>
	<defs>
		<circle id="SVGID_81_" cx="243.8" cy="40.2" r="3.4"/>
	</defs>
	<clipPath id="SVGID_82_">
		<use xlink:href="#SVGID_81_"  overflow="visible"/>
	</clipPath>
	<g clip-path="url(#SVGID_82_)">
		<defs>
			<rect id="SVGID_83_" width="600" height="268"/>
		</defs>
		<clipPath id="SVGID_84_">
			<use xlink:href="#SVGID_83_"  overflow="visible"/>
		</clipPath>
		<rect x="235.4" y="31.8" clip-path="url(#SVGID_84_)" fill="#7CB7FA" width="16.9" height="16.9"/>
	</g>
</g>
<g>
	<defs>
		<path id="SVGID_85_" d="M398.3,71.3h-46.7v-30h46.7V71.3z M350,33v6.7V73h50V39.7V33H350z"/>
	</defs>
	<clipPath id="SVGID_86_">
		<use xlink:href="#SVGID_85_"  overflow="visible"/>
	</clipPath>
	<g clip-path="url(#SVGID_86_)">
		<defs>
			<rect id="SVGID_87_" width="600" height="268"/>
		</defs>
		<clipPath id="SVGID_88_">
			<use xlink:href="#SVGID_87_"  overflow="visible"/>
		</clipPath>
		<rect x="345" y="28" clip-path="url(#SVGID_88_)" fill="#2D3F4A" width="60" height="50"/>
	</g>
</g>
<g>
	<defs>
		<circle id="SVGID_89_" cx="368.3" cy="61.8" r="3.3"/>
	</defs>
	<clipPath id="SVGID_90_">
		<use xlink:href="#SVGID_89_"  overflow="visible"/>
	</clipPath>
	<g clip-path="url(#SVGID_90_)">
		<defs>
			<rect id="SVGID_91_" width="600" height="268"/>
		</defs>
		<clipPath id="SVGID_92_">
			<use xlink:href="#SVGID_91_"  overflow="visible"/>
		</clipPath>
		<rect x="360" y="53.4" clip-path="url(#SVGID_92_)" fill="#7CB7FA" width="16.7" height="16.7"/>
	</g>
</g>
<g>
	<defs>
		<circle id="SVGID_93_" cx="378.3" cy="61.8" r="3.3"/>
	</defs>
	<clipPath id="SVGID_94_">
		<use xlink:href="#SVGID_93_"  overflow="visible"/>
	</clipPath>
	<g clip-path="url(#SVGID_94_)">
		<defs>
			<rect id="SVGID_95_" width="600" height="268"/>
		</defs>
		<clipPath id="SVGID_96_">
			<use xlink:href="#SVGID_95_"  overflow="visible"/>
		</clipPath>
		<rect x="370" y="53.4" clip-path="url(#SVGID_96_)" fill="#7CB7FA" width="16.7" height="16.7"/>
	</g>
</g>
<g>
	<defs>
		<rect id="SVGID_97_" x="364.7" y="35.9" width="20.2" height="2.9"/>
	</defs>
	<clipPath id="SVGID_98_">
		<use xlink:href="#SVGID_97_"  overflow="visible"/>
	</clipPath>
	<g clip-path="url(#SVGID_98_)">
		<defs>
			<rect id="SVGID_99_" width="600" height="268"/>
		</defs>
		<clipPath id="SVGID_100_">
			<use xlink:href="#SVGID_99_"  overflow="visible"/>
		</clipPath>
		<rect x="359.7" y="30.9" clip-path="url(#SVGID_100_)" fill="#FFFFFF" width="30.2" height="12.9"/>
	</g>
</g>
<g>
	<defs>
		<polygon id="SVGID_101_" points="393.8,34.9 393.1,35.6 394.4,36.9 391.3,36.9 391.3,37.8 394.4,37.8 393.1,39.2 393.8,39.9 
			396.3,37.4 		"/>
	</defs>
	<clipPath id="SVGID_102_">
		<use xlink:href="#SVGID_101_"  overflow="visible"/>
	</clipPath>
	<g clip-path="url(#SVGID_102_)">
		<defs>
			<rect id="SVGID_103_" width="600" height="268"/>
		</defs>
		<clipPath id="SVGID_104_">
			<use xlink:href="#SVGID_103_"  overflow="visible"/>
		</clipPath>
		<rect x="386.3" y="29.9" clip-path="url(#SVGID_104_)" fill="#FFFFFF" width="15" height="15"/>
	</g>
</g>
<g>
	<defs>
		<polygon id="SVGID_105_" points="356.3,34.9 356.9,35.6 355.6,36.9 358.8,36.9 358.8,37.8 355.6,37.8 356.9,39.2 356.3,39.9 
			353.8,37.4 		"/>
	</defs>
	<clipPath id="SVGID_106_">
		<use xlink:href="#SVGID_105_"  overflow="visible"/>
	</clipPath>
	<g clip-path="url(#SVGID_106_)">
		<defs>
			<rect id="SVGID_107_" width="600" height="268"/>
		</defs>
		<clipPath id="SVGID_108_">
			<use xlink:href="#SVGID_107_"  overflow="visible"/>
		</clipPath>
		<rect x="348.8" y="29.9" clip-path="url(#SVGID_108_)" fill="#FFFFFF" width="15" height="15"/>
	</g>
</g>
<g>
	<defs>
		<path id="SVGID_109_" d="M574.3,71.3h-46.7v-30h46.7V71.3z M526,33v6.7V73h50V39.7V33H526z"/>
	</defs>
	<clipPath id="SVGID_110_">
		<use xlink:href="#SVGID_109_"  overflow="visible"/>
	</clipPath>
	<g clip-path="url(#SVGID_110_)">
		<defs>
			<rect id="SVGID_111_" width="600" height="268"/>
		</defs>
		<clipPath id="SVGID_112_">
			<use xlink:href="#SVGID_111_"  overflow="visible"/>
		</clipPath>
		<rect x="521" y="28" clip-path="url(#SVGID_112_)" fill="#2D3F4A" width="60" height="50"/>
	</g>
</g>
<g>
	<defs>
		<circle id="SVGID_113_" cx="565.4" cy="56.8" r="4.4"/>
	</defs>
	<clipPath id="SVGID_114_">
		<use xlink:href="#SVGID_113_"  overflow="visible"/>
	</clipPath>
	<g clip-path="url(#SVGID_114_)">
		<defs>
			<rect id="SVGID_115_" width="600" height="268"/>
		</defs>
		<clipPath id="SVGID_116_">
			<use xlink:href="#SVGID_115_"  overflow="visible"/>
		</clipPath>
		<rect x="556" y="47.4" clip-path="url(#SVGID_116_)" fill="#7CB7FA" width="18.8" height="18.8"/>
	</g>
</g>
<g>
	<defs>
		<path id="SVGID_117_" d="M565.4,51.7c2.8,0,5.1,2.3,5.1,5.1s-2.3,5.1-5.1,5.1s-5.1-2.3-5.1-5.1S562.6,51.7,565.4,51.7z
			 M565.4,62.4c3.1,0,5.6-2.5,5.6-5.6s-2.5-5.6-5.6-5.6s-5.6,2.5-5.6,5.6S562.3,62.4,565.4,62.4z"/>
	</defs>
	<clipPath id="SVGID_118_">
		<use xlink:href="#SVGID_117_"  overflow="visible"/>
	</clipPath>
	<g clip-path="url(#SVGID_118_)">
		<defs>
			<rect id="SVGID_119_" width="600" height="268"/>
		</defs>
		<clipPath id="SVGID_120_">
			<use xlink:href="#SVGID_119_"  overflow="visible"/>
		</clipPath>
		<rect x="554.8" y="46.1" clip-path="url(#SVGID_120_)" fill="#2D3F4A" width="21.3" height="21.3"/>
	</g>
</g>
<g>
	<defs>
		<polygon id="SVGID_121_" points="568.2,55.4 567.4,54.6 564.5,57.6 563.2,56.3 562.4,57.1 564.5,59.2 		"/>
	</defs>
	<clipPath id="SVGID_122_">
		<use xlink:href="#SVGID_121_"  overflow="visible"/>
	</clipPath>
	<g clip-path="url(#SVGID_122_)">
		<defs>
			<rect id="SVGID_123_" width="600" height="268"/>
		</defs>
		<clipPath id="SVGID_124_">
			<use xlink:href="#SVGID_123_"  overflow="visible"/>
		</clipPath>
		<rect x="557.4" y="49.6" clip-path="url(#SVGID_124_)" fill="#FFFFFF" width="15.9" height="14.6"/>
	</g>
</g>
<line fill="#231815" stroke="#231815" stroke-miterlimit="10" x1="536.5" y1="41" x2="536.5" y2="72"/>
<line fill="#231815" stroke="#231815" stroke-miterlimit="10" x1="545.5" y1="41" x2="545.5" y2="72"/>
<line fill="#231815" stroke="#231815" stroke-miterlimit="10" x1="555.5" y1="41" x2="555.5" y2="72"/>
<line fill="#231815" stroke="#231815" stroke-miterlimit="10" x1="564.5" y1="41" x2="564.5" y2="48"/>
<line fill="#231815" stroke="#231815" stroke-miterlimit="10" x1="526" y1="48.5" x2="575" y2="48.5"/>
<line fill="#231815" stroke="#231815" stroke-miterlimit="10" x1="527" y1="64.5" x2="575" y2="64.5"/>
<line fill="#231815" stroke="#231815" stroke-miterlimit="10" x1="527" y1="56.5" x2="555" y2="56.5"/>
<line fill="#231815" stroke="#231815" stroke-miterlimit="10" x1="565.5" y1="65" x2="565.5" y2="72"/>
<text transform="matrix(1 0 0 1 498.6665 173.3332)"><tspan x="0" y="0" fill="#26465B" font-family="'ArialMT'" font-size="14">IBM </tspan><tspan x="28.8" y="0" fill="#26465B" font-family="'MS-Gothic'" font-size="14">が更新の</tspan><tspan x="0" y="19" fill="#26465B" font-family="'MS-Gothic'" font-size="14">スケジュール日を</tspan><tspan x="0" y="38" fill="#26465B" font-family="'MS-Gothic'" font-size="14">確認する</tspan></text>
</svg>
