<?xml version="1.0" encoding="utf-8"?>
<!-- Generator: Adobe Illustrator 18.1.0, SVG Export Plug-In . SVG Version: 6.00 Build 0)  -->
<!DOCTYPE svg PUBLIC "-//W3C//DTD SVG 1.1//EN" "http://www.w3.org/Graphics/SVG/1.1/DTD/svg11.dtd">
<svg version="1.1" id="Layer_1" xmlns="http://www.w3.org/2000/svg" xmlns:xlink="http://www.w3.org/1999/xlink" x="0px" y="0px"
	 width="64px" height="64px" viewBox="0 0 64 64" enable-background="new 0 0 64 64" xml:space="preserve">
<g>
	<path fill="#7F1C7D" d="M7.9,36.2h5.7v5.5H7.9V36.2z"/>
	<path fill="#7F1C7D" d="M33.8,40.5c0,3.1-1.1,8.2-9.6,8.2c-3.7,0-7.9-1.8-8.2-6H21c0.5,1.9,2,2.6,3.8,2.6c2.8,0,4.1-1.9,4.1-4.6
		v-2.4h-0.1c-1.1,2-3.3,2.9-5.6,2.9c-5.6,0-8-4.2-8-9.4c0-4.8,2.8-9.2,8-9.2c2.4,0,4.3,0.8,5.5,3h0.1v-2.5h4.9V40.5z M28.9,32.2
		c0-3-1-5.7-4.4-5.7c-2.9,0-4.1,2.5-4.1,5.3c0,2.7,1,5.6,4.1,5.6C27.5,37.3,28.9,34.8,28.9,32.2z"/>
	<path fill="#7F1C7D" d="M46,22.6c5.9,0,9.6,3.9,9.6,9.8c0,5.9-3.8,9.8-9.6,9.8c-5.8,0-9.6-3.9-9.6-9.8C36.4,26.5,40.2,22.6,46,22.6
		z M46,38.4c3.5,0,4.5-3,4.5-5.9c0-3-1-6-4.5-6c-3.5,0-4.5,3-4.5,6C41.5,35.4,42.6,38.4,46,38.4z"/>
</g>
</svg>
