<?xml version="1.0" encoding="utf-8"?>
<!-- Generator: Adobe Illustrator 15.0.0, SVG Export Plug-In . SVG Version: 6.00 Build 0)  -->
<!DOCTYPE svg PUBLIC "-//W3C//DTD SVG 1.1//EN" "http://www.w3.org/Graphics/SVG/1.1/DTD/svg11.dtd">
<svg version="1.1" id="圖層_1" xmlns="http://www.w3.org/2000/svg" xmlns:xlink="http://www.w3.org/1999/xlink" x="0px" y="0px"
	 width="1600px" height="1600px" viewBox="0 0 1600 1600" enable-background="new 0 0 1600 1600" xml:space="preserve">
<g>
	<defs>
		<rect id="SVGID_1_" width="1600" height="1600"/>
	</defs>
	<clipPath id="SVGID_2_">
		<use xlink:href="#SVGID_1_"  overflow="visible"/>
	</clipPath>
	
		<line clip-path="url(#SVGID_2_)" fill="none" stroke="#000000" stroke-width="2.216" stroke-miterlimit="10" x1="1270.611" y1="1204.879" x2="1414.818" y2="1204.879"/>
	
		<rect x="486.39" y="166.836" clip-path="url(#SVGID_2_)" fill="none" stroke="#0F76BC" stroke-width="11.892" stroke-miterlimit="10" width="824.292" height="770.999"/>
	
		<rect x="528.472" y="745.41" clip-path="url(#SVGID_2_)" fill="none" stroke="#030404" stroke-width="2.216" stroke-miterlimit="10" width="355.69" height="146.253"/>
	
		<rect x="912.91" y="745.41" clip-path="url(#SVGID_2_)" fill="none" stroke="#030404" stroke-width="2.216" stroke-miterlimit="10" width="355.689" height="146.253"/>
	
		<rect x="528.473" y="388.412" clip-path="url(#SVGID_2_)" fill="none" stroke="#030404" stroke-width="2.216" stroke-miterlimit="10" width="740.126" height="146.253"/>
	
		<rect x="528.473" y="208.919" clip-path="url(#SVGID_2_)" fill="none" stroke="#030404" stroke-width="2.216" stroke-miterlimit="10" width="740.126" height="146.253"/>
	<g clip-path="url(#SVGID_2_)">
		<defs>
			<rect id="SVGID_3_" width="1600" height="1600"/>
		</defs>
		<clipPath id="SVGID_4_">
			<use xlink:href="#SVGID_3_"  overflow="visible"/>
		</clipPath>
		<path clip-path="url(#SVGID_4_)" fill="#2F354D" d="M754.001,413.591c-21.847,0-39.558,4.62-39.558,10.32v74.663
			c0,5.7,17.711,10.32,39.558,10.32c21.848,0,39.558-4.62,39.558-10.32v-74.663C793.559,418.211,775.849,413.591,754.001,413.591"/>
		<path clip-path="url(#SVGID_4_)" fill="#2F354D" d="M793.56,423.911c0,5.699-17.711,10.32-39.558,10.32
			c-21.848,0-39.559-4.621-39.559-10.32c0-5.699,17.711-10.32,39.559-10.32C775.848,413.591,793.56,418.212,793.56,423.911"/>
		
			<ellipse clip-path="url(#SVGID_4_)" fill="none" stroke="#FFFFFF" stroke-width="1.72" stroke-miterlimit="10" cx="754.001" cy="423.911" rx="39.559" ry="10.32"/>
		<path clip-path="url(#SVGID_4_)" fill="#2F354D" d="M853.244,413.591c-21.848,0-39.558,4.62-39.558,10.32v74.663
			c0,5.7,17.71,10.32,39.558,10.32s39.559-4.62,39.559-10.32v-74.663C892.803,418.211,875.092,413.591,853.244,413.591"/>
		<path clip-path="url(#SVGID_4_)" fill="#2F354D" d="M892.803,423.911c0,5.699-17.711,10.32-39.558,10.32
			c-21.849,0-39.56-4.621-39.56-10.32c0-5.699,17.711-10.32,39.56-10.32C875.092,413.591,892.803,418.212,892.803,423.911"/>
		
			<ellipse clip-path="url(#SVGID_4_)" fill="none" stroke="#FFFFFF" stroke-width="1.72" stroke-miterlimit="10" cx="853.244" cy="423.911" rx="39.559" ry="10.32"/>
		<path clip-path="url(#SVGID_4_)" fill="#2F354D" d="M1008.473,509.694h-90.734c-1.291,0-2.349-1.057-2.349-2.349v-90.734
			c0-1.292,1.058-2.349,2.349-2.349h90.734c1.292,0,2.349,1.057,2.349,2.349v90.734
			C1010.821,508.637,1009.765,509.694,1008.473,509.694"/>
		<path clip-path="url(#SVGID_4_)" fill="#2F354D" d="M1123.852,509.694h-90.732c-1.292,0-2.351-1.057-2.351-2.349v-90.734
			c0-1.292,1.059-2.349,2.351-2.349h90.732c1.292,0,2.35,1.057,2.35,2.349v90.734
			C1126.201,508.637,1125.144,509.694,1123.852,509.694"/>
		<path clip-path="url(#SVGID_4_)" fill="#2F354D" d="M1238.813,509.694h-90.732c-1.292,0-2.35-1.057-2.35-2.349v-90.734
			c0-1.292,1.058-2.349,2.35-2.349h90.732c1.293,0,2.35,1.057,2.35,2.349v90.734
			C1241.162,508.637,1240.105,509.694,1238.813,509.694"/>
		
			<rect x="528.473" y="566.911" clip-path="url(#SVGID_4_)" fill="none" stroke="#030404" stroke-width="2.216" stroke-miterlimit="10" width="740.126" height="146.253"/>
		
			<circle clip-path="url(#SVGID_4_)" fill="none" stroke="#23B0E6" stroke-width="3.324" stroke-miterlimit="10" cx="821.744" cy="640.591" r="36.376"/>
		
			<circle clip-path="url(#SVGID_4_)" fill="none" stroke="#DFE6EB" stroke-width="3.324" stroke-miterlimit="10" cx="901.353" cy="640.591" r="36.375"/>
		
			<circle clip-path="url(#SVGID_4_)" fill="none" stroke="#DFE6EB" stroke-width="3.324" stroke-miterlimit="10" cx="980.961" cy="640.591" r="36.375"/>
		
			<circle clip-path="url(#SVGID_4_)" fill="none" stroke="#DFE6EB" stroke-width="3.324" stroke-miterlimit="10" cx="1060.571" cy="640.591" r="36.375"/>
		
			<circle clip-path="url(#SVGID_4_)" fill="none" stroke="#DFE6EB" stroke-width="3.324" stroke-miterlimit="10" cx="1140.179" cy="640.591" r="36.375"/>
		
			<circle clip-path="url(#SVGID_4_)" fill="none" stroke="#DFE6EB" stroke-width="3.324" stroke-miterlimit="10" cx="1219.788" cy="640.591" r="36.375"/>
		
			<circle clip-path="url(#SVGID_4_)" fill="none" stroke="#23B0E6" stroke-width="3.324" stroke-miterlimit="10" cx="742.136" cy="640.591" r="36.375"/>
		<rect x="721.625" y="639.485" clip-path="url(#SVGID_4_)" fill="#00AED1" width="3.05" height="2.985"/>
		<path clip-path="url(#SVGID_4_)" fill="#00AED1" d="M724.87,643.704c0.13,0.065,0.324,0.065,0.584,0.065
			c0.584,0,1.038-0.13,1.038-0.909v-10.449h2.791v10.579c0,2.077-0.779,3.05-3.569,3.05c-0.325,0-0.584,0-0.909-0.065v-2.271H724.87
			z M729.283,630.854h-2.726v-2.271h2.791v2.271H729.283z"/>
		<path clip-path="url(#SVGID_4_)" fill="#00AED1" d="M731.035,635.526c0.13-2.596,2.466-3.374,4.738-3.374
			c2.011,0,4.413,0.454,4.413,2.855v5.257c0,0.908,0.065,1.817,0.324,2.271h-2.79c-0.13-0.324-0.195-0.649-0.195-0.973
			c-0.909,0.908-2.142,1.233-3.375,1.233c-1.947,0-3.439-0.974-3.439-2.986c0.065-4.542,6.814-2.141,6.684-4.413
			c0-1.168-0.844-1.362-1.817-1.362c-1.038,0-1.752,0.454-1.817,1.492H731.035z M737.46,637.538
			c-0.454,0.389-1.428,0.454-2.271,0.584c-0.844,0.13-1.623,0.454-1.623,1.493c0,1.038,0.779,1.298,1.688,1.298
			c2.141,0,2.206-1.688,2.206-2.337V637.538z"/>
		<polygon clip-path="url(#SVGID_4_)" fill="#00AED1" points="747.325,642.47 744.274,642.47 740.834,632.411 743.755,632.411 
			745.832,639.29 745.896,639.29 748.039,632.411 750.765,632.411 		"/>
		<path clip-path="url(#SVGID_4_)" fill="#00AED1" d="M751.088,635.526c0.13-2.596,2.466-3.374,4.738-3.374
			c2.011,0,4.413,0.454,4.413,2.855v5.257c0,0.908,0.065,1.817,0.324,2.271h-2.79c-0.13-0.324-0.195-0.649-0.195-0.973
			c-0.909,0.908-2.142,1.233-3.375,1.233c-1.947,0-3.439-0.974-3.439-2.986c0.064-4.542,6.814-2.141,6.684-4.413
			c0-1.168-0.844-1.362-1.817-1.362c-1.038,0-1.752,0.454-1.817,1.492H751.088z M757.449,637.538
			c-0.454,0.389-1.428,0.454-2.271,0.584c-0.844,0.13-1.623,0.454-1.623,1.493c0,1.038,0.779,1.298,1.688,1.298
			c2.141,0,2.271-1.688,2.271-2.337v-1.038H757.449z"/>
		<rect x="730.646" y="645.456" clip-path="url(#SVGID_4_)" fill="#00AED1" width="1.493" height="7.398"/>
		<path clip-path="url(#SVGID_4_)" fill="#00AED1" d="M734.605,646.689h-1.493v-1.233h1.493V646.689z M733.112,647.467h1.493v5.386
			h-1.493V647.467z"/>
		<path clip-path="url(#SVGID_4_)" fill="#00AED1" d="M735.643,645.456h1.493v2.725c0.389-0.519,1.038-0.778,1.688-0.778
			c1.038,0,2.207,0.843,2.207,2.855c0,2.012-1.169,2.856-2.207,2.856c-0.779,0-1.428-0.26-1.752-0.844v0.714h-1.428V645.456z
			 M738.304,648.441c-0.844,0-1.233,0.779-1.233,1.752c0,0.909,0.389,1.688,1.233,1.688c0.844,0,1.233-0.844,1.233-1.688
			C739.602,649.285,739.213,648.441,738.304,648.441"/>
		<path clip-path="url(#SVGID_4_)" fill="#00AED1" d="M743.042,650.518c0.065,0.973,0.519,1.362,1.298,1.362
			c0.584,0,1.038-0.389,1.168-0.713h1.298c-0.39,1.297-1.298,1.817-2.531,1.817c-1.687,0-2.726-1.169-2.726-2.856
			c0-1.622,1.103-2.855,2.726-2.855c1.817,0,2.726,1.557,2.596,3.18h-3.829V650.518z M745.442,649.609
			c-0.13-0.779-0.454-1.168-1.168-1.168c-0.974,0-1.168,0.714-1.233,1.168H745.442z"/>
		<path clip-path="url(#SVGID_4_)" fill="#00AED1" d="M747.714,647.468h1.428v0.973c0.259-0.649,0.973-1.168,1.687-1.168
			c0.13,0,0.195,0,0.325,0.065v1.363c-0.13,0-0.325-0.065-0.52-0.065c-1.103,0-1.427,0.779-1.427,1.752v2.402h-1.493V647.468z"/>
		<path clip-path="url(#SVGID_4_)" fill="#00AED1" d="M754.139,647.468h1.103v0.973h-1.103v2.661c0,0.519,0.13,0.649,0.649,0.649
			c0.195,0,0.324,0,0.454-0.065v1.168c-0.259,0.065-0.584,0.065-0.908,0.065c-0.909,0-1.688-0.194-1.688-1.298v-3.18h-0.908v-0.973
			h0.908v-1.622h1.493V647.468z"/>
		<path clip-path="url(#SVGID_4_)" fill="#00AED1" d="M758.941,653.568c-0.325,0.844-0.844,1.233-1.817,1.233
			c-0.325,0-0.584,0-0.909-0.065v-1.233c0.26,0,0.584,0.065,0.844,0.065c0.389-0.065,0.584-0.325,0.584-0.649
			c0-0.13,0-0.26-0.065-0.324l-1.882-5.062h1.558l1.233,3.699l1.168-3.699h1.557L758.941,653.568z"/>
		<rect x="808.903" y="643.466" clip-path="url(#SVGID_4_)" fill="#F19025" width="3.612" height="3.486"/>
		<path clip-path="url(#SVGID_4_)" fill="#F19025" d="M813.403,648.346c0.189,0.064,0.38,0.064,0.696,0.064
			c0.635,0,1.269-0.191,1.269-1.078v-12.169h3.231v12.359c0,2.409-0.887,3.55-4.183,3.55c-0.317,0-0.697,0-1.077-0.064v-2.662
			H813.403z M818.6,633.325h-3.231v-2.662h3.231V633.325z"/>
		<path clip-path="url(#SVGID_4_)" fill="#F19025" d="M823.544,643.149c0,1.394,1.204,1.965,2.472,1.965
			c0.887,0,2.091-0.381,2.091-1.521c0-0.951-1.394-1.331-3.676-1.838c-1.901-0.444-3.739-1.078-3.739-3.169
			c0-3.043,2.599-3.803,5.135-3.803c2.534,0,4.942,0.887,5.196,3.739h-3.105c-0.063-1.267-1.077-1.584-2.218-1.584
			c-0.762,0-1.775,0.127-1.775,1.077c0,1.141,1.838,1.331,3.676,1.775c1.902,0.444,3.74,1.141,3.74,3.296
			c0,3.105-2.727,4.119-5.388,4.119c-2.726,0-5.45-1.014-5.515-4.183h3.106V643.149z"/>
		<rect x="885.964" y="643.821" clip-path="url(#SVGID_4_)" fill="#7E277D" width="3.678" height="3.549"/>
		<path clip-path="url(#SVGID_4_)" fill="#7E277D" d="M902.676,646.596c0,2-0.71,5.291-6.195,5.291
			c-2.387,0-5.097-1.162-5.291-3.872h3.227c0.323,1.226,1.291,1.678,2.452,1.678c1.807,0,2.646-1.226,2.646-2.968v-1.549h-0.064
			c-0.709,1.291-2.129,1.871-3.613,1.871c-3.613,0-5.162-2.71-5.162-6.065c0-3.097,1.807-5.936,5.162-5.936
			c1.549,0,2.775,0.516,3.549,1.935h0.064v-1.613h3.162v11.228H902.676z M899.514,641.24c0-1.936-0.645-3.678-2.839-3.678
			c-1.871,0-2.646,1.613-2.646,3.42c0,1.742,0.646,3.613,2.646,3.613C898.611,644.531,899.514,642.918,899.514,641.24"/>
		<path clip-path="url(#SVGID_4_)" fill="#7E277D" d="M910.548,635.045c3.807,0,6.194,2.516,6.194,6.323
			c0,3.807-2.452,6.324-6.194,6.324s-6.194-2.517-6.194-6.324C904.354,637.562,906.806,635.045,910.548,635.045 M910.548,645.24
			c2.258,0,2.904-1.936,2.904-3.807c0-1.936-0.646-3.872-2.904-3.872s-2.904,1.936-2.904,3.872
			C907.644,643.305,908.354,645.24,910.548,645.24"/>
		<rect x="958.589" y="643.683" clip-path="url(#SVGID_4_)" fill="#E62033" width="3.604" height="3.531"/>
		<path clip-path="url(#SVGID_4_)" fill="#E62033" d="M964.137,635.324h3.099v1.514h0.072c0.792-1.297,2.089-1.874,3.53-1.874
			c3.747,0,5.404,3.026,5.404,6.413c0,3.17-1.729,6.125-5.26,6.125c-1.441,0-2.739-0.649-3.603-1.802v5.693h-3.243V635.324z
			 M972.928,641.305c0-1.945-0.793-3.819-2.882-3.819c-2.162,0-2.811,1.946-2.811,3.819c0,1.945,0.72,3.747,2.882,3.747
			C972.279,645.124,972.928,643.25,972.928,641.305"/>
		<path clip-path="url(#SVGID_4_)" fill="#E62033" d="M977.899,630.785h3.242v6.197h0.073c0.863-1.369,2.232-2.018,3.457-2.018
			c3.46,0,4.323,1.946,4.323,4.9v7.349h-3.242v-6.701c0-1.945-0.575-2.954-2.09-2.954c-1.801,0-2.521,1.009-2.521,3.387v6.268
			h-3.242V630.785z"/>
		<path clip-path="url(#SVGID_4_)" fill="#E62033" d="M991.229,635.324h3.099v1.514h0.072c0.792-1.297,2.089-1.874,3.529-1.874
			c3.747,0,5.404,3.026,5.404,6.413c0,3.17-1.729,6.125-5.26,6.125c-1.441,0-2.738-0.649-3.602-1.802H994.4v5.693h-3.243v-16.069
			H991.229z M1000.092,641.305c0-1.945-0.793-3.819-2.882-3.819c-2.162,0-2.81,1.946-2.81,3.819c0,1.945,0.72,3.747,2.882,3.747
			C999.371,645.124,1000.092,643.25,1000.092,641.305"/>
		<rect x="1044.839" y="643.692" clip-path="url(#SVGID_4_)" fill="#865DA7" width="3.839" height="3.77"/>
		<path clip-path="url(#SVGID_4_)" fill="#865DA7" d="M1050.46,634.713h3.358v1.646h0.069c0.891-1.371,2.192-1.988,3.77-1.988
			c3.976,0,5.826,3.222,5.826,6.855c0,3.427-1.851,6.58-5.621,6.58c-1.575,0-2.946-0.686-3.838-1.919h-0.069v6.1h-3.495V634.713z
			 M1059.987,641.156c0-2.056-0.823-4.113-3.084-4.113c-2.263,0-3.016,2.057-3.016,4.113c0,2.056,0.822,4.044,3.084,4.044
			S1059.987,643.212,1059.987,641.156"/>
		<path clip-path="url(#SVGID_4_)" fill="#865DA7" d="M1071.023,649.039c-0.754,2.056-1.988,2.879-4.387,2.879
			c-0.686,0-1.439-0.069-2.125-0.137v-2.879c0.686,0.068,1.371,0.137,2.057,0.137c0.891-0.069,1.371-0.823,1.371-1.577
			c0-0.274-0.069-0.548-0.138-0.822l-4.524-11.996h3.771l2.879,8.706l2.741-8.637h3.634L1071.023,649.039z"/>
		<rect x="1128.49" y="638.779" clip-path="url(#SVGID_4_)" fill="#8CC640" width="3.165" height="3.054"/>
		<path clip-path="url(#SVGID_4_)" fill="#8CC640" d="M1133.71,631.504h2.721v1.888h0.056c0.556-1.277,1.889-2.221,3.276-2.221
			c0.222,0,0.444,0.055,0.611,0.111v2.665c-0.278-0.055-0.667-0.111-1-0.111c-2.11,0-2.776,1.5-2.776,3.332v4.665h-2.832v-10.329
			H1133.71z"/>
		<path clip-path="url(#SVGID_4_)" fill="#8CC640" d="M1141.706,627.562h2.832v5.22h0.056c0.722-1.055,1.999-1.555,3.276-1.555
			c2.055,0,4.275,1.666,4.275,5.442s-2.221,5.442-4.275,5.442c-1.5,0-2.776-0.444-3.388-1.611h-0.055v1.333h-2.722V627.562z
			 M1146.87,633.336c-1.666,0-2.442,1.555-2.442,3.332c0,1.721,0.722,3.276,2.442,3.276c1.666,0,2.443-1.555,2.443-3.276
			C1149.313,634.892,1148.536,633.336,1146.87,633.336"/>
		<path clip-path="url(#SVGID_4_)" fill="#8CC640" d="M1127.99,645.998c1.443,0,2.388,0.944,2.388,2.443
			c0,1.444-0.944,2.444-2.388,2.444c-1.444,0-2.389-0.944-2.389-2.444C1125.602,646.942,1126.546,645.998,1127.99,645.998
			 M1127.99,649.885c0.888,0,1.111-0.722,1.111-1.444c0-0.722-0.278-1.499-1.111-1.499s-1.111,0.722-1.111,1.499
			C1126.879,649.163,1127.157,649.885,1127.99,649.885"/>
		<path clip-path="url(#SVGID_4_)" fill="#8CC640" d="M1130.988,646.108h1.223v0.666c0.333-0.499,0.888-0.777,1.388-0.777
			c1.333,0,1.666,0.777,1.666,1.888v2.832h-1.277v-2.61c0-0.777-0.223-1.111-0.833-1.111c-0.667,0-1,0.389-1,1.333v2.388h-1.166
			V646.108z"/>
		<path clip-path="url(#SVGID_4_)" fill="#8CC640" d="M1138.264,646.108h1.222v0.833c0.222-0.555,0.833-1,1.442-1
			c0.111,0,0.168,0,0.278,0.056v1.166c-0.11,0-0.278-0.055-0.444-0.055c-0.943,0-1.222,0.666-1.222,1.499v2.055h-1.276V646.108z"/>
		<path clip-path="url(#SVGID_4_)" fill="#8CC640" d="M1141.539,647.552c0.056-1.166,1.111-1.555,2.166-1.555
			c0.889,0,1.999,0.222,1.999,1.333v2.388c0,0.444,0.056,0.833,0.167,0.999h-1.277c-0.056-0.166-0.056-0.277-0.11-0.444
			c-0.39,0.444-1,0.555-1.556,0.555c-0.889,0-1.555-0.444-1.555-1.388c0-2.11,3.11-0.944,3.054-1.999
			c0-0.555-0.389-0.611-0.833-0.611c-0.5,0-0.776,0.222-0.833,0.666h-1.222V647.552z M1144.427,648.497
			c-0.222,0.167-0.666,0.222-1.055,0.278c-0.389,0.055-0.722,0.166-0.722,0.666c0,0.444,0.389,0.611,0.776,0.611
			c1,0,1-0.778,1-1.055V648.497z"/>
		<path clip-path="url(#SVGID_4_)" fill="#8CC640" d="M1147.87,645.387h-1.277v-1.055h1.277V645.387z M1146.593,646.109h1.277v4.609
			h-1.277V646.109z"/>
		<rect x="1148.759" y="644.387" clip-path="url(#SVGID_4_)" fill="#8CC640" width="1.277" height="6.331"/>
		<path clip-path="url(#SVGID_4_)" fill="#8CC640" d="M1151.813,649.218c0,0.555,0.5,0.777,0.944,0.777
			c0.333,0,0.833-0.166,0.833-0.61c0-0.389-0.555-0.5-1.444-0.722c-0.722-0.167-1.444-0.389-1.444-1.222c0-1.166,1-1.499,2-1.499
			s1.943,0.333,2,1.443h-1.223c-0.056-0.499-0.389-0.61-0.889-0.61c-0.277,0-0.721,0.055-0.721,0.444c0,0.444,0.721,0.5,1.442,0.666
			c0.722,0.167,1.444,0.445,1.444,1.277c0,1.222-1.055,1.611-2.11,1.611c-1.055,0-2.11-0.389-2.166-1.611h1.333V649.218z"/>
		<rect x="1208.127" y="638.805" clip-path="url(#SVGID_4_)" fill="#068AC0" width="3.173" height="3.061"/>
		<path clip-path="url(#SVGID_4_)" fill="#068AC0" d="M1213.359,631.514h2.727v1.892h0.056c0.558-1.28,1.894-2.226,3.284-2.226
			c0.223,0,0.445,0.056,0.612,0.111v2.672c-0.278-0.056-0.668-0.111-1.002-0.111c-2.115,0-2.783,1.503-2.783,3.339v4.676h-2.838
			v-10.353H1213.359z"/>
		<path clip-path="url(#SVGID_4_)" fill="#068AC0" d="M1221.375,627.562h2.838v5.232h0.056c0.724-1.057,2.004-1.558,3.284-1.558
			c2.059,0,4.286,1.67,4.286,5.455c0,3.785-2.228,5.454-4.286,5.454c-1.503,0-2.783-0.445-3.396-1.614h-0.056v1.336h-2.727V627.562z
			 M1226.551,633.351c-1.67,0-2.449,1.558-2.449,3.34c0,1.725,0.724,3.284,2.449,3.284c1.67,0,2.449-1.559,2.449-3.284
			C1229,634.909,1228.221,633.351,1226.551,633.351"/>
		<path clip-path="url(#SVGID_4_)" fill="#068AC0" d="M1207.069,649.27c0,0.557,0.501,0.779,0.946,0.779
			c0.334,0,0.834-0.167,0.834-0.612c0-0.39-0.557-0.501-1.446-0.724c-0.724-0.167-1.447-0.389-1.447-1.224
			c0-1.169,1.002-1.503,2.004-1.503c1.001,0,1.948,0.334,2.003,1.447h-1.224c-0.056-0.501-0.39-0.612-0.892-0.612
			c-0.277,0-0.723,0.056-0.723,0.445c0,0.445,0.723,0.501,1.447,0.668c0.723,0.167,1.447,0.445,1.447,1.28
			c0,1.225-1.059,1.614-2.115,1.614c-1.059,0-2.115-0.389-2.171-1.614h1.336V649.27z"/>
		<path clip-path="url(#SVGID_4_)" fill="#068AC0" d="M1212.023,645.429h-1.28v-1.058h1.28V645.429z M1210.743,646.153h1.28v4.62
			h-1.28V646.153z"/>
		<path clip-path="url(#SVGID_4_)" fill="#068AC0" d="M1212.857,646.152h1.226v0.668c0.334-0.501,0.89-0.779,1.391-0.779
			c1.336,0,1.67,0.779,1.67,1.892v2.839h-1.279v-2.616c0-0.779-0.224-1.113-0.835-1.113c-0.668,0-1.002,0.389-1.002,1.335v2.394
			h-1.17V646.152z"/>
		<path clip-path="url(#SVGID_4_)" fill="#068AC0" d="M1217.979,647.6c0.055-1.169,1.112-1.559,2.17-1.559
			c0.891,0,2.004,0.223,2.004,1.336v2.394c0,0.445,0.056,0.834,0.167,1.001h-1.28c-0.056-0.167-0.056-0.278-0.111-0.445
			c-0.39,0.445-1.002,0.557-1.559,0.557c-0.89,0-1.558-0.445-1.558-1.392c0-2.115,3.116-0.946,3.061-2.004
			c0-0.556-0.39-0.612-0.835-0.612c-0.501,0-0.779,0.223-0.835,0.668h-1.224V647.6z M1220.873,648.546
			c-0.223,0.167-0.668,0.223-1.058,0.278c-0.39,0.056-0.724,0.223-0.724,0.668c0,0.446,0.39,0.613,0.779,0.613
			c1.002,0,1.002-0.78,1.002-1.058V648.546z"/>
		<path clip-path="url(#SVGID_4_)" fill="#068AC0" d="M1224.603,646.152h0.946v0.835h-0.946v2.282c0,0.445,0.11,0.557,0.557,0.557
			c0.167,0,0.278,0,0.39-0.056v1.002c-0.223,0.056-0.502,0.056-0.724,0.056c-0.78,0-1.447-0.167-1.447-1.114v-2.727h-0.779v-0.835
			h0.779v-1.391h1.28v1.391H1224.603z"/>
		<path clip-path="url(#SVGID_4_)" fill="#068AC0" d="M1226.217,646.152h1.224v0.835c0.224-0.557,0.835-1.002,1.448-1.002
			c0.111,0,0.167,0,0.278,0.056v1.169c-0.111,0-0.278-0.056-0.445-0.056c-0.947,0-1.226,0.668-1.226,1.503v2.059h-1.279V646.152z"/>
		<path clip-path="url(#SVGID_4_)" fill="#068AC0" d="M1229.501,647.6c0.055-1.169,1.113-1.559,2.17-1.559
			c0.892,0,2.004,0.223,2.004,1.336v2.394c0,0.445,0.056,0.834,0.167,1.001h-1.279c-0.057-0.167-0.057-0.278-0.111-0.445
			c-0.391,0.445-1.002,0.557-1.56,0.557c-0.89,0-1.558-0.445-1.558-1.392c0-2.115,3.117-0.946,3.061-2.004
			c0-0.556-0.39-0.612-0.835-0.612c-0.501,0-0.778,0.223-0.835,0.668h-1.224V647.6z M1232.395,648.546
			c-0.223,0.167-0.668,0.223-1.058,0.278c-0.389,0.056-0.723,0.223-0.723,0.668c0,0.446,0.389,0.613,0.778,0.613
			c1.002,0,1.002-0.78,1.002-1.058V648.546z"/>
		<rect x="1336.186" y="160.657" clip-path="url(#SVGID_4_)" fill="#EDF8FC" width="35.455" height="828.67"/>
		
			<line clip-path="url(#SVGID_4_)" fill="none" stroke="#48C1F0" stroke-width="3.324" stroke-miterlimit="10" x1="1336.187" y1="160.656" x2="1336.187" y2="162.873"/>
		
			<line clip-path="url(#SVGID_4_)" fill="none" stroke="#48C1F0" stroke-width="3.324" stroke-miterlimit="10" stroke-dasharray="4.455,4.455" x1="1336.187" y1="167.328" x2="1336.187" y2="984.883"/>
		
			<line clip-path="url(#SVGID_4_)" fill="none" stroke="#48C1F0" stroke-width="3.324" stroke-miterlimit="10" x1="1336.187" y1="987.11" x2="1336.187" y2="989.327"/>
		
			<line clip-path="url(#SVGID_4_)" fill="none" stroke="#48C1F0" stroke-width="3.324" stroke-miterlimit="10" x1="1371.642" y1="160.656" x2="1371.642" y2="162.873"/>
		
			<line clip-path="url(#SVGID_4_)" fill="none" stroke="#48C1F0" stroke-width="3.324" stroke-miterlimit="10" stroke-dasharray="4.455,4.455" x1="1371.642" y1="167.328" x2="1371.642" y2="984.883"/>
		
			<line clip-path="url(#SVGID_4_)" fill="none" stroke="#48C1F0" stroke-width="3.324" stroke-miterlimit="10" x1="1371.642" y1="987.11" x2="1371.642" y2="989.327"/>
		<rect x="425.431" y="160.657" clip-path="url(#SVGID_4_)" fill="#EDF8FC" width="35.455" height="828.67"/>
		
			<line clip-path="url(#SVGID_4_)" fill="none" stroke="#48C1F0" stroke-width="3.324" stroke-miterlimit="10" stroke-dasharray="4.432,4.432" x1="425.431" y1="160.656" x2="425.431" y2="989.326"/>
		
			<line clip-path="url(#SVGID_4_)" fill="none" stroke="#48C1F0" stroke-width="3.324" stroke-miterlimit="10" stroke-dasharray="4.432,4.432" x1="460.886" y1="160.656" x2="460.886" y2="989.326"/>
		<rect x="353.992" y="160.657" clip-path="url(#SVGID_4_)" fill="#EDF8FC" width="35.455" height="828.67"/>
		<rect x="266.623" y="1293.364" clip-path="url(#SVGID_4_)" fill="#CED5DE" width="1105.018" height="35.455"/>
		<rect x="1387.617" y="1293.364" clip-path="url(#SVGID_4_)" fill="#CED5DE" width="198.812" height="35.455"/>
		
			<line clip-path="url(#SVGID_4_)" fill="none" stroke="#48C1F0" stroke-width="3.324" stroke-miterlimit="10" stroke-dasharray="4.432,4.432" x1="353.992" y1="160.656" x2="353.992" y2="989.326"/>
		
			<line clip-path="url(#SVGID_4_)" fill="none" stroke="#48C1F0" stroke-width="3.324" stroke-miterlimit="10" stroke-dasharray="4.432,4.432" x1="389.447" y1="160.656" x2="389.447" y2="989.326"/>
		<g opacity="0.5" clip-path="url(#SVGID_4_)">
			<g>
				<defs>
					<rect id="SVGID_5_" x="280.865" y="160.66" width="35.455" height="828.667"/>
				</defs>
				<clipPath id="SVGID_6_">
					<use xlink:href="#SVGID_5_"  overflow="visible"/>
				</clipPath>
				<rect x="280.865" y="160.657" clip-path="url(#SVGID_6_)" fill="#E62033" width="35.455" height="828.67"/>
			</g>
		</g>
		<g opacity="0.8" clip-path="url(#SVGID_4_)">
			<g>
				<defs>
					<rect id="SVGID_7_" x="279.203" y="160.66" width="3.324" height="828.667"/>
				</defs>
				<clipPath id="SVGID_8_">
					<use xlink:href="#SVGID_7_"  overflow="visible"/>
				</clipPath>
				
					<line clip-path="url(#SVGID_8_)" fill="none" stroke="#E62033" stroke-width="3.324" stroke-miterlimit="10" stroke-dasharray="4.432,4.432" x1="280.865" y1="160.656" x2="280.865" y2="989.326"/>
			</g>
		</g>
		<g opacity="0.8" clip-path="url(#SVGID_4_)">
			<g>
				<defs>
					<rect id="SVGID_9_" x="314.658" y="160.66" width="3.324" height="828.667"/>
				</defs>
				<clipPath id="SVGID_10_">
					<use xlink:href="#SVGID_9_"  overflow="visible"/>
				</clipPath>
				
					<line clip-path="url(#SVGID_10_)" fill="none" stroke="#E62033" stroke-width="3.324" stroke-miterlimit="10" stroke-dasharray="4.432,4.432" x1="316.32" y1="160.656" x2="316.32" y2="989.326"/>
			</g>
		</g>
		<polygon clip-path="url(#SVGID_4_)" fill="#325D80" points="1455.442,502.5 1431.229,458.5 1455.442,414.5 1503.87,414.5 
			1528.085,458.5 1503.87,502.5 		"/>
		<polygon clip-path="url(#SVGID_4_)" fill="#325D80" points="1455.442,603.5 1431.229,559.5 1455.442,515.5 1503.87,515.5 
			1528.085,559.5 1503.87,603.5 		"/>
		<polygon clip-path="url(#SVGID_4_)" fill="#325D80" points="1455.442,706.5 1431.229,664 1455.442,621.5 1503.87,621.5 
			1528.085,664 1503.87,706.5 		"/>
		<polygon clip-path="url(#SVGID_4_)" fill="#325D80" points="1455.442,810.5 1431.229,766.5 1455.442,722.5 1503.87,722.5 
			1528.085,766.5 1503.87,810.5 		"/>
		<polygon clip-path="url(#SVGID_4_)" fill="#325D80" points="1455.442,913.5 1431.229,870.5 1455.442,827.5 1503.87,827.5 
			1528.085,870.5 1503.87,913.5 		"/>
		
			<rect x="1396.927" y="334.975" clip-path="url(#SVGID_4_)" fill="none" stroke="#030404" stroke-width="2.216" stroke-miterlimit="10" width="165.458" height="602.86"/>
		<path clip-path="url(#SVGID_4_)" d="M538.375,632.411c0,5.469-4.433,9.903-9.903,9.903c-5.469,0-9.902-4.434-9.902-9.903
			c0-5.469,4.433-9.903,9.902-9.903C533.941,622.508,538.375,626.942,538.375,632.411"/>
		<path clip-path="url(#SVGID_4_)" d="M290.768,210.557c0,5.469-4.434,9.902-9.903,9.902c-5.469,0-9.902-4.433-9.902-9.902
			c0-5.469,4.433-9.903,9.902-9.903C286.333,200.654,290.768,205.088,290.768,210.557"/>
		
			<circle clip-path="url(#SVGID_4_)" fill="none" stroke="#000000" stroke-width="2.216" stroke-miterlimit="10" cx="280.865" cy="210.557" r="9.903"/>
		<path clip-path="url(#SVGID_4_)" d="M363.894,321.443c0,5.469-4.434,9.903-9.903,9.903c-5.469,0-9.902-4.434-9.902-9.903
			c0-5.469,4.433-9.902,9.902-9.902C359.46,311.541,363.894,315.974,363.894,321.443"/>
		
			<circle clip-path="url(#SVGID_4_)" fill="none" stroke="#000000" stroke-width="2.216" stroke-miterlimit="10" cx="353.991" cy="321.443" r="9.903"/>
		<path clip-path="url(#SVGID_4_)" d="M1004.344,414.933c0,5.469-4.435,9.902-9.903,9.902s-9.902-4.433-9.902-9.902
			s4.434-9.903,9.902-9.903S1004.344,409.464,1004.344,414.933"/>
		
			<circle clip-path="url(#SVGID_4_)" fill="none" stroke="#FFFFFF" stroke-width="2.216" stroke-miterlimit="10" cx="994.441" cy="414.933" r="9.903"/>
		<path clip-path="url(#SVGID_4_)" fill="#23B0E6" d="M934.929,581.193c0,3.396-2.753,6.149-6.149,6.149s-6.149-2.753-6.149-6.149
			c0-3.396,2.753-6.148,6.149-6.148S934.929,577.798,934.929,581.193"/>
		<path clip-path="url(#SVGID_4_)" fill="#23B0E6" d="M449.308,656.126c0,3.396-2.753,6.149-6.149,6.149
			c-3.397,0-6.15-2.753-6.15-6.149s2.753-6.149,6.15-6.149C446.554,649.978,449.308,652.73,449.308,656.126"/>
		<path clip-path="url(#SVGID_4_)" fill="#23B0E6" d="M377.868,656.126c0,3.396-2.753,6.149-6.149,6.149
			c-3.397,0-6.15-2.753-6.15-6.149s2.753-6.149,6.15-6.149C375.115,649.978,377.868,652.73,377.868,656.126"/>
		<path clip-path="url(#SVGID_4_)" fill="#23B0E6" d="M304.742,656.126c0,3.396-2.753,6.149-6.149,6.149
			c-3.397,0-6.15-2.753-6.15-6.149s2.753-6.149,6.15-6.149C301.989,649.978,304.742,652.73,304.742,656.126"/>
		<path clip-path="url(#SVGID_4_)" fill="#A53724" d="M449.308,460.647c0,3.396-2.753,6.149-6.149,6.149
			c-3.397,0-6.15-2.753-6.15-6.149c0-3.396,2.753-6.149,6.15-6.149C446.554,454.498,449.308,457.251,449.308,460.647"/>
		<path clip-path="url(#SVGID_4_)" fill="#A53724" d="M618.096,282.045c0,3.396-2.753,6.149-6.149,6.149
			c-3.397,0-6.15-2.753-6.15-6.149c0-3.396,2.753-6.148,6.15-6.148C615.343,275.896,618.096,278.649,618.096,282.045"/>
		<path clip-path="url(#SVGID_4_)" fill="#A53724" d="M377.868,460.647c0,3.396-2.753,6.149-6.149,6.149
			c-3.397,0-6.15-2.753-6.15-6.149c0-3.396,2.753-6.149,6.15-6.149C375.115,454.498,377.868,457.251,377.868,460.647"/>
		<path clip-path="url(#SVGID_4_)" fill="#A53724" d="M304.742,460.647c0,3.396-2.753,6.149-6.149,6.149
			c-3.397,0-6.15-2.753-6.15-6.149c0-3.396,2.753-6.149,6.15-6.149C301.989,454.498,304.742,457.251,304.742,460.647"/>
		
			<rect x="465.83" y="37.264" clip-path="url(#SVGID_4_)" fill="none" stroke="#000000" stroke-width="1.708" stroke-miterlimit="10" width="181.867" height="78.297"/>
		
			<rect x="243.564" y="37.264" clip-path="url(#SVGID_4_)" fill="none" stroke="#000000" stroke-width="1.708" stroke-miterlimit="10" width="181.867" height="78.297"/>
		
			<rect x="919.413" y="37.264" clip-path="url(#SVGID_4_)" fill="none" stroke="#000000" stroke-width="1.708" stroke-miterlimit="10" width="152.661" height="55.41"/>
		
			<rect x="81.668" y="200.655" clip-path="url(#SVGID_4_)" fill="none" stroke="#000000" stroke-width="1.708" stroke-miterlimit="10" width="152.662" height="55.41"/>
		
			<rect x="81.668" y="267.624" clip-path="url(#SVGID_4_)" fill="none" stroke="#000000" stroke-width="1.708" stroke-miterlimit="10" width="152.662" height="55.41"/>
		
			<rect x="186.654" y="1071.378" clip-path="url(#SVGID_4_)" fill="none" stroke="#6D7777" stroke-width="2.508" stroke-miterlimit="10" width="152.662" height="55.41"/>
		
			<rect x="27.182" y="1071.378" clip-path="url(#SVGID_4_)" fill="none" stroke="#6D7777" stroke-width="2.508" stroke-miterlimit="10" width="152.662" height="55.41"/>
		
			<line clip-path="url(#SVGID_4_)" fill="none" stroke="#000000" stroke-width="2.216" stroke-miterlimit="10" x1="995.743" y1="414.933" x2="995.743" y2="92.674"/>
		<polyline clip-path="url(#SVGID_4_)" fill="none" stroke="#000000" stroke-width="2.216" stroke-miterlimit="10" points="
			556.125,115.561 527.231,311.339 527.231,632.412 		"/>
		<polyline clip-path="url(#SVGID_4_)" fill="none" stroke="#000000" stroke-width="2.216" stroke-miterlimit="10" points="
			234.33,228.359 257.228,228.359 280.865,210.557 257.597,295.329 234.33,295.329 		"/>
		<polyline clip-path="url(#SVGID_4_)" fill="none" stroke="#000000" stroke-width="2.216" stroke-miterlimit="10" points="
			353.992,321.443 353.992,265.542 334.497,115.561 		"/>
		<polyline clip-path="url(#SVGID_4_)" fill="none" stroke="#23B0E6" stroke-width="2.144" stroke-miterlimit="10" points="
			225.678,640.458 241.347,656.126 225.678,671.795 		"/>
		
			<line clip-path="url(#SVGID_4_)" fill="none" stroke="#23B0E6" stroke-width="2.144" stroke-miterlimit="10" x1="7.315" y1="602.794" x2="7.315" y2="656.127"/>
		
			<line clip-path="url(#SVGID_4_)" fill="none" stroke="#23B0E6" stroke-width="2.144" stroke-miterlimit="10" x1="7.315" y1="656.126" x2="15.796" y2="656.126"/>
		
			<polyline clip-path="url(#SVGID_4_)" fill="none" stroke="#23B0E6" stroke-width="2.144" stroke-miterlimit="10" stroke-dasharray="17.175,17.175" points="
			32.971,656.126 298.593,656.126 371.72,656.126 443.158,656.126 911.91,583.796 		"/>
		
			<line clip-path="url(#SVGID_4_)" fill="none" stroke="#23B0E6" stroke-width="2.144" stroke-miterlimit="10" x1="920.397" y1="582.487" x2="928.779" y2="581.194"/>
		<path clip-path="url(#SVGID_4_)" fill="#91268F" d="M109.663,1126.256c0,3.396-2.753,6.149-6.149,6.149
			c-3.397,0-6.15-2.753-6.15-6.149c0-3.396,2.753-6.148,6.15-6.148C106.91,1120.107,109.663,1122.86,109.663,1126.256"/>
		<path clip-path="url(#SVGID_4_)" fill="#91268F" d="M265.887,1126.256c0,3.396-2.753,6.149-6.149,6.149
			c-3.397,0-6.15-2.753-6.15-6.149c0-3.396,2.753-6.148,6.15-6.148C263.134,1120.107,265.887,1122.86,265.887,1126.256"/>
		
			<line clip-path="url(#SVGID_4_)" fill="none" stroke="#00A6A0" stroke-width="2.144" stroke-miterlimit="10" x1="6.207" y1="849.977" x2="6.207" y2="796.644"/>
		<path clip-path="url(#SVGID_4_)" fill="#00A6A0" d="M1420.967,578.978c0,3.396-2.753,6.149-6.148,6.149
			c-3.397,0-6.15-2.753-6.15-6.149c0-3.396,2.753-6.149,6.15-6.149C1418.214,572.829,1420.967,575.582,1420.967,578.978"/>
		<path clip-path="url(#SVGID_4_)" fill="#00A6A0" d="M1017.529,581.193c0,3.396-2.753,6.149-6.148,6.149
			c-3.397,0-6.15-2.753-6.15-6.149c0-3.396,2.753-6.148,6.15-6.148C1014.776,575.045,1017.529,577.798,1017.529,581.193"/>
		<polyline clip-path="url(#SVGID_4_)" fill="none" stroke="#00A6A0" stroke-width="2.144" stroke-miterlimit="10" points="
			201.294,834.308 216.963,849.977 201.294,865.646 		"/>
		
			<line clip-path="url(#SVGID_4_)" fill="none" stroke="#00A6A0" stroke-width="2.144" stroke-miterlimit="10" x1="1414.818" y1="578.978" x2="1406.337" y2="578.978"/>
		
			<line clip-path="url(#SVGID_4_)" fill="none" stroke="#00A6A0" stroke-width="2.144" stroke-miterlimit="10" stroke-dasharray="16.946,16.946" x1="1389.392" y1="578.978" x2="1025.061" y2="578.978"/>
		<polyline clip-path="url(#SVGID_4_)" fill="none" stroke="#00A6A0" stroke-width="2.144" stroke-miterlimit="10" points="
			1016.588,578.978 1008.107,578.978 1004.035,571.538 		"/>
		
			<line clip-path="url(#SVGID_4_)" fill="none" stroke="#00A6A0" stroke-width="2.144" stroke-miterlimit="10" stroke-dasharray="20.673,20.673" x1="994.11" y1="553.403" x2="979.224" y2="526.201"/>
		<polyline clip-path="url(#SVGID_4_)" fill="none" stroke="#00A6A0" stroke-width="2.144" stroke-miterlimit="10" points="
			974.261,517.134 970.189,509.694 962.503,513.279 		"/>
		
			<polyline clip-path="url(#SVGID_4_)" fill="none" stroke="#00A6A0" stroke-width="2.144" stroke-miterlimit="10" stroke-dasharray="16.746,16.746" points="
			947.326,520.356 240.508,849.978 24.043,849.978 		"/>
		
			<line clip-path="url(#SVGID_4_)" fill="none" stroke="#00A6A0" stroke-width="2.144" stroke-miterlimit="10" x1="15.671" y1="849.977" x2="7.19" y2="849.977"/>
		<path clip-path="url(#SVGID_4_)" fill="#00A6A0" d="M976.339,508.894c0,3.396-2.753,6.149-6.149,6.149s-6.149-2.753-6.149-6.149
			s2.753-6.149,6.149-6.149S976.339,505.498,976.339,508.894"/>
		
			<circle clip-path="url(#SVGID_4_)" fill="none" stroke="#FFFFFF" stroke-width="2.216" stroke-miterlimit="10" cx="970.189" cy="508.894" r="6.149"/>
		<path clip-path="url(#SVGID_4_)" fill="#91268F" d="M1099.12,841.691c0,3.396-2.753,6.149-6.149,6.149s-6.149-2.753-6.149-6.149
			c0-3.396,2.753-6.148,6.149-6.148S1099.12,838.296,1099.12,841.691"/>
		<path clip-path="url(#SVGID_4_)" fill="#91268F" d="M720.363,841.691c0,3.396-2.753,6.149-6.149,6.149
			c-3.397,0-6.15-2.753-6.15-6.149c0-3.396,2.753-6.148,6.15-6.148C717.61,835.543,720.363,838.296,720.363,841.691"/>
	</g>
	<g clip-path="url(#SVGID_2_)">
		<text transform="matrix(1 0 0 1 576.8838 823.5938)" fill="#030404" font-family="'HelveticaNeue-Light'" font-size="28.8074">Bluemix 使用者介面</text>
	</g>
	<g clip-path="url(#SVGID_2_)">
		<text transform="matrix(1 0 0 1 667.3745 294.834)" fill="#030404" font-family="'HelveticaNeue-Light'" font-size="28.8074">「Bluemix 專用」的管理主控台</text>
	</g>
	<g clip-path="url(#SVGID_2_)">
		<text transform="matrix(1 0 0 1 1008.1377 823.5938)" fill="#030404" font-family="'HelveticaNeue-Light'" font-size="28.8074">cf UAA 伺服器</text>
	</g>
	<g clip-path="url(#SVGID_2_)">
		<text transform="matrix(1 0 0 1 552.8652 451.0854)" fill="#030404" font-family="'HelveticaNeue-Light'" font-size="28.8074">cf 控制</text>
	</g>
	<g clip-path="url(#SVGID_2_)">
		<text transform="matrix(1 0 0 1 552.8652 486.5474)" fill="#030404" font-family="'HelveticaNeue-Light'" font-size="28.8074">元素</text>
	</g>
	<g clip-path="url(#SVGID_2_)">
		<text transform="matrix(1 0 0 1 729.8662 461.0698)" fill="#FEFFFF" font-family="'HelveticaNeue-Bold'" font-size="17.7276">Blob </text>
	</g>
	<g clip-path="url(#SVGID_2_)">
		<text transform="matrix(1 0 0 1 729.8662 478.7441)"><tspan x="0" y="0" fill="#FEFFFF" font-family="'HelveticaNeue-Bold'" font-size="17.7276">Sto</tspan><tspan x="26.591" y="0" fill="#FEFFFF" font-family="'HelveticaNeue-Bold'" font-size="17.7276">r</tspan><tspan x="35.136" y="0" fill="#FEFFFF" font-family="'HelveticaNeue-Bold'" font-size="17.7276">e</tspan></text>
	</g>
	<g clip-path="url(#SVGID_2_)">
		<text transform="matrix(1 0 0 1 828.3965 469.0293)" fill="#FEFFFF" font-family="'HelveticaNeue-Bold'" font-size="17.7276">CCDB</text>
	</g>
	<g clip-path="url(#SVGID_2_)">
		<text transform="matrix(1 0 0 1 920.8105 451.6919)" fill="#FEFFFF" font-family="'HelveticaNeue-Bold'" font-size="17.7276">Cloud</text>
	</g>
	<g clip-path="url(#SVGID_2_)">
		<text transform="matrix(1 0 0 1 920.8105 469.3662)"><tspan x="0" y="0" fill="#FEFFFF" font-family="'HelveticaNeue-Bold'" font-size="17.7276">Cont</tspan><tspan x="35.457" y="0" fill="#FEFFFF" font-family="'HelveticaNeue-Bold'" font-size="17.7276">r</tspan><tspan x="44.002" y="0" fill="#FEFFFF" font-family="'HelveticaNeue-Bold'" font-size="17.7276">oller</tspan></text>
	</g>
	<g clip-path="url(#SVGID_2_)">
		<text transform="matrix(1 0 0 1 1038.9111 451.1245)" fill="#FEFFFF" font-family="'HelveticaNeue-Bold'" font-size="17.7276">Health</text>
	</g>
	<g clip-path="url(#SVGID_2_)">
		<text transform="matrix(1 0 0 1 1038.9111 468.7988)" fill="#FEFFFF" font-family="'HelveticaNeue-Bold'" font-size="17.7276">Manager</text>
	</g>
	<g clip-path="url(#SVGID_2_)">
		<text transform="matrix(1 0 0 1 1154.7793 465.1475)" fill="#FEFFFF" font-family="'HelveticaNeue-Bold'" font-size="17.7276">Metering</text>
	</g>
	<g clip-path="url(#SVGID_2_)">
		<text transform="matrix(1 0 0 1 552.8467 604.7012)"><tspan x="0" y="0" fill="#030404" font-family="'HelveticaNeue-Light'" font-size="22.1595">D</tspan><tspan x="11.08" y="0" fill="#030404" font-family="'HelveticaNeue-Light'" font-size="22.1595">r</tspan><tspan x="21.782" y="0" fill="#030404" font-family="'HelveticaNeue-Light'" font-size="22.1595">oplet Execu</tspan></text>
	</g>
	<g clip-path="url(#SVGID_2_)">
		<text transform="matrix(1 0 0 1 686.668 604.7012)" fill="#030404" font-family="'HelveticaNeue-Light'" font-size="22.1595">-</text>
	</g>
	<g clip-path="url(#SVGID_2_)">
		<text transform="matrix(1 0 0 1 552.8467 633.5088)" fill="#030404" font-family="'HelveticaNeue-Light'" font-size="22.1595">tion Agent</text>
	</g>
	<g clip-path="url(#SVGID_2_)">
		
			<text transform="matrix(1 0 0 1 552.8467 662.3159)" fill="#030404" font-family="'HelveticaNeue-LightItalic'" font-size="15.5117">應用程式執行時期</text>
	</g>
	<g clip-path="url(#SVGID_2_)">
		<text transform="matrix(0 -1 1 0 1359.9219 634.5508)" fill="#030404" font-family="'HelveticaNeue-Bold'" font-size="17.7276">安全閘道</text>
	</g>
	<g clip-path="url(#SVGID_2_)">
		<text transform="matrix(0 -1 1 0 449.1665 603.2427)" fill="#030404" font-family="'HelveticaNeue-Bold'" font-size="17.7276">路由器</text>
	</g>
	<g clip-path="url(#SVGID_2_)">
		<text transform="matrix(0 -1 1 0 377.7241 680.2163)" fill="#030404" font-family="'HelveticaNeue-Bold'" font-size="17.7276">IBM DataPower 閘道</text>
	</g>
	<g clip-path="url(#SVGID_2_)">
		<text transform="matrix(0 -1 1 0 304.5977 607.3203)" fill="#030404" font-family="'HelveticaNeue-Bold'" font-size="17.7276">防火牆</text>
	</g>
	<g clip-path="url(#SVGID_2_)">
		
			<text transform="matrix(1 0 0 1.0225 1450.3574 378.5928)" fill="#030404" font-family="'HelveticaNeue-Light'" font-size="28.8075">服務</text>
	</g>
	<g clip-path="url(#SVGID_2_)">
		<text transform="matrix(1 0 0 1 744.6777 1314.8857)" fill="#030404" font-family="'HelveticaNeue-Bold'" font-size="17.7276">VLAN 1</text>
	</g>
	<g clip-path="url(#SVGID_2_)">
		<text transform="matrix(1 0 0 1 1456.1572 1314.8857)" fill="#030404" font-family="'HelveticaNeue-Bold'" font-size="17.7276">VLAN 2</text>
	</g>
	<g clip-path="url(#SVGID_2_)">
		<text transform="matrix(1 0 0 1 493.9028 70.603)" fill="#030404" font-family="'HelveticaNeue-Light'" font-size="17.7276">應用程式儲存器</text>
	</g>
	<g clip-path="url(#SVGID_2_)">
	</g>
	<g clip-path="url(#SVGID_2_)">
		<text transform="matrix(1 0 0 1 540.6143 92.7627)" fill="#030404" font-family="'HelveticaNeue-Light'" font-size="17.7276">隔離</text>
	</g>
	<g clip-path="url(#SVGID_2_)">
		<text transform="matrix(1 0 0 1 971.4492 59.293)" fill="#030404" font-family="'HelveticaNeue-Light'" font-size="17.7276">OAuth </text>
	</g>
	<g clip-path="url(#SVGID_2_)">
		<text transform="matrix(1 0 0 1 978.9922 81.4526)" fill="#030404" font-family="'HelveticaNeue-Light'" font-size="17.7276">授權</text>
	</g>
	<g clip-path="url(#SVGID_2_)">
		<text transform="matrix(1 0 0 1 277.8569 70.6035)"><tspan x="0" y="0" fill="#030404" font-family="'HelveticaNeue-Light'" font-size="17.7276">反向 P</tspan><tspan x="53.183" y="0" fill="#030404" font-family="'HelveticaNeue-Light'" font-size="17.7276">r</tspan><tspan x="61.745" y="0" fill="#030404" font-family="'HelveticaNeue-Light'" font-size="17.7276">ox</tspan><tspan x="79.473" y="0" fill="#030404" font-family="'HelveticaNeue-Light'" font-size="17.7276" letter-spacing="-1">y、</tspan></text>
	</g>
	<g clip-path="url(#SVGID_2_)">
		<text transform="matrix(1 0 0 1 270.6343 92.7627)" fill="#030404" font-family="'HelveticaNeue-Light'" font-size="17.7276">SSL 終止 Proxy</text>
	</g>
	<g clip-path="url(#SVGID_2_)">
		<text transform="matrix(1 0 0 1 144.8643 233.9985)" fill="#030404" font-family="'HelveticaNeue-Light'" font-size="17.7276">IPS</text>
	</g>
	<g clip-path="url(#SVGID_2_)">
		<text transform="matrix(1 0 0 1 123.9683 300.9736)" fill="#030404" font-family="'HelveticaNeue-Light'" font-size="17.7276">網路安全</text>
	</g>
	<g clip-path="url(#SVGID_2_)">
		<text transform="matrix(1 0 0 1 244.0713 1104.7256)" fill="#030404" font-family="'HelveticaNeue-Light'" font-size="17.7276">專用</text>
	</g>
	<g clip-path="url(#SVGID_2_)">
		<text transform="matrix(1 0 0 1 87.1938 1104.7256)" fill="#030404" font-family="'HelveticaNeue-Light'" font-size="17.7276">公用</text>
	</g>
	<g clip-path="url(#SVGID_2_)">
		<defs>
			<rect id="SVGID_11_" width="1600" height="1600"/>
		</defs>
		<clipPath id="SVGID_12_">
			<use xlink:href="#SVGID_11_"  overflow="visible"/>
		</clipPath>
		<path clip-path="url(#SVGID_12_)" d="M269.641,1477.71c0,5.469-4.434,9.903-9.903,9.903c-5.469,0-9.902-4.435-9.902-9.903
			s4.433-9.903,9.902-9.903C265.207,1467.807,269.641,1472.241,269.641,1477.71"/>
		
			<circle clip-path="url(#SVGID_12_)" fill="none" stroke="#000000" stroke-width="2.216" stroke-miterlimit="10" cx="259.738" cy="1477.71" r="9.903"/>
		<path clip-path="url(#SVGID_12_)" d="M1596.332,1477.71c0,5.469-4.434,9.903-9.902,9.903s-9.903-4.435-9.903-9.903
			s4.435-9.903,9.903-9.903S1596.332,1472.241,1596.332,1477.71"/>
		
			<circle clip-path="url(#SVGID_12_)" fill="none" stroke="#000000" stroke-width="2.216" stroke-miterlimit="10" cx="1586.429" cy="1477.71" r="9.903"/>
		
			<rect x="262.954" y="1504.965" clip-path="url(#SVGID_12_)" fill="none" stroke="#000000" stroke-width="2.208" stroke-miterlimit="10" width="1323.475" height="55.41"/>
		<line clip-path="url(#SVGID_12_)" fill="#2F354D" x1="259.738" y1="1477.71" x2="1586.429" y2="1477.71"/>
		
			<line clip-path="url(#SVGID_12_)" fill="none" stroke="#000000" stroke-width="2.216" stroke-miterlimit="10" x1="259.738" y1="1477.71" x2="1586.429" y2="1477.71"/>
	</g>
	<g clip-path="url(#SVGID_2_)">
		<text transform="matrix(1 0 0 1 284.7363 1538.3057)"><tspan x="0" y="0" fill="#030404" font-family="'HelveticaNeue-Light'" font-size="17.7276">作業安全服務（IBM Endpoint Manage</tspan><tspan x="292.504" y="0" fill="#030404" font-family="'HelveticaNeue-Light'" font-size="17.7276" letter-spacing="-1">r、</tspan><tspan x="315.869" y="0" fill="#030404" font-family="'HelveticaNeue-Light'" font-size="17.7276">QRada</tspan><tspan x="360.188" y="0" fill="#030404" font-family="'HelveticaNeue-Light'" font-size="17.7276" letter-spacing="-1">r、</tspan><tspan x="383.553" y="0" fill="#030404" font-family="'HelveticaNeue-Light'" font-size="17.7276">Nessus、User Access Management）</tspan></text>
	</g>
	<g clip-path="url(#SVGID_2_)">
		<text transform="matrix(1 0 0 1 18.397 624.7314)" fill="#030404" font-family="'HelveticaNeue-Bold'" font-size="17.7276">應用程式使用者流程</text>
	</g>
	<g clip-path="url(#SVGID_2_)">
		<text transform="matrix(1 0 0 1 27.1899 1054.9453)" fill="#030404" font-family="'HelveticaNeue-Bold'" font-size="17.7276">開發人員登入流程</text>
	</g>
	<g clip-path="url(#SVGID_2_)">
		<text transform="matrix(1 0 0 1 16.3052 820.5625)" fill="#030404" font-family="'HelveticaNeue-Bold'" font-size="17.7276">開發及部署流程</text>
	</g>
	<g clip-path="url(#SVGID_2_)">
	</g>
	<g clip-path="url(#SVGID_2_)">
	</g>
	<g clip-path="url(#SVGID_2_)">
		<defs>
			<rect id="SVGID_13_" width="1600" height="1600"/>
		</defs>
		<clipPath id="SVGID_14_">
			<use xlink:href="#SVGID_13_"  overflow="visible"/>
		</clipPath>
		
			<line clip-path="url(#SVGID_14_)" fill="none" stroke="#91268F" stroke-width="2.135" stroke-miterlimit="10" x1="103.513" y1="1126.256" x2="103.513" y2="1134.703"/>
		
			<line clip-path="url(#SVGID_14_)" fill="none" stroke="#91268F" stroke-width="2.135" stroke-miterlimit="10" stroke-dasharray="15.642,15.642" x1="103.513" y1="1150.345" x2="103.513" y2="1205.091"/>
		<polyline clip-path="url(#SVGID_14_)" fill="none" stroke="#91268F" stroke-width="2.135" stroke-miterlimit="10" points="
			103.513,1212.911 103.513,1221.358 111.96,1221.358 		"/>
		
			<line clip-path="url(#SVGID_14_)" fill="none" stroke="#91268F" stroke-width="2.135" stroke-miterlimit="10" stroke-dasharray="17.063,17.063" x1="129.022" y1="1221.358" x2="1075.992" y2="1221.358"/>
		<polyline clip-path="url(#SVGID_14_)" fill="none" stroke="#91268F" stroke-width="2.135" stroke-miterlimit="10" points="
			1084.523,1221.358 1092.971,1221.358 1092.971,1212.911 		"/>
		
			<line clip-path="url(#SVGID_14_)" fill="none" stroke="#91268F" stroke-width="2.135" stroke-miterlimit="10" stroke-dasharray="17.275,17.275" x1="1092.971" y1="1195.636" x2="1092.971" y2="858.776"/>
		
			<line clip-path="url(#SVGID_14_)" fill="none" stroke="#91268F" stroke-width="2.135" stroke-miterlimit="10" x1="1092.971" y1="850.139" x2="1092.971" y2="841.692"/>
		
			<line clip-path="url(#SVGID_14_)" fill="none" stroke="#91268F" stroke-width="2.135" stroke-miterlimit="10" x1="259.738" y1="1130.504" x2="259.738" y2="1138.951"/>
		<polyline clip-path="url(#SVGID_14_)" fill="none" stroke="#91268F" stroke-width="2.135" stroke-miterlimit="10" points="
			259.738,1161.944 259.738,1170.392 268.185,1170.392 		"/>
		
			<line clip-path="url(#SVGID_14_)" fill="none" stroke="#91268F" stroke-width="2.135" stroke-miterlimit="10" stroke-dasharray="17.512,17.512" x1="285.697" y1="1170.392" x2="697.239" y2="1170.392"/>
		<polyline clip-path="url(#SVGID_14_)" fill="none" stroke="#91268F" stroke-width="2.135" stroke-miterlimit="10" points="
			705.996,1170.392 714.443,1170.392 714.443,1161.944 		"/>
		
			<line clip-path="url(#SVGID_14_)" fill="none" stroke="#91268F" stroke-width="2.135" stroke-miterlimit="10" stroke-dasharray="15.204,15.204" x1="714.443" y1="1146.74" x2="714.443" y2="1032.708"/>
		
			<line clip-path="url(#SVGID_14_)" fill="none" stroke="#91268F" stroke-width="2.135" stroke-miterlimit="10" x1="714.443" y1="1025.105" x2="714.443" y2="1016.658"/>
		
			<line clip-path="url(#SVGID_14_)" fill="none" stroke="#91268F" stroke-width="2.135" stroke-miterlimit="10" stroke-dasharray="16.894,16.894" x1="714.443" y1="1016.658" x2="1092.971" y2="1016.658"/>
		
			<line clip-path="url(#SVGID_14_)" fill="none" stroke="#91268F" stroke-width="2.135" stroke-miterlimit="10" stroke-dasharray="16.894,16.894" x1="1092.971" y1="841.691" x2="714.214" y2="841.691"/>
		<path clip-path="url(#SVGID_14_)" fill="#91268F" d="M720.592,1126.256c0,3.396-2.753,6.149-6.149,6.149
			c-3.397,0-6.15-2.753-6.15-6.149c0-3.396,2.753-6.148,6.15-6.148C717.839,1120.107,720.592,1122.86,720.592,1126.256"/>
		<path clip-path="url(#SVGID_14_)" fill="#91268F" d="M1098.847,1049.31c0,3.396-2.753,6.148-6.149,6.148s-6.15-2.753-6.15-6.148
			c0-3.396,2.754-6.149,6.15-6.149S1098.847,1045.913,1098.847,1049.31"/>
		<path clip-path="url(#SVGID_14_)" fill="#91268F" d="M1098.847,1126.256c0,3.396-2.753,6.149-6.149,6.149s-6.15-2.753-6.15-6.149
			c0-3.396,2.754-6.148,6.15-6.148S1098.847,1122.86,1098.847,1126.256"/>
		<path clip-path="url(#SVGID_14_)" d="M922.813,891.663c0,5.469-4.433,9.902-9.903,9.902c-5.469,0-9.901-4.434-9.901-9.902
			c0-5.47,4.433-9.903,9.901-9.903C918.38,881.76,922.813,886.193,922.813,891.663"/>
		
			<circle clip-path="url(#SVGID_14_)" fill="none" stroke="#000000" stroke-width="2.216" stroke-miterlimit="10" cx="912.91" cy="891.663" r="9.902"/>
		<path clip-path="url(#SVGID_14_)" d="M916.436,1126.256c0,5.47-4.435,9.903-9.903,9.903s-9.902-4.434-9.902-9.903
			c0-5.469,4.434-9.902,9.902-9.902S916.436,1120.787,916.436,1126.256"/>
		
			<circle clip-path="url(#SVGID_14_)" fill="none" stroke="#000000" stroke-width="2.216" stroke-miterlimit="10" cx="906.533" cy="1126.256" r="9.903"/>
		
			<rect x="1256.333" y="1372.158" clip-path="url(#SVGID_14_)" fill="none" stroke="#000000" stroke-width="1.708" stroke-miterlimit="10" width="181.867" height="78.297"/>
		
			<rect x="267.913" y="1395.045" clip-path="url(#SVGID_14_)" fill="none" stroke="#000000" stroke-width="1.708" stroke-miterlimit="10" width="152.662" height="55.41"/>
		<polyline clip-path="url(#SVGID_14_)" fill="none" stroke="#000000" stroke-width="2.216" stroke-miterlimit="10" points="
			331.516,1395.045 331.516,1328.818 903.707,1126.256 		"/>
		
			<line clip-path="url(#SVGID_14_)" fill="none" stroke="#000000" stroke-width="2.216" stroke-miterlimit="10" x1="1347.266" y1="1241.321" x2="1347.266" y2="1372.158"/>
		<polyline clip-path="url(#SVGID_14_)" fill="none" stroke="#000000" stroke-width="2.216" stroke-miterlimit="10" points="
			912.91,891.663 331.516,1147.124 331.516,1328.818 		"/>
	</g>
	<g clip-path="url(#SVGID_2_)">
		<text transform="matrix(1 0 0 1 1314.3252 1405.499)" fill="#030404" font-family="'HelveticaNeue-Light'" font-size="17.7276">作業系統</text>
	</g>
	<g clip-path="url(#SVGID_2_)">
		<text transform="matrix(1 0 0 1 1315.0029 1427.6582)" fill="#030404" font-family="'HelveticaNeue-Light'" font-size="17.7276">安全強化</text>
	</g>
	<g clip-path="url(#SVGID_2_)">
		<text transform="matrix(1 0 0 1 324.7354 1428.3857)" fill="#030404" font-family="'HelveticaNeue-Light'" font-size="17.7276">鑑別</text>
	</g>
	<g clip-path="url(#SVGID_2_)">
		<defs>
			<rect id="SVGID_15_" width="1600" height="1600"/>
		</defs>
		<clipPath id="SVGID_16_">
			<use xlink:href="#SVGID_15_"  overflow="visible"/>
		</clipPath>
		<path clip-path="url(#SVGID_16_)" fill="#CED5DE" d="M1395.278,1204.879c0,15.729-21.496,28.48-48.012,28.48
			c-26.518,0-48.013-12.752-48.013-28.48s21.495-28.48,48.013-28.48C1373.782,1176.398,1395.278,1189.15,1395.278,1204.879"/>
	</g>
	<g clip-path="url(#SVGID_2_)">
		<text transform="matrix(1 0 0 1 1316.292 1210.3721)" fill="#030404" font-family="'HelveticaNeue-Bold'" font-size="17.7276">OS 節點</text>
	</g>
	<g clip-path="url(#SVGID_2_)">
		<defs>
			<rect id="SVGID_17_" width="1600" height="1600"/>
		</defs>
		<clipPath id="SVGID_18_">
			<use xlink:href="#SVGID_17_"  overflow="visible"/>
		</clipPath>
		<path clip-path="url(#SVGID_18_)" fill="#CED5DE" d="M1270.611,1204.879c0,15.729-21.496,28.48-48.013,28.48
			s-48.013-12.752-48.013-28.48s21.496-28.48,48.013-28.48S1270.611,1189.15,1270.611,1204.879"/>
	</g>
	<g clip-path="url(#SVGID_2_)">
		<text transform="matrix(1 0 0 1 1191.624 1210.3721)" fill="#030404" font-family="'HelveticaNeue-Bold'" font-size="17.7276">OS 節點</text>
	</g>
	<g clip-path="url(#SVGID_2_)">
		<defs>
			<rect id="SVGID_19_" width="1600" height="1600"/>
		</defs>
		<clipPath id="SVGID_20_">
			<use xlink:href="#SVGID_19_"  overflow="visible"/>
		</clipPath>
		<path clip-path="url(#SVGID_20_)" fill="#CED5DE" d="M1510.843,1204.879c0,15.729-21.496,28.48-48.013,28.48
			s-48.013-12.752-48.013-28.48s21.496-28.48,48.013-28.48S1510.843,1189.15,1510.843,1204.879"/>
	</g>
	<g clip-path="url(#SVGID_2_)">
		<text transform="matrix(1 0 0 1 1431.8564 1210.3721)" fill="#030404" font-family="'HelveticaNeue-Bold'" font-size="17.7276">OS 節點</text>
	</g>
	<g clip-path="url(#SVGID_2_)">
		<defs>
			<rect id="SVGID_21_" width="1600" height="1600"/>
		</defs>
		<clipPath id="SVGID_22_">
			<use xlink:href="#SVGID_21_"  overflow="visible"/>
		</clipPath>
		<path clip-path="url(#SVGID_22_)" d="M1355.991,1241.321c0,5.47-4.434,9.903-9.902,9.903s-9.903-4.434-9.903-9.903
			c0-5.469,4.435-9.902,9.903-9.902S1355.991,1235.853,1355.991,1241.321"/>
		
			<circle clip-path="url(#SVGID_22_)" fill="none" stroke="#000000" stroke-width="2.216" stroke-miterlimit="10" cx="1346.088" cy="1241.321" r="9.903"/>
		<path clip-path="url(#SVGID_22_)" fill="#91268F" d="M38.262,738.388c4.895,0,8.864-3.969,8.864-8.864
			c0-4.895-3.969-8.864-8.864-8.864s-8.864,3.969-8.864,8.864C29.398,734.418,33.367,738.388,38.262,738.388 M38.262,725.092
			c2.443,0,4.432,1.988,4.432,4.432c0,2.444-1.989,4.432-4.432,4.432s-4.432-1.988-4.432-4.432
			C33.83,727.08,35.819,725.092,38.262,725.092"/>
		<path clip-path="url(#SVGID_22_)" fill="#91268F" d="M44.91,742.819H31.614c-2.447,0-4.432,1.984-4.432,4.432v17.728l4.432,4.432
			v15.512c0,1.224,0.991,2.216,2.216,2.216h8.864c1.225,0,2.216-0.992,2.216-2.216V769.41l4.432-4.432v-17.728
			C49.342,744.803,47.358,742.819,44.91,742.819"/>
		<path clip-path="url(#SVGID_22_)" fill="#23B0E6" d="M38.262,543.335c4.895,0,8.864-3.969,8.864-8.864
			c0-4.895-3.969-8.864-8.864-8.864s-8.864,3.969-8.864,8.864C29.398,539.366,33.367,543.335,38.262,543.335 M38.262,530.04
			c2.443,0,4.432,1.988,4.432,4.432c0,2.444-1.989,4.432-4.432,4.432s-4.432-1.988-4.432-4.432
			C33.83,532.027,35.819,530.04,38.262,530.04"/>
		<path clip-path="url(#SVGID_22_)" fill="#23B0E6" d="M44.91,547.767H31.614c-2.447,0-4.432,1.984-4.432,4.432v17.728l4.432,4.431
			v15.512c0,1.224,0.991,2.216,2.216,2.216h8.864c1.225,0,2.216-0.992,2.216-2.216v-15.512l4.432-4.431v-17.728
			C49.342,549.751,47.358,547.767,44.91,547.767"/>
		
			<line clip-path="url(#SVGID_22_)" fill="none" stroke="#A53724" stroke-width="2.216" stroke-miterlimit="10" x1="7.315" y1="408.09" x2="7.315" y2="461.423"/>
		
			<line clip-path="url(#SVGID_22_)" fill="none" stroke="#A53724" stroke-width="2.144" stroke-miterlimit="10" x1="7.315" y1="461.423" x2="15.796" y2="461.423"/>
		
			<polyline clip-path="url(#SVGID_22_)" fill="none" stroke="#A53724" stroke-width="2.144" stroke-miterlimit="10" stroke-dasharray="16.755,16.755" points="
			32.551,461.423 298.593,461.423 371.719,461.423 426.299,461.423 		"/>
		<polyline clip-path="url(#SVGID_22_)" fill="none" stroke="#A53724" stroke-width="2.144" stroke-miterlimit="10" points="
			434.677,461.423 443.158,461.423 448.97,455.246 		"/>
		
			<line clip-path="url(#SVGID_22_)" fill="none" stroke="#A53724" stroke-width="2.144" stroke-miterlimit="10" stroke-dasharray="17.642,17.642" x1="461.06" y1="442.398" x2="600.09" y2="294.646"/>
		
			<line clip-path="url(#SVGID_22_)" fill="none" stroke="#A53724" stroke-width="2.144" stroke-miterlimit="10" x1="606.135" y1="288.222" x2="611.946" y2="282.045"/>
	</g>
	<g clip-path="url(#SVGID_2_)">
		<text transform="matrix(1 0 0 1 18.3955 430.0288)" fill="#030404" font-family="'HelveticaNeue-Bold'" font-size="17.7276">專用管理者流程</text>
	</g>
	<g clip-path="url(#SVGID_2_)">
		<defs>
			<rect id="SVGID_23_" width="1600" height="1600"/>
		</defs>
		<clipPath id="SVGID_24_">
			<use xlink:href="#SVGID_23_"  overflow="visible"/>
		</clipPath>
		<path clip-path="url(#SVGID_24_)" fill="#A53724" d="M38.262,348.632c4.895,0,8.864-3.969,8.864-8.864s-3.969-8.864-8.864-8.864
			s-8.864,3.969-8.864,8.864S33.367,348.632,38.262,348.632 M38.262,335.335c2.443,0,4.432,1.988,4.432,4.432
			c0,2.444-1.989,4.432-4.432,4.432s-4.432-1.988-4.432-4.432C33.83,337.324,35.819,335.335,38.262,335.335"/>
		<path clip-path="url(#SVGID_24_)" fill="#A53724" d="M44.91,353.063H31.614c-2.447,0-4.432,1.984-4.432,4.432v17.728l4.432,4.431
			v15.512c0,1.224,0.991,2.216,2.216,2.216h8.864c1.225,0,2.216-0.992,2.216-2.216v-15.512l4.432-4.431v-17.728
			C49.342,355.047,47.358,353.063,44.91,353.063"/>
		<path clip-path="url(#SVGID_24_)" fill="#91268F" d="M38.262,979.814c4.895,0,8.864-3.969,8.864-8.864
			c0-4.895-3.969-8.864-8.864-8.864s-8.864,3.97-8.864,8.864C29.398,975.846,33.367,979.814,38.262,979.814 M38.262,966.519
			c2.443,0,4.432,1.988,4.432,4.432c0,2.444-1.989,4.433-4.432,4.433s-4.432-1.988-4.432-4.433
			C33.83,968.507,35.819,966.519,38.262,966.519"/>
		<path clip-path="url(#SVGID_24_)" fill="#91268F" d="M44.91,984.246H31.614c-2.447,0-4.432,1.984-4.432,4.432v17.728l4.432,4.432
			v15.512c0,1.225,0.991,2.217,2.216,2.217h8.864c1.225,0,2.216-0.992,2.216-2.217v-15.512l4.432-4.432v-17.728
			C49.342,986.23,47.358,984.246,44.91,984.246"/>
		
			<rect x="904.916" y="984.008" clip-path="url(#SVGID_24_)" fill="none" stroke="#6D7777" stroke-width="2.508" stroke-miterlimit="10" width="365.628" height="65.301"/>
		
			<rect x="904.916" y="1060.955" clip-path="url(#SVGID_24_)" fill="none" stroke="#6D7777" stroke-width="2.508" stroke-miterlimit="10" width="365.628" height="65.301"/>
		
			<rect x="527.642" y="984.008" clip-path="url(#SVGID_24_)" fill="none" stroke="#6D7777" stroke-width="2.508" stroke-miterlimit="10" width="365.627" height="142.248"/>
	</g>
	<g clip-path="url(#SVGID_2_)">
		<text transform="matrix(1 0 0 1 920.3467 1103.3008)" fill="#030404" font-family="'HelveticaNeue-Light'" font-size="28.8074">IBM Single Sign On 服務</text>
	</g>
	<g clip-path="url(#SVGID_2_)">
		<text transform="matrix(1 0 0 1 1008.6738 1026.6445)" fill="#030404" font-family="'HelveticaNeue-Light'" font-size="28.8074">IBM Web 身分</text>
	</g>
	<g clip-path="url(#SVGID_2_)">
		<text transform="matrix(1 0 0 1 650.2764 1065.1025)" fill="#030404" font-family="'HelveticaNeue-Light'" font-size="28.8074">企業 LDAP</text>
	</g>
</g>
</svg>
