<?xml version="1.0" encoding="utf-8"?>
<!-- Generator: Adobe Illustrator 19.0.0, SVG Export Plug-In . SVG Version: 6.00 Build 0)  -->
<!DOCTYPE svg PUBLIC "-//W3C//DTD SVG 1.1//EN" "http://www.w3.org/Graphics/SVG/1.1/DTD/svg11.dtd">
<svg version="1.1" id="Layer_1" xmlns:sketch="http://www.bohemiancoding.com/sketch/ns"
	 xmlns="http://www.w3.org/2000/svg" xmlns:xlink="http://www.w3.org/1999/xlink" x="0px" y="0px" viewBox="-617 379 45 43"
	 style="enable-background:new -617 379 45 43;" xml:space="preserve" fill="#0071c2">
<title>Imported Layers</title>
<desc>Created with Sketch.</desc>
<g id="Page-1" sketch:type="MSPage">
	<g id="Compute-Taxonomy" transform="translate(-435.000000, -271.000000)" sketch:type="MSArtboardGroup">
		<g id="Main-Menu" transform="translate(23.000000, 62.000000)" sketch:type="MSLayerGroup">
			<g id="Imported-Layers" transform="translate(412.000000, 209.000000)" sketch:type="MSShapeGroup">
				<path id="Fill-1" d="M-572.7,421.2h-10.8c-0.3,0-0.6-0.3-0.6-0.6v-20.5c0-0.3,0.3-0.6,0.6-0.6h10.8c0.3,0,0.6,0.3,0.6,0.6v20.5
					C-572.1,420.9-572.4,421.2-572.7,421.2L-572.7,421.2z M-582.9,420h9.6v-19.3h-9.6V420z"/>
				<path id="Fill-2" d="M-597.2,390.5c-0.1,0-0.2,0-0.3-0.1c-0.2-0.1-0.3-0.3-0.3-0.5v-10.2c0-0.2,0.1-0.4,0.3-0.5
					c0.2-0.1,0.4-0.1,0.6,0l9.4,5.1c0.2,0.1,0.3,0.3,0.3,0.5c0,0.2-0.1,0.4-0.3,0.5l-9.4,5.1C-597,390.4-597.1,390.5-597.2,390.5
					L-597.2,390.5z M-596.6,380.6v8.3l7.6-4.1L-596.6,380.6L-596.6,380.6z"/>
				<path id="Fill-3" d="M-610.6,406.3c-0.3,0-0.6-0.3-0.6-0.6v-21c0-0.3,0.3-0.6,0.6-0.6h13.4c0.3,0,0.6,0.3,0.6,0.6
					c0,0.3-0.3,0.6-0.6,0.6H-610v20.4C-610,406.1-610.3,406.3-610.6,406.3"/>
				<path id="Fill-4" d="M-610.6,421.2c-3.3,0-6-2.5-6-5.7c0-3.1,2.7-5.7,6-5.7c3.3,0,6,2.5,6,5.7
					C-604.6,418.6-607.3,421.2-610.6,421.2L-610.6,421.2z M-610.6,410.9c-2.7,0-4.8,2-4.8,4.6c0,2.5,2.2,4.6,4.8,4.6
					c2.7,0,4.8-2,4.8-4.6C-605.8,413-607.9,410.9-610.6,410.9L-610.6,410.9z"/>
				<path id="Fill-5" d="M-588.4,416h-16.8c-0.3,0-0.6-0.3-0.6-0.6c0-0.3,0.3-0.6,0.6-0.6h16.8c0.3,0,0.6,0.3,0.6,0.6
					C-587.8,415.8-588,416-588.4,416L-588.4,416z M-578.1,400.7c-0.3,0-0.6-0.3-0.6-0.6v-14.8h-4.2c-0.3,0-0.6-0.3-0.6-0.6
					c0-0.3,0.3-0.6,0.6-0.6h4.8c0.3,0,0.6,0.3,0.6,0.6v15.3C-577.5,400.4-577.8,400.7-578.1,400.7L-578.1,400.7z"/>
			</g>
		</g>
	</g>
</g>
</svg>
