<?xml version="1.0" encoding="utf-8"?>
<!-- Generator: Adobe Illustrator 19.1.0, SVG Export Plug-In . SVG Version: 6.00 Build 0)  -->
<svg version="1.1" id="Layer_1" xmlns="http://www.w3.org/2000/svg" xmlns:xlink="http://www.w3.org/1999/xlink" x="0px" y="0px"
	 width="64px" height="64px" viewBox="0 0 182 182" style="enable-background:new 0 0 182 182;" xml:space="preserve">
<style type="text/css">
	.st0{fill:#009ED6;}
	.st1{fill:#FFFFFF;}
	.st2{fill:#05ADD4;}
	.st3{fill:#ED1E79;}
	.st4{enable-background:new    ;}
	.st5{fill:#600066;}
	.st6{fill:#5C0062;}
	.st7{fill:#AA00B5;}
	.st8{fill:none;stroke:#808080;stroke-width:30;stroke-miterlimit:10;}
	.st9{fill:#FFFFFF;stroke:#05ADD4;stroke-width:23;stroke-miterlimit:10;}
	.st10{fill:#FFFFFF;stroke:#05ADD4;stroke-width:30;stroke-miterlimit:10;}
</style>
<g>
	<path class="st3" d="M0.1,101.6h15.7V117H0.1V101.6z"/>
	<path class="st3" d="M37.3,89.8l-17-24.5h16.2l9.1,13.5l9-13.5h15.7l-17,24.2L72.4,117H56.2l-10.8-16.3L34.6,117H18.6L37.3,89.8z"
		/>
	<path class="st3" d="M85.7,100.2c0,6.1,5.4,8.7,10.9,8.7c4,0,9.3-1.6,9.3-6.6c0-4.3-6-5.9-16.1-8c-8.3-1.9-16.4-4.6-16.4-13.8
		c0-13.2,11.4-16.6,22.5-16.6c11.2,0,21.7,3.8,22.8,16.5h-13.5c-0.4-5.5-4.6-7-9.7-7c-3.2,0-7.9,0.5-7.9,4.8c0,5.1,8.1,5.8,16.1,7.7
		c8.3,1.9,16.4,4.9,16.4,14.5c0,13.6-11.9,18-23.6,18c-12,0-23.8-4.5-24.3-18.2H85.7z"/>
	<path class="st3" d="M126.7,65.3h13.5v6.6h0.2c3.5-5.6,9-8,15.4-8c16.2,0,23.5,13.1,23.5,27.8c0,13.8-7.5,26.7-22.7,26.7
		c-6.3,0-12-2.7-15.5-7.8H141v24.6h-14.2V65.3z M165.2,91.3c0-8.3-3.3-16.7-12.4-16.7c-9.3,0-12.3,8.3-12.3,16.7
		c0,8.4,3.2,16.4,12.4,16.4C162.2,107.7,165.2,99.7,165.2,91.3z"/>
</g>
</svg>
