<?xml version="1.0" encoding="utf-8"?>
<!-- Generator: Adobe Illustrator 16.0.0, SVG Export Plug-In . SVG Version: 6.00 Build 0)  -->
<!DOCTYPE svg PUBLIC "-//W3C//DTD SVG 1.1//EN" "http://www.w3.org/Graphics/SVG/1.1/DTD/svg11.dtd">
<svg version="1.1" id="Layer_1" xmlns="http://www.w3.org/2000/svg" xmlns:xlink="http://www.w3.org/1999/xlink" x="0px" y="0px"
	 width="271.9px" height="50px" viewBox="0 0 271.9 50" enable-background="new 0 0 271.9 50" xml:space="preserve">
<rect x="-127.9" y="-17" fill="#5596E6" width="271.899" height="50"/>
<text transform="matrix(1 0 0 1 -96.9661 7.2998)" enable-background="new    "><tspan x="0" y="0" fill="#FFFFFF" font-family="'ArialMT'" font-size="14.583">SCARICAMENTO DEL</tspan><tspan x="0" y="17.5" fill="#FFFFFF" font-family="'ArialMT'" font-size="14.583">CODICE STARTER</tspan></text>
<g>
	<polygon fill="#FFFFFF" points="122,3.1 120.8,2 115.5,7.2 115.5,-6.7 113.8,-6.7 113.8,7.2 108.6,2 107.5,3.1 114.7,10.4 	"/>
	<polygon fill="#FFFFFF" points="125.5,7.5 125.5,14.1 103.8,14.1 103.8,7.5 102.2,7.5 102.2,14.1 102.2,17.5 103.8,17.5 
		125.5,17.5 127.2,17.5 127.2,14.1 127.2,7.5 	"/>
</g>
</svg>
