<?xml version="1.0" encoding="utf-8"?>
<!-- Generator: Adobe Illustrator 16.0.0, SVG Export Plug-In . SVG Version: 6.00 Build 0)  -->
<!DOCTYPE svg PUBLIC "-//W3C//DTD SVG 1.1//EN" "http://www.w3.org/Graphics/SVG/1.1/DTD/svg11.dtd">
<svg version="1.1" id="Layer_1" xmlns="http://www.w3.org/2000/svg" xmlns:xlink="http://www.w3.org/1999/xlink" x="0px" y="0px"
	 width="355.4px" height="48px" viewBox="0 0 355.4 48" enable-background="new 0 0 355.4 48" xml:space="preserve">
<rect x="149" y="-12" fill="#5596E6" width="355.4" height="48"/>
<text transform="matrix(1 0 0 1 177.2871 11.0947)" enable-background="new    "><tspan x="0" y="0" fill="#FFFFFF" font-family="'ArialMT'" font-size="14">Scaricamento dell&apos;interfaccia riga</tspan><tspan x="0" y="16.8" fill="#FFFFFF" font-family="'ArialMT'" font-size="14">di comando (CLI) Bluemix</tspan></text>
<g>
	<polygon fill="#FFFFFF" points="484.4,7.3 483.2,6.2 478.2,11.2 478.2,-2.1 476.6,-2.1 476.6,11.2 471.6,6.2 470.4,7.3 477.4,14.3 
			"/>
	<polygon fill="#FFFFFF" points="487.8,11.5 487.8,17.9 467,17.9 467,11.5 465.4,11.5 465.4,17.9 465.4,21.1 467,21.1 487.8,21.1 
		489.4,21.1 489.4,17.9 489.4,11.5 	"/>
</g>
</svg>
