<?xml version="1.0" encoding="utf-8"?>
<!-- Generator: Adobe Illustrator 16.0.0, SVG Export Plug-In . SVG Version: 6.00 Build 0)  -->
<!DOCTYPE svg PUBLIC "-//W3C//DTD SVG 1.1//EN" "http://www.w3.org/Graphics/SVG/1.1/DTD/svg11.dtd">
<svg version="1.1" id="Layer_1" xmlns="http://www.w3.org/2000/svg" xmlns:xlink="http://www.w3.org/1999/xlink" x="0px" y="0px"
	 width="335.8px" height="50px" viewBox="0 0 335.8 50" enable-background="new 0 0 335.8 50" xml:space="preserve">
<rect x="-159.9" y="-17" fill="#5596E6" width="335.8" height="50"/>
<text transform="matrix(1 0 0 1 -114.9346 5.3311)" enable-background="new    "><tspan x="0" y="0" fill="#FFFFFF" font-family="'ArialMT'" font-size="14.5836">Scaricamento dell&apos;interfaccia</tspan><tspan x="0" y="17.5" fill="#FFFFFF" font-family="'ArialMT'" font-size="14.5836">riga di comando (CLI) CF</tspan></text>
<g>
	<polygon fill="#FFFFFF" points="153.6,3.1 152.4,2 147.2,7.2 147.2,-6.7 145.5,-6.7 145.5,7.2 140.3,2 139,3.1 146.3,10.4 	"/>
	<polygon fill="#FFFFFF" points="157.2,7.5 157.2,14.1 135.5,14.1 135.5,7.5 133.8,7.5 133.8,14.1 133.8,17.5 135.5,17.5 
		157.2,17.5 158.8,17.5 158.8,14.1 158.8,7.5 	"/>
</g>
</svg>
