<?xml version="1.0" encoding="utf-8"?>
<!-- Generator: Adobe Illustrator 15.0.0, SVG Export Plug-In . SVG Version: 6.00 Build 0)  -->
<!DOCTYPE svg PUBLIC "-//W3C//DTD SVG 1.1//EN" "http://www.w3.org/Graphics/SVG/1.1/DTD/svg11.dtd">
<svg version="1.1" id="Capa_1" xmlns="http://www.w3.org/2000/svg" xmlns:xlink="http://www.w3.org/1999/xlink" x="0px" y="0px"
	 width="1613px" height="831px" viewBox="0 0 1613 831" enable-background="new 0 0 1613 831" xml:space="preserve">
<title>Desktop HD</title>
<desc>Created with Sketch.</desc>
<g id="Page-1_6_">
	<g id="Desktop-HD">
		<polyline id="Stroke-36" fill="none" stroke="#FF2F2F" stroke-width="6" stroke-linecap="square" points="182,589 434.684,588 
			446.504,548 		"/>
		<polyline id="Stroke-38" fill="none" stroke="#5596E6" stroke-width="6" stroke-linecap="square" points="182,297 434.684,298 
			446.504,338 		"/>
		<text transform="matrix(1 0 0 1 49.4238 350.9998)" fill="#3C3232" font-family="'Arial-BoldMT'" font-size="32">Factura de Bluemix</text>
		<text transform="matrix(1 0 0 1 35.9521 640.9998)" fill="#3C3232" font-family="'Arial-BoldMT'" font-size="32">Factura de SoftLayer</text>
		<g id="Page-1" transform="translate(94.000000, 488.000000)">
			<path id="Fill-1" fill="#FF2F2F" d="M0,1v120h80V33L48,1H0z M4,5.002h40V37h32v80.002H4V5.002z"/>
			<polygon id="Fill-2" fill="#FF2F2F" points="16,53 64,53 64,49 16,49 			"/>
			<polygon id="Fill-3" fill="#FF2F2F" points="16,61 64,61 64,57 16,57 			"/>
			<polygon id="Fill-4" fill="#FF2F2F" points="16,69 40,69 40,65 16,65 			"/>
		</g>
		<text transform="matrix(1 0 0 1 822.9521 637.9998)" fill="#3C3232" font-family="'Arial-BoldMT'" font-size="32">Factura de SoftLayer</text>
		<g id="Page-1_1_" transform="translate(942.000000, 477.000000)">
			<path id="Fill-1_1_" fill="#FF2F2F" d="M0,1v120h80V33L48,1H0z M4,5.002h40V37h32v80.002H4V5.002z"/>
			<polygon id="Fill-2_1_" fill="#FF2F2F" points="16,53 64,53 64,49 16,49 			"/>
			<polygon id="Fill-3_1_" fill="#FF2F2F" points="16,61 64,61 64,57 16,57 			"/>
			<polygon id="Fill-4_1_" fill="#FF2F2F" points="16,69 40,69 40,65 16,65 			"/>
		</g>
		<g id="Page-1_2_" transform="translate(94.000000, 200.000000)">
			<path id="Fill-1_2_" fill="#5596E6" d="M0,0.142V119h80V31.838L48,0.142H0z M4,4.106h40V35.8h32v79.24H4V4.106z"/>
			<polygon id="Fill-2_2_" fill="#5596E6" points="16,51.647 64,51.647 64,47.685 16,47.685 			"/>
			<polygon id="Fill-3_2_" fill="#5596E6" points="16,59.571 64,59.571 64,55.609 16,55.609 			"/>
			<polygon id="Fill-4_2_" fill="#5596E6" points="16,67.495 40,67.495 40,63.533 16,63.533 			"/>
		</g>
		<text transform="matrix(1 0 0 1 587.9238 204.9998)" fill="#3C3232" font-family="'Arial-BoldMT'" font-size="32">Factura de Bluemix</text>
		<g id="Page-1_3_" transform="translate(689.000000, 44.000000)">
			<path id="Fill-1_3_" fill="#5596E6" d="M0,1v120h80V33L48,1H0z M4,5.002h40V37h32v80.002H4V5.002z"/>
			<polygon id="Fill-2_3_" fill="#5596E6" points="16,53 64,53 64,49 16,49 			"/>
			<polygon id="Fill-3_3_" fill="#5596E6" points="16,61 64,61 64,57 16,57 			"/>
			<polygon id="Fill-4_3_" fill="#5596E6" points="16,69 40,69 40,65 16,65 			"/>
		</g>
		<g id="Page-1_4_" transform="translate(402.000000, 361.000000)">
			<g id="Clip-2">
			</g>
			<defs>
				<filter id="Adobe_OpacityMaskFilter" filterUnits="userSpaceOnUse" x="0" y="0" width="90" height="90">
					<feColorMatrix  type="matrix" values="1 0 0 0 0  0 1 0 0 0  0 0 1 0 0  0 0 0 1 0"/>
				</filter>
			</defs>
			<mask maskUnits="userSpaceOnUse" x="0" y="0" width="90" height="90" id="mask-2">
				<g filter="url(#Adobe_OpacityMaskFilter)">
					<polygon id="path-1" fill="#FFFFFF" points="90,0 0,0 0,90 90,90 					"/>
				</g>
			</mask>
			<path id="Fill-1_4_" mask="url(#mask-2)" d="M79.606,31.606l-9,9C67.772,43.44,64.006,45,60,45c-1.928,0-3.803-0.348-5.535-0.979
				l12.778-12.776l-8.485-8.486L45.979,35.535C45.348,33.804,45,31.929,45,30c0-4.006,1.56-7.772,4.394-10.606l9-9
				C61.227,7.56,64.993,6,69,6c4.006,0,7.772,1.561,10.606,4.394C82.439,13.227,84,16.994,84,21
				C84,25.007,82.439,28.773,79.606,31.606 M45,60c0,4.007-1.561,7.773-4.394,10.606l-9,9C28.772,82.44,25.006,84,21,84
				c-4.007,0-7.773-1.56-10.607-4.394C7.56,76.773,6,73.007,6,69c0-4.006,1.56-7.772,4.393-10.606l9-9C22.227,46.56,25.993,45,30,45
				c1.929,0,3.804,0.349,5.535,0.979L22.758,58.758l8.485,8.486l12.777-12.779C44.651,56.197,45,58.072,45,60 M83.85,6.151
				C80.049,2.352,74.799,0,69,0S57.951,2.352,54.151,6.151l-9,9C41.352,18.951,39,24.201,39,30c0,3.617,0.857,7.077,2.422,10.092
				l-1.33,1.331C37.078,39.858,33.616,39,30,39c-5.799,0-11.049,2.353-14.849,6.151l-9,9C2.352,57.951,0,63.201,0,69
				S2.352,80.049,6.151,83.85C9.951,87.649,15.201,90,21,90c5.799,0,11.049-2.351,14.85-6.149l9-9C48.649,71.049,51,65.799,51,60
				c0-3.616-0.856-7.077-2.423-10.092l1.331-1.33C52.923,50.143,56.383,51,60,51c5.799,0,11.049-2.351,14.85-6.149l9-9
				C87.649,32.049,90,26.799,90,21S87.649,9.951,83.85,6.151"/>
		</g>
		<text transform="matrix(1 0 0 1 274.7764 484.9998)" enable-background="new    "><tspan x="0" y="0" fill="#3C3232" font-family="'Arial-BoldMT'" font-size="32">Enlace de cuentas de </tspan><tspan x="13.352" y="38.4" fill="#3C3232" font-family="'Arial-BoldMT'" font-size="32">Bluemix y SoftLayer</tspan></text>
		<text transform="matrix(1 0 0 1 1113.1875 476.9998)" fill="#3C3232" font-family="'ArialMT'" font-size="30">En el siguiente ciclo de facturación,</text>
		<text transform="matrix(1 0 0 1 1154.8779 508.9998)" fill="#3C3232" font-family="'ArialMT'" font-size="30">recibirá una única factura de </text>
		<text transform="matrix(1 0 0 1 1131.5352 540.9998)" fill="#3C3232" font-family="'ArialMT'" font-size="30">SoftLayer que incluye los cargos</text>
		<text transform="matrix(1 0 0 1 1194.084 572.9998)" fill="#3C3232" font-family="'ArialMT'" font-size="30">de SoftLayer y Bluemix</text>
		<text transform="matrix(1 0 0 1 1280.8643 390.9998)" fill="#3C3232" font-family="'Arial-BoldMT'" font-size="32">Factura de</text>
		<text transform="matrix(1 0 0 1 1234.9521 429.9998)" fill="#3C3232" font-family="'Arial-BoldMT'" font-size="32">Bluemix y SoftLayer</text>
		<g id="Page-1_5_" transform="translate(1309.000000, 221.000000)">
			<path id="Fill-1_5_" d="M0,0.001v120h80v-88l-32-32H0z M4,4.001h40v32h32v80H4V4.001z"/>
			<polygon id="Fill-2_4_" points="16,52 64,52 64,48 16,48 			"/>
			<polygon id="Fill-3_4_" points="16,60 64,60 64,56 16,56 			"/>
			<polygon id="Fill-4_4_" points="16,68 40,68 40,64 16,64 			"/>
		</g>
		
			<g id="Group" transform="translate(857.500000, 412.500000) scale(1, -1) translate(-857.500000, -412.500000) translate(492.000000, 391.000000)">
			<path id="Line" fill="none" stroke="#AF6EE8" stroke-width="6" stroke-linecap="square" d="M1.261,21.5H731"/>
			<path id="Line-decoration-1" fill="none" stroke="#AF6EE8" stroke-width="6" stroke-linecap="square" d="M731,18.5v6"/>
		</g>
		<text transform="matrix(1 0 0 1 555.04 246.9998)" fill="#1A1314" font-family="'ArialMT'" font-size="30">Tras enlazar las cuentas,</text>
		<text transform="matrix(1 0 0 1 504 278.9998)" fill="#1A1314" font-family="'ArialMT'" font-size="30">recibirá una factura separada por</text>
		<text transform="matrix(1 0 0 1 502.3848 310.9998)" fill="#1A1314" font-family="'ArialMT'" font-size="30">el uso de Bluemix durante el ciclo</text>
		<text transform="matrix(1 0 0 1 526.04 342.9998)" fill="#1A1314" font-family="'ArialMT'" font-size="30">de facturación del mes actual.</text>
		<text transform="matrix(1 0 0 1 754.4155 682.9998)" fill="#3C3232" font-family="'ArialMT'" font-size="30">Es posible que reciba una factura</text>
		<text transform="matrix(1 0 0 1 699.3608 714.9998)" fill="#3C3232" font-family="'ArialMT'" font-size="30">separada por el uso de SoftLayer durante</text>
		<text transform="matrix(1 0 0 1 709.9829 746.9998)" fill="#3C3232" font-family="'ArialMT'" font-size="30">el ciclo de facturación actual, en función</text>
		<text transform="matrix(1 0 0 1 720.6714 778.9998)" fill="#3C3232" font-family="'ArialMT'" font-size="30">de cuándo haya enlazado las cuentas.</text>
		<g id="Group-2" transform="translate(613.000000, 367.000000)">
			<path id="Line_1_" fill="none" stroke="#5596E6" stroke-width="6" stroke-dasharray="15,5" d="M5.62,3h217.895"/>
			<path id="Line_2_" fill="none" stroke="#AF6EE8" stroke-width="6" d="M3,43V2"/>
			<path id="Line-Copy" fill="none" stroke="#AF6EE8" stroke-width="6" d="M229,43V2"/>
		</g>
		
			<g id="Group-2_1_" transform="translate(982.000000, 433.500000) rotate(-180.000000) translate(-982.000000, -433.500000) translate(877.000000, 412.000000)">
			<path id="Line_3_" fill="none" stroke="#FF2F2F" stroke-width="6" stroke-dasharray="15,5" d="M5.059,3h196.105"/>
			<path id="Line_4_" fill="none" stroke="#AF6EE8" stroke-width="6" d="M3,43V2.774"/>
			<path id="Line-Copy_1_" fill="none" stroke="#AF6EE8" stroke-width="6" d="M207,43V2.774"/>
		</g>
	</g>
</g>
</svg>
