<?xml version="1.0" encoding="utf-8"?>
<!-- Generator: Adobe Illustrator 19.1.0, SVG Export Plug-In . SVG Version: 6.00 Build 0)  -->
<!DOCTYPE svg PUBLIC "-//W3C//DTD SVG 1.1//EN" "http://www.w3.org/Graphics/SVG/1.1/DTD/svg11.dtd">
<svg version="1.1" id="Layer_1" xmlns="http://www.w3.org/2000/svg" xmlns:xlink="http://www.w3.org/1999/xlink" x="0px" y="0px"
	 width="30px" height="30px" viewBox="0 0 30 30" style="enable-background:new 0 0 30 30;" xml:space="preserve">
<style type="text/css">
	.st0{fill:#94A3AB;}
</style>
<g>
	<path class="st0" d="M15,4.2c-4.8,0-8.7,3.9-8.7,8.7s3.9,8.7,8.7,8.7s8.7-3.9,8.7-8.7S19.9,4.2,15,4.2z M15,20.5
		c-4.3,0-7.8-3.5-7.8-7.8s3.5-7.8,7.8-7.8s7.8,3.5,7.8,7.8S19.4,20.5,15,20.5z"/>
	<path class="st0" d="M15,0C6.7,0,0,6.7,0,15s6.7,15,15,15s15-6.7,15-15S23.3,0,15,0z M21.9,23.2H8.2c-1.4,0-2.5,0.7-3,1.8
		C2.6,22.4,1,18.8,1,15C1,7.2,7.3,0.9,15.1,0.9S29.1,7.2,29.1,15c0,3.9-1.5,7.4-4.2,10C24.4,23.9,23.3,23.2,21.9,23.2z"/>
</g>
</svg>
