<?xml version="1.0" encoding="utf-8"?>
<!-- Generator: Adobe Illustrator 21.0.0, SVG Export Plug-In . SVG Version: 6.00 Build 0)  -->
<svg version="1.1" id="Layer_1" xmlns="http://www.w3.org/2000/svg" xmlns:xlink="http://www.w3.org/1999/xlink" x="0px" y="0px"
	 viewBox="0 0 557 502.7" style="enable-background:new 0 0 557 502.7;" xml:space="preserve">
<style type="text/css">
	.st0{clip-path:url(#SVGID_2_);}
	.st1{clip-path:url(#SVGID_4_);fill:#4B4B4B;}
	.st2{clip-path:url(#SVGID_6_);}
	.st3{clip-path:url(#SVGID_8_);fill:#4B4B4B;}
	.st4{clip-path:url(#SVGID_10_);}
	.st5{clip-path:url(#SVGID_12_);fill:#4B4B4B;}
	.st6{clip-path:url(#SVGID_14_);}
	.st7{clip-path:url(#SVGID_16_);fill:#4B4B4B;}
	.st8{clip-path:url(#SVGID_18_);}
	.st9{clip-path:url(#SVGID_20_);fill:#4B4B4B;}
	.st10{clip-path:url(#SVGID_22_);}
	.st11{clip-path:url(#SVGID_24_);fill:#4B4B4B;}
	.st12{clip-path:url(#SVGID_26_);}
	.st13{clip-path:url(#SVGID_28_);fill:#4B4B4B;}
	.st14{clip-path:url(#SVGID_30_);}
	.st15{clip-path:url(#SVGID_32_);fill:#FFFFFF;}
	.st16{clip-path:url(#SVGID_34_);}
	.st17{clip-path:url(#SVGID_36_);fill:#4B4B4B;}
	.st18{clip-path:url(#SVGID_38_);}
	.st19{clip-path:url(#SVGID_40_);fill:#4B4B4B;}
	.st20{clip-path:url(#SVGID_42_);}
	.st21{clip-path:url(#SVGID_44_);fill:#FFFFFF;}
	.st22{fill:none;stroke:#4B4B4B;stroke-width:2;stroke-miterlimit:10;}
	.st23{clip-path:url(#SVGID_46_);}
	.st24{clip-path:url(#SVGID_48_);fill:#FFFFFF;}
	.st25{fill:none;stroke:#4B4B4B;stroke-width:3;stroke-miterlimit:10;}
	.st26{clip-path:url(#SVGID_50_);}
	.st27{clip-path:url(#SVGID_52_);fill:#4B4B4B;}
	.st28{clip-path:url(#SVGID_54_);}
	.st29{clip-path:url(#SVGID_56_);fill:#4B4B4B;}
	.st30{fill:none;stroke:#365E80;stroke-width:2;stroke-miterlimit:10;}
	.st31{clip-path:url(#SVGID_58_);}
	.st32{clip-path:url(#SVGID_60_);fill:#FFFFFF;}
	.st33{clip-path:url(#SVGID_62_);}
	.st34{clip-path:url(#SVGID_64_);fill:#FFFFFF;}
	.st35{clip-path:url(#SVGID_66_);}
	.st36{clip-path:url(#SVGID_68_);fill:#4B4B4B;}
	.st37{clip-path:url(#SVGID_70_);}
	.st38{clip-path:url(#SVGID_72_);enable-background:new    ;}
	.st39{clip-path:url(#SVGID_74_);}
	.st40{clip-path:url(#SVGID_76_);}
	.st41{clip-path:url(#SVGID_78_);fill:#4B4B4B;}
	.st42{fill:none;stroke:#365E80;stroke-width:5;stroke-miterlimit:10;stroke-dasharray:5,5,5,5;}
	.st43{clip-path:url(#SVGID_80_);}
	.st44{clip-path:url(#SVGID_82_);fill:#365E80;}
	.st45{fill:none;stroke:#365E80;stroke-width:3;stroke-miterlimit:10;}
	.st46{clip-path:url(#SVGID_84_);}
	.st47{clip-path:url(#SVGID_86_);fill:#365E80;}
	.st48{clip-path:url(#SVGID_88_);}
	.st49{clip-path:url(#SVGID_90_);fill:#365E80;}
	.st50{clip-path:url(#SVGID_92_);}
	.st51{clip-path:url(#SVGID_94_);fill:#365E80;}
	.st52{font-family:'HelveticaNeueLTPro-Md';}
	.st53{font-size:12px;}
	.st54{font-size:9px;}
	.st55{font-family:'HelveticaNeueLTPro-Bd';}
</style>
<g>
	<defs>
		<path id="SVGID_1_" d="M302.5,33.2c1.7,0,3.1,1.4,3.1,3.1c0,1.7-1.4,3.1-3.1,3.1c-1.7,0-3.1-1.4-3.1-3.1
			C299.4,34.6,300.8,33.2,302.5,33.2z M309.7,60.2h-47.7V45.7h47.7V60.2z M309.7,76.8h-47.7V62.2h47.7V76.8z M260,27v16.6v2.1v14.5
			v2.1v16.6h51.8V62.2v-2.1V45.7v-2.1V27H260z"/>
	</defs>
	<clipPath id="SVGID_2_">
		<use xlink:href="#SVGID_1_"  style="overflow:visible;"/>
	</clipPath>
	<g class="st0">
		<defs>
			<rect id="SVGID_3_" x="1" width="556" height="504"/>
		</defs>
		<clipPath id="SVGID_4_">
			<use xlink:href="#SVGID_3_"  style="overflow:visible;"/>
		</clipPath>
		<rect x="255" y="22" class="st1" width="61.8" height="61.8"/>
	</g>
</g>
<g>
	<defs>
		<circle id="SVGID_5_" cx="302.5" cy="52.9" r="3.1"/>
	</defs>
	<clipPath id="SVGID_6_">
		<use xlink:href="#SVGID_5_"  style="overflow:visible;"/>
	</clipPath>
	<g class="st2">
		<defs>
			<rect id="SVGID_7_" x="1" width="556" height="504"/>
		</defs>
		<clipPath id="SVGID_8_">
			<use xlink:href="#SVGID_7_"  style="overflow:visible;"/>
		</clipPath>
		<rect x="294.4" y="44.8" class="st3" width="16.2" height="16.2"/>
	</g>
</g>
<g>
	<defs>
		<circle id="SVGID_9_" cx="302.5" cy="69.5" r="3.1"/>
	</defs>
	<clipPath id="SVGID_10_">
		<use xlink:href="#SVGID_9_"  style="overflow:visible;"/>
	</clipPath>
	<g class="st4">
		<defs>
			<rect id="SVGID_11_" x="1" width="556" height="504"/>
		</defs>
		<clipPath id="SVGID_12_">
			<use xlink:href="#SVGID_11_"  style="overflow:visible;"/>
		</clipPath>
		<rect x="294.4" y="61.4" class="st5" width="16.2" height="16.2"/>
	</g>
</g>
<g>
	<defs>
		<path id="SVGID_13_" d="M285.9,65.6l12.5,21.8h-25.1L285.9,65.6z M285.9,63.7l-14.2,24.6h28.4L285.9,63.7z"/>
	</defs>
	<clipPath id="SVGID_14_">
		<use xlink:href="#SVGID_13_"  style="overflow:visible;"/>
	</clipPath>
	<g class="st6">
		<defs>
			<rect id="SVGID_15_" x="1" width="556" height="504"/>
		</defs>
		<clipPath id="SVGID_16_">
			<use xlink:href="#SVGID_15_"  style="overflow:visible;"/>
		</clipPath>
		<rect x="266.7" y="58.7" class="st7" width="38.4" height="34.6"/>
	</g>
</g>
<g>
	<defs>
		<path id="SVGID_17_" d="M285.9,65.6l12.5,21.8h-25.1L285.9,65.6z M285.9,63.7l-14.2,24.6h28.4L285.9,63.7z"/>
	</defs>
	<clipPath id="SVGID_18_">
		<use xlink:href="#SVGID_17_"  style="overflow:visible;"/>
	</clipPath>
	<g class="st8">
		<defs>
			<rect id="SVGID_19_" x="1" width="556" height="504"/>
		</defs>
		<clipPath id="SVGID_20_">
			<use xlink:href="#SVGID_19_"  style="overflow:visible;"/>
		</clipPath>
		<rect x="266.7" y="58.7" class="st9" width="38.4" height="34.6"/>
	</g>
</g>
<g>
	<defs>
		<polygon id="SVGID_21_" points="285,74.1 285,76 285.4,80.7 286.4,80.7 286.8,76 286.8,74.1 		"/>
	</defs>
	<clipPath id="SVGID_22_">
		<use xlink:href="#SVGID_21_"  style="overflow:visible;"/>
	</clipPath>
	<g class="st10">
		<defs>
			<rect id="SVGID_23_" x="1" width="556" height="504"/>
		</defs>
		<clipPath id="SVGID_24_">
			<use xlink:href="#SVGID_23_"  style="overflow:visible;"/>
		</clipPath>
		<rect x="280" y="69.1" class="st11" width="11.9" height="16.6"/>
	</g>
</g>
<g>
	<defs>
		<circle id="SVGID_25_" cx="285.9" cy="82.6" r="0.9"/>
	</defs>
	<clipPath id="SVGID_26_">
		<use xlink:href="#SVGID_25_"  style="overflow:visible;"/>
	</clipPath>
	<g class="st12">
		<defs>
			<rect id="SVGID_27_" x="1" width="556" height="504"/>
		</defs>
		<clipPath id="SVGID_28_">
			<use xlink:href="#SVGID_27_"  style="overflow:visible;"/>
		</clipPath>
		<rect x="280" y="76.7" class="st13" width="11.9" height="11.9"/>
	</g>
</g>
<g>
	<defs>
		<polygon id="SVGID_29_" points="285.9,65.6 298.4,87.3 273.4,87.3 		"/>
	</defs>
	<clipPath id="SVGID_30_">
		<use xlink:href="#SVGID_29_"  style="overflow:visible;"/>
	</clipPath>
	<g class="st14">
		<defs>
			<rect id="SVGID_31_" x="1" width="556" height="504"/>
		</defs>
		<clipPath id="SVGID_32_">
			<use xlink:href="#SVGID_31_"  style="overflow:visible;"/>
		</clipPath>
		<rect x="268.4" y="60.6" class="st15" width="35.1" height="31.8"/>
	</g>
</g>
<g>
	<defs>
		<polygon id="SVGID_33_" points="285,74.1 285,76 285.4,80.7 286.4,80.7 286.8,76 286.8,74.1 		"/>
	</defs>
	<clipPath id="SVGID_34_">
		<use xlink:href="#SVGID_33_"  style="overflow:visible;"/>
	</clipPath>
	<g class="st16">
		<defs>
			<rect id="SVGID_35_" x="1" width="556" height="504"/>
		</defs>
		<clipPath id="SVGID_36_">
			<use xlink:href="#SVGID_35_"  style="overflow:visible;"/>
		</clipPath>
		<rect x="280" y="69.1" class="st17" width="11.9" height="16.6"/>
	</g>
</g>
<g>
	<defs>
		<circle id="SVGID_37_" cx="285.9" cy="82.6" r="0.9"/>
	</defs>
	<clipPath id="SVGID_38_">
		<use xlink:href="#SVGID_37_"  style="overflow:visible;"/>
	</clipPath>
	<g class="st18">
		<defs>
			<rect id="SVGID_39_" x="1" width="556" height="504"/>
		</defs>
		<clipPath id="SVGID_40_">
			<use xlink:href="#SVGID_39_"  style="overflow:visible;"/>
		</clipPath>
		<rect x="280" y="76.7" class="st19" width="11.9" height="11.9"/>
	</g>
</g>
<g>
	<defs>
		<polygon id="SVGID_41_" points="121.7,213.7 102.3,247.3 63.4,247.3 44,213.7 63.4,180 102.3,180 		"/>
	</defs>
	<clipPath id="SVGID_42_">
		<use xlink:href="#SVGID_41_"  style="overflow:visible;"/>
	</clipPath>
	<g class="st20">
		<defs>
			<rect id="SVGID_43_" x="1" width="556" height="504"/>
		</defs>
		<clipPath id="SVGID_44_">
			<use xlink:href="#SVGID_43_"  style="overflow:visible;"/>
		</clipPath>
		<rect x="39" y="175" class="st21" width="87.7" height="77.3"/>
	</g>
</g>
<g>
	<polygon class="st22" points="121.7,213.7 102.3,247.3 63.4,247.3 44,213.7 63.4,180 102.3,180 	"/>
</g>
<g>
	<defs>
		<polygon id="SVGID_45_" points="508.3,247.3 469.4,247.3 450,213.7 469.4,180 508.3,180 527.7,213.7 		"/>
	</defs>
	<clipPath id="SVGID_46_">
		<use xlink:href="#SVGID_45_"  style="overflow:visible;"/>
	</clipPath>
	<g class="st23">
		<defs>
			<rect id="SVGID_47_" x="1" width="556" height="504"/>
		</defs>
		<clipPath id="SVGID_48_">
			<use xlink:href="#SVGID_47_"  style="overflow:visible;"/>
		</clipPath>
		<rect x="445" y="175" class="st24" width="87.7" height="77.3"/>
	</g>
</g>
<polygon class="st22" points="508.3,247.3 469.4,247.3 450,213.7 469.4,180 508.3,180 527.7,213.7 "/>
<polygon class="st25" points="337.6,55.9 311.7,100.8 259.9,100.8 234,55.9 259.9,11 311.7,11 "/>
<g>
	<defs>
		<path id="SVGID_49_" d="M98,222.6l-28.7-8.2v-2.8l28.7-8.2V222.6z M79.3,219.7c0,0.6-0.5,1.1-1.1,1.1h-4.4c-0.6,0-1.1-0.5-1.1-1.1
			v-3.2l6.6,1.9V219.7z M69.3,210.5v-0.8h-1.1v-1.1H66v8.8h2.2v-1.1h1.1v-0.8l2.2,0.6v3.5c0,1.2,1,2.2,2.2,2.2h4.4
			c1.2,0,2.2-1,2.2-2.2v-0.9l18.8,5.4V202L69.3,210.5z"/>
	</defs>
	<clipPath id="SVGID_50_">
		<use xlink:href="#SVGID_49_"  style="overflow:visible;"/>
	</clipPath>
	<g class="st26">
		<defs>
			<rect id="SVGID_51_" x="1" width="556" height="504"/>
		</defs>
		<clipPath id="SVGID_52_">
			<use xlink:href="#SVGID_51_"  style="overflow:visible;"/>
		</clipPath>
		<rect x="61" y="197" class="st27" width="43.2" height="32.1"/>
	</g>
</g>
<g>
	<defs>
		<path id="SVGID_53_" d="M488.7,228.7c-8.3,0-15-6.8-15-15c0-8.3,6.8-15,15-15c8.3,0,15,6.7,15,15
			C503.7,222,496.9,228.7,488.7,228.7z M488.6,197c-9.2,0-16.6,7.4-16.6,16.6c0,9.2,7.4,16.6,16.6,16.6c9.2,0,16.6-7.4,16.6-16.6
			C505.2,204.4,497.7,197,488.6,197z M486.9,208.6l0.8,8.3h1.7l0.8-8.3v-3.3h-3.3V208.6z M488.6,218.5c-0.9,0-1.7,0.7-1.7,1.7
			c0,0.9,0.7,1.7,1.7,1.7c0.9,0,1.7-0.7,1.7-1.7C490.2,219.3,489.5,218.5,488.6,218.5z"/>
	</defs>
	<clipPath id="SVGID_54_">
		<use xlink:href="#SVGID_53_"  style="overflow:visible;"/>
	</clipPath>
	<g class="st28">
		<defs>
			<rect id="SVGID_55_" x="1" width="556" height="504"/>
		</defs>
		<clipPath id="SVGID_56_">
			<use xlink:href="#SVGID_55_"  style="overflow:visible;"/>
		</clipPath>
		<rect x="467" y="192" class="st29" width="43.2" height="43.2"/>
	</g>
</g>
<ellipse class="st30" cx="284.4" cy="423.4" rx="54.4" ry="54.4"/>
<g>
	<defs>
		<polygon id="SVGID_57_" points="284.7,424.7 265.3,458.3 226.4,458.3 207,424.7 226.4,391 265.3,391 		"/>
	</defs>
	<clipPath id="SVGID_58_">
		<use xlink:href="#SVGID_57_"  style="overflow:visible;"/>
	</clipPath>
	<g class="st31">
		<defs>
			<rect id="SVGID_59_" x="1" width="556" height="504"/>
		</defs>
		<clipPath id="SVGID_60_">
			<use xlink:href="#SVGID_59_"  style="overflow:visible;"/>
		</clipPath>
		<rect x="202" y="386" class="st32" width="87.7" height="77.3"/>
	</g>
</g>
<g>
	<polygon class="st22" points="284.7,424.7 265.3,458.3 226.4,458.3 207,424.7 226.4,391 265.3,391 	"/>
</g>
<g>
	<defs>
		<polygon id="SVGID_61_" points="363.7,424.7 344.3,458.3 305.4,458.3 286,424.7 305.4,391 344.3,391 		"/>
	</defs>
	<clipPath id="SVGID_62_">
		<use xlink:href="#SVGID_61_"  style="overflow:visible;"/>
	</clipPath>
	<g class="st33">
		<defs>
			<rect id="SVGID_63_" x="1" width="556" height="504"/>
		</defs>
		<clipPath id="SVGID_64_">
			<use xlink:href="#SVGID_63_"  style="overflow:visible;"/>
		</clipPath>
		<rect x="281" y="386" class="st34" width="87.7" height="77.3"/>
	</g>
</g>
<polygon class="st22" points="363.7,424.7 344.3,458.3 305.4,458.3 286,424.7 305.4,391 344.3,391 "/>
<g>
	<defs>
		<path id="SVGID_65_" d="M253.4,416.8c0.5-1.2,0.8-2.4,0.8-3.8c0-1.3-0.3-2.6-0.8-3.8l4.2-4.2c1.5,2.3,2.3,5,2.3,8
			c0,2.9-0.9,5.7-2.3,8L253.4,416.8z M252.5,416c-0.8,2.1-2.5,3.8-4.6,4.6c-0.9,0.4-1.9,0.6-2.9,0.6c-1,0-2-0.2-2.9-0.6
			c-2.1-0.8-3.8-2.5-4.6-4.6c-0.3-0.9-0.5-1.9-0.5-2.9c0-1,0.2-2,0.5-2.9c0.8-2.1,2.5-3.8,4.6-4.6c0.9-0.4,1.9-0.5,2.9-0.5
			c1,0,2,0.2,2.9,0.5c2.1,0.8,3.8,2.5,4.6,4.6c0.3,0.9,0.5,1.9,0.5,2.9C253.1,414.1,252.9,415.1,252.5,416z M245.1,428
			c-2.9,0-5.7-0.9-8-2.3l4.2-4.2c1.2,0.5,2.4,0.8,3.8,0.8c1.3,0,2.6-0.3,3.8-0.8l4.2,4.2C250.7,427.1,248,428,245.1,428z
			 M236.7,416.8l-4.2,4.2c-1.5-2.3-2.3-5-2.3-8c0-2.9,0.9-5.7,2.3-8l4.2,4.2c-0.5,1.2-0.8,2.4-0.8,3.8
			C235.9,414.4,236.2,415.7,236.7,416.8z M245.1,398.1c2.9,0,5.7,0.9,8,2.3l-4.2,4.2c-1.2-0.5-2.4-0.8-3.8-0.8
			c-1.3,0-2.6,0.3-3.8,0.8l-4.2-4.2C239.4,399,242.1,398.1,245.1,398.1z M245.1,397c-8.9,0-16.1,7.2-16.1,16.1s7.2,16.1,16.1,16.1
			c8.9,0,16.1-7.2,16.1-16.1S253.9,397,245.1,397z"/>
	</defs>
	<clipPath id="SVGID_66_">
		<use xlink:href="#SVGID_65_"  style="overflow:visible;"/>
	</clipPath>
	<g class="st35">
		<defs>
			<rect id="SVGID_67_" x="1" width="556" height="504"/>
		</defs>
		<clipPath id="SVGID_68_">
			<use xlink:href="#SVGID_67_"  style="overflow:visible;"/>
		</clipPath>
		<rect x="224" y="392" class="st36" width="42.1" height="42.1"/>
	</g>
</g>
<g>
	<defs>
		<rect id="SVGID_69_" x="309" y="398.1" width="31" height="30.3"/>
	</defs>
	<clipPath id="SVGID_70_">
		<use xlink:href="#SVGID_69_"  style="overflow:visible;"/>
	</clipPath>
	<g class="st37">
		<defs>
			<rect id="SVGID_71_" x="1" width="556" height="504"/>
		</defs>
		<clipPath id="SVGID_72_">
			<use xlink:href="#SVGID_71_"  style="overflow:visible;"/>
		</clipPath>
		<g class="st38">
			<g>
				<defs>
					<rect id="SVGID_73_" x="309" y="397.5" width="31" height="31"/>
				</defs>
				<clipPath id="SVGID_74_">
					<use xlink:href="#SVGID_73_"  style="overflow:visible;"/>
				</clipPath>
				<g class="st39">
					<defs>
						<path id="SVGID_75_" d="M326.6,428.4h8.6c0.2,0,0.3-0.1,0.4-0.2l4.3-7.3c0-0.1,0.1-0.1,0.1-0.2s0-0.2-0.1-0.2l-4.2-7.1
							l4.2-7.1c0-0.1,0.1-0.1,0.1-0.2c0-0.1,0-0.2-0.1-0.2l-4.3-7.3c-0.1-0.1-0.2-0.2-0.4-0.2h-8.6c-0.2,0-0.3,0.1-0.4,0.2l-4.2,7.1
							h-8.3c-0.2,0-0.3,0.1-0.4,0.2l-4.3,7.3c-0.1,0.1-0.1,0.3,0,0.5l4.3,7.3c0.1,0.1,0.2,0.2,0.4,0.2h8.3l4.2,7.1
							C326.3,428.3,326.5,428.4,326.6,428.4z M334.4,412.8h-7.5l-0.1-0.2l-3.6-6.2h7.5L334.4,412.8z M322.3,419.7l-3.8-6.5l3.8-6.5
							l3.8,6.5L322.3,419.7z M334.4,413.7l-3.8,6.4h-7.5l3.6-6.2l0.1-0.2H334.4z M314,406.4h7.5l-3.9,6.7c-0.1,0.1-0.1,0.3,0,0.5
							l3.9,6.7H314l-4-6.9L314,406.4z M335.2,412.4l-3.9-6.7c-0.1-0.1-0.2-0.2-0.4-0.2h-7.8l3.8-6.4h8.1l4,6.9L335.2,412.4z
							 M326.9,427.5l-3.8-6.4h7.8c0.2,0,0.3-0.1,0.4-0.2l3.9-6.7l3.8,6.5l-4,6.9H326.9z"/>
					</defs>
					<clipPath id="SVGID_76_">
						<use xlink:href="#SVGID_75_"  style="overflow:visible;"/>
					</clipPath>
					<g class="st40">
						<defs>
							<rect id="SVGID_77_" x="309" y="397.5" width="31" height="31"/>
						</defs>
						<clipPath id="SVGID_78_">
							<use xlink:href="#SVGID_77_"  style="overflow:visible;"/>
						</clipPath>
						<rect x="304" y="393.1" class="st41" width="41" height="40.3"/>
					</g>
				</g>
			</g>
		</g>
	</g>
</g>
<g>
	<path class="st42" d="M491.5,307c0,64.2-48.4,118.2-110.5,118.2"/>
</g>
<g>
	<defs>
		<polygon id="SVGID_79_" points="379.4,419.9 380.2,420.7 376.6,424.4 376.6,425.6 380.2,429.2 379.4,430.1 374.4,425 		"/>
	</defs>
	<clipPath id="SVGID_80_">
		<use xlink:href="#SVGID_79_"  style="overflow:visible;"/>
	</clipPath>
	<g class="st43">
		<defs>
			<rect id="SVGID_81_" x="1" width="556" height="504"/>
		</defs>
		<clipPath id="SVGID_82_">
			<use xlink:href="#SVGID_81_"  style="overflow:visible;"/>
		</clipPath>
		<rect x="369.4" y="414.9" class="st44" width="15.7" height="20.2"/>
	</g>
</g>
<g>
	<polygon class="st45" points="379.4,419.9 380.2,420.7 376.6,424.4 376.6,425.6 380.2,429.2 379.4,430.1 374.4,425 	"/>
	<path class="st42" d="M81.5,165c0-62.1,50.4-112.4,112.5-112.4"/>
</g>
<g>
	<defs>
		<polygon id="SVGID_83_" points="197.6,57.7 196.8,56.9 200.4,53.4 200.4,52.3 196.8,48.7 197.6,47.9 202.6,52.8 		"/>
	</defs>
	<clipPath id="SVGID_84_">
		<use xlink:href="#SVGID_83_"  style="overflow:visible;"/>
	</clipPath>
	<g class="st46">
		<defs>
			<rect id="SVGID_85_" x="1" width="556" height="504"/>
		</defs>
		<clipPath id="SVGID_86_">
			<use xlink:href="#SVGID_85_"  style="overflow:visible;"/>
		</clipPath>
		<rect x="191.8" y="42.9" class="st47" width="15.7" height="19.8"/>
	</g>
</g>
<g>
	<polygon class="st45" points="197.6,57.7 196.8,56.9 200.4,53.4 200.4,52.3 196.8,48.7 197.6,47.9 202.6,52.8 	"/>
	<path class="st42" d="M372,48.5c62.1,0,117.4,47.7,117.4,107.8"/>
</g>
<g>
	<defs>
		<polygon id="SVGID_87_" points="484.3,163.8 485.1,163 488.6,166.5 489.7,166.5 493.3,163 494.1,163.8 489.2,168.6 		"/>
	</defs>
	<clipPath id="SVGID_88_">
		<use xlink:href="#SVGID_87_"  style="overflow:visible;"/>
	</clipPath>
	<g class="st48">
		<defs>
			<rect id="SVGID_89_" x="1" width="556" height="504"/>
		</defs>
		<clipPath id="SVGID_90_">
			<use xlink:href="#SVGID_89_"  style="overflow:visible;"/>
		</clipPath>
		<rect x="479.3" y="158" class="st49" width="19.8" height="15.5"/>
	</g>
</g>
<g>
	<polygon class="st45" points="484.3,163.8 485.1,163 488.6,166.5 489.7,166.5 493.3,163 494.1,163.8 489.2,168.6 	"/>
	<path class="st42" d="M199,425.5c-62.1,0-112.4-50.4-112.4-112.5"/>
</g>
<g>
	<defs>
		<polygon id="SVGID_91_" points="91.7,309.4 90.9,310.2 87.4,306.6 86.3,306.6 82.7,310.2 81.9,309.4 86.8,304.4 		"/>
	</defs>
	<clipPath id="SVGID_92_">
		<use xlink:href="#SVGID_91_"  style="overflow:visible;"/>
	</clipPath>
	<g class="st50">
		<defs>
			<rect id="SVGID_93_" x="1" width="556" height="504"/>
		</defs>
		<clipPath id="SVGID_94_">
			<use xlink:href="#SVGID_93_"  style="overflow:visible;"/>
		</clipPath>
		<rect x="76.9" y="299.4" class="st51" width="19.8" height="15.7"/>
	</g>
</g>
<g>
	<polygon class="st45" points="91.7,309.4 90.9,310.2 87.4,306.6 86.3,306.6 82.7,310.2 81.9,309.4 86.8,304.4 	"/>
</g>
<text transform="matrix(1 0 0 1 221.9805 124.2446)"><tspan x="0" y="0" class="st52 st53">Incidente detectado en</tspan><tspan x="12.4" y="14.4" class="st52 st53">entorno del cliente</tspan></text>
<text transform="matrix(1 0 0 1 10.3518 274.0001)"><tspan x="0" y="0" class="st52 st53">Bluemix envía notificación</tspan><tspan x="21.2" y="14.4" class="st52 st53">a la página Estado</tspan></text>
<text transform="matrix(1 0 0 1 414.5589 282.1436)" class="st52 st53">Alerta enviada a Bluemix</text>
<text transform="matrix(1 0 0 1 182.0395 492.2042)" class="st52 st53">Colaboración Bluemix ininterrumpida</text>
<text transform="matrix(1 0 0 1 228.1123 440.1124)"><tspan x="0" y="0" class="st52 st54">Soporte</tspan><tspan x="-0.2" y="10.8" class="st52 st54">Bluemix</tspan></text>
<text transform="matrix(1 0 0 1 297.371 440.1124)"><tspan x="0" y="0" class="st55 st54">Operaciones</tspan><tspan x="10.1" y="10.8" class="st55 st54">Bluemix</tspan></text>
</svg>
