<?xml version="1.0" encoding="UTF-8" standalone="no"?>
<svg width="76px" height="69px" viewBox="0 0 76 69" version="1.1" xmlns="http://www.w3.org/2000/svg" xmlns:xlink="http://www.w3.org/1999/xlink">
    <!-- Generator: Sketch 3.6.1 (26313) - http://www.bohemiancoding.com/sketch -->
    <title>icons-19</title>
    <desc>Created with Sketch.</desc>
    <defs></defs>
    <g id="WeddingCake" stroke="none" stroke-width="1" fill="none" fill-rule="evenodd">
        <g id="Documentation-Copy-2" transform="translate(-1138.000000, -737.000000)">
            <g id="icons-19" transform="translate(1139.000000, 738.000000)">
                <g id="Group">
                    <g id="Layer_1">
                        <path d="M59.6,45.8 L59.6,45.8 L59.9,45.8 C67.8,45.8 74.2,39.4 74.2,31.5 C74.2,24 68.3,17.8 60.9,17.3 C60.4,7.7 52.4,0 42.6,0 C35.3,0 28.9,4.3 26,10.6 C23.9,9.7 21.5,9.2 19,9.2 C8.9,9.2 0.7,17.4 0.7,27.5 C0.7,37.6 8.9,45.8 19,45.8 L19.1,45.8" id="Shape" stroke="#5596E6" stroke-width="1.5"></path>
                        <path d="M33.7,44.8 L33.7,37.3 C33.7,35.7430244 34.2787741,34.3418727 35.2367697,33.2960972 C36.3092398,32.125358 37.8569756,31.4 39.6,31.4 C42.9,31.4 45.5,34 45.5,37.3 L45.5,44.8 M39.6,66.8 C33.1,66.8 27.8,61.5 27.8,55 C27.8,50.2496204 30.5773669,46.1401716 34.6488026,44.2720544 C36.14836,43.5840049 37.8234624,43.2 39.6,43.2 C46.1,43.2 51.4,48.5 51.4,55 C51.4,61.5 46.1,66.8 39.6,66.8 Z" id="Shape" stroke="#5596E6" stroke-width="1.5"></path>
                        <path d="M41.6,53.9 C41.6,52.7 40.6,51.7 39.4,51.7 C38.2,51.7 37.2,52.7 37.2,53.9 C37.2,54.8 37.8,55.6 38.5,55.9 L38.5,59.6 C38.5,60.1 38.9,60.4 39.3,60.4 C39.8,60.4 40.1,60 40.1,59.6 L40.1,55.9 C41,55.6 41.6,54.8 41.6,53.9" id="Shape" fill="#5596E6"></path>
                    </g>
                </g>
            </g>
        </g>
    </g>
</svg>
