<?xml version="1.0" encoding="utf-8"?>
<!-- Generator: Adobe Illustrator 18.1.0, SVG Export Plug-In . SVG Version: 6.00 Build 0)  -->
<!DOCTYPE svg PUBLIC "-//W3C//DTD SVG 1.1//EN" "http://www.w3.org/Graphics/SVG/1.1/DTD/svg11.dtd">
<svg version="1.1" id="Layer_1" xmlns="http://www.w3.org/2000/svg" xmlns:xlink="http://www.w3.org/1999/xlink" x="0px" y="0px"
	 width="64px" height="64px" viewBox="0 0 64 64" enable-background="new 0 0 64 64" xml:space="preserve">
<g>
	<path fill="#F19027" d="M14.8,36.2h5.7v5.5h-5.7V36.2z"/>
	<path fill="#F19027" d="M21.9,43.9c0.3,0.1,0.6,0.1,1.1,0.1c1,0,2-0.3,2-1.7V23.1h5.1v19.5c0,3.8-1.4,5.6-6.6,5.6
		c-0.5,0-1.1,0-1.7-0.1V43.9z M30.1,20.2H25V16h5.1V20.2z"/>
	<path fill="#F19027" d="M37.9,35.7c0,2.2,1.9,3.1,3.9,3.1c1.4,0,3.3-0.6,3.3-2.4c0-1.5-2.2-2.1-5.8-2.9c-3-0.7-5.9-1.7-5.9-5
		c0-4.8,4.1-6,8.1-6c4,0,7.8,1.4,8.2,5.9h-4.9c-0.1-2-1.7-2.5-3.5-2.5c-1.2,0-2.8,0.2-2.8,1.7c0,1.8,2.9,2.1,5.8,2.8
		c3,0.7,5.9,1.8,5.9,5.2c0,4.9-4.3,6.5-8.5,6.5c-4.3,0-8.6-1.6-8.7-6.6H37.9z"/>
</g>
</svg>
