<?xml version="1.0" encoding="utf-8"?>
<!-- Generator: Adobe Illustrator 18.1.0, SVG Export Plug-In . SVG Version: 6.00 Build 0)  -->
<!DOCTYPE svg PUBLIC "-//W3C//DTD SVG 1.1//EN" "http://www.w3.org/Graphics/SVG/1.1/DTD/svg11.dtd">
<svg version="1.1" id="Layer_1" xmlns="http://www.w3.org/2000/svg" xmlns:xlink="http://www.w3.org/1999/xlink" x="0px" y="0px"
	 width="64px" height="64px" viewBox="0 0 64 64" enable-background="new 0 0 64 64" xml:space="preserve">
<g>
	<path fill="#8CC63F" d="M10.5,36.2h5.7v5.5h-5.7V36.2z"/>
	<path fill="#8CC63F" d="M19.9,23.1h4.9v3.5h0.1c1-2.3,3.4-4,5.9-4c0.4,0,0.8,0.1,1.1,0.2v4.8c-0.5-0.1-1.2-0.2-1.8-0.2
		c-3.8,0-5,2.7-5,6v8.4h-5.1V23.1z"/>
	<path fill="#8CC63F" d="M34.3,16h5.1v9.4h0.1c1.3-1.9,3.6-2.8,5.9-2.8c3.7,0,7.7,3,7.7,9.8c0,6.8-4,9.8-7.7,9.8
		c-2.7,0-5-0.8-6.1-2.9h-0.1v2.4h-4.9V16z M43.6,26.4c-3,0-4.4,2.8-4.4,6c0,3.1,1.3,5.9,4.4,5.9c3,0,4.4-2.8,4.4-5.9
		C48,29.2,46.6,26.4,43.6,26.4z"/>
</g>
</svg>
