<?xml version="1.0" encoding="utf-8"?>
<!-- Generator: Adobe Illustrator 18.1.0, SVG Export Plug-In . SVG Version: 6.00 Build 0)  -->
<!DOCTYPE svg PUBLIC "-//W3C//DTD SVG 1.1//EN" "http://www.w3.org/Graphics/SVG/1.1/DTD/svg11.dtd">
<svg version="1.1" id="Layer_1" xmlns="http://www.w3.org/2000/svg" xmlns:xlink="http://www.w3.org/1999/xlink" x="0px" y="0px"
	 width="64px" height="64px" viewBox="0 0 64 64" enable-background="new 0 0 64 64" xml:space="preserve">
<g>
	<path fill="#00AED1" d="M2.1,30.3h4.7v4.6H2.1V30.3z"/>
	<path fill="#00AED1" d="M7.1,36.8c0.2,0.1,0.5,0.1,0.9,0.1c0.9,0,1.6-0.2,1.6-1.4V19.4h4.3v16.3c0,3.2-1.2,4.7-5.5,4.7
		c-0.5,0-0.9,0-1.4-0.1V36.8z M13.9,17H9.7v-3.5h4.3V17z"/>
	<path fill="#00AED1" d="M16.6,24.2c0.2-4,3.8-5.2,7.3-5.2c3.1,0,6.8,0.7,6.8,4.4v8.1c0,1.4,0.1,2.8,0.5,3.5h-4.3
		c-0.2-0.5-0.3-1-0.3-1.5c-1.4,1.4-3.3,1.9-5.2,1.9c-3,0-5.3-1.5-5.3-4.6c0.1-7,10.5-3.3,10.3-6.8c0-1.8-1.3-2.1-2.8-2.1
		c-1.6,0-2.7,0.7-2.8,2.3H16.6z M26.5,27.3c-0.7,0.6-2.2,0.7-3.5,0.9c-1.3,0.2-2.5,0.7-2.5,2.3c0,1.6,1.2,2,2.6,2
		c3.3,0,3.4-2.6,3.4-3.6V27.3z"/>
	<path fill="#00AED1" d="M41.7,34.9h-4.7l-5.3-15.5h4.5L39.4,30h0.1l3.3-10.6h4.2L41.7,34.9z"/>
	<path fill="#00AED1" d="M47.5,24.2c0.2-4,3.8-5.2,7.3-5.2c3.1,0,6.8,0.7,6.8,4.4v8.1c0,1.4,0.1,2.8,0.5,3.5h-4.3
		c-0.2-0.5-0.3-1-0.3-1.5c-1.4,1.4-3.3,1.9-5.2,1.9c-3,0-5.3-1.5-5.3-4.6c0.1-7,10.5-3.3,10.3-6.8c0-1.8-1.3-2.1-2.8-2.1
		c-1.6,0-2.7,0.7-2.8,2.3H47.5z M57.3,27.3c-0.7,0.6-2.2,0.7-3.5,0.9c-1.3,0.2-2.5,0.7-2.5,2.3c0,1.6,1.2,2,2.6,2
		c3.3,0,3.5-2.6,3.5-3.6V27.3z"/>
	<path fill="#00AED1" d="M16,39.5h2.3v11.4H16V39.5z"/>
	<path fill="#00AED1" d="M22.1,41.4h-2.3v-1.9h2.3V41.4z M19.8,42.6h2.3v8.3h-2.3V42.6z"/>
	<path fill="#00AED1" d="M23.7,39.5H26v4.2h0c0.6-0.8,1.6-1.2,2.6-1.2c1.6,0,3.4,1.3,3.4,4.4s-1.8,4.4-3.4,4.4
		c-1.2,0-2.2-0.4-2.7-1.3h0v1.1h-2.2V39.5z M27.8,44.1c-1.3,0-1.9,1.2-1.9,2.7c0,1.4,0.6,2.6,1.9,2.6s1.9-1.3,1.9-2.6
		C29.8,45.4,29.2,44.1,27.8,44.1z"/>
	<path fill="#00AED1" d="M35.1,47.3c0.1,1.5,0.8,2.1,2,2.1c0.9,0,1.6-0.6,1.8-1.1h2c-0.6,2-2,2.8-3.9,2.8c-2.6,0-4.2-1.8-4.2-4.4
		c0-2.5,1.7-4.4,4.2-4.4c2.8,0,4.2,2.4,4,4.9H35.1z M38.8,45.9c-0.2-1.2-0.7-1.8-1.8-1.8c-1.5,0-1.8,1.1-1.9,1.8H38.8z"/>
	<path fill="#00AED1" d="M42.3,42.6h2.2v1.5h0c0.4-1,1.5-1.8,2.6-1.8c0.2,0,0.3,0,0.5,0.1v2.1c-0.2,0-0.5-0.1-0.8-0.1
		c-1.7,0-2.2,1.2-2.2,2.7v3.7h-2.3V42.6z"/>
	<path fill="#00AED1" d="M52.2,42.6h1.7v1.5h-1.7v4.1c0,0.8,0.2,1,1,1c0.3,0,0.5,0,0.7-0.1v1.8C53.5,51,53,51,52.5,51
		c-1.4,0-2.6-0.3-2.6-2v-4.9h-1.4v-1.5h1.4v-2.5h2.3V42.6z"/>
	<path fill="#00AED1" d="M59.6,52c-0.5,1.3-1.3,1.9-2.8,1.9c-0.5,0-0.9,0-1.4-0.1v-1.9c0.4,0,0.9,0.1,1.3,0.1c0.6-0.1,0.9-0.5,0.9-1
		c0-0.2,0-0.4-0.1-0.5l-2.9-7.8H57l1.9,5.7h0l1.8-5.7h2.4L59.6,52z"/>
</g>
</svg>
