<?xml version="1.0" encoding="utf-8"?>
<!-- Generator: Adobe Illustrator 18.1.0, SVG Export Plug-In . SVG Version: 6.00 Build 0)  -->
<!DOCTYPE svg PUBLIC "-//W3C//DTD SVG 1.1//EN" "http://www.w3.org/Graphics/SVG/1.1/DTD/svg11.dtd">
<svg version="1.1" id="Layer_1" xmlns="http://www.w3.org/2000/svg" xmlns:xlink="http://www.w3.org/1999/xlink" x="0px" y="0px"
	 width="64px" height="64px" viewBox="0 0 64 64" enable-background="new 0 0 64 64" xml:space="preserve">
<g>
	<path fill="#E71D32" d="M0.8,37.4h5v4.9h-5V37.4z"/>
	<path fill="#E71D32" d="M8.5,25.8h4.3v2.1h0.1c1.1-1.8,2.9-2.6,4.9-2.6c5.2,0,7.5,4.2,7.5,8.9c0,4.4-2.4,8.5-7.3,8.5
		c-2,0-3.8-0.9-5-2.5H13v7.9H8.5V25.8z M20.7,34.1c0-2.7-1.1-5.3-4-5.3c-3,0-3.9,2.7-3.9,5.3c0,2.7,1,5.2,4,5.2
		C19.8,39.4,20.7,36.8,20.7,34.1z"/>
	<path fill="#E71D32" d="M27.6,19.5h4.5v8.6h0.1c1.2-1.9,3.1-2.8,4.8-2.8c4.8,0,6,2.7,6,6.8v10.2h-4.5V33c0-2.7-0.8-4.1-2.9-4.1
		c-2.5,0-3.5,1.4-3.5,4.7v8.7h-4.5V19.5z"/>
	<path fill="#E71D32" d="M46.1,25.8h4.3v2.1h0.1c1.1-1.8,2.9-2.6,4.9-2.6c5.2,0,7.5,4.2,7.5,8.9c0,4.4-2.4,8.5-7.3,8.5
		c-2,0-3.8-0.9-5-2.5h-0.1v7.9h-4.5V25.8z M58.4,34.1c0-2.7-1.1-5.3-4-5.3c-3,0-3.9,2.7-3.9,5.3c0,2.7,1,5.2,4,5.2
		C57.4,39.4,58.4,36.8,58.4,34.1z"/>
</g>
</svg>
