<?xml version="1.0" encoding="utf-8"?>
<!-- Generator: Adobe Illustrator 19.2.1, SVG Export Plug-In . SVG Version: 6.00 Build 0)  -->
<svg version="1.1" xmlns="http://www.w3.org/2000/svg" xmlns:xlink="http://www.w3.org/1999/xlink" x="0px" y="0px" width="1600px"
	 height="1600px" viewBox="0 0 1600 1600" enable-background="new 0 0 1600 1600" xml:space="preserve">
<g id="ART">
	
		<line fill="none" stroke="#000000" stroke-width="2.216" stroke-miterlimit="10" x1="1270.61" y1="1204.88" x2="1414.82" y2="1204.88"/>
	
		<rect x="486.39" y="166.84" fill="none" stroke="#0F76BC" stroke-width="11.8918" stroke-miterlimit="10" width="824.29" height="771"/>
	<g>
		<g>
			
				<rect x="528.47" y="745.41" fill="none" stroke="#030404" stroke-width="2.216" stroke-miterlimit="10" width="355.69" height="146.25"/>
		</g>
		<g>
			
				<rect x="912.91" y="745.41" fill="none" stroke="#030404" stroke-width="2.216" stroke-miterlimit="10" width="355.69" height="146.25"/>
		</g>
	</g>
	
		<rect x="528.47" y="388.41" fill="none" stroke="#030404" stroke-width="2.216" stroke-miterlimit="10" width="740.13" height="146.25"/>
	
		<rect x="528.47" y="208.92" fill="none" stroke="#030404" stroke-width="2.216" stroke-miterlimit="10" width="740.13" height="146.25"/>
	<g>
		<g>
			<path fill="#2F354D" d="M754,413.59c-21.85,0-39.56,4.62-39.56,10.32v74.66c0,5.7,17.71,10.32,39.56,10.32
				c21.85,0,39.56-4.62,39.56-10.32v-74.66C793.56,418.21,775.85,413.59,754,413.59z"/>
			
				<ellipse fill="#2F354D" stroke="#FFFFFF" stroke-width="1.7199" stroke-miterlimit="10" cx="754" cy="423.91" rx="39.56" ry="10.32"/>
		</g>
	</g>
	<g>
		<g>
			<path fill="#2F354D" d="M853.24,413.59c-21.85,0-39.56,4.62-39.56,10.32v74.66c0,5.7,17.71,10.32,39.56,10.32
				c21.85,0,39.56-4.62,39.56-10.32v-74.66C892.8,418.21,875.09,413.59,853.24,413.59z"/>
			
				<ellipse fill="#2F354D" stroke="#FFFFFF" stroke-width="1.7199" stroke-miterlimit="10" cx="853.24" cy="423.91" rx="39.56" ry="10.32"/>
		</g>
	</g>
	<g>
		<path fill="#2F354D" d="M1008.47,509.69h-90.73c-1.29,0-2.35-1.06-2.35-2.35v-90.73c0-1.29,1.06-2.35,2.35-2.35h90.73
			c1.29,0,2.35,1.06,2.35,2.35v90.73C1010.82,508.64,1009.76,509.69,1008.47,509.69z"/>
	</g>
	<g>
		<path fill="#2F354D" d="M1123.85,509.69h-90.73c-1.29,0-2.35-1.06-2.35-2.35v-90.73c0-1.29,1.06-2.35,2.35-2.35h90.73
			c1.29,0,2.35,1.06,2.35,2.35v90.73C1126.2,508.64,1125.14,509.69,1123.85,509.69z"/>
	</g>
	<g>
		<path fill="#2F354D" d="M1238.81,509.69h-90.73c-1.29,0-2.35-1.06-2.35-2.35v-90.73c0-1.29,1.06-2.35,2.35-2.35h90.73
			c1.29,0,2.35,1.06,2.35,2.35v90.73C1241.16,508.64,1240.1,509.69,1238.81,509.69z"/>
	</g>
	<g>
		
			<rect x="528.47" y="566.91" fill="none" stroke="#030404" stroke-width="2.216" stroke-miterlimit="10" width="740.13" height="146.25"/>
		<circle fill="none" stroke="#23B0E6" stroke-width="3.3239" stroke-miterlimit="10" cx="821.74" cy="640.59" r="36.38"/>
		<circle fill="none" stroke="#DFE6EB" stroke-width="3.3239" stroke-miterlimit="10" cx="901.35" cy="640.59" r="36.38"/>
		<circle fill="none" stroke="#DFE6EB" stroke-width="3.3239" stroke-miterlimit="10" cx="980.96" cy="640.59" r="36.38"/>
		<circle fill="none" stroke="#DFE6EB" stroke-width="3.3239" stroke-miterlimit="10" cx="1060.57" cy="640.59" r="36.38"/>
		<circle fill="none" stroke="#DFE6EB" stroke-width="3.3239" stroke-miterlimit="10" cx="1140.18" cy="640.59" r="36.38"/>
		<circle fill="none" stroke="#DFE6EB" stroke-width="3.3239" stroke-miterlimit="10" cx="1219.79" cy="640.59" r="36.38"/>
		<circle fill="none" stroke="#23B0E6" stroke-width="3.3239" stroke-miterlimit="10" cx="742.14" cy="640.59" r="36.38"/>
		<g>
			<path fill="#00AED1" d="M721.63,639.49h3.05v2.99h-3.05V639.49z"/>
			<path fill="#00AED1" d="M724.87,643.7c0.13,0.06,0.32,0.06,0.58,0.06c0.58,0,1.04-0.13,1.04-0.91v-10.45h2.79v10.58
				c0,2.08-0.78,3.05-3.57,3.05c-0.32,0-0.58,0-0.91-0.06v-2.27H724.87z M729.28,630.85h-2.73v-2.27h2.79v2.27H729.28z"/>
			<path fill="#00AED1" d="M731.04,635.53c0.13-2.6,2.47-3.37,4.74-3.37c2.01,0,4.41,0.45,4.41,2.86v5.26
				c0,0.91,0.06,1.82,0.32,2.27h-2.79c-0.13-0.32-0.19-0.65-0.19-0.97c-0.91,0.91-2.14,1.23-3.37,1.23c-1.95,0-3.44-0.97-3.44-2.99
				c0.06-4.54,6.81-2.14,6.68-4.41c0-1.17-0.84-1.36-1.82-1.36c-1.04,0-1.75,0.45-1.82,1.49H731.04L731.04,635.53z M737.46,637.54
				c-0.45,0.39-1.43,0.45-2.27,0.58c-0.84,0.13-1.62,0.45-1.62,1.49c0,1.04,0.78,1.3,1.69,1.3c2.14,0,2.21-1.69,2.21-2.34V637.54z"
				/>
			<path fill="#00AED1" d="M747.32,642.47h-3.05l-3.44-10.06h2.92l2.08,6.88h0.06l2.14-6.88h2.73L747.32,642.47z"/>
			<path fill="#00AED1" d="M751.09,635.53c0.13-2.6,2.47-3.37,4.74-3.37c2.01,0,4.41,0.45,4.41,2.86v5.26
				c0,0.91,0.06,1.82,0.32,2.27h-2.79c-0.13-0.32-0.19-0.65-0.19-0.97c-0.91,0.91-2.14,1.23-3.37,1.23c-1.95,0-3.44-0.97-3.44-2.99
				c0.06-4.54,6.81-2.14,6.68-4.41c0-1.17-0.84-1.36-1.82-1.36c-1.04,0-1.75,0.45-1.82,1.49H751.09L751.09,635.53z M757.45,637.54
				c-0.45,0.39-1.43,0.45-2.27,0.58c-0.84,0.13-1.62,0.45-1.62,1.49c0,1.04,0.78,1.3,1.69,1.3c2.14,0,2.27-1.69,2.27-2.34v-1.04
				H757.45z"/>
			<path fill="#00AED1" d="M730.65,645.46h1.49v7.4h-1.49V645.46z"/>
			<path fill="#00AED1" d="M734.6,646.69h-1.49v-1.23h1.49V646.69z M733.11,647.47h1.49v5.39h-1.49V647.47z"/>
			<path fill="#00AED1" d="M735.64,645.46h1.49v2.73l0,0c0.39-0.52,1.04-0.78,1.69-0.78c1.04,0,2.21,0.84,2.21,2.86
				c0,2.01-1.17,2.86-2.21,2.86c-0.78,0-1.43-0.26-1.75-0.84l0,0v0.71h-1.43V645.46L735.64,645.46z M738.3,648.44
				c-0.84,0-1.23,0.78-1.23,1.75c0,0.91,0.39,1.69,1.23,1.69c0.84,0,1.23-0.84,1.23-1.69C739.6,649.28,739.21,648.44,738.3,648.44z"
				/>
			<path fill="#00AED1" d="M743.04,650.52c0.06,0.97,0.52,1.36,1.3,1.36c0.58,0,1.04-0.39,1.17-0.71h1.3
				c-0.39,1.3-1.3,1.82-2.53,1.82c-1.69,0-2.73-1.17-2.73-2.86c0-1.62,1.1-2.86,2.73-2.86c1.82,0,2.73,1.56,2.6,3.18h-3.83V650.52z
				 M745.44,649.61c-0.13-0.78-0.45-1.17-1.17-1.17c-0.97,0-1.17,0.71-1.23,1.17H745.44z"/>
			<path fill="#00AED1" d="M747.71,647.47h1.43v0.97l0,0c0.26-0.65,0.97-1.17,1.69-1.17c0.13,0,0.19,0,0.32,0.06v1.36
				c-0.13,0-0.32-0.06-0.52-0.06c-1.1,0-1.43,0.78-1.43,1.75v2.4h-1.49V647.47z"/>
			<path fill="#00AED1" d="M754.14,647.47h1.1v0.97h-1.1v2.66c0,0.52,0.13,0.65,0.65,0.65c0.19,0,0.32,0,0.45-0.06v1.17
				c-0.26,0.06-0.58,0.06-0.91,0.06c-0.91,0-1.69-0.19-1.69-1.3v-3.18h-0.91v-0.97h0.91v-1.62h1.49V647.47z"/>
			<path fill="#00AED1" d="M758.94,653.57c-0.32,0.84-0.84,1.23-1.82,1.23c-0.32,0-0.58,0-0.91-0.06v-1.23
				c0.26,0,0.58,0.06,0.84,0.06c0.39-0.06,0.58-0.32,0.58-0.65c0-0.13,0-0.26-0.06-0.32l-1.88-5.06h1.56l1.23,3.7l0,0l1.17-3.7h1.56
				L758.94,653.57z"/>
		</g>
		<g>
			<path fill="#F19025" d="M808.9,643.47h3.61v3.49h-3.61V643.47z"/>
			<path fill="#F19025" d="M813.4,648.35c0.19,0.06,0.38,0.06,0.7,0.06c0.63,0,1.27-0.19,1.27-1.08v-12.17h3.23v12.36
				c0,2.41-0.89,3.55-4.18,3.55c-0.32,0-0.7,0-1.08-0.06v-2.66H813.4z M818.6,633.33h-3.23v-2.66h3.23V633.33z"/>
			<path fill="#F19025" d="M823.54,643.15c0,1.39,1.2,1.96,2.47,1.96c0.89,0,2.09-0.38,2.09-1.52c0-0.95-1.39-1.33-3.68-1.84
				c-1.9-0.44-3.74-1.08-3.74-3.17c0-3.04,2.6-3.8,5.13-3.8s4.94,0.89,5.2,3.74h-3.11c-0.06-1.27-1.08-1.58-2.22-1.58
				c-0.76,0-1.77,0.13-1.77,1.08c0,1.14,1.84,1.33,3.68,1.77c1.9,0.44,3.74,1.14,3.74,3.3c0,3.11-2.73,4.12-5.39,4.12
				c-2.73,0-5.45-1.01-5.51-4.18h3.11V643.15z"/>
		</g>
		<g>
			<path fill="#7E277D" d="M885.96,643.82h3.68v3.55h-3.68V643.82z"/>
			<path fill="#7E277D" d="M902.68,646.6c0,2-0.71,5.29-6.19,5.29c-2.39,0-5.1-1.16-5.29-3.87h3.23c0.32,1.23,1.29,1.68,2.45,1.68
				c1.81,0,2.65-1.23,2.65-2.97v-1.55h-0.06c-0.71,1.29-2.13,1.87-3.61,1.87c-3.61,0-5.16-2.71-5.16-6.07c0-3.1,1.81-5.94,5.16-5.94
				c1.55,0,2.77,0.52,3.55,1.94h0.06v-1.61h3.16v11.23H902.68z M899.51,641.24c0-1.94-0.65-3.68-2.84-3.68
				c-1.87,0-2.65,1.61-2.65,3.42c0,1.74,0.65,3.61,2.65,3.61C898.61,644.53,899.51,642.92,899.51,641.24z"/>
			<path fill="#7E277D" d="M910.55,635.05c3.81,0,6.19,2.52,6.19,6.32c0,3.81-2.45,6.32-6.19,6.32c-3.74,0-6.19-2.52-6.19-6.32
				C904.35,637.56,906.81,635.05,910.55,635.05z M910.55,645.24c2.26,0,2.9-1.94,2.9-3.81c0-1.94-0.65-3.87-2.9-3.87
				c-2.26,0-2.9,1.94-2.9,3.87C907.64,643.3,908.35,645.24,910.55,645.24z"/>
		</g>
		<g>
			<path fill="#E62033" d="M958.59,643.68h3.6v3.53h-3.6V643.68z"/>
			<path fill="#E62033" d="M964.14,635.32h3.1v1.51h0.07c0.79-1.3,2.09-1.87,3.53-1.87c3.75,0,5.4,3.03,5.4,6.41
				c0,3.17-1.73,6.12-5.26,6.12c-1.44,0-2.74-0.65-3.6-1.8l0,0v5.69h-3.24V635.32z M972.93,641.3c0-1.95-0.79-3.82-2.88-3.82
				c-2.16,0-2.81,1.95-2.81,3.82c0,1.95,0.72,3.75,2.88,3.75C972.28,645.12,972.93,643.25,972.93,641.3z"/>
			<path fill="#E62033" d="M977.9,630.78h3.24v6.2h0.07c0.86-1.37,2.23-2.02,3.46-2.02c3.46,0,4.32,1.95,4.32,4.9v7.35h-3.24v-6.7
				c0-1.95-0.58-2.95-2.09-2.95c-1.8,0-2.52,1.01-2.52,3.39v6.27h-3.24V630.78L977.9,630.78z"/>
			<path fill="#E62033" d="M991.23,635.32h3.1v1.51h0.07c0.79-1.3,2.09-1.87,3.53-1.87c3.75,0,5.4,3.03,5.4,6.41
				c0,3.17-1.73,6.12-5.26,6.12c-1.44,0-2.74-0.65-3.6-1.8h-0.07v5.69h-3.24v-16.07H991.23z M1000.09,641.3
				c0-1.95-0.79-3.82-2.88-3.82c-2.16,0-2.81,1.95-2.81,3.82c0,1.95,0.72,3.75,2.88,3.75
				C999.37,645.12,1000.09,643.25,1000.09,641.3z"/>
		</g>
		<g>
			<path fill="#865DA7" d="M1044.84,643.69h3.84v3.77h-3.84V643.69z"/>
			<path fill="#865DA7" d="M1050.46,634.71h3.36v1.65h0.07c0.89-1.37,2.19-1.99,3.77-1.99c3.98,0,5.83,3.22,5.83,6.85
				c0,3.43-1.85,6.58-5.62,6.58c-1.58,0-2.95-0.69-3.84-1.92h-0.07v6.1h-3.5V634.71L1050.46,634.71z M1059.99,641.16
				c0-2.06-0.82-4.11-3.08-4.11s-3.02,2.06-3.02,4.11c0,2.06,0.82,4.04,3.08,4.04C1059.23,645.2,1059.99,643.21,1059.99,641.16z"/>
			<path fill="#865DA7" d="M1071.02,649.04c-0.75,2.06-1.99,2.88-4.39,2.88c-0.69,0-1.44-0.07-2.12-0.14v-2.88
				c0.69,0.07,1.37,0.14,2.06,0.14c0.89-0.07,1.37-0.82,1.37-1.58c0-0.27-0.07-0.55-0.14-0.82l-4.52-12h3.77l2.88,8.71l0,0
				l2.74-8.64h3.63L1071.02,649.04z"/>
		</g>
		<g>
			<path fill="#8CC640" d="M1128.49,638.78h3.17v3.05h-3.17V638.78z"/>
			<path fill="#8CC640" d="M1133.71,631.5h2.72v1.89h0.06c0.56-1.28,1.89-2.22,3.28-2.22c0.22,0,0.44,0.06,0.61,0.11v2.67
				c-0.28-0.06-0.67-0.11-1-0.11c-2.11,0-2.78,1.5-2.78,3.33v4.66h-2.83V631.5H1133.71z"/>
			<path fill="#8CC640" d="M1141.71,627.56h2.83v5.22h0.06c0.72-1.05,2-1.55,3.28-1.55c2.05,0,4.28,1.67,4.28,5.44
				s-2.22,5.44-4.28,5.44c-1.5,0-2.78-0.44-3.39-1.61h-0.06v1.33h-2.72V627.56z M1146.87,633.34c-1.67,0-2.44,1.55-2.44,3.33
				c0,1.72,0.72,3.28,2.44,3.28c1.67,0,2.44-1.55,2.44-3.28C1149.31,634.89,1148.54,633.34,1146.87,633.34z"/>
			<path fill="#8CC640" d="M1127.99,646c1.44,0,2.39,0.94,2.39,2.44c0,1.44-0.94,2.44-2.39,2.44s-2.39-0.94-2.39-2.44
				C1125.6,646.94,1126.55,646,1127.99,646z M1127.99,649.88c0.89,0,1.11-0.72,1.11-1.44c0-0.72-0.28-1.5-1.11-1.5
				c-0.83,0-1.11,0.72-1.11,1.5C1126.88,649.16,1127.16,649.88,1127.99,649.88z"/>
			<path fill="#8CC640" d="M1130.99,646.11h1.22v0.67l0,0c0.33-0.5,0.89-0.78,1.39-0.78c1.33,0,1.67,0.78,1.67,1.89v2.83h-1.28
				v-2.61c0-0.78-0.22-1.11-0.83-1.11c-0.67,0-1,0.39-1,1.33v2.39h-1.17V646.11z"/>
			<path fill="#8CC640" d="M1138.26,646.11h1.22v0.83l0,0c0.22-0.56,0.83-1,1.44-1c0.11,0,0.17,0,0.28,0.06v1.17
				c-0.11,0-0.28-0.06-0.44-0.06c-0.94,0-1.22,0.67-1.22,1.5v2.05h-1.28V646.11L1138.26,646.11z"/>
			<path fill="#8CC640" d="M1141.54,647.55c0.06-1.17,1.11-1.55,2.17-1.55c0.89,0,2,0.22,2,1.33v2.39c0,0.44,0.06,0.83,0.17,1h-1.28
				c-0.06-0.17-0.06-0.28-0.11-0.44c-0.39,0.44-1,0.56-1.55,0.56c-0.89,0-1.55-0.44-1.55-1.39c0-2.11,3.11-0.94,3.05-2
				c0-0.56-0.39-0.61-0.83-0.61c-0.5,0-0.78,0.22-0.83,0.67h-1.22V647.55z M1144.43,648.5c-0.22,0.17-0.67,0.22-1.06,0.28
				c-0.39,0.06-0.72,0.17-0.72,0.67c0,0.44,0.39,0.61,0.78,0.61c1,0,1-0.78,1-1.06V648.5z"/>
			<path fill="#8CC640" d="M1147.87,645.39h-1.28v-1.06h1.28V645.39z M1146.59,646.11h1.28v4.61h-1.28V646.11z"/>
			<path fill="#8CC640" d="M1148.76,644.39h1.28v6.33h-1.28V644.39z"/>
			<path fill="#8CC640" d="M1151.81,649.22c0,0.56,0.5,0.78,0.94,0.78c0.33,0,0.83-0.17,0.83-0.61c0-0.39-0.56-0.5-1.44-0.72
				c-0.72-0.17-1.44-0.39-1.44-1.22c0-1.17,1-1.5,2-1.5c1,0,1.94,0.33,2,1.44h-1.22c-0.06-0.5-0.39-0.61-0.89-0.61
				c-0.28,0-0.72,0.06-0.72,0.44c0,0.44,0.72,0.5,1.44,0.67c0.72,0.17,1.44,0.44,1.44,1.28c0,1.22-1.06,1.61-2.11,1.61
				s-2.11-0.39-2.17-1.61h1.33V649.22z"/>
		</g>
		<g>
			<path fill="#058AC0" d="M1208.13,638.81h3.17v3.06h-3.17V638.81z"/>
			<path fill="#058AC0" d="M1213.36,631.51h2.73v1.89h0.06c0.56-1.28,1.89-2.23,3.28-2.23c0.22,0,0.45,0.06,0.61,0.11v2.67
				c-0.28-0.06-0.67-0.11-1-0.11c-2.12,0-2.78,1.5-2.78,3.34v4.68h-2.84v-10.35H1213.36z"/>
			<path fill="#058AC0" d="M1221.37,627.56h2.84v5.23h0.06c0.72-1.06,2-1.56,3.28-1.56c2.06,0,4.29,1.67,4.29,5.45
				c0,3.79-2.23,5.45-4.29,5.45c-1.5,0-2.78-0.45-3.4-1.61h-0.06v1.34h-2.73V627.56z M1226.55,633.35c-1.67,0-2.45,1.56-2.45,3.34
				c0,1.73,0.72,3.28,2.45,3.28c1.67,0,2.45-1.56,2.45-3.28C1229,634.91,1228.22,633.35,1226.55,633.35z"/>
			<path fill="#058AC0" d="M1207.07,649.27c0,0.56,0.5,0.78,0.95,0.78c0.33,0,0.83-0.17,0.83-0.61c0-0.39-0.56-0.5-1.45-0.72
				c-0.72-0.17-1.45-0.39-1.45-1.22c0-1.17,1-1.5,2-1.5c1,0,1.95,0.33,2,1.45h-1.22c-0.06-0.5-0.39-0.61-0.89-0.61
				c-0.28,0-0.72,0.06-0.72,0.45c0,0.45,0.72,0.5,1.45,0.67c0.72,0.17,1.45,0.45,1.45,1.28c0,1.22-1.06,1.61-2.12,1.61
				c-1.06,0-2.12-0.39-2.17-1.61h1.34V649.27z"/>
			<path fill="#058AC0" d="M1212.02,645.43h-1.28v-1.06h1.28V645.43z M1210.74,646.15h1.28v4.62h-1.28V646.15z"/>
			<path fill="#058AC0" d="M1212.86,646.15h1.22v0.67l0,0c0.33-0.5,0.89-0.78,1.39-0.78c1.34,0,1.67,0.78,1.67,1.89v2.84h-1.28
				v-2.62c0-0.78-0.22-1.11-0.83-1.11c-0.67,0-1,0.39-1,1.34v2.39h-1.17V646.15z"/>
			<path fill="#058AC0" d="M1217.98,647.6c0.06-1.17,1.11-1.56,2.17-1.56c0.89,0,2,0.22,2,1.34v2.39c0,0.45,0.06,0.83,0.17,1h-1.28
				c-0.06-0.17-0.06-0.28-0.11-0.45c-0.39,0.45-1,0.56-1.56,0.56c-0.89,0-1.56-0.45-1.56-1.39c0-2.12,3.12-0.95,3.06-2
				c0-0.56-0.39-0.61-0.83-0.61c-0.5,0-0.78,0.22-0.83,0.67h-1.22V647.6z M1220.87,648.55c-0.22,0.17-0.67,0.22-1.06,0.28
				c-0.39,0.06-0.72,0.22-0.72,0.67s0.39,0.61,0.78,0.61c1,0,1-0.78,1-1.06V648.55z"/>
			<path fill="#058AC0" d="M1224.6,646.15h0.95v0.83h-0.95v2.28c0,0.45,0.11,0.56,0.56,0.56c0.17,0,0.28,0,0.39-0.06v1
				c-0.22,0.06-0.5,0.06-0.72,0.06c-0.78,0-1.45-0.17-1.45-1.11v-2.73h-0.78v-0.83h0.78v-1.39h1.28v1.39H1224.6z"/>
			<path fill="#058AC0" d="M1226.22,646.15h1.22v0.83l0,0c0.22-0.56,0.83-1,1.45-1c0.11,0,0.17,0,0.28,0.06v1.17
				c-0.11,0-0.28-0.06-0.45-0.06c-0.95,0-1.22,0.67-1.22,1.5v2.06h-1.28V646.15z"/>
			<path fill="#058AC0" d="M1229.5,647.6c0.06-1.17,1.11-1.56,2.17-1.56c0.89,0,2,0.22,2,1.34v2.39c0,0.45,0.06,0.83,0.17,1h-1.28
				c-0.06-0.17-0.06-0.28-0.11-0.45c-0.39,0.45-1,0.56-1.56,0.56c-0.89,0-1.56-0.45-1.56-1.39c0-2.12,3.12-0.95,3.06-2
				c0-0.56-0.39-0.61-0.83-0.61c-0.5,0-0.78,0.22-0.83,0.67h-1.22V647.6z M1232.4,648.55c-0.22,0.17-0.67,0.22-1.06,0.28
				c-0.39,0.06-0.72,0.22-0.72,0.67s0.39,0.61,0.78,0.61c1,0,1-0.78,1-1.06V648.55z"/>
		</g>
	</g>
	<rect x="1336.19" y="160.66" fill="#EDF8FC" width="35.46" height="828.67"/>
	<g>
		<g>
			
				<line fill="none" stroke="#48C1F0" stroke-width="3.3239" stroke-miterlimit="10" x1="1336.19" y1="160.66" x2="1336.19" y2="162.87"/>
			
				<line fill="none" stroke="#48C1F0" stroke-width="3.3239" stroke-miterlimit="10" stroke-dasharray="4.4553,4.4553" x1="1336.19" y1="167.33" x2="1336.19" y2="984.88"/>
			
				<line fill="none" stroke="#48C1F0" stroke-width="3.3239" stroke-miterlimit="10" x1="1336.19" y1="987.11" x2="1336.19" y2="989.33"/>
		</g>
	</g>
	<g>
		<g>
			
				<line fill="none" stroke="#48C1F0" stroke-width="3.3239" stroke-miterlimit="10" x1="1371.64" y1="160.66" x2="1371.64" y2="162.87"/>
			
				<line fill="none" stroke="#48C1F0" stroke-width="3.3239" stroke-miterlimit="10" stroke-dasharray="4.4553,4.4553" x1="1371.64" y1="167.33" x2="1371.64" y2="984.88"/>
			
				<line fill="none" stroke="#48C1F0" stroke-width="3.3239" stroke-miterlimit="10" x1="1371.64" y1="987.11" x2="1371.64" y2="989.33"/>
		</g>
	</g>
	<rect x="425.43" y="160.66" fill="#EDF8FC" width="35.46" height="828.67"/>
	
		<line fill="none" stroke="#48C1F0" stroke-width="3.3239" stroke-miterlimit="10" stroke-dasharray="4.4319" x1="425.43" y1="160.66" x2="425.43" y2="989.33"/>
	
		<line fill="none" stroke="#48C1F0" stroke-width="3.3239" stroke-miterlimit="10" stroke-dasharray="4.4319" x1="460.89" y1="160.66" x2="460.89" y2="989.33"/>
	<rect x="353.99" y="160.66" fill="#EDF8FC" width="35.46" height="828.67"/>
	
		<rect x="801.4" y="758.58" transform="matrix(-1.836970e-016 1 -1 -1.836970e-016 2130.2234 491.959)" fill="#CED5DE" width="35.46" height="1105.02"/>
	
		<rect x="1469.3" y="1211.69" transform="matrix(-1.836970e-016 1 -1 -1.836970e-016 2798.1143 -175.9319)" fill="#CED5DE" width="35.46" height="198.81"/>
	
		<line fill="none" stroke="#48C1F0" stroke-width="3.3239" stroke-miterlimit="10" stroke-dasharray="4.4319" x1="353.99" y1="160.66" x2="353.99" y2="989.33"/>
	
		<line fill="none" stroke="#48C1F0" stroke-width="3.3239" stroke-miterlimit="10" stroke-dasharray="4.4319" x1="389.45" y1="160.66" x2="389.45" y2="989.33"/>
	<rect x="280.87" y="160.66" opacity="0.5" fill="#E62033" width="35.46" height="828.67"/>
	
		<line opacity="0.8" fill="none" stroke="#E62033" stroke-width="3.3239" stroke-miterlimit="10" stroke-dasharray="4.4319" x1="280.87" y1="160.66" x2="280.87" y2="989.33"/>
	
		<line opacity="0.8" fill="none" stroke="#E62033" stroke-width="3.3239" stroke-miterlimit="10" stroke-dasharray="4.4319" x1="316.32" y1="160.66" x2="316.32" y2="989.33"/>
	<g>
		<polygon fill="#325D80" points="1455.44,502.5 1431.23,458.5 1455.44,414.5 1503.87,414.5 1528.09,458.5 1503.87,502.5 		"/>
		<polygon fill="#325D80" points="1455.44,603.5 1431.23,559.5 1455.44,515.5 1503.87,515.5 1528.09,559.5 1503.87,603.5 		"/>
		<polygon fill="#325D80" points="1455.44,706.5 1431.23,664 1455.44,621.5 1503.87,621.5 1528.09,664 1503.87,706.5 		"/>
		<polygon fill="#325D80" points="1455.44,810.5 1431.23,766.5 1455.44,722.5 1503.87,722.5 1528.09,766.5 1503.87,810.5 		"/>
		<polygon fill="#325D80" points="1455.44,913.5 1431.23,870.5 1455.44,827.5 1503.87,827.5 1528.09,870.5 1503.87,913.5 		"/>
	</g>
	
		<rect x="1396.93" y="334.98" fill="none" stroke="#030404" stroke-width="2.216" stroke-miterlimit="10" width="165.46" height="602.86"/>
	<circle cx="528.47" cy="632.41" r="9.9"/>
	<circle stroke="#000000" stroke-width="2.216" stroke-miterlimit="10" cx="280.87" cy="210.56" r="9.9"/>
	<circle stroke="#000000" stroke-width="2.216" stroke-miterlimit="10" cx="353.99" cy="321.44" r="9.9"/>
	<circle stroke="#FFFFFF" stroke-width="2.216" stroke-miterlimit="10" cx="994.44" cy="414.93" r="9.9"/>
	<circle fill="#23B0E6" cx="928.78" cy="581.19" r="6.15"/>
	<circle fill="#23B0E6" cx="443.16" cy="656.13" r="6.15"/>
	<circle fill="#23B0E6" cx="371.72" cy="656.13" r="6.15"/>
	<circle fill="#23B0E6" cx="298.59" cy="656.13" r="6.15"/>
	<circle fill="#A53724" cx="443.16" cy="460.65" r="6.15"/>
	<circle fill="#A53724" cx="611.95" cy="282.05" r="6.15"/>
	<circle fill="#A53724" cx="371.72" cy="460.65" r="6.15"/>
	<circle fill="#A53724" cx="298.59" cy="460.65" r="6.15"/>
	
		<rect x="465.83" y="37.26" fill="none" stroke="#000000" stroke-width="1.7079" stroke-miterlimit="10" width="181.87" height="78.3"/>
	
		<rect x="243.56" y="37.26" fill="none" stroke="#000000" stroke-width="1.7079" stroke-miterlimit="10" width="181.87" height="78.3"/>
	
		<rect x="919.41" y="37.26" fill="none" stroke="#000000" stroke-width="1.7079" stroke-miterlimit="10" width="152.66" height="55.41"/>
	
		<rect x="81.67" y="200.65" fill="none" stroke="#000000" stroke-width="1.7079" stroke-miterlimit="10" width="152.66" height="55.41"/>
	
		<rect x="81.67" y="267.62" fill="none" stroke="#000000" stroke-width="1.7079" stroke-miterlimit="10" width="152.66" height="55.41"/>
	
		<rect x="186.65" y="1071.38" fill="none" stroke="#6D7777" stroke-width="2.5083" stroke-miterlimit="10" width="152.66" height="55.41"/>
	
		<rect x="27.18" y="1071.38" fill="none" stroke="#6D7777" stroke-width="2.5083" stroke-miterlimit="10" width="152.66" height="55.41"/>
	<line fill="none" stroke="#000000" stroke-width="2.216" stroke-miterlimit="10" x1="995.74" y1="414.93" x2="995.74" y2="92.67"/>
	<polyline fill="none" stroke="#000000" stroke-width="2.216" stroke-miterlimit="10" points="556.12,115.56 527.23,311.34 
		527.23,632.41 	"/>
	<polyline fill="none" stroke="#000000" stroke-width="2.216" stroke-miterlimit="10" points="234.33,228.36 257.23,228.36 
		280.87,210.56 257.6,295.33 234.33,295.33 	"/>
	<polyline fill="none" stroke="#000000" stroke-width="2.216" stroke-miterlimit="10" points="353.99,321.44 353.99,265.54 
		334.5,115.56 	"/>
	<polyline fill="none" stroke="#23B0E6" stroke-width="2.1441" stroke-miterlimit="10" points="225.68,640.46 241.35,656.13 
		225.68,671.8 	"/>
	<line fill="none" stroke="#23B0E6" stroke-width="2.1441" stroke-miterlimit="10" x1="7.31" y1="602.79" x2="7.31" y2="656.13"/>
	<g>
		<g>
			<line fill="none" stroke="#23B0E6" stroke-width="2.1441" stroke-miterlimit="10" x1="7.31" y1="656.13" x2="15.8" y2="656.13"/>
			
				<polyline fill="none" stroke="#23B0E6" stroke-width="2.1441" stroke-miterlimit="10" stroke-dasharray="17.1745,17.1745" points="
				32.97,656.13 298.59,656.13 371.72,656.13 443.16,656.13 911.91,583.8 			"/>
			
				<line fill="none" stroke="#23B0E6" stroke-width="2.1441" stroke-miterlimit="10" x1="920.4" y1="582.49" x2="928.78" y2="581.19"/>
		</g>
	</g>
	<circle fill="#91268F" cx="103.51" cy="1126.26" r="6.15"/>
	<circle fill="#91268F" cx="259.74" cy="1126.26" r="6.15"/>
	<line fill="none" stroke="#00A6A0" stroke-width="2.1441" stroke-miterlimit="10" x1="6.21" y1="849.98" x2="6.21" y2="796.64"/>
	<circle fill="#00A6A0" cx="1414.82" cy="578.98" r="6.15"/>
	<circle fill="#00A6A0" cx="1011.38" cy="581.19" r="6.15"/>
	<polyline fill="none" stroke="#00A6A0" stroke-width="2.1441" stroke-miterlimit="10" points="201.29,834.31 216.96,849.98 
		201.29,865.65 	"/>
	<g>
		<g>
			
				<line fill="none" stroke="#00A6A0" stroke-width="2.1441" stroke-miterlimit="10" x1="1414.82" y1="578.98" x2="1406.34" y2="578.98"/>
			
				<line fill="none" stroke="#00A6A0" stroke-width="2.1441" stroke-miterlimit="10" stroke-dasharray="16.9456,16.9456" x1="1389.39" y1="578.98" x2="1025.06" y2="578.98"/>
			<polyline fill="none" stroke="#00A6A0" stroke-width="2.1441" stroke-miterlimit="10" points="1016.59,578.98 1008.11,578.98 
				1004.03,571.54 			"/>
			
				<line fill="none" stroke="#00A6A0" stroke-width="2.1441" stroke-miterlimit="10" stroke-dasharray="20.6727,20.6727" x1="994.11" y1="553.4" x2="979.22" y2="526.2"/>
			<polyline fill="none" stroke="#00A6A0" stroke-width="2.1441" stroke-miterlimit="10" points="974.26,517.13 970.19,509.69 
				962.5,513.28 			"/>
			
				<polyline fill="none" stroke="#00A6A0" stroke-width="2.1441" stroke-miterlimit="10" stroke-dasharray="16.7456,16.7456" points="
				947.33,520.36 240.51,849.98 24.04,849.98 			"/>
			
				<line fill="none" stroke="#00A6A0" stroke-width="2.1441" stroke-miterlimit="10" x1="15.67" y1="849.98" x2="7.19" y2="849.98"/>
		</g>
	</g>
	<circle fill="#00A6A0" stroke="#FFFFFF" stroke-width="2.216" stroke-miterlimit="10" cx="970.19" cy="508.89" r="6.15"/>
	<circle fill="#91268F" cx="1092.97" cy="841.69" r="6.15"/>
	<circle fill="#91268F" cx="714.21" cy="841.69" r="6.15"/>
	<rect x="631.88" y="803.02" fill="none" width="143.67" height="31.02"/>
	<text transform="matrix(1 0 0 1 631.8831 823.5934)" fill="#030404" font-family="'HelveticaNeue-Light'" font-size="28.8074px">Bluemix UI</text>
	<rect x="667.36" y="274.26" fill="none" width="473.06" height="31.02"/>
	<text transform="matrix(1 0 0 1 667.3596 295.3459)"><tspan x="0" y="0" fill="#030404" font-family="'HelveticaNeue-Light'" font-size="28.8074px">Bluemix </tspan><tspan x="106.16" y="0" fill="#030404" font-family="'Gulim'" font-size="28.8074px">데디케이티드</tspan><tspan x="279" y="0" fill="#030404" font-family="'HelveticaNeue-Light'" font-size="28.8074px"> </tspan><tspan x="287.01" y="0" fill="#030404" font-family="'Gulim'" font-size="28.8074px">관리</tspan><tspan x="344.62" y="0" fill="#030404" font-family="'HelveticaNeue-Light'" font-size="28.8074px"> </tspan><tspan x="352.63" y="0" fill="#030404" font-family="'Gulim'" font-size="28.8074px">콘솔</tspan></text>
	<rect x="977.57" y="803.02" fill="none" width="230.8" height="31.02"/>
	<text transform="matrix(1 0 0 1 1016.9417 824.112)"><tspan x="0" y="0" fill="#030404" font-family="'HelveticaNeue-Light'" font-size="28.8074px">cf UAA </tspan><tspan x="94.44" y="0" fill="#030404" font-family="'Gulim'" font-size="28.8074px">서버</tspan></text>
	<rect x="552.85" y="430.52" fill="none" width="118.2" height="91.96"/>
	<text transform="matrix(1 0 0 1 552.8459 451.6018)"><tspan x="0" y="0" fill="#030404" font-family="'HelveticaNeue-Light'" font-size="28.8074px">cf </tspan><tspan x="30.41" y="0" fill="#030404" font-family="'Gulim'" font-size="28.8074px">제어</tspan><tspan x="0" y="35.46" fill="#030404" font-family="'Gulim'" font-size="28.8074px">요소</tspan></text>
	<rect x="729.87" y="448.41" fill="none" width="63.69" height="50.16"/>
	<text transform="matrix(1 0 0 1 729.8655 461.0676)"><tspan x="0" y="0" fill="#FEFFFF" font-family="'HelveticaNeue-Bold'" font-size="17.7276px">BLOB </tspan><tspan x="0" y="17.68" fill="#FEFFFF" font-family="'Gulim'" font-size="17.7276px">저장소</tspan></text>
	<rect x="828.39" y="456.38" fill="none" width="63.69" height="50.16"/>
	<text transform="matrix(1 0 0 1 828.387 469.0305)" fill="#FEFFFF" font-family="'HelveticaNeue-Bold'" font-size="17.7276px">CCDB</text>
	<rect x="920.79" y="439.04" fill="none" width="90.76" height="43.22"/>
	<text transform="matrix(1 0 0 1 920.7952 452.0139)"><tspan x="0" y="0" fill="#FEFFFF" font-family="'Gulim'" font-size="17.7276px">클라우드</tspan><tspan x="0" y="17.68" fill="#FEFFFF" font-family="'Gulim'" font-size="17.7276px">제어기</tspan></text>
	<rect x="1038.89" y="438.48" fill="none" width="78.73" height="57.62"/>
	<text transform="matrix(1 0 0 1 1038.8928 451.4553)"><tspan x="0" y="0" fill="#FEFFFF" font-family="'Gulim'" font-size="17.7276px">상태</tspan><tspan x="0" y="17.68" fill="#FEFFFF" font-family="'Gulim'" font-size="17.7276px">관리자</tspan></text>
	<rect x="1154.76" y="452.52" fill="none" width="77.82" height="18.93"/>
	<text transform="matrix(1 0 0 1 1154.7561 465.4914)" fill="#FEFFFF" font-family="'Gulim'" font-size="17.7276px">미터링</text>
	<rect x="552.85" y="588.88" fill="none" width="147.93" height="149.4"/>
	<text transform="matrix(1 0 0 1 552.8459 604.7009)"><tspan x="0" y="0" fill="#030404" font-family="'HelveticaNeue-Light'" font-size="22.1595px">DEA(Droplet </tspan><tspan x="0" y="28.81" fill="#030404" font-family="'HelveticaNeue-Light'" font-size="22.1595px">Execution </tspan><tspan x="0" y="57.61" fill="#030404" font-family="'HelveticaNeue-Light'" font-size="22.1595px">Agent)</tspan><tspan x="0" y="86.42" fill="#030404" font-family="'Gulim'" font-size="15px">앱</tspan><tspan x="15" y="86.42" fill="#030404" font-family="'HelveticaNeue-Light'" font-size="15px"> </tspan><tspan x="19.17" y="86.42" fill="#030404" font-family="'Gulim'" font-size="15px">런타임</tspan></text>
	<rect x="1347.27" y="466.68" fill="none" width="17.73" height="200.46"/>
	<text transform="matrix(0 -1 1 0 1359.9192 636.0036)" fill="#030404" font-family="'HelveticaNeue-Bold'" font-size="17.7276px">Secure Gateway</text>
	<g>
		<rect x="436.51" y="513.17" fill="none" width="17.73" height="122.67"/>
		
			<text transform="matrix(0 -1 1 0 449.4866 601.1022)" fill="#030404" stroke="#000000" stroke-width="0.25" stroke-miterlimit="10" font-family="'Gulim'" font-size="17.7276px">라우터</text>
	</g>
	<g>
		<rect x="365.07" y="463.69" fill="none" width="17.73" height="221.65"/>
		<text transform="matrix(0 -1 1 0 377.7258 680.1818)" fill="#030404" font-family="'HelveticaNeue-Bold'" font-size="17.7276px">IBM DataPower Gateway</text>
	</g>
	<rect x="291.95" y="513.17" fill="none" width="17.73" height="122.67"/>
	
		<text transform="matrix(0 -1 1 0 304.9221 601.1022)" fill="#030404" stroke="#000000" stroke-width="0.25" stroke-miterlimit="10" font-family="'Gulim'" font-size="17.7276px">방화벽</text>
	<rect x="1419.08" y="357.56" fill="none" width="121.15" height="47.02"/>
	<text transform="matrix(0.9779 0 0 1 1436.4446 379.1233)" fill="#030404" font-family="'Gulim'" font-size="29.457px">서비스</text>
	<g>
		<rect x="714.21" y="1302.23" fill="none" width="122.67" height="17.73"/>
		<text transform="matrix(1 0 0 1 744.6819 1314.8835)" fill="#030404" font-family="'HelveticaNeue-Bold'" font-size="17.7276px">VLAN 1</text>
	</g>
	<g>
		<rect x="1425.69" y="1302.23" fill="none" width="122.67" height="17.73"/>
		<text transform="matrix(1 0 0 1 1456.1545 1314.8835)" fill="#030404" font-family="'HelveticaNeue-Bold'" font-size="17.7276px">VLAN 2</text>
	</g>
	<rect x="481.52" y="57.95" fill="none" width="149.21" height="42.1"/>
	<text transform="matrix(1 0 0 1 502.9417 70.9231)"><tspan x="0" y="0" fill="#030404" font-family="'Gulim'" font-size="17.7276px">애플리케이션</tspan><tspan x="106.37" y="0" fill="#030404" font-family="'HelveticaNeue-Light'" font-size="17.7276px"> </tspan><tspan x="-2.46" y="22.16" fill="#030404" font-family="'Gulim'" font-size="17.7276px">컨테이너</tspan><tspan x="68.45" y="22.16" fill="#030404" font-family="'HelveticaNeue-Light'" font-size="17.7276px"> </tspan><tspan x="73.37" y="22.16" fill="#030404" font-family="'Gulim'" font-size="17.7276px">격리</tspan></text>
	<rect x="921.14" y="46.63" fill="none" width="149.21" height="37.91"/>
	<text transform="matrix(1 0 0 1 971.4495 59.2854)"><tspan x="0" y="0" fill="#030404" font-family="'HelveticaNeue-Light'" font-size="17.7276px">OAuth</tspan><tspan x="6.57" y="22.16" fill="#030404" font-family="'Gulim'" font-size="17.7276px">권한</tspan></text>
	<rect x="248.18" y="57.95" fill="none" width="171.37" height="42.1"/>
	<text transform="matrix(1 0 0 1 275.7483 70.9231)"><tspan x="0" y="0" fill="#030404" font-family="'Gulim'" font-size="17.7276px">리버스</tspan><tspan x="53.18" y="0" fill="#030404" font-family="'HelveticaNeue-Light'" font-size="17.7276px"> </tspan><tspan x="58.11" y="0" fill="#030404" font-family="'Gulim'" font-size="17.7276px">프록시</tspan><tspan x="111.29" y="0" fill="#030404" font-family="'HelveticaNeue-Light'" font-size="17.7276px">,</tspan><tspan x="-7.06" y="22.16" fill="#030404" font-family="'HelveticaNeue-Light'" font-size="17.7276px">SSL </tspan><tspan x="29.72" y="22.16" fill="#030404" font-family="'Gulim'" font-size="17.7276px">종료</tspan><tspan x="65.17" y="22.16" fill="#030404" font-family="'HelveticaNeue-Light'" font-size="17.7276px"> </tspan><tspan x="70.1" y="22.16" fill="#030404" font-family="'Gulim'" font-size="17.7276px">프록시</tspan></text>
	<rect x="83.4" y="221.34" fill="none" width="149.21" height="26.59"/>
	<text transform="matrix(1 0 0 1 144.8625 233.9944)" fill="#030404" font-family="'HelveticaNeue-Light'" font-size="17.7276px">IPS</text>
	<rect x="83.4" y="288.31" fill="none" width="149.21" height="26.59"/>
	<text transform="matrix(1 0 0 1 102.3528 301.2824)"><tspan x="0" y="0" fill="#030404" font-family="'Gulim'" font-size="17.7276px">네트워크</tspan><tspan x="70.91" y="0" fill="#030404" font-family="'HelveticaNeue-Light'" font-size="17.7276px"> </tspan><tspan x="75.83" y="0" fill="#030404" font-family="'Gulim'" font-size="17.7276px">보안</tspan></text>
	<rect x="188.38" y="1092.06" fill="none" width="149.21" height="26.59"/>
	<text transform="matrix(1 0 0 1 209.802 1105.0369)" fill="#030404" font-family="'Gulim'" font-size="17.7276px">데디케이티드</text>
	<rect x="28.91" y="1092.06" fill="none" width="149.21" height="26.59"/>
	<text transform="matrix(1 0 0 1 76.9202 1105.0369)" fill="#030404" font-family="'Gulim'" font-size="17.7276px">퍼블릭</text>
	<g>
		<circle stroke="#000000" stroke-width="2.216" stroke-miterlimit="10" cx="259.74" cy="1477.71" r="9.9"/>
		<circle stroke="#000000" stroke-width="2.216" stroke-miterlimit="10" cx="1586.43" cy="1477.71" r="9.9"/>
		<g>
			
				<rect x="262.95" y="1504.97" fill="none" stroke="#000000" stroke-width="2.2077" stroke-miterlimit="10" width="1323.48" height="55.41"/>
		</g>
		
			<line fill="#2F354D" stroke="#000000" stroke-width="2.216" stroke-miterlimit="10" x1="259.74" y1="1477.71" x2="1586.43" y2="1477.71"/>
		<rect x="264.68" y="1525.65" fill="none" width="790.79" height="26.59"/>
		<text transform="matrix(1 0 0 1 327.2991 1538.6248)"><tspan x="0" y="0" fill="#030404" font-family="'Gulim'" font-size="17.7276px">운영</tspan><tspan x="35.46" y="0" fill="#030404" font-family="'HelveticaNeue-Light'" font-size="17.7276px"> </tspan><tspan x="40.38" y="0" fill="#030404" font-family="'Gulim'" font-size="17.7276px">보안</tspan><tspan x="75.83" y="0" fill="#030404" font-family="'HelveticaNeue-Light'" font-size="17.7276px"> </tspan><tspan x="80.76" y="0" fill="#030404" font-family="'Gulim'" font-size="17.7276px">서비스</tspan><tspan x="133.94" y="0" fill="#030404" font-family="'HelveticaNeue-Light'" font-size="17.7276px">(IBM Endpoint Manager, QRadar, Nessus, User Access Management)</tspan></text>
	</g>
	<g>
		<rect x="18.39" y="612.08" fill="none" width="214.21" height="34.16"/>
		<text transform="matrix(1 0 0 1 18.3948 625.051)"><tspan x="0" y="0" fill="#030404" stroke="#000000" stroke-width="0.25" stroke-miterlimit="10" font-family="'Gulim'" font-size="17.7276px">앱</tspan><tspan x="17.73" y="0" fill="#030404" stroke="#000000" stroke-width="0.25" stroke-miterlimit="10" font-family="'HelveticaNeue-Bold'" font-size="17.7276px"> </tspan><tspan x="22.65" y="0" fill="#030404" stroke="#000000" stroke-width="0.25" stroke-miterlimit="10" font-family="'Gulim'" font-size="17.7276px">사용자</tspan><tspan x="75.83" y="0" fill="#030404" stroke="#000000" stroke-width="0.25" stroke-miterlimit="10" font-family="'HelveticaNeue-Bold'" font-size="17.7276px"> </tspan><tspan x="80.76" y="0" fill="#030404" stroke="#000000" stroke-width="0.25" stroke-miterlimit="10" font-family="'Gulim'" font-size="17.7276px">플로우</tspan></text>
	</g>
	<rect x="27.18" y="1042.29" fill="none" width="214.21" height="25.48"/>
	<text transform="matrix(1 0 0 1 27.1819 1055.2712)"><tspan x="0" y="0" fill="#030404" stroke="#000000" stroke-width="0.25" stroke-miterlimit="10" font-family="'Gulim'" font-size="17.7276px">개발자</tspan><tspan x="53.18" y="0" fill="#030404" stroke="#000000" stroke-width="0.25" stroke-miterlimit="10" font-family="'HelveticaNeue-Bold'" font-size="17.7276px"> </tspan><tspan x="58.11" y="0" fill="#030404" stroke="#000000" stroke-width="0.25" stroke-miterlimit="10" font-family="'Gulim'" font-size="17.7276px">로그인</tspan><tspan x="111.29" y="0" fill="#030404" stroke="#000000" stroke-width="0.25" stroke-miterlimit="10" font-family="'HelveticaNeue-Bold'" font-size="17.7276px"> </tspan><tspan x="116.21" y="0" fill="#030404" stroke="#000000" stroke-width="0.25" stroke-miterlimit="10" font-family="'Gulim'" font-size="17.7276px">플로우</tspan></text>
	<g>
		<rect x="16.3" y="798.91" fill="none" width="223.27" height="48.79"/>
		<text transform="matrix(1 0 0 1 16.301 811.8884)"><tspan x="0" y="0" fill="#030404" stroke="#000000" stroke-width="0.25" stroke-miterlimit="10" font-family="'Gulim'" font-size="17.7276px">개발</tspan><tspan x="35.46" y="0" fill="#030404" stroke="#000000" stroke-width="0.25" stroke-miterlimit="10" font-family="'HelveticaNeue-Bold'" font-size="17.7276px"> </tspan><tspan x="40.38" y="0" fill="#030404" stroke="#000000" stroke-width="0.25" stroke-miterlimit="10" font-family="'Gulim'" font-size="17.7276px">및</tspan><tspan x="0" y="22.16" fill="#030404" stroke="#000000" stroke-width="0.25" stroke-miterlimit="10" font-family="'Gulim'" font-size="17.7276px">배치</tspan><tspan x="35.46" y="22.16" fill="#030404" stroke="#000000" stroke-width="0.25" stroke-miterlimit="10" font-family="'HelveticaNeue-Bold'" font-size="17.7276px"> </tspan><tspan x="40.38" y="22.16" fill="#030404" stroke="#000000" stroke-width="0.25" stroke-miterlimit="10" font-family="'Gulim'" font-size="17.7276px">플로우</tspan></text>
	</g>
	<g>
		<g>
			
				<line fill="none" stroke="#91268F" stroke-width="2.1354" stroke-miterlimit="10" x1="103.51" y1="1126.26" x2="103.51" y2="1134.7"/>
			
				<line fill="none" stroke="#91268F" stroke-width="2.1354" stroke-miterlimit="10" stroke-dasharray="15.6416,15.6416" x1="103.51" y1="1150.34" x2="103.51" y2="1205.09"/>
			<polyline fill="none" stroke="#91268F" stroke-width="2.1354" stroke-miterlimit="10" points="103.51,1212.91 103.51,1221.36 
				111.96,1221.36 			"/>
			
				<line fill="none" stroke="#91268F" stroke-width="2.1354" stroke-miterlimit="10" stroke-dasharray="17.0625,17.0625" x1="129.02" y1="1221.36" x2="1075.99" y2="1221.36"/>
			<polyline fill="none" stroke="#91268F" stroke-width="2.1354" stroke-miterlimit="10" points="1084.52,1221.36 1092.97,1221.36 
				1092.97,1212.91 			"/>
			
				<line fill="none" stroke="#91268F" stroke-width="2.1354" stroke-miterlimit="10" stroke-dasharray="17.2749,17.2749" x1="1092.97" y1="1195.64" x2="1092.97" y2="858.78"/>
			
				<line fill="none" stroke="#91268F" stroke-width="2.1354" stroke-miterlimit="10" x1="1092.97" y1="850.14" x2="1092.97" y2="841.69"/>
		</g>
	</g>
	<g>
		<g>
			
				<line fill="none" stroke="#91268F" stroke-width="2.1354" stroke-miterlimit="10" x1="259.74" y1="1130.5" x2="259.74" y2="1138.95"/>
			<polyline fill="none" stroke="#91268F" stroke-width="2.1354" stroke-miterlimit="10" points="259.74,1161.94 259.74,1170.39 
				268.18,1170.39 			"/>
			
				<line fill="none" stroke="#91268F" stroke-width="2.1354" stroke-miterlimit="10" stroke-dasharray="17.5124,17.5124" x1="285.7" y1="1170.39" x2="697.24" y2="1170.39"/>
			<polyline fill="none" stroke="#91268F" stroke-width="2.1354" stroke-miterlimit="10" points="706,1170.39 714.44,1170.39 
				714.44,1161.94 			"/>
			
				<line fill="none" stroke="#91268F" stroke-width="2.1354" stroke-miterlimit="10" stroke-dasharray="15.2043,15.2043" x1="714.44" y1="1146.74" x2="714.44" y2="1032.71"/>
			
				<line fill="none" stroke="#91268F" stroke-width="2.1354" stroke-miterlimit="10" x1="714.44" y1="1025.11" x2="714.44" y2="1016.66"/>
		</g>
	</g>
	
		<line fill="none" stroke="#91268F" stroke-width="2.1354" stroke-miterlimit="10" stroke-dasharray="16.894" x1="714.44" y1="1016.66" x2="1092.97" y2="1016.66"/>
	
		<line fill="none" stroke="#91268F" stroke-width="2.1354" stroke-miterlimit="10" stroke-dasharray="16.894" x1="1092.97" y1="841.69" x2="714.21" y2="841.69"/>
	<circle fill="#91268F" cx="714.44" cy="1126.26" r="6.15"/>
	<circle fill="#91268F" cx="1092.7" cy="1049.31" r="6.15"/>
	<circle fill="#91268F" cx="1092.7" cy="1126.26" r="6.15"/>
	<circle stroke="#000000" stroke-width="2.216" stroke-miterlimit="10" cx="912.91" cy="891.66" r="9.9"/>
	<circle stroke="#000000" stroke-width="2.216" stroke-miterlimit="10" cx="906.53" cy="1126.26" r="9.9"/>
	<g>
		
			<rect x="1256.33" y="1372.16" fill="none" stroke="#000000" stroke-width="1.7079" stroke-miterlimit="10" width="181.87" height="78.3"/>
	</g>
	<g>
		
			<rect x="267.91" y="1395.04" fill="none" stroke="#000000" stroke-width="1.7079" stroke-miterlimit="10" width="152.66" height="55.41"/>
	</g>
	<polyline fill="none" stroke="#000000" stroke-width="2.216" stroke-miterlimit="10" points="331.52,1395.04 331.52,1328.82 
		903.71,1126.26 	"/>
	
		<line fill="none" stroke="#000000" stroke-width="2.216" stroke-miterlimit="10" x1="1347.27" y1="1241.32" x2="1347.27" y2="1372.16"/>
	<polyline fill="none" stroke="#000000" stroke-width="2.216" stroke-miterlimit="10" points="912.91,891.66 331.52,1147.12 
		331.52,1328.82 	"/>
	<rect x="1272.02" y="1392.84" fill="none" width="149.21" height="42.1"/>
	<text transform="matrix(1 0 0 1 1288.5178 1405.8181)"><tspan x="0" y="0" fill="#030404" font-family="'Gulim'" font-size="17.7276px">운영</tspan><tspan x="35.46" y="0" fill="#030404" font-family="'HelveticaNeue-Light'" font-size="17.7276px"> </tspan><tspan x="40.38" y="0" fill="#030404" font-family="'Gulim'" font-size="17.7276px">체제</tspan><tspan x="75.83" y="0" fill="#030404" font-family="'HelveticaNeue-Light'" font-size="17.7276px"> </tspan><tspan x="80.76" y="0" fill="#030404" font-family="'Gulim'" font-size="17.7276px">보안</tspan><tspan x="116.21" y="0" fill="#030404" font-family="'HelveticaNeue-Light'" font-size="17.7276px"> </tspan><tspan x="40.38" y="22.16" fill="#030404" font-family="'Gulim'" font-size="17.7276px">강화</tspan></text>
	<rect x="269.64" y="1415.73" fill="none" width="149.21" height="26.59"/>
	<text transform="matrix(1 0 0 1 326.5168 1428.7048)" fill="#030404" font-family="'Gulim'" font-size="17.7276px">인증</text>
	<ellipse fill="#CED5DE" cx="1347.27" cy="1204.88" rx="48.01" ry="28.48"/>
	<rect x="1310.29" y="1197.71" fill="none" width="73.95" height="18.93"/>
	<text transform="matrix(1 0 0 1 1310.2913 1210.6912)"><tspan x="0" y="0" fill="#030404" font-family="'HelveticaNeue-Bold'" font-size="17.7276px">OS </tspan><tspan x="30.22" y="0" fill="#030404" font-family="'Gulim'" font-size="17.7276px">노드</tspan></text>
	<ellipse fill="#CED5DE" cx="1222.6" cy="1204.88" rx="48.01" ry="28.48"/>
	<rect x="1185.63" y="1197.71" fill="none" width="73.95" height="18.93"/>
	<text transform="matrix(1 0 0 1 1185.6233 1210.6912)"><tspan x="0" y="0" fill="#030404" font-family="'HelveticaNeue-Bold'" font-size="17.7276px">OS </tspan><tspan x="30.22" y="0" fill="#030404" font-family="'Gulim'" font-size="17.7276px">노드</tspan></text>
	<ellipse fill="#CED5DE" cx="1462.83" cy="1204.88" rx="48.01" ry="28.48"/>
	<rect x="1425.86" y="1197.71" fill="none" width="73.95" height="18.93"/>
	<text transform="matrix(1 0 0 1 1425.8557 1210.6912)"><tspan x="0" y="0" fill="#030404" font-family="'HelveticaNeue-Bold'" font-size="17.7276px">OS </tspan><tspan x="30.22" y="0" fill="#030404" font-family="'Gulim'" font-size="17.7276px">노드</tspan></text>
	<circle stroke="#000000" stroke-width="2.216" stroke-miterlimit="10" cx="1346.09" cy="1241.32" r="9.9"/>
	<g>
		<path fill="#91268F" d="M38.26,738.39c4.9,0,8.86-3.97,8.86-8.86c0-4.89-3.97-8.86-8.86-8.86s-8.86,3.97-8.86,8.86
			C29.4,734.42,33.37,738.39,38.26,738.39z M38.26,725.09c2.44,0,4.43,1.99,4.43,4.43c0,2.44-1.99,4.43-4.43,4.43
			s-4.43-1.99-4.43-4.43C33.83,727.08,35.82,725.09,38.26,725.09z"/>
		<path fill="#91268F" d="M44.91,742.82h-13.3c-2.45,0-4.43,1.98-4.43,4.43v17.73l4.43,4.43v15.51c0,1.22,0.99,2.22,2.22,2.22h8.86
			c1.22,0,2.22-0.99,2.22-2.22v-15.51l4.43-4.43v-17.73C49.34,744.8,47.36,742.82,44.91,742.82z"/>
	</g>
	<g>
		<path fill="#23B0E6" d="M38.26,543.34c4.9,0,8.86-3.97,8.86-8.86c0-4.9-3.97-8.86-8.86-8.86s-8.86,3.97-8.86,8.86
			C29.4,539.37,33.37,543.34,38.26,543.34z M38.26,530.04c2.44,0,4.43,1.99,4.43,4.43s-1.99,4.43-4.43,4.43s-4.43-1.99-4.43-4.43
			S35.82,530.04,38.26,530.04z"/>
		<path fill="#23B0E6" d="M44.91,547.77h-13.3c-2.45,0-4.43,1.98-4.43,4.43v17.73l4.43,4.43v15.51c0,1.22,0.99,2.22,2.22,2.22h8.86
			c1.22,0,2.22-0.99,2.22-2.22v-15.51l4.43-4.43V552.2C49.34,549.75,47.36,547.77,44.91,547.77z"/>
	</g>
	<line fill="none" stroke="#A53724" stroke-width="2.216" stroke-miterlimit="10" x1="7.31" y1="408.09" x2="7.31" y2="461.42"/>
	<g>
		<g>
			<line fill="none" stroke="#A53724" stroke-width="2.1441" stroke-miterlimit="10" x1="7.31" y1="461.42" x2="15.8" y2="461.42"/>
			
				<polyline fill="none" stroke="#A53724" stroke-width="2.1441" stroke-miterlimit="10" stroke-dasharray="16.7552,16.7552" points="
				32.55,461.42 298.59,461.42 371.72,461.42 426.3,461.42 			"/>
			<polyline fill="none" stroke="#A53724" stroke-width="2.1441" stroke-miterlimit="10" points="434.68,461.42 443.16,461.42 
				448.97,455.25 			"/>
			
				<line fill="none" stroke="#A53724" stroke-width="2.1441" stroke-miterlimit="10" stroke-dasharray="17.6417,17.6417" x1="461.06" y1="442.4" x2="600.09" y2="294.65"/>
			
				<line fill="none" stroke="#A53724" stroke-width="2.1441" stroke-miterlimit="10" x1="606.13" y1="288.22" x2="611.95" y2="282.05"/>
		</g>
	</g>
	<g>
		<rect x="18.39" y="417.37" fill="none" width="259.09" height="39.04"/>
		<text transform="matrix(1 0 0 1 18.3948 430.3479)"><tspan x="0" y="0" fill="#030404" stroke="#000000" stroke-width="0.25" stroke-miterlimit="10" font-family="'Gulim'" font-size="17.7276px">데디케이티드</tspan><tspan x="106.37" y="0" fill="#030404" stroke="#000000" stroke-width="0.25" stroke-miterlimit="10" font-family="'HelveticaNeue-Bold'" font-size="17.7276px"> </tspan><tspan x="111.29" y="0" fill="#030404" stroke="#000000" stroke-width="0.25" stroke-miterlimit="10" font-family="'Gulim'" font-size="17.7276px">관리자</tspan><tspan x="164.47" y="0" fill="#030404" stroke="#000000" stroke-width="0.25" stroke-miterlimit="10" font-family="'HelveticaNeue-Bold'" font-size="17.7276px"> </tspan><tspan x="169.4" y="0" fill="#030404" stroke="#000000" stroke-width="0.25" stroke-miterlimit="10" font-family="'Gulim'" font-size="17.7276px">플로우</tspan></text>
	</g>
	<g>
		<path fill="#A53724" d="M38.26,348.63c4.9,0,8.86-3.97,8.86-8.86c0-4.89-3.97-8.86-8.86-8.86s-8.86,3.97-8.86,8.86
			C29.4,344.66,33.37,348.63,38.26,348.63z M38.26,335.34c2.44,0,4.43,1.99,4.43,4.43c0,2.44-1.99,4.43-4.43,4.43
			s-4.43-1.99-4.43-4.43C33.83,337.32,35.82,335.34,38.26,335.34z"/>
		<path fill="#A53724" d="M44.91,353.06h-13.3c-2.45,0-4.43,1.98-4.43,4.43v17.73l4.43,4.43v15.51c0,1.22,0.99,2.22,2.22,2.22h8.86
			c1.22,0,2.22-0.99,2.22-2.22v-15.51l4.43-4.43v-17.73C49.34,355.05,47.36,353.06,44.91,353.06z"/>
	</g>
	<g>
		<path fill="#91268F" d="M38.26,979.81c4.9,0,8.86-3.97,8.86-8.86c0-4.9-3.97-8.86-8.86-8.86s-8.86,3.97-8.86,8.86
			C29.4,975.85,33.37,979.81,38.26,979.81z M38.26,966.52c2.44,0,4.43,1.99,4.43,4.43c0,2.44-1.99,4.43-4.43,4.43
			s-4.43-1.99-4.43-4.43C33.83,968.51,35.82,966.52,38.26,966.52z"/>
		<path fill="#91268F" d="M44.91,984.25h-13.3c-2.45,0-4.43,1.98-4.43,4.43v17.73l4.43,4.43v15.51c0,1.22,0.99,2.22,2.22,2.22h8.86
			c1.22,0,2.22-0.99,2.22-2.22v-15.51l4.43-4.43v-17.73C49.34,986.23,47.36,984.25,44.91,984.25z"/>
	</g>
	<g>
		
			<rect x="904.92" y="984.01" fill="none" stroke="#6D7777" stroke-width="2.5083" stroke-miterlimit="10" width="365.63" height="65.3"/>
		
			<rect x="904.92" y="1060.95" fill="none" stroke="#6D7777" stroke-width="2.5083" stroke-miterlimit="10" width="365.63" height="65.3"/>
		
			<rect x="527.64" y="984.01" fill="none" stroke="#6D7777" stroke-width="2.5083" stroke-miterlimit="10" width="365.63" height="142.25"/>
		<rect x="907.75" y="1082.73" fill="none" width="359.97" height="21.75"/>
		<text transform="matrix(1 0 0 1 920.1877 1103.8191)"><tspan x="0" y="0" fill="#030404" font-family="'HelveticaNeue-Light'" font-size="28.8074px">IBM Single Sign On </tspan><tspan x="248.66" y="0" fill="#030404" font-family="'Gulim'" font-size="28.8074px">서비스</tspan></text>
		<rect x="907.75" y="1006.09" fill="none" width="359.97" height="21.14"/>
		<text transform="matrix(1 0 0 1 1027.4485 1027.1765)"><tspan x="0" y="0" fill="#030404" font-family="'HelveticaNeue-Light'" font-size="28.8074px">IBM </tspan><tspan x="57.62" y="0" fill="#030404" font-family="'Gulim'" font-size="28.8074px">웹</tspan><tspan x="86.42" y="0" fill="#030404" font-family="'HelveticaNeue-Light'" font-size="28.8074px"> ID</tspan></text>
		<rect x="530.47" y="1044.55" fill="none" width="359.97" height="21.16"/>
		<text transform="matrix(1 0 0 1 584.2805 1065.6375)"><tspan x="0" y="0" fill="#030404" font-family="'Gulim'" font-size="28.8074px">엔터프라이즈</tspan><tspan x="172.85" y="0" fill="#030404" font-family="'HelveticaNeue-Light'" font-size="28.8074px"> LDAP</tspan></text>
	</g>
</g>
<g id="TEXT">
</g>
</svg>
