<?xml version="1.0" encoding="utf-8"?>
<!-- Generator: Adobe Illustrator 15.0.0, SVG Export Plug-In . SVG Version: 6.00 Build 0)  -->
<!DOCTYPE svg PUBLIC "-//W3C//DTD SVG 1.1//EN" "http://www.w3.org/Graphics/SVG/1.1/DTD/svg11.dtd">
<svg version="1.1" id="Layer_1" xmlns="http://www.w3.org/2000/svg" xmlns:xlink="http://www.w3.org/1999/xlink" x="0px" y="0px"
	 width="557px" height="502.693px" viewBox="0 0 557 502.693" enable-background="new 0 0 557 502.693" xml:space="preserve">
<g>
	<defs>
		<path id="SVGID_1_" d="M302.479,33.22c1.716,0,3.108,1.393,3.108,3.11s-1.392,3.11-3.108,3.11c-1.717,0-3.108-1.393-3.108-3.11
			S300.762,33.22,302.479,33.22z M309.73,60.173h-47.658V45.66h47.658V60.173z M309.73,76.76h-47.658V62.247h47.658V76.76z M260,27
			v16.586v2.073v14.514v2.073v16.586h51.803V62.247v-2.073V45.66v-2.073V27H260z"/>
	</defs>
	<clipPath id="SVGID_2_">
		<use xlink:href="#SVGID_1_"  overflow="visible"/>
	</clipPath>
	<g clip-path="url(#SVGID_2_)">
		<defs>
			<rect id="SVGID_3_" x="1" width="556" height="504"/>
		</defs>
		<clipPath id="SVGID_4_">
			<use xlink:href="#SVGID_3_"  overflow="visible"/>
		</clipPath>
		<rect x="255" y="22" clip-path="url(#SVGID_4_)" fill="#4B4A4B" width="61.803" height="61.833"/>
	</g>
</g>
<g>
	<defs>
		<circle id="SVGID_5_" cx="302.479" cy="52.917" r="3.11"/>
	</defs>
	<clipPath id="SVGID_6_">
		<use xlink:href="#SVGID_5_"  overflow="visible"/>
	</clipPath>
	<g clip-path="url(#SVGID_6_)">
		<defs>
			<rect id="SVGID_7_" x="1" width="556" height="504"/>
		</defs>
		<clipPath id="SVGID_8_">
			<use xlink:href="#SVGID_7_"  overflow="visible"/>
		</clipPath>
		<rect x="294.37" y="44.807" clip-path="url(#SVGID_8_)" fill="#4B4A4B" width="16.217" height="16.22"/>
	</g>
</g>
<g>
	<defs>
		<circle id="SVGID_9_" cx="302.479" cy="69.503" r="3.11"/>
	</defs>
	<clipPath id="SVGID_10_">
		<use xlink:href="#SVGID_9_"  overflow="visible"/>
	</clipPath>
	<g clip-path="url(#SVGID_10_)">
		<defs>
			<rect id="SVGID_11_" x="1" width="556" height="504"/>
		</defs>
		<clipPath id="SVGID_12_">
			<use xlink:href="#SVGID_11_"  overflow="visible"/>
		</clipPath>
		<rect x="294.37" y="61.393" clip-path="url(#SVGID_12_)" fill="#4B4A4B" width="16.217" height="16.22"/>
	</g>
</g>
<g>
	<defs>
		<path id="SVGID_13_" d="M285.901,65.592l12.543,21.754h-25.085L285.901,65.592z M285.9,63.699l-14.179,24.592h28.357L285.9,63.699
			z"/>
	</defs>
	<clipPath id="SVGID_14_">
		<use xlink:href="#SVGID_13_"  overflow="visible"/>
	</clipPath>
	<g clip-path="url(#SVGID_14_)">
		<defs>
			<rect id="SVGID_15_" x="1" width="556" height="504"/>
		</defs>
		<clipPath id="SVGID_16_">
			<use xlink:href="#SVGID_15_"  overflow="visible"/>
		</clipPath>
		<rect x="266.722" y="58.699" clip-path="url(#SVGID_16_)" fill="#4B4A4B" width="38.357" height="34.592"/>
	</g>
</g>
<g>
	<defs>
		<path id="SVGID_17_" d="M285.901,65.592l12.543,21.754h-25.085L285.901,65.592z M285.901,63.699l-14.18,24.592h28.359
			L285.901,63.699z"/>
	</defs>
	<clipPath id="SVGID_18_">
		<use xlink:href="#SVGID_17_"  overflow="visible"/>
	</clipPath>
	<g clip-path="url(#SVGID_18_)">
		<defs>
			<rect id="SVGID_19_" x="1" width="556" height="504"/>
		</defs>
		<clipPath id="SVGID_20_">
			<use xlink:href="#SVGID_19_"  overflow="visible"/>
		</clipPath>
		<rect x="266.722" y="58.699" clip-path="url(#SVGID_20_)" fill="#4B4A4B" width="38.359" height="34.592"/>
	</g>
</g>
<g>
	<defs>
		<polygon id="SVGID_21_" points="284.956,74.104 284.956,75.996 285.429,80.725 286.374,80.725 286.847,75.996 286.847,74.104 		
			"/>
	</defs>
	<clipPath id="SVGID_22_">
		<use xlink:href="#SVGID_21_"  overflow="visible"/>
	</clipPath>
	<g clip-path="url(#SVGID_22_)">
		<defs>
			<rect id="SVGID_23_" x="1" width="556" height="504"/>
		</defs>
		<clipPath id="SVGID_24_">
			<use xlink:href="#SVGID_23_"  overflow="visible"/>
		</clipPath>
		<rect x="279.956" y="69.104" clip-path="url(#SVGID_24_)" fill="#4B4A4B" width="11.891" height="16.621"/>
	</g>
</g>
<g>
	<defs>
		<circle id="SVGID_25_" cx="285.901" cy="82.617" r="0.946"/>
	</defs>
	<clipPath id="SVGID_26_">
		<use xlink:href="#SVGID_25_"  overflow="visible"/>
	</clipPath>
	<g clip-path="url(#SVGID_26_)">
		<defs>
			<rect id="SVGID_27_" x="1" width="556" height="504"/>
		</defs>
		<clipPath id="SVGID_28_">
			<use xlink:href="#SVGID_27_"  overflow="visible"/>
		</clipPath>
		<rect x="279.956" y="76.671" clip-path="url(#SVGID_28_)" fill="#4B4A4B" width="11.891" height="11.892"/>
	</g>
</g>
<g>
	<defs>
		<polygon id="SVGID_29_" points="285.901,65.592 298.444,87.346 273.359,87.346 		"/>
	</defs>
	<clipPath id="SVGID_30_">
		<use xlink:href="#SVGID_29_"  overflow="visible"/>
	</clipPath>
	<g clip-path="url(#SVGID_30_)">
		<defs>
			<rect id="SVGID_31_" x="1" width="556" height="504"/>
		</defs>
		<clipPath id="SVGID_32_">
			<use xlink:href="#SVGID_31_"  overflow="visible"/>
		</clipPath>
		<rect x="268.359" y="60.592" clip-path="url(#SVGID_32_)" fill="#FFFFFF" width="35.085" height="31.754"/>
	</g>
</g>
<g>
	<defs>
		<polygon id="SVGID_33_" points="284.956,74.104 284.956,75.996 285.429,80.725 286.374,80.725 286.847,75.996 286.847,74.104 		
			"/>
	</defs>
	<clipPath id="SVGID_34_">
		<use xlink:href="#SVGID_33_"  overflow="visible"/>
	</clipPath>
	<g clip-path="url(#SVGID_34_)">
		<defs>
			<rect id="SVGID_35_" x="1" width="556" height="504"/>
		</defs>
		<clipPath id="SVGID_36_">
			<use xlink:href="#SVGID_35_"  overflow="visible"/>
		</clipPath>
		<rect x="279.956" y="69.104" clip-path="url(#SVGID_36_)" fill="#4B4A4B" width="11.891" height="16.621"/>
	</g>
</g>
<g>
	<defs>
		<circle id="SVGID_37_" cx="285.901" cy="82.617" r="0.946"/>
	</defs>
	<clipPath id="SVGID_38_">
		<use xlink:href="#SVGID_37_"  overflow="visible"/>
	</clipPath>
	<g clip-path="url(#SVGID_38_)">
		<defs>
			<rect id="SVGID_39_" x="1" width="556" height="504"/>
		</defs>
		<clipPath id="SVGID_40_">
			<use xlink:href="#SVGID_39_"  overflow="visible"/>
		</clipPath>
		<rect x="279.956" y="76.671" clip-path="url(#SVGID_40_)" fill="#4B4A4B" width="11.891" height="11.892"/>
	</g>
</g>
<g>
	<defs>
		<polygon id="SVGID_41_" points="121.705,213.667 102.278,247.333 63.426,247.333 44,213.667 63.426,180 102.278,180 		"/>
	</defs>
	<clipPath id="SVGID_42_">
		<use xlink:href="#SVGID_41_"  overflow="visible"/>
	</clipPath>
	<g clip-path="url(#SVGID_42_)">
		<defs>
			<rect id="SVGID_43_" x="1" width="556" height="504"/>
		</defs>
		<clipPath id="SVGID_44_">
			<use xlink:href="#SVGID_43_"  overflow="visible"/>
		</clipPath>
		<rect x="39" y="175" clip-path="url(#SVGID_44_)" fill="#FFFFFF" width="87.705" height="77.333"/>
	</g>
</g>
<g>
	<polygon fill="none" stroke="#4B4A4B" stroke-width="2" stroke-miterlimit="10" points="121.705,213.667 102.278,247.333 
		63.426,247.333 44,213.667 63.426,180 102.278,180 	"/>
</g>
<g>
	<defs>
		<polygon id="SVGID_45_" points="508.278,247.333 469.426,247.333 450,213.667 469.426,180 508.278,180 527.704,213.667 		"/>
	</defs>
	<clipPath id="SVGID_46_">
		<use xlink:href="#SVGID_45_"  overflow="visible"/>
	</clipPath>
	<g clip-path="url(#SVGID_46_)">
		<defs>
			<rect id="SVGID_47_" x="1" width="556" height="504"/>
		</defs>
		<clipPath id="SVGID_48_">
			<use xlink:href="#SVGID_47_"  overflow="visible"/>
		</clipPath>
		<rect x="445" y="175" clip-path="url(#SVGID_48_)" fill="#FFFFFF" width="87.704" height="77.333"/>
	</g>
</g>
<polygon fill="none" stroke="#4B4A4B" stroke-width="2" stroke-miterlimit="10" points="508.278,247.333 469.426,247.333 
	450,213.667 469.426,180 508.278,180 527.704,213.667 "/>
<polygon fill="none" stroke="#4B4A4B" stroke-width="3" stroke-miterlimit="10" points="337.606,55.889 311.704,100.778 
	259.901,100.778 234,55.889 259.901,11 311.704,11 "/>
<g>
	<defs>
		<path id="SVGID_49_" d="M98.049,222.649l-28.733-8.214v-2.755l28.733-8.214V222.649z M79.262,219.692
			c0,0.609-0.496,1.106-1.105,1.106h-4.42c-0.609,0-1.105-0.497-1.105-1.106v-3.16l6.631,1.896V219.692z M69.315,210.53v-0.79H68.21
			v-1.105H66v8.846h2.21v-1.106h1.105v-0.79l2.21,0.632v3.475c0,1.221,0.989,2.211,2.21,2.211h4.42c1.221,0,2.21-0.99,2.21-2.211
			v-0.948l18.787,5.371V202L69.315,210.53z"/>
	</defs>
	<clipPath id="SVGID_50_">
		<use xlink:href="#SVGID_49_"  overflow="visible"/>
	</clipPath>
	<g clip-path="url(#SVGID_50_)">
		<defs>
			<rect id="SVGID_51_" x="1" width="556" height="504"/>
		</defs>
		<clipPath id="SVGID_52_">
			<use xlink:href="#SVGID_51_"  overflow="visible"/>
		</clipPath>
		<rect x="61" y="197" clip-path="url(#SVGID_52_)" fill="#4B4A4B" width="43.154" height="32.116"/>
	</g>
</g>
<g>
	<defs>
		<path id="SVGID_53_" d="M488.681,228.722c-8.265,0-15.023-6.762-15.023-15.031c0-8.27,6.759-15.032,15.023-15.032
			s15.022,6.728,15.022,15.032C503.703,221.959,496.945,228.722,488.681,228.722z M488.577,197c-9.15,0-16.577,7.431-16.577,16.586
			s7.427,16.587,16.577,16.587s16.577-7.431,16.577-16.587S497.728,197,488.577,197z M486.919,208.644l0.829,8.26h1.658l0.828-8.26
			v-3.317h-3.315V208.644z M488.577,218.529c-0.896,0-1.658,0.73-1.658,1.659c0,0.896,0.729,1.659,1.658,1.659
			c0.928,0,1.657-0.73,1.657-1.659C490.234,219.292,489.472,218.529,488.577,218.529z"/>
	</defs>
	<clipPath id="SVGID_54_">
		<use xlink:href="#SVGID_53_"  overflow="visible"/>
	</clipPath>
	<g clip-path="url(#SVGID_54_)">
		<defs>
			<rect id="SVGID_55_" x="1" width="556" height="504"/>
		</defs>
		<clipPath id="SVGID_56_">
			<use xlink:href="#SVGID_55_"  overflow="visible"/>
		</clipPath>
		<rect x="467" y="192" clip-path="url(#SVGID_56_)" fill="#4B4A4B" width="43.154" height="43.173"/>
	</g>
</g>
<ellipse fill="none" stroke="#355D7F" stroke-width="2" stroke-miterlimit="10" cx="284.393" cy="423.425" rx="54.393" ry="54.425"/>
<g>
	<defs>
		<polygon id="SVGID_57_" points="284.705,424.667 265.278,458.333 226.426,458.333 207,424.667 226.426,391 265.278,391 		"/>
	</defs>
	<clipPath id="SVGID_58_">
		<use xlink:href="#SVGID_57_"  overflow="visible"/>
	</clipPath>
	<g clip-path="url(#SVGID_58_)">
		<defs>
			<rect id="SVGID_59_" x="1" width="556" height="504"/>
		</defs>
		<clipPath id="SVGID_60_">
			<use xlink:href="#SVGID_59_"  overflow="visible"/>
		</clipPath>
		<rect x="202" y="386" clip-path="url(#SVGID_60_)" fill="#FFFFFF" width="87.705" height="77.333"/>
	</g>
</g>
<g>
	<polygon fill="none" stroke="#4B4A4B" stroke-width="2" stroke-miterlimit="10" points="284.705,424.667 265.278,458.333 
		226.426,458.333 207,424.667 226.426,391 265.278,391 	"/>
</g>
<g>
	<defs>
		<polygon id="SVGID_61_" points="363.704,424.667 344.278,458.333 305.426,458.333 286,424.667 305.426,391 344.278,391 		"/>
	</defs>
	<clipPath id="SVGID_62_">
		<use xlink:href="#SVGID_61_"  overflow="visible"/>
	</clipPath>
	<g clip-path="url(#SVGID_62_)">
		<defs>
			<rect id="SVGID_63_" x="1" width="556" height="504"/>
		</defs>
		<clipPath id="SVGID_64_">
			<use xlink:href="#SVGID_63_"  overflow="visible"/>
		</clipPath>
		<rect x="281" y="386" clip-path="url(#SVGID_64_)" fill="#FFFFFF" width="87.704" height="77.333"/>
	</g>
</g>
<polygon fill="none" stroke="#4B4A4B" stroke-width="2" stroke-miterlimit="10" points="363.704,424.667 344.278,458.333 
	305.426,458.333 286,424.667 305.426,391 344.278,391 "/>
<g>
	<defs>
		<path id="SVGID_65_" d="M253.417,416.84c0.521-1.152,0.819-2.427,0.819-3.771c0-1.346-0.298-2.619-0.819-3.771l4.215-4.218
			c1.473,2.313,2.339,5.049,2.339,7.989c0,2.939-0.866,5.677-2.339,7.989L253.417,416.84z M252.54,415.97
			c-0.815,2.099-2.482,3.767-4.58,4.582c-0.9,0.352-1.877,0.551-2.901,0.551c-1.024,0-2.001-0.199-2.901-0.551
			c-2.097-0.815-3.764-2.482-4.58-4.582c-0.349-0.9-0.549-1.877-0.549-2.901s0.2-2,0.549-2.9c0.816-2.1,2.483-3.769,4.58-4.584
			c0.901-0.351,1.877-0.55,2.901-0.55c1.023,0,2,0.199,2.901,0.55c2.096,0.815,3.764,2.484,4.58,4.584
			c0.35,0.9,0.549,1.876,0.549,2.9S252.889,415.069,252.54,415.97z M245.059,427.989c-2.938,0-5.673-0.867-7.985-2.341l4.215-4.218
			c1.151,0.521,2.425,0.819,3.77,0.819s2.618-0.298,3.77-0.819l4.215,4.218C250.731,427.122,247.997,427.989,245.059,427.989z
			 M236.701,416.84l-4.215,4.218c-1.473-2.313-2.339-5.05-2.339-7.989c0-2.94,0.866-5.677,2.339-7.989l4.215,4.218
			c-0.521,1.152-0.819,2.426-0.819,3.771C235.882,414.413,236.18,415.688,236.701,416.84z M245.059,398.147
			c2.938,0,5.672,0.866,7.985,2.341l-4.215,4.218c-1.152-0.522-2.425-0.819-3.77-0.819s-2.618,0.297-3.77,0.819l-4.215-4.218
			C239.386,399.014,242.121,398.147,245.059,398.147z M245.059,397C236.19,397,229,404.194,229,413.068s7.19,16.068,16.059,16.068
			s16.059-7.194,16.059-16.068S253.928,397,245.059,397z"/>
	</defs>
	<clipPath id="SVGID_66_">
		<use xlink:href="#SVGID_65_"  overflow="visible"/>
	</clipPath>
	<g clip-path="url(#SVGID_66_)">
		<defs>
			<rect id="SVGID_67_" x="1" width="556" height="504"/>
		</defs>
		<clipPath id="SVGID_68_">
			<use xlink:href="#SVGID_67_"  overflow="visible"/>
		</clipPath>
		<rect x="224" y="392" clip-path="url(#SVGID_68_)" fill="#4B4A4B" width="42.118" height="42.137"/>
	</g>
</g>
<g>
	<defs>
		<rect id="SVGID_69_" x="309" y="398.113" width="30.962" height="30.299"/>
	</defs>
	<clipPath id="SVGID_70_">
		<use xlink:href="#SVGID_69_"  overflow="visible"/>
	</clipPath>
	<g clip-path="url(#SVGID_70_)">
		<defs>
			<rect id="SVGID_71_" x="1" width="556" height="504"/>
		</defs>
		<clipPath id="SVGID_72_">
			<use xlink:href="#SVGID_71_"  overflow="visible"/>
		</clipPath>
		<g clip-path="url(#SVGID_72_)" enable-background="new    ">
			<g>
				<defs>
					<rect id="SVGID_73_" x="309" y="397.5" width="31" height="31"/>
				</defs>
				<clipPath id="SVGID_74_">
					<use xlink:href="#SVGID_73_"  overflow="visible"/>
				</clipPath>
				<g clip-path="url(#SVGID_74_)">
					<defs>
						<path id="SVGID_75_" d="M326.628,428.412h8.589c0.16,0,0.309-0.085,0.389-0.224l4.295-7.35
							c0.041-0.07,0.062-0.148,0.062-0.228c0-0.078-0.021-0.157-0.062-0.228l-4.161-7.121l4.161-7.122
							c0.041-0.07,0.062-0.148,0.062-0.228s-0.021-0.157-0.062-0.228l-4.295-7.349c-0.08-0.139-0.229-0.225-0.389-0.225h-8.589
							c-0.16,0-0.308,0.086-0.389,0.225l-4.164,7.125h-8.33c-0.16,0-0.309,0.085-0.39,0.224l-4.294,7.349
							c-0.082,0.141-0.082,0.315,0,0.456l4.294,7.349c0.081,0.139,0.229,0.224,0.39,0.224h8.33l4.164,7.126
							C326.32,428.327,326.468,428.412,326.628,428.412z M334.431,412.812h-7.544l-0.135-0.229l-3.633-6.217h7.545L334.431,412.812z
							 M322.334,419.718l-3.772-6.455l3.772-6.456l3.771,6.456L322.334,419.718z M334.431,413.714l-3.767,6.446h-7.545l3.633-6.217
							l0.135-0.229H334.431z M314.004,406.365h7.544l-3.897,6.669c-0.083,0.141-0.083,0.315,0,0.456l3.897,6.67h-7.544l-4.03-6.897
							L314.004,406.365z M335.217,412.369l-3.905-6.684c-0.081-0.139-0.229-0.224-0.39-0.224h-7.803l3.768-6.446h8.071l4.031,6.897
							L335.217,412.369z M326.887,427.51l-3.768-6.447h7.803c0.16,0,0.309-0.085,0.39-0.224l3.905-6.683l3.772,6.455l-4.031,6.898
							H326.887z"/>
					</defs>
					<clipPath id="SVGID_76_">
						<use xlink:href="#SVGID_75_"  overflow="visible"/>
					</clipPath>
					<g clip-path="url(#SVGID_76_)">
						<defs>
							<rect id="SVGID_77_" x="309" y="397.5" width="31" height="31"/>
						</defs>
						<clipPath id="SVGID_78_">
							<use xlink:href="#SVGID_77_"  overflow="visible"/>
						</clipPath>
						<rect x="304" y="393.113" clip-path="url(#SVGID_78_)" fill="#4B4A4B" width="40.962" height="40.299"/>
					</g>
				</g>
			</g>
		</g>
	</g>
</g>
<g>
	<path fill="none" stroke="#355D7F" stroke-width="5" stroke-miterlimit="10" stroke-dasharray="5,5,5,5" d="M491.507,307.025
		c0,64.188-48.357,118.224-110.478,118.224"/>
</g>
<g>
	<defs>
		<polygon id="SVGID_79_" points="379.362,419.893 380.161,420.72 376.603,424.396 376.604,425.565 380.162,429.242 
			379.361,430.069 374.438,424.98 		"/>
	</defs>
	<clipPath id="SVGID_80_">
		<use xlink:href="#SVGID_79_"  overflow="visible"/>
	</clipPath>
	<g clip-path="url(#SVGID_80_)">
		<defs>
			<rect id="SVGID_81_" x="1" width="556" height="504"/>
		</defs>
		<clipPath id="SVGID_82_">
			<use xlink:href="#SVGID_81_"  overflow="visible"/>
		</clipPath>
		<rect x="369.438" y="414.893" clip-path="url(#SVGID_82_)" fill="#355D7F" width="15.725" height="20.177"/>
	</g>
</g>
<g>
	<polygon fill="none" stroke="#355D7F" stroke-width="3" stroke-miterlimit="10" points="379.362,419.893 380.161,420.72 
		376.603,424.396 376.604,425.565 380.162,429.242 379.361,430.069 374.438,424.98 	"/>
	<path fill="none" stroke="#355D7F" stroke-width="5" stroke-miterlimit="10" stroke-dasharray="5,5,5,5" d="M81.493,164.975
		c0-62.083,50.358-112.412,112.478-112.412"/>
</g>
<g>
	<defs>
		<polygon id="SVGID_83_" points="197.638,57.743 196.838,56.943 200.397,53.387 200.397,52.256 196.838,48.7 197.638,47.9 
			202.563,52.822 		"/>
	</defs>
	<clipPath id="SVGID_84_">
		<use xlink:href="#SVGID_83_"  overflow="visible"/>
	</clipPath>
	<g clip-path="url(#SVGID_84_)">
		<defs>
			<rect id="SVGID_85_" x="1" width="556" height="504"/>
		</defs>
		<clipPath id="SVGID_86_">
			<use xlink:href="#SVGID_85_"  overflow="visible"/>
		</clipPath>
		<rect x="191.838" y="42.9" clip-path="url(#SVGID_86_)" fill="#355D7F" width="15.724" height="19.843"/>
	</g>
</g>
<g>
	<polygon fill="none" stroke="#355D7F" stroke-width="3" stroke-miterlimit="10" points="197.638,57.743 196.838,56.943 
		200.397,53.387 200.396,52.257 196.838,48.7 197.638,47.9 202.563,52.822 	"/>
	<path fill="none" stroke="#355D7F" stroke-width="5" stroke-miterlimit="10" stroke-dasharray="5,5,5,5" d="M372.024,48.477
		c62.084,0,117.413,47.707,117.413,107.79"/>
</g>
<g>
	<defs>
		<polygon id="SVGID_87_" points="484.257,163.814 485.057,163.041 488.613,166.483 489.743,166.482 493.301,163.041 494.1,163.814 
			489.178,168.577 		"/>
	</defs>
	<clipPath id="SVGID_88_">
		<use xlink:href="#SVGID_87_"  overflow="visible"/>
	</clipPath>
	<g clip-path="url(#SVGID_88_)">
		<defs>
			<rect id="SVGID_89_" x="1" width="556" height="504"/>
		</defs>
		<clipPath id="SVGID_90_">
			<use xlink:href="#SVGID_89_"  overflow="visible"/>
		</clipPath>
		<rect x="479.257" y="158.041" clip-path="url(#SVGID_90_)" fill="#355D7F" width="19.843" height="15.536"/>
	</g>
</g>
<g>
	<polygon fill="none" stroke="#355D7F" stroke-width="3" stroke-miterlimit="10" points="484.257,163.814 485.057,163.041 
		488.613,166.483 489.743,166.482 493.301,163.041 494.1,163.814 489.178,168.577 	"/>
	<path fill="none" stroke="#355D7F" stroke-width="5" stroke-miterlimit="10" stroke-dasharray="5,5,5,5" d="M198.975,425.507
		c-62.083,0-112.412-50.358-112.412-112.478"/>
</g>
<g>
	<defs>
		<polygon id="SVGID_91_" points="91.743,309.362 90.943,310.162 87.387,306.603 86.257,306.603 82.7,310.162 81.9,309.362 
			86.822,304.438 		"/>
	</defs>
	<clipPath id="SVGID_92_">
		<use xlink:href="#SVGID_91_"  overflow="visible"/>
	</clipPath>
	<g clip-path="url(#SVGID_92_)">
		<defs>
			<rect id="SVGID_93_" x="1" width="556" height="504"/>
		</defs>
		<clipPath id="SVGID_94_">
			<use xlink:href="#SVGID_93_"  overflow="visible"/>
		</clipPath>
		<rect x="76.9" y="299.438" clip-path="url(#SVGID_94_)" fill="#355D7F" width="19.843" height="15.724"/>
	</g>
</g>
<g>
	<polygon fill="none" stroke="#355D7F" stroke-width="3" stroke-miterlimit="10" points="91.743,309.362 90.943,310.162 
		87.387,306.603 86.256,306.604 82.7,310.162 81.9,309.362 86.822,304.438 	"/>
</g>
<text transform="matrix(1 0 0 1 244 124.2446)"><tspan x="0" y="0" fill="#5C5D5D" font-family="'AdobeMingStd-Light-B5pc-H'" font-size="12">在客戶環境中偵</tspan><tspan x="6" y="14.4" fill="#5C5D5D" font-family="'AdobeMingStd-Light-B5pc-H'" font-size="12">測到突發事件</tspan></text>
<text transform="matrix(1 0 0 1 36.7637 274)"><tspan x="0" y="0" font-family="'HelvNeueRomanforIBM'" font-size="12">Bluemix </tspan><tspan x="44.352" y="0" fill="#5C5D5D" font-family="'AdobeMingStd-Light-B5pc-H'" font-size="12">傳送通知</tspan><tspan x="22.176" y="14.4" fill="#5C5D5D" font-family="'AdobeMingStd-Light-B5pc-H'" font-size="12">到狀態頁</tspan></text>
<text transform="matrix(1 0 0 1 436.9688 282.1436)"><tspan x="0" y="0" fill="#5C5D5D" font-family="'AdobeMingStd-Light-B5pc-H'" font-size="12">警示傳送給</tspan><tspan x="60" y="0" font-family="'HelvNeueRomanforIBM'" font-size="12"> Bluemix</tspan></text>
<text transform="matrix(1 0 0 1 207.3525 492.2041)"><tspan x="0" y="0" fill="#5C5D5D" font-family="'AdobeMingStd-Light-B5pc-H'" font-size="12">全年無休的</tspan><tspan x="60" y="0" font-family="'HelvNeueRomanforIBM'" font-size="12"> Bluemix </tspan><tspan x="107.208" y="0" fill="#5C5D5D" font-family="'AdobeMingStd-Light-B5pc-H'" font-size="12">協同作業</tspan></text>
<text transform="matrix(1 0 0 1 229.9458 440.1123)"><tspan x="0" y="0" font-family="'HelvNeueBoldforIBM'" font-size="9">Bluemix</tspan><tspan x="7.753" y="10.8" fill="#5C5D5D" font-family="'AdobeMingStd-Light-B5pc-H'" font-size="9">支援</tspan></text>
<text transform="matrix(1 0 0 1 307.9453 440.1123)"><tspan x="0" y="0" font-family="'HelvNeueBoldforIBM'" font-size="9">Bluemix</tspan><tspan x="7.754" y="10.8" font-family="'AdobeMingStd-Light-B5pc-H'" font-size="9">作業</tspan></text>
</svg>
