<?xml version="1.0" encoding="utf-8"?>
<!-- Generator: Adobe Illustrator 15.1.0, SVG Export Plug-In . SVG Version: 6.00 Build 0)  -->
<!DOCTYPE svg PUBLIC "-//W3C//DTD SVG 1.1//EN" "http://www.w3.org/Graphics/SVG/1.1/DTD/svg11.dtd">
<svg version="1.1"
	 id="svg8100" sodipodi:docname="widgets.svg" inkscape:version="0.91 r13725" xmlns:dc="http://purl.org/dc/elements/1.1/" xmlns:cc="http://creativecommons.org/ns#" xmlns:rdf="http://www.w3.org/1999/02/22-rdf-syntax-ns#" xmlns:svg="http://www.w3.org/2000/svg" xmlns:sodipodi="http://sodipodi.sourceforge.net/DTD/sodipodi-0.dtd" xmlns:inkscape="http://www.inkscape.org/namespaces/inkscape"
	 xmlns="http://www.w3.org/2000/svg" xmlns:xlink="http://www.w3.org/1999/xlink" x="0px" y="0px" width="617.25px"
	 height="244.5px" viewBox="0 0 617.25 244.5" enable-background="new 0 0 617.25 244.5" xml:space="preserve">
<sodipodi:namedview  id="namedview8102" inkscape:current-layer="svg8100" inkscape:window-y="1041" inkscape:window-x="-9" inkscape:window-height="1019" inkscape:window-width="1920" inkscape:pageshadow="2" inkscape:pageopacity="0" inkscape:cy="122.25" inkscape:cx="282.05442" inkscape:zoom="1.8149681" showgrid="false" guidetolerance="10" gridtolerance="10" objecttolerance="10" borderopacity="1" bordercolor="#666666" pagecolor="#ffffff" inkscape:window-maximized="1">
	</sodipodi:namedview>
<g id="g8846">
	
		<image overflow="visible" enable-background="new    " width="823" height="326" id="image8108" xlink:href="761FA761.png"  transform="matrix(0.75 0 0 0.75 2.439022e-004 0)">
	</image>
	<rect id="rect8740" x="2.755" y="38.987" fill="#1D3649" width="197.8" height="26.447"/>
	<rect id="rect8740-6" x="205.165" y="38.54" fill="#1D3649" width="197.8" height="26.447"/>
	<rect id="rect8740-0" x="407.165" y="38.54" fill="#1D3649" width="197.8" height="26.447"/>
	<rect id="rect8772-2" x="40.221" y="3.102" fill="#FFFFFF" width="223.695" height="26.998"/>
	<rect id="rect8772" x="382.927" y="4.826" fill="#FFFFFF" width="223.695" height="26.998"/>
	<rect id="rect8772-2-1" x="411.027" y="164.885" fill="#FFFFFF" width="61.709" height="67.77"/>
	<rect id="rect8772-2-1-6" x="296.424" y="191.331" fill="#FFFFFF" width="96.42" height="38.568"/>
	<rect id="rect8772-2-1-6-2" x="110.47" y="84.167" fill="#FFFFFF" width="77.137" height="38.568"/>
</g>
<text transform="matrix(1 0 0 1 15.9778 54.9648)" fill="#FFFFFF" font-family="'Helvetica-Bold'" font-size="11.25">Humedad</text>
<text transform="matrix(1 0 0 1 219.3723 54.8008)" fill="#FFFFFF" font-family="'Helvetica-Bold'" font-size="11.25">Humedad</text>
<text transform="matrix(1 0 0 1 422.1311 54.8008)" fill="#FFFFFF" font-family="'Helvetica-Bold'" font-size="11.25">Humedad</text>
<text transform="matrix(1 0 0 1 77.177 55.7656)" fill="#FFFFFF" font-family="'Helvetica'" font-size="11.25">elev02</text>
<text transform="matrix(1 0 0 1 282.1907 54.7461)" fill="#FFFFFF" font-family="'Helvetica'" font-size="11.25">elev02</text>
<text transform="matrix(1 0 0 1 485.5002 54.7461)" fill="#FFFFFF" font-family="'Helvetica'" font-size="11.25">elev02</text>
<text transform="matrix(1 0 0 1 56.842 18.9326)" fill="#090D11" font-family="'Helvetica'" font-size="11.875">Mi sensor de humedad</text>
<text transform="matrix(1 0 0 1 388.5286 20.0342)" fill="#4178BE" font-family="'Helvetica'" font-size="10">Añadir componente nuevo</text>
<text transform="matrix(1 0 0 1 412.5774 190.2178)" font-family="'Helvetica'" font-size="27.5">Seco</text>
<text transform="matrix(1 0 0 1 301.3826 218.6045)" fill="#000025" font-family="'Helvetica'" font-size="25">RH</text>
<text transform="matrix(1 0 0 1 112.3982 111.1641)" font-family="'Helvetica'" font-size="8.75">RH</text>
</svg>
