<?xml version="1.0" encoding="utf-8"?>
<!-- Generator: Adobe Illustrator 16.0.0, SVG Export Plug-In . SVG Version: 6.00 Build 0)  -->
<!DOCTYPE svg PUBLIC "-//W3C//DTD SVG 1.1//EN" "http://www.w3.org/Graphics/SVG/1.1/DTD/svg11.dtd">
<svg version="1.1" id="Layer_1" xmlns="http://www.w3.org/2000/svg" xmlns:xlink="http://www.w3.org/1999/xlink" x="0px" y="0px"
	 width="2560px" height="1440px" viewBox="0 0 2560 1440" enable-background="new 0 0 2560 1440" xml:space="preserve">
<g>
	<defs>
		<rect id="SVGID_1_" width="2560" height="1440"/>
	</defs>
	<clipPath id="SVGID_2_">
		<use xlink:href="#SVGID_1_"  overflow="visible"/>
	</clipPath>
	<rect clip-path="url(#SVGID_2_)" fill="#C0E6FF" width="2560" height="1440"/>
	<g clip-path="url(#SVGID_2_)">
		<defs>
			<rect id="SVGID_3_" width="2560" height="1440"/>
		</defs>
		<clipPath id="SVGID_4_">
			<use xlink:href="#SVGID_3_"  overflow="visible"/>
		</clipPath>
		<g opacity="0.64" clip-path="url(#SVGID_4_)">
			<g>
				<defs>
					<rect id="SVGID_5_" x="59.319" y="59.21" width="664.211" height="1316.13"/>
				</defs>
				<clipPath id="SVGID_6_">
					<use xlink:href="#SVGID_5_"  overflow="visible"/>
				</clipPath>
				<path clip-path="url(#SVGID_6_)" fill="#274858" d="M59.319,1375.34H723.53V59.21H59.319V1375.34z M67.319,263.215H715.53
					V1367.34H67.319V263.215z"/>
			</g>
		</g>
	</g>
	<path clip-path="url(#SVGID_2_)" fill="#3B5D6D" d="M59.319,1375.34H723.53V59.21H59.319V1375.34z M67.319,263.215H715.53V1367.34
		H67.319V263.215z"/>
	<rect x="785.91" y="299.896" clip-path="url(#SVGID_2_)" fill="#FFFFFF" width="583.247" height="756.784"/>
	
		<rect x="785.91" y="299.896" clip-path="url(#SVGID_2_)" fill="none" stroke="#274858" stroke-width="3" stroke-miterlimit="10" width="583.247" height="756.784"/>
	<g clip-path="url(#SVGID_2_)">
		<text transform="matrix(1 0 0 1 100.3062 144.1357)"><tspan x="0" y="0" fill="#FFFFFF" font-family="'HelvNeueRomanforIBM'" font-size="72" letter-spacing="1">Anatomia di</tspan><tspan x="0" y="86.4" fill="#FFFFFF" font-family="'HelvNeueRomanforIBM'" font-size="72" letter-spacing="1">uno schema</tspan></text>
	</g>
	<g clip-path="url(#SVGID_2_)">
	</g>
	<rect x="206.492" y="298.687" clip-path="url(#SVGID_2_)" fill="#FFFFFF" width="469.055" height="171.135"/>
	<path clip-path="url(#SVGID_2_)" fill="#FFFFFF" d="M667.547,461.962H108.305V306.827h559.242V461.962z M675.547,298.827H100.305
		v171.135h575.242V298.827z"/>
	<g clip-path="url(#SVGID_2_)">
		<defs>
			<rect id="SVGID_7_" width="2560" height="1440"/>
		</defs>
		<clipPath id="SVGID_8_">
			<use xlink:href="#SVGID_7_"  overflow="visible"/>
		</clipPath>
		
			<path clip-path="url(#SVGID_8_)" fill="none" stroke="#274858" stroke-width="2" stroke-linecap="round" stroke-linejoin="round" stroke-miterlimit="10" d="
			M179.979,372.394l-20.5-11.8c-0.6-0.4-1.4-0.4-2,0l-20.4,11.8c-1.3,0.8-1.3,2.7,0,3.5l20.5,11.8c0.6,0.4,1.4,0.4,2,0l20.4-11.8
			C181.278,375.094,181.278,373.194,179.979,372.394z"/>
		
			<path clip-path="url(#SVGID_8_)" fill="none" stroke="#274858" stroke-width="2" stroke-linecap="round" stroke-linejoin="round" stroke-miterlimit="10" d="
			M138.479,381.894l-1.3,0.7c-1.4,0.8-1.4,2.7,0,3.5l20.4,11.8c0.6,0.4,1.4,0.4,2,0l20.3-11.8c1.3-0.8,1.3-2.7,0-3.5l-1.4-0.8"/>
		
			<path clip-path="url(#SVGID_8_)" fill="none" stroke="#274858" stroke-width="2" stroke-linecap="round" stroke-linejoin="round" stroke-miterlimit="10" d="
			M138.479,392.094l-1.5,0.8c-1.3,0.8-1.3,2.7,0,3.5l20.5,11.8c0.6,0.4,1.4,0.4,2,0l20.5-11.8c1.3-0.8,1.3-2.7,0-3.5l-1.5-0.8"/>
	</g>
	<g clip-path="url(#SVGID_2_)">
		<text transform="matrix(1 0 0 1 232.4922 358.2305)" fill="#274858" font-family="'HelvNeueBoldforIBM'" font-size="48">Configurazione</text>
	</g>
	<g clip-path="url(#SVGID_2_)">
		<text transform="matrix(1 0 0 1 232.4922 401.4307)"><tspan x="0" y="0" fill="#274858" font-family="'HelvNeueRomanforIBM'" font-size="36">Infrastruttura definita</tspan><tspan x="0" y="43.2" fill="#274858" font-family="'HelvNeueRomanforIBM'" font-size="36">come codice</tspan></text>
	</g>
	<g clip-path="url(#SVGID_2_)">
	</g>
	<g clip-path="url(#SVGID_2_)">
		<defs>
			<rect id="SVGID_9_" width="2560" height="1440"/>
		</defs>
		<clipPath id="SVGID_10_">
			<use xlink:href="#SVGID_9_"  overflow="visible"/>
		</clipPath>
		<rect x="206.492" y="730.644" clip-path="url(#SVGID_10_)" fill="#FFFFFF" width="469.055" height="171.136"/>
		<path clip-path="url(#SVGID_10_)" fill="#FFFFFF" d="M667.547,893.779H108.305V738.644h559.242V893.779z M675.547,730.644H100.305
			v171.136h575.242V730.644z"/>
		
			<polyline clip-path="url(#SVGID_10_)" fill="none" stroke="#274858" stroke-width="2" stroke-linejoin="round" stroke-miterlimit="10" points="
			155.829,832.161 168.529,832.161 168.529,813.861 168.529,800.262 144.129,800.262 144.129,807.762 		"/>
		
			<rect x="131.929" y="808.761" clip-path="url(#SVGID_10_)" fill="none" stroke="#274858" stroke-width="2" stroke-linejoin="round" stroke-miterlimit="10" width="24.4" height="31.9"/>
		
			<polyline clip-path="url(#SVGID_10_)" fill="none" stroke="#274858" stroke-width="2" stroke-linejoin="round" stroke-miterlimit="10" points="
			169.329,823.762 180.729,823.762 180.729,805.461 180.729,791.762 156.329,791.762 156.329,800.262 		"/>
	</g>
	<g clip-path="url(#SVGID_2_)">
		<text transform="matrix(1 0 0 1 232.313 786.3457)" fill="#274858" font-family="'HelvNeueBoldforIBM'" font-size="48">Documentazione</text>
	</g>
	<g clip-path="url(#SVGID_2_)">
		<text transform="matrix(1 0 0 1 232.313 829.5459)"><tspan x="0" y="0" fill="#274858" font-family="'HelvNeueRomanforIBM'" font-size="36">R</tspan><tspan x="19.368" y="0" fill="#274858" font-family="'HelvNeueRomanforIBM'" font-size="36" letter-spacing="1">E</tspan><tspan x="38.52" y="0" fill="#274858" font-family="'HelvNeueRomanforIBM'" font-size="36">ADME</tspan></text>
	</g>
	<g clip-path="url(#SVGID_2_)">
		<text transform="matrix(1 0 0 1 232.313 872.7461)" fill="#274858" font-family="'HelvNeueRomanforIBM'" font-size="36">Diagrammi</text>
	</g>
	<g clip-path="url(#SVGID_2_)">
		<defs>
			<rect id="SVGID_11_" width="2560" height="1440"/>
		</defs>
		<clipPath id="SVGID_12_">
			<use xlink:href="#SVGID_11_"  overflow="visible"/>
		</clipPath>
		<rect x="206.492" y="514.7" clip-path="url(#SVGID_12_)" fill="#FFFFFF" width="469.055" height="171.135"/>
		<path clip-path="url(#SVGID_12_)" fill="#FFFFFF" d="M667.547,677.835H108.305V522.7h559.242V677.835z M675.547,514.7H100.305
			v171.135h575.242V514.7z"/>
		<polygon clip-path="url(#SVGID_12_)" fill="#274858" points="151.089,590.148 141.445,594.527 151.089,598.906 151.089,600.449 
			139.563,595.231 139.563,593.824 151.089,588.605 		"/>
		<polygon clip-path="url(#SVGID_12_)" fill="#274858" points="158.399,585.682 160.055,585.682 153.338,602.654 151.682,602.654 		
			"/>
		<polygon clip-path="url(#SVGID_12_)" fill="#274858" points="161.669,598.907 171.313,594.528 161.669,590.148 161.669,588.605 
			173.195,593.824 173.195,595.23 161.669,600.45 		"/>
		
			<line clip-path="url(#SVGID_12_)" fill="none" stroke="#274858" stroke-width="2" stroke-linecap="round" stroke-miterlimit="10" x1="180.829" y1="624.718" x2="132.029" y2="624.718"/>
		<path clip-path="url(#SVGID_12_)" fill="none" stroke="#274858" stroke-width="2" stroke-miterlimit="10" d="M178.829,612.518
			h-44.9c-1.1,0-2-0.9-2-2v-32.7c0-1.1,0.9-2,2-2h44.9c1.1,0,2,0.9,2,2v32.7C180.829,611.618,179.929,612.518,178.829,612.518z"/>
	</g>
	<g clip-path="url(#SVGID_2_)">
		<text transform="matrix(1 0 0 1 232.313 572.2637)" fill="#274858" font-family="'HelvNeueBoldforIBM'" font-size="48">Logica</text>
	</g>
	<g clip-path="url(#SVGID_2_)">
		<text transform="matrix(1 0 0 1 232.313 615.4639)" fill="#274858" font-family="'HelvNeueRomanforIBM'" font-size="36">Codice</text>
	</g>
	<g clip-path="url(#SVGID_2_)">
		<text transform="matrix(1 0 0 1 232.313 658.6641)" fill="#274858" font-family="'HelvNeueRomanforIBM'" font-size="36">Orchestrazione</text>
	</g>
	<g clip-path="url(#SVGID_2_)">
		<defs>
			<rect id="SVGID_13_" width="2560" height="1440"/>
		</defs>
		<clipPath id="SVGID_14_">
			<use xlink:href="#SVGID_13_"  overflow="visible"/>
		</clipPath>
		<rect x="206.492" y="946.588" clip-path="url(#SVGID_14_)" fill="#FFFFFF" width="469.055" height="171.135"/>
		<path clip-path="url(#SVGID_14_)" fill="#FFFFFF" d="M667.547,1109.722H108.305V954.587h559.242V1109.722z M675.547,946.587
			H100.305v171.135h575.242V946.587z"/>
		<path clip-path="url(#SVGID_14_)" fill="#274858" d="M173.271,1031.146v3.106c-0.03,0.1-0.078,0.197-0.087,0.299
			c-0.549,5.9-3.267,10.63-7.803,14.356c-1.906,1.566-4.094,2.632-6.421,3.422h-0.377c-0.658-0.208-0.858-0.688-0.852-1.339
			c0.015-1.804,0.005-3.607,0.005-5.413c0-1.4-0.265-2.712-1.356-3.799c0.207-0.036,0.357-0.053,0.503-0.087
			c1.096-0.254,2.227-0.411,3.278-0.791c1.92-0.694,3.529-1.833,4.463-3.74c0.607-1.238,0.945-2.553,1.086-3.919
			c0.268-2.586-0.082-5.008-1.882-7.046c-0.079-0.09-0.112-0.289-0.072-0.406c0.489-1.433,0.433-2.86,0.017-4.299
			c-0.312-1.08-0.482-1.193-1.575-0.948c-0.031,0.008-0.06,0.021-0.09,0.029c-1.439,0.383-2.738,1.064-3.992,1.852
			c-0.196,0.122-0.506,0.185-0.727,0.13c-3.199-0.789-6.391-0.787-9.589,0.005c-0.207,0.051-0.479-0.029-0.684-0.125
			c-1.187-0.56-2.348-1.177-3.553-1.695c-0.457-0.196-1.004-0.198-1.514-0.244c-0.123-0.011-0.339,0.128-0.382,0.246
			c-0.583,1.594-0.825,3.218-0.254,4.871c0.106,0.305,0.062,0.507-0.147,0.746c-0.711,0.813-1.211,1.749-1.51,2.789
			c-0.466,1.619-0.405,3.259-0.142,4.895c0.266,1.66,0.788,3.236,1.909,4.534c1.357,1.573,3.157,2.381,5.137,2.833
			c0.682,0.156,1.377,0.251,1.957,0.354c-0.317,0.671-0.773,1.314-0.91,2.021c-0.145,0.745-0.55,0.974-1.164,1.1
			c-0.092,0.019-0.182,0.046-0.275,0.063c-1.311,0.246-2.59,0.233-3.623-0.752c-0.47-0.447-0.84-1.005-1.223-1.537
			c-0.755-1.049-1.699-1.81-3.019-1.949c-0.309-0.032-0.641,0.146-0.962,0.229c0.16,0.267,0.307,0.544,0.488,0.797
			c0.077,0.108,0.233,0.156,0.336,0.25c0.404,0.366,0.877,0.686,1.182,1.122c0.436,0.624,0.792,1.313,1.099,2.012
			c0.422,0.96,1.083,1.687,2.054,2.013c0.776,0.262,1.612,0.399,2.431,0.458c0.797,0.059,1.607-0.054,2.458-0.093
			c0,1.165-0.018,2.34,0.007,3.515c0.014,0.664-0.218,1.119-0.87,1.321h-0.377c-1.149-0.489-2.358-0.874-3.436-1.488
			c-6.511-3.71-10.209-9.28-10.816-16.79c-0.275-3.398,0.283-6.69,1.712-9.803c3.913-8.516,12.321-13.246,21.605-12.099
			c4.774,0.59,8.838,2.697,12.176,6.151c2.896,2.996,4.726,6.562,5.46,10.675C173.079,1029.694,173.166,1030.422,173.271,1031.146"
			/>
	</g>
	<g clip-path="url(#SVGID_2_)">
		<text transform="matrix(1 0 0 1 232.313 1001.3066)" fill="#274858" font-family="'HelvNeueBoldforIBM'" font-size="48">Operazioni</text>
	</g>
	<g clip-path="url(#SVGID_2_)">
		<text transform="matrix(1 0 0 1 232.313 1044.5068)" fill="#274858" font-family="'HelvNeueRomanforIBM'" font-size="36">Monitoraggio</text>
	</g>
	<g clip-path="url(#SVGID_2_)">
		<text transform="matrix(1 0 0 1 232.313 1087.707)" fill="#274858" font-family="'HelvNeueRomanforIBM'" font-size="36">Gestione stati</text>
	</g>
	<g clip-path="url(#SVGID_2_)">
		<defs>
			<rect id="SVGID_15_" width="2560" height="1440"/>
		</defs>
		<clipPath id="SVGID_16_">
			<use xlink:href="#SVGID_15_"  overflow="visible"/>
		</clipPath>
		<g opacity="0.64" clip-path="url(#SVGID_16_)">
			<g>
				<defs>
					<rect id="SVGID_17_" x="991.333" y="695.906" width="341.597" height="478.729"/>
				</defs>
				<clipPath id="SVGID_18_">
					<use xlink:href="#SVGID_17_"  overflow="visible"/>
				</clipPath>
				<rect x="991.333" y="695.906" clip-path="url(#SVGID_18_)" fill="#274858" width="341.592" height="478.729"/>
			</g>
		</g>
		<rect x="973.47" y="679.26" clip-path="url(#SVGID_16_)" fill="#FFFFFF" width="341.593" height="478.731"/>
		
			<rect x="973.47" y="679.26" clip-path="url(#SVGID_16_)" fill="none" stroke="#3B5D6D" stroke-width="3" stroke-miterlimit="10" width="341.593" height="478.731"/>
		<rect x="998.231" y="706.429" clip-path="url(#SVGID_16_)" fill="#C0E6FF" width="292.555" height="125.774"/>
		
			<rect x="998.231" y="706.429" clip-path="url(#SVGID_16_)" fill="none" stroke="#274858" stroke-width="3.72" stroke-miterlimit="10" width="292.555" height="125.774"/>
		<g opacity="0.34" clip-path="url(#SVGID_16_)">
			<g>
				<defs>
					<rect id="SVGID_19_" x="997.988" y="855.549" width="292.552" height="125.774"/>
				</defs>
				<clipPath id="SVGID_20_">
					<use xlink:href="#SVGID_19_"  overflow="visible"/>
				</clipPath>
				<rect x="997.989" y="855.549" clip-path="url(#SVGID_20_)" fill="#C5BBBB" width="292.555" height="125.774"/>
			</g>
		</g>
		<g opacity="0.34" clip-path="url(#SVGID_16_)">
			<g>
				<defs>
					<rect id="SVGID_21_" x="997.988" y="1005.132" width="292.552" height="125.775"/>
				</defs>
				<clipPath id="SVGID_22_">
					<use xlink:href="#SVGID_21_"  overflow="visible"/>
				</clipPath>
				<rect x="997.989" y="1005.133" clip-path="url(#SVGID_22_)" fill="#C5BBBB" width="292.555" height="125.774"/>
			</g>
		</g>
	</g>
	<g clip-path="url(#SVGID_2_)">
		<text transform="matrix(1 0 0 1 1024.7607 782.582)"><tspan x="0" y="0" fill="#3B5D6D" font-family="'HelvNeueBoldforIBM'" font-size="48" letter-spacing="-2">V</tspan><tspan x="24.144" y="0" fill="#3B5D6D" font-family="'HelvNeueBoldforIBM'" font-size="48">a</tspan><tspan x="47.712" y="0" fill="#3B5D6D" font-family="'HelvNeueBoldforIBM'" font-size="48">r = </tspan><tspan x="112.366" y="0" fill="#3B5D6D" font-family="'HelvNeueBoldforIBM'" font-size="48" letter-spacing="-2">Valore</tspan></text>
	</g>
	<g clip-path="url(#SVGID_2_)">
		<defs>
			<rect id="SVGID_23_" width="2560" height="1440"/>
		</defs>
		<clipPath id="SVGID_24_">
			<use xlink:href="#SVGID_23_"  overflow="visible"/>
		</clipPath>
		<g opacity="0.2" clip-path="url(#SVGID_24_)">
			<g>
				<defs>
					<rect id="SVGID_25_" x="1023.99" y="894.135" width="244.18" height="51.551"/>
				</defs>
				<clipPath id="SVGID_26_">
					<use xlink:href="#SVGID_25_"  overflow="visible"/>
				</clipPath>
				<g clip-path="url(#SVGID_26_)">
					<text transform="matrix(1 0 0 1 1024.7607 935.2705)"><tspan x="0" y="0" fill="#274858" font-family="'HelvNeueBoldforIBM'" font-size="48" letter-spacing="-2">V</tspan><tspan x="24.144" y="0" fill="#274858" font-family="'HelvNeueBoldforIBM'" font-size="48">a</tspan><tspan x="47.712" y="0" fill="#274858" font-family="'HelvNeueBoldforIBM'" font-size="48">r = </tspan><tspan x="112.366" y="0" fill="#274858" font-family="'HelvNeueBoldforIBM'" font-size="48" letter-spacing="-2">V</tspan><tspan x="136.51" y="0" fill="#274858" font-family="'HelvNeueBoldforIBM'" font-size="48">a</tspan><tspan x="160.03" y="0" fill="#274858" font-family="'HelvNeueBoldforIBM'" font-size="48">lue</tspan></text>
				</g>
			</g>
		</g>
		<g opacity="0.2" clip-path="url(#SVGID_24_)">
			<g>
				<defs>
					<rect id="SVGID_27_" x="1023.99" y="1040.135" width="244.18" height="51.551"/>
				</defs>
				<clipPath id="SVGID_28_">
					<use xlink:href="#SVGID_27_"  overflow="visible"/>
				</clipPath>
				<g clip-path="url(#SVGID_28_)">
					<text transform="matrix(1 0 0 1 1024.7607 1081.2705)"><tspan x="0" y="0" fill="#274858" font-family="'HelvNeueBoldforIBM'" font-size="48" letter-spacing="-2">V</tspan><tspan x="24.144" y="0" fill="#274858" font-family="'HelvNeueBoldforIBM'" font-size="48">a</tspan><tspan x="47.712" y="0" fill="#274858" font-family="'HelvNeueBoldforIBM'" font-size="48">r = </tspan><tspan x="112.366" y="0" fill="#274858" font-family="'HelvNeueBoldforIBM'" font-size="48" letter-spacing="-2">V</tspan><tspan x="136.51" y="0" fill="#274858" font-family="'HelvNeueBoldforIBM'" font-size="48">a</tspan><tspan x="160.03" y="0" fill="#274858" font-family="'HelvNeueBoldforIBM'" font-size="48">lue</tspan></text>
				</g>
			</g>
		</g>
		<rect x="206.492" y="1162.531" clip-path="url(#SVGID_24_)" fill="#FFFFFF" width="469.055" height="171.135"/>
		<path clip-path="url(#SVGID_24_)" fill="#FFFFFF" d="M667.547,1325.666H108.305v-155.135h559.242V1325.666z M675.547,1162.531
			H100.305v171.135h575.242V1162.531z"/>
		
			<polygon clip-path="url(#SVGID_24_)" fill="none" stroke="#274858" stroke-width="2" stroke-linecap="round" stroke-linejoin="round" stroke-miterlimit="10" points="
			171.429,1249.998 153.529,1267.898 131.929,1246.198 131.929,1234.299 137.929,1228.299 149.829,1228.299 		"/>
		
			<polyline clip-path="url(#SVGID_24_)" fill="none" stroke="#274858" stroke-width="2" stroke-linecap="round" stroke-linejoin="round" stroke-miterlimit="10" points="
			149.829,1228.298 159.029,1228.298 180.629,1249.998 162.729,1267.898 158.129,1263.198 		"/>
		
			<circle clip-path="url(#SVGID_24_)" fill="none" stroke="#274858" stroke-width="2" stroke-linecap="round" stroke-linejoin="round" stroke-miterlimit="10" cx="141.844" cy="1238.314" r="2.8"/>
	</g>
	<g clip-path="url(#SVGID_2_)">
		<text transform="matrix(1 0 0 1 232.313 1214.0156)" fill="#274858" font-family="'HelvNeueBoldforIBM'" font-size="48">Metadati</text>
	</g>
	<g clip-path="url(#SVGID_2_)">
		
			<text transform="matrix(1 0 0 1 232.313 1257.2158)" fill="#274858" font-family="'HelvNeueRomanforIBM'" font-size="36" letter-spacing="-4">Tag</text>
	</g>
	<g clip-path="url(#SVGID_2_)">
		<defs>
			<rect id="SVGID_29_" width="2560" height="1440"/>
		</defs>
		<clipPath id="SVGID_30_">
			<use xlink:href="#SVGID_29_"  overflow="visible"/>
		</clipPath>
		<rect x="1491.088" y="299.897" clip-path="url(#SVGID_30_)" fill="#FFFFFF" width="1007.852" height="672.897"/>
		
			<rect x="1491.088" y="299.897" clip-path="url(#SVGID_30_)" fill="none" stroke="#274858" stroke-width="3" stroke-miterlimit="10" width="1007.852" height="672.897"/>
	</g>
	<g clip-path="url(#SVGID_2_)">
		<text transform="matrix(1 0 0 1 1491.0879 126.9277)"><tspan x="0" y="0" fill="#3B5D6D" font-family="'HelvNeueBoldforIBM'" font-size="48">Configurazione</tspan><tspan x="0" y="57.6" fill="#3B5D6D" font-family="'HelvNeueBoldforIBM'" font-size="48">risorse</tspan></text>
	</g>
	<g clip-path="url(#SVGID_2_)">
	</g>
	<g clip-path="url(#SVGID_2_)">
		<text transform="matrix(1 0 0 1 1491.0879 227.7275)"><tspan x="0" y="0" fill="#3B5D6D" font-family="'HelvNeueRomanforIBM'" font-size="36">per un componente nella </tspan><tspan x="0" y="43.2" fill="#3B5D6D" font-family="'HelvNeueRomanforIBM'" font-size="36">tua infrastruttura</tspan></text>
	</g>
	<g clip-path="url(#SVGID_2_)">
	</g>
	<g clip-path="url(#SVGID_2_)">
		
			<text transform="matrix(1 0 0 1 974.2383 1236.0176)" fill="#3B5D6D" font-family="'HelvNeueBoldforIBM'" font-size="48" letter-spacing="-2">Variabili</text>
	</g>
	<g clip-path="url(#SVGID_2_)">
		<text transform="matrix(1 0 0 1 974.2383 1279.2178)"><tspan x="0" y="0" fill="#3B5D6D" font-family="'HelvNeueRomanforIBM'" font-size="36">Definire i parametri per</tspan><tspan x="0" y="43.2" fill="#3B5D6D" font-family="'HelvNeueRomanforIBM'" font-size="36">la tua risorsa.</tspan></text>
	</g>
	<g clip-path="url(#SVGID_2_)">
	</g>
	<g clip-path="url(#SVGID_2_)">
		<defs>
			<rect id="SVGID_31_" width="2560" height="1440"/>
		</defs>
		<clipPath id="SVGID_32_">
			<use xlink:href="#SVGID_31_"  overflow="visible"/>
		</clipPath>
		<polyline clip-path="url(#SVGID_32_)" fill="none" stroke="#274858" stroke-width="3" stroke-miterlimit="10" points="
			1287.529,769.315 1447.135,769.315 1447.135,407.261 1540.29,407.261 		"/>
		<path clip-path="url(#SVGID_32_)" fill="#274858" d="M1288.094,780.595c-6.229,0-11.28-5.051-11.28-11.278
			c0-6.229,5.052-11.28,11.28-11.28c6.228,0,11.279,5.051,11.279,11.28C1299.373,775.544,1294.321,780.595,1288.094,780.595"/>
		<polygon clip-path="url(#SVGID_32_)" fill="#274858" points="1530.35,419.53 1528.304,417.333 1539.139,407.263 1528.304,397.191 
			1530.35,394.994 1543.543,407.263 		"/>
		<g opacity="0.64" clip-path="url(#SVGID_32_)">
			<g>
				<defs>
					<rect id="SVGID_33_" x="837.099" y="255.46" width="341.591" height="478.733"/>
				</defs>
				<clipPath id="SVGID_34_">
					<use xlink:href="#SVGID_33_"  overflow="visible"/>
				</clipPath>
				<rect x="837.099" y="255.463" clip-path="url(#SVGID_34_)" fill="#274858" width="341.592" height="478.73"/>
			</g>
		</g>
		<rect x="819.236" y="238.818" clip-path="url(#SVGID_32_)" fill="#FFFFFF" width="341.592" height="478.73"/>
		
			<rect x="819.236" y="238.818" clip-path="url(#SVGID_32_)" fill="none" stroke="#3B5D6D" stroke-width="3" stroke-miterlimit="10" width="341.592" height="478.73"/>
		<rect x="843.997" y="265.986" clip-path="url(#SVGID_32_)" fill="#C0E6FF" width="292.555" height="125.774"/>
		
			<rect x="843.997" y="265.986" clip-path="url(#SVGID_32_)" fill="none" stroke="#274858" stroke-width="3.72" stroke-miterlimit="10" width="292.555" height="125.774"/>
		<g opacity="0.34" clip-path="url(#SVGID_32_)">
			<g>
				<defs>
					<rect id="SVGID_35_" x="843.754" y="415.11" width="292.556" height="125.77"/>
				</defs>
				<clipPath id="SVGID_36_">
					<use xlink:href="#SVGID_35_"  overflow="visible"/>
				</clipPath>
				<rect x="843.755" y="415.106" clip-path="url(#SVGID_36_)" fill="#C5BBBB" width="292.555" height="125.774"/>
			</g>
		</g>
		<g opacity="0.34" clip-path="url(#SVGID_32_)">
			<g>
				<defs>
					<rect id="SVGID_37_" x="843.754" y="564.69" width="292.556" height="125.774"/>
				</defs>
				<clipPath id="SVGID_38_">
					<use xlink:href="#SVGID_37_"  overflow="visible"/>
				</clipPath>
				<rect x="843.755" y="564.69" clip-path="url(#SVGID_38_)" fill="#C5BBBB" width="292.555" height="125.774"/>
			</g>
		</g>
		<g opacity="0.19" clip-path="url(#SVGID_32_)">
			<g>
				<defs>
					<rect id="SVGID_39_" x="903.165" y="279.4" width="183.935" height="87.34"/>
				</defs>
				<clipPath id="SVGID_40_">
					<use xlink:href="#SVGID_39_"  overflow="visible"/>
				</clipPath>
				<rect x="903.165" y="279.401" clip-path="url(#SVGID_40_)" fill="#274858" width="138.414" height="22.922"/>
				<rect x="948.688" y="311.016" clip-path="url(#SVGID_40_)" fill="#274858" width="138.414" height="22.922"/>
				<rect x="948.688" y="343.816" clip-path="url(#SVGID_40_)" fill="#274858" width="138.414" height="22.922"/>
			</g>
		</g>
		<g opacity="0.19" clip-path="url(#SVGID_32_)">
			<g>
				<defs>
					<rect id="SVGID_41_" x="903.165" y="428.52" width="183.935" height="87.338"/>
				</defs>
				<clipPath id="SVGID_42_">
					<use xlink:href="#SVGID_41_"  overflow="visible"/>
				</clipPath>
				<rect x="903.165" y="428.521" clip-path="url(#SVGID_42_)" fill="#274858" width="138.414" height="22.922"/>
				<rect x="948.688" y="460.136" clip-path="url(#SVGID_42_)" fill="#274858" width="138.414" height="22.922"/>
				<rect x="948.688" y="492.936" clip-path="url(#SVGID_42_)" fill="#274858" width="138.414" height="22.922"/>
			</g>
		</g>
		<g opacity="0.19" clip-path="url(#SVGID_32_)">
			<g>
				<defs>
					<rect id="SVGID_43_" x="903.165" y="578.105" width="183.935" height="87.337"/>
				</defs>
				<clipPath id="SVGID_44_">
					<use xlink:href="#SVGID_43_"  overflow="visible"/>
				</clipPath>
				<rect x="903.165" y="578.105" clip-path="url(#SVGID_44_)" fill="#274858" width="138.414" height="22.922"/>
				<rect x="948.688" y="609.72" clip-path="url(#SVGID_44_)" fill="#274858" width="138.414" height="22.922"/>
				<rect x="948.688" y="642.52" clip-path="url(#SVGID_44_)" fill="#274858" width="138.414" height="22.922"/>
			</g>
		</g>
		
			<rect x="882.326" y="468.486" clip-path="url(#SVGID_32_)" fill="none" stroke="#274858" stroke-width="2" stroke-linecap="round" stroke-linejoin="round" stroke-miterlimit="10" width="24.3" height="48.9"/>
		
			<line clip-path="url(#SVGID_32_)" fill="none" stroke="#274858" stroke-width="2" stroke-linecap="round" stroke-linejoin="round" stroke-miterlimit="10" x1="888.126" y1="485.786" x2="900.826" y2="485.786"/>
		
			<line clip-path="url(#SVGID_32_)" fill="none" stroke="#274858" stroke-width="2" stroke-linecap="round" stroke-linejoin="round" stroke-miterlimit="10" x1="888.126" y1="479.986" x2="900.826" y2="479.986"/>
		
			<line clip-path="url(#SVGID_32_)" fill="none" stroke="#274858" stroke-width="2" stroke-linecap="round" stroke-linejoin="round" stroke-miterlimit="10" x1="888.126" y1="474.286" x2="900.826" y2="474.286"/>
		
			<polyline clip-path="url(#SVGID_32_)" fill="none" stroke="#274858" stroke-width="2" stroke-linecap="round" stroke-linejoin="round" stroke-miterlimit="10" points="
			906.626,474.286 918.826,474.286 918.826,511.586 906.626,511.586 		"/>
		
			<line clip-path="url(#SVGID_32_)" fill="none" stroke="#274858" stroke-width="2" stroke-linecap="round" stroke-linejoin="round" stroke-miterlimit="10" x1="906.626" y1="491.586" x2="913.026" y2="491.586"/>
		
			<line clip-path="url(#SVGID_32_)" fill="none" stroke="#274858" stroke-width="2" stroke-linecap="round" stroke-linejoin="round" stroke-miterlimit="10" x1="906.626" y1="485.786" x2="913.026" y2="485.786"/>
		
			<line clip-path="url(#SVGID_32_)" fill="none" stroke="#274858" stroke-width="2" stroke-linecap="round" stroke-linejoin="round" stroke-miterlimit="10" x1="906.626" y1="479.986" x2="913.026" y2="479.986"/>
		
			<polyline clip-path="url(#SVGID_32_)" fill="none" stroke="#274858" stroke-width="2" stroke-linecap="round" stroke-linejoin="round" stroke-miterlimit="10" points="
			882.226,474.286 870.026,474.286 870.026,511.586 882.226,511.586 		"/>
		
			<line clip-path="url(#SVGID_32_)" fill="none" stroke="#274858" stroke-width="2" stroke-linecap="round" stroke-linejoin="round" stroke-miterlimit="10" x1="882.226" y1="491.586" x2="875.826" y2="491.586"/>
		
			<line clip-path="url(#SVGID_32_)" fill="none" stroke="#274858" stroke-width="2" stroke-linecap="round" stroke-linejoin="round" stroke-miterlimit="10" x1="882.226" y1="485.786" x2="875.826" y2="485.786"/>
		
			<line clip-path="url(#SVGID_32_)" fill="none" stroke="#274858" stroke-width="2" stroke-linecap="round" stroke-linejoin="round" stroke-miterlimit="10" x1="882.226" y1="479.986" x2="875.826" y2="479.986"/>
		
			<ellipse clip-path="url(#SVGID_32_)" fill="none" stroke="#274858" stroke-width="2" stroke-linecap="round" stroke-linejoin="round" stroke-miterlimit="10" cx="894.426" cy="324.127" rx="24.4" ry="5.8"/>
		
			<path clip-path="url(#SVGID_32_)" fill="none" stroke="#274858" stroke-width="2" stroke-linecap="round" stroke-linejoin="round" stroke-miterlimit="10" d="
			M870.026,330.827v4.8c0,3.2,10.9,5.8,24.4,5.8s24.4-2.6,24.4-5.8v-4.8"/>
		
			<path clip-path="url(#SVGID_32_)" fill="none" stroke="#274858" stroke-width="2" stroke-linecap="round" stroke-linejoin="round" stroke-miterlimit="10" d="
			M870.026,343.627v4.8c0,3.2,10.9,5.8,24.4,5.8s24.4-2.6,24.4-5.8v-4.8"/>
		
			<path clip-path="url(#SVGID_32_)" fill="none" stroke="#274858" stroke-width="2" stroke-linecap="round" stroke-linejoin="round" stroke-miterlimit="10" d="
			M870.026,356.527v4.8c0,3.2,10.9,5.8,24.4,5.8s24.4-2.6,24.4-5.8v-4.8"/>
		
			<path clip-path="url(#SVGID_32_)" fill="none" stroke="#274858" stroke-width="2" stroke-linecap="round" stroke-linejoin="round" stroke-miterlimit="10" d="
			M905.026,668.057h-11.2c-2.6,0-3.6-1.5-3.6-3.5v-32.3c0-2,1-3.5,3.6-3.5h11.2"/>
		
			<line clip-path="url(#SVGID_32_)" fill="none" stroke="#274858" stroke-width="2" stroke-linecap="round" stroke-linejoin="round" stroke-miterlimit="10" x1="875.226" y1="648.457" x2="905.026" y2="648.457"/>
		
			<circle clip-path="url(#SVGID_32_)" fill="none" stroke="#274858" stroke-width="2" stroke-linecap="round" stroke-linejoin="round" stroke-miterlimit="10" cx="909.726" cy="628.757" r="4.8"/>
		
			<circle clip-path="url(#SVGID_32_)" fill="none" stroke="#274858" stroke-width="2" stroke-linecap="round" stroke-linejoin="round" stroke-miterlimit="10" cx="909.726" cy="648.457" r="4.8"/>
		
			<circle clip-path="url(#SVGID_32_)" fill="none" stroke="#274858" stroke-width="2" stroke-linecap="round" stroke-linejoin="round" stroke-miterlimit="10" cx="870.526" cy="648.457" r="4.8"/>
		
			<circle clip-path="url(#SVGID_32_)" fill="none" stroke="#274858" stroke-width="2" stroke-linecap="round" stroke-linejoin="round" stroke-miterlimit="10" cx="909.726" cy="668.057" r="4.8"/>
		
			<line clip-path="url(#SVGID_32_)" fill="none" stroke="#274858" stroke-width="3" stroke-miterlimit="10" x1="1139.268" y1="329.927" x2="1491.088" y2="329.927"/>
		<path clip-path="url(#SVGID_32_)" fill="#274858" d="M1139.832,341.206c-6.229,0-11.28-5.051-11.28-11.279
			c0-6.229,5.051-11.28,11.28-11.28c6.228,0,11.279,5.051,11.279,11.28C1151.111,336.155,1146.06,341.206,1139.832,341.206"/>
		
			<line clip-path="url(#SVGID_32_)" fill="none" stroke="#274858" stroke-width="3" stroke-miterlimit="10" x1="647.805" y1="339.697" x2="785.91" y2="339.697"/>
		<path clip-path="url(#SVGID_32_)" fill="#274858" d="M648.369,350.976c-6.229,0-11.279-5.051-11.279-11.279
			c0-6.229,5.05-11.28,11.279-11.28c6.228,0,11.279,5.051,11.279,11.28C659.648,345.925,654.597,350.976,648.369,350.976"/>
	</g>
	<g clip-path="url(#SVGID_2_)">
		<text transform="matrix(1 0 0 1 833.7993 126.9277)" fill="#3B5D6D" font-family="'HelvNeueBoldforIBM'" font-size="48">Risorse</text>
	</g>
	<g clip-path="url(#SVGID_2_)">
		<text transform="matrix(1 0 0 1 833.7993 170.1279)"><tspan x="0" y="0" fill="#3B5D6D" font-family="'HelvNeueRomanforIBM'" font-size="36">Componenti della </tspan><tspan x="0" y="43.2" fill="#3B5D6D" font-family="'HelvNeueRomanforIBM'" font-size="36">tua infrastruttura</tspan></text>
	</g>
	<g clip-path="url(#SVGID_2_)">
	</g>
	<g clip-path="url(#SVGID_2_)">
		<text transform="matrix(1 0 0 1 1526.5469 374.2119)"><tspan x="0" y="0" fill="#B13D6C" font-family="'MyriadPro-Regular'" font-size="36">r</tspan><tspan x="11.448" y="0" fill="#B13D6C" font-family="'MyriadPro-Regular'" font-size="36">esou</tspan><tspan x="83.339" y="0" fill="#B13D6C" font-family="'MyriadPro-Regular'" font-size="36">r</tspan><tspan x="94.787" y="0" fill="#B13D6C" font-family="'MyriadPro-Regular'" font-size="36">c</tspan><tspan x="110.734" y="0" fill="#B13D6C" font-family="'MyriadPro-Regular'" font-size="36">e </tspan></text>
	</g>
	<g clip-path="url(#SVGID_2_)">
		<text transform="matrix(1 0 0 1 1662.8438 374.2119)"><tspan x="0" y="0" fill="#3D559F" font-family="'MyriadPro-Regular'" font-size="36">&quot;so</tspan><tspan x="46.151" y="0" fill="#3D559F" font-family="'MyriadPro-Regular'" font-size="36">f</tspan><tspan x="57.023" y="0" fill="#3D559F" font-family="'MyriadPro-Regular'" font-size="36">tl</tspan><tspan x="77.435" y="0" fill="#3D559F" font-family="'MyriadPro-Regular'" font-size="36">a</tspan><tspan x="94.498" y="0" fill="#3D559F" font-family="'MyriadPro-Regular'" font-size="36">y</tspan><tspan x="111.13" y="0" fill="#3D559F" font-family="'MyriadPro-Regular'" font-size="36">er_vi</tspan><tspan x="184.677" y="0" fill="#3D559F" font-family="'MyriadPro-Regular'" font-size="36">r</tspan><tspan x="197.277" y="0" fill="#3D559F" font-family="'MyriadPro-Regular'" font-size="36">tual_guest&quot; </tspan><tspan x="376.806" y="0" fill="#3D559F" font-family="'MyriadPro-Regular'" font-size="36">&quot;</tspan><tspan x="389.693" y="0" fill="#3D559F" font-family="'MyriadPro-Regular'" font-size="36">w</tspan><tspan x="415.829" y="0" fill="#3D559F" font-family="'MyriadPro-Regular'" font-size="36">o</tspan><tspan x="435.594" y="0" fill="#3D559F" font-family="'MyriadPro-Regular'" font-size="36">r</tspan><tspan x="447.509" y="0" fill="#3D559F" font-family="'MyriadPro-Regular'" font-size="36">ker&quot;</tspan></text>
	</g>
	<g clip-path="url(#SVGID_2_)">
		<text transform="matrix(1 0 0 1 2169.2139 374.2119)" font-family="'MyriadPro-Regular'" font-size="36"> {</text>
	</g>
	<g clip-path="url(#SVGID_2_)">
		<text transform="matrix(1 0 0 1 1526.5469 417.4121)"><tspan x="0" y="0" font-family="'MyriadPro-Regular'" font-size="36">    </tspan><tspan x="30.526" y="0" font-family="'MyriadPro-Regular'" font-size="36">c</tspan><tspan x="46.438" y="0" font-family="'MyriadPro-Regular'" font-size="36">ou</tspan><tspan x="86.038" y="0" font-family="'MyriadPro-Regular'" font-size="36">n</tspan><tspan x="105.874" y="0" font-family="'MyriadPro-Regular'" font-size="36">t             </tspan><tspan x="217.001" y="0" font-family="'MyriadPro-Regular'" font-size="36" letter-spacing="4"> </tspan><tspan x="228.917" y="0" font-family="'MyriadPro-Regular'" font-size="36"> </tspan></text>
	</g>
	<g clip-path="url(#SVGID_2_)">
		<text transform="matrix(1 0 0 1 1869.9512 417.4121)" fill="#B13D6C" font-family="'MyriadPro-Regular'" font-size="36">=</text>
	</g>
	<g clip-path="url(#SVGID_2_)">
		<text transform="matrix(1 0 0 1 1891.4072 417.4121)"><tspan x="0" y="0" font-family="'MyriadPro-Regular'" font-size="36"> &quot;${</tspan><tspan x="48.455" y="0" font-family="'MyriadPro-Regular'" font-size="36">v</tspan><tspan x="65.626" y="0" font-family="'MyriadPro-Regular'" font-size="36">a</tspan><tspan x="82.978" y="0" font-family="'MyriadPro-Regular'" font-size="36" letter-spacing="-1">r</tspan><tspan x="92.878" y="0" font-family="'MyriadPro-Regular'" font-size="36">.</tspan><tspan x="100.329" y="0" font-family="'MyriadPro-Regular'" font-size="36">w</tspan><tspan x="126.501" y="0" font-family="'MyriadPro-Regular'" font-size="36">o</tspan><tspan x="146.265" y="0" font-family="'MyriadPro-Regular'" font-size="36">r</tspan><tspan x="158.181" y="0" font-family="'MyriadPro-Regular'" font-size="36">ker_</tspan><tspan x="222.872" y="0" font-family="'MyriadPro-Regular'" font-size="36">c</tspan><tspan x="238.784" y="0" font-family="'MyriadPro-Regular'" font-size="36">ou</tspan><tspan x="278.384" y="0" font-family="'MyriadPro-Regular'" font-size="36">n</tspan><tspan x="298.22" y="0" font-family="'MyriadPro-Regular'" font-size="36">t}&quot;</tspan></text>
	</g>
	<g clip-path="url(#SVGID_2_)">
		<text transform="matrix(1 0 0 1 1526.5469 460.6118)" font-family="'MyriadPro-Regular'" font-size="36">    hostname           </text>
	</g>
	<g clip-path="url(#SVGID_2_)">
		<text transform="matrix(1 0 0 1 1869.9512 460.6118)" fill="#B13D6C" font-family="'MyriadPro-Regular'" font-size="36">=</text>
	</g>
	<g clip-path="url(#SVGID_2_)">
		<text transform="matrix(1 0 0 1 1891.4072 460.6118)" font-family="'MyriadPro-Regular'" font-size="36"> </text>
	</g>
	<g clip-path="url(#SVGID_2_)">
		<text transform="matrix(1 0 0 1 1899.0391 460.6118)"><tspan x="0" y="0" fill="#3D559F" font-family="'MyriadPro-Regular'" font-size="36">&quot;</tspan><tspan x="11.88" y="0" fill="#3D559F" font-family="'MyriadPro-Regular'" font-size="36">docke</tspan><tspan x="102.995" y="0" fill="#3D559F" font-family="'MyriadPro-Regular'" font-size="36">r</tspan><tspan x="114.587" y="0" fill="#3D559F" font-family="'MyriadPro-Regular'" font-size="36">-s</tspan><tspan x="139.895" y="0" fill="#3D559F" font-family="'MyriadPro-Regular'" font-size="36">w</tspan><tspan x="166.246" y="0" fill="#3D559F" font-family="'MyriadPro-Regular'" font-size="36">a</tspan><tspan x="183.598" y="0" fill="#3D559F" font-family="'MyriadPro-Regular'" font-size="36">r</tspan><tspan x="195.514" y="0" fill="#3D559F" font-family="'MyriadPro-Regular'" font-size="36">m</tspan><tspan x="225.537" y="0" fill="#3D559F" font-family="'MyriadPro-Regular'" font-size="36">-</tspan><tspan x="236.445" y="0" fill="#3D559F" font-family="'MyriadPro-Regular'" font-size="36">w</tspan><tspan x="262.617" y="0" fill="#3D559F" font-family="'MyriadPro-Regular'" font-size="36">o</tspan><tspan x="282.381" y="0" fill="#3D559F" font-family="'MyriadPro-Regular'" font-size="36">r</tspan><tspan x="294.297" y="0" fill="#3D559F" font-family="'MyriadPro-Regular'" font-size="36">ker</tspan></text>
	</g>
	<g clip-path="url(#SVGID_2_)">
		<text transform="matrix(1 0 0 1 2239.9258 460.6118)"><tspan x="0" y="0" font-family="'MyriadPro-Regular'" font-size="36">${</tspan><tspan x="28.691" y="0" font-family="'MyriadPro-Regular'" font-size="36">c</tspan><tspan x="44.604" y="0" font-family="'MyriadPro-Regular'" font-size="36">ou</tspan><tspan x="84.203" y="0" font-family="'MyriadPro-Regular'" font-size="36">n</tspan><tspan x="104.039" y="0" font-family="'MyriadPro-Regular'" font-size="36">t</tspan><tspan x="115.847" y="0" font-family="'MyriadPro-Regular'" font-size="36">.ind</tspan><tspan x="172.005" y="0" font-family="'MyriadPro-Regular'" font-size="36">e</tspan><tspan x="189.969" y="0" font-family="'MyriadPro-Regular'" font-size="36">x}</tspan></text>
	</g>
	<g clip-path="url(#SVGID_2_)">
		<text transform="matrix(1 0 0 1 2456.752 460.6118)" fill="#3D559F" font-family="'MyriadPro-Regular'" font-size="36">&quot;</text>
	</g>
	<g clip-path="url(#SVGID_2_)">
		<text transform="matrix(1 0 0 1 1526.5469 503.812)" font-family="'MyriadPro-Regular'" font-size="36">    domain             </text>
	</g>
	<g clip-path="url(#SVGID_2_)">
		<text transform="matrix(1 0 0 1 1869.9512 503.812)" fill="#B13D6C" font-family="'MyriadPro-Regular'" font-size="36">=</text>
	</g>
	<g clip-path="url(#SVGID_2_)">
		<text transform="matrix(1 0 0 1 1891.4072 503.812)" font-family="'MyriadPro-Regular'" font-size="36"> </text>
	</g>
	<g clip-path="url(#SVGID_2_)">
		<text transform="matrix(1 0 0 1 1899.0391 503.812)"><tspan x="0" y="0" fill="#3D559F" font-family="'MyriadPro-Regular'" font-size="36">&quot;</tspan><tspan x="11.88" y="0" fill="#3D559F" font-family="'MyriadPro-Regular'" font-size="36">dem</tspan><tspan x="80.243" y="0" fill="#3D559F" font-family="'MyriadPro-Regular'" font-size="36">o</tspan><tspan x="99.179" y="0" fill="#3D559F" font-family="'MyriadPro-Regular'" font-size="36">.</tspan><tspan x="106.631" y="0" fill="#3D559F" font-family="'MyriadPro-Regular'" font-size="36">c</tspan><tspan x="122.542" y="0" fill="#3D559F" font-family="'MyriadPro-Regular'" font-size="36">o</tspan><tspan x="142.307" y="0" fill="#3D559F" font-family="'MyriadPro-Regular'" font-size="36">m</tspan><tspan x="172.114" y="0" fill="#3D559F" font-family="'MyriadPro-Regular'" font-size="36">&quot;</tspan></text>
	</g>
	<g clip-path="url(#SVGID_2_)">
		<text transform="matrix(1 0 0 1 1526.5469 547.0117)"><tspan x="0" y="0" font-family="'MyriadPro-Regular'" font-size="36">    os_</tspan><tspan x="82.546" y="0" font-family="'MyriadPro-Regular'" font-size="36">r</tspan><tspan x="93.994" y="0" font-family="'MyriadPro-Regular'" font-size="36">e</tspan><tspan x="112.03" y="0" font-family="'MyriadPro-Regular'" font-size="36">f</tspan><tspan x="122.109" y="0" font-family="'MyriadPro-Regular'" font-size="36">e</tspan><tspan x="140.146" y="0" font-family="'MyriadPro-Regular'" font-size="36">r</tspan><tspan x="151.593" y="0" font-family="'MyriadPro-Regular'" font-size="36">en</tspan><tspan x="189.608" y="0" font-family="'MyriadPro-Regular'" font-size="36">c</tspan><tspan x="205.521" y="0" font-family="'MyriadPro-Regular'" font-size="36">e_</tspan><tspan x="241.557" y="0" font-family="'MyriadPro-Regular'" font-size="36">c</tspan><tspan x="257.468" y="0" font-family="'MyriadPro-Regular'" font-size="36">ode </tspan></text>
	</g>
	<g clip-path="url(#SVGID_2_)">
		<text transform="matrix(1 0 0 1 1869.9512 547.0117)" fill="#B13D6C" font-family="'MyriadPro-Regular'" font-size="36">=</text>
	</g>
	<g clip-path="url(#SVGID_2_)">
		<text transform="matrix(1 0 0 1 1891.4072 547.0117)" font-family="'MyriadPro-Regular'" font-size="36"> </text>
	</g>
	<g clip-path="url(#SVGID_2_)">
		<text transform="matrix(1 0 0 1 1899.0391 547.0117)"><tspan x="0" y="0" fill="#3D559F" font-family="'MyriadPro-Regular'" font-size="36">&quot;UBUNTU_L</tspan><tspan x="178.089" y="0" fill="#3D559F" font-family="'MyriadPro-Regular'" font-size="36" letter-spacing="-2">A</tspan><tspan x="197.349" y="0" fill="#3D559F" font-family="'MyriadPro-Regular'" font-size="36">TES</tspan><tspan x="250.7" y="0" fill="#3D559F" font-family="'MyriadPro-Regular'" font-size="36">T</tspan><tspan x="269.204" y="0" fill="#3D559F" font-family="'MyriadPro-Regular'" font-size="36">&quot;</tspan></text>
	</g>
	<g clip-path="url(#SVGID_2_)">
		<text transform="matrix(1 0 0 1 1526.5469 590.2119)"><tspan x="0" y="0" font-family="'MyriadPro-Regular'" font-size="36">    d</tspan><tspan x="50.83" y="0" font-family="'MyriadPro-Regular'" font-size="36">a</tspan><tspan x="68.038" y="0" font-family="'MyriadPro-Regular'" font-size="36">ta</tspan><tspan x="97.306" y="0" font-family="'MyriadPro-Regular'" font-size="36">c</tspan><tspan x="113.254" y="0" font-family="'MyriadPro-Regular'" font-size="36">e</tspan><tspan x="131.289" y="0" font-family="'MyriadPro-Regular'" font-size="36">n</tspan><tspan x="151.125" y="0" font-family="'MyriadPro-Regular'" font-size="36">t</tspan><tspan x="162.861" y="0" font-family="'MyriadPro-Regular'" font-size="36">er</tspan><tspan x="192.669" y="0" font-family="'MyriadPro-Regular'" font-size="36" letter-spacing="28"> </tspan><tspan x="228.992" y="0" font-family="'MyriadPro-Regular'" font-size="36"> </tspan></text>
	</g>
	<g clip-path="url(#SVGID_2_)">
		<text transform="matrix(1 0 0 1 1869.9512 590.2119)" fill="#B13D6C" font-family="'MyriadPro-Regular'" font-size="36">=</text>
	</g>
	<g clip-path="url(#SVGID_2_)">
		<text transform="matrix(1 0 0 1 1891.4072 590.2119)" font-family="'MyriadPro-Regular'" font-size="36"> </text>
	</g>
	<g clip-path="url(#SVGID_2_)">
		<text transform="matrix(1 0 0 1 1899.0391 590.2119)" fill="#3D559F" font-family="'MyriadPro-Regular'" font-size="36">&quot;</text>
	</g>
	<g clip-path="url(#SVGID_2_)">
		<text transform="matrix(1 0 0 1 1911.1719 590.2119)"><tspan x="0" y="0" font-family="'MyriadPro-Regular'" font-size="36">${</tspan><tspan x="28.691" y="0" font-family="'MyriadPro-Regular'" font-size="36">v</tspan><tspan x="45.898" y="0" font-family="'MyriadPro-Regular'" font-size="36">a</tspan><tspan x="63.251" y="0" font-family="'MyriadPro-Regular'" font-size="36" letter-spacing="-1">r</tspan><tspan x="73.114" y="0" font-family="'MyriadPro-Regular'" font-size="36">.d</tspan><tspan x="100.87" y="0" font-family="'MyriadPro-Regular'" font-size="36">a</tspan><tspan x="118.078" y="0" font-family="'MyriadPro-Regular'" font-size="36">ta</tspan><tspan x="147.346" y="0" font-family="'MyriadPro-Regular'" font-size="36">c</tspan><tspan x="163.293" y="0" font-family="'MyriadPro-Regular'" font-size="36">e</tspan><tspan x="181.329" y="0" font-family="'MyriadPro-Regular'" font-size="36">n</tspan><tspan x="201.165" y="0" font-family="'MyriadPro-Regular'" font-size="36">t</tspan><tspan x="212.9" y="0" font-family="'MyriadPro-Regular'" font-size="36">er}</tspan></text>
	</g>
	<g clip-path="url(#SVGID_2_)">
		<text transform="matrix(1 0 0 1 2163.998 590.2119)" fill="#3D559F" font-family="'MyriadPro-Regular'" font-size="36">&quot;</text>
	</g>
	<g clip-path="url(#SVGID_2_)">
		<text transform="matrix(1 0 0 1 1526.5469 633.4121)"><tspan x="0" y="0" font-family="'MyriadPro-Regular'" font-size="36">    </tspan><tspan x="30.526" y="0" font-family="'MyriadPro-Regular'" font-size="36">c</tspan><tspan x="46.438" y="0" font-family="'MyriadPro-Regular'" font-size="36">o</tspan><tspan x="66.202" y="0" font-family="'MyriadPro-Regular'" font-size="36">r</tspan><tspan x="77.65" y="0" font-family="'MyriadPro-Regular'" font-size="36">es</tspan><tspan x="109.941" y="0" font-family="'MyriadPro-Regular'" font-size="36" letter-spacing="-3"> </tspan><tspan x="114.514" y="0" font-family="'MyriadPro-Regular'" font-size="36" letter-spacing="106"> </tspan><tspan x="228.957" y="0" font-family="'MyriadPro-Regular'" font-size="36"> </tspan></text>
	</g>
	<g clip-path="url(#SVGID_2_)">
		<text transform="matrix(1 0 0 1 1869.9512 633.4121)" fill="#B13D6C" font-family="'MyriadPro-Regular'" font-size="36">=</text>
	</g>
	<g clip-path="url(#SVGID_2_)">
		<text transform="matrix(1 0 0 1 1891.4072 633.4121)" font-family="'MyriadPro-Regular'" font-size="36"> </text>
	</g>
	<g clip-path="url(#SVGID_2_)">
		<text transform="matrix(1 0 0 1 1899.0391 633.4121)" fill="#0186B3" font-family="'MyriadPro-Regular'" font-size="36">1</text>
	</g>
	<g clip-path="url(#SVGID_2_)">
		<text transform="matrix(1 0 0 1 1526.5469 676.6118)"><tspan x="0" y="0" font-family="'MyriadPro-Regular'" font-size="36">    memo</tspan><tspan x="128.374" y="0" font-family="'MyriadPro-Regular'" font-size="36">r</tspan><tspan x="141.01" y="0" font-family="'MyriadPro-Regular'" font-size="36">y</tspan><tspan x="157.966" y="0" font-family="'MyriadPro-Regular'" font-size="36" letter-spacing="63"> </tspan><tspan x="228.886" y="0" font-family="'MyriadPro-Regular'" font-size="36"> </tspan></text>
	</g>
	<g clip-path="url(#SVGID_2_)">
		<text transform="matrix(1 0 0 1 1869.9512 676.6118)" fill="#B13D6C" font-family="'MyriadPro-Regular'" font-size="36">=</text>
	</g>
	<g clip-path="url(#SVGID_2_)">
		<text transform="matrix(1 0 0 1 1891.4072 676.6118)" font-family="'MyriadPro-Regular'" font-size="36"> </text>
	</g>
	<g clip-path="url(#SVGID_2_)">
		<text transform="matrix(1 0 0 1 1899.0391 676.6118)" fill="#0186B3" font-family="'MyriadPro-Regular'" font-size="36">1024</text>
	</g>
	<g clip-path="url(#SVGID_2_)">
		<text transform="matrix(1 0 0 1 1526.5469 719.812)"><tspan x="0" y="0" font-family="'MyriadPro-Regular'" font-size="36">    local_disk</tspan><tspan x="178.629" y="0" font-family="'MyriadPro-Regular'" font-size="36" letter-spacing="42"> </tspan><tspan x="228.921" y="0" font-family="'MyriadPro-Regular'" font-size="36"> </tspan></text>
	</g>
	<g clip-path="url(#SVGID_2_)">
		<text transform="matrix(1 0 0 1 1869.9512 719.812)" fill="#B13D6C" font-family="'MyriadPro-Regular'" font-size="36">=</text>
	</g>
	<g clip-path="url(#SVGID_2_)">
		<text transform="matrix(1 0 0 1 1891.4072 719.812)" font-family="'MyriadPro-Regular'" font-size="36"> </text>
	</g>
	<g clip-path="url(#SVGID_2_)">
		<text transform="matrix(1 0 0 1 1899.0391 719.812)" fill="#0186B3" font-family="'MyriadPro-Regular'" font-size="36">true</text>
	</g>
	<g clip-path="url(#SVGID_2_)">
		<text transform="matrix(1 0 0 1 1526.5469 806.2119)" fill="#B13D6C" font-family="'MyriadPro-Regular'" font-size="36">    </text>
	</g>
	<g clip-path="url(#SVGID_2_)">
		<text transform="matrix(1 0 0 1 1557.0762 806.2119)" font-family="'MyriadPro-Regular'" font-size="36">ssh_key_ids </text>
	</g>
	<g clip-path="url(#SVGID_2_)">
		<text transform="matrix(1 0 0 1 1744.0586 806.2119)" fill="#B13D6C" font-family="'MyriadPro-Regular'" font-size="36">=</text>
	</g>
	<g clip-path="url(#SVGID_2_)">
		<text transform="matrix(1 0 0 1 1765.5146 806.2119)" font-family="'MyriadPro-Regular'" font-size="36"> [</text>
	</g>
	<g clip-path="url(#SVGID_2_)">
		<text transform="matrix(1 0 0 1 1526.5469 849.4121)"><tspan x="0" y="0" font-family="'MyriadPro-Regular'" font-size="36">        &quot;${d</tspan><tspan x="122.18" y="0" font-family="'MyriadPro-Regular'" font-size="36">a</tspan><tspan x="139.388" y="0" font-family="'MyriadPro-Regular'" font-size="36">ta.so</tspan><tspan x="210.127" y="0" font-family="'MyriadPro-Regular'" font-size="36">f</tspan><tspan x="221.034" y="0" font-family="'MyriadPro-Regular'" font-size="36">tl</tspan><tspan x="241.446" y="0" font-family="'MyriadPro-Regular'" font-size="36">a</tspan><tspan x="258.546" y="0" font-family="'MyriadPro-Regular'" font-size="36">y</tspan><tspan x="275.142" y="0" font-family="'MyriadPro-Regular'" font-size="36">er_ssh_ke</tspan><tspan x="424.36" y="0" font-family="'MyriadPro-Regular'" font-size="36" letter-spacing="-1">y</tspan><tspan x="439.947" y="0" font-family="'MyriadPro-Regular'" font-size="36">.</tspan><tspan x="447.399" y="0" font-family="'MyriadPro-Regular'" font-size="36">m</tspan><tspan x="476.955" y="0" font-family="'MyriadPro-Regular'" font-size="36">y_ke</tspan><tspan x="546.83" y="0" font-family="'MyriadPro-Regular'" font-size="36" letter-spacing="-1">y</tspan><tspan x="562.382" y="0" font-family="'MyriadPro-Regular'" font-size="36">.id}&quot;</tspan></text>
	</g>
	<g clip-path="url(#SVGID_2_)">
		<text transform="matrix(1 0 0 1 1526.5469 892.6123)" font-family="'MyriadPro-Regular'" font-size="36">    ]</text>
	</g>
	<g clip-path="url(#SVGID_2_)">
		<text transform="matrix(1 0 0 1 1526.5469 935.8125)" font-family="'MyriadPro-Regular'" font-size="36">  }</text>
	</g>
</g>
</svg>
