<?xml version="1.0" encoding="utf-8"?>
<!-- Generator: Adobe Illustrator 18.1.1, SVG Export Plug-In . SVG Version: 6.00 Build 0)  -->
<svg version="1.1" id="Layer_1" xmlns:sketch="http://www.bohemiancoding.com/sketch/ns"
	 xmlns="http://www.w3.org/2000/svg" xmlns:xlink="http://www.w3.org/1999/xlink" x="0px" y="0px" viewBox="-121 208 76 65"
	 enable-background="new -121 208 76 65" xml:space="preserve">
<title>CLI icon</title>
<desc>Created with Sketch.</desc>
<g id="Docs" sketch:type="MSPage">
	<g id="_x32_-Docs-landing-redesign-Copy" transform="translate(-682.000000, -1498.000000)" sketch:type="MSArtboardGroup">
		<g id="CLI-icon" transform="translate(683.000000, 1498.000000)" sketch:type="MSLayerGroup">
			<path id="Stroke-13" sketch:type="MSShapeGroup" fill="none" stroke="#2D3F49" stroke-width="1.5" stroke-linejoin="round" d="
				M-120.8,271.5h73.3V213c0-2.3-1.5-4.2-3.3-4.2h-66.8c-1.8,0-3.3,1.9-3.3,4.2V271.5L-120.8,271.5z"/>
			<path id="Stroke-14" sketch:type="MSShapeGroup" fill="none" stroke="#2D3F49" stroke-width="1.5" d="M-47.5,219h-73.3"/>
			<path id="Fill-15" sketch:type="MSShapeGroup" fill="#2D3F49" d="M-51.3,214.2c0-0.9-0.7-1.6-1.6-1.6c-0.9,0-1.6,0.7-1.6,1.6
				s0.7,1.6,1.6,1.6C-52,215.9-51.3,215.1-51.3,214.2"/>
			<path id="Fill-16" sketch:type="MSShapeGroup" fill="#2D3F49" d="M-58.4,214.2c0-0.9-0.7-1.6-1.6-1.6c-0.9,0-1.6,0.7-1.6,1.6
				s0.7,1.6,1.6,1.6C-59.1,215.9-58.4,215.1-58.4,214.2"/>
			<path id="Fill-17" sketch:type="MSShapeGroup" fill="#2D3F49" d="M-65.4,214.2c0-0.9-0.7-1.6-1.6-1.6c-0.9,0-1.6,0.7-1.6,1.6
				s0.7,1.6,1.6,1.6C-66.1,215.9-65.4,215.1-65.4,214.2"/>
			<path id="Stroke-18" sketch:type="MSShapeGroup" fill="none" stroke="#2D3F49" stroke-width="1.5" stroke-linecap="round" d="
				M-110.9,228.7l10.2,5.9"/>
			<path id="Stroke-19" sketch:type="MSShapeGroup" fill="none" stroke="#2D3F49" stroke-width="1.5" stroke-linecap="round" d="
				M-110.9,240.8l10.2-5.9"/>
		</g>
	</g>
</g>
</svg>
