<?xml version="1.0" encoding="utf-8"?>
<!-- Generator: Adobe Illustrator 18.1.1, SVG Export Plug-In . SVG Version: 6.00 Build 0)  -->
<svg version="1.1" id="Layer_1" xmlns="http://www.w3.org/2000/svg" xmlns:xlink="http://www.w3.org/1999/xlink" x="0px" y="0px"
	 viewBox="-1401 359 76 76" enable-background="new -1401 359 76 76" xml:space="preserve">
<title>CLI and Dev Tools</title>
<desc>Created with Sketch.</desc>
<g id="WeddingCake">
	<g id="Documentation-Copy-2" transform="translate(-205.000000, -425.000000)">
		<g id="CLI-and-Dev-Tools" transform="translate(206.000000, 426.000000)">
			<g id="Group">
				<g id="Layer_1_1_">
					<g id="XMLID_1049_" transform="translate(1.000000, 0.000000)">
						<path id="XMLID_1057_" fill="none" stroke="#3D70B2" stroke-width="1.5" d="M-1381.8,386.7l26.4,26.4c-1.9,5.1-0.8,11,3.2,15
							c4.5,4.5,11.2,5.3,16.5,2.6l-9.6-9.6c-1.7-1.7-1.7-4.4,0-6.1c1.7-1.7,4.4-1.7,6.1,0l9.6,9.6c2.8-5.3,1.9-12.1-2.6-16.5
							c-4.1-4.1-10-5.1-15-3.2l-26.4-26.5c1.9-5.1,0.8-11-3.2-15c-4.5-4.5-11.2-5.3-16.5-2.6l9.6,9.6c1.7,1.7,1.7,4.4,0,6.1
							c-1.7,1.7-4.4,1.7-6.1,0l-9.6-9.6c-2.8,5.3-1.9,12.1,2.6,16.5C-1392.8,387.5-1386.8,388.6-1381.8,386.7L-1381.8,386.7z"/>
					</g>
					<path id="XMLID_1048_" fill="none" stroke="#3D70B2" stroke-width="1.5" d="M-1359.5,383.6l22.7-22.7c2.3-2.3,6-2.3,8.2,0l0,0
						c2.3,2.3,2.3,6,0,8.2l-22.7,22.8"/>
					<path id="XMLID_1005_" fill="none" stroke="#3D70B2" stroke-width="1.5" d="M-1355.5,387.7l22.7-22.7"/>
					<path id="XMLID_1004_" fill="none" stroke="#3D70B2" stroke-width="1.5" d="M-1390.4,422.6l18.8-18.8"/>
					<path id="XMLID_1003_" fill="none" stroke="#3D70B2" stroke-width="1.5" d="M-1400.1,428l4.3,4.3l7.9-7.2l-5-5L-1400.1,428z"/>
				</g>
			</g>
		</g>
	</g>
</g>
</svg>
