<?xml version="1.0" encoding="utf-8"?>
<!-- Generator: Adobe Illustrator 19.0.0, SVG Export Plug-In . SVG Version: 6.00 Build 0)  -->
<!DOCTYPE svg PUBLIC "-//W3C//DTD SVG 1.1//EN" "http://www.w3.org/Graphics/SVG/1.1/DTD/svg11.dtd">
<svg version="1.1" id="Layer_1" xmlns:sketch="http://www.bohemiancoding.com/sketch/ns"
	 xmlns="http://www.w3.org/2000/svg" xmlns:xlink="http://www.w3.org/1999/xlink" x="0px" y="0px" viewBox="-617 380 45 42"
	 style="enable-background:new -617 380 45 42;" xml:space="preserve" fill="#0071c2">
<title>Imported Layers</title>
<desc>Created with Sketch.</desc>
<g id="Page-1" sketch:type="MSPage">
	<g id="Compute-Taxonomy" transform="translate(-76.000000, -276.000000)" sketch:type="MSArtboardGroup">
		<g id="Main-Menu" transform="translate(23.000000, 62.000000)" sketch:type="MSLayerGroup">
			<g id="Imported-Layers" transform="translate(53.000000, 214.000000)" sketch:type="MSShapeGroup">
				<path id="Fill-1" d="M-573,391.5h-42.8c-0.3,0-0.6-0.2-0.6-0.6c0-0.3,0.3-0.6,0.6-0.6h42.8c0.3,0,0.6,0.2,0.6,0.6
					C-572.4,391.3-572.7,391.5-573,391.5"/>
				<path id="Fill-2" d="M-573,421.9h-42.8c-0.3,0-0.6-0.2-0.6-0.6v-40.5c0-0.3,0.3-0.6,0.6-0.6h42.8c0.3,0,0.6,0.2,0.6,0.6v40.5
					C-572.4,421.6-572.7,421.9-573,421.9L-573,421.9z M-615.3,420.8h41.7v-39.4h-41.7V420.8z"/>
				<path id="Fill-3" d="M-588.2,411.7c-0.1,0-0.2,0-0.3-0.1l-18-9.8l-8.8,9.6c-0.2,0.2-0.6,0.3-0.8,0.1c-0.2-0.2-0.3-0.5-0.1-0.8
					l9.1-10c0.2-0.2,0.5-0.2,0.7-0.1l18,9.7l14.9-19.8c0.2-0.2,0.6-0.3,0.8-0.1c0.3,0.2,0.3,0.5,0.1,0.8l-15.2,20.2
					C-587.9,411.7-588.1,411.7-588.2,411.7"/>
			</g>
		</g>
	</g>
</g>
</svg>
