<?xml version="1.0" encoding="utf-8"?>
<!-- Generator: Adobe Illustrator 18.1.0, SVG Export Plug-In . SVG Version: 6.00 Build 0)  -->
<!DOCTYPE svg PUBLIC "-//W3C//DTD SVG 1.1//EN" "http://www.w3.org/Graphics/SVG/1.1/DTD/svg11.dtd">
<svg version="1.1" id="Layer_1" xmlns="http://www.w3.org/2000/svg" xmlns:xlink="http://www.w3.org/1999/xlink" x="0px" y="0px"
	 viewBox="0 0 64 64" enable-background="new 0 0 64 64" xml:space="preserve">
<g>
	<path fill="#006D5D" d="M3.5,36h5.3v5.2H3.5V36z"/>
	<path fill="#006D5D" d="M11.7,23.7h4.6v2.4h0.1c1.2-2,3.3-2.9,5.4-2.9c5.1,0,6.4,2.9,6.4,7.2v10.8h-4.8v-9.9c0-2.9-0.8-4.3-3.1-4.3
		c-2.6,0-3.7,1.5-3.7,5v9.2h-4.8V23.7z"/>
	<path fill="#006D5D" d="M35.2,33.7c0.1,3.1,1.6,4.5,4.3,4.5c1.9,0,3.5-1.2,3.8-2.3h4.2c-1.4,4.2-4.2,5.9-8.2,5.9
		c-5.5,0-9-3.8-9-9.2c0-5.3,3.6-9.3,9-9.3c6,0,8.9,5,8.5,10.4H35.2z M43,30.6c-0.4-2.4-1.5-3.7-3.8-3.7c-3.1,0-3.9,2.4-4,3.7H43z"/>
	<path fill="#006D5D" d="M56.2,23.7h3.5v3.2h-3.5v8.7c0,1.6,0.4,2,2,2c0.5,0,1.1,0,1.5-0.1v3.8c-0.8,0.1-1.9,0.2-2.8,0.2
		c-3,0-5.5-0.6-5.5-4.2V26.9h-2.9v-3.2h2.9v-5.3h4.8V23.7z"/>
</g>
</svg>
