<?xml version="1.0" encoding="utf-8"?>
<!-- Generator: Adobe Illustrator 18.1.1, SVG Export Plug-In . SVG Version: 6.00 Build 0)  -->
<svg version="1.1" id="Layer_1" xmlns="http://www.w3.org/2000/svg" xmlns:xlink="http://www.w3.org/1999/xlink" x="0px" y="0px"
	 viewBox="-1401 362 76 69" enable-background="new -1401 362 76 69" xml:space="preserve">
<title>icons-19</title>
<desc>Created with Sketch.</desc>
<g id="WeddingCake">
	<g id="Documentation-Copy-2" transform="translate(-1138.000000, -737.000000)">
		<g id="icons-19" transform="translate(1139.000000, 738.000000)">
			<g id="Group">
				<g id="Layer_1_1_">
					<path id="Shape" fill="none" stroke="#3D70B2" stroke-width="1.5" d="M-1341.4,407.8L-1341.4,407.8h0.3
						c7.9,0,14.3-6.4,14.3-14.3c0-7.5-5.9-13.7-13.3-14.2c-0.5-9.6-8.5-17.3-18.3-17.3c-7.3,0-13.7,4.3-16.6,10.6
						c-2.1-0.9-4.5-1.4-7-1.4c-10.1,0-18.3,8.2-18.3,18.3s8.2,18.3,18.3,18.3h0.1"/>
					<path id="Shape_1_" fill="none" stroke="#3D70B2" stroke-width="1.5" d="M-1367.3,406.8v-7.5c0-1.6,0.6-3,1.5-4
						c1.1-1.2,2.6-1.9,4.4-1.9c3.3,0,5.9,2.6,5.9,5.9v7.5 M-1361.4,428.8c-6.5,0-11.8-5.3-11.8-11.8c0-4.8,2.8-8.9,6.8-10.7
						c1.5-0.7,3.2-1.1,5-1.1c6.5,0,11.8,5.3,11.8,11.8S-1354.9,428.8-1361.4,428.8z"/>
					<path id="Shape_2_" fill="#3D70B2" d="M-1359.4,415.9c0-1.2-1-2.2-2.2-2.2c-1.2,0-2.2,1-2.2,2.2c0,0.9,0.6,1.7,1.3,2v3.7
						c0,0.5,0.4,0.8,0.8,0.8c0.5,0,0.8-0.4,0.8-0.8v-3.7C-1360,417.6-1359.4,416.8-1359.4,415.9"/>
				</g>
			</g>
		</g>
	</g>
</g>
</svg>
