<?xml version="1.0" encoding="utf-8"?>
<!-- Generator: Adobe Illustrator 19.0.0, SVG Export Plug-In . SVG Version: 6.00 Build 0)  -->
<!DOCTYPE svg PUBLIC "-//W3C//DTD SVG 1.1//EN" "http://www.w3.org/Graphics/SVG/1.1/DTD/svg11.dtd">
<svg version="1.1" id="Layer_1" xmlns:sketch="http://www.bohemiancoding.com/sketch/ns"
	 xmlns="http://www.w3.org/2000/svg" xmlns:xlink="http://www.w3.org/1999/xlink" x="0px" y="0px" viewBox="-616 377 47 47"
	 style="enable-background:new -616 377 47 47;" xml:space="preserve" fill="#0071c2">
<title>Stroke 1 + Stroke 3</title>
<desc>Created with Sketch.</desc>
<g id="Page-1" sketch:type="MSPage">
	<g id="Compute-Taxonomy" transform="translate(-311.000000, -131.000000)" sketch:type="MSArtboardGroup">
		<g id="Main-Menu" transform="translate(23.000000, 62.000000)" sketch:type="MSLayerGroup">
			<g id="Stroke-1-_x2B_-Stroke-3" transform="translate(289.000000, 70.000000)" sketch:type="MSShapeGroup">
				<path d="M-575.7,423c-3,0-5.4-2.4-5.4-5.4c0-3,2.4-5.4,5.4-5.4s5.4,2.4,5.4,5.4C-570.3,420.6-572.7,423-575.7,423z
					 M-575.7,413.7c-2.1,0-3.9,1.8-3.9,3.9s1.7,3.9,3.9,3.9s3.9-1.8,3.9-3.9S-573.6,413.7-575.7,413.7z M-611.2,423
					c-3,0-5.4-2.4-5.4-5.4c0-3,2.4-5.4,5.4-5.4c3,0,5.4,2.4,5.4,5.4C-605.8,420.6-608.2,423-611.2,423z M-611.2,413.7
					c-2.1,0-3.9,1.8-3.9,3.9s1.7,3.9,3.9,3.9c2.1,0,3.9-1.8,3.9-3.9S-609,413.7-611.2,413.7z M-593.4,387.1c-3,0-5.4-2.4-5.4-5.4
					c0-3,2.4-5.4,5.4-5.4s5.4,2.4,5.4,5.4C-588.1,384.7-590.5,387.1-593.4,387.1z M-593.4,377.8c-2.1,0-3.9,1.8-3.9,3.9
					c0,2.2,1.7,3.9,3.9,3.9s3.9-1.8,3.9-3.9C-589.6,379.6-591.3,377.8-593.4,377.8z"/>
				<path d="M-575.7,413.7c-0.4,0-0.8-0.3-0.8-0.8v-12.5h-34v12.5c0,0.4-0.3,0.8-0.8,0.8s-0.8-0.3-0.8-0.8v-14h17.7v-12.5
					c0-0.4,0.3-0.8,0.8-0.8s0.7,0.3,0.7,0.8v12.5h17.7v14C-574.9,413.3-575.3,413.7-575.7,413.7z"/>
			</g>
		</g>
	</g>
</g>
</svg>
