<?xml version="1.0" encoding="utf-8"?>
<!-- Generator: Adobe Illustrator 19.0.0, SVG Export Plug-In . SVG Version: 6.00 Build 0)  -->
<!DOCTYPE svg PUBLIC "-//W3C//DTD SVG 1.1//EN" "http://www.w3.org/Graphics/SVG/1.1/DTD/svg11.dtd">
<svg version="1.1" id="Layer_1" xmlns:sketch="http://www.bohemiancoding.com/sketch/ns"
	 xmlns="http://www.w3.org/2000/svg" xmlns:xlink="http://www.w3.org/1999/xlink" x="0px" y="0px" viewBox="-617 378 45 45"
	 style="enable-background:new -617 378 45 45;" xml:space="preserve" fill="#0071c2">
<title>Imported Layers</title>
<desc>Created with Sketch.</desc>
<g id="Page-1" sketch:type="MSPage">
	<g id="Compute-Taxonomy" transform="translate(-658.000000, -275.000000)" sketch:type="MSArtboardGroup">
		<g id="Main-Menu" transform="translate(23.000000, 62.000000)" sketch:type="MSLayerGroup">
			<g id="Imported-Layers" transform="translate(635.000000, 213.000000)" sketch:type="MSShapeGroup">
				<path id="Fill-1" d="M-572.6,422.2H-616c-0.3,0-0.6-0.3-0.6-0.6c0-0.3,0.3-0.6,0.6-0.6h43.4c0.3,0,0.6,0.3,0.6,0.6
					C-572,421.9-572.3,422.2-572.6,422.2"/>
				<path id="Fill-2" d="M-574.4,411.5h-39.9c-1.3,0-2.4-1-2.4-2.3v-28.6c0-1.3,1.1-2.3,2.4-2.3h39.9c1.3,0,2.4,1,2.4,2.3v28.6
					C-572,410.5-573.1,411.5-574.4,411.5L-574.4,411.5z M-614.3,379.4c-0.7,0-1.2,0.5-1.2,1.2v28.6c0,0.6,0.5,1.2,1.2,1.2h39.9
					c0.7,0,1.2-0.5,1.2-1.2v-28.6c0-0.6-0.5-1.2-1.2-1.2H-614.3L-614.3,379.4z"/>
				<path id="Fill-3" d="M-597,400.2c-0.3,0.2-0.7,0.3-1.2,0.3c-0.8,0-1.4-0.4-1.4-1.5c-0.9,1-2.1,1.5-3.5,1.5
					c-1.8,0-3.2-0.8-3.2-2.7c0-2.2,1.7-2.7,3.3-3c1.8-0.4,3.3-0.2,3.3-1.4c0-1.4-1.2-1.6-2.2-1.6c-1.4,0-2.4,0.4-2.4,1.8h-1.6
					c0.1-2.4,2-3.2,4.2-3.2c1.8,0,3.7,0.4,3.7,2.7v5c0,0.7,0,1.1,0.5,1.1c0.2,0,0.3,0,0.5-0.1V400.2L-597,400.2z M-599.6,395.2
					c-1.3,0.9-4.9,0-4.9,2.4c0,1,0.9,1.4,1.9,1.4c2.1,0,3-1.3,3-2.2V395.2L-599.6,395.2z"/>
				<path id="Fill-4" d="M-595.5,390.6h1.6v1.3h0c0.5-1.1,1.8-1.5,3.1-1.5c3,0,4.5,2.4,4.5,5.1c0,2.7-1.5,5-4.5,5
					c-1,0-2.5-0.4-3.2-1.5h0v5h-1.6V390.6L-595.5,390.6z M-590.9,391.7c-2.2,0-3,1.9-3,3.6c0,1.9,0.9,3.7,3.1,3.7
					c2.2,0,2.9-1.9,2.9-3.7C-587.9,393.5-588.8,391.7-590.9,391.7L-590.9,391.7z"/>
				<path id="Fill-5" d="M-584.6,386.9h1.6v1.9h-1.6V386.9z M-584.6,390.6h1.6v9.7h-1.6V390.6z"/>
			</g>
		</g>
	</g>
</g>
</svg>
