<?xml version="1.0" encoding="UTF-8" standalone="no"?>
<svg width="1523px" height="741px" viewBox="0 0 1523 741" version="1.1" xmlns="http://www.w3.org/2000/svg" xmlns:xlink="http://www.w3.org/1999/xlink">
    <!-- Generator: Sketch 40.3 (33839) - http://www.bohemiancoding.com/sketch -->
    <title>BluemixSoftLayerBill_v2</title>
    <desc>Created with Sketch.</desc>
    <defs>
        <polygon id="path-1" points="89.9997 0 0 0 0 89.9997 89.9997 89.9997"></polygon>
    </defs>
    <g id="Page-1" stroke="none" stroke-width="1" fill="none" fill-rule="evenodd">
        <g id="BluemixSoftLayerBill">
            <g id="Page-1">
                <g id="Desktop-HD">
                    <polyline id="Stroke-36" stroke="#FF2F2F" stroke-width="6" points="147 545 399.6837 544 411.5038 504"></polyline>
                    <polyline id="Stroke-38" stroke="#5596E6" stroke-width="6" points="147 253 399.6837 254 411.5038 294"></polyline>
                    <text id="Bluemix-bill" fill="#3C3232" font-family="HelvNeueBoldforIBM, HelvNeue Bold for IBM" font-size="32" font-weight="bold">
                        <tspan x="14.424" y="307">Facture Bluemix</tspan>
                    </text>
                    <text id="SoftLayer-bill" fill="#3C3232" font-family="HelvNeueBoldforIBM, HelvNeue Bold for IBM" font-size="32" font-weight="bold">
                        <tspan x="0.952" y="597">Facture SoftLayer</tspan>
                    </text>
                    <g id="Page-1" transform="translate(59.000000, 444.000000)" fill="#FF2F2F">
                        <path d="M0,0.9994 L0,120.9994 L80,120.9994 L80,32.9994 L48,0.9994 L0,0.9994 L0,0.9994 Z M4,5.0014 L44,5.0014 L44,36.9994 L76,36.9994 L76,117.0014 L4,117.0014 L4,5.0014 L4,5.0014 Z" id="Fill-1"></path>
                        <polygon id="Fill-2" points="16 53 64 53 64 49 16 49"></polygon>
                        <polygon id="Fill-3" points="16 61 64 61 64 57 16 57"></polygon>
                        <polygon id="Fill-4" points="16 69 40 69 40 65 16 65"></polygon>
                    </g>
                    <text id="SoftLayer-bill" fill="#3C3232" font-family="HelvNeueBoldforIBM, HelvNeue Bold for IBM" font-size="32" font-weight="bold">
                        <tspan x="848.952" y="594">Facture SoftLayer</tspan>
                    </text>
                    <g id="Page-1" transform="translate(907.000000, 433.000000)" fill="#FF2F2F">
                        <path d="M0,0.9994 L0,120.9994 L80,120.9994 L80,32.9994 L48,0.9994 L0,0.9994 L0,0.9994 Z M4,5.0014 L44,5.0014 L44,36.9994 L76,36.9994 L76,117.0014 L4,117.0014 L4,5.0014 L4,5.0014 Z" id="Fill-1"></path>
                        <polygon id="Fill-2" points="16 53 64 53 64 49 16 49"></polygon>
                        <polygon id="Fill-3" points="16 61 64 61 64 57 16 57"></polygon>
                        <polygon id="Fill-4" points="16 69 40 69 40 65 16 65"></polygon>
                    </g>
                    <g id="Page-1" transform="translate(59.000000, 156.000000)" fill="#5596E6">
                        <path d="M0,0.142262857 L0,118.999406 L80,118.999406 L80,31.837501 L48,0.142262857 L0,0.142262857 L0,0.142262857 Z M4,4.10614857 L44,4.10614857 L44,35.7994057 L76,35.7994057 L76,115.039482 L4,115.039482 L4,4.10614857 L4,4.10614857 Z" id="Fill-1"></path>
                        <polygon id="Fill-2" points="16 51.647619 64 51.647619 64 47.6857143 16 47.6857143"></polygon>
                        <polygon id="Fill-3" points="16 59.5714286 64 59.5714286 64 55.6095238 16 55.6095238"></polygon>
                        <polygon id="Fill-4" points="16 67.4952381 40 67.4952381 40 63.5333333 16 63.5333333"></polygon>
                    </g>
                    <text id="Bluemix-bill" fill="#3C3232" font-family="HelvNeueBoldforIBM, HelvNeue Bold for IBM" font-size="32" font-weight="bold">
                        <tspan x="609.924" y="161">Facture Bluemix</tspan>
                    </text>
                    <g id="Page-1" transform="translate(654.000000, 0.000000)" fill="#5596E6">
                        <path d="M0,0.9994 L0,120.9994 L80,120.9994 L80,32.9994 L48,0.9994 L0,0.9994 L0,0.9994 Z M4,5.0014 L44,5.0014 L44,36.9994 L76,36.9994 L76,117.0014 L4,117.0014 L4,5.0014 L4,5.0014 Z" id="Fill-1"></path>
                        <polygon id="Fill-2" points="16 53 64 53 64 49 16 49"></polygon>
                        <polygon id="Fill-3" points="16 61 64 61 64 57 16 57"></polygon>
                        <polygon id="Fill-4" points="16 69 40 69 40 65 16 65"></polygon>
                    </g>
                    <g id="Page-1" transform="translate(1274.000000, 212.000000)" fill="#5596E6">
                        <path d="M0,0.9994 L0,120.9994 L80,120.9994 L80,32.9994 L48,0.9994 L0,0.9994 L0,0.9994 Z M4,5.0014 L44,5.0014 L44,36.9994 L76,36.9994 L76,117.0014 L4,117.0014 L4,5.0014 L4,5.0014 Z" id="Fill-1"></path>
                        <polygon id="Fill-2" points="16 53 64 53 64 49 16 49"></polygon>
                        <polygon id="Fill-3" points="16 61 64 61 64 57 16 57"></polygon>
                        <polygon id="Fill-4" points="16 69 40 69 40 65 16 65"></polygon>
                    </g>
                    <g id="Page-1" transform="translate(367.000000, 317.000000)">
                        <g id="Fill-1-Clipped">
                            <mask id="mask-2" fill="white">
                                <use xlink:href="#path-1"></use>
                            </mask>
                            <g id="path-1"></g>
                            <path d="M79.6062,31.6062 L70.6062,40.6062 C67.7727,43.4397 64.0062,44.9997 59.9997,44.9997 C58.0722,44.9997 56.1972,44.6517 54.4647,44.0202 L67.2432,31.2432 L58.7577,22.7577 L45.9792,35.5347 C45.3477,33.8037 44.9997,31.9287 44.9997,29.9997 C44.9997,25.9932 46.5597,22.2267 49.3932,19.3932 L58.3932,10.3932 C61.2267,7.5597 64.9932,5.9997 68.9997,5.9997 C73.0062,5.9997 76.7727,7.5597 79.6062,10.3932 C82.4397,13.2267 83.9997,16.9932 83.9997,20.9997 C83.9997,25.0062 82.4397,28.7727 79.6062,31.6062 M44.9997,59.9997 C44.9997,64.0062 43.4397,67.7727 40.6062,70.6062 L31.6062,79.6062 C28.7727,82.4397 25.0062,83.9997 20.9997,83.9997 C16.9932,83.9997 13.2267,82.4397 10.3932,79.6062 C7.5597,76.7727 5.9997,73.0062 5.9997,68.9997 C5.9997,64.9932 7.5597,61.2267 10.3932,58.3932 L19.3932,49.3932 C22.2267,46.5597 25.9932,44.9997 29.9997,44.9997 C31.9287,44.9997 33.8037,45.3477 35.5347,45.9792 L22.7577,58.7577 L31.2432,67.2432 L44.0202,54.4647 C44.6517,56.1972 44.9997,58.0722 44.9997,59.9997 M83.8497,6.1512 C80.0487,2.3517 74.7987,-0.0003 68.9997,-0.0003 C63.2007,-0.0003 57.9507,2.3517 54.1512,6.1512 L45.1512,15.1512 C41.3517,18.9507 38.9997,24.2007 38.9997,29.9997 C38.9997,33.6162 39.8577,37.0767 41.4222,40.0917 L40.0917,41.4222 C37.0782,39.8577 33.6162,38.9997 29.9997,38.9997 C24.2007,38.9997 18.9507,41.3517 15.1512,45.1512 L6.1512,54.1512 C2.3517,57.9507 -0.0003,63.2007 -0.0003,68.9997 C-0.0003,74.7987 2.3517,80.0487 6.1512,83.8497 C9.9507,87.6492 15.2007,89.9997 20.9997,89.9997 C26.7987,89.9997 32.0487,87.6492 35.8497,83.8497 L44.8497,74.8497 C48.6492,71.0487 50.9997,65.7987 50.9997,59.9997 C50.9997,56.3832 50.1432,52.9227 48.5772,49.9077 L49.9077,48.5772 C52.9227,50.1432 56.3832,50.9997 59.9997,50.9997 C65.7987,50.9997 71.0487,48.6492 74.8497,44.8497 L83.8497,35.8497 C87.6492,32.0487 89.9997,26.7987 89.9997,20.9997 C89.9997,15.2007 87.6492,9.9507 83.8497,6.1512" id="Fill-1" fill="#000000" mask="url(#mask-2)"></path>
                        </g>
                    </g>
                    <text id="Link-Bluemix-and" fill="#3C3232" font-family="HelvNeueBoldforIBM, HelvNeue Bold for IBM" font-size="32" font-weight="bold">
                        <tspan x="284.956" y="441">Liez des comptes</tspan>
                    </text>
                    <text id="SoftLayer-accounts" fill="#3C3232" font-family="HelvNeueBoldforIBM, HelvNeue Bold for IBM" font-size="32" font-weight="bold">
                        <tspan x="265.916" y="480">Bluemix et SoftLayer</tspan>
                    </text>
                    <text id="For-the-next-billing-cycle,-you" fill="#3C3232" font-family="HelveticaNeue, Helvetica Neue" font-size="30" font-weight="normal">
                        <tspan x="1050" y="433">A partir du prochain cycle de</tspan>
                    </text>
                    <text id="will-receive-a-singl" fill="#3C3232" font-family="HelveticaNeue, Helvetica Neue" font-size="30" font-weight="normal">
                        <tspan x="1050" y="465">facturation, vous allez recevoir</tspan>
                    </text>
                    <text id="bill-that-includes-your-SoftLayer" fill="#3C3232" font-family="HelveticaNeue, Helvetica Neue" font-size="30" font-weight="normal">
                        <tspan x="1050" y="497">une seule facture incluant vos</tspan>
                    </text>
                    <text id="and-Bluemix-charges" fill="#3C3232" font-family="HelveticaNeue, Helvetica Neue" font-size="30" font-weight="normal">
                        <tspan x="1050" y="529">frais SoftLayer et Bluemix</tspan>
                    </text>
                    <text id="Bluemix-bill" fill="#3C3232" font-family="HelvNeueBoldforIBM, HelvNeue Bold for IBM" font-size="32" font-weight="bold">
                        <tspan x="1227.864" y="377">Facture Bluemix</tspan>
                    </text>
                    <g id="Group" transform="translate(823.500000, 368.500000) scale(1, -1) translate(-823.500000, -368.500000) translate(458.000000, 365.000000)" stroke="#AF6EE8" stroke-width="6">
                        <path d="M0.26034483,3.5 L730,3.5" id="Line"></path>
                        <path d="M730,0.5 L730,6.5" id="Line-decoration-1"></path>
                    </g>
                    <text id="After-you-link-accounts,-you" fill="#1A1314" font-family="HelveticaNeue, Helvetica Neue" font-size="30" font-weight="normal">
                        <tspan x="480.04" y="203">Une fois vos comptes liés, vous</tspan>
                    </text>
                    <text id="will-receive-a-separate-bill-for-your" fill="#1A1314" font-family="HelveticaNeue, Helvetica Neue" font-size="30" font-weight="normal">
                        <tspan x="439" y="235">recevrez une facture distincte pour votre</tspan>
                    </text>
                    <text id="Bluemix-usage-for-the-current" fill="#1A1314" font-family="HelveticaNeue, Helvetica Neue" font-size="30" font-weight="normal">
                        <tspan x="468.385" y="267">utilisation de Bluemix pour le cycle</tspan>
                    </text>
                    <text id="month’s-billing-cycle." fill="#1A1314" font-family="HelveticaNeue, Helvetica Neue" font-size="30" font-weight="normal">
                        <tspan x="525.04" y="299">de facturation du mois en cours.</tspan>
                    </text>
                    <text id="You-might-receive-a-separate-bill" fill="#3C3232" font-family="HelveticaNeue, Helvetica Neue" font-size="30" font-weight="normal">
                        <tspan x="723.77" y="639">Il se peut que vous receviez une facture distincte</tspan>
                    </text>
                    <text id="for-SoftLayer-usage-for-the-current" fill="#3C3232" font-family="HelveticaNeue, Helvetica Neue" font-size="30" font-weight="normal">
                        <tspan x="709.93" y="671">pour votre utilisation de SoftLayer pour le cycle</tspan>
                    </text>
                    <text id="billing-cycle,-depending-on-when-you" fill="#3C3232" font-family="HelveticaNeue, Helvetica Neue" font-size="30" font-weight="normal">
                        <tspan x="692" y="703">de facturation du mois en cours, selon le moment</tspan>
                    </text>
                    <text id="linked-your-accounts." fill="#3C3232" font-family="HelveticaNeue, Helvetica Neue" font-size="30" font-weight="normal">
                        <tspan x="798.73" y="735">auquel vous avez lié vos comptes.</tspan>
                    </text>
                    <g id="Group-2" transform="translate(581.000000, 325.000000)">
                        <path d="M2.62030075,0 L220.515038,0" id="Line" stroke="#5596E6" stroke-dasharray="15,5" transform="translate(111.567669, 0.500000) scale(1, -1) translate(-111.567669, -0.500000) "></path>
                        <path d="M0,0 L0,41" id="Line" stroke="#AF6EE8" transform="translate(0.500000, 20.500000) scale(1, -1) translate(-0.500000, -20.500000) "></path>
                        <path d="M226,0 L226,41" id="Line-Copy" stroke="#AF6EE8" transform="translate(226.500000, 20.500000) scale(1, -1) translate(-226.500000, -20.500000) "></path>
                    </g>
                    <g id="Group-2" transform="translate(946.500000, 388.500000) rotate(180.000000) translate(-946.500000, -388.500000) translate(844.000000, 368.000000)">
                        <path d="M2.05827068,0 L198.163534,0" id="Line" stroke="#FF2F2F" stroke-dasharray="15,5" transform="translate(100.110902, 0.500000) scale(1, -1) translate(-100.110902, -0.500000) "></path>
                        <path d="M0,0.774194 L0,41.0000005" id="Line" stroke="#AF6EE8" transform="translate(0.500000, 20.887097) scale(1, -1) translate(-0.500000, -20.887097) "></path>
                        <path d="M204,0.774194 L204,41.0000005" id="Line-Copy" stroke="#AF6EE8" transform="translate(204.500000, 20.887097) scale(1, -1) translate(-204.500000, -20.887097) "></path>
                    </g>
                </g>
            </g>
        </g>
    </g>
</svg>
