<svg id="Layer_1" data-name="Layer 1" xmlns="http://www.w3.org/2000/svg" xmlns:xlink="http://www.w3.org/1999/xlink" viewBox="0 0 477.1 474.81"><defs><style>.cls-1,.cls-15,.cls-17,.cls-2,.cls-21,.cls-24,.cls-25,.cls-3,.cls-39{fill:none;}.cls-1{clip-rule:evenodd;}.cls-3{fill-rule:evenodd;}.cls-4{clip-path:url(#clip-path);}.cls-5{clip-path:url(#clip-path-2);}.cls-6{fill:#4b4b4b;}.cls-7{clip-path:url(#clip-path-3);}.cls-8{clip-path:url(#clip-path-5);}.cls-9{clip-path:url(#clip-path-7);}.cls-10{clip-path:url(#clip-path-9);}.cls-11{clip-path:url(#clip-path-11);}.cls-12{clip-path:url(#clip-path-13);}.cls-13{clip-path:url(#clip-path-15);}.cls-14{fill:#fff;}.cls-15,.cls-21,.cls-24,.cls-39{stroke:#365e80;}.cls-15,.cls-17,.cls-21,.cls-24,.cls-25,.cls-39{stroke-miterlimit:10;}.cls-15,.cls-17,.cls-21{stroke-width:2px;}.cls-16{clip-path:url(#clip-path-22);}.cls-17,.cls-25{stroke:#4b4b4b;}.cls-18{clip-path:url(#clip-path-25);}.cls-19{clip-path:url(#clip-path-28);}.cls-20{clip-path:url(#clip-path-31);}.cls-21{stroke-dasharray:5 8 5 8;}.cls-22{fill:#5d5d5d;}.cls-23{clip-path:url(#clip-path-34);}.cls-24{stroke-width:5px;stroke-dasharray:5 5 5 5;}.cls-25,.cls-39{stroke-width:3px;}.cls-26{clip-path:url(#clip-path-37);}.cls-27{clip-path:url(#clip-path-39);}.cls-28{clip-path:url(#clip-path-42);}.cls-29{isolation:isolate;}.cls-30{clip-path:url(#clip-path-44);}.cls-31{clip-path:url(#clip-path-45);}.cls-32{clip-path:url(#clip-path-47);}.cls-33{clip-path:url(#clip-path-49);}.cls-34{clip-path:url(#clip-path-51);}.cls-35{clip-path:url(#clip-path-53);}.cls-36{clip-path:url(#clip-path-55);}.cls-37{clip-path:url(#clip-path-57);}.cls-38{fill:#365e80;}.cls-40{clip-path:url(#clip-path-60);}.cls-41{clip-path:url(#clip-path-63);}.cls-42{clip-path:url(#clip-path-66);}.cls-43{clip-path:url(#clip-path-69);}</style><clipPath id="clip-path" transform="translate(-8.11 -7.12)"><path class="cls-1" d="M78.22,196.1a3.11,3.11,0,1,1-3.11,3.11A3.11,3.11,0,0,1,78.22,196.1Zm7.25,27H37.82V208.54H85.47v14.51Zm0,16.59H37.82V225.12H85.47v14.51ZM35.74,189.88v51.83h51.8V189.88H35.74Z"/></clipPath><clipPath id="clip-path-2" transform="translate(-8.11 -7.12)"><rect class="cls-2" y="0.69" width="490" height="502"/></clipPath><clipPath id="clip-path-3" transform="translate(-8.11 -7.12)"><circle class="cls-2" cx="78.22" cy="215.79" r="3.11"/></clipPath><clipPath id="clip-path-5" transform="translate(-8.11 -7.12)"><circle class="cls-2" cx="78.22" cy="232.38" r="3.11"/></clipPath><clipPath id="clip-path-7" transform="translate(-8.11 -7.12)"><path class="cls-1" d="M61.65,228.47l12.54,21.75H49.1Zm0-1.89L47.47,251.17H75.82Z"/></clipPath><clipPath id="clip-path-9" transform="translate(-8.11 -7.12)"><path class="cls-1" d="M61.65,228.47l12.54,21.75H49.1Zm0-1.89L47.47,251.17H75.83Z"/></clipPath><clipPath id="clip-path-11" transform="translate(-8.11 -7.12)"><polygon class="cls-1" points="60.7 236.98 60.7 238.87 61.17 243.6 62.12 243.6 62.59 238.87 62.59 236.98 60.7 236.98"/></clipPath><clipPath id="clip-path-13" transform="translate(-8.11 -7.12)"><circle class="cls-2" cx="61.65" cy="245.49" r="0.95"/></clipPath><clipPath id="clip-path-15" transform="translate(-8.11 -7.12)"><polygon class="cls-1" points="61.65 228.47 74.19 250.22 49.1 250.22 61.65 228.47"/></clipPath><clipPath id="clip-path-22" transform="translate(-8.11 -7.12)"><polygon class="cls-1" points="401.47 218.39 382.05 252.05 343.19 252.05 323.77 218.39 343.19 184.72 382.05 184.72 401.47 218.39"/></clipPath><clipPath id="clip-path-25" transform="translate(-8.11 -7.12)"><polygon class="cls-1" points="268.34 45.78 248.91 79.45 210.06 79.45 190.63 45.78 210.06 12.12 248.91 12.12 268.34 45.78"/></clipPath><clipPath id="clip-path-28" transform="translate(-8.11 -7.12)"><polygon class="cls-1" points="268.34 426.24 248.91 459.9 210.06 459.9 190.63 426.24 210.06 392.57 248.91 392.57 268.34 426.24"/></clipPath><clipPath id="clip-path-31" transform="translate(-8.11 -7.12)"><polygon class="cls-1" points="480.21 218.39 460.79 252.05 421.94 252.05 402.51 218.39 421.94 184.72 460.79 184.72 480.21 218.39"/></clipPath><clipPath id="clip-path-34" transform="translate(-8.11 -7.12)"><path class="cls-1" d="M369.94,210.75a9.1,9.1,0,0,0,0-7.54l4.22-4.22a14.81,14.81,0,0,1,0,16Zm-0.88-.87a8.05,8.05,0,0,1-4.58,4.58,7.92,7.92,0,0,1-5.8,0A8,8,0,1,1,369.07,209.88Zm-7.48,12a14.81,14.81,0,0,1-8-2.34l4.22-4.22a9.08,9.08,0,0,0,7.54,0l4.22,4.22A14.81,14.81,0,0,1,361.58,221.9Zm-8.36-11.15L349,215a14.82,14.82,0,0,1,0-16l4.22,4.22A9.1,9.1,0,0,0,353.23,210.75Zm8.36-18.69a14.8,14.8,0,0,1,8,2.34l-4.22,4.22a9.08,9.08,0,0,0-7.54,0l-4.22-4.22A14.8,14.8,0,0,1,361.58,192.06Zm0-1.15A16.07,16.07,0,1,0,377.64,207,16.06,16.06,0,0,0,361.58,190.91Z"/></clipPath><clipPath id="clip-path-37" transform="translate(-8.11 -7.12)"><path class="cls-1" d="M245,55l-28.73-8.21V44.06L245,35.84V55Zm-18.79-3a1.11,1.11,0,0,1-1.11,1.11h-4.42a1.11,1.11,0,0,1-1.11-1.11V48.91l6.63,1.9v1.26Zm-9.95-9.16V42.12h-1.11V41h-2.21v8.85h2.21V48.75h1.11V48l2.21,0.63v3.48a2.21,2.21,0,0,0,2.21,2.21h4.42a2.21,2.21,0,0,0,2.21-2.21V51.12l18.79,5.37V34.38Z"/></clipPath><clipPath id="clip-path-39" transform="translate(-8.11 -7.12)"><path class="cls-1" d="M229.59,441.37a15,15,0,1,1,15-15A15.07,15.07,0,0,1,229.59,441.37Zm-0.1-31.72a16.59,16.59,0,1,0,16.58,16.59A16.59,16.59,0,0,0,229.49,409.65Zm-1.66,11.64,0.83,8.26h1.66l0.83-8.26V418h-3.32v3.32Zm1.66,9.89a1.66,1.66,0,0,0,0,3.32,1.64,1.64,0,0,0,1.66-1.66A1.69,1.69,0,0,0,229.49,431.18Z"/></clipPath><clipPath id="clip-path-42" transform="translate(-8.11 -7.12)"><rect class="cls-2" x="425.3" y="192.06" width="30.96" height="30.3"/></clipPath><clipPath id="clip-path-44" transform="translate(-8.11 -7.12)"><rect class="cls-2" x="425" y="191.69" width="32" height="31"/></clipPath><clipPath id="clip-path-45" transform="translate(-8.11 -7.12)"><path class="cls-1" d="M442.93,222.36h8.59a0.45,0.45,0,0,0,.39-0.22l4.29-7.35a0.45,0.45,0,0,0,0-.46L452,207.21l4.16-7.12a0.45,0.45,0,0,0,0-.46l-4.29-7.35a0.45,0.45,0,0,0-.39-0.22h-8.59a0.45,0.45,0,0,0-.39.22l-4.16,7.13H430a0.45,0.45,0,0,0-.39.22L425.36,207a0.45,0.45,0,0,0,0,.46l4.29,7.35a0.45,0.45,0,0,0,.39.22h8.33l4.16,7.13A0.45,0.45,0,0,0,442.93,222.36Zm7.8-15.6h-7.54l-0.13-.23-3.63-6.22H447Zm-12.1,6.91-3.77-6.46,3.77-6.46,3.77,6.46Zm12.1-6L447,214.11h-7.54l3.63-6.22,0.13-.23h7.54Zm-20.43-7.35h7.54L434,207a0.45,0.45,0,0,0,0,.46l3.9,6.67h-7.54l-4-6.9Zm21.21,6-3.91-6.68a0.45,0.45,0,0,0-.39-0.22h-7.8l3.77-6.45h8.07l4,6.9Zm-8.33,15.14L439.42,215h7.8a0.45,0.45,0,0,0,.39-0.22l3.91-6.68,3.77,6.46-4,6.9h-8.07Z"/></clipPath><clipPath id="clip-path-47" transform="translate(-8.11 -7.12)"><rect class="cls-2" x="208.25" y="208.71" width="17.27" height="0.86"/></clipPath><clipPath id="clip-path-49" transform="translate(-8.11 -7.12)"><path class="cls-1" d="M224.65,207H209.11V188h15.54v19Zm-16.4-23.32v24.19h17.27V183.66H208.25Z"/></clipPath><clipPath id="clip-path-51" transform="translate(-8.11 -7.12)"><rect class="cls-2" x="211.7" y="195.75" width="10.36" height="0.86"/></clipPath><clipPath id="clip-path-53" transform="translate(-8.11 -7.12)"><rect class="cls-2" x="211.7" y="192.3" width="10.36" height="0.86"/></clipPath><clipPath id="clip-path-55" transform="translate(-8.11 -7.12)"><rect class="cls-2" x="211.7" y="199.21" width="10.36" height="0.86"/></clipPath><clipPath id="clip-path-57" transform="translate(-8.11 -7.12)"><polygon class="cls-1" points="54.26 160.75 55.06 159.95 58.62 163.51 59.75 163.51 63.31 159.95 64.11 160.75 59.18 165.68 54.26 160.75"/></clipPath><clipPath id="clip-path-60" transform="translate(-8.11 -7.12)"><polygon class="cls-1" points="395.26 309.06 396.06 309.85 399.61 306.3 400.74 306.3 404.3 309.86 405.1 309.06 400.18 304.13 395.26 309.06"/></clipPath><clipPath id="clip-path-63" transform="translate(-8.11 -7.12)"><polygon class="cls-1" points="288.32 55.44 289.12 54.65 285.56 51.09 285.56 49.95 289.12 46.4 288.32 45.6 283.4 50.52 288.32 55.44"/></clipPath><clipPath id="clip-path-66" transform="translate(-8.11 -7.12)"><polygon class="cls-1" points="170.5 430.9 169.7 430.1 173.25 426.54 173.25 425.41 169.7 421.85 170.5 421.05 175.42 425.98 170.5 430.9"/></clipPath><clipPath id="clip-path-69" transform="translate(-8.11 -7.12)"><polygon class="cls-1" points="315.24 223.57 314.44 222.77 318 219.21 318 218.08 314.44 214.52 315.24 213.72 320.17 218.65 315.24 223.57"/></clipPath></defs><title>bluemix-support-incident-report</title><g class="cls-4"><g class="cls-5"><rect class="cls-6" x="22.63" y="177.76" width="61.8" height="61.83"/></g></g><g class="cls-7"><g class="cls-5"><rect class="cls-6" x="62" y="200.57" width="16.22" height="16.22"/></g></g><g class="cls-8"><g class="cls-5"><rect class="cls-6" x="62" y="217.16" width="16.22" height="16.22"/></g></g><g class="cls-9"><g class="cls-5"><rect class="cls-6" x="34.36" y="214.46" width="38.36" height="34.59"/></g></g><g class="cls-10"><g class="cls-5"><rect class="cls-6" x="34.36" y="214.46" width="38.36" height="34.59"/></g></g><g class="cls-11"><g class="cls-5"><rect class="cls-6" x="47.59" y="224.87" width="11.89" height="16.62"/></g></g><g class="cls-12"><g class="cls-5"><rect class="cls-6" x="47.59" y="232.43" width="11.89" height="11.89"/></g></g><g class="cls-13"><g class="cls-5"><rect class="cls-14" x="35.99" y="216.35" width="35.09" height="31.75"/></g></g><g class="cls-11"><g class="cls-5"><rect class="cls-6" x="47.59" y="224.87" width="11.89" height="16.62"/></g></g><g class="cls-12"><g class="cls-5"><rect class="cls-6" x="47.59" y="232.43" width="11.89" height="11.89"/></g></g><g class="cls-5"><ellipse class="cls-15" cx="392.84" cy="210.23" rx="54.39" ry="54.42"/></g><g class="cls-16"><g class="cls-5"><rect class="cls-14" x="310.66" y="172.6" width="87.7" height="77.33"/></g></g><g class="cls-5"><polygon class="cls-17" points="393.36 211.27 373.94 244.94 335.08 244.94 315.66 211.27 335.08 177.6 373.94 177.6 393.36 211.27"/></g><g class="cls-18"><g class="cls-5"><rect class="cls-14" x="177.52" width="87.7" height="77.33"/></g></g><g class="cls-5"><polygon class="cls-17" points="260.23 38.67 240.8 72.33 201.95 72.33 182.52 38.67 201.95 5 240.8 5 260.23 38.67"/></g><g class="cls-19"><g class="cls-5"><rect class="cls-14" x="177.52" y="380.46" width="87.7" height="77.33"/></g></g><g class="cls-5"><polygon class="cls-17" points="260.23 419.12 240.8 452.79 201.95 452.79 182.52 419.12 201.95 385.45 240.8 385.45 260.23 419.12"/></g><g class="cls-20"><g class="cls-5"><rect class="cls-14" x="389.4" y="172.6" width="87.7" height="77.33"/></g></g><g class="cls-5"><polygon class="cls-17" points="472.1 211.27 452.68 244.94 413.82 244.94 394.4 211.27 413.82 177.6 452.68 177.6 472.1 211.27"/><line class="cls-21" x1="104.89" y1="212.1" x2="312.1" y2="212.1"/><path class="cls-22" d="M133.24,230.93c2.72,0,4.1,2.15,4.1,4.49s-1.38,4.49-4.1,4.49-4.1-2.15-4.1-4.49S130.52,230.93,133.24,230.93Zm0,8c2.09,0,3-1.8,3-3.53s-0.88-3.53-3-3.53-3,1.8-3,3.53S131.15,238.94,133.24,238.94Z" transform="translate(-8.11 -7.12)"/><path class="cls-22" d="M138.39,233.49h1v0.84h0a2.08,2.08,0,0,1,2-1c1.91,0,2.85,1.51,2.85,3.26s-0.94,3.23-2.83,3.23a2.37,2.37,0,0,1-2-1h0v3.2h-1v-8.58Zm2.88,0.75c-1.38,0-1.9,1.19-1.9,2.34s0.55,2.35,2,2.35,1.86-1.19,1.86-2.4A2,2,0,0,0,141.27,234.25Z" transform="translate(-8.11 -7.12)"/><path class="cls-22" d="M146.64,233.49h1.24v0.9h-1.24v3.85c0,0.48.13,0.55,0.77,0.55h0.47v0.9H147.1c-1.06,0-1.48-.22-1.48-1.36v-3.95h-1.06v-0.9h1.06v-1.86h1v1.86Z" transform="translate(-8.11 -7.12)"/><path class="cls-22" d="M149.91,232.38h-1v-1.25h1v1.25Zm-1,1.12h1v6.2h-1v-6.2Z" transform="translate(-8.11 -7.12)"/><path class="cls-22" d="M154,233.35a3.25,3.25,0,1,1-3,3.25A2.94,2.94,0,0,1,154,233.35Zm0,5.59c1.07,0,1.93-.84,1.93-2.34s-0.86-2.35-1.93-2.35-1.93.85-1.93,2.35S152.9,238.94,154,238.94Z" transform="translate(-8.11 -7.12)"/><path class="cls-22" d="M158,233.49h1v1h0a2.15,2.15,0,0,1,2-1.13c1.63,0,2.14.94,2.14,2.27v4.08h-1v-4.2a1.16,1.16,0,0,0-1.26-1.25,1.74,1.74,0,0,0-1.83,1.94v3.5h-1v-6.2Z" transform="translate(-8.11 -7.12)"/><path class="cls-22" d="M169.92,239.67a1.43,1.43,0,0,1-.73.17,0.81,0.81,0,0,1-.86-1,2.71,2.71,0,0,1-2.18,1c-1.13,0-2.05-.49-2.05-1.74,0-1.4,1-1.72,2.1-1.91s2.09-.13,2.09-0.91a1.1,1.1,0,0,0-1.38-1c-0.86,0-1.5.26-1.55,1.18h-1c0.06-1.54,1.24-2.08,2.63-2.08,1.12,0,2.33.25,2.33,1.7v3.19c0,0.48,0,.7.32,0.7a1,1,0,0,0,.31-0.06v0.79Zm-1.65-3.18c-0.79.59-3.09,0-3.09,1.54a1,1,0,0,0,1.2.91,1.65,1.65,0,0,0,1.9-1.4v-1Z" transform="translate(-8.11 -7.12)"/><path class="cls-22" d="M170.88,231.13h1v8.56h-1v-8.56Z" transform="translate(-8.11 -7.12)"/><path class="cls-22" d="M174.87,234.82h-1.33v-1.33h1.33v1.33Zm-1.33,3.54h1.33v1.33h-1.33v-1.33Z" transform="translate(-8.11 -7.12)"/><path class="cls-22" d="M185.54,233.71a2.26,2.26,0,0,0-2.4-1.82c-2,0-2.9,1.68-2.9,3.47,0,2,.86,3.59,2.91,3.59a2.42,2.42,0,0,0,2.47-2.47h1.14a3.48,3.48,0,0,1-3.71,3.43c-2.65,0-4-2-4-4.46s1.42-4.51,4.05-4.51a3.27,3.27,0,0,1,3.53,2.78h-1.14Z" transform="translate(-8.11 -7.12)"/><path class="cls-22" d="M192.89,239.69h-1v-1h0a2.15,2.15,0,0,1-2,1.13c-1.63,0-2.13-.94-2.13-2.27v-4.08h1v4.2a1.16,1.16,0,0,0,1.26,1.25,1.74,1.74,0,0,0,1.83-1.94v-3.5h1v6.2Z" transform="translate(-8.11 -7.12)"/><path class="cls-22" d="M194.86,237.74c0,0.91.84,1.2,1.67,1.2,0.64,0,1.5-.14,1.5-0.92,0-1.6-4.05-.52-4.05-2.9,0-1.25,1.22-1.76,2.31-1.76,1.39,0,2.45.43,2.54,1.94h-1a1.25,1.25,0,0,0-1.44-1c-0.61,0-1.32.17-1.32,0.79s1.08,0.86,2,1.08,2,0.58,2,1.76c0,1.49-1.38,2-2.64,2s-2.57-.56-2.63-2.1h1Z" transform="translate(-8.11 -7.12)"/><path class="cls-22" d="M201.49,233.49h1.24v0.9h-1.24v3.85c0,0.48.13,0.55,0.77,0.55h0.47v0.9h-0.78c-1.06,0-1.48-.22-1.48-1.36v-3.95h-1.06v-0.9h1.06v-1.86h1v1.86Z" transform="translate(-8.11 -7.12)"/><path class="cls-22" d="M206.09,233.35a3.25,3.25,0,1,1-3,3.25A2.94,2.94,0,0,1,206.09,233.35Zm0,5.59c1.07,0,1.93-.84,1.93-2.34s-0.86-2.35-1.93-2.35-1.93.85-1.93,2.35S205,238.94,206.09,238.94Z" transform="translate(-8.11 -7.12)"/><path class="cls-22" d="M210.14,233.49h1v0.91h0a2.25,2.25,0,0,1,2-1.06,1.62,1.62,0,0,1,1.7,1.06,2.25,2.25,0,0,1,1.94-1.06c1.24,0,2.06.52,2.06,1.8v4.55h-1v-4.07a1.12,1.12,0,0,0-1.2-1.38,1.5,1.5,0,0,0-1.62,1.58v3.86h-1v-4.07a1.12,1.12,0,0,0-1.16-1.38,1.67,1.67,0,0,0-1.65,1.58v3.86h-1v-6.2Z" transform="translate(-8.11 -7.12)"/><path class="cls-22" d="M225.42,237.73a2.48,2.48,0,0,1-2.65,2.11c-2,0-2.91-1.38-3-3.26a3,3,0,0,1,2.91-3.23c2.19,0,2.87,2.05,2.81,3.55h-4.64a1.83,1.83,0,0,0,1.93,2,1.48,1.48,0,0,0,1.61-1.21h1Zm-1-1.73a1.78,1.78,0,0,0-1.79-1.75,1.76,1.76,0,0,0-1.77,1.75h3.56Z" transform="translate(-8.11 -7.12)"/><path class="cls-22" d="M226.54,233.49h1v1.31h0a2.24,2.24,0,0,1,2.28-1.45v1.08c-1.64,0-2.24.92-2.24,2.51v2.76h-1v-6.2Z" transform="translate(-8.11 -7.12)"/><path class="cls-22" d="M236,233.35a3.25,3.25,0,1,1-3,3.25A2.94,2.94,0,0,1,236,233.35Zm0,5.59c1.07,0,1.93-.84,1.93-2.34s-0.86-2.35-1.93-2.35-1.93.85-1.93,2.35S235,238.94,236,238.94Z" transform="translate(-8.11 -7.12)"/><path class="cls-22" d="M240.05,233.49h1v0.84h0a2.08,2.08,0,0,1,2-1c1.91,0,2.85,1.51,2.85,3.26s-0.94,3.23-2.83,3.23a2.37,2.37,0,0,1-2-1h0v3.2h-1v-8.58Zm2.88,0.75c-1.38,0-1.89,1.19-1.89,2.34s0.55,2.35,2,2.35,1.86-1.19,1.86-2.4A2,2,0,0,0,242.93,234.25Z" transform="translate(-8.11 -7.12)"/><path class="cls-22" d="M252.34,237.73a2.48,2.48,0,0,1-2.65,2.11c-2,0-2.91-1.38-3-3.26a3,3,0,0,1,2.91-3.23c2.19,0,2.87,2.05,2.81,3.55h-4.64a1.83,1.83,0,0,0,1.93,2,1.48,1.48,0,0,0,1.61-1.21h1Zm-1-1.73a1.78,1.78,0,0,0-1.79-1.75,1.76,1.76,0,0,0-1.77,1.75h3.56Z" transform="translate(-8.11 -7.12)"/><path class="cls-22" d="M253.45,233.49h1v1h0a2.15,2.15,0,0,1,2-1.13c1.63,0,2.14.94,2.14,2.27v4.08h-1v-4.2a1.16,1.16,0,0,0-1.26-1.25,1.74,1.74,0,0,0-1.83,1.94v3.5h-1v-6.2Z" transform="translate(-8.11 -7.12)"/><path class="cls-22" d="M260.56,237.74c0,0.91.84,1.2,1.67,1.2,0.64,0,1.5-.14,1.5-0.92,0-1.6-4.05-.52-4.05-2.9,0-1.25,1.22-1.76,2.31-1.76,1.39,0,2.45.43,2.54,1.94h-1a1.25,1.25,0,0,0-1.44-1c-0.61,0-1.32.17-1.32,0.79s1.08,0.86,2,1.08,2,0.58,2,1.76c0,1.49-1.38,2-2.64,2s-2.57-.56-2.63-2.1h1Z" transform="translate(-8.11 -7.12)"/><path class="cls-22" d="M274.15,239.67a1.43,1.43,0,0,1-.73.17,0.81,0.81,0,0,1-.86-1,2.71,2.71,0,0,1-2.18,1c-1.13,0-2.05-.49-2.05-1.74,0-1.4,1-1.72,2.1-1.91s2.09-.13,2.09-0.91a1.1,1.1,0,0,0-1.38-1c-0.86,0-1.5.26-1.55,1.18h-1c0.06-1.54,1.24-2.08,2.63-2.08,1.12,0,2.33.25,2.33,1.7v3.19c0,0.48,0,.7.32,0.7a1,1,0,0,0,.31-0.06v0.79Zm-1.66-3.18c-0.79.59-3.09,0-3.09,1.54a1,1,0,0,0,1.2.91,1.65,1.65,0,0,0,1.89-1.4v-1Z" transform="translate(-8.11 -7.12)"/><path class="cls-22" d="M279.31,233.49h1.24v0.9h-1.24v3.85c0,0.48.13,0.55,0.77,0.55h0.47v0.9h-0.78c-1.06,0-1.48-.22-1.48-1.36v-3.95h-1.06v-0.9h1.06v-1.86h1v1.86Z" transform="translate(-8.11 -7.12)"/><path class="cls-22" d="M282.58,232.38h-1v-1.25h1v1.25Zm-1,1.12h1v6.2h-1v-6.2Z" transform="translate(-8.11 -7.12)"/><path class="cls-22" d="M288.17,235.48a1.44,1.44,0,0,0-1.54-1.24c-1.48,0-1.93,1.18-1.93,2.42s0.52,2.27,1.81,2.27a1.59,1.59,0,0,0,1.7-1.51h1a2.56,2.56,0,0,1-2.73,2.41c-1.9,0-2.9-1.31-2.9-3.17s1-3.32,2.93-3.32a2.38,2.38,0,0,1,2.67,2.13h-1.06Z" transform="translate(-8.11 -7.12)"/><path class="cls-22" d="M290.34,231.13h1v5.07l2.83-2.71h1.37l-2.46,2.25,2.64,3.95h-1.29l-2.12-3.24-1,.89v2.35h-1v-8.56Z" transform="translate(-8.11 -7.12)"/><path class="cls-22" d="M301.24,237.73a2.48,2.48,0,0,1-2.65,2.11c-2,0-2.91-1.38-3-3.26a3,3,0,0,1,2.91-3.23c2.19,0,2.87,2.05,2.81,3.55h-4.64a1.83,1.83,0,0,0,1.93,2,1.48,1.48,0,0,0,1.61-1.21h1Zm-1-1.73a1.78,1.78,0,0,0-1.79-1.75,1.76,1.76,0,0,0-1.77,1.75h3.56Z" transform="translate(-8.11 -7.12)"/><path class="cls-22" d="M303.72,233.49H305v0.9h-1.24v3.85c0,0.48.13,0.55,0.77,0.55H305v0.9h-0.78c-1.06,0-1.48-.22-1.48-1.36v-3.95h-1.06v-0.9h1.06v-1.86h1v1.86Z" transform="translate(-8.11 -7.12)"/><path class="cls-22" d="M20.36,276.8H21.5v8.56H20.36V276.8Z" transform="translate(-8.11 -7.12)"/><path class="cls-22" d="M23,279.17h1v1h0A2.15,2.15,0,0,1,26,279c1.63,0,2.14.94,2.14,2.27v4.08h-1v-4.2a1.16,1.16,0,0,0-1.26-1.25A1.74,1.74,0,0,0,24,281.86v3.5H23v-6.2Z" transform="translate(-8.11 -7.12)"/><path class="cls-22" d="M33.64,281.16a1.44,1.44,0,0,0-1.54-1.24c-1.48,0-1.93,1.18-1.93,2.42s0.52,2.27,1.81,2.27a1.59,1.59,0,0,0,1.7-1.51h1A2.56,2.56,0,0,1,32,285.51c-1.9,0-2.9-1.31-2.9-3.17S30.05,279,32,279a2.38,2.38,0,0,1,2.67,2.13H33.64Z" transform="translate(-8.11 -7.12)"/><path class="cls-22" d="M36.78,278h-1V276.8h1V278Zm-1,1.12h1v6.2h-1v-6.2Z" transform="translate(-8.11 -7.12)"/><path class="cls-22" d="M43.71,285.37h-1v-0.84h0a2.08,2.08,0,0,1-2,1c-1.91,0-2.85-1.51-2.85-3.26S38.76,279,40.66,279a2.38,2.38,0,0,1,2,1h0V276.8h1v8.56Zm-2.88-.76c1.38,0,1.9-1.19,1.9-2.34s-0.55-2.35-2-2.35-1.86,1.19-1.86,2.4A2,2,0,0,0,40.83,284.61Z" transform="translate(-8.11 -7.12)"/><path class="cls-22" d="M50.33,283.4a2.48,2.48,0,0,1-2.65,2.11c-2,0-2.91-1.38-3-3.26A3,3,0,0,1,47.62,279c2.19,0,2.87,2.05,2.81,3.55H45.78a1.83,1.83,0,0,0,1.93,2,1.48,1.48,0,0,0,1.61-1.21h1Zm-1-1.73a1.78,1.78,0,0,0-1.79-1.75,1.76,1.76,0,0,0-1.77,1.75h3.56Z" transform="translate(-8.11 -7.12)"/><path class="cls-22" d="M51.45,279.17h1v1h0a2.15,2.15,0,0,1,2-1.13c1.63,0,2.14.94,2.14,2.27v4.08h-1v-4.2a1.16,1.16,0,0,0-1.26-1.25,1.74,1.74,0,0,0-1.83,1.94v3.5h-1v-6.2Z" transform="translate(-8.11 -7.12)"/><path class="cls-22" d="M59.16,279.17H60.4v0.9H59.16v3.85c0,0.48.13,0.55,0.77,0.55H60.4v0.9H59.62c-1.06,0-1.48-.22-1.48-1.36v-3.95H57.09v-0.9h1.06v-1.86h1v1.86Z" transform="translate(-8.11 -7.12)"/><path class="cls-22" d="M69.85,285.37h-1v-0.84h0a2.08,2.08,0,0,1-2,1c-1.91,0-2.85-1.51-2.85-3.26S64.91,279,66.81,279a2.38,2.38,0,0,1,2,1h0V276.8h1v8.56ZM67,284.61c1.38,0,1.9-1.19,1.9-2.34s-0.55-2.35-2-2.35-1.86,1.19-1.86,2.4A2,2,0,0,0,67,284.61Z" transform="translate(-8.11 -7.12)"/><path class="cls-22" d="M76.48,283.4a2.48,2.48,0,0,1-2.65,2.11c-2,0-2.91-1.38-3-3.26A3,3,0,0,1,73.77,279c2.19,0,2.87,2.05,2.81,3.55H71.93a1.83,1.83,0,0,0,1.93,2,1.48,1.48,0,0,0,1.61-1.21h1Zm-1-1.73a1.78,1.78,0,0,0-1.79-1.75,1.76,1.76,0,0,0-1.77,1.75h3.56Z" transform="translate(-8.11 -7.12)"/><path class="cls-22" d="M79,279.17H80.2v0.9H79v3.85c0,0.48.13,0.55,0.77,0.55H80.2v0.9H79.42c-1.06,0-1.48-.22-1.48-1.36v-3.95H76.89v-0.9h1.06v-1.86h1v1.86Z" transform="translate(-8.11 -7.12)"/><path class="cls-22" d="M86.15,283.4a2.48,2.48,0,0,1-2.65,2.11c-2,0-2.91-1.38-3-3.26A3,3,0,0,1,83.44,279c2.19,0,2.87,2.05,2.81,3.55H81.6a1.83,1.83,0,0,0,1.93,2,1.48,1.48,0,0,0,1.61-1.21h1Zm-1-1.73a1.78,1.78,0,0,0-1.79-1.75,1.76,1.76,0,0,0-1.77,1.75h3.56Z" transform="translate(-8.11 -7.12)"/><path class="cls-22" d="M91.61,281.16a1.44,1.44,0,0,0-1.54-1.24c-1.48,0-1.93,1.18-1.93,2.42s0.52,2.27,1.81,2.27a1.59,1.59,0,0,0,1.7-1.51h1A2.56,2.56,0,0,1,90,285.51c-1.9,0-2.9-1.31-2.9-3.17S88,279,90,279a2.38,2.38,0,0,1,2.67,2.13H91.61Z" transform="translate(-8.11 -7.12)"/><path class="cls-22" d="M95.19,279.17h1.24v0.9H95.19v3.85c0,0.48.13,0.55,0.77,0.55h0.47v0.9H95.64c-1.06,0-1.48-.22-1.48-1.36v-3.95H93.11v-0.9h1.06v-1.86h1v1.86Z" transform="translate(-8.11 -7.12)"/><path class="cls-22" d="M102.37,283.4a2.48,2.48,0,0,1-2.65,2.11c-2,0-2.91-1.38-3-3.26A3,3,0,0,1,99.66,279c2.19,0,2.87,2.05,2.81,3.55H97.83a1.83,1.83,0,0,0,1.93,2,1.48,1.48,0,0,0,1.61-1.21h1Zm-1-1.73a1.78,1.78,0,0,0-1.79-1.75,1.76,1.76,0,0,0-1.77,1.75h3.56Z" transform="translate(-8.11 -7.12)"/><path class="cls-22" d="M109.17,285.37h-1v-0.84h0a2.08,2.08,0,0,1-2,1c-1.91,0-2.85-1.51-2.85-3.26s0.94-3.23,2.83-3.23a2.38,2.38,0,0,1,2,1h0V276.8h1v8.56Zm-2.88-.76c1.38,0,1.9-1.19,1.9-2.34s-0.55-2.35-2-2.35-1.86,1.19-1.86,2.4A2,2,0,0,0,106.29,284.61Z" transform="translate(-8.11 -7.12)"/><path class="cls-22" d="M114.35,278h-1V276.8h1V278Zm-1,1.12h1v6.2h-1v-6.2Z" transform="translate(-8.11 -7.12)"/><path class="cls-22" d="M115.66,279.17h1v1h0a2.15,2.15,0,0,1,2-1.13c1.63,0,2.14.94,2.14,2.27v4.08h-1v-4.2a1.16,1.16,0,0,0-1.26-1.25,1.74,1.74,0,0,0-1.83,1.94v3.5h-1v-6.2Z" transform="translate(-8.11 -7.12)"/><path class="cls-22" d="M17.43,298.16a1.44,1.44,0,0,0-1.54-1.24c-1.48,0-1.93,1.18-1.93,2.42s0.52,2.27,1.81,2.27a1.59,1.59,0,0,0,1.7-1.51h1a2.56,2.56,0,0,1-2.73,2.41c-1.9,0-2.9-1.31-2.9-3.17s1-3.32,2.93-3.32a2.38,2.38,0,0,1,2.67,2.13H17.43Z" transform="translate(-8.11 -7.12)"/><path class="cls-22" d="M24.67,302.37h-1v-1h0a2.15,2.15,0,0,1-2,1.13c-1.63,0-2.13-.94-2.13-2.27v-4.08h1v4.2a1.16,1.16,0,0,0,1.26,1.25,1.74,1.74,0,0,0,1.83-1.94v-3.5h1v6.2Z" transform="translate(-8.11 -7.12)"/><path class="cls-22" d="M26.64,300.41c0,0.91.84,1.2,1.67,1.2,0.64,0,1.5-.14,1.5-0.92,0-1.6-4.05-.52-4.05-2.9,0-1.25,1.22-1.76,2.31-1.76,1.39,0,2.45.43,2.54,1.94h-1a1.25,1.25,0,0,0-1.44-1c-0.61,0-1.32.17-1.32,0.79s1.08,0.86,2,1.08,2,0.58,2,1.76c0,1.49-1.38,2-2.64,2s-2.57-.56-2.63-2.1h1Z" transform="translate(-8.11 -7.12)"/><path class="cls-22" d="M33.27,296.17h1.24v0.9H33.27v3.85c0,0.48.13,0.55,0.77,0.55h0.47v0.9H33.73c-1.06,0-1.48-.22-1.48-1.36v-3.95H31.2v-0.9h1.06v-1.86h1v1.86Z" transform="translate(-8.11 -7.12)"/><path class="cls-22" d="M37.87,296a3.25,3.25,0,1,1-3,3.25A2.94,2.94,0,0,1,37.87,296Zm0,5.59c1.07,0,1.93-.84,1.93-2.34s-0.86-2.35-1.93-2.35-1.93.85-1.93,2.35S36.8,301.61,37.87,301.61Z" transform="translate(-8.11 -7.12)"/><path class="cls-22" d="M41.92,296.17h1v0.91h0a2.25,2.25,0,0,1,2-1.06,1.62,1.62,0,0,1,1.7,1.06A2.25,2.25,0,0,1,48.55,296c1.24,0,2.06.52,2.06,1.8v4.55h-1V298.3a1.12,1.12,0,0,0-1.2-1.38,1.5,1.5,0,0,0-1.62,1.58v3.86h-1V298.3a1.12,1.12,0,0,0-1.16-1.38,1.67,1.67,0,0,0-1.65,1.58v3.86h-1v-6.2Z" transform="translate(-8.11 -7.12)"/><path class="cls-22" d="M57.2,300.4a2.48,2.48,0,0,1-2.65,2.11c-2,0-2.91-1.38-3-3.26A3,3,0,0,1,54.49,296c2.19,0,2.87,2.05,2.81,3.55H52.65a1.83,1.83,0,0,0,1.93,2,1.48,1.48,0,0,0,1.61-1.21h1Zm-1-1.73a1.78,1.78,0,0,0-1.79-1.75,1.76,1.76,0,0,0-1.77,1.75h3.56Z" transform="translate(-8.11 -7.12)"/><path class="cls-22" d="M58.32,296.17h1v1.31h0A2.24,2.24,0,0,1,61.58,296v1.08c-1.64,0-2.24.92-2.24,2.51v2.76h-1v-6.2Z" transform="translate(-8.11 -7.12)"/><path class="cls-22" d="M70.39,300.4a2.48,2.48,0,0,1-2.65,2.11c-2,0-2.91-1.38-3-3.26A3,3,0,0,1,67.68,296c2.19,0,2.87,2.05,2.81,3.55H65.84a1.83,1.83,0,0,0,1.93,2,1.48,1.48,0,0,0,1.61-1.21h1Zm-1-1.73a1.78,1.78,0,0,0-1.79-1.75,1.76,1.76,0,0,0-1.77,1.75H69.4Z" transform="translate(-8.11 -7.12)"/><path class="cls-22" d="M71.51,296.17h1v1h0a2.15,2.15,0,0,1,2-1.13c1.63,0,2.14.94,2.14,2.27v4.08h-1v-4.2a1.16,1.16,0,0,0-1.26-1.25,1.74,1.74,0,0,0-1.83,1.94v3.5h-1v-6.2Z" transform="translate(-8.11 -7.12)"/><path class="cls-22" d="M80.47,302.37H79.38l-2.3-6.2h1.14L80,301.33h0l1.69-5.17h1.07Z" transform="translate(-8.11 -7.12)"/><path class="cls-22" d="M84.51,295h-1V293.8h1V295Zm-1,1.12h1v6.2h-1v-6.2Z" transform="translate(-8.11 -7.12)"/><path class="cls-22" d="M85.82,296.17h1v1.31h0A2.24,2.24,0,0,1,89.09,296v1.08c-1.64,0-2.24.92-2.24,2.51v2.76h-1v-6.2Z" transform="translate(-8.11 -7.12)"/><path class="cls-22" d="M92.29,296a3.25,3.25,0,1,1-3,3.25A2.94,2.94,0,0,1,92.29,296Zm0,5.59c1.07,0,1.93-.84,1.93-2.34s-0.86-2.35-1.93-2.35-1.93.85-1.93,2.35S91.22,301.61,92.29,301.61Z" transform="translate(-8.11 -7.12)"/><path class="cls-22" d="M96.31,296.17h1v1h0a2.15,2.15,0,0,1,2-1.13c1.63,0,2.14.94,2.14,2.27v4.08h-1v-4.2a1.16,1.16,0,0,0-1.26-1.25,1.74,1.74,0,0,0-1.83,1.94v3.5h-1v-6.2Z" transform="translate(-8.11 -7.12)"/><path class="cls-22" d="M102.74,296.17h1v0.91h0a2.25,2.25,0,0,1,2-1.06,1.62,1.62,0,0,1,1.7,1.06,2.25,2.25,0,0,1,1.94-1.06c1.24,0,2.06.52,2.06,1.8v4.55h-1V298.3a1.12,1.12,0,0,0-1.2-1.38,1.5,1.5,0,0,0-1.62,1.58v3.86h-1V298.3a1.12,1.12,0,0,0-1.16-1.38,1.67,1.67,0,0,0-1.65,1.58v3.86h-1v-6.2Z" transform="translate(-8.11 -7.12)"/><path class="cls-22" d="M118,300.4a2.48,2.48,0,0,1-2.65,2.11c-2,0-2.91-1.38-3-3.26a3,3,0,0,1,2.91-3.23c2.19,0,2.87,2.05,2.81,3.55h-4.64a1.83,1.83,0,0,0,1.93,2A1.48,1.48,0,0,0,117,300.4h1Zm-1-1.73a1.78,1.78,0,0,0-1.79-1.75,1.76,1.76,0,0,0-1.77,1.75H117Z" transform="translate(-8.11 -7.12)"/><path class="cls-22" d="M119.15,296.17h1v1h0a2.15,2.15,0,0,1,2-1.13c1.63,0,2.14.94,2.14,2.27v4.08h-1v-4.2a1.16,1.16,0,0,0-1.26-1.25,1.74,1.74,0,0,0-1.83,1.94v3.5h-1v-6.2Z" transform="translate(-8.11 -7.12)"/><path class="cls-22" d="M126.85,296.17h1.24v0.9h-1.24v3.85c0,0.48.13,0.55,0.77,0.55h0.47v0.9h-0.78c-1.06,0-1.48-.22-1.48-1.36v-3.95h-1.06v-0.9h1.06v-1.86h1v1.86Z" transform="translate(-8.11 -7.12)"/><path class="cls-22" d="M356.16,286.24a2.63,2.63,0,0,1,2.73-3,2.42,2.42,0,0,1,2.66,2.45c0,1.5-1,2.24-2.06,2.91s-2.19,1.2-2.39,2.24h4.37v0.9h-5.55a4,4,0,0,1,2.39-3.48c1.44-.9,2.17-1.4,2.17-2.59a1.55,1.55,0,0,0-1.64-1.54,1.8,1.8,0,0,0-1.66,2.11h-1Z" transform="translate(-8.11 -7.12)"/><path class="cls-22" d="M366.63,288.84h1.15v0.9h-1.15v2h-1v-2h-3.73v-1l3.87-5.53h0.82v5.61Zm-1,0v-4.16h0l-2.83,4.16h2.85Z" transform="translate(-8.11 -7.12)"/><path class="cls-22" d="M371.46,283h0.88l-3.55,9H367.9Z" transform="translate(-8.11 -7.12)"/><path class="cls-22" d="M377.67,284.25a12.59,12.59,0,0,0-3.26,7.48h-1.14a12.15,12.15,0,0,1,3.36-7.4h-4.46v-1h5.5v0.88Z" transform="translate(-8.11 -7.12)"/><path class="cls-22" d="M385.46,287.52a1.44,1.44,0,0,0-1.54-1.24c-1.48,0-1.93,1.18-1.93,2.42s0.52,2.27,1.81,2.27a1.59,1.59,0,0,0,1.7-1.51h1a2.56,2.56,0,0,1-2.73,2.41c-1.89,0-2.9-1.31-2.9-3.17s1-3.32,2.93-3.32a2.38,2.38,0,0,1,2.67,2.13h-1.05Z" transform="translate(-8.11 -7.12)"/><path class="cls-22" d="M390.27,285.39a3.25,3.25,0,1,1-3,3.25A2.94,2.94,0,0,1,390.27,285.39Zm0,5.59c1.07,0,1.93-.84,1.93-2.34s-0.86-2.35-1.93-2.35-1.93.85-1.93,2.35S389.2,291,390.27,291Z" transform="translate(-8.11 -7.12)"/><path class="cls-22" d="M394.33,283.17h1v8.56h-1v-8.56Z" transform="translate(-8.11 -7.12)"/><path class="cls-22" d="M396.69,283.17h1v8.56h-1v-8.56Z" transform="translate(-8.11 -7.12)"/><path class="cls-22" d="M404.55,291.71a1.43,1.43,0,0,1-.73.17,0.81,0.81,0,0,1-.86-1,2.71,2.71,0,0,1-2.18,1c-1.13,0-2.05-.49-2.05-1.74,0-1.4,1-1.72,2.1-1.91s2.09-.13,2.09-0.91a1.1,1.1,0,0,0-1.38-1c-0.86,0-1.5.26-1.55,1.18h-1c0.06-1.54,1.24-2.08,2.63-2.08,1.12,0,2.33.25,2.33,1.7v3.19c0,0.48,0,.7.32,0.7a1,1,0,0,0,.31-0.06v0.79Zm-1.65-3.18c-0.79.59-3.09,0-3.09,1.54a1,1,0,0,0,1.2.91,1.65,1.65,0,0,0,1.9-1.4v-1Z" transform="translate(-8.11 -7.12)"/><path class="cls-22" d="M405.49,283.17h1v3.2h0a2.08,2.08,0,0,1,2-1c1.91,0,2.85,1.51,2.85,3.26s-0.94,3.23-2.83,3.23a2.38,2.38,0,0,1-2-1h0v0.83h-1v-8.56Zm2.88,3.12c-1.38,0-1.89,1.19-1.89,2.34s0.55,2.35,2,2.35,1.86-1.19,1.86-2.4A2,2,0,0,0,408.37,286.29Z" transform="translate(-8.11 -7.12)"/><path class="cls-22" d="M415.19,285.39a3.25,3.25,0,1,1-3,3.25A2.94,2.94,0,0,1,415.19,285.39Zm0,5.59c1.07,0,1.93-.84,1.93-2.34s-0.86-2.35-1.93-2.35-1.93.85-1.93,2.35S414.13,291,415.19,291Z" transform="translate(-8.11 -7.12)"/><path class="cls-22" d="M419.22,285.53h1v1.31h0a2.24,2.24,0,0,1,2.28-1.45v1.08c-1.64,0-2.24.92-2.24,2.51v2.76h-1v-6.2Z" transform="translate(-8.11 -7.12)"/><path class="cls-22" d="M428.55,291.71a1.43,1.43,0,0,1-.73.17,0.81,0.81,0,0,1-.86-1,2.71,2.71,0,0,1-2.18,1c-1.13,0-2.05-.49-2.05-1.74,0-1.4,1-1.72,2.1-1.91s2.09-.13,2.09-0.91a1.1,1.1,0,0,0-1.38-1c-0.86,0-1.5.26-1.55,1.18h-1c0.06-1.54,1.24-2.08,2.63-2.08,1.12,0,2.33.25,2.33,1.7v3.19c0,0.48,0,.7.32,0.7a1,1,0,0,0,.31-0.06v0.79Zm-1.65-3.18c-0.79.59-3.09,0-3.09,1.54a1,1,0,0,0,1.2.91,1.65,1.65,0,0,0,1.9-1.4v-1Z" transform="translate(-8.11 -7.12)"/><path class="cls-22" d="M430.81,285.53H432v0.9h-1.24v3.85c0,0.48.13,0.55,0.77,0.55H432v0.9h-0.78c-1.05,0-1.47-.22-1.47-1.36v-3.95h-1.06v-0.9h1.06v-1.86h1v1.86Z" transform="translate(-8.11 -7.12)"/><path class="cls-22" d="M434.07,284.42h-1v-1.25h1v1.25Zm-1,1.12h1v6.2h-1v-6.2Z" transform="translate(-8.11 -7.12)"/><path class="cls-22" d="M438.13,285.39a3.25,3.25,0,1,1-3,3.25A2.94,2.94,0,0,1,438.13,285.39Zm0,5.59c1.07,0,1.93-.84,1.93-2.34s-0.86-2.35-1.93-2.35-1.93.85-1.93,2.35S437.06,291,438.13,291Z" transform="translate(-8.11 -7.12)"/><path class="cls-22" d="M442.15,285.53h1v1h0a2.15,2.15,0,0,1,2-1.13c1.63,0,2.13.94,2.13,2.27v4.08h-1v-4.2a1.16,1.16,0,0,0-1.26-1.25,1.74,1.74,0,0,0-1.83,1.94v3.5h-1v-6.2Z" transform="translate(-8.11 -7.12)"/><path class="cls-22" d="M427.16,229.45h2.69c1.09,0,1.82.35,1.82,1.42a1.24,1.24,0,0,1-.78,1.19,1.39,1.39,0,0,1,1,1.45,1.75,1.75,0,0,1-2,1.66h-2.77v-5.71Zm1.26,2.31h1.27a0.66,0.66,0,0,0,.77-0.68,0.69,0.69,0,0,0-.86-0.66h-1.17v1.33Zm0,2.42h1.34a0.79,0.79,0,1,0,0-1.57h-1.37v1.57Z" transform="translate(-8.11 -7.12)"/><path class="cls-22" d="M432.56,229.45h1.14v5.71h-1.14v-5.71Z" transform="translate(-8.11 -7.12)"/><path class="cls-22" d="M438.34,235.16h-1.08v-0.58h0a1.45,1.45,0,0,1-1.26.69c-1.21,0-1.51-.68-1.51-1.7V231h1.14v2.33c0,0.68.19,1,.73,1s0.88-.34.88-1.18V231h1.13v4.13Z" transform="translate(-8.11 -7.12)"/><path class="cls-22" d="M440,233.37a1,1,0,0,0,1.91.51h1a1.85,1.85,0,0,1-1.93,1.39,2,2,0,0,1-2.11-2.17,2.08,2.08,0,1,1,4.12.27h-3Zm1.85-.72a0.87,0.87,0,0,0-.9-0.88,0.89,0.89,0,0,0-.94.88h1.85Z" transform="translate(-8.11 -7.12)"/><path class="cls-22" d="M443.65,231h1.07v0.56h0a1.48,1.48,0,0,1,1.26-.67,1.21,1.21,0,0,1,1.21.69,1.51,1.51,0,0,1,1.25-.69,1.34,1.34,0,0,1,1.51,1.48v2.77h-1.14v-2.34c0-.55,0-1-0.7-1a0.84,0.84,0,0,0-.76,1v2.3h-1.14v-2.32c0-.48,0-1-0.69-1a0.82,0.82,0,0,0-.77,1v2.4h-1.13V231Z" transform="translate(-8.11 -7.12)"/><path class="cls-22" d="M451.9,230.39h-1.13v-0.94h1.13v0.94Zm-1.13.64h1.13v4.13h-1.13V231Z" transform="translate(-8.11 -7.12)"/><path class="cls-22" d="M453.73,233l-1.36-2h1.3l0.73,1.08,0.72-1.08h1.25L455,233l1.53,2.2h-1.29l-0.86-1.3-0.86,1.3h-1.27Z" transform="translate(-8.11 -7.12)"/><path class="cls-22" d="M425.36,239.32a3,3,0,1,1-2.73,3A2.74,2.74,0,0,1,425.36,239.32Zm0,5.34a2.39,2.39,0,1,0-2-2.35A2.08,2.08,0,0,0,425.36,244.66Z" transform="translate(-8.11 -7.12)"/><path class="cls-22" d="M428.8,241h0.68v0.56h0a1.38,1.38,0,0,1,1.32-.66,1.94,1.94,0,0,1,1.9,2.17,1.91,1.91,0,0,1-1.89,2.15,1.58,1.58,0,0,1-1.34-.65h0v2.13H428.8V241Zm1.92,0.5a1.6,1.6,0,1,0,1.28,1.53A1.34,1.34,0,0,0,430.72,241.53Z" transform="translate(-8.11 -7.12)"/><path class="cls-22" d="M437,243.85a1.66,1.66,0,0,1-1.77,1.41,2,2,0,0,1-2-2.17,2,2,0,0,1,1.94-2.15,2,2,0,0,1,1.87,2.37H434a1.22,1.22,0,0,0,1.29,1.36,1,1,0,0,0,1.07-.81H437Zm-0.66-1.15a1.19,1.19,0,0,0-1.19-1.17A1.17,1.17,0,0,0,434,242.7h2.37Z" transform="translate(-8.11 -7.12)"/><path class="cls-22" d="M437.73,241h0.64v0.87h0a1.49,1.49,0,0,1,1.52-1v0.72a1.39,1.39,0,0,0-1.5,1.67v1.84h-0.68V241Z" transform="translate(-8.11 -7.12)"/><path class="cls-22" d="M444,245.15a1,1,0,0,1-.49.11,0.54,0.54,0,0,1-.58-0.64,1.81,1.81,0,0,1-1.46.64,1.17,1.17,0,0,1-1.37-1.16c0-.94.7-1.14,1.4-1.27s1.39-.09,1.39-0.61a0.74,0.74,0,0,0-.92-0.69,0.84,0.84,0,0,0-1,.78h-0.68a1.48,1.48,0,0,1,1.75-1.38c0.74,0,1.55.17,1.55,1.13v2.13c0,0.32,0,.46.22,0.46a0.67,0.67,0,0,0,.21,0v0.53Zm-1.1-2.12c-0.53.39-2.06,0-2.06,1a0.67,0.67,0,0,0,.8.61,1.1,1.1,0,0,0,1.26-.94V243Z" transform="translate(-8.11 -7.12)"/><path class="cls-22" d="M445.46,241h0.82v0.6h-0.82v2.57c0,0.32.09,0.37,0.51,0.37h0.31v0.6h-0.52c-0.7,0-1-.14-1-0.9v-2.63h-0.7V241h0.7v-1.24h0.68V241Z" transform="translate(-8.11 -7.12)"/><path class="cls-22" d="M447.64,240.28H447v-0.83h0.68v0.83ZM447,241h0.68v4.13H447V241Z" transform="translate(-8.11 -7.12)"/><path class="cls-22" d="M450.34,240.93a2.17,2.17,0,1,1-2,2.17A2,2,0,0,1,450.34,240.93Zm0,3.73a1.59,1.59,0,1,0-1.29-1.56A1.36,1.36,0,0,0,450.34,244.66Z" transform="translate(-8.11 -7.12)"/><path class="cls-22" d="M453,241h0.64v0.66h0a1.43,1.43,0,0,1,1.34-.75,1.29,1.29,0,0,1,1.42,1.51v2.72h-0.68v-2.8a0.77,0.77,0,0,0-.84-0.83,1.16,1.16,0,0,0-1.22,1.29v2.33H453V241Z" transform="translate(-8.11 -7.12)"/><path class="cls-22" d="M457.76,243.86a0.93,0.93,0,0,0,1.11.8,0.81,0.81,0,0,0,1-.62c0-1.06-2.7-.34-2.7-1.94a1.34,1.34,0,0,1,1.54-1.17c0.93,0,1.63.29,1.7,1.29h-0.68a0.83,0.83,0,0,0-1-.7,0.72,0.72,0,0,0-.88.53c0,0.48.72,0.58,1.35,0.72s1.35,0.38,1.35,1.18c0,1-.92,1.3-1.76,1.3a1.49,1.49,0,0,1-1.75-1.4h0.68Z" transform="translate(-8.11 -7.12)"/><path class="cls-22" d="M348.11,229.21h2.69c1.09,0,1.82.35,1.82,1.42a1.24,1.24,0,0,1-.78,1.19,1.39,1.39,0,0,1,1,1.45,1.75,1.75,0,0,1-2,1.66h-2.77v-5.71Zm1.26,2.31h1.27a0.66,0.66,0,0,0,.77-0.68,0.69,0.69,0,0,0-.86-0.66h-1.17v1.33Zm0,2.42h1.34a0.79,0.79,0,1,0,0-1.57h-1.37v1.57Z" transform="translate(-8.11 -7.12)"/><path class="cls-22" d="M353.51,229.21h1.14v5.71h-1.14v-5.71Z" transform="translate(-8.11 -7.12)"/><path class="cls-22" d="M359.29,234.91h-1.08v-0.58h0a1.45,1.45,0,0,1-1.26.69c-1.21,0-1.51-.68-1.51-1.7v-2.54h1.14v2.33c0,0.68.19,1,.73,1s0.88-.34.88-1.18v-2.17h1.13v4.13Z" transform="translate(-8.11 -7.12)"/><path class="cls-22" d="M361,233.12a1,1,0,0,0,1.91.51h1A1.85,1.85,0,0,1,362,235a2,2,0,0,1-2.11-2.17,2.08,2.08,0,1,1,4.12.27h-3Zm1.85-.72a0.87,0.87,0,0,0-.9-0.88,0.89,0.89,0,0,0-.94.88h1.85Z" transform="translate(-8.11 -7.12)"/><path class="cls-22" d="M364.59,230.78h1.07v0.56h0a1.48,1.48,0,0,1,1.26-.67,1.21,1.21,0,0,1,1.21.69,1.51,1.51,0,0,1,1.25-.69,1.34,1.34,0,0,1,1.51,1.48v2.77h-1.14v-2.34c0-.55,0-1-0.7-1a0.84,0.84,0,0,0-.76,1v2.3h-1.14V232.6c0-.48,0-1-0.69-1a0.82,0.82,0,0,0-.77,1v2.4h-1.13v-4.13Z" transform="translate(-8.11 -7.12)"/><path class="cls-22" d="M372.85,230.14h-1.13v-0.94h1.13v0.94Zm-1.13.64h1.13v4.13h-1.13v-4.13Z" transform="translate(-8.11 -7.12)"/><path class="cls-22" d="M374.67,232.74l-1.36-2h1.3l0.73,1.08,0.72-1.08h1.25L376,232.72l1.53,2.2h-1.29l-0.86-1.3-0.86,1.3h-1.27Z" transform="translate(-8.11 -7.12)"/><path class="cls-22" d="M352.07,240.88a1.24,1.24,0,0,0-1.42-1.17,1.06,1.06,0,0,0-1.28,1c0,1.41,3.65.42,3.65,2.66,0,1.22-1.19,1.7-2.23,1.7-1.28,0-2.36-.63-2.36-2h0.72a1.45,1.45,0,0,0,1.66,1.38,1.19,1.19,0,0,0,1.45-1c0-1.57-3.65-.54-3.65-2.63a1.81,1.81,0,0,1,2.07-1.67,1.84,1.84,0,0,1,2.1,1.81h-0.72Z" transform="translate(-8.11 -7.12)"/><path class="cls-22" d="M357.11,244.91h-0.64v-0.66h0a1.43,1.43,0,0,1-1.34.75,1.29,1.29,0,0,1-1.42-1.51v-2.72h0.68v2.8a0.77,0.77,0,0,0,.84.83,1.16,1.16,0,0,0,1.22-1.29v-2.33h0.68v4.13Z" transform="translate(-8.11 -7.12)"/><path class="cls-22" d="M358,240.78h0.68v0.56h0a1.38,1.38,0,0,1,1.32-.66,1.94,1.94,0,0,1,1.9,2.17A1.91,1.91,0,0,1,360,245a1.58,1.58,0,0,1-1.34-.65h0v2.13H358v-5.72Zm1.92,0.5a1.6,1.6,0,1,0,1.28,1.53A1.34,1.34,0,0,0,359.89,241.28Z" transform="translate(-8.11 -7.12)"/><path class="cls-22" d="M362.57,240.78h0.68v0.56h0a1.38,1.38,0,0,1,1.32-.66,1.94,1.94,0,0,1,1.9,2.17A1.9,1.9,0,0,1,364.6,245a1.58,1.58,0,0,1-1.33-.65h0v2.13h-0.68v-5.72Zm1.92,0.5a1.6,1.6,0,1,0,1.28,1.53A1.34,1.34,0,0,0,364.49,241.28Z" transform="translate(-8.11 -7.12)"/><path class="cls-22" d="M369,240.69a2.17,2.17,0,1,1-2,2.17A2,2,0,0,1,369,240.69Zm0,3.73a1.59,1.59,0,1,0-1.29-1.56A1.36,1.36,0,0,0,369,244.41Z" transform="translate(-8.11 -7.12)"/><path class="cls-22" d="M371.71,240.78h0.64v0.87h0a1.49,1.49,0,0,1,1.52-1v0.72a1.39,1.39,0,0,0-1.5,1.67v1.84h-0.68v-4.13Z" transform="translate(-8.11 -7.12)"/><path class="cls-22" d="M375.77,240.78h0.82v0.6h-0.82v2.57c0,0.32.09,0.37,0.51,0.37h0.31v0.6h-0.52c-0.7,0-1-.14-1-0.9v-2.63h-0.7v-0.6h0.7v-1.24h0.68v1.24Z" transform="translate(-8.11 -7.12)"/></g><g class="cls-23"><g class="cls-5"><rect class="cls-6" x="332.42" y="178.8" width="42.12" height="42.14"/></g></g><g class="cls-5"><path class="cls-24" d="M288,425.2A112.45,112.45,0,0,0,400.44,312.72" transform="translate(-8.11 -7.12)"/><path class="cls-24" d="M403.29,162.67A112.45,112.45,0,0,0,290.87,50.19" transform="translate(-8.11 -7.12)"/><path class="cls-24" d="M54.49,313.35A112.45,112.45,0,0,0,166.9,425.83" transform="translate(-8.11 -7.12)"/><path class="cls-24" d="M171.47,45.26A112.45,112.45,0,0,0,59.06,157.74" transform="translate(-8.11 -7.12)"/><polygon class="cls-25" points="105.34 211.79 79.44 256.68 27.63 256.68 1.73 211.79 27.63 166.9 79.44 166.9 105.34 211.79"/><path class="cls-22" d="M162.41,96.42h3.11a5.16,5.16,0,0,1,2.27.31,2,2,0,0,1,1,1.79,2,2,0,0,1-1.27,1.92v0a2,2,0,0,1,1.63,2.06,2.44,2.44,0,0,1-2.6,2.46h-4.14V96.42Zm1.14,3.68h2.28c1.29,0,1.82-.46,1.82-1.37,0-1.2-.83-1.35-1.82-1.35h-2.28v2.72Zm0,3.92h2.85a1.46,1.46,0,0,0,1.61-1.54c0-1.12-.9-1.43-1.86-1.43h-2.6v3Z" transform="translate(-8.11 -7.12)"/><path class="cls-22" d="M170.24,96.42h1V105h-1V96.42Z" transform="translate(-8.11 -7.12)"/><path class="cls-22" d="M177.7,105h-1v-1h0a2.15,2.15,0,0,1-2,1.13c-1.63,0-2.13-.94-2.13-2.27V98.79h1V103a1.16,1.16,0,0,0,1.26,1.25,1.74,1.74,0,0,0,1.83-1.94v-3.5h1V105Z" transform="translate(-8.11 -7.12)"/><path class="cls-22" d="M184.32,103a2.48,2.48,0,0,1-2.65,2.11c-2,0-2.91-1.38-3-3.26a3,3,0,0,1,2.91-3.23c2.19,0,2.87,2.05,2.81,3.55h-4.64a1.83,1.83,0,0,0,1.93,2,1.48,1.48,0,0,0,1.61-1.21h1Zm-1-1.73a1.78,1.78,0,0,0-1.79-1.75,1.76,1.76,0,0,0-1.77,1.75h3.56Z" transform="translate(-8.11 -7.12)"/><path class="cls-22" d="M185.46,98.79h1V99.7h0a2.25,2.25,0,0,1,2-1.06,1.62,1.62,0,0,1,1.7,1.06,2.25,2.25,0,0,1,1.94-1.06c1.24,0,2.06.52,2.06,1.8V105h-1v-4.07a1.12,1.12,0,0,0-1.2-1.38,1.5,1.5,0,0,0-1.62,1.58V105h-1v-4.07a1.12,1.12,0,0,0-1.16-1.38,1.67,1.67,0,0,0-1.65,1.58V105h-1v-6.2Z" transform="translate(-8.11 -7.12)"/><path class="cls-22" d="M196.5,97.67h-1V96.42h1v1.25Zm-1,1.12h1V105h-1v-6.2Z" transform="translate(-8.11 -7.12)"/><path class="cls-22" d="M199.46,101.72l-2.16-2.94h1.31L200.1,101l1.55-2.17h1.22l-2.13,2.85,2.4,3.35h-1.31l-1.73-2.57L198.37,105h-1.24Z" transform="translate(-8.11 -7.12)"/><path class="cls-22" d="M207.27,103c0,0.91.84,1.2,1.67,1.2,0.64,0,1.5-.14,1.5-0.92,0-1.6-4.05-.52-4.05-2.9,0-1.25,1.22-1.76,2.31-1.76,1.39,0,2.45.43,2.54,1.94h-1a1.25,1.25,0,0,0-1.44-1c-0.61,0-1.32.17-1.32,0.79s1.08,0.86,2,1.08,2,0.58,2,1.76c0,1.49-1.38,2-2.64,2s-2.57-.56-2.63-2.1h1Z" transform="translate(-8.11 -7.12)"/><path class="cls-22" d="M217.83,103a2.48,2.48,0,0,1-2.65,2.11c-2,0-2.91-1.38-3-3.26a3,3,0,0,1,2.91-3.23c2.19,0,2.87,2.05,2.81,3.55h-4.64a1.83,1.83,0,0,0,1.93,2,1.48,1.48,0,0,0,1.61-1.21h1Zm-1-1.73a1.78,1.78,0,0,0-1.79-1.75,1.76,1.76,0,0,0-1.77,1.75h3.56Z" transform="translate(-8.11 -7.12)"/><path class="cls-22" d="M219,98.79h1v1h0a2.15,2.15,0,0,1,2-1.13c1.63,0,2.14.94,2.14,2.27V105h-1v-4.2a1.16,1.16,0,0,0-1.26-1.25,1.74,1.74,0,0,0-1.83,1.94V105h-1v-6.2Z" transform="translate(-8.11 -7.12)"/><path class="cls-22" d="M230.91,105h-1v-0.84h0a2.08,2.08,0,0,1-2,1c-1.91,0-2.85-1.51-2.85-3.26s0.94-3.23,2.83-3.23a2.38,2.38,0,0,1,2,1h0V96.42h1V105Zm-2.88-.76c1.38,0,1.9-1.19,1.9-2.34s-0.55-2.35-2-2.35-1.86,1.19-1.86,2.4A2,2,0,0,0,228,104.23Z" transform="translate(-8.11 -7.12)"/><path class="cls-22" d="M232.89,103c0,0.91.84,1.2,1.67,1.2,0.64,0,1.5-.14,1.5-0.92,0-1.6-4.05-.52-4.05-2.9,0-1.25,1.22-1.76,2.31-1.76,1.39,0,2.45.43,2.54,1.94h-1a1.25,1.25,0,0,0-1.44-1c-0.61,0-1.32.17-1.32,0.79s1.08,0.86,2,1.08,2,0.58,2,1.76c0,1.49-1.38,2-2.64,2s-2.57-.56-2.63-2.1h1Z" transform="translate(-8.11 -7.12)"/><path class="cls-22" d="M241,98.79h1v1h0a2.15,2.15,0,0,1,2-1.13c1.63,0,2.14.94,2.14,2.27V105h-1v-4.2a1.16,1.16,0,0,0-1.26-1.25,1.74,1.74,0,0,0-1.83,1.94V105h-1v-6.2Z" transform="translate(-8.11 -7.12)"/><path class="cls-22" d="M250.06,98.64a3.25,3.25,0,1,1-3,3.25A2.94,2.94,0,0,1,250.06,98.64Zm0,5.59c1.07,0,1.93-.84,1.93-2.34s-0.86-2.35-1.93-2.35-1.93.85-1.93,2.35S249,104.23,250.06,104.23Z" transform="translate(-8.11 -7.12)"/><path class="cls-22" d="M255.45,98.79h1.24v0.9h-1.24v3.85c0,0.48.13,0.55,0.77,0.55h0.47V105h-0.78c-1.06,0-1.48-.22-1.48-1.36V99.69h-1.06v-0.9h1.06V96.93h1v1.86Z" transform="translate(-8.11 -7.12)"/><path class="cls-22" d="M258.72,97.67h-1V96.42h1v1.25Zm-1,1.12h1V105h-1v-6.2Z" transform="translate(-8.11 -7.12)"/><path class="cls-22" d="M260.61,99.69h-1v-0.9h1V97.86a1.46,1.46,0,0,1,1.71-1.54,2.52,2.52,0,0,1,.66.1v0.89a1.92,1.92,0,0,0-.58-0.08,0.64,0.64,0,0,0-.78.7v0.86h1.2v0.9h-1.2V105h-1v-5.3Zm3.19-2V96.42h1v1.25h-1Zm0,7.32v-6.2h1V105h-1Z" transform="translate(-8.11 -7.12)"/><path class="cls-22" d="M270.42,100.78a1.44,1.44,0,0,0-1.54-1.24c-1.48,0-1.93,1.18-1.93,2.42s0.52,2.27,1.81,2.27a1.59,1.59,0,0,0,1.7-1.51h1a2.56,2.56,0,0,1-2.73,2.41c-1.9,0-2.9-1.31-2.9-3.17s1-3.32,2.93-3.32a2.38,2.38,0,0,1,2.67,2.13h-1.06Z" transform="translate(-8.11 -7.12)"/><path class="cls-22" d="M278,105a1.43,1.43,0,0,1-.73.17,0.81,0.81,0,0,1-.86-1,2.71,2.71,0,0,1-2.18,1c-1.13,0-2.05-.49-2.05-1.74,0-1.4,1-1.72,2.1-1.91s2.09-.13,2.09-0.91a1.1,1.1,0,0,0-1.38-1c-0.86,0-1.5.26-1.55,1.18h-1c0.06-1.54,1.24-2.08,2.63-2.08,1.12,0,2.33.25,2.33,1.7v3.19c0,0.48,0,.7.32,0.7a1,1,0,0,0,.31-0.06V105Zm-1.65-3.18c-0.79.59-3.09,0-3.09,1.54a1,1,0,0,0,1.2.91,1.65,1.65,0,0,0,1.9-1.4v-1Z" transform="translate(-8.11 -7.12)"/><path class="cls-22" d="M280.29,98.79h1.24v0.9h-1.24v3.85c0,0.48.13,0.55,0.77,0.55h0.47V105h-0.78c-1.06,0-1.48-.22-1.48-1.36V99.69h-1.06v-0.9h1.06V96.93h1v1.86Z" transform="translate(-8.11 -7.12)"/><path class="cls-22" d="M283.56,97.67h-1V96.42h1v1.25Zm-1,1.12h1V105h-1v-6.2Z" transform="translate(-8.11 -7.12)"/><path class="cls-22" d="M287.61,98.64a3.25,3.25,0,1,1-3,3.25A2.94,2.94,0,0,1,287.61,98.64Zm0,5.59c1.07,0,1.93-.84,1.93-2.34s-0.86-2.35-1.93-2.35-1.93.85-1.93,2.35S286.54,104.23,287.61,104.23Z" transform="translate(-8.11 -7.12)"/><path class="cls-22" d="M291.63,98.79h1v1h0a2.15,2.15,0,0,1,2-1.13c1.63,0,2.14.94,2.14,2.27V105h-1v-4.2a1.16,1.16,0,0,0-1.26-1.25,1.74,1.74,0,0,0-1.83,1.94V105h-1v-6.2Z" transform="translate(-8.11 -7.12)"/></g><g class="cls-26"><g class="cls-5"><rect class="cls-6" x="199.8" y="22.26" width="43.15" height="32.12"/></g></g><g class="cls-27"><g class="cls-5"><rect class="cls-6" x="199.8" y="397.54" width="43.15" height="43.17"/></g></g><g class="cls-5"><path class="cls-22" d="M175.73,472.67h1.34l3.56,9.11h-1.34l-1-2.74h-3.85l-1,2.74h-1.25ZM174.83,478h3.09l-1.52-4.25h0Z" transform="translate(-8.11 -7.12)"/><path class="cls-22" d="M181.52,472.67h1.08v9.11h-1.08v-9.11Z" transform="translate(-8.11 -7.12)"/><path class="cls-22" d="M189.67,479.68a2.64,2.64,0,0,1-2.82,2.25c-2.1,0-3.1-1.47-3.16-3.47a3.17,3.17,0,0,1,3.1-3.43c2.33,0,3,2.18,3,3.78h-4.94a1.94,1.94,0,0,0,2.05,2.17,1.57,1.57,0,0,0,1.71-1.29h1.07Zm-1-1.84a1.9,1.9,0,0,0-1.9-1.86,1.87,1.87,0,0,0-1.89,1.86h3.79Z" transform="translate(-8.11 -7.12)"/><path class="cls-22" d="M190.86,475.18h1v1.39h0a2.38,2.38,0,0,1,2.42-1.54v1.15c-1.75,0-2.39,1-2.39,2.67v2.93h-1.08v-6.59Z" transform="translate(-8.11 -7.12)"/><path class="cls-22" d="M197.34,475.18h1.31v1h-1.31v4.09c0,0.51.14,0.59,0.82,0.59h0.5v1h-0.83c-1.12,0-1.57-.23-1.57-1.44v-4.2h-1.12v-1h1.12v-2h1.08v2Z" transform="translate(-8.11 -7.12)"/><path class="cls-22" d="M203.48,479.7c0,1,.89,1.28,1.77,1.28,0.68,0,1.59-.15,1.59-1,0-1.7-4.31-.55-4.31-3.09,0-1.33,1.3-1.87,2.46-1.87,1.48,0,2.6.46,2.7,2.07h-1.08a1.33,1.33,0,0,0-1.53-1.11c-0.65,0-1.4.18-1.4,0.84s1.15,0.92,2.16,1.15,2.16,0.61,2.16,1.88c0,1.58-1.47,2.08-2.81,2.08s-2.73-.6-2.79-2.23h1.08Z" transform="translate(-8.11 -7.12)"/><path class="cls-22" d="M214.71,479.68a2.64,2.64,0,0,1-2.82,2.25c-2.1,0-3.1-1.47-3.16-3.47a3.17,3.17,0,0,1,3.1-3.43c2.33,0,3,2.18,3,3.78h-4.94a1.94,1.94,0,0,0,2.05,2.17,1.57,1.57,0,0,0,1.71-1.29h1.07Zm-1-1.84a1.9,1.9,0,0,0-1.9-1.86,1.87,1.87,0,0,0-1.89,1.86h3.79Z" transform="translate(-8.11 -7.12)"/><path class="cls-22" d="M215.9,475.18h1v1h0a2.28,2.28,0,0,1,2.14-1.2c1.73,0,2.27,1,2.27,2.41v4.34h-1.08v-4.46a1.24,1.24,0,0,0-1.34-1.33,1.85,1.85,0,0,0-2,2.07v3.72H215.9v-6.59Z" transform="translate(-8.11 -7.12)"/><path class="cls-22" d="M224.09,475.18h1.31v1h-1.31v4.09c0,0.51.14,0.59,0.82,0.59h0.5v1h-0.83c-1.12,0-1.57-.23-1.57-1.44v-4.2h-1.12v-1H223v-2h1.08v2Z" transform="translate(-8.11 -7.12)"/><path class="cls-22" d="M231.06,475.18h1.31v1h-1.31v4.09c0,0.51.14,0.59,0.82,0.59h0.5v1h-0.83c-1.12,0-1.57-.23-1.57-1.44v-4.2h-1.12v-1H230v-2h1.08v2Z" transform="translate(-8.11 -7.12)"/><path class="cls-22" d="M235.95,475c2.09,0,3.2,1.52,3.2,3.46a3.21,3.21,0,1,1-6.4,0C232.75,476.55,233.86,475,235.95,475Zm0,5.94c1.14,0,2.05-.89,2.05-2.49s-0.92-2.5-2.05-2.5-2.05.91-2.05,2.5S234.81,481,235.95,481Z" transform="translate(-8.11 -7.12)"/><path class="cls-22" d="M243.46,472.67h3.3a5.47,5.47,0,0,1,2.41.33,2.15,2.15,0,0,1,1.07,1.9,2.09,2.09,0,0,1-1.35,2v0a2.1,2.1,0,0,1,1.73,2.19,2.6,2.6,0,0,1-2.77,2.62h-4.4v-9.11Zm1.21,3.92h2.42c1.38,0,1.94-.49,1.94-1.46,0-1.28-.88-1.44-1.94-1.44h-2.42v2.9Zm0,4.17h3a1.55,1.55,0,0,0,1.71-1.63c0-1.19-1-1.52-2-1.52h-2.77v3.15Z" transform="translate(-8.11 -7.12)"/><path class="cls-22" d="M251.79,472.67h1.08v9.11h-1.08v-9.11Z" transform="translate(-8.11 -7.12)"/><path class="cls-22" d="M259.73,481.78h-1v-1h0a2.28,2.28,0,0,1-2.14,1.2c-1.73,0-2.27-1-2.27-2.41v-4.34h1.08v4.46a1.24,1.24,0,0,0,1.34,1.33,1.85,1.85,0,0,0,2-2.07v-3.72h1.08v6.59Z" transform="translate(-8.11 -7.12)"/><path class="cls-22" d="M266.76,479.68a2.64,2.64,0,0,1-2.82,2.25c-2.1,0-3.1-1.47-3.16-3.47a3.17,3.17,0,0,1,3.1-3.43c2.33,0,3,2.18,3,3.78h-4.94A1.94,1.94,0,0,0,264,481a1.57,1.57,0,0,0,1.71-1.29h1.07Zm-1-1.84a1.9,1.9,0,0,0-1.9-1.86,1.87,1.87,0,0,0-1.89,1.86h3.79Z" transform="translate(-8.11 -7.12)"/><path class="cls-22" d="M268,475.18h1v1h0a2.39,2.39,0,0,1,2.13-1.12,1.72,1.72,0,0,1,1.81,1.12A2.4,2.4,0,0,1,275,475c1.31,0,2.19.55,2.19,1.91v4.83h-1.08v-4.32a1.19,1.19,0,0,0-1.28-1.47,1.59,1.59,0,0,0-1.72,1.68v4.11h-1.08v-4.32a1.19,1.19,0,0,0-1.24-1.47,1.78,1.78,0,0,0-1.76,1.68v4.11H268v-6.59Z" transform="translate(-8.11 -7.12)"/><path class="cls-22" d="M279.71,474h-1.08v-1.33h1.08V474Zm-1.08,1.19h1.08v6.59h-1.08v-6.59Z" transform="translate(-8.11 -7.12)"/><path class="cls-22" d="M282.87,478.31l-2.3-3.12H282l1.58,2.31,1.65-2.31h1.3l-2.27,3,2.55,3.56h-1.39L283.54,479l-1.84,2.73h-1.31Z" transform="translate(-8.11 -7.12)"/></g><g class="cls-28"><g class="cls-5"><g class="cls-29"><g class="cls-30"><g class="cls-31"><g class="cls-30"><rect class="cls-6" x="412.19" y="179.95" width="40.96" height="40.3"/></g></g></g></g></g></g><g class="cls-32"><g class="cls-5"><rect class="cls-6" x="195.14" y="196.6" width="27.27" height="10.86"/></g></g><g class="cls-33"><g class="cls-5"><rect class="cls-6" x="195.14" y="171.54" width="27.27" height="34.19"/></g></g><g class="cls-34"><g class="cls-5"><rect class="cls-6" x="198.59" y="183.64" width="20.36" height="10.86"/></g></g><g class="cls-35"><g class="cls-5"><rect class="cls-6" x="198.59" y="180.18" width="20.36" height="10.86"/></g></g><g class="cls-36"><g class="cls-5"><rect class="cls-6" x="198.59" y="187.09" width="20.36" height="10.86"/></g></g><g class="cls-37"><g class="cls-5"><rect class="cls-38" x="41.15" y="147.84" width="19.84" height="15.72"/></g></g><g class="cls-5"><polygon class="cls-39" points="46.15 153.64 46.95 152.84 50.51 156.4 51.64 156.4 55.2 152.84 55.99 153.64 51.07 158.56 46.15 153.64"/></g><g class="cls-40"><g class="cls-5"><rect class="cls-38" x="382.15" y="292.02" width="19.84" height="15.72"/></g></g><g class="cls-5"><polygon class="cls-39" points="387.15 301.94 387.95 302.74 391.5 299.18 392.63 299.18 396.19 302.74 396.99 301.94 392.07 297.02 387.15 301.94"/></g><g class="cls-41"><g class="cls-5"><rect class="cls-38" x="270.29" y="33.48" width="15.72" height="19.85"/></g></g><g class="cls-5"><polygon class="cls-39" points="280.21 48.33 281.01 47.53 277.45 43.97 277.45 42.84 281.01 39.28 280.21 38.48 275.29 43.41 280.21 48.33"/></g><g class="cls-42"><g class="cls-5"><rect class="cls-38" x="156.59" y="408.94" width="15.72" height="19.85"/></g></g><g class="cls-5"><polygon class="cls-39" points="162.39 423.79 161.59 422.99 165.14 419.43 165.14 418.3 161.59 414.74 162.39 413.94 167.31 418.86 162.39 423.79"/></g><g class="cls-43"><g class="cls-5"><rect class="cls-38" x="301.33" y="201.61" width="15.72" height="19.85"/></g></g></svg>