<svg id="Layer_1" data-name="Layer 1" xmlns="http://www.w3.org/2000/svg" viewBox="0 0 24 24"><defs><style>.cls-1{fill:#52d503;}</style></defs><title>localicon</title><path class="cls-1" d="M-24.25,15" transform="translate(0.03 0.03)"/><path class="cls-1" d="M12,0A12,12,0,1,0,24,12,12,12,0,0,0,12,0Zm0,22A10,10,0,1,1,22,12,10,10,0,0,1,12,22Z" transform="translate(0.03 0.03)"/><path class="cls-1" d="M17,9.46V7H16V8.4L11.88,4l-7.5,8H7v6H17V12h2.38Zm-3,6c0,0.3-.9.55-2,0.55s-2-.24-2-0.55V14c0,0.3.9,0.55,2,.55s2-.24,2-0.55v1.45Zm0-2c0,0.3-.9.55-2,0.55s-2-.24-2-0.55V12c0,0.3.9,0.55,2,.55s2-.24,2-0.55v1.45ZM12,12c-1.1,0-2-.34-2-0.75s0.9-.75,2-0.75,2,0.34,2,.75S13.1,12,12,12Z" transform="translate(0.03 0.03)"/></svg>