<svg id="Layer_1" data-name="Layer 1" xmlns="http://www.w3.org/2000/svg" xmlns:xlink="http://www.w3.org/1999/xlink" viewBox="0 0 577.2 203.18"><defs><style>.cls-1,.cls-2,.cls-4{fill:none;}.cls-2{clip-rule:evenodd;}.cls-3{clip-path:url(#clip-path);}.cls-4{stroke:#2d3f4a;stroke-miterlimit:10;stroke-width:5px;}.cls-5{clip-path:url(#clip-path-2);}.cls-6{fill:#fff;}.cls-7{clip-path:url(#clip-path-4);}.cls-8{clip-path:url(#clip-path-6);}.cls-9{clip-path:url(#clip-path-8);}.cls-10{clip-path:url(#clip-path-10);}.cls-11,.cls-28{fill:#7cb7fa;}.cls-11{opacity:0.5;}.cls-12{clip-path:url(#clip-path-12);}.cls-13{clip-path:url(#clip-path-14);}.cls-14{clip-path:url(#clip-path-16);}.cls-15{fill:#3b505c;}.cls-16{fill:#26465b;}.cls-17{clip-path:url(#clip-path-19);}.cls-18{fill:#2d3f4a;}.cls-19{clip-path:url(#clip-path-21);}.cls-20{clip-path:url(#clip-path-23);}.cls-21{clip-path:url(#clip-path-25);}.cls-22{clip-path:url(#clip-path-27);}.cls-23{clip-path:url(#clip-path-29);}.cls-24{clip-path:url(#clip-path-31);}.cls-25{clip-path:url(#clip-path-33);}.cls-26{clip-path:url(#clip-path-35);}.cls-27{clip-path:url(#clip-path-37);}.cls-29{clip-path:url(#clip-path-39);}.cls-30{clip-path:url(#clip-path-41);}.cls-31{clip-path:url(#clip-path-43);}.cls-32{clip-path:url(#clip-path-45);}.cls-33{clip-path:url(#clip-path-47);}.cls-34{clip-path:url(#clip-path-49);}.cls-35{clip-path:url(#clip-path-51);}.cls-36{clip-path:url(#clip-path-53);}.cls-37{clip-path:url(#clip-path-55);}.cls-38{clip-path:url(#clip-path-57);}.cls-39{clip-path:url(#clip-path-59);}.cls-40{clip-path:url(#clip-path-61);}</style><clipPath id="clip-path" transform="translate(-8 -28)"><rect class="cls-1" width="600" height="268"/></clipPath><clipPath id="clip-path-2" transform="translate(-8 -28)"><ellipse class="cls-1" cx="41.6" cy="117.16" rx="28.6" ry="28.16"/></clipPath><clipPath id="clip-path-4" transform="translate(-8 -28)"><ellipse class="cls-1" cx="208.6" cy="117.16" rx="28.6" ry="28.16"/></clipPath><clipPath id="clip-path-6" transform="translate(-8 -28)"><ellipse class="cls-1" cx="375.6" cy="117.16" rx="28.6" ry="28.16"/></clipPath><clipPath id="clip-path-8" transform="translate(-8 -28)"><ellipse class="cls-1" cx="551.6" cy="117.16" rx="28.6" ry="28.16"/></clipPath><clipPath id="clip-path-10" transform="translate(-8 -28)"><ellipse class="cls-1" cx="41.45" cy="117.12" rx="21.45" ry="21.12"/></clipPath><clipPath id="clip-path-12" transform="translate(-8 -28)"><ellipse class="cls-1" cx="208.45" cy="117.12" rx="21.45" ry="21.12"/></clipPath><clipPath id="clip-path-14" transform="translate(-8 -28)"><ellipse class="cls-1" cx="375.45" cy="117.12" rx="21.45" ry="21.12"/></clipPath><clipPath id="clip-path-16" transform="translate(-8 -28)"><ellipse class="cls-1" cx="551.45" cy="117.12" rx="21.45" ry="21.12"/></clipPath><clipPath id="clip-path-19" transform="translate(-8 -28)"><path class="cls-2" d="M35.59,47.58H52.91A11.08,11.08,0,0,0,35.59,47.58Z"/></clipPath><clipPath id="clip-path-21" transform="translate(-8 -28)"><path class="cls-2" d="M33.9,51.75a8.19,8.19,0,0,0-.07,1v3.13H54.67V52.79a8.19,8.19,0,0,0-.07-1H33.9Z"/></clipPath><clipPath id="clip-path-23" transform="translate(-8 -28)"><path class="cls-2" d="M33.83,63.21a8.19,8.19,0,0,0,.07,1H54.6a8.19,8.19,0,0,0,.07-1V60.08H33.83v3.13Z"/></clipPath><clipPath id="clip-path-25" transform="translate(-8 -28)"><path class="cls-2" d="M44.25,72.58a10.75,10.75,0,0,0,8.66-4.17H35.59A10.75,10.75,0,0,0,44.25,72.58Z"/></clipPath><clipPath id="clip-path-27" transform="translate(-8 -28)"><path class="cls-2" d="M25.55,58.82a5.45,5.45,0,0,1-5,3.34h0a5.39,5.39,0,0,1-2.07-.41,5.44,5.44,0,0,1,0-10.05l11.72-4.6Zm-7.9-9.05a7.53,7.53,0,0,0,2.87,14.48h0a7.52,7.52,0,0,0,6.94-4.65l6.35-16.19Z"/></clipPath><clipPath id="clip-path-29" transform="translate(-8 -28)"><path class="cls-2" d="M73,58.81a5.44,5.44,0,0,1-5,3.36h0a5.46,5.46,0,0,1-3.83-1.59,5.43,5.43,0,0,1-1.17-1.75L58.35,47.1l11.72,4.6a5.44,5.44,0,0,1,3.34,5A5.38,5.38,0,0,1,73,58.81Zm1.92-5a7.52,7.52,0,0,0-4.07-4.07L54.67,43.42,61,59.6A7.53,7.53,0,0,0,68,64.25h0A7.52,7.52,0,0,0,74.93,53.84Z"/></clipPath><clipPath id="clip-path-31" transform="translate(-8 -28)"><path class="cls-2" d="M39,35.08A2.08,2.08,0,1,1,37,37.17,2.09,2.09,0,0,1,39,35.08Zm0,6.25a4.17,4.17,0,1,0-4.17-4.17A4.17,4.17,0,0,0,39,41.33Z"/></clipPath><clipPath id="clip-path-33" transform="translate(-8 -28)"><path class="cls-2" d="M49.46,35.08a2.08,2.08,0,1,1-2.08,2.08A2.09,2.09,0,0,1,49.46,35.08Zm0,6.25a4.17,4.17,0,1,0-4.17-4.17A4.17,4.17,0,0,0,49.46,41.33Z"/></clipPath><clipPath id="clip-path-35" transform="translate(-8 -28)"><path class="cls-2" d="M214.33,71.33H167.67v-30h46.67v30ZM166,33V73h50V33H166Z"/></clipPath><clipPath id="clip-path-37" transform="translate(-8 -28)"><circle class="cls-1" cx="206.83" cy="41.33" r="5"/></clipPath><clipPath id="clip-path-39" transform="translate(-8 -28)"><path class="cls-2" d="M235.24,35.85h5.28v1.32h-5.28V35.85Zm13.19,4V66.19H227.32V39.81h21.11ZM226,38.49V72.79h23.75V33.21H226v5.28Z"/></clipPath><clipPath id="clip-path-41" transform="translate(-8 -28)"><circle class="cls-1" cx="243.81" cy="40.19" r="3.44"/></clipPath><clipPath id="clip-path-43" transform="translate(-8 -28)"><path class="cls-2" d="M398.33,71.33H351.67v-30h46.67v30ZM350,33V73h50V33H350Z"/></clipPath><clipPath id="clip-path-45" transform="translate(-8 -28)"><circle class="cls-1" cx="368.33" cy="61.75" r="3.33"/></clipPath><clipPath id="clip-path-47" transform="translate(-8 -28)"><circle class="cls-1" cx="378.33" cy="61.75" r="3.33"/></clipPath><clipPath id="clip-path-49" transform="translate(-8 -28)"><rect class="cls-1" x="364.71" y="35.92" width="20.21" height="2.92"/></clipPath><clipPath id="clip-path-51" transform="translate(-8 -28)"><polygon class="cls-2" points="393.75 34.88 393.07 35.56 394.43 36.92 391.25 36.92 391.25 37.83 394.43 37.83 393.07 39.19 393.75 39.88 396.25 37.38 393.75 34.88"/></clipPath><clipPath id="clip-path-53" transform="translate(-8 -28)"><polygon class="cls-2" points="356.25 34.88 356.93 35.56 355.57 36.92 358.75 36.92 358.75 37.83 355.57 37.83 356.93 39.19 356.25 39.88 353.75 37.38 356.25 34.88"/></clipPath><clipPath id="clip-path-55" transform="translate(-8 -28)"><path class="cls-2" d="M574.33,71.33H527.67v-30h46.67v30ZM526,33V73h50V33H526Z"/></clipPath><clipPath id="clip-path-57" transform="translate(-8 -28)"><circle class="cls-1" cx="565.38" cy="56.75" r="4.38"/></clipPath><clipPath id="clip-path-59" transform="translate(-8 -28)"><path class="cls-2" d="M565.38,51.69a5.06,5.06,0,1,1-5.06,5.06A5.07,5.07,0,0,1,565.38,51.69Zm0,10.69a5.63,5.63,0,1,0-5.62-5.62A5.62,5.62,0,0,0,565.38,62.38Z"/></clipPath><clipPath id="clip-path-61" transform="translate(-8 -28)"><polygon class="cls-2" points="568.25 55.44 567.45 54.64 564.47 57.62 563.18 56.33 562.39 57.12 564.47 59.21 568.25 55.44"/></clipPath></defs><title>BlueMix-Support-Maintenance-Process-v03-ML_Small a</title><g class="cls-3"><line class="cls-4" x1="34.83" y1="87.5" x2="536.52" y2="87.5"/></g><g class="cls-5"><g class="cls-3"><rect class="cls-6" y="56" width="67.2" height="66.32"/></g></g><g class="cls-7"><g class="cls-3"><rect class="cls-6" x="167" y="56" width="67.2" height="66.32"/></g></g><g class="cls-8"><g class="cls-3"><rect class="cls-6" x="334" y="56" width="67.2" height="66.32"/></g></g><g class="cls-9"><g class="cls-3"><rect class="cls-6" x="510" y="56" width="67.2" height="66.32"/></g></g><g class="cls-10"><g class="cls-3"><rect class="cls-11" x="7" y="63" width="52.9" height="52.24"/></g></g><g class="cls-12"><g class="cls-3"><rect class="cls-11" x="174" y="63" width="52.9" height="52.24"/></g></g><g class="cls-13"><g class="cls-3"><rect class="cls-11" x="341" y="63" width="52.9" height="52.24"/></g></g><g class="cls-14"><g class="cls-3"><rect class="cls-11" x="517" y="63" width="52.9" height="52.24"/></g></g><g class="cls-3"><path class="cls-15" d="M39.5,128V114.38H34.22v-3.21a10,10,0,0,0,2.15-.17,5.61,5.61,0,0,0,1.86-.69,4.57,4.57,0,0,0,1.4-1.31,4.65,4.65,0,0,0,.75-2h3.39v21H39.5Z" transform="translate(-8 -28)"/><path class="cls-15" d="M201.53,110.72A7.77,7.77,0,0,1,203,108a6.52,6.52,0,0,1,2.41-1.8,8.19,8.19,0,0,1,3.35-.64,8.37,8.37,0,0,1,2.75.45,7.08,7.08,0,0,1,2.29,1.29,6.13,6.13,0,0,1,1.58,2.07,6.35,6.35,0,0,1,.58,2.76,6.65,6.65,0,0,1-.51,2.73,7.17,7.17,0,0,1-1.35,2,11.48,11.48,0,0,1-1.9,1.6L210,119.93q-1.08.71-2.1,1.52a9.49,9.49,0,0,0-1.8,1.89H216V127H200.63a8.75,8.75,0,0,1,.52-3.18,8.46,8.46,0,0,1,1.43-2.42,12.45,12.45,0,0,1,2.11-2q1.22-.9,2.56-1.83,0.69-.48,1.47-1a9.76,9.76,0,0,0,1.42-1.09,5.81,5.81,0,0,0,1.08-1.35,3.35,3.35,0,0,0,.44-1.71,3.17,3.17,0,0,0-.88-2.39,3.13,3.13,0,0,0-2.27-.85,2.76,2.76,0,0,0-1.58.43,3.25,3.25,0,0,0-1,1.14,5.24,5.24,0,0,0-.56,1.56,8.91,8.91,0,0,0-.17,1.7h-4.08A10.08,10.08,0,0,1,201.53,110.72Z" transform="translate(-8 -28)"/><path class="cls-15" d="M375.31,115.49a4.62,4.62,0,0,0,1.46-.35,2.79,2.79,0,0,0,1.11-.82,2.23,2.23,0,0,0,.44-1.44,2.5,2.5,0,0,0-.9-2.07,3.22,3.22,0,0,0-2.07-.72,2.9,2.9,0,0,0-2.44,1.07,4.12,4.12,0,0,0-.79,2.68H368a8.93,8.93,0,0,1,.58-3,6.76,6.76,0,0,1,1.47-2.29,6.51,6.51,0,0,1,2.27-1.48,7.88,7.88,0,0,1,2.94-.53,8.8,8.8,0,0,1,2.52.38,7.18,7.18,0,0,1,2.27,1.13,6.1,6.1,0,0,1,1.63,1.83,4.85,4.85,0,0,1,.63,2.49,5,5,0,0,1-.73,2.7,3.69,3.69,0,0,1-2.21,1.59v0.06a4.57,4.57,0,0,1,2.73,1.68,4.93,4.93,0,0,1,1,3.09,6.36,6.36,0,0,1-2.37,5.1,7.64,7.64,0,0,1-2.49,1.32,10.15,10.15,0,0,1-6.16-.06,6.75,6.75,0,0,1-2.48-1.49,6.57,6.57,0,0,1-1.58-2.38,8.41,8.41,0,0,1-.52-3.24h4a6.05,6.05,0,0,0,.27,1.61,4,4,0,0,0,.69,1.32,3.28,3.28,0,0,0,1.13.88,3.61,3.61,0,0,0,1.6.33,3.52,3.52,0,0,0,2.43-.88,3.59,3.59,0,0,0,.52-4.25,2.67,2.67,0,0,0-1.19-.92,5,5,0,0,0-1.57-.33q-0.86,0-1.64,0v-3A9,9,0,0,0,375.31,115.49Z" transform="translate(-8 -28)"/><path class="cls-15" d="M542.48,123.14v-3.9L551.6,107h3.81v12.63h2.79v3.51h-2.79V128h-4.05v-4.86h-8.88Zm8.79-10.8-5.43,7.29h5.52v-7.29h-0.09Z" transform="translate(-8 -28)"/><path class="cls-16" d="M13.89,161.51h1v10h-1v-10Z" transform="translate(-8 -28)"/><path class="cls-16" d="M16.9,161.51h4.23c1.68,0,3.21.59,3.21,2.45a2.27,2.27,0,0,1-1.74,2.24v0a2.34,2.34,0,0,1,2.11,2.44c0,1-.34,2.84-3.59,2.84H16.9v-10Zm1,4.38h3.28c1.51,0,2.26-.76,2.26-1.69,0-1.25-.76-1.88-2.26-1.88H17.85v3.57Zm0,4.8h3.28c1.42,0,2.63-.43,2.63-2.06,0-1.29-1-1.93-2.63-1.93H17.85v4Z" transform="translate(-8 -28)"/><path class="cls-16" d="M26.18,161.51h1.4L31,170.28l3.45-8.77h1.4v10h-1v-8.64h0l-3.42,8.64H30.6l-3.43-8.64h0v8.64h-1v-10Z" transform="translate(-8 -28)"/><path class="cls-16" d="M41.05,164.28h0.88v1.25h0a2.47,2.47,0,0,1,2.31-1.46c2,0,2.65,1.06,2.65,2.79v4.65H46V167c0-1.23-.41-2.19-1.83-2.19a2.28,2.28,0,0,0-2.27,2.48v4.22H41.05v-7.23Z" transform="translate(-8 -28)"/><path class="cls-16" d="M55.08,167.89c0,2.07-1.22,3.82-3.42,3.82s-3.42-1.75-3.42-3.82,1.22-3.82,3.42-3.82S55.08,165.82,55.08,167.89Zm-6,0c0,1.53.85,3.08,2.54,3.08s2.54-1.55,2.54-3.08-0.85-3.08-2.54-3.08S49.13,166.37,49.13,167.89Z" transform="translate(-8 -28)"/><path class="cls-16" d="M57.74,164.28h1.47V165H57.74v4.87c0,0.57.08,0.91,0.71,1a6.88,6.88,0,0,0,.76,0v0.76l-0.78,0c-1.18,0-1.58-.39-1.57-1.62V165H55.6v-0.74h1.26v-2.17h0.88v2.17Z" transform="translate(-8 -28)"/><path class="cls-16" d="M60.58,161.51h0.88v1.42H60.58v-1.42Zm0,2.77h0.88v7.23H60.58v-7.23Z" transform="translate(-8 -28)"/><path class="cls-16" d="M63.9,165H62.67v-0.74H63.9v-0.66c0-1.25.32-2.12,1.75-2.12a4.53,4.53,0,0,1,.74.06v0.76a3.62,3.62,0,0,0-.64-0.07c-1,0-1,.63-1,1.4v0.63h1.43V165H64.78v6.49H63.9V165Zm3.17-3.52h0.88v1.42H67.07v-1.42Zm0,2.77h0.88v7.23H67.07v-7.23Z" transform="translate(-8 -28)"/><path class="cls-16" d="M70.28,168.13c0,1.29.7,2.84,2.38,2.84a2.19,2.19,0,0,0,2.27-1.85h0.88a2.94,2.94,0,0,1-3.15,2.59c-2.3,0-3.26-1.76-3.26-3.82,0-1.91,1-3.82,3.26-3.82s3.25,2,3.18,4.06H70.28Zm4.68-.74a2.44,2.44,0,0,0-2.3-2.58c-1.46,0-2.23,1.26-2.38,2.58H75Z" transform="translate(-8 -28)"/><path class="cls-16" d="M81.58,166.4a1.66,1.66,0,0,0-1.89-1.58A1.45,1.45,0,0,0,78,166.06c0,0.77.88,1.06,1.5,1.22l1.18,0.27a2.12,2.12,0,0,1,2.06,2c0,1.57-1.55,2.17-2.9,2.17-1.69,0-2.82-.77-3-2.55h0.88A1.9,1.9,0,0,0,79.86,171c0.84,0,2-.36,2-1.37,0-.84-0.78-1.12-1.58-1.32L79.12,168c-1.15-.29-2-0.71-2-1.93,0-1.47,1.44-2,2.72-2a2.37,2.37,0,0,1,2.65,2.33H81.58Z" transform="translate(-8 -28)"/><path class="cls-16" d="M18.81,185.55a2,2,0,0,0-2-1.74c-1.68,0-2.54,1.56-2.54,3.08S15.08,190,16.76,190a2.17,2.17,0,0,0,2.1-2.06h0.88a2.92,2.92,0,0,1-3,2.8c-2.2,0-3.42-1.75-3.42-3.82s1.22-3.82,3.42-3.82a2.69,2.69,0,0,1,2.93,2.48H18.81Z" transform="translate(-8 -28)"/><path class="cls-16" d="M27,190.51H26.2v-1.3h0a2.69,2.69,0,0,1-2.49,1.51c-1.83,0-2.54-1.05-2.54-2.75v-4.69H22V188c0,1.3.53,2,1.93,2s2.17-1.43,2.17-2.9v-3.8H27v7.23Z" transform="translate(-8 -28)"/><path class="cls-16" d="M33.09,185.4a1.66,1.66,0,0,0-1.89-1.58,1.45,1.45,0,0,0-1.71,1.25c0,0.77.88,1.06,1.5,1.22l1.18,0.27a2.12,2.12,0,0,1,2.06,2c0,1.57-1.55,2.17-2.9,2.17-1.69,0-2.82-.77-3-2.55h0.88A1.9,1.9,0,0,0,31.37,190c0.84,0,2-.36,2-1.37,0-.84-0.78-1.12-1.58-1.32L30.62,187c-1.15-.29-2-0.71-2-1.93,0-1.47,1.44-2,2.72-2A2.37,2.37,0,0,1,34,185.4H33.09Z" transform="translate(-8 -28)"/><path class="cls-16" d="M37,183.28h1.47V184H37v4.87c0,0.57.08,0.91,0.71,1a6.89,6.89,0,0,0,.76,0v0.76l-0.78,0c-1.18,0-1.58-.39-1.57-1.62V184H34.84v-0.74H36.1v-2.17H37v2.17Z" transform="translate(-8 -28)"/><path class="cls-16" d="M46.28,186.89c0,2.07-1.22,3.82-3.42,3.82s-3.42-1.75-3.42-3.82,1.22-3.82,3.42-3.82S46.28,184.82,46.28,186.89Zm-6,0c0,1.53.85,3.08,2.54,3.08s2.54-1.55,2.54-3.08-0.85-3.08-2.54-3.08S40.32,185.37,40.32,186.89Z" transform="translate(-8 -28)"/><path class="cls-16" d="M47.67,183.28h0.81v1.22h0a2.49,2.49,0,0,1,2.37-1.43A2,2,0,0,1,53,184.48a2.44,2.44,0,0,1,2.3-1.41c1.6,0,2.4.84,2.4,2.54v4.9H56.78v-4.86c0-1.19-.43-1.83-1.71-1.83-1.53,0-2,1.26-2,2.61v4.09H52.23v-4.9c0-1-.38-1.79-1.51-1.79-1.51,0-2.16,1.15-2.16,2.66v4H47.67v-7.23Z" transform="translate(-8 -28)"/><path class="cls-16" d="M59.94,187.13c0,1.29.7,2.84,2.38,2.84a2.19,2.19,0,0,0,2.27-1.85h0.88a2.94,2.94,0,0,1-3.15,2.59c-2.3,0-3.26-1.76-3.26-3.82,0-1.91,1-3.82,3.26-3.82s3.25,2,3.18,4.06H59.94Zm4.68-.74a2.44,2.44,0,0,0-2.3-2.58c-1.46,0-2.23,1.26-2.38,2.58h4.68Z" transform="translate(-8 -28)"/><path class="cls-16" d="M66.91,183.28h0.81V185h0a2.66,2.66,0,0,1,2.73-1.79v0.88a2.49,2.49,0,0,0-2.69,2.59v3.85H66.91v-7.23Z" transform="translate(-8 -28)"/><path class="cls-16" d="M81.21,186.89c0,2.07-1.22,3.82-3.42,3.82s-3.42-1.75-3.42-3.82,1.22-3.82,3.42-3.82S81.21,184.82,81.21,186.89Zm-6,0c0,1.53.85,3.08,2.54,3.08s2.54-1.55,2.54-3.08-0.85-3.08-2.54-3.08S75.25,185.37,75.25,186.89Z" transform="translate(-8 -28)"/><path class="cls-16" d="M85.39,184H84v6.49H83.08V184H81.85v-0.74h1.23v-0.66c0-1.25.32-2.12,1.75-2.12a4.53,4.53,0,0,1,.74.06v0.76a3.62,3.62,0,0,0-.64-0.07c-1,0-1,.63-1,1.4v0.63h1.43V184Z" transform="translate(-8 -28)"/><path class="cls-16" d="M89.56,185.49c0.1-1.69,1.26-2.42,2.93-2.42,1.27,0,2.66.38,2.66,2.33v3.84a0.46,0.46,0,0,0,.52.53,0.67,0.67,0,0,0,.28-0.06v0.74a2.5,2.5,0,0,1-.57.06c-0.9,0-1-.52-1-1.26h0a2.76,2.76,0,0,1-2.63,1.47c-1.34,0-2.42-.66-2.42-2.12,0-2,2-2.1,3.88-2.33,0.73-.07,1.13-0.2,1.13-1,0-1.19-.84-1.48-1.89-1.48a1.68,1.68,0,0,0-1.93,1.68H89.56Zm4.71,1.06h0a1.11,1.11,0,0,1-.74.32c-1.5.27-3.36,0.27-3.36,1.67A1.5,1.5,0,0,0,91.75,190a2.32,2.32,0,0,0,2.52-2.27v-1.15Z" transform="translate(-8 -28)"/><path class="cls-16" d="M13.71,202.28h0.81v1.37h0a2.67,2.67,0,0,1,2.58-1.58c2.2,0,3.25,1.77,3.25,3.82s-1.05,3.82-3.25,3.82a2.57,2.57,0,0,1-2.51-1.58h0v4H13.71v-9.9Zm3.42,0.53c-2,0-2.54,1.44-2.54,3.08S15.27,209,17.13,209c1.68,0,2.37-1.58,2.37-3.08S18.81,202.81,17.13,202.81Z" transform="translate(-8 -28)"/><path class="cls-16" d="M22.35,206.13c0,1.29.7,2.84,2.38,2.84A2.19,2.19,0,0,0,27,207.13h0.88a2.94,2.94,0,0,1-3.15,2.59c-2.3,0-3.26-1.76-3.26-3.82,0-1.91,1-3.82,3.26-3.82s3.25,2,3.18,4.06H22.35Zm4.68-.74a2.44,2.44,0,0,0-2.3-2.58c-1.46,0-2.23,1.26-2.38,2.58H27Z" transform="translate(-8 -28)"/><path class="cls-16" d="M29.31,202.28h0.88v1.25h0a2.47,2.47,0,0,1,2.31-1.46c2,0,2.65,1.06,2.65,2.79v4.65H34.29V205c0-1.23-.41-2.19-1.83-2.19a2.28,2.28,0,0,0-2.27,2.48v4.22H29.31v-7.23Z" transform="translate(-8 -28)"/><path class="cls-16" d="M43.28,209.51H42.47v-1.37h0a2.84,2.84,0,0,1-2.58,1.58c-2.2,0-3.25-1.76-3.25-3.82s1.05-3.82,3.25-3.82a2.58,2.58,0,0,1,2.51,1.58h0v-4.15h0.88v10ZM39.86,209c1.86,0,2.54-1.58,2.54-3.08s-0.67-3.08-2.54-3.08c-1.68,0-2.37,1.58-2.37,3.08S38.18,209,39.86,209Z" transform="translate(-8 -28)"/><path class="cls-16" d="M45.06,199.51h0.88v1.42H45.06v-1.42Zm0,2.77h0.88v7.23H45.06v-7.23Z" transform="translate(-8 -28)"/><path class="cls-16" d="M47.7,202.28h0.88v1.25h0a2.47,2.47,0,0,1,2.31-1.46c2,0,2.65,1.06,2.65,2.79v4.65H52.69V205c0-1.23-.41-2.19-1.83-2.19a2.28,2.28,0,0,0-2.27,2.48v4.22H47.7v-7.23Z" transform="translate(-8 -28)"/><path class="cls-16" d="M61.42,208.92c0,2.17-.87,3.47-3.21,3.47-1.44,0-2.89-.66-3-2.19H56.1a1.9,1.9,0,0,0,2.12,1.44c1.64,0,2.33-1,2.33-2.73v-1h0a2.47,2.47,0,0,1-2.3,1.48c-2.31,0-3.26-1.64-3.26-3.71s1.18-3.64,3.26-3.64a2.53,2.53,0,0,1,2.3,1.46h0v-1.25h0.88v6.64Zm-0.88-3.11c0-1.41-.64-3-2.33-3s-2.38,1.5-2.38,3,0.74,2.87,2.38,2.87S60.54,207.27,60.54,205.81Z" transform="translate(-8 -28)"/><path class="cls-16" d="M72.37,209.51H71.56v-1.3h0A2.69,2.69,0,0,1,69,209.72c-1.83,0-2.54-1.05-2.54-2.75v-4.69h0.88V207c0,1.3.53,2,1.93,2s2.17-1.43,2.17-2.9v-3.8h0.88v7.23Z" transform="translate(-8 -28)"/><path class="cls-16" d="M74.12,202.28h0.81v1.37h0a2.67,2.67,0,0,1,2.58-1.58c2.2,0,3.25,1.77,3.25,3.82s-1.05,3.82-3.25,3.82A2.57,2.57,0,0,1,75,208.14h0v4H74.12v-9.9Zm3.42,0.53c-2,0-2.54,1.44-2.54,3.08S75.67,209,77.54,209c1.68,0,2.37-1.58,2.37-3.08S79.22,202.81,77.54,202.81Z" transform="translate(-8 -28)"/><path class="cls-16" d="M88.6,209.51H87.79v-1.37h0a2.84,2.84,0,0,1-2.58,1.58c-2.2,0-3.25-1.76-3.25-3.82s1.05-3.82,3.25-3.82a2.58,2.58,0,0,1,2.51,1.58h0v-4.15H88.6v10ZM85.18,209c1.86,0,2.54-1.58,2.54-3.08s-0.67-3.08-2.54-3.08c-1.68,0-2.37,1.58-2.37,3.08S83.5,209,85.18,209Z" transform="translate(-8 -28)"/><path class="cls-16" d="M90.27,204.49c0.1-1.69,1.26-2.42,2.93-2.42,1.27,0,2.66.38,2.66,2.33v3.84a0.46,0.46,0,0,0,.52.53,0.67,0.67,0,0,0,.28-0.06v0.74a2.5,2.5,0,0,1-.57.06c-0.9,0-1-.52-1-1.26h0a2.76,2.76,0,0,1-2.63,1.47c-1.34,0-2.42-.66-2.42-2.12,0-2,2-2.1,3.88-2.33,0.73-.07,1.13-0.2,1.13-1,0-1.19-.84-1.48-1.89-1.48a1.68,1.68,0,0,0-1.93,1.68H90.27ZM95,205.56h0a1.11,1.11,0,0,1-.74.32c-1.5.27-3.36,0.27-3.36,1.67A1.5,1.5,0,0,0,92.46,209,2.32,2.32,0,0,0,95,206.71v-1.15Z" transform="translate(-8 -28)"/><path class="cls-16" d="M99.11,202.28h1.47V203H99.11v4.87c0,0.57.08,0.91,0.71,1a6.89,6.89,0,0,0,.76,0v0.76l-0.78,0c-1.18,0-1.58-.39-1.57-1.62V203H97v-0.74h1.26v-2.17h0.88v2.17Z" transform="translate(-8 -28)"/><path class="cls-16" d="M102.46,206.13c0,1.29.7,2.84,2.38,2.84a2.19,2.19,0,0,0,2.27-1.85H108a2.94,2.94,0,0,1-3.15,2.59c-2.3,0-3.26-1.76-3.26-3.82,0-1.91,1-3.82,3.26-3.82s3.25,2,3.18,4.06h-5.56Zm4.68-.74a2.44,2.44,0,0,0-2.3-2.58c-1.46,0-2.23,1.26-2.38,2.58h4.68Z" transform="translate(-8 -28)"/><path class="cls-16" d="M171.44,161.51h1v6.19c0,2.31,1.08,3.21,2.93,3.21s2.94-.9,2.94-3.21v-6.19h1v6.4a3.89,3.89,0,0,1-7.77,0v-6.4Z" transform="translate(-8 -28)"/><path class="cls-16" d="M185.32,166.4a1.66,1.66,0,0,0-1.89-1.58,1.45,1.45,0,0,0-1.71,1.25c0,0.77.88,1.06,1.5,1.22l1.18,0.27a2.12,2.12,0,0,1,2.06,2c0,1.57-1.55,2.17-2.9,2.17-1.69,0-2.82-.77-3-2.55h0.88a1.9,1.9,0,0,0,2.13,1.81c0.84,0,2-.36,2-1.37,0-.84-0.78-1.12-1.58-1.32l-1.13-.25c-1.15-.29-2-0.71-2-1.93,0-1.47,1.44-2,2.72-2a2.37,2.37,0,0,1,2.65,2.33h-0.88Z" transform="translate(-8 -28)"/><path class="cls-16" d="M188.33,168.13c0,1.29.7,2.84,2.38,2.84a2.19,2.19,0,0,0,2.27-1.85h0.88a2.94,2.94,0,0,1-3.15,2.59c-2.3,0-3.26-1.76-3.26-3.82,0-1.91,1-3.82,3.26-3.82s3.25,2,3.18,4.06h-5.56Zm4.68-.74a2.44,2.44,0,0,0-2.3-2.58c-1.46,0-2.23,1.26-2.38,2.58H193Z" transform="translate(-8 -28)"/><path class="cls-16" d="M195.3,164.28h0.81V166h0a2.66,2.66,0,0,1,2.73-1.79v0.88a2.49,2.49,0,0,0-2.69,2.59v3.85H195.3v-7.23Z" transform="translate(-8 -28)"/><path class="cls-16" d="M202.31,164.28h1l2.27,6.35h0l2.24-6.35h0.91l-2.7,7.23H205.1Z" transform="translate(-8 -28)"/><path class="cls-16" d="M209.7,161.51h0.88v1.42H209.7v-1.42Zm0,2.77h0.88v7.23H209.7v-7.23Z" transform="translate(-8 -28)"/><path class="cls-16" d="M212.88,168.13c0,1.29.7,2.84,2.38,2.84a2.19,2.19,0,0,0,2.27-1.85h0.88a2.94,2.94,0,0,1-3.15,2.59c-2.3,0-3.26-1.76-3.26-3.82,0-1.91,1-3.82,3.26-3.82s3.25,2,3.18,4.06h-5.56Zm4.68-.74a2.44,2.44,0,0,0-2.3-2.58c-1.46,0-2.23,1.26-2.38,2.58h4.68Z" transform="translate(-8 -28)"/><path class="cls-16" d="M219.12,164.28h0.94l1.85,6.19h0l1.76-6.19h1l1.77,6.19h0l1.85-6.19h0.94L227,171.51h-1l-1.78-6.08h0l-1.77,6.08h-1Z" transform="translate(-8 -28)"/><path class="cls-16" d="M234.64,166.4a1.66,1.66,0,0,0-1.89-1.58,1.45,1.45,0,0,0-1.71,1.25c0,0.77.88,1.06,1.5,1.22l1.18,0.27a2.12,2.12,0,0,1,2.06,2c0,1.57-1.55,2.17-2.9,2.17-1.69,0-2.82-.77-3-2.55h0.88a1.9,1.9,0,0,0,2.13,1.81c0.84,0,2-.36,2-1.37,0-.84-0.78-1.12-1.58-1.32l-1.13-.25c-1.15-.29-2-0.71-2-1.93,0-1.47,1.44-2,2.72-2a2.37,2.37,0,0,1,2.65,2.33h-0.88Z" transform="translate(-8 -28)"/><path class="cls-16" d="M171.41,183.28h0.88v1.25h0a2.47,2.47,0,0,1,2.31-1.46c2,0,2.65,1.06,2.65,2.79v4.65H176.4V186c0-1.23-.41-2.19-1.83-2.19a2.28,2.28,0,0,0-2.27,2.48v4.22h-0.88v-7.23Z" transform="translate(-8 -28)"/><path class="cls-16" d="M185.5,186.89c0,2.07-1.22,3.82-3.42,3.82s-3.42-1.75-3.42-3.82,1.22-3.82,3.42-3.82S185.5,184.82,185.5,186.89Zm-6,0c0,1.53.85,3.08,2.54,3.08s2.54-1.55,2.54-3.08-0.85-3.08-2.54-3.08S179.55,185.37,179.55,186.89Z" transform="translate(-8 -28)"/><path class="cls-16" d="M188.3,183.28h1.47V184H188.3v4.87c0,0.57.08,0.91,0.71,1a6.89,6.89,0,0,0,.76,0v0.76l-0.78,0c-1.18,0-1.58-.39-1.57-1.62V184h-1.26v-0.74h1.26v-2.17h0.88v2.17Z" transform="translate(-8 -28)"/><path class="cls-16" d="M191.14,180.51H192v1.42h-0.88v-1.42Zm0,2.77H192v7.23h-0.88v-7.23Z" transform="translate(-8 -28)"/><path class="cls-16" d="M194.32,184h-1.23v-0.74h1.23v-0.66c0-1.25.32-2.12,1.75-2.12a4.53,4.53,0,0,1,.74.06v0.76a3.62,3.62,0,0,0-.64-0.07c-1,0-1,.63-1,1.4v0.63h1.43V184H195.2v6.49h-0.88V184Zm3.17-3.52h0.88v1.42h-0.88v-1.42Zm0,2.77h0.88v7.23h-0.88v-7.23Z" transform="translate(-8 -28)"/><path class="cls-16" d="M205.28,185.55a2,2,0,0,0-2-1.74c-1.68,0-2.54,1.56-2.54,3.08s0.85,3.08,2.54,3.08a2.17,2.17,0,0,0,2.1-2.06h0.88a2.92,2.92,0,0,1-3,2.8c-2.2,0-3.42-1.75-3.42-3.82s1.22-3.82,3.42-3.82a2.69,2.69,0,0,1,2.93,2.48h-0.88Z" transform="translate(-8 -28)"/><path class="cls-16" d="M207.55,185.49c0.1-1.69,1.26-2.42,2.93-2.42,1.27,0,2.66.38,2.66,2.33v3.84a0.46,0.46,0,0,0,.52.53,0.67,0.67,0,0,0,.28-0.06v0.74a2.5,2.5,0,0,1-.57.06c-0.9,0-1-.52-1-1.26h0a2.76,2.76,0,0,1-2.63,1.47c-1.34,0-2.42-.66-2.42-2.12,0-2,2-2.1,3.88-2.33,0.73-.07,1.13-0.2,1.13-1,0-1.19-.84-1.48-1.89-1.48a1.68,1.68,0,0,0-1.93,1.68h-0.88Zm4.71,1.06h0a1.11,1.11,0,0,1-.74.32c-1.5.27-3.36,0.27-3.36,1.67a1.5,1.5,0,0,0,1.61,1.43,2.32,2.32,0,0,0,2.52-2.27v-1.15Z" transform="translate(-8 -28)"/><path class="cls-16" d="M216.38,183.28h1.47V184h-1.47v4.87c0,0.57.08,0.91,0.71,1a6.88,6.88,0,0,0,.76,0v0.76l-0.78,0c-1.18,0-1.58-.39-1.57-1.62V184h-1.26v-0.74h1.26v-2.17h0.88v2.17Z" transform="translate(-8 -28)"/><path class="cls-16" d="M219.22,180.51h0.88v1.42h-0.88v-1.42Zm0,2.77h0.88v7.23h-0.88v-7.23Z" transform="translate(-8 -28)"/><path class="cls-16" d="M228.35,186.89c0,2.07-1.22,3.82-3.42,3.82s-3.42-1.75-3.42-3.82,1.22-3.82,3.42-3.82S228.35,184.82,228.35,186.89Zm-6,0c0,1.53.85,3.08,2.54,3.08s2.54-1.55,2.54-3.08-0.85-3.08-2.54-3.08S222.4,185.37,222.4,186.89Z" transform="translate(-8 -28)"/><path class="cls-16" d="M229.74,183.28h0.88v1.25h0a2.47,2.47,0,0,1,2.31-1.46c2,0,2.65,1.06,2.65,2.79v4.65h-0.88V186c0-1.23-.41-2.19-1.83-2.19a2.28,2.28,0,0,0-2.27,2.48v4.22h-0.88v-7.23Z" transform="translate(-8 -28)"/><path class="cls-16" d="M342.85,164.53a3,3,0,0,0-3.07-2.42c-2.65,0-3.77,2.21-3.77,4.4s1.12,4.4,3.77,4.4A3.27,3.27,0,0,0,343,167.7h1c-0.27,2.47-1.82,4-4.16,4-3.15,0-4.72-2.47-4.72-5.21s1.57-5.21,4.72-5.21a3.84,3.84,0,0,1,4,3.24h-1Z" transform="translate(-8 -28)"/><path class="cls-16" d="M351.11,171.51H350.3v-1.3h0a2.69,2.69,0,0,1-2.49,1.51c-1.83,0-2.54-1.05-2.54-2.75v-4.69h0.88V169c0,1.3.53,2,1.93,2s2.17-1.43,2.17-2.9v-3.8h0.88v7.23Z" transform="translate(-8 -28)"/><path class="cls-16" d="M357.19,166.4a1.66,1.66,0,0,0-1.89-1.58,1.45,1.45,0,0,0-1.71,1.25c0,0.77.88,1.06,1.5,1.22l1.18,0.27a2.12,2.12,0,0,1,2.06,2c0,1.57-1.55,2.17-2.9,2.17-1.69,0-2.82-.77-3-2.55h0.88a1.9,1.9,0,0,0,2.13,1.81c0.84,0,2-.36,2-1.37,0-.84-0.78-1.12-1.58-1.32l-1.13-.25c-1.15-.29-2-0.71-2-1.93,0-1.47,1.44-2,2.72-2a2.37,2.37,0,0,1,2.65,2.33h-0.88Z" transform="translate(-8 -28)"/><path class="cls-16" d="M361.08,164.28h1.47V165h-1.47v4.87c0,0.57.08,0.91,0.71,1a6.88,6.88,0,0,0,.76,0v0.76l-0.78,0c-1.18,0-1.58-.39-1.57-1.62V165h-1.26v-0.74h1.26v-2.17h0.88v2.17Z" transform="translate(-8 -28)"/><path class="cls-16" d="M370.37,167.89c0,2.07-1.22,3.82-3.42,3.82s-3.42-1.75-3.42-3.82,1.22-3.82,3.42-3.82S370.37,165.82,370.37,167.89Zm-6,0c0,1.53.85,3.08,2.54,3.08s2.54-1.55,2.54-3.08-0.85-3.08-2.54-3.08S364.42,166.37,364.42,167.89Z" transform="translate(-8 -28)"/><path class="cls-16" d="M371.77,164.28h0.81v1.22h0a2.49,2.49,0,0,1,2.37-1.43,2,2,0,0,1,2.07,1.41,2.44,2.44,0,0,1,2.3-1.41c1.6,0,2.4.84,2.4,2.54v4.9h-0.88v-4.86c0-1.19-.43-1.83-1.71-1.83-1.53,0-2,1.26-2,2.61v4.09h-0.88v-4.9c0-1-.38-1.79-1.51-1.79-1.51,0-2.16,1.15-2.16,2.66v4h-0.88v-7.23Z" transform="translate(-8 -28)"/><path class="cls-16" d="M384,168.13c0,1.29.7,2.84,2.38,2.84a2.19,2.19,0,0,0,2.27-1.85h0.88a2.94,2.94,0,0,1-3.15,2.59c-2.3,0-3.26-1.76-3.26-3.82,0-1.91,1-3.82,3.26-3.82s3.25,2,3.18,4.06H384Zm4.68-.74a2.44,2.44,0,0,0-2.3-2.58c-1.46,0-2.23,1.26-2.38,2.58h4.68Z" transform="translate(-8 -28)"/><path class="cls-16" d="M391,164.28h0.81V166h0a2.66,2.66,0,0,1,2.73-1.79v0.88a2.49,2.49,0,0,0-2.69,2.59v3.85H391v-7.23Z" transform="translate(-8 -28)"/><path class="cls-16" d="M403.16,166.4a1.66,1.66,0,0,0-1.89-1.58,1.45,1.45,0,0,0-1.71,1.25c0,0.77.88,1.06,1.5,1.22l1.18,0.27a2.12,2.12,0,0,1,2.06,2c0,1.57-1.55,2.17-2.9,2.17-1.69,0-2.82-.77-3-2.55h0.88a1.9,1.9,0,0,0,2.13,1.81c0.84,0,2-.36,2-1.37,0-.84-0.78-1.12-1.58-1.32L400.7,168c-1.15-.29-2-0.71-2-1.93,0-1.47,1.44-2,2.72-2A2.37,2.37,0,0,1,404,166.4h-0.88Z" transform="translate(-8 -28)"/><path class="cls-16" d="M406.17,168.13c0,1.29.7,2.84,2.38,2.84a2.19,2.19,0,0,0,2.27-1.85h0.88a2.94,2.94,0,0,1-3.15,2.59c-2.3,0-3.26-1.76-3.26-3.82,0-1.91,1-3.82,3.26-3.82s3.25,2,3.18,4.06h-5.56Zm4.68-.74a2.44,2.44,0,0,0-2.3-2.58c-1.46,0-2.23,1.26-2.38,2.58h4.68Z" transform="translate(-8 -28)"/><path class="cls-16" d="M413.15,161.51H414v10h-0.88v-10Z" transform="translate(-8 -28)"/><path class="cls-16" d="M416.33,168.13c0,1.29.7,2.84,2.38,2.84a2.19,2.19,0,0,0,2.27-1.85h0.88a2.94,2.94,0,0,1-3.15,2.59c-2.3,0-3.26-1.76-3.26-3.82,0-1.91,1-3.82,3.26-3.82s3.25,2,3.18,4.06h-5.56Zm4.68-.74a2.44,2.44,0,0,0-2.3-2.58c-1.46,0-2.23,1.26-2.38,2.58H421Z" transform="translate(-8 -28)"/><path class="cls-16" d="M428.4,166.55a2,2,0,0,0-2-1.74c-1.68,0-2.54,1.56-2.54,3.08s0.85,3.08,2.54,3.08a2.17,2.17,0,0,0,2.1-2.06h0.88a2.92,2.92,0,0,1-3,2.8c-2.2,0-3.42-1.75-3.42-3.82s1.22-3.82,3.42-3.82a2.69,2.69,0,0,1,2.93,2.48H428.4Z" transform="translate(-8 -28)"/><path class="cls-16" d="M432.15,164.28h1.47V165h-1.47v4.87c0,0.57.08,0.91,0.71,1a6.89,6.89,0,0,0,.76,0v0.76l-0.78,0c-1.18,0-1.58-.39-1.57-1.62V165H430v-0.74h1.26v-2.17h0.88v2.17Z" transform="translate(-8 -28)"/><path class="cls-16" d="M439.31,166.4a1.66,1.66,0,0,0-1.89-1.58,1.45,1.45,0,0,0-1.71,1.25c0,0.77.88,1.06,1.5,1.22l1.18,0.27a2.12,2.12,0,0,1,2.06,2c0,1.57-1.55,2.17-2.9,2.17-1.69,0-2.82-.77-3-2.55h0.88a1.9,1.9,0,0,0,2.13,1.81c0.84,0,2-.36,2-1.37,0-.84-0.78-1.12-1.58-1.32l-1.13-.25c-1.15-.29-2-0.71-2-1.93,0-1.47,1.44-2,2.72-2a2.37,2.37,0,0,1,2.65,2.33h-0.88Z" transform="translate(-8 -28)"/><path class="cls-16" d="M341.28,190.51h-0.81v-1.3h0a2.69,2.69,0,0,1-2.49,1.51c-1.83,0-2.54-1.05-2.54-2.75v-4.69h0.88V188c0,1.3.53,2,1.93,2s2.17-1.43,2.17-2.9v-3.8h0.88v7.23Z" transform="translate(-8 -28)"/><path class="cls-16" d="M343,183.28h0.88v1.25h0a2.47,2.47,0,0,1,2.31-1.46c2,0,2.65,1.06,2.65,2.79v4.65H348V186c0-1.23-.41-2.19-1.83-2.19a2.28,2.28,0,0,0-2.27,2.48v4.22H343v-7.23Z" transform="translate(-8 -28)"/><path class="cls-16" d="M350.55,185.49c0.1-1.69,1.26-2.42,2.93-2.42,1.27,0,2.66.38,2.66,2.33v3.84a0.46,0.46,0,0,0,.52.53,0.67,0.67,0,0,0,.28-0.06v0.74a2.5,2.5,0,0,1-.57.06c-0.9,0-1-.52-1-1.26h0a2.76,2.76,0,0,1-2.63,1.47c-1.34,0-2.42-.66-2.42-2.12,0-2,2-2.1,3.88-2.33,0.73-.07,1.13-0.2,1.13-1,0-1.19-.84-1.48-1.89-1.48a1.68,1.68,0,0,0-1.93,1.68h-0.88Zm4.71,1.06h0a1.11,1.11,0,0,1-.74.32c-1.5.27-3.36,0.27-3.36,1.67a1.5,1.5,0,0,0,1.61,1.43,2.32,2.32,0,0,0,2.52-2.27v-1.15Z" transform="translate(-8 -28)"/><path class="cls-16" d="M357.17,183.28h1l2.27,6.35h0l2.24-6.35h0.91l-2.7,7.23H360Z" transform="translate(-8 -28)"/><path class="cls-16" d="M364.46,185.49c0.1-1.69,1.26-2.42,2.93-2.42,1.27,0,2.66.38,2.66,2.33v3.84a0.46,0.46,0,0,0,.52.53,0.67,0.67,0,0,0,.28-0.06v0.74a2.5,2.5,0,0,1-.57.06c-0.9,0-1-.52-1-1.26h0a2.76,2.76,0,0,1-2.63,1.47c-1.34,0-2.42-.66-2.42-2.12,0-2,2-2.1,3.88-2.33,0.73-.07,1.13-0.2,1.13-1,0-1.19-.84-1.48-1.89-1.48a1.68,1.68,0,0,0-1.93,1.68h-0.88Zm4.71,1.06h0a1.11,1.11,0,0,1-.74.32c-1.5.27-3.36,0.27-3.36,1.67a1.5,1.5,0,0,0,1.61,1.43,2.32,2.32,0,0,0,2.52-2.27v-1.15Z" transform="translate(-8 -28)"/><path class="cls-16" d="M371.91,180.51h0.88v1.42h-0.88v-1.42Zm0,2.77h0.88v7.23h-0.88v-7.23Z" transform="translate(-8 -28)"/><path class="cls-16" d="M374.58,180.51h0.88v10h-0.88v-10Z" transform="translate(-8 -28)"/><path class="cls-16" d="M377.16,185.49c0.1-1.69,1.26-2.42,2.93-2.42,1.27,0,2.66.38,2.66,2.33v3.84a0.46,0.46,0,0,0,.52.53,0.67,0.67,0,0,0,.28-0.06v0.74a2.5,2.5,0,0,1-.57.06c-0.9,0-1-.52-1-1.26h0a2.76,2.76,0,0,1-2.63,1.47c-1.34,0-2.42-.66-2.42-2.12,0-2,2-2.1,3.88-2.33,0.73-.07,1.13-0.2,1.13-1,0-1.19-.84-1.48-1.89-1.48a1.68,1.68,0,0,0-1.93,1.68h-0.88Zm4.71,1.06h0a1.11,1.11,0,0,1-.74.32c-1.5.27-3.36,0.27-3.36,1.67a1.5,1.5,0,0,0,1.61,1.43,2.32,2.32,0,0,0,2.52-2.27v-1.15Z" transform="translate(-8 -28)"/><path class="cls-16" d="M384.59,180.51h0.88v4.15h0a2.58,2.58,0,0,1,2.51-1.58c2.2,0,3.25,1.77,3.25,3.82s-1.05,3.82-3.25,3.82a2.67,2.67,0,0,1-2.58-1.58h0v1.37h-0.81v-10Zm3.42,3.31c-1.86,0-2.54,1.58-2.54,3.08S386.15,190,388,190c1.68,0,2.37-1.58,2.37-3.08S389.69,183.81,388,183.81Z" transform="translate(-8 -28)"/><path class="cls-16" d="M392.73,180.51h0.88v10h-0.88v-10Z" transform="translate(-8 -28)"/><path class="cls-16" d="M395.91,187.13c0,1.29.7,2.84,2.38,2.84a2.19,2.19,0,0,0,2.27-1.85h0.88a2.94,2.94,0,0,1-3.15,2.59c-2.3,0-3.26-1.76-3.26-3.82,0-1.91,1-3.82,3.26-3.82s3.25,2,3.18,4.06h-5.56Zm4.68-.74a2.44,2.44,0,0,0-2.3-2.58c-1.46,0-2.23,1.26-2.38,2.58h4.68Z" transform="translate(-8 -28)"/><path class="cls-16" d="M412.57,190.51h-0.81v-1.37h0a2.84,2.84,0,0,1-2.58,1.58c-2.2,0-3.25-1.76-3.25-3.82s1.05-3.82,3.25-3.82a2.58,2.58,0,0,1,2.51,1.58h0v-4.15h0.88v10Zm-3.42-.53c1.86,0,2.54-1.58,2.54-3.08s-0.67-3.08-2.54-3.08c-1.68,0-2.37,1.58-2.37,3.08S407.47,190,409.15,190Z" transform="translate(-8 -28)"/><path class="cls-16" d="M414.25,185.49c0.1-1.69,1.26-2.42,2.93-2.42,1.27,0,2.66.38,2.66,2.33v3.84a0.46,0.46,0,0,0,.52.53,0.67,0.67,0,0,0,.28-0.06v0.74a2.5,2.5,0,0,1-.57.06c-0.9,0-1-.52-1-1.26h0a2.76,2.76,0,0,1-2.63,1.47c-1.34,0-2.42-.66-2.42-2.12,0-2,2-2.1,3.88-2.33,0.73-.07,1.13-0.2,1.13-1,0-1.19-.84-1.48-1.89-1.48a1.68,1.68,0,0,0-1.93,1.68h-0.88Zm4.71,1.06h0a1.11,1.11,0,0,1-.74.32c-1.5.27-3.36,0.27-3.36,1.67a1.5,1.5,0,0,0,1.61,1.43,2.32,2.32,0,0,0,2.52-2.27v-1.15Z" transform="translate(-8 -28)"/><path class="cls-16" d="M423.08,183.28h1.47V184h-1.47v4.87c0,0.57.08,0.91,0.71,1a6.88,6.88,0,0,0,.76,0v0.76l-0.78,0c-1.18,0-1.58-.39-1.57-1.62V184h-1.26v-0.74h1.26v-2.17h0.88v2.17Z" transform="translate(-8 -28)"/><path class="cls-16" d="M426.43,187.13c0,1.29.7,2.84,2.38,2.84a2.19,2.19,0,0,0,2.27-1.85H432a2.94,2.94,0,0,1-3.15,2.59c-2.3,0-3.26-1.76-3.26-3.82,0-1.91,1-3.82,3.26-3.82s3.25,2,3.18,4.06h-5.56Zm4.68-.74a2.44,2.44,0,0,0-2.3-2.58c-1.46,0-2.23,1.26-2.38,2.58h4.68Z" transform="translate(-8 -28)"/><path class="cls-16" d="M437.73,185.4a1.66,1.66,0,0,0-1.89-1.58,1.45,1.45,0,0,0-1.71,1.25c0,0.77.88,1.06,1.5,1.22l1.18,0.27a2.12,2.12,0,0,1,2.06,2c0,1.57-1.55,2.17-2.9,2.17-1.69,0-2.82-.77-3-2.55h0.88A1.9,1.9,0,0,0,436,190c0.84,0,2-.36,2-1.37,0-.84-0.78-1.12-1.58-1.32l-1.13-.25c-1.15-.29-2-0.71-2-1.93,0-1.47,1.44-2,2.72-2a2.37,2.37,0,0,1,2.65,2.33h-0.88Z" transform="translate(-8 -28)"/><path class="cls-16" d="M446.33,184h-1.43v6.49H444V184h-1.23v-0.74H444v-0.66c0-1.25.32-2.12,1.75-2.12a4.53,4.53,0,0,1,.74.06v0.76a3.62,3.62,0,0,0-.64-0.07c-1,0-1,.63-1,1.4v0.63h1.43V184Z" transform="translate(-8 -28)"/><path class="cls-16" d="M453.73,186.89c0,2.07-1.22,3.82-3.42,3.82s-3.42-1.75-3.42-3.82,1.22-3.82,3.42-3.82S453.73,184.82,453.73,186.89Zm-6,0c0,1.53.85,3.08,2.54,3.08s2.54-1.55,2.54-3.08-0.85-3.08-2.54-3.08S447.78,185.37,447.78,186.89Z" transform="translate(-8 -28)"/><path class="cls-16" d="M455.13,183.28h0.81V185h0a2.66,2.66,0,0,1,2.73-1.79v0.88a2.49,2.49,0,0,0-2.69,2.59v3.85h-0.88v-7.23Z" transform="translate(-8 -28)"/><path class="cls-16" d="M336.83,202.28h1.47V203h-1.47v4.87c0,0.57.08,0.91,0.71,1a6.88,6.88,0,0,0,.76,0v0.76l-0.78,0c-1.18,0-1.58-.39-1.57-1.62V203h-1.26v-0.74h1.26v-2.17h0.88v2.17Z" transform="translate(-8 -28)"/><path class="cls-16" d="M339.64,199.51h0.88v4h0a2.47,2.47,0,0,1,2.31-1.46c2,0,2.65,1.06,2.65,2.79v4.65h-0.88V205c0-1.23-.41-2.19-1.83-2.19a2.28,2.28,0,0,0-2.27,2.48v4.22h-0.88v-10Z" transform="translate(-8 -28)"/><path class="cls-16" d="M347.78,206.13c0,1.29.7,2.84,2.38,2.84a2.19,2.19,0,0,0,2.27-1.85h0.88a2.94,2.94,0,0,1-3.15,2.59c-2.3,0-3.26-1.76-3.26-3.82,0-1.91,1-3.82,3.26-3.82s3.25,2,3.18,4.06h-5.56Zm4.68-.74a2.44,2.44,0,0,0-2.3-2.58c-1.46,0-2.23,1.26-2.38,2.58h4.68Z" transform="translate(-8 -28)"/><path class="cls-16" d="M363.93,209.51h-0.81v-1.3h0a2.69,2.69,0,0,1-2.49,1.51c-1.83,0-2.54-1.05-2.54-2.75v-4.69h0.88V207c0,1.3.53,2,1.93,2s2.17-1.43,2.17-2.9v-3.8h0.88v7.23Z" transform="translate(-8 -28)"/><path class="cls-16" d="M365.68,202.28h0.81v1.37h0a2.67,2.67,0,0,1,2.58-1.58c2.2,0,3.25,1.77,3.25,3.82s-1.05,3.82-3.25,3.82a2.57,2.57,0,0,1-2.51-1.58h0v4h-0.88v-9.9Zm3.42,0.53c-2,0-2.54,1.44-2.54,3.08s0.67,3.08,2.54,3.08c1.68,0,2.37-1.58,2.37-3.08S370.78,202.81,369.1,202.81Z" transform="translate(-8 -28)"/><path class="cls-16" d="M380.16,209.51h-0.81v-1.37h0a2.84,2.84,0,0,1-2.58,1.58c-2.2,0-3.25-1.76-3.25-3.82s1.05-3.82,3.25-3.82a2.58,2.58,0,0,1,2.51,1.58h0v-4.15h0.88v10Zm-3.42-.53c1.86,0,2.54-1.58,2.54-3.08s-0.67-3.08-2.54-3.08c-1.68,0-2.37,1.58-2.37,3.08S375.06,209,376.74,209Z" transform="translate(-8 -28)"/><path class="cls-16" d="M381.84,204.49c0.1-1.69,1.26-2.42,2.93-2.42,1.27,0,2.66.38,2.66,2.33v3.84a0.46,0.46,0,0,0,.52.53,0.67,0.67,0,0,0,.28-0.06v0.74a2.5,2.5,0,0,1-.57.06c-0.9,0-1-.52-1-1.26h0a2.76,2.76,0,0,1-2.63,1.47c-1.34,0-2.42-.66-2.42-2.12,0-2,2-2.1,3.88-2.33,0.73-.07,1.13-0.2,1.13-1,0-1.19-.84-1.48-1.89-1.48a1.68,1.68,0,0,0-1.93,1.68h-0.88Zm4.71,1.06h0a1.11,1.11,0,0,1-.74.32c-1.5.27-3.36,0.27-3.36,1.67A1.5,1.5,0,0,0,384,209a2.32,2.32,0,0,0,2.52-2.27v-1.15Z" transform="translate(-8 -28)"/><path class="cls-16" d="M390.67,202.28h1.47V203h-1.47v4.87c0,0.57.08,0.91,0.71,1a6.89,6.89,0,0,0,.76,0v0.76l-0.78,0c-1.18,0-1.58-.39-1.57-1.62V203h-1.26v-0.74h1.26v-2.17h0.88v2.17Z" transform="translate(-8 -28)"/><path class="cls-16" d="M394,206.13c0,1.29.7,2.84,2.38,2.84a2.19,2.19,0,0,0,2.27-1.85h0.88a2.94,2.94,0,0,1-3.15,2.59c-2.3,0-3.26-1.76-3.26-3.82,0-1.91,1-3.82,3.26-3.82s3.25,2,3.18,4.06H394Zm4.68-.74a2.44,2.44,0,0,0-2.3-2.58c-1.46,0-2.23,1.26-2.38,2.58h4.68Z" transform="translate(-8 -28)"/><path class="cls-16" d="M499.16,161.51h1v10h-1v-10Z" transform="translate(-8 -28)"/><path class="cls-16" d="M502.17,161.51h4.23c1.68,0,3.21.59,3.21,2.45a2.27,2.27,0,0,1-1.74,2.24v0a2.34,2.34,0,0,1,2.12,2.44c0,1-.34,2.84-3.59,2.84h-4.23v-10Zm1,4.38h3.28c1.51,0,2.25-.76,2.25-1.69,0-1.25-.76-1.88-2.25-1.88h-3.28v3.57Zm0,4.8h3.28c1.42,0,2.63-.43,2.63-2.06,0-1.29-1-1.93-2.63-1.93h-3.28v4Z" transform="translate(-8 -28)"/><path class="cls-16" d="M511.45,161.51h1.4l3.46,8.77,3.45-8.77h1.4v10h-1v-8.64h0l-3.42,8.64h-0.9l-3.43-8.64h0v8.64h-1v-10Z" transform="translate(-8 -28)"/><path class="cls-16" d="M531.43,166.55a2,2,0,0,0-2-1.74c-1.68,0-2.54,1.56-2.54,3.08s0.85,3.08,2.54,3.08a2.17,2.17,0,0,0,2.1-2.06h0.88a2.92,2.92,0,0,1-3,2.8c-2.2,0-3.42-1.75-3.42-3.82s1.22-3.82,3.42-3.82a2.69,2.69,0,0,1,2.93,2.48h-0.88Z" transform="translate(-8 -28)"/><path class="cls-16" d="M540.25,167.89c0,2.07-1.22,3.82-3.42,3.82s-3.42-1.75-3.42-3.82,1.22-3.82,3.42-3.82S540.25,165.82,540.25,167.89Zm-6,0c0,1.53.85,3.08,2.54,3.08s2.54-1.55,2.54-3.08-0.85-3.08-2.54-3.08S534.3,166.37,534.3,167.89Z" transform="translate(-8 -28)"/><path class="cls-16" d="M541.63,164.28h0.88v1.25h0a2.47,2.47,0,0,1,2.31-1.46c2,0,2.65,1.06,2.65,2.79v4.65h-0.88V167c0-1.23-.41-2.19-1.83-2.19a2.28,2.28,0,0,0-2.27,2.48v4.22h-0.88v-7.23Z" transform="translate(-8 -28)"/><path class="cls-16" d="M549.77,165h-1.23v-0.74h1.23v-0.66c0-1.25.32-2.12,1.75-2.12a4.54,4.54,0,0,1,.74.06v0.76a3.62,3.62,0,0,0-.64-0.07c-1,0-1,.63-1,1.4v0.63h1.43V165h-1.43v6.49h-0.88V165Zm3.17-3.52h0.88v1.42h-0.88v-1.42Zm0,2.77h0.88v7.23h-0.88v-7.23Z" transform="translate(-8 -28)"/><path class="cls-16" d="M555.63,164.28h0.81V166h0a2.66,2.66,0,0,1,2.73-1.79v0.88a2.49,2.49,0,0,0-2.69,2.59v3.85h-0.88v-7.23Z" transform="translate(-8 -28)"/><path class="cls-16" d="M560.13,164.28h0.81v1.22h0a2.49,2.49,0,0,1,2.37-1.43,2,2,0,0,1,2.07,1.41,2.44,2.44,0,0,1,2.3-1.41c1.6,0,2.4.84,2.4,2.54v4.9h-0.88v-4.86c0-1.19-.43-1.83-1.71-1.83-1.53,0-2,1.26-2,2.61v4.09h-0.88v-4.9c0-1-.38-1.79-1.51-1.79-1.51,0-2.16,1.15-2.16,2.66v4h-0.88v-7.23Z" transform="translate(-8 -28)"/><path class="cls-16" d="M576.2,166.4a1.66,1.66,0,0,0-1.89-1.58,1.45,1.45,0,0,0-1.71,1.25c0,0.77.88,1.06,1.5,1.22l1.18,0.27a2.12,2.12,0,0,1,2.06,2c0,1.57-1.55,2.17-2.9,2.17-1.7,0-2.82-.77-3-2.55h0.88a1.9,1.9,0,0,0,2.13,1.81c0.84,0,2-.36,2-1.37,0-.84-0.78-1.12-1.58-1.32l-1.13-.25c-1.15-.29-2-0.71-2-1.93,0-1.47,1.44-2,2.72-2a2.37,2.37,0,0,1,2.65,2.33H576.2Z" transform="translate(-8 -28)"/><path class="cls-16" d="M500.38,183.28h1.47V184h-1.47v4.87c0,0.57.08,0.91,0.71,1a6.88,6.88,0,0,0,.76,0v0.76l-0.78,0c-1.18,0-1.58-.39-1.57-1.62V184h-1.26v-0.74h1.26v-2.17h0.88v2.17Z" transform="translate(-8 -28)"/><path class="cls-16" d="M503.19,180.51h0.88v4h0a2.47,2.47,0,0,1,2.31-1.46c2,0,2.65,1.06,2.65,2.79v4.65h-0.88V186c0-1.23-.41-2.19-1.83-2.19a2.28,2.28,0,0,0-2.27,2.48v4.22h-0.88v-10Z" transform="translate(-8 -28)"/><path class="cls-16" d="M511.32,187.13c0,1.29.7,2.84,2.38,2.84a2.19,2.19,0,0,0,2.27-1.85h0.88a2.94,2.94,0,0,1-3.15,2.59c-2.3,0-3.26-1.76-3.26-3.82,0-1.91,1-3.82,3.26-3.82s3.25,2,3.18,4.06h-5.56Zm4.68-.74a2.44,2.44,0,0,0-2.3-2.58c-1.46,0-2.23,1.26-2.38,2.58H516Z" transform="translate(-8 -28)"/><path class="cls-16" d="M526,185.4a1.66,1.66,0,0,0-1.89-1.58,1.45,1.45,0,0,0-1.71,1.25c0,0.77.88,1.06,1.5,1.22l1.18,0.27a2.12,2.12,0,0,1,2.06,2c0,1.57-1.55,2.17-2.9,2.17-1.69,0-2.82-.77-3-2.55h0.88a1.9,1.9,0,0,0,2.13,1.81c0.84,0,2-.36,2-1.37,0-.84-0.78-1.12-1.58-1.32l-1.13-.25c-1.15-.29-2-0.71-2-1.93,0-1.47,1.44-2,2.72-2a2.37,2.37,0,0,1,2.65,2.33H526Z" transform="translate(-8 -28)"/><path class="cls-16" d="M533.54,185.55a2,2,0,0,0-2-1.74c-1.68,0-2.54,1.56-2.54,3.08s0.85,3.08,2.54,3.08a2.17,2.17,0,0,0,2.1-2.06h0.88a2.92,2.92,0,0,1-3,2.8c-2.2,0-3.42-1.75-3.42-3.82s1.22-3.82,3.42-3.82a2.69,2.69,0,0,1,2.93,2.48h-0.88Z" transform="translate(-8 -28)"/><path class="cls-16" d="M535.88,180.51h0.88v4h0a2.47,2.47,0,0,1,2.31-1.46c2,0,2.65,1.06,2.65,2.79v4.65h-0.88V186c0-1.23-.41-2.19-1.83-2.19a2.28,2.28,0,0,0-2.27,2.48v4.22h-0.88v-10Z" transform="translate(-8 -28)"/><path class="cls-16" d="M544,187.13c0,1.29.7,2.84,2.38,2.84a2.19,2.19,0,0,0,2.27-1.85h0.88a2.94,2.94,0,0,1-3.15,2.59c-2.3,0-3.26-1.76-3.26-3.82,0-1.91,1-3.82,3.26-3.82s3.25,2,3.18,4.06H544Zm4.68-.74a2.44,2.44,0,0,0-2.3-2.58c-1.46,0-2.23,1.26-2.38,2.58h4.68Z" transform="translate(-8 -28)"/><path class="cls-16" d="M557.34,190.51h-0.81v-1.37h0a2.84,2.84,0,0,1-2.58,1.58c-2.2,0-3.25-1.76-3.25-3.82s1.05-3.82,3.25-3.82a2.58,2.58,0,0,1,2.51,1.58h0v-4.15h0.88v10Zm-3.42-.53c1.86,0,2.54-1.58,2.54-3.08s-0.67-3.08-2.54-3.08c-1.68,0-2.37,1.58-2.37,3.08S552.25,190,553.93,190Z" transform="translate(-8 -28)"/><path class="cls-16" d="M565,190.51h-0.81v-1.3h0a2.69,2.69,0,0,1-2.49,1.51c-1.83,0-2.54-1.05-2.54-2.75v-4.69H560V188c0,1.3.53,2,1.93,2s2.17-1.43,2.17-2.9v-3.8H565v7.23Z" transform="translate(-8 -28)"/><path class="cls-16" d="M566.72,180.51h0.88v10h-0.88v-10Z" transform="translate(-8 -28)"/><path class="cls-16" d="M569.9,187.13c0,1.29.7,2.84,2.38,2.84a2.19,2.19,0,0,0,2.27-1.85h0.88a2.94,2.94,0,0,1-3.15,2.59c-2.3,0-3.26-1.76-3.26-3.82,0-1.91,1-3.82,3.26-3.82s3.25,2,3.18,4.06H569.9Zm4.68-.74a2.44,2.44,0,0,0-2.3-2.58c-1.46,0-2.23,1.26-2.38,2.58h4.68Z" transform="translate(-8 -28)"/><path class="cls-16" d="M583.23,190.51h-0.81v-1.37h0a2.84,2.84,0,0,1-2.58,1.58c-2.2,0-3.25-1.76-3.25-3.82s1.05-3.82,3.25-3.82a2.58,2.58,0,0,1,2.51,1.58h0v-4.15h0.88v10Zm-3.42-.53c1.86,0,2.54-1.58,2.54-3.08s-0.67-3.08-2.54-3.08c-1.68,0-2.37,1.58-2.37,3.08S578.13,190,579.81,190Z" transform="translate(-8 -28)"/><path class="cls-16" d="M505.33,209.51h-0.81v-1.37h0a2.84,2.84,0,0,1-2.58,1.58c-2.2,0-3.25-1.76-3.25-3.82s1.05-3.82,3.25-3.82a2.58,2.58,0,0,1,2.51,1.58h0v-4.15h0.88v10Zm-3.42-.53c1.86,0,2.54-1.58,2.54-3.08s-0.67-3.08-2.54-3.08c-1.68,0-2.37,1.58-2.37,3.08S500.24,209,501.92,209Z" transform="translate(-8 -28)"/><path class="cls-16" d="M507,204.49c0.1-1.69,1.26-2.42,2.93-2.42,1.27,0,2.66.38,2.66,2.33v3.84a0.46,0.46,0,0,0,.52.53,0.67,0.67,0,0,0,.28-0.06v0.74a2.5,2.5,0,0,1-.57.06c-0.9,0-1-.52-1-1.26h0a2.76,2.76,0,0,1-2.63,1.47c-1.34,0-2.42-.66-2.42-2.12,0-2,2-2.1,3.88-2.33,0.73-.07,1.13-0.2,1.13-1,0-1.19-.84-1.48-1.89-1.48a1.68,1.68,0,0,0-1.93,1.68H507Zm4.71,1.06h0a1.1,1.1,0,0,1-.74.32c-1.5.27-3.36,0.27-3.36,1.67A1.5,1.5,0,0,0,509.2,209a2.32,2.32,0,0,0,2.52-2.27v-1.15Z" transform="translate(-8 -28)"/><path class="cls-16" d="M515.85,202.28h1.47V203h-1.47v4.87c0,0.57.08,0.91,0.71,1a6.88,6.88,0,0,0,.76,0v0.76l-0.78,0c-1.18,0-1.58-.39-1.57-1.62V203H513.7v-0.74H515v-2.17h0.88v2.17Z" transform="translate(-8 -28)"/><path class="cls-16" d="M519.19,206.13c0,1.29.7,2.84,2.38,2.84a2.19,2.19,0,0,0,2.27-1.85h0.88a2.94,2.94,0,0,1-3.15,2.59c-2.3,0-3.26-1.76-3.26-3.82,0-1.91,1-3.82,3.26-3.82s3.25,2,3.18,4.06h-5.56Zm4.68-.74a2.44,2.44,0,0,0-2.3-2.58c-1.46,0-2.23,1.26-2.38,2.58h4.68Z" transform="translate(-8 -28)"/><path class="cls-16" d="M532.28,203h-1.43v6.49H530V203h-1.23v-0.74H530v-0.66c0-1.25.32-2.12,1.75-2.12a4.54,4.54,0,0,1,.74.06v0.76a3.62,3.62,0,0,0-.64-0.07c-1,0-1,.63-1,1.4v0.63h1.43V203Z" transform="translate(-8 -28)"/><path class="cls-16" d="M539.68,205.89c0,2.07-1.22,3.82-3.42,3.82s-3.42-1.75-3.42-3.82,1.22-3.82,3.42-3.82S539.68,203.82,539.68,205.89Zm-6,0c0,1.53.85,3.08,2.54,3.08s2.54-1.55,2.54-3.08-0.85-3.08-2.54-3.08S533.72,204.37,533.72,205.89Z" transform="translate(-8 -28)"/><path class="cls-16" d="M541.07,202.28h0.81V204h0a2.66,2.66,0,0,1,2.73-1.79v0.88a2.49,2.49,0,0,0-2.69,2.59v3.85h-0.88v-7.23Z" transform="translate(-8 -28)"/><path class="cls-16" d="M550.3,202.28h1.47V203H550.3v4.87c0,0.57.08,0.91,0.71,1a6.88,6.88,0,0,0,.76,0v0.76l-0.78,0c-1.18,0-1.58-.39-1.57-1.62V203h-1.26v-0.74h1.26v-2.17h0.88v2.17Z" transform="translate(-8 -28)"/><path class="cls-16" d="M553.11,199.51H554v4h0a2.47,2.47,0,0,1,2.31-1.46c2,0,2.65,1.06,2.65,2.79v4.65H558.1V205c0-1.23-.41-2.19-1.83-2.19a2.28,2.28,0,0,0-2.27,2.48v4.22h-0.88v-10Z" transform="translate(-8 -28)"/><path class="cls-16" d="M561.25,206.13c0,1.29.7,2.84,2.38,2.84a2.19,2.19,0,0,0,2.27-1.85h0.88a2.94,2.94,0,0,1-3.15,2.59c-2.3,0-3.26-1.76-3.26-3.82,0-1.91,1-3.82,3.26-3.82s3.25,2,3.18,4.06h-5.56Zm4.68-.74a2.44,2.44,0,0,0-2.3-2.58c-1.46,0-2.23,1.26-2.38,2.58h4.68Z" transform="translate(-8 -28)"/><path class="cls-16" d="M504.83,228.51H504v-1.3h0a2.69,2.69,0,0,1-2.49,1.51c-1.83,0-2.54-1.05-2.54-2.75v-4.69h0.88V226c0,1.3.53,2,1.93,2s2.17-1.43,2.17-2.9v-3.8h0.88v7.23Z" transform="translate(-8 -28)"/><path class="cls-16" d="M506.58,221.28h0.81v1.37h0a2.67,2.67,0,0,1,2.58-1.58c2.2,0,3.25,1.77,3.25,3.82s-1.05,3.82-3.25,3.82a2.57,2.57,0,0,1-2.51-1.58h0v4h-0.88v-9.9Zm3.42,0.53c-2,0-2.54,1.44-2.54,3.08S508.13,228,510,228c1.68,0,2.37-1.58,2.37-3.08S511.68,221.81,510,221.81Z" transform="translate(-8 -28)"/><path class="cls-16" d="M521.06,228.51h-0.81v-1.37h0a2.84,2.84,0,0,1-2.58,1.58c-2.2,0-3.25-1.76-3.25-3.82s1.05-3.82,3.25-3.82a2.58,2.58,0,0,1,2.51,1.58h0v-4.15h0.88v10Zm-3.42-.53c1.86,0,2.54-1.58,2.54-3.08s-0.67-3.08-2.54-3.08c-1.68,0-2.37,1.58-2.37,3.08S516,228,517.64,228Z" transform="translate(-8 -28)"/><path class="cls-16" d="M522.73,223.49c0.1-1.69,1.26-2.42,2.93-2.42,1.27,0,2.66.38,2.66,2.33v3.84a0.46,0.46,0,0,0,.52.53,0.67,0.67,0,0,0,.28-0.06v0.74a2.5,2.5,0,0,1-.57.06c-0.9,0-1-.52-1-1.26h0a2.76,2.76,0,0,1-2.63,1.47c-1.34,0-2.42-.66-2.42-2.12,0-2,2-2.1,3.88-2.33,0.73-.07,1.13-0.2,1.13-1,0-1.19-.84-1.48-1.89-1.48a1.68,1.68,0,0,0-1.93,1.68h-0.88Zm4.71,1.06h0a1.1,1.1,0,0,1-.74.32c-1.5.27-3.36,0.27-3.36,1.67a1.5,1.5,0,0,0,1.61,1.43,2.32,2.32,0,0,0,2.52-2.27v-1.15Z" transform="translate(-8 -28)"/><path class="cls-16" d="M531.57,221.28H533V222h-1.47v4.87c0,0.57.08,0.91,0.71,1a6.88,6.88,0,0,0,.76,0v0.76l-0.78,0c-1.18,0-1.58-.39-1.57-1.62V222h-1.26v-0.74h1.26v-2.17h0.88v2.17Z" transform="translate(-8 -28)"/><path class="cls-16" d="M534.91,225.13c0,1.29.7,2.84,2.38,2.84a2.19,2.19,0,0,0,2.27-1.85h0.88a2.94,2.94,0,0,1-3.15,2.59c-2.3,0-3.26-1.76-3.26-3.82,0-1.91,1-3.82,3.26-3.82s3.25,2,3.18,4.06h-5.56Zm4.68-.74a2.44,2.44,0,0,0-2.3-2.58c-1.46,0-2.23,1.26-2.38,2.58h4.68Z" transform="translate(-8 -28)"/></g><g class="cls-17"><g class="cls-3"><rect class="cls-18" x="22.59" y="10.42" width="27.32" height="14.17"/></g></g><g class="cls-19"><g class="cls-3"><rect class="cls-18" x="20.83" y="18.75" width="30.83" height="14.17"/></g></g><g class="cls-20"><g class="cls-3"><rect class="cls-18" x="20.83" y="27.08" width="30.83" height="14.17"/></g></g><g class="cls-21"><g class="cls-3"><rect class="cls-18" x="22.59" y="35.42" width="27.32" height="14.17"/></g></g><g class="cls-22"><g class="cls-3"><rect class="cls-18" y="10.42" width="30.83" height="30.83"/></g></g><g class="cls-23"><g class="cls-3"><rect class="cls-18" x="41.67" y="10.42" width="30.83" height="30.83"/></g></g><g class="cls-24"><g class="cls-3"><rect class="cls-18" x="21.88" width="18.33" height="18.33"/></g></g><g class="cls-25"><g class="cls-3"><rect class="cls-18" x="32.29" width="18.33" height="18.33"/></g></g><g class="cls-26"><g class="cls-3"><rect class="cls-18" x="153" width="60" height="50"/></g></g><g class="cls-27"><g class="cls-3"><rect class="cls-28" x="188.83" y="3.33" width="20" height="20"/></g></g><g class="cls-29"><g class="cls-3"><rect class="cls-18" x="213" y="0.21" width="33.75" height="49.58"/></g></g><g class="cls-30"><g class="cls-3"><rect class="cls-28" x="227.38" y="3.75" width="16.88" height="16.88"/></g></g><g class="cls-31"><g class="cls-3"><rect class="cls-18" x="337" width="60" height="50"/></g></g><g class="cls-32"><g class="cls-3"><rect class="cls-28" x="352" y="25.42" width="16.67" height="16.67"/></g></g><g class="cls-33"><g class="cls-3"><rect class="cls-28" x="362" y="25.42" width="16.67" height="16.67"/></g></g><g class="cls-34"><g class="cls-3"><rect class="cls-6" x="351.71" y="2.92" width="30.21" height="12.92"/></g></g><g class="cls-35"><g class="cls-3"><rect class="cls-6" x="378.25" y="1.88" width="15" height="15"/></g></g><g class="cls-36"><g class="cls-3"><rect class="cls-6" x="340.75" y="1.88" width="15" height="15"/></g></g><g class="cls-37"><g class="cls-3"><rect class="cls-18" x="513" width="60" height="50"/></g></g><g class="cls-38"><g class="cls-3"><rect class="cls-28" x="548" y="19.38" width="18.75" height="18.75"/></g></g><g class="cls-39"><g class="cls-3"><rect class="cls-18" x="546.75" y="18.13" width="21.25" height="21.25"/></g></g><g class="cls-40"><g class="cls-3"><rect class="cls-6" x="549.39" y="21.64" width="15.86" height="14.57"/></g></g></svg>