<?xml version="1.0" encoding="UTF-8" standalone="no"?>
<svg width="600px" height="338px" viewBox="0 0 600 338" version="1.1" xmlns="http://www.w3.org/2000/svg" xmlns:xlink="http://www.w3.org/1999/xlink" xmlns:sketch="http://www.bohemiancoding.com/sketch/ns">
    <!-- Generator: Sketch 3.5.2 (25235) - http://www.bohemiancoding.com/sketch -->
    <title>Select Dates v02 Small b</title>
    <desc>Created with Sketch.</desc>
    <defs></defs>
    <g id="Page-1" stroke="none" stroke-width="1" fill="none" fill-rule="evenodd" sketch:type="MSPage">
        <g id="Select-Dates-v02-Small-b" sketch:type="MSArtboardGroup">
            <path d="M42.8325971,185.5 L544.524902,185.5" id="Line-Copy-2" stroke="#2D3F4A" stroke-width="5" sketch:type="MSShapeGroup"></path>
            <ellipse id="Oval-19-Copy-16" fill="#FFFFFF" sketch:type="MSShapeGroup" cx="41.5997591" cy="187.159763" rx="28.5997591" ry="28.1597628"></ellipse>
            <ellipse id="Oval-19-Copy-20" fill="#FFFFFF" sketch:type="MSShapeGroup" cx="208.599759" cy="187.159763" rx="28.5997591" ry="28.1597628"></ellipse>
            <ellipse id="Oval-19-Copy-22" fill="#FFFFFF" sketch:type="MSShapeGroup" cx="375.599759" cy="187.159763" rx="28.5997591" ry="28.1597628"></ellipse>
            <ellipse id="Oval-19-Copy-18" fill="#FFFFFF" sketch:type="MSShapeGroup" cx="551.599759" cy="187.159763" rx="28.5997591" ry="28.1597628"></ellipse>
            <ellipse id="Oval-19-Copy-17" fill-opacity="0.5" fill="#7CB7FA" sketch:type="MSShapeGroup" cx="41.4498193" cy="187.119822" rx="21.4498193" ry="21.1198221"></ellipse>
            <ellipse id="Oval-19-Copy-21" fill-opacity="0.5" fill="#7CB7FA" sketch:type="MSShapeGroup" cx="208.449819" cy="187.119822" rx="21.4498193" ry="21.1198221"></ellipse>
            <ellipse id="Oval-19-Copy-23" fill-opacity="0.5" fill="#7CB7FA" sketch:type="MSShapeGroup" cx="375.449819" cy="187.119822" rx="21.4498193" ry="21.1198221"></ellipse>
            <ellipse id="Oval-19-Copy-19" fill-opacity="0.5" fill="#7CB7FA" sketch:type="MSShapeGroup" cx="551.449819" cy="187.119822" rx="21.4498193" ry="21.1198221"></ellipse>
            <text id="1-copy-2" sketch:type="MSTextLayer" font-family="Helvetica Neue" font-size="30" font-weight="bold" line-spacing="20" fill="#2D3F4A">
                <tspan x="32" y="214">1</tspan>
            </text>
            <text id="2" sketch:type="MSTextLayer" font-family="Helvetica Neue" font-size="30" font-weight="bold" line-spacing="20" fill="#2D3F4A">
                <tspan x="200" y="213">2</tspan>
            </text>
            <text id="3" sketch:type="MSTextLayer" font-family="Helvetica Neue" font-size="30" font-weight="bold" line-spacing="20" fill="#2D3F4A">
                <tspan x="367" y="214">3</tspan>
            </text>
            <text id="4" sketch:type="MSTextLayer" font-family="Helvetica Neue" font-size="30" font-weight="bold" line-spacing="20" fill="#2D3F4A">
                <tspan x="542" y="214">4</tspan>
            </text>
            <text id="IBM-notifies-custome" sketch:type="MSTextLayer" font-family="HelvNeue Light for IBM" font-size="14" font-weight="normal" line-spacing="16" fill="#1D3649">
                <tspan x="13" y="239">IBM notifies </tspan>
                <tspan x="13" y="258">customer of a </tspan>
                <tspan x="13" y="277">pending update</tspan>
            </text>
            <text id="User-views-notificat" sketch:type="MSTextLayer" font-family="HelvNeue Light for IBM" font-size="14" font-weight="normal" line-spacing="16" fill="#1D3649">
                <tspan x="171" y="239">User views </tspan>
                <tspan x="171" y="258">notification</tspan>
            </text>
            <text id="Customer-approves-th" sketch:type="MSTextLayer" font-family="HelvNeue Light for IBM" font-size="14" font-weight="normal" line-spacing="16" fill="#1D3649">
                <tspan x="335" y="239">Customer approves </tspan>
                <tspan x="335" y="258">the update</tspan>
            </text>
            <text id="IBM-confirms-the-sch" sketch:type="MSTextLayer" font-family="HelvNeue Light for IBM" font-size="14" font-weight="normal" line-spacing="16" fill="#1D3649">
                <tspan x="498" y="239">IBM confirms </tspan>
                <tspan x="498" y="258">the scheduled </tspan>
                <tspan x="498" y="277">date for the </tspan>
                <tspan x="498" y="296">update</tspan>
            </text>
            <g id="Group-Copy-2" sketch:type="MSLayerGroup" transform="translate(13.000000, 103.000000)" fill="#2D3F4A">
                <path d="M22.5901042,14.5833333 L39.9098958,14.5833333 C38.0421875,12.071875 34.8619792,10.4166667 31.25,10.4166667 C27.6375,10.4166667 24.4578125,12.071875 22.5901042,14.5833333 L22.5901042,14.5833333 Z" id="Shape" sketch:type="MSShapeGroup"></path>
                <path d="M20.9015625,18.75 C20.8578125,19.0916667 20.8333333,19.4395833 20.8333333,19.7916667 L20.8333333,22.9166667 L41.6666667,22.9166667 L41.6666667,19.7916667 C41.6666667,19.4395833 41.6421875,19.0916667 41.5984375,18.75 L20.9015625,18.75 L20.9015625,18.75 Z" id="Shape" sketch:type="MSShapeGroup"></path>
                <path d="M20.8333333,30.2083333 C20.8333333,30.5604167 20.8578125,30.9083333 20.9015625,31.25 L41.5984375,31.25 C41.6421875,30.9083333 41.6666667,30.5604167 41.6666667,30.2083333 L41.6666667,27.0833333 L20.8333333,27.0833333 L20.8333333,30.2083333 L20.8333333,30.2083333 Z" id="Shape" sketch:type="MSShapeGroup"></path>
                <path d="M31.25,39.5833333 C34.8619792,39.5833333 38.0421875,37.928125 39.9098958,35.4166667 L22.5901042,35.4166667 C24.4578125,37.928125 27.6375,39.5833333 31.25,39.5833333 L31.25,39.5833333 Z" id="Shape" sketch:type="MSShapeGroup"></path>
                <path d="M4.646875,16.7692708 C3.75989583,17.1375 2.92552083,17.6786458 2.2046875,18.4 C1.48229167,19.1223958 0.9421875,19.9541667 0.573958333,20.8416667 C0.1921875,21.7635417 -0.00104166667,22.7427083 2.44101035e-13,23.7223958 C-0.00104166667,24.7052083 0.1921875,25.6838542 0.573958333,26.6041667 C0.9421875,27.4942708 1.48229167,28.3255208 2.2046875,29.0463542 C2.92604167,29.76875 3.75989583,30.3088542 4.64635417,30.678125 C5.56145833,31.0567708 6.53697917,31.25 7.5125,31.25 L7.52760417,31.25 L7.54270833,31.25 C8.5171875,31.25 9.49166667,31.0567708 10.4083333,30.6760417 C11.2973958,30.3088542 12.1286458,29.7677083 12.85,29.0463542 C13.5713542,28.325 14.1135417,27.4932292 14.4817708,26.6041667 L20.8333333,10.4166667 L4.646875,16.7692708 L4.646875,16.7692708 Z M12.55,25.8234375 C12.275,26.48125 11.8802083,27.0703125 11.3765625,27.5734375 C10.8692708,28.0807292 10.2760417,28.4765625 9.60989583,28.7520833 C8.946875,29.0270833 8.2515625,29.1666667 7.54270833,29.1666667 L7.51197917,29.1666667 C6.80208333,29.1666667 6.10520833,29.0270833 5.446875,28.7552083 C4.7765625,28.4760417 4.18177083,28.0786458 3.67604167,27.5723958 C3.1703125,27.0666667 2.77395833,26.4734375 2.49791667,25.80625 C2.22239583,25.140625 2.08229167,24.4395833 2.08333333,23.7203125 C2.08229167,23.00625 2.22239583,22.3057292 2.49791667,21.6401042 C2.77447917,20.9739583 3.17135417,20.3796875 3.67760417,19.8734375 C4.17864583,19.3723958 4.76770833,18.978125 5.428125,18.7010417 L17.1494792,14.1005208 L12.55,25.8234375 L12.55,25.8234375 Z" id="Shape" sketch:type="MSShapeGroup"></path>
                <path d="M61.9260417,20.8416667 C61.5578125,19.9546875 61.0177083,19.1223958 60.2953125,18.4 C59.5739583,17.6786458 58.7401042,17.1375 57.853125,16.7692708 L41.6666667,10.4166667 L48.0182292,26.6041667 C48.3864583,27.4932292 48.9286458,28.3255208 49.65,29.0463542 C50.3713542,29.7677083 51.2020833,30.3088542 52.0916667,30.6760417 C53.0083333,31.05625 53.9828125,31.25 54.9572917,31.25 L54.9723958,31.25 L54.9875,31.25 C55.9630208,31.25 56.9385417,31.0567708 57.8541667,30.678125 C58.7401042,30.3088542 59.5744792,29.76875 60.2958333,29.0463542 C61.0182292,28.325 61.5583333,27.4942708 61.9265625,26.6041667 C62.3078125,25.6833333 62.5015625,24.7052083 62.5005208,23.7223958 C62.5010417,22.7427083 62.3078125,21.7630208 61.9260417,20.8416667 L61.9260417,20.8416667 Z M60.0010417,25.8078125 C59.7260417,26.4734375 59.3291667,27.0671875 58.8213542,27.575 C58.3177083,28.0791667 57.7229167,28.4760417 57.0583333,28.753125 C56.3942708,29.0276042 55.6973958,29.1671875 54.9875,29.1671875 L54.9567708,29.1671875 C54.2479167,29.1671875 53.5526042,29.0276042 52.8864583,28.7510417 C52.2239583,28.4776042 51.6302083,28.08125 51.1229167,27.5739583 C50.6192708,27.0703125 50.2244792,26.48125 49.9494792,25.8239583 L45.3494792,14.1005208 L57.0708333,18.7010417 C57.73125,18.978125 58.3203125,19.3723958 58.8213542,19.8734375 C59.3276042,20.3802083 59.7244792,20.9739583 60.0005208,21.6385417 C60.2765625,22.30625 60.4166667,23.0067708 60.415625,23.725 C60.4171875,24.4395833 60.2776042,25.140625 60.0010417,25.8078125 L60.0010417,25.8078125 Z" id="Shape" sketch:type="MSShapeGroup"></path>
                <path d="M26.0416667,8.33333333 C28.3427083,8.33333333 30.2083333,6.46875 30.2083333,4.16666667 C30.2083333,1.86458333 28.3427083,0 26.0416667,0 C23.740625,0 21.875,1.86458333 21.875,4.16666667 C21.875,6.46875 23.740625,8.33333333 26.0416667,8.33333333 L26.0416667,8.33333333 Z M26.0416667,2.08333333 C27.190625,2.08333333 28.125,3.01822917 28.125,4.16666667 C28.125,5.31510417 27.190625,6.25 26.0416667,6.25 C24.8927083,6.25 23.9583333,5.31510417 23.9583333,4.16666667 C23.9583333,3.01822917 24.8927083,2.08333333 26.0416667,2.08333333 L26.0416667,2.08333333 Z" id="Shape" sketch:type="MSShapeGroup"></path>
                <path d="M36.4583333,8.33333333 C38.759375,8.33333333 40.625,6.46875 40.625,4.16666667 C40.625,1.86458333 38.759375,0 36.4583333,0 C34.1572917,0 32.2916667,1.86458333 32.2916667,4.16666667 C32.2916667,6.46875 34.1572917,8.33333333 36.4583333,8.33333333 L36.4583333,8.33333333 Z M36.4583333,2.08333333 C37.6072917,2.08333333 38.5416667,3.01822917 38.5416667,4.16666667 C38.5416667,5.31510417 37.6072917,6.25 36.4583333,6.25 C35.309375,6.25 34.375,5.31510417 34.375,4.16666667 C34.375,3.01822917 35.309375,2.08333333 36.4583333,2.08333333 L36.4583333,2.08333333 Z" id="Shape" sketch:type="MSShapeGroup"></path>
            </g>
            <g id="Group-5-Copy-2" sketch:type="MSLayerGroup" transform="translate(166.000000, 103.000000)">
                <g id="Group-2" sketch:type="MSShapeGroup">
                    <path d="M0,0 L0,6.66666667 L0,40 L50,40 L50,6.66666667 L50,0 L0,0 L0,0 Z M48.3333333,38.3333333 L1.66666667,38.3333333 L1.66666667,8.33333333 L48.3333333,8.33333333 L48.3333333,38.3333333 L48.3333333,38.3333333 Z" id="Shape" fill="#2D3F4A"></path>
                    <circle id="Oval-7" fill="#7CB7FB" cx="40.8333333" cy="8.33333333" r="5"></circle>
                </g>
                <g id="Group-4" transform="translate(60.000000, 0.000000)" sketch:type="MSShapeGroup">
                    <g id="Group-3" fill="#2D3F4A">
                        <path d="M0,5.48611111 L0,34.5138889 L0,39.7916667 L23.75,39.7916667 L23.75,34.5138889 L23.75,5.48611111 L23.75,0.208333333 L0,0.208333333 L0,5.48611111 Z M22.4305556,6.80555556 L22.4305556,33.1944444 L1.31944444,33.1944444 L1.31944444,6.80555556 L22.4305556,6.80555556 L22.4305556,6.80555556 Z M9.23611111,2.84722222 L14.5138889,2.84722222 L14.5138889,4.16666667 L9.23611111,4.16666667 L9.23611111,2.84722222 L9.23611111,2.84722222 Z" id="Shape"></path>
                    </g>
                    <circle id="Oval-7" fill="#7CB7FB" cx="17.8125" cy="7.1875" r="3.4375"></circle>
                </g>
            </g>
            <text id="No-unavailable-dates" sketch:type="MSTextLayer" font-family="HelvNeue Light for IBM" font-size="25" font-weight="normal" line-spacing="17" fill="#2D3F4A">
                <tspan x="18" y="50">No unavailable dates for pending update</tspan>
            </text>
            <g id="Group-11" sketch:type="MSLayerGroup" transform="translate(350.000000, 103.000000)">
                <g id="Group-6-Copy" sketch:type="MSShapeGroup">
                    <g id="calendar_128" fill="#2D3F4A">
                        <path d="M0,0 L0,6.66666667 L0,40 L50,40 L50,6.66666667 L50,0 L0,0 L0,0 Z M48.3333333,38.3333333 L1.66666667,38.3333333 L1.66666667,8.33333333 L48.3333333,8.33333333 L48.3333333,38.3333333 L48.3333333,38.3333333 Z" id="Shape"></path>
                    </g>
                    <rect id="Rectangle-8" fill="#FFFFFF" x="15" y="3.125" width="20.2062511" height="2.91666667"></rect>
                </g>
                <g id="next-right-forward_24-copy-2" transform="translate(41.250000, 1.875000)" fill="#FFFFFF" sketch:type="MSShapeGroup">
                    <path d="M2.5,0 L1.81818182,0.681818182 L3.18181818,2.04545455 L0,2.04545455 L0,2.95454545 L3.18181818,2.95454545 L1.81818182,4.31818182 L2.5,5 L5,2.5 L2.5,0 Z" id="Shape"></path>
                </g>
                <g id="next-right-forward_24-copy-3" transform="translate(6.250000, 4.375000) scale(-1, 1) translate(-6.250000, -4.375000) translate(3.750000, 1.875000)" fill="#FFFFFF" sketch:type="MSShapeGroup">
                    <path d="M2.5,0 L1.81818182,0.681818182 L3.18181818,2.04545455 L0,2.04545455 L0,2.95454545 L3.18181818,2.95454545 L1.81818182,4.31818182 L2.5,5 L5,2.5 L2.5,0 Z" id="Shape"></path>
                </g>
            </g>
            <g id="Group-8" sketch:type="MSLayerGroup" transform="translate(526.000000, 103.000000)">
                <g id="Group-2" fill="#2D3F4A" sketch:type="MSShapeGroup">
                    <path d="M0,0 L0,6.66666667 L0,40 L50,40 L50,6.66666667 L50,0 L0,0 L0,0 Z M48.3333333,38.3333333 L1.66666667,38.3333333 L1.66666667,8.33333333 L48.3333333,8.33333333 L48.3333333,38.3333333 L48.3333333,38.3333333 Z" id="Shape"></path>
                </g>
                <path d="M1.5625,15.5 L48.4541655,15.5" id="Line" stroke="#2D3F4A" stroke-linecap="square" sketch:type="MSShapeGroup"></path>
                <path d="M0.5625,23.5 L29,23.5" id="Line" stroke="#2D3F4A" stroke-linecap="square" sketch:type="MSShapeGroup"></path>
                <path d="M19.5,38.8073444 L19.5,8.125" id="Line" stroke="#2D3F4A" stroke-linecap="square" sketch:type="MSShapeGroup"></path>
                <path d="M29.5,38.8073444 L29.5,8.125" id="Line" stroke="#2D3F4A" stroke-linecap="square" sketch:type="MSShapeGroup"></path>
                <path d="M38.5,38.8073444 L38.5,32.4691097" id="Line" stroke="#2D3F4A" stroke-linecap="square" sketch:type="MSShapeGroup"></path>
                <path d="M38.5,14.4323444 L38.5,8.09410974" id="Line" stroke="#2D3F4A" stroke-linecap="square" sketch:type="MSShapeGroup"></path>
                <path d="M10.5,38.8073444 L10.5,8.125" id="Line" stroke="#2D3F4A" stroke-linecap="square" sketch:type="MSShapeGroup"></path>
                <path d="M1.5625,31.5 L48.4541655,31.5" id="Line" stroke="#2D3F4A" stroke-linecap="square" sketch:type="MSShapeGroup"></path>
                <circle id="Oval-54" fill="#7CB7FA" sketch:type="MSShapeGroup" cx="39.375" cy="23.75" r="4.375"></circle>
                <g id="Group-7" transform="translate(33.750000, 18.125000)" sketch:type="MSShapeGroup">
                    <path d="M5.625,11.25 C8.73196875,11.25 11.25,8.73196875 11.25,5.625 C11.25,2.51803125 8.73196875,0 5.625,0 C2.51803125,0 0,2.51803125 0,5.625 C0,8.73196875 2.51803125,11.25 5.625,11.25 L5.625,11.25 Z M5.625,0.5625 C8.41654687,0.5625 10.6875,2.83345312 10.6875,5.625 C10.6875,8.41654687 8.41654687,10.6875 5.625,10.6875 C2.83345312,10.6875 0.5625,8.41654687 0.5625,5.625 C0.5625,2.83345312 2.83345312,0.5625 5.625,0.5625 L5.625,0.5625 Z" id="Shape" fill="#2D3F4A"></path>
                    <path d="M8.49459375,4.31128125 L7.69921875,3.515625 L4.72190625,6.4929375 L3.43209375,5.203125 L2.63671875,5.99878125 L4.72190625,8.08396875 L8.49459375,4.31128125 Z" id="Shape" fill="#FFFFFF"></path>
                </g>
            </g>
            <g id="Group-3" sketch:type="MSLayerGroup" transform="translate(365.000000, 116.000000)" fill="#5AAAFA">
                <path d="M10.5,21 C16.299675,21 21,16.299675 21,10.5 C21,4.700325 16.299675,0 10.5,0 C4.700325,0 0,4.700325 0,10.5 C0,16.299675 4.700325,21 10.5,21 L10.5,21 Z M10.5,1.05 C15.7108875,1.05 19.95,5.2891125 19.95,10.5 C19.95,15.7108875 15.7108875,19.95 10.5,19.95 C5.2891125,19.95 1.05,15.7108875 1.05,10.5 C1.05,5.2891125 5.2891125,1.05 10.5,1.05 L10.5,1.05 Z" id="Shape" sketch:type="MSShapeGroup"></path>
                <path d="M15.96735,8.0926125 L14.48265,6.6073875 L8.925,12.1650375 L6.51735,9.7573875 L5.03265,11.2426125 L8.925,15.1349625 L15.96735,8.0926125 Z" id="Shape" sketch:type="MSShapeGroup"></path>
            </g>
        </g>
    </g>
</svg>