<?xml version="1.0" encoding="utf-8"?>
<!-- Generator: Adobe Illustrator 18.1.1, SVG Export Plug-In . SVG Version: 6.00 Build 0)  -->
<svg version="1.1" id="Layer_1" xmlns:sketch="http://www.bohemiancoding.com/sketch/ns"
	 xmlns="http://www.w3.org/2000/svg" xmlns:xlink="http://www.w3.org/1999/xlink" x="0px" y="0px" viewBox="-129 210 61 62"
	 enable-background="new -129 210 61 62" xml:space="preserve">
<title>Group</title>
<desc>Created with Sketch.</desc>
<g id="Docs" sketch:type="MSPage">
	<g id="_x32_-Docs-landing-redesign-Copy" transform="translate(-1238.000000, -1492.000000)" sketch:type="MSArtboardGroup">
		<g id="Group" transform="translate(1238.000000, 1493.000000)" sketch:type="MSLayerGroup">
			<g id="Layer_1_1_" sketch:type="MSShapeGroup">
				<path id="XMLID_1098_" fill="none" stroke="#2D3F49" stroke-width="1.5" d="M-120.5,226.6v21.4"/>
				<ellipse id="XMLID_1097_" fill="none" stroke="#2D3F49" stroke-width="1.5" cx="-74.9" cy="240.4" rx="5.1" ry="5.1"/>
				<path id="Shape" fill="none" stroke="#2D3F49" stroke-width="1.5" stroke-linecap="round" stroke-linejoin="round" d="
					M-69.4,223.4l-5.5,5.5l-5.4-5.5"/>
				<path id="Shape_1_" fill="none" stroke="#2D3F49" stroke-width="1.5" stroke-linecap="round" stroke-linejoin="round" d="
					M-114.6,242.6l-5.9,6l-5.9-6"/>
				<path id="Shape_2_" fill="none" stroke="#2D3F49" stroke-width="1.5" d="M-74.9,228.4v-8.2c0-2.3-1.4-4.2-3.3-4.2h-34.6"/>
				<g id="XMLID_1095_">
					<ellipse id="XMLID_1096_" fill="none" stroke="#2D3F49" stroke-width="1.5" cx="-120.5" cy="218.4" rx="7.7" ry="7.8"/>
				</g>
				<g id="XMLID_1093_" transform="translate(0.000000, 43.714286)">
					<ellipse id="XMLID_1094_" fill="none" stroke="#2D3F49" stroke-width="1.5" cx="-120.5" cy="218.3" rx="7.7" ry="7.8"/>
				</g>
				<path id="Shape_3_" fill="none" stroke="#2D3F49" stroke-width="1.5" stroke-linecap="round" stroke-linejoin="round" d="
					M-69.5,256.8l-5.7-5.7l-5.4,5.6"/>
				<path id="Shape_4_" fill="none" stroke="#2D3F49" stroke-width="1.5" d="M-75.2,251.9v8c0,2.3-1.4,4.2-3.3,4.2h-34.4"/>
			</g>
		</g>
	</g>
</g>
</svg>
