<?xml version="1.0" encoding="utf-8"?>
<!-- Generator: Adobe Illustrator 19.1.0, SVG Export Plug-In . SVG Version: 6.00 Build 0)  -->
<!DOCTYPE svg PUBLIC "-//W3C//DTD SVG 1.1//EN" "http://www.w3.org/Graphics/SVG/1.1/DTD/svg11.dtd">
<svg version="1.1" id="Layer_1" xmlns="http://www.w3.org/2000/svg" xmlns:xlink="http://www.w3.org/1999/xlink" x="0px" y="0px"
	 width="200px" height="200px" viewBox="-79 81 200 200" style="enable-background:new -79 81 200 200;" xml:space="preserve">
<style type="text/css">
	.st0{fill:#89C541;}
	.st1{fill:#0BAED1;}
	.st2{fill:#FFFFFF;}
	.st3{fill:#0A4369;}
</style>
<g>
	<g>
		<rect x="-57.3" y="93.4" class="st0" width="73.6" height="73.6"/>
		<rect x="-57.3" y="175.9" class="st1" width="73.6" height="73.6"/>
		<rect x="25.2" y="93.4" class="st1" width="73.6" height="73.6"/>
		<rect x="25.2" y="175.9" class="st0" width="73.6" height="73.6"/>
		<g>
			<rect x="-45.8" y="103.4" class="st2" width="4.4" height="53.5"/>
			<rect x="1" y="103.4" class="st2" width="4.4" height="53.5"/>
			<rect x="-14.6" y="103.4" class="st2" width="4.4" height="53.5"/>
			<rect x="-30.2" y="103.4" class="st2" width="4.4" height="53.5"/>
		</g>
		<g>
			<rect x="36.3" y="103.4" class="st2" width="4.4" height="53.5"/>
			<rect x="83.2" y="103.4" class="st2" width="4.4" height="53.5"/>
			<rect x="67.5" y="103.4" class="st2" width="4.4" height="53.5"/>
			<rect x="51.9" y="103.4" class="st2" width="4.4" height="53.5"/>
		</g>
		<g>
			<rect x="-45.8" y="185.9" class="st2" width="4.4" height="53.5"/>
			<rect x="1" y="185.9" class="st2" width="4.4" height="53.5"/>
			<rect x="-14.6" y="185.9" class="st2" width="4.4" height="53.5"/>
			<rect x="-30.2" y="185.9" class="st2" width="4.4" height="53.5"/>
		</g>
		<g>
			<rect x="36.3" y="185.9" class="st2" width="4.4" height="53.5"/>
			<rect x="83.2" y="185.9" class="st2" width="4.4" height="53.5"/>
			<rect x="67.5" y="185.9" class="st2" width="4.4" height="53.5"/>
			<rect x="51.9" y="185.9" class="st2" width="4.4" height="53.5"/>
		</g>
	</g>
	<polygon class="st3" points="121,268.6 -79,268.6 -79,228.1 -68.5,228.1 -68.5,258.2 110.5,258.2 110.5,228.1 121,228.1 	"/>
</g>
</svg>
