<?xml version="1.0" encoding="utf-8"?>
<!-- Generator: Adobe Illustrator 19.0.0, SVG Export Plug-In . SVG Version: 6.00 Build 0)  -->
<!DOCTYPE svg PUBLIC "-//W3C//DTD SVG 1.1//EN" "http://www.w3.org/Graphics/SVG/1.1/DTD/svg11.dtd">
<svg version="1.1" id="Layer_1" xmlns:sketch="http://www.bohemiancoding.com/sketch/ns"
	 xmlns="http://www.w3.org/2000/svg" xmlns:xlink="http://www.w3.org/1999/xlink" x="0px" y="0px" viewBox="-623 378 32 45"
	 style="enable-background:new -623 378 32 45;" xml:space="preserve"  fill="#0071c2">
<title>Imported Layers</title>
<desc>Created with Sketch.</desc>
<g id="Page-1" sketch:type="MSPage">
	<g id="Compute-Taxonomy" transform="translate(-555.000000, -274.000000)" sketch:type="MSArtboardGroup">
		<g id="Main-Menu" transform="translate(23.000000, 62.000000)" sketch:type="MSLayerGroup">
			<g id="Imported-Layers" transform="translate(532.000000, 212.000000)" sketch:type="MSShapeGroup">
				<path id="Fill-1" d="M-607,422.9c-8.7,0-15.7-6.7-15.7-15c0-8.3,7-15,15.7-15c8.7,0,15.7,6.7,15.7,15
					C-591.3,416.1-598.4,422.9-607,422.9L-607,422.9z M-607,394c-8,0-14.5,6.2-14.5,13.8c0,7.6,6.5,13.8,14.5,13.8
					c8,0,14.5-6.2,14.5-13.8C-592.6,400.2-599.1,394-607,394L-607,394z"/>
				<path id="Fill-2" d="M-604.3,406.5c0-1.4-1.2-2.5-2.7-2.5c-1.5,0-2.7,1.1-2.7,2.5c0,1.1,0.7,2,1.7,2.3v4.4c0,0.5,0.4,1,1,1
					s1-0.4,1-1v-4.4C-605,408.5-604.3,407.6-604.3,406.5"/>
				<path id="Fill-3" d="M-599.5,395.9c-0.3,0-0.6-0.3-0.6-0.6v-9.1c0-3.6-3.1-6.6-6.9-6.6s-6.9,3-6.9,6.6v9.1
					c0,0.3-0.3,0.6-0.6,0.6c-0.3,0-0.6-0.3-0.6-0.6v-9.1c0-4.3,3.6-7.8,8.1-7.8s8.1,3.5,8.1,7.8v9.1
					C-598.9,395.7-599.2,395.9-599.5,395.9"/>
			</g>
		</g>
	</g>
</g>
</svg>
