<?xml version="1.0" encoding="utf-8"?>
<!-- Generator: Adobe Illustrator 19.0.0, SVG Export Plug-In . SVG Version: 6.00 Build 0)  -->
<!DOCTYPE svg PUBLIC "-//W3C//DTD SVG 1.1//EN" "http://www.w3.org/Graphics/SVG/1.1/DTD/svg11.dtd">
<svg version="1.1" id="Layer_1" xmlns:sketch="http://www.bohemiancoding.com/sketch/ns"
	 xmlns="http://www.w3.org/2000/svg" xmlns:xlink="http://www.w3.org/1999/xlink" x="0px" y="0px" viewBox="-616 379 47 44"
	 style="enable-background:new -616 379 47 44;" xml:space="preserve" fill="#0071c2">
<title>Group</title>
<desc>Created with Sketch.</desc>
<g id="Page-1" sketch:type="MSPage">
	<g id="Compute-Taxonomy" transform="translate(-193.000000, -131.000000)" sketch:type="MSArtboardGroup">
		<g id="Main-Menu" transform="translate(23.000000, 62.000000)" sketch:type="MSLayerGroup">
			<g id="Group" transform="translate(171.000000, 70.000000)" sketch:type="MSShapeGroup">
				<path d="M-593.5,399.7c-9.3,0-23-1.5-23-5.7v-4.2h1.5v4.2c0,1.7,8.4,4.2,21.5,4.2c13.1,0,21.5-2.5,21.5-4.2v-4.2h1.5v4.2
					C-570.5,398.2-584.2,399.7-593.5,399.7z"/>
				<path d="M-593.5,389.7c-9.3,0-23-1.5-23-5.7s13.8-5.7,23-5.7s23,1.5,23,5.7S-584.2,389.7-593.5,389.7z M-593.5,379.8
					c-13.1,0-21.5,2.5-21.5,4.2s8.4,4.2,21.5,4.2s21.5-2.5,21.5-4.2S-580.3,379.8-593.5,379.8z"/>
				<path d="M-593.5,410.8c-9.3,0-23-1.5-23-5.7v-4.2h1.5v4.2c0,1.7,8.4,4.2,21.5,4.2c13.1,0,21.5-2.5,21.5-4.2v-4.2h1.5v4.2
					C-570.5,409.3-584.2,410.8-593.5,410.8z"/>
				<path d="M-593.5,421.9c-9.3,0-23-1.5-23-5.7V412h1.5v4.2c0,1.7,8.4,4.2,21.5,4.2c13.1,0,21.5-2.5,21.5-4.2V412h1.5v4.2
					C-570.5,420.3-584.2,421.9-593.5,421.9z"/>
			</g>
		</g>
	</g>
</g>
</svg>
