<?xml version="1.0" encoding="utf-8"?>
<!-- Generator: Adobe Illustrator 19.0.0, SVG Export Plug-In . SVG Version: 6.00 Build 0)  -->
<!DOCTYPE svg PUBLIC "-//W3C//DTD SVG 1.1//EN" "http://www.w3.org/Graphics/SVG/1.1/DTD/svg11.dtd">
<svg version="1.1" id="Layer_1" xmlns:sketch="http://www.bohemiancoding.com/sketch/ns"
	 xmlns="http://www.w3.org/2000/svg" xmlns:xlink="http://www.w3.org/1999/xlink" x="0px" y="0px" viewBox="-618 378 43 45"
	 style="enable-background:new -618 378 43 45;" xml:space="preserve" fill="#0071c2">
<title>Fill 1 + Fill 2 + Fill 3</title>
<desc>Created with Sketch.</desc>
<g id="Page-1" sketch:type="MSPage">
	<g id="Compute-Taxonomy" transform="translate(-660.000000, -132.000000)" sketch:type="MSArtboardGroup">
		<g id="Main-Menu" transform="translate(23.000000, 62.000000)" sketch:type="MSLayerGroup">
			<g id="Fill-1-_x2B_-Fill-2-_x2B_-Fill-3" transform="translate(637.000000, 70.000000)" sketch:type="MSShapeGroup">
				<path id="Fill-1" d="M-596.8,404.6L-596.8,404.6c-0.4,0-0.8-0.1-1.2-0.3l-18.6-10.6c-0.8-0.4-1.2-1.2-1.2-2.1
					c0-0.9,0.4-1.6,1.2-2.1l18.4-10.6c0.7-0.4,1.7-0.4,2.4,0l18.6,10.6c0.8,0.4,1.2,1.2,1.2,2.1c0,0.9-0.4,1.6-1.2,2.1l-18.4,10.6
					C-595.9,404.5-596.4,404.6-596.8,404.6L-596.8,404.6z M-596.9,379.7c-0.2,0-0.4,0.1-0.6,0.2l-18.4,10.6c-0.4,0.2-0.6,0.6-0.6,1
					c0,0.4,0.2,0.8,0.6,1l18.6,10.6c0.2,0.1,0.4,0.2,0.6,0.2c0.2,0,0.4-0.1,0.6-0.2l18.4-10.6c0.4-0.2,0.6-0.6,0.6-1
					c0-0.4-0.2-0.8-0.6-1l-18.6-10.6C-596.5,379.8-596.7,379.7-596.9,379.7L-596.9,379.7z"/>
				<path id="Fill-2" d="M-596.8,413.7c-0.4,0-0.8-0.1-1.2-0.3l-18.5-10.6c-0.8-0.4-1.2-1.2-1.2-2.1c0-0.9,0.5-1.7,1.2-2.1l1.2-0.7
					c0.3-0.2,0.7-0.1,0.8,0.2c0.2,0.3,0.1,0.7-0.2,0.8l-1.2,0.7c-0.4,0.2-0.6,0.6-0.6,1c0,0.4,0.2,0.8,0.6,1.1l18.5,10.6
					c0.4,0.2,0.8,0.2,1.2,0l18.4-10.6c0.4-0.2,0.6-0.6,0.6-1.1c0-0.4-0.2-0.8-0.6-1l-1.2-0.7c-0.3-0.2-0.4-0.5-0.2-0.8
					c0.2-0.3,0.5-0.4,0.8-0.2l1.2,0.7c0.8,0.4,1.2,1.2,1.2,2.1c0,0.9-0.4,1.7-1.2,2.1l-18.4,10.6
					C-595.9,413.6-596.4,413.7-596.8,413.7"/>
				<path id="Fill-3" d="M-596.8,423c-0.4,0-0.8-0.1-1.2-0.3l-18.6-10.6c-0.8-0.4-1.2-1.2-1.2-2.1c0-0.9,0.4-1.6,1.2-2.1l1.3-0.8
					c0.3-0.2,0.7-0.1,0.8,0.2c0.2,0.3,0.1,0.7-0.2,0.8l-1.3,0.8c-0.4,0.2-0.6,0.6-0.6,1c0,0.4,0.2,0.8,0.6,1l18.6,10.6
					c0.4,0.2,0.8,0.2,1.2,0l18.4-10.6c0.4-0.2,0.6-0.6,0.6-1c0-0.4-0.2-0.8-0.6-1l-1.3-0.8c-0.3-0.2-0.4-0.5-0.2-0.8
					c0.2-0.3,0.5-0.4,0.8-0.2l1.3,0.8c0.8,0.4,1.2,1.2,1.2,2.1c0,0.9-0.4,1.6-1.2,2.1l-18.4,10.6C-595.9,422.9-596.4,423-596.8,423"
					/>
			</g>
		</g>
	</g>
</g>
</svg>
