<?xml version="1.0" encoding="utf-8"?>
<!-- Generator: Adobe Illustrator 19.0.0, SVG Export Plug-In . SVG Version: 6.00 Build 0)  -->
<!DOCTYPE svg PUBLIC "-//W3C//DTD SVG 1.1//EN" "http://www.w3.org/Graphics/SVG/1.1/DTD/svg11.dtd">
<svg version="1.1" id="Layer_1" xmlns:sketch="http://www.bohemiancoding.com/sketch/ns"
	 xmlns="http://www.w3.org/2000/svg" xmlns:xlink="http://www.w3.org/1999/xlink" x="0px" y="0px" viewBox="-624 378 31 46"
	 style="enable-background:new -624 378 31 46;" xml:space="preserve" fill="#0071c2">
<title>Imported Layers</title>
<desc>Created with Sketch.</desc>
<g id="Page-1" sketch:type="MSPage">
	<g id="Compute-Taxonomy" transform="translate(-774.000000, -177.000000)" sketch:type="MSArtboardGroup">
		<g id="Main-Menu" transform="translate(38.000000, 83.000000)" sketch:type="MSLayerGroup">
			<g id="Imported-Layers">
				<path d="M130.9,517.5h-6.8c-0.4,0-0.6-0.3-0.6-0.7s0.3-0.7,0.6-0.7h6.8c0.4,0,0.7,0.3,0.7,0.7S131.2,517.5,130.9,517.5z
					 M132.6,514.4h-10.3c-0.4,0-0.6-0.3-0.6-0.7s0.3-0.7,0.6-0.7h10.3c0.4,0,0.7,0.3,0.7,0.7S133,514.4,132.6,514.4z M132.6,511.3
					h-10.3c-0.4,0-0.6-0.3-0.6-0.7s0.3-0.7,0.6-0.7h10.3c0.4,0,0.7,0.3,0.7,0.7S133,511.3,132.6,511.3z M133.7,507.8h-12.4v-2.7
					c0-2.3-0.7-4.4-3.9-7.7c-3.2-3.2-5-7-5-10.7c0-8,6.8-14.5,15.1-14.5s15.1,6.5,15.1,14.5c0,3.7-1.8,7.5-5,10.7
					c-3.3,3.2-3.9,5.3-3.9,7.7V507.8z M122.6,506.5h9.8v-1.4c0-2.6,0.7-5.1,4.3-8.6c2.9-2.9,4.6-6.4,4.6-9.7
					c0-7.3-6.2-13.2-13.8-13.2s-13.8,5.9-13.8,13.2c0,3.3,1.7,6.8,4.6,9.7c3.6,3.5,4.3,6,4.3,8.6V506.5z"/>
			</g>
		</g>
	</g>
</g>
</svg>
