<?xml version="1.0" encoding="utf-8"?>
<!-- Generator: Adobe Illustrator 19.0.0, SVG Export Plug-In . SVG Version: 6.00 Build 0)  -->
<!DOCTYPE svg PUBLIC "-//W3C//DTD SVG 1.1//EN" "http://www.w3.org/Graphics/SVG/1.1/DTD/svg11.dtd">
<svg version="1.1" id="Layer_1" xmlns:sketch="http://www.bohemiancoding.com/sketch/ns"
	 xmlns="http://www.w3.org/2000/svg" xmlns:xlink="http://www.w3.org/1999/xlink" x="0px" y="0px" viewBox="-616 378 46 46"
	 style="enable-background:new -616 378 46 46;" xml:space="preserve" fill="#0071c2">
<title>Imported Layers</title>
<desc>Created with Sketch.</desc>
<g id="Page-1" sketch:type="MSPage">
	<g id="Compute-Taxonomy" transform="translate(-778.000000, -275.000000)" sketch:type="MSArtboardGroup">
		<path d="M184.7,698.2c-12.4,0-22.5-10.1-22.5-22.5s10.1-22.5,22.5-22.5s22.5,10.1,22.5,22.5S197.1,698.2,184.7,698.2z
			 M184.7,654.8c-11.6,0-21,9.4-21,21s9.4,21,21,21s21-9.4,21-21S196.3,654.8,184.7,654.8z M195.9,686.7h-22.4
			c-0.8,0-1.4-0.6-1.4-1.4v-15.6c0-0.6,0.4-1.3,0.9-1.6l10.7-6.2c0.5-0.3,1.3-0.3,1.9,0l10.7,6.2c0.5,0.3,0.9,1,0.9,1.6v15.6
			C197.3,686.1,196.6,686.7,195.9,686.7z M173.6,685.2h22.2v-15.5c0-0.1-0.1-0.3-0.2-0.3l-10.7-6.2c-0.1,0-0.3,0-0.4,0l-10.7,6.2
			c-0.1,0-0.2,0.2-0.2,0.3V685.2z"/>
	</g>
</g>
</svg>
