<?xml version="1.0" encoding="utf-8"?>
<!-- Generator: Adobe Illustrator 19.0.0, SVG Export Plug-In . SVG Version: 6.00 Build 0)  -->
<!DOCTYPE svg PUBLIC "-//W3C//DTD SVG 1.1//EN" "http://www.w3.org/Graphics/SVG/1.1/DTD/svg11.dtd">
<svg version="1.1" id="Layer_1" xmlns:sketch="http://www.bohemiancoding.com/sketch/ns"
	 xmlns="http://www.w3.org/2000/svg" xmlns:xlink="http://www.w3.org/1999/xlink" x="0px" y="0px" viewBox="-616 381 46 40"
	 style="enable-background:new -616 381 46 40;" xml:space="preserve" fill="#0071c2">
<title>Imported Layers</title>
<desc>Created with Sketch.</desc>
<g id="Page-1" sketch:type="MSPage">
	<g id="Compute-Taxonomy" transform="translate(-196.000000, -276.000000)" sketch:type="MSArtboardGroup">
		<g id="Main-Menu" transform="translate(23.000000, 62.000000)" sketch:type="MSLayerGroup">
			<path d="M-408.7,634.9h-22.7l-11.3-19.8l11.3-19.8h22.7l11.3,19.8L-408.7,634.9z M-429.9,633.6h19.5l-9.7-17.1L-429.9,633.6z
				 M-419.1,615.8l9.8,17.4l9.9-17.4H-419.1z M-440.9,615.8l9.8,17.2l9.8-17.2H-440.9z M-419,614.5h19.7l-9.8-17.2L-419,614.5z
				 M-440.9,614.5h19.6l-9.7-17.2L-440.9,614.5z M-429.9,596.6l9.8,17.3l9.9-17.3H-429.9z"/>
		</g>
	</g>
</g>
</svg>
