<?xml version="1.0" encoding="utf-8"?>
<!-- Generator: Adobe Illustrator 18.1.0, SVG Export Plug-In . SVG Version: 6.00 Build 0)  -->
<!DOCTYPE svg PUBLIC "-//W3C//DTD SVG 1.1//EN" "http://www.w3.org/Graphics/SVG/1.1/DTD/svg11.dtd">
<svg version="1.1" id="Layer_1" xmlns="http://www.w3.org/2000/svg" xmlns:xlink="http://www.w3.org/1999/xlink" x="0px" y="0px"
	 width="64px" height="64px" viewBox="0 0 64 64" enable-background="new 0 0 64 64" xml:space="preserve">
<g>
	<path fill="#9855D4" d="M9.4,36.2H15v5.5H9.4V36.2z"/>
	<path fill="#9855D4" d="M17.6,23.1h4.9v2.4h0.1c1.3-2,3.2-2.9,5.5-2.9c5.8,0,8.5,4.7,8.5,10c0,5-2.7,9.6-8.2,9.6
		c-2.3,0-4.3-1-5.6-2.8h-0.1v8.9h-5.1V23.1z M31.5,32.5c0-3-1.2-6-4.5-6c-3.3,0-4.4,3-4.4,6s1.2,5.9,4.5,5.9
		C30.4,38.4,31.5,35.5,31.5,32.5z"/>
	<path fill="#9855D4" d="M47.6,44c-1.1,3-2.9,4.2-6.4,4.2c-1,0-2.1-0.1-3.1-0.2v-4.2c1,0.1,2,0.2,3,0.2c1.3-0.1,2-1.2,2-2.3
		c0-0.4-0.1-0.8-0.2-1.2l-6.6-17.5h5.5l4.2,12.7H46L50,23.1h5.3L47.6,44z"/>
</g>
</svg>
