<?xml version="1.0" encoding="utf-8"?>
<!-- Generator: Adobe Illustrator 18.1.1, SVG Export Plug-In . SVG Version: 6.00 Build 0)  -->
<svg version="1.1" id="Layer_1" xmlns:sketch="http://www.bohemiancoding.com/sketch/ns"
	 xmlns="http://www.w3.org/2000/svg" xmlns:xlink="http://www.w3.org/1999/xlink" x="0px" y="0px" viewBox="-1402 360 75 74"
	 enable-background="new -1402 360 75 74" xml:space="preserve">
<title>WhatIsBluemix-icon</title>
<desc>Created with Sketch.</desc>
<g id="Docs" sketch:type="MSPage">
	<g id="WhatIsBluemix-icon" transform="translate(1.000000, 1.000000)" sketch:type="MSLayerGroup">
		<g id="Layer_1_1_" sketch:type="MSShapeGroup">
			<g id="Group">
				<path id="Shape" fill="none" stroke="#3D70B2" stroke-width="1.5" d="M-1360.1,396.4l-10.3-17.8l10.3-17.9h20.6l10.3,17.9
					l-10.3,17.8H-1360.1z"/>
				<path id="Shape_1_" fill="none" stroke="#3D70B2" stroke-width="1.5" d="M-1360.1,432l-10.3-17.9l10.3-17.8h20.6l10.3,17.8
					l-10.3,17.9H-1360.1z"/>
				<path id="Shape_2_" fill="none" stroke="#3D70B2" stroke-width="1.5" d="M-1391.1,414.4l-10.3-17.8l10.3-17.9h20.6l10.3,17.9
					l-10.3,17.8H-1391.1z"/>
				<path id="Oval" fill="none" stroke="#3D70B2" stroke-width="1.5" d="M-1360.1,417.1c11.2,0,20.3-9.4,20.3-20.9
					c0-1.3-0.1-2.6-0.3-3.9c-1.8-9.7-10-17-20-17c-11.2,0-20.3,9.4-20.3,20.9C-1380.4,407.7-1371.3,417.1-1360.1,417.1z"/>
				<path id="Shape_3_" fill="none" stroke="#3D70B2" stroke-width="1.5" d="M-1370.5,378.7v36.5"/>
				<path id="Shape_4_" fill="none" stroke="#3D70B2" stroke-width="1.5" d="M-1370.5,414.4l31-18"/>
				<path id="Shape_5_" fill="none" stroke="#3D70B2" stroke-width="1.5" d="M-1339.5,396.4l-31-17.7"/>
			</g>
		</g>
	</g>
</g>
</svg>
