<?xml version="1.0" encoding="UTF-8" standalone="no"?>
<svg width="12px" height="24px" viewBox="0 0 12 24" version="1.1" xmlns="http://www.w3.org/2000/svg" xmlns:xlink="http://www.w3.org/1999/xlink" xmlns:sketch="http://www.bohemiancoding.com/sketch/ns">
    <!-- Generator: Sketch 3.3.2 (12043) - http://www.bohemiancoding.com/sketch -->
    <title>CLI Plugin</title>
    <desc>Created with Sketch.</desc>
    <defs></defs>
    <g id="Page-1" stroke="none" stroke-width="1" fill="none" fill-rule="evenodd" sketch:type="MSPage">
        <g id="Group" sketch:type="MSLayerGroup" transform="translate(-6.000000, -454.000000)"></g>
        <g id="Imported-Layers-Copy-2" sketch:type="MSLayerGroup" transform="translate(6.000000, 12.000000) rotate(-90.000000) translate(-6.000000, -12.000000) translate(-6.000000, 6.000000)" fill="#5294E9">
            <path d="M9.28208,12 L16.8,12 L16.8,0 L9.28208,0 C7.3368,0 5.76,1.5768 5.76,3.52208 L5.76,8.47792 C5.76,10.4232 7.3368,12 9.28208,12" id="Fill-1" sketch:type="MSShapeGroup"></path>
            <path d="M17.76,4.32 L24,4.32 L24,2.08 L17.76,2.08 L17.76,4.32 Z M22.88,3.84 C22.52656,3.84 22.24,3.55344 22.24,3.2 C22.24,2.84656 22.52656,2.56 22.88,2.56 C23.23344,2.56 23.52,2.84656 23.52,3.2 C23.52,3.55344 23.23344,3.84 22.88,3.84 L22.88,3.84 Z" id="Fill-2" sketch:type="MSShapeGroup"></path>
            <path d="M17.76,10.24 L24,10.24 L24,8 L17.76,8 L17.76,10.24 Z M22.88,9.76 C22.52656,9.76 22.24,9.47344 22.24,9.12 C22.24,8.76656 22.52656,8.48 22.88,8.48 C23.23344,8.48 23.52,8.76656 23.52,9.12 C23.52,9.47344 23.23344,9.76 22.88,9.76 L22.88,9.76 Z" id="Fill-3" sketch:type="MSShapeGroup"></path>
            <path d="M5.76,7.36 L4.43552,7.36 C1.9896,7.36 0,5.37024 0,2.92448 L0,0.16 L1.6,0.16 L1.6,2.92448 C1.6,4.488 2.872,5.76 4.43552,5.76 L5.76,5.76 L5.76,7.36" id="Fill-4" sketch:type="MSShapeGroup"></path>
        </g>
    </g>
</svg>
