<?xml version="1.0" encoding="utf-8"?>
<!-- Generator: Adobe Illustrator 19.0.0, SVG Export Plug-In . SVG Version: 6.00 Build 0)  -->
<svg version="1.1" id="Layer_1" xmlns="http://www.w3.org/2000/svg" xmlns:xlink="http://www.w3.org/1999/xlink" x="0px" y="0px"
	 viewBox="-297 389 16 16" style="enable-background:new -297 389 16 16;" xml:space="preserve">
<style type="text/css">
	.st0{fill:#F19026;}
</style>
<path class="st0" d="M-1656,696.4c-0.4,0-0.8,0.4-0.8,0.8c0,0.4,0.4,0.8,0.8,0.8s0.8-0.4,0.8-0.8
	C-1655.2,696.8-1655.6,696.4-1656,696.4z M-1656.8,691.6l0.4,4h0.8l0.4-4V690h-1.6V691.6z M-1656,686c-4.4,0-8,3.6-8,8s3.6,8,8,8
	s8-3.6,8-8S-1651.6,686-1656,686z M-1656,700.9c-3.8,0-6.9-3.1-6.9-6.9s3.1-6.9,6.9-6.9s6.9,3.1,6.9,6.9
	C-1649.1,697.8-1652.2,700.9-1656,700.9z"/>
</svg>
