<svg id="Layer_1" data-name="Layer 1" xmlns="http://www.w3.org/2000/svg" viewBox="0 0 40 25.42"><defs><style>.cls-1{fill:#777677;}.cls-2{fill:#fff;}.cls-3{fill:#5596e6;}.cls-4{fill:#efc100;}.cls-5{fill:#ff5bb0;}.cls-6{fill:#00bfb0;}.cls-7{fill:#ff5050;}.cls-8{fill:#aa70dc;}.cls-9{fill:#8cd211;}</style></defs><title>42px_Bluemix-to-garage</title><path class="cls-1" d="M9.09,14.2L7.87,15.61l3.7,4.29H0c0,0.52,0,1.86,0,2H11.57L7.87,26.2l1.22,1.41,5.78-6.71Z" transform="translate(0 -8.26)"/><rect class="cls-2" y="9.82" width="1.08" height="6.33"/><polygon class="cls-3" points="25.94 16.02 23.96 12.6 25.94 9.18 29.89 9.18 31.86 12.6 29.89 16.02 25.94 16.02"/><polygon class="cls-4" points="25.94 6.84 23.96 3.42 25.94 0 29.89 0 31.86 3.42 29.89 6.84 25.94 6.84"/><polygon class="cls-5" points="25.94 25.42 23.96 22 25.94 18.58 29.89 18.58 31.86 22 29.89 25.42 25.94 25.42"/><polygon class="cls-6" points="34.08 11.75 32.1 8.33 34.08 4.91 38.02 4.91 40 8.33 38.02 11.75 34.08 11.75"/><polygon class="cls-7" points="17.97 11.75 16 8.33 17.97 4.91 21.92 4.91 23.9 8.33 21.92 11.75 17.97 11.75"/><polygon class="cls-8" points="34.08 21.28 32.1 17.86 34.08 14.44 38.02 14.44 40 17.86 38.02 21.28 34.08 21.28"/><polygon class="cls-9" points="17.97 21.28 16 17.86 17.97 14.44 21.92 14.44 23.9 17.86 21.92 21.28 17.97 21.28"/></svg>